<svg width="59" height="47" viewBox="0 0 59 47" fill="none" xmlns="http://www.w3.org/2000/svg">
<g clip-path="url(#clip0)">
<path d="M8.01771 30.4088C11.245 21.9705 18.7952 13.2064 28.2596 12.6347C36.6767 12.1061 44.249 16.3971 51.2357 20.5633C52.5087 21.3258 53.6665 19.3428 52.3934 18.5803C44.3064 13.678 35.2246 8.86842 25.4877 10.6372C16.2727 12.3175 9.01902 21.4009 5.80775 29.7795C5.2758 31.1632 7.49668 31.7738 8.01771 30.4088Z" fill="black"/>
<path d="M5.11239 31.3565C12.4509 36.6601 21.3215 39.9624 30.2872 37.0227C39.4687 33.9713 47.5187 28.1855 52.5831 19.8552C53.3519 18.5922 51.3734 17.4267 50.6046 18.6897C45.8718 26.4737 38.2615 31.9466 29.6766 34.7711C21.2782 37.5233 13.1301 34.326 6.26242 29.3438C5.06423 28.4745 3.91033 30.4723 5.11239 31.3565Z" fill="black"/>
<path d="M25.1728 11.8534C11.4335 8.9954 11.744 41.6739 29.6279 37.734C36.7689 36.1581 41.2447 28.7822 40.1396 21.6635C39.114 15.0316 32.8882 7.69329 25.6138 10.1207C24.2187 10.5875 24.792 12.8171 26.1944 12.3484C31.8208 10.4774 36.4862 16.0417 37.6755 21.029C38.8649 26.0163 36.7575 31.7202 32.2658 34.2471C26.8398 37.3109 20.0406 35.1974 18.3381 28.9084C17.163 24.5518 17.2321 12.5434 24.5401 14.0326C25.9843 14.3302 26.6073 12.1139 25.1631 11.8163L25.1728 11.8534Z" fill="black"/>
<path d="M28.7236 18.4773C25.6122 18.8442 23.4545 21.4764 24.2533 24.6623C24.4558 25.3634 24.797 26.0165 25.2567 26.5827C25.7163 27.1489 26.2848 27.6164 26.9283 27.9573C27.5717 28.2982 28.2768 28.5055 29.0014 28.5668C29.7261 28.628 30.4553 28.542 31.1454 28.3138C34.0268 27.428 36.0105 23.9768 34.7902 21.0831C33.5257 18.0503 29.057 16.9075 26.1371 17.4941C24.6882 17.7845 25.2763 20.0103 26.7177 19.7218C28.4869 19.4329 30.2996 19.855 31.7635 20.8966C33.5253 22.2613 32.9202 24.7585 31.1349 25.8186C30.434 26.2297 29.605 26.3635 28.8099 26.1939C28.0149 26.0242 27.3109 25.5633 26.8355 24.9012C26.5845 24.5219 26.4341 24.0847 26.3986 23.631C26.3632 23.1774 26.4438 22.7225 26.6329 22.3093C26.8219 21.8962 27.1132 21.5386 27.4789 21.2705C27.8447 21.0023 28.2729 20.8326 28.7228 20.7773C30.1711 20.6059 30.2109 18.3038 28.7552 18.477L28.7236 18.4773Z" fill="black"/>
<path d="M26.5931 16.0905C25.2306 16.4904 23.9368 17.0951 22.7554 17.8839C21.905 18.4703 22.088 20.1117 23.3167 20.0373C26.1925 19.8499 29.0775 19.8448 31.9546 20.0221L31.9869 17.7218L27.0877 18.079C25.6293 18.1815 25.5648 20.4188 27.0553 20.3792C29.8547 20.2998 32.819 20.2171 34.958 22.332C35.1749 22.4958 35.4425 22.5773 35.7133 22.5619C35.9841 22.5466 36.2405 22.4355 36.437 22.2483C36.6335 22.0611 36.7574 21.8099 36.7867 21.5394C36.816 21.2689 36.7488 20.9966 36.597 20.7708C34.0006 18.2041 30.5513 18.0326 27.1032 18.1384L27.0708 20.4386L31.97 20.0815C32.2683 20.0774 32.553 19.9569 32.7638 19.7455C32.9746 19.5341 33.0948 19.2485 33.099 18.9493C33.1032 18.65 32.9911 18.3606 32.7863 18.1426C32.5816 17.9245 32.3004 17.7949 32.0024 17.7812C29.1225 17.5975 26.234 17.6007 23.3552 17.791L23.9165 19.9444C24.9116 19.2351 26.0086 18.6818 27.1699 18.3034C28.5707 17.8589 27.9974 15.6293 26.5892 16.0757L26.5931 16.0905Z" fill="black"/>
<path d="M31.4096 13.9628L30.8432 13.5474C29.9556 12.9302 28.991 13.9271 29.1548 14.8281C29.4355 16.4202 30.2458 16.9227 31.7745 17.1507C31.9764 17.1529 32.1751 17.1015 32.3506 17.0018C32.5262 16.9022 32.6723 16.7577 32.7742 16.5831C32.8762 16.4085 32.9303 16.2099 32.9313 16.0074C32.9322 15.8049 32.8798 15.6056 32.7794 15.4297C31.303 13.372 28.7341 12.3049 26.612 14.2855C25.4224 15.3886 24.7721 17.6517 26.6939 18.3878C30.832 19.9896 31.4128 10.8533 26.6058 13.383C25.4184 14.0098 23.9024 16.4668 24.8886 17.7957C26.0065 19.2966 28.1928 17.9257 28.4747 16.401C29.198 12.3267 21.1968 12.9056 23.6977 18.4392C23.8012 18.6102 23.9468 18.7517 24.1204 18.8502C24.2941 18.9486 24.4899 19.0006 24.6892 19.0012C24.8884 19.0018 25.0844 18.951 25.2582 18.8537C25.4321 18.7564 25.578 18.6158 25.682 18.4454C26.7955 16.6563 26.4413 11.9033 23.2095 13.4753C20.9185 14.5959 21.0393 19.0291 22.8734 20.3987C23.049 20.5003 23.2478 20.5545 23.4504 20.5559C23.6529 20.5573 23.8522 20.5059 24.0288 20.4068C26.2203 19.5105 26.5913 15.4487 24.3237 14.2951C20.8649 12.5718 19.6847 18.1054 20.0936 20.4016C20.5624 23.0788 22.8892 23.3684 24.298 21.1059C25.7067 18.8434 25.0838 14.7869 21.6757 15.5008C19.1521 16.0317 17.4523 20.5112 19.2474 22.5493C21.2633 24.7676 24.0774 21.2903 24.3455 19.3489C24.7054 16.6381 21.9671 14.497 19.6194 16.3699C17.5861 17.9942 17.1913 23.45 20.2346 24.3062C23.6404 25.2503 24.6959 19.5113 23.2678 17.4569C20.3343 13.2335 18.069 20.2712 18.0087 22.5549C17.9721 23.9602 19.7902 24.0255 20.2599 22.888C20.7874 21.6086 20.6747 18.4183 21.3855 17.448C22.9031 15.2998 27.2276 15.1321 29.3674 16.4618L30.5251 14.4788L26.3862 12.116C26.1464 11.9815 25.8668 11.9376 25.5979 11.9923C25.329 12.047 25.0888 12.1967 24.9209 12.4142C24.7529 12.6316 24.6684 12.9025 24.6826 13.1775C24.6968 13.4525 24.8088 13.7135 24.9983 13.9131C26.4517 15.3819 28.0674 16.6795 29.8139 17.7808C30.9865 18.5219 31.9651 16.9425 31.2072 15.9743C30.7018 15.3685 29.7449 14.1826 29.7741 14.1432C30.06 13.6643 33.2064 17.3406 33.3559 17.6109L35.158 16.2212C33.9517 15.0261 32.8642 13.716 31.9108 12.3095L30.1183 13.7363C31.6494 15.4803 32.9099 17.4456 33.8575 19.5657L35.4241 17.9996C34.1828 17.0861 32.9277 16.2713 31.5944 15.4293C31.3974 15.3214 31.1736 15.273 30.95 15.2898C30.7264 15.3067 30.5125 15.3881 30.3342 15.5243C30.156 15.6605 30.0209 15.8456 29.9452 16.0573C29.8696 16.269 29.8566 16.4982 29.9079 16.7174C30.3055 18.2971 31.3071 19.6572 32.6957 20.503C33.7906 21.2485 34.9856 19.6206 34.0836 18.7059L31.387 15.9671L29.9914 17.7345C32.1035 18.6089 33.8595 20.175 34.9727 22.1775C35.5986 23.2753 37.5084 22.5713 37.0774 21.3117L35.3304 16.2159L33.2332 17.0798C34.2106 18.8393 35.0087 20.693 35.6154 22.6127C36.061 24.0191 38.282 23.4481 37.8344 22.0343C37.2222 20.0766 36.7735 18.0715 36.4931 16.0398L34.2741 16.6182C35.034 18.5068 35.4782 20.5078 35.5887 22.5403L37.8851 22.259L37.3374 20.1575C36.9638 18.7244 34.7911 19.2986 35.1183 20.7359C35.6075 22.5992 35.4228 24.5749 34.5969 26.3119L36.5813 26.3181L36.2413 24.2259L33.9488 24.189L34.0135 27.2253C34.0437 28.4624 36.0679 28.8944 36.2721 27.5564L36.6559 24.9981L34.4046 24.665C34.3753 25.6951 34.1998 26.7155 33.8832 27.6954L36.1197 28.0323C36.3095 26.3968 36.4321 24.7154 36.4862 23.0439L34.1879 22.9848C34.2799 23.8425 34.2393 24.709 34.0676 25.5538L36.3601 25.5906L36.2437 23.0833C36.1893 21.8445 34.3025 21.4244 33.9944 22.7576C33.7151 23.9062 33.5527 25.0804 33.5097 26.2622C33.5113 26.4887 33.579 26.7098 33.7045 26.8983C33.8299 27.0867 34.0076 27.2343 34.2155 27.3227C34.4235 27.4111 34.6526 27.4364 34.8745 27.3956C35.0964 27.3548 35.3013 27.2496 35.4641 27.093L36.5051 25.9652L34.5837 25.443C34.8049 26.2875 34.881 27.1635 34.8086 28.0331C34.7769 29.5481 36.9201 29.497 37.1011 28.0699L37.6223 24.0086L35.3224 23.9737L34.9888 26.3604C34.6762 27.798 36.8064 28.4243 37.1968 26.9824L37.6074 25.5272L35.3562 25.1941C35.5197 26.3802 35.2921 27.5867 34.7082 28.6295C34.1243 29.6723 33.216 30.4941 32.122 30.9697L33.6878 32.552C35.1322 30.3723 36.2192 27.9739 36.9074 25.448L34.6562 25.1149C34.5396 26.0908 34.5761 27.0794 34.7642 28.0446C34.8882 29.0353 36.4458 29.1924 36.8629 28.3382C37.957 26.2713 38.4725 23.9447 38.3546 21.6053L36.1025 21.8751C36.5442 23.0452 36.6031 24.3254 36.2708 25.5299C35.9385 26.7344 35.2323 27.8007 34.2545 28.574L36.2162 29.4029L35.8488 24.9626C35.7727 23.9436 34.2405 23.2169 33.717 24.3605L31.2626 29.7028L33.3531 30.6012L34.1219 28.4896C34.5504 27.3153 32.9989 26.6967 32.2014 27.3646L31.2643 28.1639C30.2868 28.9897 31.6117 30.7696 32.6527 29.9749C33.2727 29.5858 33.7255 28.9787 33.9229 28.2719C34.3456 27.0753 32.8057 26.5012 32.0121 27.1839C27.1351 31.1117 23.6434 24.171 24.3628 20.0819C24.5393 19.0922 23.2454 17.9465 22.4594 18.992C21.2142 20.4957 20.4798 22.3594 20.3626 24.3125C20.2601 25.7983 22.5488 25.8203 22.6551 24.3493C22.6529 22.9387 23.1742 21.5787 24.1174 20.5344L22.1969 19.4093C21.5537 23.0028 22.1167 27.0114 25.3585 29.2354C26.6077 30.0812 28.0981 30.493 29.6011 30.4077C31.1042 30.3225 32.537 29.7449 33.6798 28.7635L31.7593 27.6384L31.5533 27.9696L32.9343 29.7825L33.8787 28.9812L32.0026 27.8446L31.2338 29.9561C30.7982 31.164 32.7884 32.041 33.3317 30.8526L35.7842 25.5028L33.647 24.91L33.9315 29.3957C33.9365 29.6206 34.0062 29.8394 34.1322 30.0257C34.2582 30.212 34.4352 30.3579 34.6418 30.4457C34.8483 30.5335 35.0757 30.5595 35.2964 30.5206C35.5172 30.4817 35.7219 30.3796 35.8859 30.2265C37.1648 29.1833 38.0858 27.7641 38.5196 26.1678C38.9534 24.5715 38.8784 22.8781 38.3051 21.3247C37.9086 20.1672 35.9861 20.2163 36.0457 21.5965C36.1758 23.5388 35.7683 25.4783 34.8681 27.2008L36.9832 27.4662L36.9564 25.1814C37.0699 23.8592 35.0571 23.6226 34.7052 24.8483C34.0444 27.1782 33.0209 29.388 31.6724 31.3961C30.9973 32.4127 32.2863 33.4486 33.2381 32.9785C34.6879 32.3188 35.8935 31.2182 36.6847 29.8323C37.4758 28.4464 37.8125 26.8453 37.6471 25.2552C37.5519 24.0111 35.7596 23.5901 35.3959 24.9221L34.9872 26.3846L37.1984 26.9582C37.4507 25.99 37.6051 24.9986 37.6593 23.999C37.7579 22.4983 35.5385 22.5296 35.3594 23.9641L34.8382 28.0254L37.1307 28.0622C37.1536 26.9861 37.0535 25.9106 36.8323 24.8569C36.778 24.6629 36.6745 24.4862 36.532 24.3441C36.3895 24.2019 36.2128 24.0992 36.0191 24.0459C35.8255 23.9925 35.6214 23.9904 35.4269 24.0398C35.2323 24.0891 35.0539 24.1881 34.9091 24.3273L33.8661 25.4477L35.8224 26.2859C35.7947 25.3119 35.9142 24.3396 36.1767 23.4021L33.9216 23.0542L34.036 25.5541C34.0407 25.8533 34.1613 26.1392 34.3724 26.3511C34.5834 26.563 34.8683 26.6842 35.1666 26.689C35.4648 26.6938 35.753 26.5818 35.9699 26.3768C36.1869 26.1718 36.3155 25.8899 36.3285 25.5909C36.5003 24.7462 36.5409 23.8796 36.4488 23.0219C36.4442 22.7226 36.3236 22.4367 36.1125 22.2248C35.9014 22.0129 35.6165 21.8917 35.3183 21.8869C35.02 21.8821 34.7319 21.9941 34.5149 22.1991C34.298 22.4042 34.1694 22.6861 34.1563 22.9851C34.0949 24.6585 33.9719 26.3083 33.7899 27.9735C33.6429 29.2886 35.7039 29.5285 36.0391 28.2992C36.3663 27.1295 36.5829 25.9314 36.6862 24.7205C36.7872 23.4412 34.6267 23.0924 34.435 24.3874L34.0609 26.9829L36.3121 27.316L36.2401 24.2817C36.2354 23.9824 36.1148 23.6965 35.9037 23.4846C35.6927 23.2727 35.4078 23.1515 35.1095 23.1467C34.8113 23.142 34.5231 23.2539 34.3062 23.459C34.0892 23.664 33.9606 23.9459 33.9476 24.2449C33.913 25.3712 34.1451 26.4902 34.6249 27.51C34.7258 27.6831 34.8699 27.8269 35.0431 27.9271C35.2162 28.0273 35.4124 28.0804 35.6121 28.0813C35.8118 28.0821 36.0082 28.0305 36.1818 27.9318C36.3553 27.833 36.5001 27.6904 36.6018 27.5181C37.7019 25.2391 37.9702 22.6436 37.3599 20.1833L35.1409 20.7618L35.6886 22.8632C36.008 24.0884 38.0163 23.9139 37.9407 22.5934C37.8335 20.3539 37.3647 18.1461 36.5526 16.056C36.4756 15.7606 36.2849 15.5077 36.0224 15.3531C35.7598 15.1984 35.4471 15.1546 35.1528 15.2313C34.8585 15.308 34.6069 15.4989 34.4533 15.7621C34.2997 16.0252 34.2566 16.339 34.3336 16.6344C34.6141 18.6661 35.0628 20.6712 35.6749 22.6289L37.894 22.0505C37.225 19.9147 36.3433 17.8517 35.262 15.8928C34.6491 14.7837 32.7357 15.5045 33.1204 16.7682L34.877 21.9011L36.9742 21.0372C35.6847 18.6742 33.6388 16.8156 31.1678 15.7625C30.0423 15.2629 28.7862 16.5657 29.7745 17.569L32.4447 20.2671L33.8532 18.4884L32.1266 16.1073L30.4086 17.3957C31.7377 18.1913 33.0025 19.0432 34.2383 19.9661C35.2258 20.7238 36.2267 19.3209 35.8123 18.398C34.7722 16.0998 33.3895 13.9733 31.7119 12.0918C30.8987 11.1539 29.1913 12.3919 29.93 13.4682C30.9937 15.0378 32.2011 16.5046 33.5365 17.8493C33.7369 18.0341 33.9957 18.1422 34.2674 18.1544C34.5391 18.1667 34.8061 18.0823 35.0216 17.9162C35.237 17.7501 35.3869 17.5129 35.4449 17.2464C35.5029 16.98 35.4653 16.7013 35.3387 16.4596C34.2802 14.4596 30.2487 10.0545 27.5245 11.2404C24.391 12.644 28.6307 16.4238 29.5799 17.5801L30.9658 15.7755C29.3904 14.7734 27.9313 13.5976 26.6159 12.2702L25.2284 14.0989L29.3748 16.4599C29.6364 16.6018 29.9425 16.6364 30.2286 16.5564C30.5147 16.4764 30.7585 16.288 30.9086 16.0309C31.0587 15.7738 31.1033 15.4682 31.0332 15.1783C30.963 14.8884 30.7836 14.6369 30.5325 14.4769C28.4566 13.2099 24.1527 12.7299 21.8648 13.6196C18.3931 14.9686 19.1991 19.4849 18.0593 22.2642L20.3086 22.5899L20.4636 20.8207C21.229 18.9083 21.3259 18.6134 20.7656 19.9489C20.472 20.9136 20.3637 21.0132 20.4258 20.2516C20.3223 19.4301 20.5443 19.5546 21.0845 20.6271L21.0251 19.4293L22.3047 19.9443C22.2058 19.6055 22.2327 19.2425 22.3803 18.9226C22.5278 18.6027 22.7861 18.3476 23.1072 18.2046C24.0328 17.7148 24.2194 17.4204 23.6669 17.3212L25.6512 17.3273C27.0049 15.7929 28.7214 15.5596 30.7821 16.6164L31.8073 14.8821L31.3816 14.2794L29.6858 15.562L30.2519 15.9457C31.4664 16.787 32.6149 14.7985 31.4096 13.9628Z" fill="black"/>
<path d="M24.132 17.7392C23.2992 19.4234 22.3934 21.0393 21.4019 22.63L23.4924 23.5284L24.7733 19.7449L22.524 19.4193C22.5047 20.8507 22.7214 22.276 23.1654 23.6375C23.2288 23.8528 23.3527 24.0453 23.5223 24.1919C23.6919 24.3385 23.9 24.433 24.1216 24.464C24.3431 24.495 24.5688 24.4612 24.7715 24.3666C24.9741 24.2721 25.1452 24.1208 25.2641 23.931C26.2588 21.9588 27.1691 18.5415 24.2988 17.5609C23.8672 17.4268 23.4123 17.3859 22.9642 17.4409L21.9985 17.8275C21.5557 18.1491 21.7185 18.1066 22.4867 17.7002C22.3294 17.0979 22.0609 16.5304 21.6951 16.0271C21.4465 15.6795 20.5878 15.3245 20.572 14.9003L18.2795 14.8635C18.3359 16.1297 18.5079 17.3882 18.7935 18.6232C18.8568 18.8386 18.9808 19.0311 19.1504 19.1777C19.32 19.3243 19.5281 19.4188 19.7497 19.4498C19.9712 19.4808 20.1969 19.447 20.3995 19.3524C20.6022 19.2579 20.7733 19.1066 20.8922 18.9168C24.0877 13.5081 30.3069 15.4874 34.8874 17.6955C35.5827 18.0297 36.6951 17.6604 36.6088 16.7234C36.5814 15.8559 36.333 15.0096 35.8873 14.265C35.4415 13.5205 34.8133 12.9026 34.0625 12.4704C33.8661 12.3627 33.6429 12.3142 33.4199 12.3306C33.1969 12.3471 32.9835 12.4277 32.8052 12.5629C32.627 12.6981 32.4915 12.8821 32.415 13.0929C32.3385 13.3036 32.3244 13.5322 32.3741 13.7511C32.7664 15.0799 33.5206 16.2731 34.5518 17.1961C35.6031 18.1988 37.2655 16.576 36.1734 15.568C35.3837 14.9793 34.8245 14.1316 34.5932 13.1727L32.9048 14.4533L34.2793 16.6961L36.0081 15.7221C30.2287 12.9146 22.832 11.1154 18.9137 17.7513L21.0125 18.0448C20.7255 17.021 20.5773 15.9633 20.572 14.9003C20.4966 13.4291 18.2244 13.3791 18.2795 14.8635C18.2861 15.5926 18.5758 16.2909 19.0871 16.81C19.7433 17.7305 20.3023 18.717 20.7548 19.7535C20.8564 19.9199 20.9991 20.0572 21.1692 20.1518C21.3392 20.2465 21.5307 20.2954 21.725 20.2936C21.7694 20.2821 22.7002 20.095 22.743 20.1076C23.9797 20.4276 23.8535 21.6104 23.2908 22.7245L25.3895 23.0181C25.0073 21.8528 24.8149 20.6337 24.8197 19.4077C24.8095 19.1365 24.7046 18.8773 24.5235 18.6754C24.3424 18.4735 24.0965 18.3416 23.8288 18.3029C23.561 18.2641 23.2884 18.3208 23.0584 18.4632C22.8284 18.6056 22.6557 18.8246 22.5704 19.082L21.2876 22.8581C20.8305 24.135 22.7189 24.8641 23.3855 23.7545C24.3769 22.1639 25.2828 20.5479 26.1156 18.8637C26.7669 17.5441 24.7939 16.3692 24.1371 17.6982L24.132 17.7392Z" fill="black"/>
<path d="M21.3755 17.7438C20.0363 21.1765 20.0568 24.9956 21.4327 28.4188C21.5097 28.7142 21.7004 28.967 21.963 29.1217C22.2255 29.2763 22.5383 29.3201 22.8325 29.2434C23.1268 29.1667 23.3784 28.9758 23.532 28.7127C23.6857 28.4496 23.7287 28.1358 23.6517 27.8404C23.1068 24.8103 21.3481 22.0333 21.5362 18.8756C21.5984 17.7809 19.8694 17.2086 19.397 18.2754C17.8544 21.5598 17.5834 25.3043 18.6365 28.7828C18.7056 29.022 18.8497 29.2326 19.0473 29.3835C19.2449 29.5343 19.4856 29.6174 19.7336 29.6203C19.9817 29.6233 20.2239 29.546 20.4245 29.3999C20.6251 29.2539 20.7733 29.0467 20.8472 28.8093C21.9033 25.4968 20.8695 22.5307 19.595 19.4292C19.4798 19.2363 19.3113 19.081 19.1099 18.9824C18.9085 18.8837 18.6829 18.846 18.4608 18.8736C18.2386 18.9013 18.0293 18.9932 17.8585 19.1382C17.6877 19.2831 17.5626 19.4749 17.4987 19.6901C16.9871 22.4516 17.0206 25.288 17.5973 28.0387C17.6578 28.2563 17.7805 28.4516 17.9501 28.6004C18.1197 28.7493 18.3289 28.8452 18.5519 28.8764C18.7749 28.9076 19.0021 28.8727 19.2053 28.776C19.4086 28.6793 19.5791 28.5251 19.696 28.3322C20.2762 27.2379 20.5716 26.0139 20.5548 24.7735C20.5381 23.533 20.2096 22.3163 19.5999 21.236C19.4827 21.046 19.3136 20.8937 19.1128 20.7971C18.9119 20.7006 18.6878 20.6639 18.467 20.6914C18.2463 20.7188 18.0381 20.8094 17.8673 20.9522C17.6965 21.095 17.5703 21.284 17.5036 21.4969C16.2759 26.4243 18.1251 33.5791 24.0193 34.1601C24.1958 34.1613 24.3701 34.122 24.5289 34.0451C24.6877 33.9682 24.8268 33.8557 24.9354 33.7164C25.044 33.577 25.1193 33.4145 25.1555 33.2412C25.1916 33.068 25.1877 32.8887 25.144 32.717C24.8405 31.4598 24.2635 30.285 23.4545 29.277C22.6454 28.269 21.6244 27.4527 20.4646 26.8868C20.2903 26.7891 20.0938 26.738 19.8942 26.7385C19.6947 26.739 19.4987 26.7911 19.3252 26.8897C19.1517 26.9883 19.0065 27.1302 18.9036 27.3015C18.8007 27.4729 18.7436 27.6681 18.7377 27.8683C18.7754 29.286 19.1839 30.6695 19.9223 31.88C20.6607 33.0906 21.7031 34.0856 22.9448 34.7653C23.1192 34.863 23.3156 34.9141 23.5152 34.9136C23.7147 34.9131 23.9107 34.861 24.0842 34.7624C24.2577 34.6638 24.4029 34.5219 24.5058 34.3506C24.6087 34.1792 24.6658 33.984 24.6717 33.7838C24.8104 32.4228 24.5052 31.0525 23.8018 29.8788C23.0985 28.7051 22.035 27.7913 20.7711 27.2748C20.5743 27.1715 20.3522 27.1269 20.1311 27.1462C19.91 27.1656 19.6991 27.2481 19.5235 27.3839C19.3478 27.5198 19.2148 27.7034 19.14 27.9129C19.0652 28.1225 19.0518 28.3493 19.1014 28.5665C19.5272 30.5332 22.7213 38.2414 25.5188 34.0943C27.223 31.5407 23.9795 27.4615 21.2206 27.8476C20.9738 27.9144 20.7555 28.0601 20.5988 28.2626C20.4421 28.4651 20.3555 28.7135 20.352 28.9701C20.2008 31.0872 23.5031 37.6649 26.4044 35.3702C29.3056 33.0756 25.3371 29.0029 22.9895 28.3302C22.7706 28.2773 22.5413 28.2889 22.3291 28.3634C22.1169 28.438 21.9307 28.5725 21.7929 28.7507C21.6551 28.9289 21.5715 29.1433 21.5522 29.3682C21.5328 29.5931 21.5785 29.8189 21.6838 30.0186C22.6312 31.8653 25.7443 37.0807 28.5184 34.6923C31.2926 32.3039 25.8699 28.7134 24.2574 27.7697C24.0384 27.6465 23.7855 27.5981 23.5369 27.6319C23.2884 27.6657 23.0577 27.7799 22.8799 27.957C22.702 28.1342 22.5866 28.3648 22.5512 28.614C22.5157 28.8631 22.5621 29.1172 22.6834 29.3378C23.1789 30.3984 23.8783 31.3505 24.7415 32.1395C25.6046 32.9284 26.6144 33.5386 27.7128 33.9348C28.7446 34.3479 29.3796 33.0563 29.0129 32.2557C27.9772 29.9185 26.2191 27.977 23.9992 26.7189C23.7583 26.5878 23.479 26.5467 23.2111 26.6031C22.9432 26.6595 22.7042 26.8097 22.5367 27.0268C22.3693 27.2439 22.2843 27.5138 22.297 27.7883C22.3096 28.0628 22.4191 28.324 22.6059 28.5253L26.563 33.2512L28.1864 31.6306C26.1108 29.9899 23.9157 28.5077 21.6196 27.1964C21.4676 27.1095 21.2981 27.0581 21.1236 27.046C20.9492 27.0339 20.7744 27.0615 20.6122 27.1266C20.45 27.1918 20.3046 27.2928 20.1868 27.4222C20.0691 27.5517 19.982 27.7062 19.9321 27.8742C19.7045 28.694 19.6415 29.5513 19.7465 30.3963C19.8515 31.2414 20.1225 32.0575 20.5439 32.7974C20.9652 33.5372 21.5285 34.1861 22.2011 34.7065C22.8737 35.2269 23.6422 35.6084 24.4622 35.8289C25.3701 36.0998 26.3613 34.9929 25.7698 34.1479C24.2193 31.8546 22.0584 30.0437 19.5337 28.9217C19.3372 28.8141 19.1141 28.7656 18.8911 28.782C18.668 28.7984 18.4546 28.879 18.2763 29.0143C18.0981 29.1495 17.9626 29.3335 17.8861 29.5442C17.8097 29.755 17.7955 29.9835 17.8453 30.2024C18.453 32.534 22.3803 35.2058 24.5925 35.8742C28.4736 37.0355 31.7252 34.3878 34.3834 31.9185C35.1764 31.1726 34.3618 29.5927 33.2793 29.9859C31.3729 30.7386 29.2953 30.9481 27.2757 30.5912C25.8451 30.3456 25.2071 32.3834 26.6527 32.8075C28.6004 33.3704 30.8156 33.6257 32.5848 32.4429C32.7902 32.3134 32.9519 32.1247 33.0487 31.9014C33.1455 31.6781 33.173 31.4306 33.1275 31.1912C32.788 28.4645 29.0716 28.6322 27.1117 29.3255C26.8972 29.3887 26.7055 29.5127 26.5597 29.6826C26.414 29.8525 26.3202 30.0611 26.2897 30.2834C26.2593 30.5056 26.2934 30.7321 26.388 30.9357C26.4826 31.1392 26.6337 31.3111 26.8231 31.4308C27.57 31.9458 28.4487 32.2341 29.3537 32.2612C30.2588 32.2882 31.152 32.053 31.9264 31.5836C32.1177 31.4669 32.2712 31.2971 32.3684 31.0947C32.4656 30.8923 32.5023 30.6659 32.4742 30.4428C32.4461 30.2196 32.3543 30.0093 32.2099 29.8371C32.0655 29.6649 31.8747 29.5381 31.6604 29.4721C30.2045 29.1279 28.69 29.1238 27.2337 29.4602C27.0174 29.5225 26.8239 29.6466 26.6768 29.8172C26.5296 29.9879 26.4351 30.1979 26.4048 30.4217C26.3744 30.6455 26.4095 30.8734 26.5058 31.0778C26.602 31.2821 26.7553 31.4542 26.947 31.573C29.0401 32.8751 31.1351 32.4877 33.3675 31.7789L32.23 29.8391C31.2348 30.622 30.4526 31.644 29.9555 32.811C29.8519 33.0088 29.8067 33.2323 29.8255 33.4552C29.8442 33.6781 29.926 33.8911 30.0612 34.0691C30.1964 34.2471 30.3794 34.3828 30.5887 34.4602C30.7979 34.5375 31.0248 34.5533 31.2424 34.5057C32.3932 34.3791 33.4972 33.9805 34.4637 33.3425C35.4303 32.7046 36.2319 31.8456 36.8028 30.8359C37.2857 30.0518 36.4686 28.766 35.5232 29.1393C34.7542 29.3584 34.0658 29.7975 33.5419 30.4029C33.018 31.0084 32.6814 31.7541 32.573 32.549C32.5165 32.7919 32.5391 33.0467 32.6376 33.276C32.7361 33.5054 32.9053 33.6971 33.1202 33.823C33.3351 33.9489 33.5845 34.0024 33.8317 33.9756C34.0789 33.9488 34.3109 33.8431 34.4935 33.6741C36.3381 32.132 37.5471 29.958 37.8872 27.5715C38.1255 26.1216 35.9136 25.4848 35.6792 26.9496C35.421 28.947 34.417 30.7703 32.8698 32.0514L34.7459 33.188L36.0689 31.384L34.7874 29.68C34.3451 30.411 33.7386 31.0281 33.0163 31.4821C32.294 31.936 31.4758 32.2144 30.6267 32.295L31.9063 33.9916C32.3331 33.0195 32.9934 32.1689 33.8283 31.516C34.7236 30.7989 33.7684 29.2557 32.7261 29.5908C31.1867 30.0793 29.676 30.6476 28.0421 29.6222L27.8143 31.6879C28.8755 31.3381 30.0176 31.3167 31.0923 31.6265L30.8209 29.5244L28.014 29.4234L27.7254 31.5287C28.211 31.208 28.7881 31.0557 29.3687 31.0947C29.9493 31.1338 30.5016 31.3622 30.9415 31.7451L31.4449 30.464C30.8051 30.796 30.0995 30.981 29.3791 31.0056C28.6587 31.0302 27.9415 30.8937 27.2796 30.6061L26.6566 32.8224C29.0693 33.2882 31.5617 33.0828 33.8639 32.2284L32.7617 30.3032C30.4522 32.4436 27.5141 34.9303 24.1946 33.2262C23.0532 32.6355 20.3882 30.9273 20.0978 29.6311L18.3724 30.9215C20.5537 31.8429 22.4303 33.3669 23.7834 35.3159L25.0891 33.6274C24.5543 33.4953 24.0517 33.2553 23.612 32.9221C23.1723 32.5888 22.8048 32.1692 22.5318 31.689C22.2588 31.2088 22.086 30.678 22.0241 30.129C21.9622 29.58 22.0124 29.0243 22.1716 28.4958L20.4914 29.1717C22.6225 30.3757 24.6618 31.7367 26.5925 33.2435C26.8097 33.4472 27.0969 33.5586 27.3939 33.5543C27.6908 33.5499 27.9743 33.4302 28.1846 33.2202C28.3949 33.0102 28.5158 32.7264 28.5216 32.4285C28.5275 32.1306 28.4179 31.8418 28.216 31.6229L24.1998 26.9124L22.8045 28.7115C24.673 29.7789 26.1453 31.4273 26.9986 33.4073L28.2988 31.7282C27.4809 31.4204 26.7341 30.9482 26.1043 30.3405C25.4745 29.7327 24.975 29.0023 24.6366 28.1943L23.07 29.7604C23.6486 30.1013 26.0377 32.3572 26.1914 32.3409C25.3674 32.4526 24.0636 29.7235 23.6429 28.8974L22.3353 30.5784C24.1799 30.806 24.6503 31.257 23.7465 31.9314C23.1322 31.0601 22.7438 30.0493 22.6165 28.9905L21.7569 30.0868C22.8388 30.3282 23.0321 30.7061 22.3313 31.2297C21.8214 30.2111 21.4799 29.1162 21.3204 27.9881L19.632 29.2688C20.5299 29.5921 21.2916 30.2127 21.7914 31.0282C22.2912 31.8438 22.4992 32.8054 22.3811 33.7544L24.1006 32.7749C23.1976 32.3158 22.4354 31.6193 21.8956 30.7599C21.3557 29.9005 21.0585 28.9105 21.0357 27.8958L19.3088 28.8772C20.2114 29.284 21.009 29.8936 21.6399 30.6587C22.2708 31.4239 22.7181 32.324 22.9472 33.2896L24.0739 31.854C19.6038 31.4332 18.9503 25.2593 19.7357 22.1205L17.6393 22.3814C18.0885 23.0869 18.3339 23.9033 18.3482 24.7396C18.3626 25.5759 18.1454 26.3994 17.7207 27.1183L19.8269 27.4099C19.3288 25.0682 19.2948 22.6519 19.7269 20.2988L17.6306 20.5598C18.663 23.0662 19.5182 25.4682 18.6556 28.1593L20.8738 28.1838C19.9743 25.3043 20.1621 22.1953 21.4015 19.45L19.2697 18.8478C19.079 22.2679 20.8628 25.1415 21.4588 28.4278L23.6778 27.8494C22.4021 24.8205 22.3648 21.4118 23.5741 18.3603C24.0894 16.973 21.8759 16.3604 21.3661 17.7383L21.3755 17.7438Z" fill="black"/>
<path d="M4.10808 22.562C5.34712 23.8748 6.71444 25.0593 8.18939 26.0977C9.40045 26.9557 10.547 24.9598 9.34716 24.1147C8.03496 23.1786 6.81823 22.1144 5.71484 20.9378C4.67764 19.868 3.03936 21.4925 4.10808 22.562Z" fill="black"/>
<path d="M9.15151 16.0295L12.6724 19.8699C13.6691 20.9661 15.2906 19.3381 14.2959 18.2493L10.775 14.4089C9.78218 13.3275 8.16063 14.9555 9.15151 16.0295Z" fill="black"/>
<path d="M15.057 11.0484L16.9951 14.6352C17.4761 15.5408 17.8178 16.6095 18.8365 17.0022C19.0316 17.0604 19.2388 17.0641 19.4357 17.0128C19.6325 16.9615 19.8116 16.8571 19.9534 16.711C20.1213 16.5438 20.2424 16.3351 20.3047 16.106C20.3669 15.8769 20.3681 15.6352 20.3082 15.4052C20.2617 15.2096 20.1629 15.0303 20.0224 14.8866C19.882 14.7429 19.7052 14.6404 19.5111 14.59L19.4053 14.5779C17.9615 14.3119 17.3311 16.5302 18.7823 16.7942L18.8637 16.773L18.0573 15.9523L18.0902 16.0785L18.3859 14.9705L18.3127 15.0531L19.4518 14.7562L19.2767 14.6908L19.9594 15.2186C18.8772 13.4967 17.9045 11.7082 17.0469 9.86361C16.347 8.60276 14.3529 9.74108 15.057 11.0484Z" fill="black"/>
<path d="M23.5288 8.21361C24.2176 9.50011 24.7718 10.8545 25.1826 12.2551C25.6079 13.6748 27.8289 13.1038 27.4016 11.6767C26.9287 10.0792 26.2981 8.53274 25.519 7.06044C24.8222 5.75118 22.8394 6.90243 23.5288 8.21361Z" fill="black"/>
<path d="M31.6352 5.70423L31.7856 13.1908C31.8166 14.6735 34.1091 14.7104 34.0781 13.2276L33.9258 5.73366C33.8967 4.25831 31.6042 4.22145 31.6352 5.70423Z" fill="black"/>
<path d="M40.5223 13.7682L43.1379 7.89215C43.7371 6.55437 41.7641 5.37952 41.1594 6.72665L38.5587 12.5988C37.9595 13.9366 39.9344 15.1189 40.5371 13.7643L40.5223 13.7682Z" fill="black"/>
<path d="M47.2715 15.1733L47.1112 15.104L47.9102 15.9267C47.9199 15.9638 49.0737 14.6322 49.1926 14.4822L50.629 12.72C51.3775 11.8033 52.2427 10.8799 51.8561 9.60876C51.4253 8.19846 49.2043 8.76944 49.6371 10.1872C49.7339 10.5584 48.2331 12.044 47.9622 12.3684C47.358 13.081 46.8239 13.7594 46.2641 14.4605C45.4443 15.4672 45.2938 16.799 46.6485 17.3896C48.0031 17.9802 48.5888 15.7419 47.2715 15.1733Z" fill="black"/>
<path d="M9.8146 34.9684C9.6979 35.6921 9.43127 36.3829 9.03192 36.9964C8.92497 37.1901 8.8757 37.4106 8.88995 37.6318C8.9042 37.8529 8.98137 38.0655 9.11231 38.2442C9.24561 38.4329 9.43075 38.5787 9.6451 38.6636C9.85944 38.7486 10.0937 38.7691 10.3192 38.7226C10.612 38.6599 10.8742 38.4981 11.0621 38.2644C11.2499 38.0306 11.3519 37.7391 11.3511 37.4386C11.353 37.1386 11.2402 36.849 11.0361 36.6294C10.8319 36.4097 10.5518 36.2767 10.2533 36.2577C9.95091 36.2581 9.66078 36.3769 9.44461 36.5887C9.22843 36.8006 9.10322 37.0888 9.09558 37.3921L9.11881 37.4812L9.36781 36.6788L9.2926 36.7539L9.83471 36.4699L9.73855 36.495L11.0181 38.1916C11.6032 37.2224 11.9698 36.1363 12.0923 35.0091C12.098 34.709 11.9866 34.4184 11.7818 34.1992C11.5771 33.9799 11.2953 33.8495 10.9965 33.8356C10.6991 33.835 10.4128 33.9482 10.1959 34.152C9.97904 34.3559 9.84786 34.6351 9.82905 34.9329L9.8146 34.9684Z" fill="black"/>
<path d="M16.2589 38.2686L16.0352 41.047C16.0398 41.3462 16.1604 41.6322 16.3715 41.8441C16.5826 42.0559 16.8675 42.1771 17.1657 42.1819C17.464 42.1867 17.7521 42.0747 17.9691 41.8697C18.186 41.6647 18.3146 41.3828 18.3277 41.0838L18.5588 38.3035C18.5655 38.1497 18.5414 37.996 18.4878 37.8516C18.4343 37.7072 18.3524 37.575 18.2471 37.4628C18.1418 37.3506 18.0151 37.2607 17.8746 37.1985C17.7341 37.1362 17.5827 37.1029 17.4292 37.1004C17.2758 37.0979 17.1234 37.1264 16.9812 37.1841C16.8391 37.2418 16.7099 37.3276 16.6015 37.4363C16.493 37.5451 16.4075 37.6746 16.3499 37.8172C16.2923 37.9599 16.2639 38.1127 16.2663 38.2667L16.2589 38.2686Z" fill="black"/>
<path d="M22.3622 38.2876C22.7137 38.873 22.8541 39.5616 22.7599 40.2378C22.6875 40.5316 22.7288 40.8423 22.8755 41.1072C23.0223 41.3721 23.2635 41.5715 23.5507 41.6653C23.8446 41.7435 24.157 41.7039 24.4219 41.5549C24.6868 41.406 24.8833 41.1593 24.9699 40.8671C25.2042 39.5919 24.9837 38.2738 24.3469 37.1437C24.1896 36.8892 23.9397 36.7059 23.6503 36.6329C23.3609 36.5599 23.0547 36.6028 22.7968 36.7526C22.5388 36.9023 22.3493 37.1472 22.2686 37.4351C22.1878 37.7231 22.2221 38.0315 22.3641 38.295L22.3622 38.2876Z" fill="black"/>
<path d="M30.4811 36.552C30.5576 37.8906 31.1234 39.1549 32.0702 40.1028C32.2873 40.3065 32.5746 40.4179 32.8715 40.4136C33.1684 40.4093 33.4519 40.2895 33.6622 40.0795C33.8726 39.8696 33.9934 39.5858 33.9992 39.2878C34.0051 38.9899 33.8956 38.7011 33.6937 38.4822C33.1699 37.9825 32.8432 37.3101 32.7736 36.5888C32.7718 36.2898 32.6578 36.0023 32.4544 35.7834C32.251 35.5645 31.973 35.4305 31.6758 35.4079C31.3773 35.4036 31.0889 35.5154 30.8713 35.72C30.6536 35.9246 30.5235 36.206 30.5084 36.5052L30.4811 36.552Z" fill="black"/>
<path d="M37.3528 34.4278L39.0796 36.6581C39.1863 36.7651 39.313 36.8501 39.4523 36.9081C39.5917 36.966 39.741 36.9959 39.8918 36.996C40.0426 36.9961 40.1918 36.9664 40.331 36.9086C40.4702 36.8508 40.5967 36.7661 40.7032 36.6592C40.8096 36.5523 40.894 36.4253 40.9516 36.2856C41.0091 36.1459 41.0386 35.9961 41.0384 35.8448C41.0382 35.6935 41.0083 35.5437 40.9505 35.4039C40.8926 35.2641 40.8079 35.1371 40.7011 35.03L38.9841 32.8369C38.8793 32.7233 38.7528 32.632 38.6122 32.5684C38.4716 32.5049 38.3197 32.4704 38.1656 32.4671C38.0116 32.4638 37.8585 32.4916 37.7155 32.549C37.5725 32.6063 37.4425 32.6921 37.3334 32.801C37.2242 32.91 37.1381 33.0399 37.0802 33.1831C37.0223 33.3263 36.9938 33.4798 36.9963 33.6344C36.9988 33.789 37.0324 33.9416 37.095 34.083C37.1576 34.2244 37.2479 34.3518 37.3606 34.4575L37.3528 34.4278Z" fill="black"/>
<path d="M42.2552 29.8114C42.6996 31.0828 43.4715 32.2141 44.4922 33.0902C44.7098 33.301 45 33.4194 45.3021 33.4204C45.6042 33.4215 45.8948 33.3052 46.1131 33.096C46.3263 32.88 46.4461 32.5883 46.4466 32.284C46.4471 31.9796 46.3283 31.6871 46.1157 31.4696C45.3806 30.8832 44.814 30.1112 44.4742 29.233C44.3903 28.9419 44.1983 28.694 43.9378 28.5405C43.6773 28.3871 43.3682 28.3397 43.0744 28.4083C42.7812 28.4868 42.5309 28.678 42.3776 28.9406C42.2242 29.2032 42.1803 29.516 42.2552 29.8114Z" fill="black"/>
<path d="M47.0606 24.7918C47.3283 25.6891 47.7804 26.5204 48.3877 27.2322C48.995 27.944 49.7441 28.5204 50.5865 28.9243C51.9193 29.5523 53.0844 27.5674 51.7443 26.9413C51.1648 26.6871 50.6454 26.3126 50.2205 25.8423C49.7957 25.3721 49.4749 24.8169 49.2796 24.2134C48.834 22.807 46.613 23.378 47.0606 24.7918Z" fill="black"/>
</g>
<defs>
<clipPath id="clip0">
<rect width="51" height="35" fill="white" transform="translate(0 12.8638) rotate(-14.6095)"/>
</clipPath>
</defs>
</svg>
