<svg width="62" height="60" viewBox="0 0 62 60" fill="none" xmlns="http://www.w3.org/2000/svg">
<g clip-path="url(#clip0)">
<path d="M41.9613 55.6519C35.0045 52.619 28.9369 48.1584 22.6831 43.9328C16.9842 40.0839 11.0328 36.6182 4.86936 33.5591L4.73515 35.6038C20.4425 34.3841 36.0391 37.3228 51.6409 38.7251L51.7687 36.611L50.7939 36.6354C49.4332 36.6621 49.3032 38.7829 50.6729 38.7519L51.6409 38.7251C51.9152 38.7293 52.1799 38.6288 52.3804 38.4446C52.5809 38.2603 52.7018 38.0064 52.7182 37.735C52.7346 37.4637 52.6452 37.1958 52.4685 36.9867C52.2918 36.7775 52.0413 36.643 51.7687 36.611C35.9571 35.1816 20.2273 32.2794 4.31001 33.5168C3.10924 33.6057 3.37234 35.1519 4.18485 35.5572C10.9623 38.9698 17.4926 42.8488 23.7276 47.1653C29.3579 51.0729 34.9751 54.9087 41.2745 57.6566C42.5376 58.2013 43.2244 56.1966 41.9613 55.6519Z" fill="black"/>
<path d="M29.9995 48.9111L34.3361 36.5829C34.4272 36.3171 34.4077 36.0255 34.282 35.7724C34.1564 35.5193 33.9347 35.3254 33.6659 35.2333C33.3971 35.1412 33.1031 35.1585 32.8486 35.2814C32.5941 35.4042 32.4 35.6226 32.3089 35.8885L27.9723 48.2166C27.8812 48.4825 27.9007 48.774 28.0264 49.0271C28.152 49.2802 28.3737 49.4741 28.6425 49.5662C28.9113 49.6583 29.2053 49.641 29.4598 49.5182C29.7143 49.3953 29.9084 49.1769 29.9995 48.9111Z" fill="black"/>
<path d="M5.91218 34.3047L7.53334 28.1399L6.45808 28.8542C13.9423 29.2677 21.3826 29.8976 28.8147 30.8158C32.4135 31.2572 36.0158 31.762 39.6215 32.3302C41.4115 32.6149 43.1993 32.9137 44.9847 33.2267C45.6475 33.3417 53.4525 34.5819 51.7626 36.4073C50.8461 37.4075 52.2392 39.0272 53.1647 38.0227C59.1647 31.5285 42.4976 30.6349 39.7425 30.2137C28.7517 28.4919 17.6826 27.3317 6.57911 26.7377C6.34676 26.7265 6.11737 26.7891 5.92437 26.9164C5.73136 27.0437 5.58484 27.229 5.50614 27.4454L3.88498 33.6102C3.54004 34.9257 5.56495 35.6269 5.91218 34.3047Z" fill="black"/>
<path d="M40.2575 35.5871C43.4552 35.9358 46.6609 36.1878 49.8745 36.3429L49.9955 34.2264C47.8466 34.2168 45.7043 34.4341 43.6049 34.8745C43.3522 34.9288 43.1284 35.0716 42.9743 35.2768C42.8203 35.4819 42.7462 35.7357 42.7658 35.9917C42.7853 36.2476 42.8972 36.4887 43.0808 36.6708C43.2645 36.8528 43.5077 36.9637 43.7659 36.9831C46.0438 37.2974 48.3516 37.3122 50.6292 37.0271C50.8332 36.9834 51.0196 36.8818 51.1656 36.7347C51.3117 36.5875 51.4111 36.4011 51.4518 36.1982C51.4925 35.9954 51.4727 35.7847 51.3948 35.592C51.317 35.3992 51.1844 35.2327 51.0132 35.1127C50.1914 34.6218 49.2675 34.3251 48.3137 34.2457C47.3599 34.1664 46.4019 34.3065 45.5147 34.6552C44.5655 34.9796 44.8658 36.3071 45.6427 36.618C47.5607 37.4057 49.6689 37.6078 51.6956 37.1982C52.8269 37.0034 52.7235 35.5642 51.823 35.1512C50.2277 34.3702 48.4 34.2047 46.6969 34.6868C45.7706 34.9221 45.4492 36.4995 46.5694 36.7339C47.8063 37.0589 49.1045 37.064 50.3396 36.7486C50.5634 36.6956 50.7639 36.5731 50.9119 36.3989C51.0599 36.2248 51.1478 36.008 51.1627 35.7801C51.1777 35.5522 51.119 35.325 50.9951 35.1315C50.8712 34.9379 50.6886 34.7882 50.4738 34.7039C45.9645 32.6812 41.2321 32.8745 36.4155 33.2255C35.1313 33.3157 35.4652 35.14 36.5721 35.3251C39.9142 35.8192 43.2995 35.9343 46.6627 35.6682C47.7235 35.5911 47.768 33.8964 46.7878 33.6278C41.9278 32.2765 37.0163 32.1993 31.9934 32.293C31.7151 32.2837 31.4449 32.3822 31.24 32.5676C31.0352 32.753 30.9118 33.0107 30.896 33.286C30.8803 33.5614 30.9734 33.8327 31.1557 34.0424C31.338 34.2522 31.595 34.3839 31.8723 34.4095C35.754 34.8333 39.638 35.0886 43.5244 35.1755C44.6727 35.1956 45.1621 33.4144 43.9295 33.1116C38.0237 31.6246 31.9676 30.8255 25.8844 30.7304C25.6061 30.721 25.3359 30.8195 25.131 31.0049C24.9262 31.1903 24.8028 31.448 24.787 31.7234C24.7713 31.9987 24.8644 32.27 25.0467 32.4798C25.229 32.6895 25.486 32.8212 25.7633 32.8468C30.7484 33.6801 35.7968 34.0599 40.8454 33.9815C41.9691 33.9632 42.4942 32.254 41.2618 31.8841C35.8709 30.4308 30.2684 29.9401 24.7171 30.435C23.4734 30.5391 23.71 32.4271 24.8714 32.5413C28.9877 32.9559 33.1015 33.4368 37.2128 33.984C38.5746 34.1743 38.6979 32.0511 37.3338 31.8675C33.2257 31.2965 29.1127 30.8133 24.9947 30.4181L25.1513 32.5177C30.3126 32.0879 35.5162 32.5686 40.5207 33.9374L40.9257 31.8735C35.8903 31.9499 30.8554 31.5673 25.8844 30.7304L25.7633 32.8468C31.6414 32.9191 37.4955 33.6716 43.2067 35.0891L43.598 33.0652C39.6928 32.9818 35.8156 32.7288 31.9369 32.3035L31.8137 34.4043C36.6176 34.3327 41.3625 34.3453 46.0355 35.6475L46.163 33.6004C42.9829 33.8329 39.7839 33.7065 36.6276 33.2235L36.7842 35.3231C41.2284 35.0012 45.5589 34.857 49.7215 36.7235L49.8399 34.6808L47.2042 34.7486L47.0791 36.789C48.4204 36.4511 49.842 36.5894 51.0978 37.1801L51.2229 35.1397C49.5691 35.4559 47.8542 35.2691 46.3024 34.604L46.4326 36.5601L49.8448 36.8703L50.2288 34.956C48.1322 35.2081 46.0089 35.1789 43.9162 34.8692L44.0413 36.9505C45.9578 36.5421 47.9138 36.3362 49.8768 36.3362C51.2351 36.3386 51.3874 34.2851 49.9978 34.2197C46.7812 34.0661 43.5853 33.8075 40.3832 33.4572C39.0143 33.3094 38.8843 35.4302 40.2621 35.5737L40.2575 35.5871Z" fill="black"/>
<path d="M21.4874 32.502C25.34 32.7652 29.2025 32.8273 33.0589 32.6879C34.4038 32.6409 34.5896 30.6661 33.1799 30.5714C28.1422 30.2365 23.0864 30.4553 18.1048 31.2238C16.8765 31.4153 17.0774 33.209 18.2524 33.3277C23.2311 33.8061 28.2302 34.0232 33.2285 33.9781C33.5067 33.9874 33.7769 33.8889 33.9818 33.7035C34.1867 33.5181 34.3101 33.2604 34.3258 32.9851C34.3416 32.7097 34.2484 32.4384 34.0661 32.2286C33.8839 32.0189 33.6268 31.8872 33.3495 31.8616C29.7423 31.4657 26.1096 31.3779 22.4914 31.599C21.1576 31.6797 20.9496 33.5872 22.3704 33.7155C27.4612 34.1802 32.5618 34.5063 37.672 34.6939C37.9503 34.7032 38.2205 34.6047 38.4254 34.4193C38.6302 34.234 38.7536 33.9763 38.7694 33.7009C38.7851 33.4255 38.692 33.1542 38.5097 32.9445C38.3274 32.7347 38.0704 32.6031 37.7931 32.5774C34.4912 32.3199 31.202 32.2235 27.8941 32.2701C26.7636 32.286 26.2452 33.9976 27.489 34.3341C30.4626 35.162 33.5124 35.6838 36.5899 35.8912C37.7627 35.9719 38.2005 34.1432 36.9949 33.8273C30.0073 32.0084 22.8594 31.5608 15.6749 31.2202C15.3966 31.2108 15.1264 31.3093 14.9215 31.4947C14.7167 31.6801 14.5933 31.9378 14.5775 32.2132C14.5618 32.4885 14.6549 32.7598 14.8372 32.9696C15.0195 33.1793 15.2765 33.311 15.5538 33.3366L27.8143 34.2663C28.0705 34.279 28.3221 34.2001 28.5234 34.044C28.7247 33.8879 28.8623 33.6649 28.9111 33.4157C28.9599 33.1665 28.9167 32.9076 28.7893 32.6861C28.6619 32.4646 28.4588 32.2953 28.217 32.209C22.3581 30.269 16.3146 30.0579 10.196 29.9779C8.82884 29.9576 8.681 32.02 10.0682 32.0921L22.161 32.7179C22.4152 32.7254 22.6633 32.6435 22.8614 32.4867C23.0595 32.3299 23.1947 32.1084 23.2432 31.8612C23.2917 31.6141 23.2503 31.3573 23.1264 31.1364C23.0025 30.9154 22.804 30.7445 22.566 30.6539C19.3576 29.6291 16.0195 29.0691 12.6557 28.9912C12.3865 28.9975 12.1301 29.1035 11.9371 29.2885C11.7441 29.4734 11.6285 29.7237 11.613 29.9901C11.5975 30.2566 11.6834 30.5198 11.8535 30.7279C12.0237 30.9359 12.2659 31.0738 12.5324 31.1143L22.3897 32.0943C23.7631 32.2288 23.8841 30.1123 22.513 29.9712L12.6557 28.9912L12.5324 31.1143C15.7041 31.1768 18.8528 31.697 21.8792 32.6587L22.2957 30.5613L10.196 29.9779L10.0682 32.0921C15.9703 32.1651 21.8538 32.3363 27.5393 34.2094L27.9443 32.1454L15.6839 31.2158L15.5629 33.3323C22.5534 33.6662 29.5098 34.0556 36.3172 35.8277L36.7267 33.7727C33.8309 33.5837 30.9603 33.1007 28.16 32.3313L27.755 34.3953C31.0599 34.3427 34.3603 34.443 37.6562 34.696L37.7772 32.5795C32.6655 32.3963 27.5649 32.0702 22.4756 31.6011L22.3546 33.7175C25.9768 33.4995 29.6133 33.5911 33.2239 33.9914L33.3449 31.875C28.3489 31.9243 23.3519 31.708 18.3756 31.2269L18.5231 33.3309C23.3336 32.5936 28.2154 32.3878 33.079 32.7172L33.2001 30.6008C29.3364 30.7277 25.4673 30.6558 21.6084 30.3856C21.3302 30.3763 21.06 30.4747 20.8551 30.6601C20.6503 30.8455 20.5269 31.1032 20.5111 31.3786C20.4954 31.6539 20.5885 31.9253 20.7708 32.135C20.9531 32.3448 21.2101 32.4764 21.4874 32.502Z" fill="black"/>
<path d="M7.67576 33.1018L14.1403 33.9351L14.2614 31.8186C12.0637 31.7883 9.87084 31.996 7.72191 32.4382C7.44368 32.4934 7.19972 32.656 7.0437 32.8903C6.88767 33.1246 6.83236 33.4114 6.88994 33.6876C6.94752 33.9638 7.11326 34.2067 7.35071 34.363C7.58816 34.5192 7.87787 34.576 8.15609 34.5208C9.86736 34.1873 11.6067 34.0084 13.3527 33.9863C14.7155 33.9753 14.8679 31.8995 13.4804 31.8722C10.8046 31.808 8.13621 32.1288 5.5585 32.8245L6.78805 34.2164C7.31555 32.9411 7.74336 31.2956 8.53864 30.1643L7.62253 30.6345C9.14799 30.5896 10.7429 31.0912 12.3019 31.1249C13.8198 31.1515 15.3363 31.0464 16.834 30.8108L16.3953 28.7191L15.6615 28.8336C14.3044 29.0482 14.7295 31.1352 16.0957 30.9163L16.8205 30.8062C18.1866 30.5872 17.7501 28.5112 16.3953 28.7191C14.8707 28.9657 13.3228 29.0512 11.7778 28.9741C10.5101 28.9057 9.16536 28.4451 7.92416 28.4977C7.09146 28.5261 6.78975 28.8558 6.40964 29.5245C5.7851 30.8251 5.23244 32.1588 4.75409 33.5197C4.69605 33.6947 4.68522 33.8821 4.72267 34.0632C4.76011 34.2443 4.84454 34.4129 4.96759 34.5524C5.09065 34.6918 5.24808 34.7973 5.42431 34.8583C5.60054 34.9193 5.78946 34.9338 5.97241 34.9002C8.36765 34.2414 10.8492 33.932 13.3391 33.9817L13.4669 31.8675C11.533 31.8843 9.60569 32.0737 7.7084 32.4335L8.15609 34.5208C10.1215 34.1074 12.1284 33.911 14.1403 33.9351C14.4186 33.9444 14.6888 33.8459 14.8937 33.6605C15.0985 33.4751 15.2219 33.2174 15.2377 32.9421C15.2534 32.6667 15.1603 32.3954 14.978 32.1857C14.7957 31.9759 14.5387 31.8443 14.2614 31.8186L7.79908 30.9787C6.43266 30.8018 6.30934 32.9249 7.67576 33.1018Z" fill="black"/>
<path d="M7.99467 28.4471L7.59399 28.713C7.39041 28.8201 7.22743 28.9896 7.12913 29.1963C7.03082 29.403 7.00241 29.636 7.04809 29.8609C7.09377 30.0858 7.21112 30.2907 7.3828 30.4453C7.55448 30.5998 7.77138 30.6959 8.00148 30.7193C10.1396 31.1325 12.3161 31.3071 14.4902 31.2398C15.8464 31.2041 15.9763 29.1056 14.6112 29.1233C11.957 29.1744 9.30967 29.3871 6.68405 29.7603C5.30235 29.9365 5.76618 31.9547 7.11823 31.8429C11.7381 31.4344 16.3582 31.2749 20.9786 31.3643C22.3548 31.3803 22.4916 29.2618 21.1086 29.2435C16.2836 29.1785 11.4746 29.353 6.68176 29.7669L7.11823 31.8429C9.5601 31.4953 12.0219 31.2939 14.4902 31.2398L14.6112 29.1233C12.4395 29.1904 10.2653 29.0167 8.12926 28.6052L8.54121 30.6205L8.94864 30.3569C10.0849 29.6186 9.14677 27.7068 7.99467 28.4471Z" fill="black"/>
<path d="M13.1419 31.0541C19.4615 31.2527 25.7793 31.5006 32.0954 31.7976C33.4714 31.8583 33.5992 29.7441 32.2187 29.6744C25.9056 29.3834 19.5991 29.1394 13.299 28.9425C11.932 28.8998 11.8289 31.0299 13.1757 31.0656L13.1419 31.0541Z" fill="black"/>
<path d="M19.5198 31.1036C24.7482 31.4312 29.9759 31.5993 35.2028 31.6079C36.5746 31.6148 36.6844 29.4871 35.3306 29.4937C30.0931 29.4865 24.8654 29.3184 19.6476 28.9894C19.3693 28.9801 19.0991 29.0786 18.8943 29.264C18.6894 29.4494 18.566 29.7071 18.5502 29.9824C18.5345 30.2578 18.6276 30.5291 18.8099 30.7389C18.9922 30.9486 19.2492 31.0803 19.5265 31.1059L19.5198 31.1036Z" fill="black"/>
<path d="M30.7097 19.0699C28.4343 13.8103 35.3421 13.063 38.4873 13.9986C41.2291 14.811 43.6756 16.4854 46.4077 17.4587C48.1811 18.1622 50.0949 18.4394 51.9915 18.2675C53.8882 18.0955 55.7134 17.4792 57.3171 16.4694C58.4758 15.7538 57.5376 13.842 56.3699 14.562C48.3877 19.481 42.5446 10.6844 34.5969 11.3816C30.1749 11.7708 26.8888 15.6329 28.7446 19.9573C29.2799 21.2159 31.2 20.2832 30.6625 19.0313L30.7097 19.0699Z" fill="black"/>
<path d="M43.2972 15.3851C40.9476 17.8357 38.9395 20.1047 40.0948 23.7411C40.5894 25.1866 41.4793 26.4698 42.6647 27.4469C43.8502 28.4241 45.2845 29.0566 46.8069 29.2737C48.1721 29.3574 49.5256 29.0071 50.6704 28.2738C51.8152 27.5405 52.6915 26.4626 53.1717 25.1969C54.3441 22.1712 53.0698 18.8823 50.8018 16.6867C49.8251 15.7248 48.2051 17.1038 49.1885 18.0679C50.5919 19.4372 51.6413 21.2229 51.4237 23.2466C51.3771 23.8104 51.2171 24.3585 50.9531 24.8587C50.6891 25.3588 50.3264 25.8008 49.8865 26.1588C49.4466 26.5167 48.9383 26.7832 48.3915 26.9427C47.8447 27.1022 47.2705 27.1515 46.7026 27.0875C45.6652 26.8921 44.697 26.4269 43.8975 25.7397C43.0979 25.0524 42.4959 24.1679 42.1531 23.1769C41.2326 20.4199 42.8852 18.8356 44.6655 16.9889C45.6 16.0023 44.1978 14.387 43.2634 15.3735L43.2972 15.3851Z" fill="black"/>
<path d="M40.6588 20.9479C41.9889 22.994 43.713 24.7495 46.2151 25.2258C48.7172 25.7022 51.2942 24.7257 53.6025 23.7842L52.1153 22.4832C51.0935 26.0608 45.8421 25.3669 43.4634 23.6709L42.268 25.4193C45.2021 27.4997 48.7195 28.8913 52.1128 27.0969C52.3399 26.9812 52.5172 26.7884 52.6123 26.5534C52.7075 26.3183 52.7142 26.0567 52.6313 25.816C52.5484 25.5752 52.3814 25.3713 52.1605 25.2414C51.9397 25.1114 51.6796 25.0638 51.4277 25.1075C48.3867 25.4769 45.781 25.4131 43.8535 22.7965C43.15 21.8088 41.4591 22.9096 42.0857 23.9456C42.6857 25.0414 43.6653 25.8865 44.8424 26.3236C45.7881 26.7148 46.7763 25.3509 45.9902 24.6261C45.3374 24.021 44.6336 23.4726 43.8865 22.987C43.6521 22.8265 43.3636 22.7644 43.0845 22.8144C42.8054 22.8644 42.5586 23.0225 42.3983 23.2537C42.2379 23.4849 42.1773 23.7705 42.2297 24.0475C42.282 24.3245 42.4431 24.5702 42.6775 24.7307C43.9199 25.6897 45.4334 26.2376 47.0021 26.2964C48.5709 26.3552 50.1149 25.9218 51.4144 25.0581C53.8778 23.311 54.6803 19.8226 52.2724 17.6387C51.2661 16.7191 49.6393 18.0957 50.6591 19.02C52.6941 20.8596 50.8923 23.4083 48.712 24.0203C47.8824 24.2354 47.0121 24.2534 46.1714 24.0731C45.3307 23.8928 44.5433 23.5191 43.8729 22.9823L42.6775 24.7307C43.2871 25.0884 43.853 25.5153 44.3634 26.0027L45.5157 24.3142L43.9809 23.0417L42.2108 24.1975C44.6199 27.5242 48.0305 27.6846 51.8324 27.2099L51.161 25.2028C48.4058 26.6334 45.7544 25.3144 43.4588 23.6842C42.3369 22.8817 41.1392 24.6368 42.2634 25.4326C45.8135 27.963 52.7144 28.1617 54.1379 23.191C54.1986 22.9935 54.2004 22.7825 54.1431 22.5832C54.0858 22.3838 53.9718 22.2048 53.8148 22.0674C53.6578 21.9301 53.4644 21.8403 53.2579 21.8088C53.0515 21.7774 52.8406 21.8056 52.6507 21.8901C48.7824 23.4621 45.1291 24.01 42.5721 20.0353C41.8377 18.8951 39.9086 19.8098 40.6542 20.9612L40.6588 20.9479Z" fill="black"/>
<path d="M51.114 19.213C52.7366 20.5156 52.4672 22.977 51.102 24.3835C49.8584 25.5349 48.2364 26.2033 46.5305 26.2671C45.1625 26.4033 45.5967 28.4859 46.9579 28.3474C49.6984 28.0617 52.5407 26.8178 53.7742 24.2311C54.3271 23.1085 54.4842 21.8322 54.2204 20.6053C53.9567 19.3784 53.2872 18.2713 52.3185 17.4603C51.2624 16.5758 50.0715 18.3332 51.1163 19.2064L51.114 19.213Z" fill="black"/>
</g>
<defs>
<clipPath id="clip0">
<rect width="46" height="49" fill="white" transform="translate(0 43.5173) rotate(-71.0897)"/>
</clipPath>
</defs>
</svg>
