<svg width="51" height="51" viewBox="0 0 51 51" fill="none" xmlns="http://www.w3.org/2000/svg">
<g clip-path="url(#clip0)">
<path d="M33.635 24.6119C32.4558 24.2338 36.2084 19.0514 36.6015 18.1692C37.5601 16.0158 37.9311 13.647 37.6768 11.3038C37.4813 9.30075 36.7995 7.37574 35.6906 5.69604C34.5816 4.01634 33.0792 2.63278 31.3137 1.66559C21.5763 -3.70214 14.1601 4.86103 8.66468 11.9117C1.93819 20.5565 -1.93307 30.988 2.88746 41.59C7.55225 51.8584 19.1438 51.3542 28.236 47.3507C32.7228 45.3711 36.8314 41.7012 38.0254 36.7857C38.5871 34.5162 38.458 32.1308 37.6546 29.9352C36.7943 27.6665 33.0343 25.2125 32.9082 22.9883C32.8266 21.5648 30.6018 21.5574 30.6834 22.9883C30.726 23.6948 30.9078 24.386 31.2183 25.0222C31.5288 25.6583 31.962 26.2269 32.4929 26.6953C34.9922 29.3198 36.7127 31.7516 36.0008 35.6736C34.8513 42.0645 28.3547 45.4897 22.6516 46.8762C16.0957 48.4628 9.35438 48.4702 5.59437 41.9755C2.22 36.1778 2.16809 28.6007 4.68218 22.5063C6.95154 17.0126 11.023 12.06 14.9981 7.67835C19.2253 3.02977 25.2918 0.264349 31.0838 4.12704C37.217 8.24181 36.1046 15.4037 32.3075 20.5046C30.713 22.6398 29.7341 25.6944 33.0491 26.7397C34.4211 27.1846 34.9996 25.0345 33.6424 24.5971L33.635 24.6119Z" fill="black"/>
<path d="M14.3159 18.1325C12.7437 19.9712 12.9513 23.2333 15.7991 23.6782C16.3644 23.773 16.9452 23.6791 17.4519 23.4111C17.9585 23.1432 18.3629 22.7159 18.6025 22.1954C18.8527 21.5995 18.9311 20.9456 18.8289 20.3075C18.7267 19.6694 18.4479 19.0727 18.024 18.5848C16.3628 16.494 12.9068 16.153 11.9872 19.1186C11.8185 19.6866 11.7818 20.2856 11.8798 20.87C11.9777 21.4543 12.2079 22.0086 12.5527 22.4906C12.8974 22.9726 13.3477 23.3695 13.8692 23.6511C14.3907 23.9327 14.9696 24.0916 15.5618 24.1156C16.1399 24.1183 16.7098 23.9794 17.2217 23.711C17.7337 23.4426 18.172 23.0528 18.4984 22.5758C18.8248 22.0988 19.0292 21.5492 19.0939 20.9749C19.1586 20.4006 19.0815 19.8193 18.8695 19.2817C17.9202 16.924 14.4197 16.4273 13.1961 18.822C12.1059 20.9127 13.2776 24.1378 15.8807 24.1675C16.4545 24.1947 17.0213 24.0325 17.4938 23.7059C17.9663 23.3793 18.3182 22.9064 18.4953 22.3601C18.6724 21.8138 18.6648 21.2245 18.4738 20.6829C18.2827 20.1413 17.9188 19.6776 17.4381 19.3632C16.3183 18.6218 14.746 18.6663 14.2714 20.1046C14.0643 20.7094 14.0955 21.3704 14.3586 21.953C14.6218 22.5356 15.0971 22.9961 15.6879 23.2407C15.9892 23.3511 16.31 23.3984 16.6303 23.3798C16.9507 23.3611 17.2638 23.2769 17.5503 23.1323C17.8367 22.9877 18.0904 22.7859 18.2957 22.5393C18.5009 22.2927 18.6533 22.0065 18.7434 21.6986C18.8166 21.3742 18.8161 21.0374 18.7418 20.7131C18.6676 20.3889 18.5216 20.0854 18.3145 19.8251C18.1075 19.5647 17.8446 19.3541 17.5453 19.2087C17.2461 19.0633 16.918 18.9869 16.5853 18.9851C16.3433 18.9884 16.1088 19.0695 15.9164 19.2164C15.7241 19.3633 15.5842 19.5681 15.5173 19.8006C15.3851 20.2544 15.3695 20.7341 15.4719 21.1954C15.5743 21.6568 15.7914 22.0848 16.1032 22.44C16.5853 23.0554 17.49 22.7292 17.8534 22.2102C18.5357 21.239 18.7434 19.6672 17.364 19.1927C17.1389 19.0988 16.8941 19.0619 16.6514 19.0852C16.4086 19.1084 16.1754 19.1912 15.9722 19.3261C15.7691 19.461 15.6023 19.6438 15.4868 19.8585C15.3712 20.0732 15.3104 20.3131 15.3097 20.5569C15.3097 21.9878 17.5345 21.9878 17.5345 20.5569C17.249 20.4303 16.9265 20.4149 16.6302 20.5136C16.3339 20.6124 16.0851 20.8182 15.9326 21.0907L17.6829 20.8683C17.6389 20.7969 17.6156 20.7148 17.6156 20.631C17.6156 20.5472 17.6389 20.4651 17.6829 20.3938L16.6075 21.2093C16.7558 21.2093 16.4221 21.024 16.5333 21.1648C16.6446 21.3057 16.2812 20.9424 16.385 20.9646V20.8015C15.9475 20.9498 15.8511 21.061 16.1032 21.1426C16.1032 21.2909 16.5482 21.3279 16.474 21.6245C16.3999 21.9211 15.9994 21.9804 15.7769 21.9359C15.3838 21.8543 15.1688 21.4243 15.0724 21.0684C14.8499 20.2307 15.4358 18.8442 16.4592 19.5856C16.6098 19.7101 16.7297 19.8677 16.8094 20.0461C16.889 20.2245 16.9264 20.4189 16.9185 20.6142C16.9106 20.8094 16.8577 21.0002 16.7638 21.1716C16.67 21.343 16.5378 21.4904 16.3776 21.6022C16.1998 21.7205 15.9985 21.7989 15.7875 21.8322C15.5766 21.8655 15.3609 21.8528 15.1553 21.7951C14.9497 21.7374 14.7589 21.6359 14.5962 21.4977C14.4334 21.3595 14.3024 21.1878 14.2121 20.9943C13.8116 20.2084 14.0489 18.7701 15.1984 19.1408C15.7621 19.3187 17.4233 20.8238 16.3999 21.4169C16.0735 21.6097 15.6582 21.2834 15.5396 20.9943C15.4799 20.7612 15.4813 20.5166 15.5437 20.2841C15.606 20.0517 15.7272 19.8392 15.8956 19.6672C16.8152 18.5848 15.2503 17.0056 14.3233 18.0954L14.3159 18.1325Z" fill="black"/>
<path d="M10.6894 29.4909C6.70686 30.4176 10.0145 36.9568 12.9142 34.525C13.5716 33.9658 14.0486 33.2244 14.2849 32.3944C14.5211 31.5644 14.5061 30.6831 14.2417 29.8616C14.1144 29.5103 13.9187 29.1877 13.6659 28.9126C13.4131 28.6374 13.1081 28.4151 12.7688 28.2586C12.4294 28.1021 12.0624 28.0144 11.6889 28.0007C11.3154 27.987 10.9429 28.0474 10.5929 28.1786C7.90828 29.2907 7.17408 35.2219 10.5929 35.8743C13.3814 36.4081 16.9709 31.856 14.7534 29.4909C13.6336 28.2972 11.7128 28.6976 10.4372 29.4167C9.75321 29.7857 9.2226 30.3856 8.94006 31.1094C8.65751 31.8332 8.64141 32.6338 8.89463 33.3684C9.27286 34.7252 10.3779 36.0819 11.8982 35.993C12.5929 35.9037 13.226 35.5488 13.6644 35.0027C14.1028 34.4565 14.3124 33.7618 14.2491 33.0644C14.1527 31.4704 12.6176 30.1656 11.1417 29.8245C9.43602 29.4242 8.44966 30.9292 8.77598 32.4713C9.10229 34.0134 10.1183 35.4369 11.7425 35.6223C12.0899 35.6762 12.445 35.6515 12.7816 35.55C13.1182 35.4486 13.4278 35.273 13.6875 35.0361C13.9472 34.7992 14.1505 34.5071 14.2823 34.1813C14.4142 33.8554 14.4713 33.5042 14.4494 33.1534C14.353 31.5816 12.7585 29.4464 11.0008 30.0544C9.08746 30.7142 9.96257 33.2943 10.8006 34.5028C11.7425 35.8447 13.8932 36.1561 14.3975 34.2433C14.9018 32.3305 12.9142 31.4111 11.3123 31.2035C10.719 31.122 10.1999 31.7744 10.1999 32.3156C10.1999 33.5389 10.9415 34.8216 12.2838 34.8438C12.5928 34.8478 12.898 34.7764 13.1731 34.6358C13.4482 34.4952 13.6848 34.2896 13.8623 34.0368C14.0399 33.784 14.1531 33.4918 14.1921 33.1854C14.231 32.879 14.1946 32.5677 14.086 32.2786C13.7522 31.0627 12.447 29.6762 11.0676 29.9061C9.68817 30.1359 9.45827 32.2267 9.67334 33.3684C9.81013 33.9364 10.115 34.45 10.5481 34.8421C10.9812 35.2343 11.5225 35.4869 12.1014 35.5669C12.6803 35.647 13.2698 35.5508 13.7932 35.2908C14.3165 35.0309 14.7494 34.6193 15.0352 34.1098C16.2218 31.7522 13.552 28.92 11.1343 30.0766C10.7967 30.232 10.499 30.4625 10.264 30.7505C10.029 31.0385 9.863 31.3764 9.77858 31.7383C9.69415 32.1002 9.69356 32.4766 9.77686 32.8388C9.86016 33.201 10.0251 33.5394 10.2592 33.8281C10.4933 34.08 10.7849 34.2714 11.1091 34.3861C11.4334 34.5007 11.7806 34.5351 12.121 34.4862C12.4614 34.4374 12.7849 34.3068 13.0639 34.1057C13.3428 33.9046 13.5688 33.6389 13.7226 33.3313C14.3307 32.0413 12.4099 30.9144 11.8018 32.2118C12.2171 31.337 14.0266 33.1979 12.5434 33.3832C11.8834 33.4648 11.8018 32.931 11.8018 32.3898L11.8834 31.8708C11.1788 31.9672 11.075 32.1377 11.5719 32.3675C11.8389 32.6789 12.3654 32.9829 12.3654 32.3675L11.253 33.4796C11.7128 33.5389 12.6472 34.006 12.5731 33.2869C12.4659 32.9835 12.3214 32.6946 12.1429 32.4268L12.0465 32.0858L11.6386 32.3749C11.6386 32.5084 12.7733 33.8577 11.7054 33.4277C11.294 33.0962 11.028 32.6175 10.9638 32.0932C10.9638 31.9227 10.9193 31.9079 10.9638 32.0932C11.0083 32.2786 11.0379 32.3527 11.2678 32.3601C11.4458 32.5306 11.6905 32.6196 11.8389 32.8272C11.9872 33.0348 12.2542 33.8132 11.787 33.8651C11.3197 33.917 11.1492 33.1237 11.0453 32.8865C10.9798 32.7449 10.9437 32.5915 10.9394 32.4356C10.9351 32.2797 10.9625 32.1245 11.0201 31.9795C11.0777 31.8346 11.1642 31.7028 11.2744 31.5924C11.3845 31.4819 11.516 31.395 11.6609 31.337C15.369 29.4761 10.5855 36.1487 10.5633 32.8198C10.5633 32.2044 11.2159 29.1869 12.1058 30.7068C12.229 31.0173 12.263 31.356 12.2041 31.6848C12.1451 32.0135 11.9955 32.3193 11.7721 32.5677C11.7721 32.5677 11.4384 32.931 11.5719 32.9236C11.2901 32.9236 10.7709 31.8708 11.2678 31.7596C12.6621 31.4334 12.0688 29.2907 10.6745 29.6095L10.6894 29.4909Z" fill="black"/>
<path d="M18.9437 37.5795C17.7349 39.0623 16.7634 41.0937 18.2021 42.7693C18.4717 43.0832 18.811 43.3297 19.1928 43.4893C19.5747 43.6488 19.9885 43.7168 20.4014 43.688C20.8142 43.6592 21.2146 43.5343 21.5706 43.3233C21.9265 43.1123 22.2282 42.821 22.4516 42.4728C22.9199 41.8013 23.1146 40.9767 22.9961 40.1668C22.8776 39.3569 22.4548 38.6226 21.8138 38.1133C21.1583 37.6704 20.3598 37.4907 19.5776 37.6103C18.7955 37.7298 18.0872 38.1398 17.594 38.7583C17.3729 39.0835 17.2187 39.4495 17.1404 39.8348C17.0621 40.2201 17.0613 40.6171 17.1379 41.0028C17.2145 41.3885 17.367 41.755 17.5866 42.0812C17.8063 42.4074 18.0886 42.6867 18.4172 42.9028C20.0932 43.9926 22.0363 42.9028 22.9411 41.3681C23.8458 39.8334 23.3638 38.0466 21.5839 37.5647C19.804 37.0828 18.254 38.6323 18.0612 40.3523C17.8684 42.0724 19.0401 43.9111 20.9535 43.8221C21.3512 43.8156 21.7424 43.7211 22.0991 43.5454C22.4559 43.3697 22.7693 43.1172 23.0167 42.806C23.2642 42.4948 23.4397 42.1326 23.5304 41.7455C23.6212 41.3585 23.6251 40.9561 23.5418 40.5674C23.1635 38.9882 21.3169 37.7871 19.7595 38.6175C18.2021 39.4478 18.7138 41.7536 19.5074 43.0288C19.7074 43.4055 19.9964 43.7276 20.3494 43.9671C20.7024 44.2066 21.1085 44.3563 21.5326 44.4031C21.9566 44.4498 22.3856 44.3923 22.7823 44.2355C23.179 44.0787 23.5314 43.8273 23.8088 43.5033C24.0747 43.1753 24.2722 42.7974 24.3899 42.392C24.5075 41.9865 24.5429 41.5616 24.4938 41.1423C24.4447 40.7229 24.3123 40.3176 24.1042 39.9503C23.8961 39.5829 23.6166 39.2608 23.2822 39.003C22.0511 37.9428 19.8782 37.5202 19.5741 39.6109C19.3665 41.0196 20.071 43.0807 21.5765 43.4885C23.6901 44.0668 24.9731 41.5682 24.1647 39.863C23.5566 38.5582 20.6717 36.4155 19.9746 38.8473C19.5519 40.3301 21.3317 43.8962 23.1339 42.2207C24.7654 40.7379 22.4738 38.3209 20.9461 38.0095C20.667 37.9383 20.3714 37.9752 20.1184 38.1127C19.8653 38.2501 19.6736 38.4781 19.5815 38.7509C19.1662 40.2337 19.3665 42.4134 21.3614 42.4579C23.1635 42.5172 23.8013 40.1818 23.386 38.7509C23.153 38.117 22.6812 37.5993 22.0715 37.3084C21.4618 37.0175 20.7625 36.9764 20.1229 37.194C18.5878 37.6759 17.9796 39.4849 18.3653 40.901C18.4301 41.2756 18.5865 41.6283 18.8207 41.9279C19.0549 42.2274 19.3595 42.4644 19.7074 42.6178C20.0554 42.7711 20.4358 42.8361 20.815 42.8069C21.1941 42.7778 21.5602 42.6553 21.8805 42.4505C22.2214 42.2889 22.5271 42.0617 22.7802 41.782C23.0332 41.5023 23.2287 41.1755 23.3554 40.8202C23.4821 40.465 23.5376 40.0883 23.5187 39.7116C23.4997 39.3349 23.4068 38.9657 23.2451 38.6249C23.0835 38.2841 22.8562 37.9785 22.5764 37.7255C22.2966 37.4726 21.9697 37.2772 21.6144 37.1505C21.259 37.0238 20.8822 36.9683 20.5054 36.9873C20.1286 37.0062 19.7592 37.0991 19.4184 37.2607C17.861 37.8019 17.2899 39.5516 17.4679 41.0641C17.6681 42.836 18.9066 44.3633 20.8274 44.089C22.9336 43.785 23.831 41.8648 24.4169 40.0335C24.8619 38.6694 22.7112 38.0911 22.2736 39.4478C22.0734 40.0558 20.8497 43.0733 19.8782 41.5757C19.4777 40.9603 19.5964 38.6842 20.7755 39.4182C20.8674 39.4764 20.9431 39.5568 20.9956 39.6521C21.048 39.7474 21.0755 39.8544 21.0755 39.9631C21.0755 40.0719 21.048 40.1788 20.9956 40.2741C20.9431 40.3694 20.8674 40.4499 20.7755 40.508C20.5679 40.6786 20.6495 40.6934 20.5605 40.4265C20.4635 40.1754 20.4505 39.8997 20.5234 39.6406C20.6346 39.344 20.9832 39.0401 21.265 39.3515C21.3837 39.4849 21.0648 40.2708 21.1389 40.3227C21.6284 40.6637 21.6655 39.4849 21.7248 39.2699L20.3602 40.0113C20.5085 40.0113 21.5616 40.4636 21.3911 40.7527L22.0511 40.2411C22.4442 40.2411 22.5035 40.1373 22.2291 39.8556L22.1475 39.5516C21.3169 39.6554 21.1463 39.826 21.6284 40.0632C21.7471 40.1535 21.8542 40.2581 21.9473 40.3746C22.0956 40.5525 22.3181 40.812 22.1994 41.0641C22.0808 41.3162 22.2514 41.1975 22.0808 41.0641C21.9102 40.9306 21.8435 40.4265 21.8138 40.256V40.0484C21.8583 39.6554 21.6581 39.6851 21.2205 40.1373C21.2205 40.1373 21.9028 40.5674 21.9621 40.6267C22.181 40.8182 22.3254 41.0807 22.37 41.3681C22.37 41.85 22.0215 42.2355 21.6284 41.9686C21.2511 41.5627 21.0258 41.0388 20.9906 40.4858C20.8497 40.4117 20.8645 40.3968 20.9906 40.4413L21.1389 40.5303C21.265 40.6415 21.4652 40.8787 21.4207 41.0715C21.3886 41.1543 21.3385 41.2289 21.274 41.29C21.2095 41.351 21.1323 41.3971 21.0479 41.4247C20.9635 41.4524 20.874 41.461 20.7858 41.4499C20.6977 41.4388 20.6131 41.4083 20.5382 41.3607C20.3504 41.1242 20.2532 40.8285 20.2641 40.5268C20.275 40.225 20.3932 39.9371 20.5975 39.7147C21.0351 39.3366 21.3392 39.6109 21.0425 40.0929C20.7459 40.5748 20.3009 41.1308 19.7743 40.9603C19.6765 40.9217 19.5881 40.8627 19.5148 40.7873C19.4415 40.7119 19.3851 40.6218 19.3494 40.5229C19.3136 40.424 19.2993 40.3187 19.3073 40.2139C19.3154 40.1091 19.3457 40.0072 19.3961 39.9149C19.9672 39.0994 21.0573 39.9149 20.7755 40.7898C20.6198 41.2494 20.1155 41.5757 19.8263 41.0344C19.4629 40.3523 20.1674 39.4701 20.5679 38.9808C21.4727 37.8909 19.9078 36.3043 18.9956 37.409L18.9437 37.5795Z" fill="black"/>
<path d="M27.0194 7.65671C24.5275 6.91531 21.4795 7.47877 20.1223 9.88091C19.8084 10.4094 19.6117 10.9991 19.5455 11.6101C19.4793 12.2211 19.5451 12.8392 19.7384 13.4226C19.9318 14.006 20.2482 14.5411 20.6663 14.9918C21.0843 15.4424 21.5943 15.798 22.1618 16.0345C24.7278 17.0799 27.9761 16.205 29.2665 13.6398C29.5681 13.0565 29.7337 12.4126 29.7511 11.7563C29.7684 11.0999 29.637 10.4481 29.3666 9.84977C29.0962 9.2514 28.6939 8.72195 28.1898 8.30107C27.6857 7.88019 27.0929 7.5788 26.4557 7.41946C25.0615 7.08583 24.4682 9.23589 25.8624 9.5621C26.2496 9.64567 26.6067 9.83309 26.8953 10.1042C27.184 10.3754 27.3933 10.72 27.5008 11.1011C27.6083 11.4822 27.6099 11.8854 27.5055 12.2674C27.4011 12.6493 27.1946 12.9956 26.9081 13.2691C26.3648 13.8278 25.6514 14.1906 24.8797 14.3006C24.1081 14.4106 23.3217 14.2616 22.6438 13.877C22.3897 13.6914 22.179 13.4528 22.0263 13.1777C21.8735 12.9027 21.7824 12.5977 21.7591 12.284C21.7358 11.9702 21.781 11.6551 21.8915 11.3606C22.002 11.066 22.1752 10.7989 22.3991 10.5778C23.4151 9.45089 25.0837 9.45089 26.4335 9.83642C26.712 9.89734 27.0033 9.84902 27.2473 9.70142C27.4912 9.55382 27.6691 9.31822 27.7443 9.04326C27.8195 8.7683 27.7862 8.47498 27.6513 8.22385C27.5164 7.97273 27.2902 7.78298 27.0194 7.69378V7.65671Z" fill="black"/>
<path d="M44.0918 17.4579C43.1573 16.8277 41.7037 16.1976 41.3774 15.0336C40.977 13.5952 42.0301 12.3052 42.8088 11.2524C44.059 9.68093 45.1217 7.9691 45.9755 6.15159H44.0398C45.8123 8.44993 47.7479 10.941 48.2077 13.8918C48.5266 16.0641 46.6874 17.7471 44.5441 16.4126C42.9942 15.4413 43.5133 14.2699 43.58 12.8168C43.632 11.5045 41.8002 11.4007 41.3552 12.5276C41.1268 13.0945 41.0137 13.7012 41.0226 14.3122C41.0315 14.9233 41.1622 15.5264 41.4071 16.0863C41.4543 16.249 41.5378 16.3989 41.6514 16.5246C41.7649 16.6504 41.9056 16.7487 42.0626 16.8123C42.2197 16.8758 42.3892 16.9028 42.5582 16.8914C42.7273 16.88 42.8916 16.8303 43.0387 16.7462C44.6035 15.7453 46.5762 11.7566 43.5281 11.2672C41.3478 10.9114 39.5085 14.8705 41.6222 15.9381C43.936 17.0947 46.5614 12.2904 46.0719 10.5333C46.0305 10.3354 45.9503 10.1476 45.8361 9.9808C45.7219 9.81397 45.5758 9.67134 45.4063 9.56111C45.2368 9.45088 45.0471 9.37523 44.8483 9.33849C44.6494 9.30175 44.4452 9.30465 44.2475 9.34702C42.7643 9.76962 42.6901 12.1569 42.7643 13.3283C42.7774 13.5403 42.8503 13.7443 42.9744 13.9167C43.0985 14.0891 43.2688 14.2229 43.4657 14.3028C43.6626 14.3826 43.8781 14.4052 44.0873 14.3679C44.2964 14.3306 44.4908 14.2349 44.648 14.092C45.2953 13.5224 45.8007 12.8095 46.1238 12.0102C46.447 11.2109 46.579 10.3472 46.5094 9.48789C46.4575 8.46476 44.9669 7.87905 44.4403 8.93184C43.7558 10.2641 43.352 11.7226 43.2537 13.2171C43.1647 14.3737 44.774 14.6554 45.3228 13.7806C46.3381 12.21 46.7222 10.3139 46.3982 8.47217C46.2499 7.33783 44.5145 7.48611 44.2549 8.47217C43.8693 9.95497 42.4009 17.5247 45.9755 16.4422C48.853 15.5748 47.8221 10.4369 46.8135 8.66494C46.6988 8.48217 46.534 8.33617 46.3387 8.24428C46.1434 8.1524 45.9258 8.1185 45.7118 8.14661C45.4978 8.17472 45.2964 8.26365 45.1315 8.40285C44.9665 8.54205 44.8451 8.72565 44.7815 8.93184C44.3291 10.689 43.6245 16.8426 46.502 17.1836C49.4685 17.5395 48.3487 12.4683 47.4513 11.2005C47.3373 11.0155 47.1723 10.8674 46.976 10.774C46.7797 10.6806 46.5607 10.6459 46.3452 10.6741C46.1296 10.7023 45.9269 10.7922 45.7613 10.933C45.5957 11.0737 45.4743 11.2593 45.4118 11.4674C44.9397 13.0587 44.997 14.7602 45.575 16.3162C45.8197 17.0205 46.8728 17.5173 47.4365 16.8129C48.1589 15.9881 48.5798 14.9425 48.6305 13.8473L46.5614 14.4108C45.9755 15.4562 45.3303 15.5748 44.6406 14.8334C44.0956 14.5629 43.6151 14.1786 43.2315 13.7065C43.0922 13.5725 42.9208 13.4766 42.7337 13.428C42.5467 13.3794 42.3503 13.3796 42.1634 13.4288C41.9764 13.4779 41.8053 13.5743 41.6664 13.7086C41.5274 13.8429 41.4254 14.0107 41.37 14.1958C41.0429 15.1097 41.0799 16.1144 41.4733 17.0019C41.8668 17.8893 42.5866 18.5915 43.4836 18.963C45.575 19.7933 47.5329 18.6071 48.675 16.9241L46.6355 16.6646C46.7987 17.5766 44.4107 17.1095 44.025 16.8945C43.7201 16.7512 43.4474 16.5474 43.2238 16.2955C43.0001 16.0435 42.83 15.7487 42.7238 15.429C42.6177 15.1093 42.5777 14.7714 42.6064 14.4357C42.635 14.1001 42.7316 13.7738 42.8903 13.4766C43.151 13.077 43.4384 12.6956 43.7506 12.3349C44.0843 11.7788 44.6925 11.5416 43.9434 11.7714L42.5714 11.03V11.1635L43.3501 9.79928H43.2537C41.8521 10.0662 42.4454 12.2088 43.847 11.9419H43.9434C44.2258 11.8589 44.4649 11.6695 44.6102 11.4135C44.7555 11.1576 44.7956 10.8553 44.7221 10.5703V10.4369C44.6331 10.1603 44.4407 9.92884 44.1851 9.7907C43.9295 9.65256 43.6303 9.61845 43.3501 9.69548C42.119 10.0736 41.0215 12.1643 40.5542 13.2616C40.1986 14.0812 40.1296 14.9966 40.3584 15.8602C40.5871 16.7238 41.1003 17.4852 41.815 18.0214C44.1437 20.0677 49.6465 20.6534 48.853 16.116C48.6675 15.0855 47.3104 15.1448 46.8209 15.8491C44.2302 17.3319 43.1375 16.9933 43.543 14.8334L41.6889 15.3227C43.0757 16.7091 44.9446 18.2364 47.036 17.4357C48.8381 16.7462 49.2608 14.9817 48.5192 13.3506C48.0001 12.2681 46.5317 12.9206 46.4427 13.914L45.9013 15.3301L47.7554 15.8269C47.2875 14.644 47.2326 13.3378 47.5996 12.1199L45.5676 12.3868C45.8123 12.7426 46.9173 14.8482 46.1312 15.1967H47.2511C46.0348 14.4923 46.7171 10.5407 46.9618 9.58427L44.9298 9.85118C45.4489 10.7631 46.3611 13.7954 45.0262 14.5368H46.146C45.1597 14.0104 46.2499 9.82152 46.4353 9.1246H44.2549C44.4477 10.3884 44.1419 11.6777 43.4021 12.7204L45.4786 13.2839C45.5397 12.1771 45.8408 11.0969 46.3611 10.1181L44.2846 9.55462C44.3385 10.1197 44.2569 10.6895 44.0467 11.2168C43.8365 11.7441 43.5037 12.2138 43.0757 12.5869L44.9743 13.3506C44.8071 12.6246 44.9351 11.8619 45.3303 11.2302L44.2475 11.5193C43.187 11.2969 43.3427 13.914 42.0894 13.8325L43.0535 14.3811L41.9559 14.8334L43.5875 15.5006C43.3727 15.1427 43.255 14.7349 43.2459 14.3176C43.2368 13.9003 43.3366 13.4878 43.5355 13.1207L41.3552 12.8242C41.2959 14.0697 40.7693 14.6999 41.2884 15.9677C41.6829 16.858 42.3269 17.6151 43.1425 18.1474C43.9807 18.7397 44.9714 19.0789 45.9967 19.1249C47.0221 19.1709 48.0392 18.9217 48.9271 18.4069C53.54 15.3301 48.1188 7.83457 45.9606 5.06173C45.5231 4.49086 44.4181 4.20171 44.0398 5.06173C42.7643 7.94578 39.731 10.385 39.1748 13.573C38.6557 16.5386 40.8138 17.9324 42.9645 19.3782C44.1585 20.1789 45.2709 18.2512 44.0918 17.4579Z" fill="black"/>
<path d="M42.6977 14.2181C42.4876 14.4705 42.3315 14.7632 42.2389 15.0782C42.1464 15.3933 42.1195 15.7239 42.1598 16.0498C42.2001 16.3757 42.3068 16.6898 42.4733 16.9728C42.6398 17.2558 42.8626 17.5017 43.1279 17.6953C44.3367 18.6443 45.9905 18.2143 47.1697 17.4358C48.3489 16.6573 47.2439 14.7149 46.0424 15.5156C45.6791 15.7528 45.0561 16.1828 44.5592 15.9975C44.4109 15.9382 44.4702 15.8863 44.3367 15.7973C44.2032 15.7083 44.4405 15.5452 44.2403 15.7973C44.4417 15.5852 44.5539 15.3039 44.5539 15.0114C44.5539 14.719 44.4417 14.4377 44.2403 14.2255C44.0308 14.0191 43.7484 13.9033 43.4542 13.9033C43.16 13.9033 42.8776 14.0191 42.6681 14.2255L42.6977 14.2181Z" fill="black"/>
<path d="M42.7942 15.3523C42.5495 25.161 41.6373 35.9336 43.6693 45.594C43.8844 46.632 45.6272 46.6765 45.8126 45.594C47.5623 35.5596 48.3446 25.3805 48.1487 15.1966C48.1487 13.7731 45.9239 13.7657 45.9239 15.1966C46.1407 25.192 45.3957 35.1851 43.699 45.038H45.8423C43.8622 35.6074 44.8114 24.9757 45.0487 15.382C45.0487 13.9511 42.8239 13.9511 42.8239 15.382L42.7942 15.3523Z" fill="black"/>
</g>
<defs>
<clipPath id="clip0">
<rect width="50" height="50" fill="white" transform="translate(0.736328 0.00537109)"/>
</clipPath>
</defs>
</svg>
