<svg width="57" height="57" viewBox="0 0 57 57" fill="none" xmlns="http://www.w3.org/2000/svg">
<g clip-path="url(#clip0)">
<path d="M40.934 24.1237C41.098 19.5306 42.3443 13.4525 39.8218 9.31901C39.0321 7.94946 37.7741 6.92143 36.2834 6.42748C34.7927 5.93352 33.1716 6.00752 31.7238 6.63562C27.4398 8.31651 25.7922 13.0178 24.3374 17.0398C22.2836 22.5307 20.9293 28.2598 20.3074 34.0882C19.9029 38.5295 19.6935 44.4642 22.191 48.3562C23.9961 51.1601 27.5087 52.504 30.4293 50.5006C33.9446 47.9632 35.7466 42.362 37.2475 38.4087C39.361 32.6377 40.5573 26.5697 40.7915 20.4315C40.8654 18.919 38.5354 18.9608 38.471 20.4677C38.1603 28.4817 36.1146 36.3404 32.4784 43.4888C31.9221 44.6832 31.2801 45.8353 30.5576 46.9356C27.8134 50.7193 24.3063 48.6474 23.1807 44.8614C22.2278 41.6714 22.2864 37.9748 22.5423 34.7186C23.1485 27.6362 24.953 20.7041 27.877 14.225C28.7723 12.2294 29.9129 10.1516 31.9139 9.10025C34.8302 7.57392 37.7083 9.32806 38.5403 12.2759C39.5611 15.8807 38.7364 20.4314 38.608 24.1504C38.5511 25.6592 40.881 25.6174 40.9304 24.1066L40.934 24.1237Z" fill="black"/>
<path d="M19.8387 24.0302C13.3196 27.1392 4.73551 38.2122 14.1421 43.3029C17.8435 45.3038 22.0064 44.4262 25.6557 42.7259C31.3413 39.9944 36.7185 36.6436 41.6914 32.7335C45.6909 29.6575 50.2255 25.57 50.9589 20.2336C51.4566 16.5703 49.5996 13.7203 45.8774 13.335C41.2923 12.8546 35.667 15.4182 31.5839 17.2487C26.3439 19.6282 21.47 22.7661 17.1161 26.5633C15.9651 27.5442 17.616 29.1896 18.7575 28.2143C24.3276 23.3711 30.7777 19.6775 37.7407 17.3439C41.2462 16.1654 49.5974 13.2984 48.6376 20.1805C48.0662 24.3109 44.2886 27.6716 41.2475 30.138C38.0143 32.663 34.6115 34.9566 31.0642 37.0018C28.0428 38.8088 24.8793 41.0083 21.4273 41.8279C16.8259 42.9155 10.8484 40.4113 12.6678 34.6201C13.9112 30.6727 17.4177 27.8007 20.9787 26.1018C22.3376 25.4587 21.1593 23.4419 19.8099 24.0794L19.8387 24.0302Z" fill="black"/>
<path d="M41.9315 23.8566C36.8011 20.3092 31.1015 17.6825 25.0807 16.0906C21.1937 15.0788 16.0935 13.7511 12.234 15.5831C3.2357 19.8297 11.3749 31.1713 16.5598 34.539C22.0415 38.0569 28.4125 40.4934 34.3091 43.1548C37.9611 44.762 41.868 45.9735 45.1945 42.933C52.643 36.038 46.1155 25.8778 39.154 22.1772C37.8329 21.4768 36.6628 23.5144 37.9818 24.2224C41.3534 26.0159 44.5365 28.5951 45.6499 32.459C47.0256 37.2503 44.4192 43.3309 38.7625 42.3285C34.8639 41.6379 30.7103 38.8547 27.121 37.191C23.9613 35.7201 20.6592 34.3662 17.7549 32.4674C14.6956 30.4878 11.8048 27.6767 10.9788 23.9687C9.51771 17.4775 15.0864 16.6984 19.656 17.3611C27.2432 18.5701 34.455 21.486 40.7614 25.8942C42.0055 26.7367 43.1626 24.6877 41.9315 23.8566Z" fill="black"/>
<path d="M52.3959 20.1535C52.0177 19.4614 51.4034 18.9332 50.6668 18.6669C49.9302 18.4007 49.1214 18.4144 48.3905 18.7057C47.6524 19.0399 47.0375 19.6032 46.6354 20.3134C46.2334 21.0237 46.0651 21.8437 46.1551 22.6542C46.2122 23.4938 46.555 24.2856 47.1253 24.895C47.6956 25.5044 48.4581 25.8939 49.2833 25.9971C49.6862 26.0382 50.0936 25.9957 50.4808 25.8723C50.8679 25.7489 51.2266 25.5471 51.5351 25.2793C51.8435 25.0115 52.0952 24.6832 52.2747 24.3146C52.4543 23.9459 52.5579 23.5446 52.5793 23.1351C52.6114 22.3353 52.4059 21.5456 51.9893 20.868C51.5727 20.1904 50.9642 19.6559 50.2422 19.3336C49.8625 19.1635 49.451 19.0764 49.0347 19.078C48.6183 19.0797 48.2064 19.1699 47.8257 19.343C47.445 19.516 47.1041 19.7679 46.825 20.0824C46.546 20.3969 46.3351 20.7668 46.2061 21.1682C45.8956 21.9614 45.8785 22.8397 46.1579 23.6408C46.4373 24.442 46.9944 25.1119 47.7264 25.527C48.4202 25.8959 49.2284 25.9834 49.9873 25.7716C50.7462 25.5599 51.3991 25.0648 51.8138 24.3866C52.6133 22.9738 52.1546 20.8039 50.464 20.3557C50.0885 20.2854 49.7012 20.31 49.3362 20.4273C48.9712 20.5446 48.6398 20.7511 48.3715 21.0283C48.1032 21.3055 47.9062 21.645 47.798 22.0167C47.6898 22.3883 47.6737 22.7806 47.7511 23.1588C47.8615 23.5318 48.0538 23.8743 48.3137 24.1608C48.5736 24.4472 48.8944 24.6702 49.2522 24.8132C49.61 24.9562 49.9957 25.0155 50.3804 24.9866C50.765 24.9578 51.1389 24.8416 51.4742 24.6466C51.824 24.4176 52.1262 24.1212 52.3635 23.7745C52.6008 23.4279 52.7685 23.0377 52.857 22.6264C52.9455 22.2151 52.953 21.7907 52.8793 21.3775C52.8055 20.9643 52.6518 20.5704 52.427 20.2184C51.644 18.8637 49.6797 17.931 48.3933 19.217C47.8786 19.8074 47.5499 20.5394 47.4498 21.3182C47.3497 22.097 47.4829 22.8867 47.8321 23.5851C48.0327 23.925 48.2981 24.2209 48.6129 24.4558C48.9278 24.6907 49.2859 24.86 49.6666 24.9538C50.0472 25.0476 50.443 25.0642 50.8311 25.0025C51.2191 24.9408 51.5918 24.8022 51.9276 24.5945C52.5727 24.1711 53.0279 23.5079 53.1939 22.7495C53.3599 21.991 53.2231 21.1989 52.8135 20.5459C52.6012 20.1756 52.3026 19.8639 51.9434 19.6376C51.5843 19.4114 51.1755 19.2775 50.7524 19.2476C50.3061 19.2725 49.8775 19.4372 49.5262 19.719C49.1749 20.0007 48.9182 20.3855 48.7917 20.82C48.3507 21.6238 48.2094 22.5593 48.3935 23.4557C48.4907 23.8934 48.7311 24.2843 49.0758 24.5652C49.4206 24.8461 49.8496 25.0007 50.2936 25.0039C52.2601 24.8837 52.845 21.8995 52.0519 20.4611C51.8523 20.091 51.5616 19.7798 51.2076 19.5575C50.8537 19.3351 50.4485 19.2092 50.0312 19.1917C49.6138 19.1743 49.1983 19.266 48.8248 19.458C48.4513 19.6499 48.1324 19.9357 47.8987 20.2877C47.0783 21.5654 49.0941 22.7304 49.9051 21.4583C50.0039 21.7418 50.0479 22.0421 50.0346 22.343C50.0066 22.4893 49.9512 22.6289 49.8715 22.7544C50.4182 23.0507 50.6756 23.0448 50.6234 22.7232C50.7189 22.6022 50.7656 22.1767 50.821 21.9642C50.8763 21.7517 50.9386 21.7274 51.0002 21.6137C51.1438 21.3999 51.022 21.3763 50.6332 21.5182C50.6608 21.4119 50.9554 22.0316 50.9486 22.119C50.9412 22.1999 50.917 22.2783 50.8774 22.3491C50.8378 22.42 50.7839 22.4816 50.7191 22.5299C50.6544 22.5782 50.5803 22.6121 50.5018 22.6293C50.4233 22.6465 50.3422 22.6466 50.2639 22.6297C49.7447 22.535 49.6592 21.8806 49.7698 21.4556C49.8783 20.7625 50.0356 20.6495 50.433 21.304C50.6961 21.7372 50.7367 22.3799 50.1654 22.5473C50.0786 22.5733 50.0605 22.52 50.0231 22.5102C49.8209 22.4576 49.7834 22.4479 49.9 22.5836C49.9331 22.667 49.9372 22.7595 49.9117 22.8459C49.4126 24.1181 47.9732 22.9816 48.3874 21.8818C48.8948 20.547 50.3605 21.9821 50.2732 22.9319C50.2671 23.0438 50.2344 23.1528 50.178 23.2495C50.1216 23.3463 50.0431 23.428 49.949 23.4878C49.855 23.5476 49.7483 23.5837 49.6379 23.5931C49.5275 23.6024 49.4167 23.5848 49.3148 23.5415C49.0476 23.4238 48.8234 23.225 48.6729 22.9726C48.5225 22.7202 48.4531 22.4264 48.4744 22.1314C48.4931 21.107 49.816 20.0493 50.4035 21.2639C51.1021 22.6047 53.1106 21.4013 52.4176 20.07L52.3959 20.1535Z" fill="black"/>
<path d="M29.4978 7.50684C28.0541 6.10988 26.045 6.91602 25.2196 8.58142C24.8518 9.38297 24.7268 10.2754 24.8605 11.1456C24.9942 12.0158 25.3805 12.8246 25.9704 13.4694C27.1394 14.7543 29.2427 15.2451 30.5193 13.843C31.7959 12.441 31.327 10.1874 30.3186 8.68495C29.8298 7.98229 29.2457 7.09273 28.386 6.89325C27.9592 6.81017 27.5164 6.86722 27.122 7.05609C26.7277 7.24495 26.4024 7.5558 26.1934 7.9434C25.2155 9.48806 24.8094 12.1541 26.2211 13.5508C27.6328 14.9476 29.7615 14.051 30.3763 12.3956C30.9911 10.7403 29.9971 7.83132 27.8115 8.33219C25.7766 8.80744 25.6463 11.6425 26.5509 13.1747C27.5438 14.8596 29.9125 14.5766 30.8943 13.0167C31.8762 11.4569 31.4741 8.82363 30.0259 7.78209C28.1938 6.49474 27.0457 8.72447 26.8866 10.2878C26.7276 11.8511 27.5066 13.8044 29.3243 14.0101C29.7558 14.0365 30.1887 13.9756 30.5977 13.8308C31.0068 13.6861 31.3837 13.4605 31.7065 13.1672C32.0293 12.874 32.2915 12.5189 32.4777 12.1228C32.664 11.7267 32.7705 11.2975 32.7911 10.8603C32.7556 9.99566 32.4574 9.16486 31.937 8.48117C31.4166 7.79748 30.6994 7.29417 29.8832 7.03986C27.7792 6.30577 26.2947 7.95357 25.9253 9.95647C25.5558 11.9594 26.5484 14.6896 28.955 14.538C31.0307 14.3976 32.3645 12.3458 32.2017 10.3908C32.0829 8.66603 30.5877 6.45331 28.6217 6.97082C26.2449 7.5921 26.6559 10.406 27.6674 11.9579C28.5044 13.197 30.5165 12.0107 29.676 10.7545C29.4971 10.4891 28.7851 9.32313 29.2451 9.33753C29.7052 9.35193 29.9083 10.507 29.8852 10.8414C29.8526 11.3354 29.5553 12.109 28.9592 12.1564C28.1371 12.2423 28.119 10.8679 28.2159 10.342C28.3995 9.36053 28.809 8.92412 29.6747 9.5304C30.1551 9.86617 30.6672 10.5101 30.383 11.1412C30.1548 11.6491 29.5243 11.8902 29.2419 11.3466C29.1473 11.0822 29.125 10.7965 29.1774 10.5194C29.2116 10.0501 29.6009 9.7219 29.0379 9.67262C28.475 9.62333 28.9001 10.0177 28.9827 10.4687C29.0652 10.9197 29.2366 11.6127 28.858 11.8383C28.4794 12.0639 28.5329 11.705 28.3872 11.343L28.3607 10.9227C28.0256 10.4897 27.9782 10.5179 28.2187 11.0073C28.195 11.0984 28.2686 11.9523 27.8657 11.8718C27.6036 11.8035 27.6331 11.2601 27.6246 11.0472C27.6108 10.6553 27.672 10.264 27.8046 9.89458C27.8956 9.64251 28.0147 9.40159 28.1595 9.1765C27.7873 9.19308 27.7128 9.29524 27.9452 9.47732C28.0038 9.74381 28.4384 10.1325 28.5893 10.3825C28.8419 10.7282 28.9952 11.1382 29.0325 11.5676C29.0293 12.2557 28.6179 12.5457 28.0642 12.2152C27.819 12.0486 27.6134 11.8293 27.4618 11.5727C27.3102 11.3162 27.2165 11.0288 27.1871 10.7307C27.1597 10.529 27.3934 8.70962 27.8851 9.18612C28.928 10.187 30.5777 8.54979 29.4978 7.50684Z" fill="black"/>
<path d="M12.9255 20.115C11.3429 19.16 9.39427 18.3205 7.64552 19.4781C6.95198 20.0416 6.43881 20.8005 6.17153 21.6576C5.90425 22.5148 5.89497 23.4314 6.14489 24.2905C6.42726 25.0658 7.00208 25.6946 7.74384 26.0395C8.48559 26.3844 9.33402 26.4175 10.1039 26.1315C10.9023 25.856 11.6058 25.3519 12.1284 24.6806C12.6511 24.0093 12.9703 23.1999 13.0472 22.3511C13.1637 21.5754 13.0391 20.7838 12.6905 20.0861C12.342 19.3884 11.7868 18.8191 11.102 18.4571C10.4235 18.0926 9.64267 17.9682 8.88319 18.1037C8.12372 18.2393 7.42895 18.6269 6.90886 19.2053C4.40601 22.1846 8.01503 27.7355 11.5576 25.2781C11.9049 25.0409 12.1981 24.7311 12.4172 24.3697C12.6362 24.0083 12.7759 23.6039 12.8268 23.184C12.8776 22.7641 12.8384 22.3387 12.7118 21.9367C12.5853 21.5347 12.3743 21.1656 12.0933 20.8547C11.1376 19.6415 9.30545 18.5081 8.04769 20.0528C7.60149 20.6962 7.31449 21.438 7.21101 22.2152C7.10752 22.9924 7.19061 23.7822 7.45322 24.5176C8.23315 26.2524 10.276 26.3303 11.6723 25.2674C13.0685 24.2045 13.9813 22.0188 13.0563 20.3192C12.8745 19.9615 12.6197 19.6472 12.3086 19.397C11.9976 19.1468 11.6373 18.9663 11.2515 18.8674C10.8657 18.7685 10.463 18.7534 10.0699 18.8231C9.67684 18.8929 9.30223 19.0458 8.97068 19.2719C8.33351 19.7737 7.84236 20.4407 7.54996 21.2013C7.25757 21.9619 7.17498 22.7874 7.31108 23.5891C7.40183 23.9897 7.57253 24.3667 7.81274 24.6973C8.05295 25.0278 8.3576 25.3048 8.70807 25.5113C9.05853 25.7178 9.44743 25.8496 9.85097 25.8985C10.2545 25.9474 10.6642 25.9124 11.055 25.7956C11.8725 25.5675 12.5996 25.0846 13.1328 24.4157C13.6659 23.7468 13.9777 22.926 14.0239 22.0704C14.0079 21.2215 13.706 20.4053 13.1681 19.7569C12.6303 19.1085 11.8886 18.6666 11.0657 18.5043C7.01235 17.5789 5.18962 23.045 8.39067 25.2479C9.6253 26.0961 10.7899 24.049 9.56082 23.2103C9.37864 23.0641 9.23523 22.8744 9.14332 22.6581C9.05142 22.4418 9.01385 22.2055 9.03396 21.9702C9.05407 21.735 9.13124 21.508 9.2586 21.3094C9.38597 21.1108 9.55961 20.9468 9.76412 20.8319C9.98342 20.7524 10.2182 20.728 10.4482 20.7608C10.6782 20.7935 10.8965 20.8824 11.0842 21.0199C11.272 21.1573 11.4236 21.3391 11.526 21.5496C11.6283 21.7601 11.6784 21.9929 11.6718 22.2281C11.5491 23.0066 10.0667 24.3389 9.59473 23.203C9.21563 22.2938 10.6902 20.1004 11.1332 21.5935C11.176 21.974 11.1042 22.3595 10.9272 22.6995C10.7503 23.0395 10.4764 23.3182 10.1414 23.4992C9.49263 23.8409 9.50757 23.2613 9.54258 22.7274C9.58018 22.4442 9.63713 22.1639 9.71301 21.8884C9.79599 21.5696 9.63196 21.6161 9.87507 21.8495C10.3093 22.2705 10.9656 22.9439 10.1899 23.3741C8.83485 24.156 7.78472 21.3702 8.82046 20.5863C9.8562 19.8023 10.8492 21.1792 10.7395 22.1232C10.7067 22.457 10.5962 22.7786 10.4168 23.0616C10.2375 23.3447 9.99451 23.581 9.70794 23.7511C9.15937 24.046 8.46153 24.1155 8.29995 23.3846C8.13836 22.6537 8.47925 21.5591 9.15867 21.3146C10.04 21.001 11.0413 21.7317 11.7384 22.1563C12.0039 22.3007 12.3151 22.3344 12.6062 22.2502C12.8972 22.1661 13.1452 21.9708 13.2974 21.7057C13.4496 21.4406 13.4942 21.1266 13.4216 20.8303C13.349 20.534 13.165 20.2788 12.9086 20.1187L12.9255 20.115Z" fill="black"/>
<path d="M30.5183 45.3045C29.6054 46.323 28.6676 47.5296 28.897 48.9833C28.967 49.6135 29.2639 50.1941 29.731 50.6145C30.1981 51.035 30.8029 51.266 31.4301 51.2636C33.8745 51.0894 34.8266 47.7389 33.6174 45.9329C33.2862 45.4574 32.8332 45.0824 32.3067 44.8478C31.7801 44.6133 31.1996 44.5279 30.6269 44.6008C30.0542 44.6737 29.5107 44.9021 29.0543 45.2618C28.5978 45.6215 28.2454 46.099 28.0346 46.6435C27.1426 48.9643 28.3785 52.3576 31.1096 52.5255C31.6643 52.5284 32.214 52.4107 32.7213 52.1804C33.2287 51.95 33.6819 51.6124 34.0504 51.1904C34.4188 50.7683 34.6938 50.2717 34.8568 49.7341C35.0198 49.1966 35.067 48.6306 34.9952 48.0745C34.787 46.828 34.1351 45.7044 33.1623 44.9153C32.1894 44.1262 30.9627 43.726 29.713 43.79C26.9871 44.0935 26.3835 47.3646 27.1931 49.569C28.0562 51.9981 31.1942 52.815 32.6552 50.3668C33.9894 48.1288 31.6224 44.3195 28.9637 45.5319C28.3675 45.8685 27.9054 46.4051 27.6576 47.0483C27.4098 47.6915 27.392 48.4008 27.6074 49.0528C27.8368 49.6943 28.2678 50.2409 28.8345 50.6093C29.4013 50.9778 30.0727 51.1479 30.7466 51.0938C32.2337 51.0027 32.1831 48.6473 30.7185 48.7443C30.2635 48.7717 29.6297 48.5338 29.8008 47.9381C29.9193 47.4826 30.389 47.921 30.5835 48.2796C30.6548 48.3681 30.7059 48.4715 30.7333 48.5825C30.7607 48.6935 30.7636 48.8093 30.7419 48.9219C30.7202 49.0345 30.6745 49.141 30.6078 49.2341C30.5412 49.3271 30.4552 49.4044 30.3561 49.4604C29.83 49.7611 29.5023 49.2381 29.337 48.798C29.0179 47.9044 28.9117 46.0695 30.2182 46.1502C30.7314 46.2156 31.2174 46.418 31.6263 46.7366C32.0352 47.0552 32.3523 47.4787 32.5451 47.9635C32.6295 48.1677 32.6723 48.3872 32.6711 48.609C32.6698 48.8308 32.6245 49.0504 32.5377 49.2546C32.451 49.4589 32.3246 49.6437 32.1661 49.798C32.0077 49.9523 31.8203 50.073 31.6153 50.1529C30.4387 50.4949 29.887 48.8358 30.0432 47.9282C30.2276 46.8821 31.5966 46.4767 31.8159 47.6927C31.8524 47.921 31.7202 48.8591 31.344 48.8909C30.6032 48.9412 32.0871 47.0501 32.1518 46.9859C33.1562 45.8615 31.5168 44.2028 30.5124 45.3272L30.5183 45.3045Z" fill="black"/>
<path d="M44.5762 41.0053C43.9073 40.7329 43.165 40.7006 42.4724 40.9139C41.7798 41.1272 41.1785 41.5733 40.7684 42.178C40.3961 42.763 40.2366 43.4598 40.3173 44.1481C40.398 44.8364 40.7139 45.4731 41.2104 45.9482C41.7356 46.396 42.408 46.6289 43.0967 46.6014C43.7854 46.5739 44.4409 46.288 44.9356 45.7995C46.0501 44.5902 45.7398 42.7103 44.8061 41.5352C43.8725 40.3602 42.258 39.251 40.8311 40.2168C39.4041 41.1826 39.4491 43.0989 39.8645 44.5443C40.7797 47.6029 45.131 47.4145 45.9611 44.3483C46.1309 43.6086 46.0956 42.8371 45.8592 42.1191C45.6227 41.4011 45.1943 40.7644 44.6212 40.2795C43.4805 39.2856 41.9064 39.1271 40.9649 40.4705C40.4662 41.1032 40.1532 41.8644 40.0618 42.6664C39.9705 43.4684 40.1045 44.2787 40.4485 45.0042C40.7988 45.6437 41.3841 46.1169 42.0786 46.3219C42.773 46.5269 43.5209 46.4474 44.1615 46.1005C44.8036 45.7394 45.2887 45.1471 45.5196 44.4423C45.7506 43.7374 45.7103 42.972 45.4069 42.2994C45.1063 41.6283 44.5911 41.0801 43.9439 40.7426C43.2966 40.4051 42.5547 40.2979 41.837 40.4381C38.6552 40.9877 37.6418 45.8945 41.0284 46.9544C41.8002 47.1695 42.6252 47.0874 43.3445 46.724C44.0637 46.3605 44.6262 45.7413 44.9235 44.9859C45.2031 44.2032 45.225 43.3516 44.9859 42.5588C44.7467 41.7659 44.2595 41.0746 43.5972 40.5884C43.2734 40.3177 42.8933 40.1243 42.4848 40.0224C42.0763 39.9205 41.6498 39.9127 41.2367 39.9995C40.8236 40.0864 40.4344 40.2657 40.0978 40.5242C39.7611 40.7828 39.4855 41.114 39.2912 41.4936C38.9664 42.2503 38.906 43.0948 39.1199 43.8874C39.3339 44.6799 39.8093 45.3731 40.4677 45.8521C41.6147 46.791 43.2723 45.1234 42.1103 44.1806C41.7293 43.8626 41.2222 43.4145 41.2726 42.8522C41.329 42.1132 41.9719 42.2238 42.401 42.603C42.6012 42.7918 42.745 43.0336 42.8166 43.3012C42.8881 43.5689 42.8845 43.8519 42.8062 44.1186C42.7624 44.2397 42.6934 44.3499 42.6039 44.4418C42.5143 44.5337 42.4063 44.605 42.2873 44.651C42.1683 44.697 42.041 44.7165 41.9142 44.7081C41.7874 44.6998 41.6641 44.6639 41.5526 44.6028C40.4894 43.8641 41.9356 42.2711 42.9485 42.8346C43.3438 43.0672 43.6272 43.8218 43.0156 44.0516C42.404 44.2814 42.2938 43.1991 42.397 42.7721C42.4345 42.6279 42.6262 41.8917 42.8241 41.8378C42.6594 41.7949 42.7118 41.8086 42.9751 41.9339L43.1941 42.1368C43.4105 42.3356 43.5714 42.5886 43.6607 42.8706C43.75 43.1526 43.7647 43.4538 43.7033 43.7443C43.6264 43.9597 43.4818 44.1439 43.2918 44.2687C43.1018 44.3935 42.877 44.452 42.6518 44.4351C42.1382 44.35 42.0254 43.7695 41.9823 43.3207C41.969 43.1875 41.8934 42.3412 42.022 42.2774C42.1505 42.2136 42.6206 42.6196 42.7057 42.7228C42.9618 42.9678 43.7202 43.8946 43.1188 44.2081C42.7346 44.4242 42.5063 43.919 42.5853 43.6154C42.7513 42.9778 43.4636 43.0984 43.9121 43.28C45.2932 43.8421 45.8709 41.5612 44.5049 41.0029L44.5762 41.0053Z" fill="black"/>
</g>
<defs>
<clipPath id="clip0">
<rect width="46" height="46" fill="white" transform="translate(11.5879) rotate(14.5908)"/>
</clipPath>
</defs>
</svg>
