<svg width="352" height="388" viewBox="0 0 352 388" fill="none" xmlns="http://www.w3.org/2000/svg">
<g clip-path="url(#clip0)">
<path d="M90.5195 380.21C106.753 379.337 122.933 377.84 139.06 375.72C141.3 375.42 143.533 375.087 145.76 374.72C156.2 373.313 166.593 371.647 176.94 369.72C181.04 369.1 185.14 368.53 189.25 368.05C205.51 366.15 221.91 366.78 238.2 365.14C254.298 363.47 270.217 360.378 285.77 355.9C286.012 355.844 286.239 355.734 286.433 355.578C286.627 355.422 286.783 355.225 286.89 355C308.11 343.82 329.063 332.127 349.75 319.92C349.947 319.819 350.121 319.678 350.26 319.506C350.4 319.333 350.502 319.134 350.56 318.92C351.71 318.45 352.45 317.13 351.36 316.02C340.68 305.12 329.36 294.51 314.89 289.02C314.911 288.752 314.866 288.484 314.76 288.237C314.654 287.991 314.489 287.774 314.281 287.606C314.072 287.437 313.825 287.322 313.562 287.271C313.298 287.219 313.026 287.233 312.77 287.31C305.91 289.07 299.99 292.85 293.77 296.08C291.59 297.2 289.393 298.293 287.18 299.36C287.38 258.59 286.54 217.65 289.27 176.96C291.86 138.32 297.07 99.9599 300.08 61.2999L300.42 56.6799C302.55 52.5599 298.15 49.1099 295.3 46.5299L278.65 31.4199L244.65 0.539914C244.4 0.295319 244.087 0.124706 243.747 0.047032C243.406 -0.0306424 243.05 -0.0123372 242.72 0.0999139C242.179 0.0170739 241.627 0.126804 241.16 0.409914C240.918 0.310861 240.66 0.259905 240.4 0.259914C181.565 -0.778941 122.72 1.53815 64.1496 7.19991C63.6191 7.19991 63.1104 7.41062 62.7354 7.78569C62.3603 8.16077 62.1496 8.66947 62.1496 9.19991L62.3696 21.1999L62.5296 22.1999C62.697 23.2457 62.7972 24.3012 62.8296 25.3599C62.8615 25.5078 62.8783 25.6586 62.8795 25.8099L63.0196 25.9699C62.0196 54.4599 62.7096 83.0799 61.9296 111.46C60.5596 161.32 55.6395 211.05 51.5596 260.74C49.4296 286.63 46.0395 312.91 48.3595 338.9C42.0578 338.753 35.8305 337.504 29.9595 335.21C22.9595 332.68 13.5295 329.98 9.21953 323.64C9.02028 323.308 8.71236 323.055 8.34789 322.923C7.98341 322.792 7.58479 322.791 7.21953 322.92C6.70952 323.76 6.27953 324.64 5.72954 325.45C3.61955 330.7 3.72954 336.45 3.29955 342.05L2.02956 360.38C2.02956 360.48 1.96956 360.57 1.95955 360.67C1.21956 365.13 0.579543 369.597 0.0395344 374.07C-0.0173198 374.508 0.0725239 374.953 0.295058 375.334C0.517592 375.716 0.860244 376.013 1.26955 376.18C16.1795 381.61 32.7895 384.86 48.4995 386.85C62.9695 388.72 77.7295 387.88 90.5195 380.21ZM311.67 291.75C311.895 292.065 312.213 292.303 312.58 292.43C326.15 297.33 336.82 306.95 346.8 317.05C326.8 328.837 306.51 340.17 285.93 351.05C275.061 345.977 264.485 340.302 254.25 334.05C246.97 329.68 239.57 325.64 231.32 323.71C244.883 320.372 258.193 316.078 271.15 310.86C277.936 308.113 284.603 305.113 291.15 301.86C297.89 298.53 304.46 294 311.67 291.75ZM269.31 28.3399L282.31 40.1599C284.03 41.7299 294.87 50.1599 296.55 53.8699L296.42 55.6699C296.327 55.9399 296.306 56.2295 296.36 56.5099C294.97 75.5999 293.01 94.6499 291.02 113.68C286.97 152.55 283.78 191.24 283.54 230.34L283.27 280.66C282.808 280.786 282.407 281.073 282.14 281.47C278.59 286.47 273.31 289.47 268.25 292.74L255.25 301.12L230.71 317C231.19 268.53 231.14 220 233.71 171.58C236.25 123.47 244.25 75.6599 244.71 27.4499C244.71 26.1399 244.71 24.8199 244.71 23.5099L244.71 23.3399C244.86 17.3399 244.04 11.3999 244.09 5.42991L269.31 28.3399ZM52.3096 338.79C50.1796 315.28 52.9795 291.62 54.9095 268.19C56.9095 243.44 59.0195 218.69 60.9995 193.93C62.9795 169.17 64.7295 144.52 65.5995 119.76C66.4695 94.9999 66.2996 70.3999 66.6595 45.7599C66.7262 40.6399 66.8329 35.5132 66.9796 30.3799C66.8896 29.7799 66.7996 29.1799 66.7396 28.5799C66.6796 27.9799 66.6496 27.3399 66.6396 26.7199C66.6396 26.5399 66.5696 26.3599 66.5596 26.1799C66.4995 25.1126 66.5296 24.0421 66.6496 22.9799L66.3596 20.8599C66.21 19.9645 66.1798 19.0533 66.2696 18.1499L66.1895 10.9999C123.991 5.49138 182.056 3.23782 240.11 4.24991C239.92 10.6199 240.87 16.9599 240.71 23.3399L240.71 23.6099C240.71 46.3099 238.71 68.9699 236.5 91.5499C234.12 115.55 231.55 139.42 230.13 163.45C228.66 188.19 228.03 212.97 227.65 237.75C227.22 265.52 226.99 293.28 226.65 321.05C169.95 330.11 112.47 341.79 54.8195 340.1C54.3725 340.235 53.9063 340.296 53.4395 340.28C53.1658 340.266 52.9049 340.159 52.6996 339.978C52.4943 339.796 52.3568 339.55 52.3096 339.28C52.2998 339.115 52.3132 338.951 52.3495 338.79L52.3096 338.79ZM45.3995 382.41C31.6795 380.33 17.2995 377.6 4.14955 372.99C4.51955 370.04 4.93956 367.09 5.39955 364.16L5.69954 363.93L5.59953 363.84C5.69917 363.622 5.76012 363.389 5.77956 363.15L7.06953 344.54C7.40953 339.54 7.24953 334.05 8.62953 329.13C13.8695 334.13 21.8595 336.57 28.4195 338.94C35.2595 341.41 42.2796 343.06 49.5296 342.89L49.5995 343.05C49.8388 343.096 50.0566 343.219 50.2206 343.399C50.3846 343.579 50.4859 343.807 50.5095 344.05C54.0995 350.05 59.5095 354.39 64.6895 359L81.1496 373.53C82.2625 374.143 83.2579 374.949 84.0896 375.91C84.7896 376.63 85.5195 377.32 86.2495 378.01C73.7695 384.74 59.1995 384.49 45.4395 382.41L45.3995 382.41Z" fill="black"/>
<path d="M181.349 92.64C181.455 92.5921 181.553 92.528 181.639 92.45L181.639 92.18C181.638 91.6706 181.702 91.1632 181.829 90.67C181.853 90.5815 181.902 90.5017 181.969 90.44C183.17 82.9451 182.369 75.2662 179.649 68.18C176.929 61.37 172.409 57.63 165.449 55.6C159.959 54 152.699 56.4 149.109 61C148.12 62.3753 147.345 63.8925 146.809 65.5C146.499 66.33 144.699 68.65 143.359 68.1C142.359 67.71 142.049 65.1 142.049 64.16C142.254 59.1526 143.425 54.2321 145.499 49.67C145.598 49.4958 145.656 49.3017 145.669 49.102C145.682 48.9024 145.65 48.7024 145.575 48.5169C145.5 48.3314 145.384 48.1652 145.236 48.0306C145.088 47.8961 144.911 47.7968 144.719 47.74C142.146 47.1066 139.573 46.47 136.999 45.83C135.999 45.58 132.689 45.23 131.149 44.59C131.13 44.5284 131.107 44.4682 131.079 44.41C130.079 44.27 129.079 44.11 128.079 43.96C126.371 46.8467 125.284 50.0587 124.889 53.39C122.702 59.7533 122.254 66.5852 123.589 73.18C124.024 75.2132 124.802 77.1576 125.889 78.93C125.907 79.3615 126.034 79.7815 126.259 80.15C126.619 80.7285 127.038 81.2681 127.509 81.76C129.069 84.52 131.949 86 134.959 86.69C141.419 88.16 150.319 87.59 153.849 81.04C154.639 79.3205 155.171 77.4943 155.429 75.62C155.551 74.7361 155.755 73.8656 156.039 73.02C157.339 69.96 160.039 69.58 162.129 71.43C166.129 75.02 165.629 82.62 164.219 87.31C164.133 87.6466 164.18 88.0037 164.352 88.306C164.524 88.6083 164.806 88.832 165.139 88.93C169.951 90.4337 174.846 91.6557 179.799 92.59L179.889 92.59C180.312 92.5677 180.736 92.6014 181.149 92.69C181.218 92.6826 181.285 92.6658 181.349 92.64ZM139.119 58C139.475 55.0609 140.345 52.2073 141.689 49.57C142.249 48.42 143.969 49.43 143.409 50.57C142.214 52.8893 141.435 55.4009 141.109 57.99C140.979 59.29 138.989 59.3 139.119 58ZM153.659 77C152.389 81.08 149.429 84.66 144.989 85.15C143.709 85.28 143.729 83.29 144.989 83.15C148.489 82.76 150.769 79.6 151.739 76.46C152.119 75.32 154.049 75.85 153.659 77.07L153.659 77ZM177.839 88.15C178.569 84.08 178.509 79.75 176.309 76.15C176.207 75.9244 176.193 75.669 176.268 75.4332C176.344 75.1974 176.504 74.998 176.718 74.8736C176.932 74.7492 177.185 74.7086 177.427 74.7596C177.669 74.8107 177.884 74.9498 178.029 75.15C180.509 79.25 180.579 84.15 179.759 88.71C179.529 90 177.609 89.47 177.839 88.22L177.839 88.15Z" fill="black"/>
<path d="M175.743 279.821C175.837 279.751 175.919 279.668 175.986 279.574L175.929 279.31C175.82 278.812 175.775 278.303 175.795 277.794C175.799 277.702 175.83 277.614 175.883 277.539C175.468 269.96 173.059 262.625 168.899 256.276C164.798 250.197 159.588 247.5 152.356 246.991C146.652 246.59 140.065 250.474 137.531 255.73C136.856 257.284 136.419 258.931 136.237 260.616C136.11 261.492 134.842 264.141 133.416 263.888C132.356 263.718 131.5 261.233 131.301 260.315C130.44 255.378 130.542 250.321 131.602 245.423C131.662 245.231 131.677 245.029 131.648 244.832C131.618 244.634 131.544 244.445 131.432 244.28C131.319 244.114 131.171 243.976 130.998 243.876C130.824 243.776 130.631 243.717 130.431 243.702C127.782 243.628 125.132 243.551 122.482 243.471C121.452 243.438 118.143 243.798 116.502 243.498C116.47 243.442 116.435 243.388 116.395 243.337C115.388 243.412 114.377 243.468 113.368 243.533C112.31 246.716 111.928 250.086 112.249 253.425C111.46 260.107 112.469 266.879 115.171 273.041C116.027 274.936 117.199 276.672 118.638 278.173C118.746 278.591 118.959 278.975 119.258 279.287C119.732 279.776 120.256 280.215 120.82 280.596C122.93 282.963 126.058 283.799 129.146 283.835C135.771 283.903 144.348 281.46 146.41 274.311C146.817 272.463 146.95 270.566 146.805 268.679C146.737 267.79 146.752 266.896 146.851 266.009C147.473 262.743 150.031 261.8 152.466 263.165C157.135 265.826 158.257 273.359 157.873 278.241C157.859 278.589 157.981 278.928 158.213 279.187C158.445 279.446 158.768 279.605 159.115 279.63C164.136 280.08 169.179 280.237 174.218 280.1L174.306 280.081C174.714 279.97 175.135 279.913 175.558 279.912C175.624 279.89 175.686 279.859 175.743 279.821ZM127.132 254.915C126.857 251.968 127.102 248.995 127.858 246.132C128.161 244.89 130.056 245.512 129.751 246.745C129.073 249.265 128.845 251.885 129.075 254.484C129.223 255.782 127.281 256.213 127.132 254.915ZM145.368 270.403C144.991 274.659 142.857 278.785 138.622 280.205C137.398 280.603 136.996 278.654 138.198 278.25C141.536 277.128 143.095 273.556 143.377 270.282C143.507 269.087 145.506 269.196 145.383 270.471L145.368 270.403ZM171.362 276.176C171.213 272.044 170.236 267.825 167.324 264.773C167.176 264.574 167.108 264.328 167.132 264.081C167.155 263.835 167.27 263.606 167.453 263.439C167.635 263.272 167.874 263.179 168.121 263.177C168.369 263.176 168.608 263.266 168.793 263.431C172.085 266.913 173.192 271.687 173.357 276.317C173.405 277.626 171.416 277.515 171.376 276.245L171.362 276.176Z" fill="black"/>
<path d="M196.73 300.42C201.73 299.04 206.87 297.42 210.3 293.89C213.55 290.59 214.72 286.35 215.3 282.23C217.19 269.39 217.43 256.23 217.79 243.32C218.17 229.99 218.01 216.65 217.52 203.32C216.97 188.32 216.16 173.32 216.52 158.37C216.88 143.42 218.42 128.3 219.89 113.3C221.36 98.2998 222.8 83.2998 222.83 68.2398C222.83 53.4898 220.83 38.5398 225.43 24.0998C225.509 23.8425 225.509 23.5672 225.43 23.3098C225.678 23.0703 225.841 22.7566 225.895 22.4161C225.949 22.0756 225.892 21.7267 225.73 21.422C225.569 21.1173 225.313 20.8733 225.001 20.7268C224.688 20.5803 224.337 20.5393 224 20.6098L125.78 25.8598C117.92 26.2798 110.06 26.6398 102.21 27.1198C96.4497 27.4698 90.6197 28.1198 86.7997 32.0498C83.9297 35.0498 82.9596 38.8498 82.4496 42.5298C81.5497 49.0198 81.4496 55.6398 81.0796 62.1698C78.0796 115.85 79.0796 169.59 77.2596 223.3C76.7896 236.82 76.0497 250.3 74.8097 263.82C74.2096 270.29 73.4996 276.75 72.6396 283.2C71.9596 288.35 69.2797 295.3 71.7096 300.34C73.7096 304.47 78.7096 305.17 83.4596 305.74C91.013 306.646 98.5963 307.346 106.21 307.84C121.683 308.903 137.212 308.866 152.68 307.73C167.56 306.684 182.309 304.236 196.73 300.42ZM95.1096 303.68C90.9796 303.3 86.8196 302.92 82.7196 302.36C77.8796 301.69 74.9396 300.29 74.9796 295.87C75.0396 289.55 76.7396 283.05 77.4896 276.75C78.9596 264.37 79.9296 251.95 80.5897 239.52C83.2897 189.13 82.0196 138.63 83.8997 88.2198C84.4297 74.1098 85.0196 59.9798 86.1596 45.8898C86.6496 39.7298 87.7296 32.9498 96.1597 31.0298C99.9497 30.1598 104.25 30.2998 108.16 30.0898C112.74 29.8432 117.323 29.5965 121.91 29.3498L221.35 23.9998C217.88 35.3998 218.35 47.0798 218.69 58.7398C219 71.0282 218.619 83.3242 217.55 95.5698C215.55 120.24 212.22 144.8 212.47 169.57C212.72 194.69 214.55 219.75 213.78 244.88C213.41 256.88 213.01 268.98 211.5 280.88C210.76 286.69 208.8 292.05 202.14 295.04C195.96 297.82 188.19 299.14 181.4 300.48C153.21 306.13 123.8 306.32 95.1096 303.68Z" fill="black"/>
<path d="M158.889 129.58C165.299 133.49 172.889 133.48 180.169 133.28C180.388 133.275 180.596 133.186 180.75 133.031C180.905 132.877 180.994 132.668 180.999 132.45L181.239 130.69C181.346 130.558 181.412 130.398 181.429 130.23C181.519 130.156 181.592 130.063 181.64 129.957C181.689 129.852 181.712 129.736 181.709 129.62C181.709 129.21 181.779 128.62 181.849 127.94C181.948 127.385 182.002 126.823 182.009 126.26C182.129 124.7 182.119 123.11 181.509 122.42C180.689 121.42 179.649 121.84 178.509 121.78C174.429 121.58 170.699 119.78 167.189 117.88C165.389 116.88 161.369 114.61 159.899 112.08C166.589 112.85 173.299 113.33 180.029 113.48C180.248 113.475 180.456 113.386 180.61 113.231C180.765 113.077 180.854 112.868 180.859 112.65C180.989 111.15 181.099 109.65 181.199 108.15C181.929 106.63 181.729 104.42 181.529 102.43C181.529 101.66 181.619 100.89 181.639 100.12C181.656 99.9361 181.601 99.753 181.485 99.6092C181.369 99.4655 181.202 99.3725 181.019 99.3499C180.914 99.2787 180.794 99.231 180.669 99.2099C180.53 99.0645 180.34 98.9785 180.139 98.9699C169.819 98.2699 159.429 97.8399 149.139 96.2999C139.819 94.8999 130.609 93.0399 121.139 92.8699C120.921 92.875 120.712 92.964 120.558 93.1186C120.403 93.2732 120.314 93.4813 120.309 93.6999C120.242 97.3465 120.242 100.99 120.309 104.63C120.264 104.898 120.234 105.168 120.219 105.44C120.204 105.516 120.204 105.594 120.219 105.67L120.219 106C120.197 106.85 120.257 107.701 120.399 108.54C120.431 108.728 120.499 108.908 120.599 109.07C120.709 109.55 120.829 110.07 120.989 110.53C121.043 110.702 121.149 110.853 121.292 110.962C121.435 111.071 121.609 111.134 121.789 111.14C126.699 111.14 131.609 111.26 136.519 111.35C132.606 114.289 128.364 116.762 123.879 118.72C122.389 119.37 120.619 119.64 119.959 121.17C119.099 123.17 119.489 126.6 119.649 129.29C119.582 129.362 119.53 129.447 119.497 129.54C119.465 129.633 119.452 129.732 119.459 129.83C119.581 131.099 119.517 132.379 119.269 133.63C119.239 133.767 119.244 133.91 119.284 134.045C119.323 134.181 119.396 134.304 119.496 134.403C119.595 134.503 119.718 134.576 119.853 134.615C119.989 134.655 120.132 134.66 120.269 134.63C131.456 132.938 141.839 127.808 149.979 119.95C151.997 123.925 155.082 127.26 158.889 129.58ZM180.159 128C179.689 129.9 179.049 131.35 176.949 131.68C175.116 131.964 173.246 131.916 171.429 131.54C170.169 131.27 170.709 129.35 171.949 129.62C173.172 129.846 174.419 129.914 175.659 129.82C176.269 129.862 176.878 129.734 177.419 129.45C178.019 129.03 178.079 128.14 178.239 127.45C178.323 127.208 178.496 127.007 178.723 126.889C178.95 126.77 179.214 126.744 179.46 126.814C179.706 126.885 179.916 127.047 180.046 127.268C180.176 127.488 180.217 127.75 180.159 128ZM171.489 111.88C171.224 111.88 170.97 111.775 170.782 111.587C170.594 111.399 170.489 111.145 170.489 110.88C170.489 110.615 170.594 110.36 170.782 110.173C170.97 109.985 171.224 109.88 171.489 109.88C172.809 109.88 174.149 110.08 175.489 109.98C176.269 109.92 177.039 109.85 177.419 109.08C177.65 108.381 177.752 107.645 177.719 106.91C177.809 105.64 179.799 105.64 179.719 106.91C179.579 108.78 179.469 110.83 177.469 111.61C175.469 112.39 173.419 112 171.489 111.92L171.489 111.88ZM138.649 125.75C137.459 126.22 136.949 124.3 138.119 123.83C141.119 122.65 143.469 120.33 145.699 118.1C145.89 117.936 146.137 117.85 146.388 117.86C146.64 117.87 146.879 117.974 147.057 118.152C147.235 118.33 147.339 118.569 147.349 118.821C147.359 119.072 147.273 119.319 147.109 119.51C144.599 122.05 141.989 124.47 138.649 125.79L138.649 125.75Z" fill="black"/>
<path d="M180.149 155.3C180.319 154.3 180.449 153.3 180.559 152.3C180.469 148.72 180.109 145.16 180.979 141.7C180.919 141.566 180.823 141.452 180.701 141.371C180.579 141.289 180.436 141.244 180.289 141.24C166.289 140.49 152.24 139.7 138.21 139C135.03 138.84 131.84 138.7 128.66 138.67C126.66 138.67 121.269 137.85 119.479 139.16C116.879 141.06 118.069 147.83 118.179 150.47C118.184 150.559 118.204 150.647 118.24 150.73L118.24 151.41C118.235 151.496 118.248 151.581 118.278 151.662C118.307 151.743 118.352 151.817 118.409 151.88L118.469 152.46C118.469 152.78 118.689 153.2 119.079 153.26C128.287 154.585 137.607 154.951 146.889 154.35C157.679 155.09 168.479 155.68 179.309 155.91C179.498 155.921 179.685 155.866 179.838 155.755C179.991 155.644 180.101 155.483 180.149 155.3ZM166.409 153.24C166.144 153.24 165.89 153.135 165.702 152.947C165.515 152.76 165.409 152.505 165.409 152.24C165.409 151.975 165.515 151.72 165.702 151.533C165.89 151.345 166.144 151.24 166.409 151.24C169.829 151.24 173.239 151.62 176.659 151.65C176.925 151.65 177.179 151.755 177.367 151.943C177.554 152.13 177.659 152.385 177.659 152.65C177.659 152.915 177.554 153.169 177.367 153.357C177.179 153.545 176.925 153.65 176.659 153.65C173.239 153.62 169.829 153.27 166.409 153.24Z" fill="black"/>
<path d="M126.769 196.91C127.309 196.91 127.839 196.91 128.369 196.91C128.551 196.91 128.728 196.85 128.872 196.74C129.017 196.63 129.121 196.475 129.169 196.3C130.246 188.658 130.913 180.963 131.169 173.25C138.103 173.45 145.026 173.647 151.939 173.84C160.559 174.08 169.179 174.18 177.659 175.84C177.783 175.872 177.911 175.875 178.036 175.85C178.16 175.825 178.278 175.772 178.379 175.695C178.48 175.618 178.562 175.519 178.619 175.405C178.677 175.292 178.707 175.167 178.709 175.04L178.789 174.23C178.814 172.595 179.002 170.967 179.349 169.37C179.349 168.95 179.349 168.58 179.349 168.31L179.649 162.16C179.715 162.037 179.747 161.899 179.744 161.76C179.74 161.621 179.701 161.485 179.63 161.365C179.558 161.245 179.457 161.146 179.336 161.077C179.215 161.008 179.079 160.971 178.939 160.97C160.239 161.2 141.519 161.43 122.839 160.28C121.169 160.18 118.519 159.34 117.349 161.02C117.009 161.757 116.907 162.582 117.059 163.38C117.056 165.728 116.842 168.07 116.419 170.38C114.875 178.958 114.562 187.713 115.489 196.38C115.495 196.598 115.584 196.807 115.738 196.961C115.893 197.116 116.101 197.205 116.319 197.21C119.699 197.27 123.049 197.21 126.419 197C126.54 196.989 126.658 196.959 126.769 196.91ZM161.229 170.74C165.689 170.99 170.129 170.58 174.489 171.69C174.723 171.778 174.915 171.95 175.029 172.172C175.142 172.395 175.168 172.651 175.101 172.892C175.035 173.133 174.881 173.34 174.67 173.472C174.458 173.605 174.205 173.654 173.959 173.61C169.779 172.54 165.499 172.97 161.229 172.73C159.959 172.66 159.949 170.67 161.229 170.74ZM124.379 193.69C125.589 193.55 125.579 193.28 125.629 192.08C125.544 190.482 125.655 188.88 125.959 187.31C126.055 187.087 126.227 186.907 126.446 186.802C126.664 186.697 126.913 186.675 127.146 186.74C127.38 186.804 127.581 186.952 127.714 187.154C127.847 187.356 127.903 187.6 127.869 187.84C127.319 189.84 128.129 192.21 127.299 194.15C126.779 195.38 125.569 195.54 124.379 195.68C123.189 195.82 123.119 193.84 124.379 193.69Z" fill="black"/>
<path d="M125.48 239.11L125.85 239.11C125.85 239.11 125.85 239.11 125.92 239.11C127.482 239.02 129.048 239.02 130.61 239.11C130.61 237.7 130.66 236.3 130.79 234.89C130.56 228.74 131.58 222.61 131.25 216.45C139.917 216.763 148.583 217.067 157.25 217.36C159.93 217.45 162.61 217.55 165.25 217.64C166.85 217.7 168.46 217.75 170.07 217.81C171.41 217.86 173.71 218.43 174.89 217.98C176.39 217.41 176.89 216.13 177.08 214.66C177.18 214.556 177.274 214.446 177.36 214.33C177.9 213.53 177.57 211.48 177.62 210.59L177.92 204.44C177.986 204.316 178.018 204.177 178.014 204.037C178.01 203.897 177.97 203.761 177.898 203.641C177.825 203.521 177.723 203.422 177.6 203.353C177.478 203.285 177.34 203.249 177.2 203.25C158.5 203.47 139.78 203.7 121.1 202.56C119.43 202.46 116.79 201.62 115.61 203.3C115.27 204.034 115.169 204.856 115.32 205.65C115.32 207.997 115.109 210.34 114.69 212.65C113.141 221.228 112.828 229.983 113.76 238.65C113.763 238.867 113.85 239.074 114.003 239.227C114.156 239.38 114.363 239.467 114.58 239.47C116.76 239.52 118.93 239.47 121.1 239.47C122.62 239.3 124.05 239.19 125.48 239.11ZM162.71 213.83C166.04 214.38 169.43 214.3 172.77 214.83C174.03 215.04 173.49 216.96 172.24 216.75C168.91 216.21 165.52 216.28 162.24 215.75C160.89 215.54 161.46 213.62 162.71 213.83ZM123.06 235.42C123.92 235.42 125.41 235.56 126.06 234.92C126.71 234.28 126.61 232.79 126.61 231.92C126.61 231.655 126.715 231.4 126.903 231.213C127.09 231.025 127.345 230.92 127.61 230.92C127.875 230.92 128.13 231.025 128.317 231.213C128.505 231.4 128.61 231.655 128.61 231.92C128.61 233.38 128.61 235.19 127.48 236.3C126.35 237.41 124.48 237.37 123.05 237.38C122.824 237.333 122.622 237.209 122.476 237.03C122.331 236.851 122.253 236.627 122.254 236.396C122.255 236.165 122.336 235.942 122.483 235.764C122.63 235.586 122.834 235.465 123.06 235.42Z" fill="black"/>
</g>
<defs>
<clipPath id="clip0">
<rect width="387.7" height="351.89" fill="white" transform="translate(351.89) rotate(90)"/>
</clipPath>
</defs>
</svg>
