<svg width="44" height="45" viewBox="0 0 44 45" fill="none" xmlns="http://www.w3.org/2000/svg">
<path d="M19.1873 36.1071C19.91 38.4678 21.4066 40.5243 23.4417 41.9529C25.4768 43.3815 27.9349 44.1012 30.4293 43.9988C30.6456 43.9989 30.8571 43.9363 31.0376 43.8187C31.2181 43.7012 31.3597 43.5338 31.4448 43.3374C31.5299 43.141 31.5547 42.9243 31.5162 42.7141C31.4777 42.5039 31.3775 42.3095 31.2282 42.155C30.1316 41.086 26.4786 36.8747 27.8149 35.0955C28.1126 34.6937 30.2332 34.3781 30.7779 34.17C31.8295 33.7528 32.8447 33.2513 33.8135 32.6706C37.084 30.7114 39.7158 27.865 41.3954 24.4703C42.9407 21.2014 43.4075 17.5354 42.7299 13.9902C42.0523 10.445 40.2645 7.1996 37.619 4.71232C30.7779 -1.5652 18.8823 -0.646885 10.6904 2.15109C6.87772 3.44964 4.15436 5.26474 2.56392 9.00255C0.726564 13.3287 -0.486237 18.3722 0.189155 23.0929C0.791925 27.2612 2.90525 31.2644 6.60176 33.5602C10.4508 35.9564 16.2751 37.5921 20.7705 36.5232C22.1358 36.2003 21.5548 34.1198 20.1895 34.4498C14.9534 35.691 7.11738 32.771 4.29235 28.2656C1.15504 23.3009 1.99747 17.088 3.8203 11.8292C5.06941 8.24207 6.9213 5.80281 10.6323 4.43252C13.484 3.38833 16.4633 2.72249 19.4923 2.45241C25.0843 1.94304 31.7365 2.2874 36.0794 6.23327C43.988 13.4076 41.301 25.6039 32.6806 30.8124C30.7852 31.9675 28.483 32.1612 26.6384 33.1943C26.3592 33.3065 26.1066 33.4748 25.8966 33.6884C25.6866 33.9021 25.5237 34.1564 25.4183 34.4355C24.4016 37.4558 27.6624 41.7389 29.6305 43.6544L30.4003 41.8178C28.3833 41.9213 26.389 41.3573 24.733 40.2151C23.0769 39.0729 21.8538 37.4178 21.257 35.5116C20.8286 34.1987 18.7225 34.7942 19.1582 36.0855L19.1873 36.1071Z" fill="black"/>
<path d="M23.7622 27.9782C23.5591 27.8015 23.3178 27.6731 23.0567 27.6029C22.7956 27.5326 22.5217 27.5224 22.2559 27.573C21.9902 27.6235 21.7398 27.7335 21.5237 27.8946C21.3077 28.0556 21.1319 28.2633 21.0098 28.5019C20.8861 28.7485 20.8219 29.02 20.8224 29.2952C20.8229 29.5704 20.888 29.8417 21.0125 30.0879C21.1371 30.334 21.3178 30.5482 21.5404 30.7137C21.7629 30.8792 22.0213 30.9915 22.2952 31.0416C24.837 31.6371 26.0571 27.7558 23.9002 26.5648C23.6385 26.4412 23.3525 26.3759 23.0625 26.3734C22.7724 26.3709 22.4853 26.4312 22.2215 26.5503C21.9576 26.6693 21.7234 26.8441 21.5354 27.0623C21.3474 27.2805 21.2101 27.5368 21.1333 27.8132C20.9918 28.3964 21.0775 29.0109 21.3735 29.5346C21.6695 30.0583 22.1541 30.4528 22.731 30.6398C22.9998 30.686 23.2756 30.6723 23.5384 30.5995C23.8011 30.5268 24.044 30.397 24.2494 30.2196C24.4548 30.0421 24.6174 29.8215 24.7254 29.574C24.8333 29.3265 24.8839 29.0582 24.8733 28.7889C24.8641 28.2482 24.6637 27.7278 24.307 27.3177C23.9502 26.9076 23.4595 26.6336 22.9198 26.5433C22.6025 26.4928 22.278 26.5104 21.9682 26.5949C21.6584 26.6794 21.3707 26.8289 21.1247 27.0331C20.8787 27.2374 20.6801 27.4916 20.5425 27.7785C20.4048 28.0654 20.3314 28.3782 20.3271 28.6956C20.3421 29.0139 20.4304 29.3246 20.5852 29.6041C20.7401 29.8836 20.9574 30.1245 21.2207 30.3085C21.484 30.4925 21.7864 30.6148 22.1047 30.666C22.423 30.7172 22.749 30.696 23.0578 30.604C23.1993 30.5697 23.3325 30.5077 23.4494 30.4216C23.5663 30.3355 23.6645 30.2272 23.7382 30.103C23.8119 29.9787 23.8596 29.8411 23.8785 29.6983C23.8974 29.5555 23.8871 29.4105 23.8482 29.2717C23.8094 29.1329 23.7427 29.0032 23.6521 28.8904C23.5616 28.7775 23.449 28.6837 23.3211 28.6146C23.1933 28.5455 23.0526 28.5025 22.9076 28.4881C22.7626 28.4736 22.6161 28.4881 22.4768 28.5306C22.2226 28.6167 22.4768 28.5306 22.4768 28.5306C22.4768 28.5306 22.5131 28.6956 22.4768 28.6741C22.4405 28.6526 22.5131 28.6956 22.5131 28.6956C22.5131 28.6956 22.4405 28.6382 22.5785 28.6956C22.5058 28.6956 22.6801 28.7817 22.6583 28.7602C22.7455 28.8247 22.6583 28.8463 22.6947 28.6956C22.731 28.5449 22.6947 28.6956 22.6947 28.6956C22.6947 28.6956 22.6583 28.7602 22.7528 28.6597C22.775 28.6211 22.8081 28.5897 22.8481 28.5694C22.8881 28.549 22.9331 28.5405 22.9779 28.5449C23.0182 28.5201 23.0647 28.507 23.1122 28.507C23.1597 28.507 23.2063 28.5201 23.2466 28.5449C23.5298 28.5449 23.3047 28.6167 23.2466 28.4875C23.2466 28.4875 23.1667 28.3297 23.1958 28.3728C23.2248 28.4158 23.1449 28.2795 23.1958 28.2651C23.2466 28.2508 23.1958 28.4086 23.1231 28.4445C23.0505 28.4804 22.898 28.4445 22.8181 28.4445C22.7382 28.4445 22.8181 28.301 22.7528 28.4445C22.7567 28.4875 22.7567 28.5307 22.7528 28.5736C22.7721 28.6804 22.7721 28.7897 22.7528 28.8965C22.7528 28.8606 22.6801 29.0615 22.6801 28.9897C22.6801 28.918 22.7455 28.9897 22.7528 28.9395H22.7092C22.7092 28.9395 22.8254 28.9395 22.8254 28.9826C22.8254 29.0256 22.7164 28.8319 22.8254 28.9826L22.9488 29.1835C22.9731 29.2428 22.9806 29.3076 22.9703 29.3708C22.9601 29.434 22.9326 29.4933 22.8907 29.5422C22.8109 29.6498 22.8036 29.6713 22.8907 29.5996C22.9779 29.5278 22.9416 29.5493 22.8907 29.5996C22.787 29.6663 22.6632 29.6955 22.5401 29.6825C22.4171 29.6694 22.3023 29.6148 22.2153 29.5278C22.4231 29.7226 22.6987 29.8312 22.9851 29.8312C23.2716 29.8312 23.5471 29.7226 23.7549 29.5278C23.9572 29.3251 24.0706 29.052 24.0706 28.7673C24.0706 28.4827 23.9572 28.2096 23.7549 28.0069L23.7622 27.9782Z" fill="black"/>
<path d="M28.396 7.97622C26.1315 6.33831 23.3801 5.49035 20.5745 5.56565C17.2266 5.65174 15.2004 7.17987 12.8547 9.38238C12.7316 9.49403 12.6391 9.63474 12.586 9.79131C12.4482 9.91066 12.3414 10.0609 12.2744 10.2294C12.2075 10.3979 12.1823 10.5798 12.2011 10.7598C12.1531 11.1125 12.1943 11.4713 12.321 11.8044C12.4477 12.1374 12.6561 12.4342 12.9273 12.6682C14.0022 13.235 14.9608 15.1649 16.3479 15.129C16.8635 15.129 17.6914 12.6539 18.0545 12.4028C18.9333 11.7858 18.512 12.044 19.5651 11.8145C23.9225 10.8675 22.7242 15.6527 21.5114 17.8768C20.5455 19.6416 19.8265 21.1339 19.9137 23.1642C19.9136 23.2882 19.9388 23.4109 19.9877 23.5251C20.0365 23.6393 20.1082 23.7427 20.1982 23.829C20.2883 23.9153 20.3951 23.9829 20.5121 24.0277C20.6291 24.0724 20.7541 24.0935 20.8796 24.0897C21.0667 24.2052 21.2835 24.265 21.5041 24.2619H24.2275C24.4642 24.2355 24.6857 24.1338 24.8587 23.972C25.0316 23.8102 25.1466 23.5971 25.1861 23.3651C25.9777 18.465 34.3874 12.3812 28.396 7.97622Z" fill="black"/>
</svg>
