<svg width="55" height="42" viewBox="0 0 55 42" fill="none" xmlns="http://www.w3.org/2000/svg" xmlns:xlink="http://www.w3.org/1999/xlink">
<g opacity="0.15">
<rect x="0.0429688" y="0.490967" width="54.0515" height="39.8668"/>
</g>
<path d="M49.6964 18.4184C48.8801 16.9655 47.9903 15.578 47.0711 14.1978C47.0553 14.0742 47.0105 13.956 46.9403 13.8526C46.8701 13.7492 46.7763 13.6634 46.6666 13.6021C45.0928 11.2872 43.4039 9.0498 41.5997 6.88987C41.813 3.75167 39.7833 -0.301843 36.1357 0.0177884C32.4882 0.33742 28.2744 1.34716 28.3847 5.53143C26.9139 5.96729 26.2373 6.25787 26.002 4.71782C25.8623 3.79525 26.0608 3.04702 25.5828 2.16804C24.6709 0.475443 22.6633 0.0686389 20.891 0.192133C18.7878 0.33742 15.7433 0.773281 14.0445 2.03728C12.3457 3.30128 12.8532 5.18274 12.7281 7.05695C12.6689 7.10205 12.6147 7.15318 12.5664 7.2095C9.89687 10.2896 7.35241 13.4714 5.02121 16.7912C3.25626 19.2901 0.145546 22.5373 0.344103 25.7336C0.347912 25.8835 0.380347 26.0314 0.439704 26.1695C0.439704 26.569 0.373519 26.9685 0.344103 27.3681C-0.203895 29.1979 -0.0947796 31.1586 0.652968 32.918C2.85915 38.1774 9.65419 39.5577 14.8314 38.4099C18.7363 37.5527 21.0896 34.0513 21.6338 30.3029H22.3103C23.0702 30.1431 23.4453 30.3852 23.4355 31.0293C23.8326 31.5233 23.9061 32.0245 24.4283 32.4822C24.8854 32.8679 25.4446 33.1167 26.04 33.199C26.6354 33.2814 27.2422 33.194 27.789 32.9471C28.2825 32.7196 28.7106 32.3738 29.0343 31.9412C29.358 31.5085 29.567 31.0028 29.6422 30.4699C29.6638 30.2283 29.6638 29.9852 29.6422 29.7435H30.032C30.6827 29.926 31.3558 30.0189 32.0322 30.0196C32.3558 34.7704 35.2974 39.3978 40.3054 40.6982C47.5564 42.5724 52.2629 36.1507 53.0351 29.7508C53.5499 25.5447 51.7261 21.9852 49.6964 18.4184ZM32.9662 24.4769C32.5421 25.4824 32.26 26.5408 32.1278 27.6223C30.9144 27.3899 29.5098 27.1211 28.5979 27.448C27.6861 27.7749 27.767 28.3488 27.4434 29.0752C27.3845 29.3384 27.3845 29.6111 27.4434 29.8743C26.1099 30.5281 25.3598 30.3586 25.1931 29.3658C24.9357 29.126 24.8842 28.7701 24.5386 28.5158C23.8032 27.9855 22.7148 28.0146 21.7294 28.08C21.6768 26.9002 21.4284 25.7369 20.994 24.6367C19.5232 21.0045 16.7949 19.7405 13.743 19.7768C12.5945 19.5057 11.4027 19.465 10.238 19.6572C9.07335 19.8494 7.95957 20.2705 6.96265 20.8955C5.616 21.3267 4.36714 22.0127 3.28568 22.915C4.03082 21.5792 4.89986 20.3147 5.88162 19.1376C6.08248 19.1534 6.28381 19.1132 6.46258 19.0213C8.63459 17.929 11.1074 17.5644 13.5077 17.9825C14.8976 18.2223 15.4932 16.1229 14.096 15.8831C12.1432 15.5328 10.1372 15.5997 8.21282 16.0793C10.0734 13.5585 12.0442 11.125 14.096 8.74954C14.2694 8.56034 14.3663 8.31467 14.3681 8.05943C14.5185 7.96858 14.6445 7.84322 14.7354 7.69399C14.8263 7.54476 14.8794 7.37607 14.8902 7.20223C15.0005 6.01088 14.6475 5.05925 15.3829 4.10035C16.1183 3.14146 17.4935 3.03976 18.6334 2.78551C20.3615 2.39323 23.156 1.44887 23.7811 4.28196C23.8318 4.7131 23.784 5.14997 23.6414 5.56049C21.9661 5.39922 20.2752 5.53452 18.6481 5.96003C18.3653 6.03613 18.1246 6.22009 17.9791 6.47144C17.8336 6.72279 17.7952 7.02094 17.8722 7.3003C17.9493 7.57966 18.1355 7.81735 18.3899 7.96108C18.6444 8.1048 18.9462 8.14279 19.229 8.06669C20.7411 7.65353 22.3226 7.54971 23.8767 7.76159C23.4061 10.2169 22.8839 12.665 22.2662 15.0841C21.9206 16.4498 24.0532 17.0309 24.3988 15.6652C25.0166 13.2244 25.5461 10.769 26.0094 8.29915C26.746 8.22583 27.4731 8.07733 28.1788 7.85602C28.9338 10.8635 29.8114 13.8491 30.8115 16.813C31.2601 18.1351 33.3927 17.5394 32.9368 16.2318C31.9955 13.4714 31.1865 10.6673 30.4879 7.83423C30.6783 7.74079 30.8368 7.59431 30.9439 7.4129C31.2307 6.92619 31.9661 7.04968 32.4146 7.12959C33.1892 7.31763 33.9852 7.40554 34.7826 7.39111C36.1946 7.28214 36.2019 5.10283 34.7826 5.2118C33.6354 5.30624 32.5764 4.805 31.3851 4.91396C31.1039 4.94416 30.8274 5.00757 30.5615 5.10283C30.5291 4.68268 30.6457 4.26449 30.8912 3.91991C31.1367 3.57534 31.4959 3.32582 31.9072 3.2141C32.9858 2.83364 34.0989 2.55633 35.2312 2.38597C36.7535 2.10992 37.886 2.38597 38.7317 3.76619C39.2968 4.74325 39.5265 5.87483 39.3862 6.99157C39.3666 7.11431 39.3666 7.23931 39.3862 7.36205C39.4166 7.60759 39.5307 7.8356 39.7098 8.00858C41.1462 9.70843 42.5141 11.464 43.8133 13.2752C41.2542 13.2589 38.7299 13.8599 36.4593 15.0259C35.1944 15.6652 36.3122 17.5467 37.5771 16.9074C39.9664 15.6792 42.6781 15.2003 45.3502 15.5344C45.74 16.1229 46.1297 16.7113 46.5048 17.3069C41.3938 15.5126 34.9885 19.7696 32.9662 24.4769Z" fill="black"/>
<path d="M29.4513 22.3057C29.3448 21.8003 29.1094 21.3302 28.7673 20.94C28.4845 20.6257 28.1259 20.3871 27.7248 20.2461C27.3237 20.1052 26.8931 20.0665 26.4729 20.1336C26.1888 20.1769 25.9177 20.281 25.6787 20.4387C25.429 20.5456 25.1961 20.6875 24.9874 20.8601C24.5291 21.2543 24.2225 21.7926 24.1194 22.3841C24.0162 22.9757 24.1228 23.5843 24.4212 24.1072C24.4645 24.3986 24.5565 24.6809 24.6933 24.9426C24.8673 25.2882 25.1235 25.587 25.44 25.8134C25.7564 26.0399 26.1237 26.1873 26.5103 26.2429C26.897 26.2986 27.2916 26.261 27.6603 26.1332C28.029 26.0054 28.3609 25.7913 28.6276 25.5092C29.0596 25.1083 29.3667 24.5937 29.5126 24.0262C29.6585 23.4586 29.6372 22.8617 29.4513 22.3057Z" fill="black"/>
</svg>
