<svg width="44" height="53" viewBox="0 0 44 53" fill="none" xmlns="http://www.w3.org/2000/svg">
<path d="M43.8394 23.5664C43.8394 21.4686 44.4998 18.5317 42.5271 17.0932C41.0261 15.9972 38.6331 16.2369 36.8577 16.3311C36.8577 16.2883 36.8577 16.254 36.8577 16.2112C35.3052 8.34231 31.5314 0.190818 22.2511 0.00244361C14.0086 -0.160244 6.81246 7.82856 5.45729 15.5519C5.45304 15.5918 5.45304 15.632 5.45729 15.6718C3.58751 15.8345 1.89784 16.3654 0.860022 17.7011C0.601249 17.7699 0.374354 17.9261 0.217968 18.1431C0.0615823 18.3601 -0.0146249 18.6245 0.00232217 18.8913C0.113823 27.0257 0.311094 35.16 0.937215 43.3115C1.30603 48.0295 2.74696 51.9254 7.99608 52.0024C11.667 52.0538 15.398 51.5144 19.0947 51.5229C23.5033 51.5229 27.9119 51.7028 32.3205 51.5229C36.1029 51.3431 42.8444 52.0709 43.6592 47.3359C44.3197 43.4999 43.7707 39.0816 43.7965 35.1857C43.8222 31.2898 43.8136 27.4024 43.8394 23.5664ZM22.3969 9.07868C27.1914 8.97593 29.1555 12.6407 29.7731 16.7164C28.152 16.8192 26.5224 16.9134 24.9013 16.9134C21.5563 16.9134 18.2284 16.5366 14.9006 16.2284C15.5524 12.5379 18.3914 9.16431 22.3797 9.07868H22.3969ZM41.1204 45.1011C40.683 48.8086 38.2043 48.4833 34.7306 48.8086C31.9945 49.0398 29.2413 49.0655 26.4967 49.0569C21.2561 49.0569 16.0156 48.8429 10.7836 49.2196C8.56217 49.3738 8.27913 49.6221 6.17776 48.6288C3.68185 47.4386 3.68185 45.8974 3.45885 43.3458C3.27874 41.2394 3.18439 39.1159 3.09004 36.9924C3.99171 36.9674 4.88718 36.8352 5.75749 36.5985C6.20349 36.4872 6.61519 36.4016 7.0955 36.3245C7.16412 37.3435 7.24989 38.3538 7.41285 39.3556C7.69589 41.2051 8.27055 42.5751 10.1146 43.166C11.5127 43.6112 13.9657 43.8938 14.9949 42.6094C15.4344 41.8291 15.6146 40.9297 15.5095 40.0406C15.5095 38.9104 15.561 37.7716 15.5781 36.6157C20.0403 36.3074 24.5168 36.2645 28.984 36.4872C28.984 37.001 28.984 37.5061 28.984 38.0113C29.0355 39.9807 29.2842 41.3079 31.1797 42.1898C32.5091 42.7978 34.0616 43.0461 35.1937 41.9073C36.3259 40.7685 36.3774 38.7135 36.4203 37.0267L38.9934 37.3606C39.7838 37.5165 40.5898 37.5797 41.3949 37.549C41.4531 40.0695 41.3615 42.5913 41.1204 45.1011ZM41.2577 28.5327C41.2577 30.5962 41.2577 32.7026 41.352 34.8261C40.6316 35.2542 39.1735 34.7747 38.4444 34.6805L36.729 34.4493C37.0035 32.6512 37.3466 30.5363 36.729 29.1663C36.1115 27.7963 34.5848 27.685 33.2982 27.5993C32.8385 27.5407 32.3716 27.5798 31.9282 27.7141C31.4847 27.8484 31.0747 28.0748 30.7251 28.3785C30.406 28.3981 30.1047 28.5317 29.8762 28.755C29.6478 28.9783 29.5077 29.2763 29.4815 29.5944C29.3442 31.0158 29.2413 32.4457 29.1813 33.8757C24.7258 33.6473 20.2607 33.6845 15.8097 33.987C15.8869 32.4971 15.8526 30.973 14.6004 29.9883C13.3481 29.0036 10.6378 28.8409 9.11109 29.192C8.74913 29.2481 8.40849 29.3989 8.12378 29.629C7.83906 29.8591 7.62042 30.1603 7.49004 30.502C7.27784 30.5879 7.09816 30.7384 6.97652 30.9321C6.85488 31.1258 6.79748 31.3528 6.81246 31.5809C6.86392 32.2745 6.89823 32.9766 6.93254 33.6873H6.81246C5.54306 33.9013 4.23936 34.475 2.95281 34.4065C2.7584 29.583 2.61545 24.7595 2.52396 19.9359C3.73332 16.4424 15.9984 18.9341 18.6316 19.1482C23.7744 19.4667 28.9333 19.4237 34.0702 19.0197C36.0943 18.9084 40.2113 17.9323 41.3091 20.2527C42.1754 22.1194 41.2491 26.392 41.232 28.5327H41.2577Z" fill="black"/>
</svg>
