<svg width="54" height="52" viewBox="0 0 54 52" fill="none" xmlns="http://www.w3.org/2000/svg">
<path d="M13.9428 13.752C17.3093 15.5807 20.7098 17.3614 24.1443 19.0942C26.3887 20.2371 28.2249 21.4478 30.7243 20.5842C33.7252 19.5344 36.3181 17.2401 39.3871 16.1226C39.8887 15.9363 43.0681 14.5309 43.6377 15.005C44.2073 15.4791 43.5357 19.9408 43.4932 20.6943C43.3402 23.3865 43.2722 25.8925 40.4837 27.2894C39.005 27.8872 37.4419 28.2528 35.8506 28.3731C31.8681 29.078 27.814 29.294 23.7788 29.0165C20.1827 28.6609 16.7142 27.7296 15.8386 23.4881C15.5495 22.0827 15.9491 20.2371 16.0001 18.764C16.0596 16.893 16.8502 14.0145 15.4985 12.4652C15.2553 12.2353 14.9327 12.1072 14.5974 12.1072C14.2621 12.1072 13.9395 12.2353 13.6963 12.4652L13.4752 12.6684C13.24 12.91 13.1084 13.2334 13.1084 13.57C13.1084 13.9066 13.24 14.23 13.4752 14.4717L13.6198 14.6325C14.7164 15.8516 16.5102 14.0484 15.422 12.8377L15.2775 12.6684V14.4717L15.4985 14.2685H13.6453C13.8748 14.5225 13.3562 19.8731 13.3137 21.126C13.2627 22.7177 12.9567 24.5548 13.5262 26.0957C14.7419 29.3721 18.899 30.8452 22.0275 31.3531C26.4822 32.0812 31.2089 31.5479 35.6295 30.9383C38.7325 30.5065 42.6091 30.0917 44.5558 27.2809C46.5026 24.4702 46.0776 19.7037 46.1031 16.4273C46.1031 14.2346 46.0266 12.4229 43.4337 12.3636C39.4636 12.2705 35.417 15.3183 31.9655 16.8337C28.514 18.3491 26.5332 17.511 23.3197 15.8601C20.5993 14.4604 17.8931 13.0268 15.201 11.5593C13.7643 10.7804 12.4721 12.9732 13.9173 13.752H13.9428Z" fill="black"/>
<path d="M15.8892 16.9355C16.5098 18.4001 19.4768 27.5859 22.2142 24.4873C23.3618 23.175 21.8231 21.1008 21.1345 19.9918C19.9867 18.1001 18.598 16.3642 17.0029 14.8274C16.7793 14.6266 16.492 14.5104 16.1912 14.4992C15.8903 14.488 15.5951 14.5824 15.3571 14.766C15.119 14.9495 14.9534 15.2106 14.889 15.5035C14.8247 15.7964 14.8658 16.1025 15.0051 16.3683C16.2848 19.3536 17.9727 22.1485 20.0208 24.6735C20.225 24.8442 20.4774 24.9473 20.743 24.9686C21.0086 24.99 21.2744 24.9284 21.5033 24.7926C21.7322 24.6567 21.913 24.4533 22.0206 24.2104C22.1282 23.9676 22.1572 23.6975 22.1037 23.4375C21.1374 20.4948 19.5488 17.7926 17.445 15.5132C17.2037 15.2794 16.8804 15.1486 16.5438 15.1486C16.2072 15.1486 15.8839 15.2794 15.6427 15.5132C14.7161 16.4614 14.8691 17.5281 15.1241 18.7303C15.5139 20.4834 16.0543 22.1999 16.7394 23.8608C16.8193 24.1233 16.9819 24.3532 17.2031 24.5166C17.4243 24.6799 17.6924 24.7681 17.9678 24.7681C18.2432 24.7681 18.5113 24.6799 18.7325 24.5166C18.9537 24.3532 19.1163 24.1233 19.1962 23.8608C19.3537 23.4305 19.4118 22.9704 19.3662 22.5147C19.2727 20.8892 16.7224 20.8723 16.8159 22.5147L16.7394 23.1835H19.1962C18.7882 22.1591 18.4141 21.1347 18.1081 20.0849C17.9975 19.7039 17.1984 17.5451 17.445 17.308H15.6767C17.477 19.2585 18.8417 21.5669 19.6808 24.0809L21.8146 22.8618C19.9264 20.4842 18.3733 17.8609 17.1984 15.0645L15.1921 16.6053C16.2366 17.597 17.1871 18.6824 18.0315 19.8479C18.4056 20.3728 18.7457 20.9061 19.0772 21.448C19.3757 22.0003 19.7198 22.527 20.1059 23.0227L20.871 22.4385C21.279 22.5401 21.3555 22.4385 21.109 22.1591L20.7094 21.3633C20.4374 20.8215 20.1824 20.2796 19.9188 19.7378C19.3747 18.5779 18.8477 17.3927 18.3546 16.2074C17.7255 14.7258 15.2601 15.3608 15.8892 16.8847V16.9355Z" fill="black"/>
<path d="M13.3305 13.3967C13.1435 16.7831 12.1573 21.1347 14.4187 24.0556C16.4335 26.6462 20.3696 28.7712 23.617 27.6113C25.1558 27.061 24.4672 24.6058 22.9454 25.1646C20.004 26.2483 15.9659 23.2682 15.6174 20.322C15.3538 18.0869 15.7619 15.6656 15.8809 13.4305C15.9659 11.8051 13.4155 11.8051 13.3305 13.4305V13.3967Z" fill="black"/>
<path d="M17.4795 20.4151C19.7663 22.3538 22.0787 24.174 25.0371 24.9614C25.3013 25.0158 25.576 24.9865 25.8227 24.8776C26.0693 24.7687 26.2755 24.5856 26.4124 24.3541C26.5493 24.1225 26.61 23.8541 26.5859 23.5865C26.5619 23.3188 26.4543 23.0654 26.2783 22.8618C24.254 20.4128 21.9742 18.185 19.4773 16.2159C18.4316 15.3692 16.6464 16.4275 17.4795 17.7482C19.2313 20.5902 21.9446 22.7159 25.1306 23.7423C26.5928 24.2248 27.2219 22.2014 26.1168 21.4141L18.0406 15.6825L16.7484 17.8752C20.4634 20.1272 24.204 22.9549 28.4971 24.0216C28.7946 24.1003 29.1107 24.0692 29.387 23.9339C29.6633 23.7986 29.8811 23.5684 30.0002 23.2857C30.1193 23.003 30.1318 22.687 30.0352 22.3959C29.9386 22.1048 29.7396 21.8583 29.4748 21.7019C27.0314 20.4507 24.7166 18.9649 22.5632 17.2657L21.016 19.2637C23.373 20.9688 25.8504 22.5023 28.4291 23.8523L29.7128 21.6596C27.3459 20.5733 24.8882 19.6952 22.3677 19.0351C22.1241 18.9762 21.8685 18.9892 21.6322 19.0725C21.3958 19.1557 21.1889 19.3056 21.0366 19.504C20.8843 19.7023 20.7933 19.9404 20.7745 20.1894C20.7558 20.4384 20.8101 20.6874 20.931 20.9061C21.4969 22.1421 22.3504 23.2261 23.4207 24.0683C24.491 24.9104 25.7475 25.4865 27.0859 25.7487C27.3563 25.817 27.6416 25.7958 27.8988 25.6882C28.156 25.5806 28.3709 25.3925 28.5112 25.1524C28.6514 24.9122 28.7093 24.6332 28.6761 24.3574C28.6429 24.0815 28.5204 23.824 28.3271 23.6237C26.7508 22.0518 24.7316 20.9947 22.5377 20.5929C22.2941 20.534 22.0385 20.547 21.8022 20.6302C21.5658 20.7135 21.3589 20.8634 21.2066 21.0617C21.0544 21.2601 20.9633 21.4982 20.9445 21.7472C20.9258 21.9961 20.9801 22.2451 21.101 22.4639C21.5044 23.3472 22.1083 24.1251 22.8651 24.7362C23.622 25.3474 24.511 25.7752 25.4622 25.9858C26.5928 26.2652 27.766 24.6989 26.7033 23.8692C24.8623 22.3684 22.6415 21.4017 20.2849 21.0754C20.0683 21.0242 19.8422 21.0293 19.6282 21.09C19.4141 21.1507 19.2193 21.2651 19.0623 21.4223C18.9054 21.5794 18.7916 21.7741 18.7317 21.9876C18.6719 22.2011 18.6681 22.4263 18.7207 22.6417C18.9369 23.8534 19.5204 24.9701 20.3927 25.8419C21.265 26.7136 22.3844 27.2986 23.6004 27.5182C23.8615 27.5566 24.1282 27.5144 24.3645 27.3974C24.6008 27.2803 24.7955 27.094 24.9224 26.8635C25.0492 26.633 25.1021 26.3694 25.074 26.108C25.0459 25.8466 24.9381 25.6001 24.7651 25.4016C24.0127 24.493 23.0747 23.7543 22.0135 23.2346C20.9523 22.715 19.7921 22.4262 18.6101 22.3877C18.3872 22.3901 18.1688 22.4502 17.9763 22.5622C17.7838 22.6742 17.6239 22.8342 17.5124 23.0264C17.4009 23.2187 17.3415 23.4365 17.3402 23.6585C17.3389 23.8805 17.3957 24.099 17.505 24.2926C18.0798 25.5023 18.9869 26.5253 20.1213 27.243C21.2557 27.9606 22.571 28.3437 23.9149 28.3478C24.11 28.3435 24.3016 28.2954 24.4755 28.2073C24.6494 28.1191 24.8012 27.9932 24.9196 27.8387C25.038 27.6842 25.1199 27.5052 25.1594 27.3148C25.1989 27.1245 25.1949 26.9278 25.1476 26.7393C24.646 24.2926 20.897 23.2936 18.8652 22.5062C18.6776 22.4545 18.4806 22.4462 18.2893 22.482C18.098 22.5179 17.9175 22.5968 17.7616 22.7129C17.6056 22.8289 17.4785 22.979 17.3898 23.1515C17.3011 23.3241 17.2533 23.5146 17.2499 23.7084C17.1309 27.425 23.9659 30.1257 26.6013 27.5097C26.8266 27.269 26.9492 26.9505 26.9434 26.6215C26.9375 26.2926 26.8037 25.9787 26.5701 25.746C26.3364 25.5133 26.0212 25.38 25.6909 25.3742C25.3605 25.3684 25.0408 25.4905 24.7991 25.7149C23.7874 26.7308 19.7833 25.0884 19.8343 23.7084L18.2191 24.936C19.0692 25.2746 22.4697 26.3329 22.7163 27.3996L23.9489 25.7995C23.0504 25.7932 22.1732 25.5254 21.4256 25.029C20.6779 24.5326 20.0923 23.8293 19.7408 23.0057L18.6101 24.8936C19.4553 24.9394 20.2807 25.1657 21.0302 25.5572C21.7798 25.9487 22.436 26.4962 22.9543 27.1626L24.1955 25.0376C23.4114 24.9246 22.6852 24.5616 22.1258 24.0029C21.5664 23.4443 21.2038 22.7201 21.0925 21.939L19.5538 23.4967C21.4775 23.7152 23.3038 24.4562 24.8331 25.6387L26.0743 23.5137C25.4434 23.3841 24.8539 23.1026 24.3575 22.6938C23.861 22.285 23.4727 21.7613 23.2263 21.1685L21.7896 23.0396C23.5501 23.3218 25.1768 24.1481 26.4398 25.4016L27.681 23.2851C26.6644 23.0999 25.7099 22.6666 24.9028 22.0239C24.0957 21.3812 23.4612 20.5492 23.0563 19.6023L21.6196 21.4649C23.9299 22.0553 26.183 22.8486 28.3526 23.8354C29.8233 24.5042 31.1155 22.4131 29.6363 21.6427C27.0592 20.2946 24.5845 18.7609 22.2317 17.054C21.067 16.2074 19.5793 18.1207 20.6845 19.0435C22.9938 20.8966 25.4828 22.516 28.1146 23.8777L29.0922 21.558C25.0711 20.5844 21.4411 17.7821 17.964 15.6317C16.5358 14.7851 15.3627 16.8932 16.6719 17.8244L24.7481 23.556L25.7342 21.2363C23.193 20.4013 21.0326 18.6939 19.6388 16.419L17.6325 17.9599C20.1443 19.9267 22.4384 22.1546 24.476 24.6058L25.7172 22.4808C23.1923 21.8374 21.254 20.3219 19.2817 18.6287C18.0406 17.5704 16.2298 19.3653 17.4795 20.4235V20.4151Z" fill="black"/>
<path d="M17.2924 25.0629C18.7677 26.2502 20.4197 27.2013 22.1891 27.8821C23.5238 28.407 24.4674 26.1889 23.1667 25.5624L18.4656 23.285C18.2461 23.1672 17.9972 23.1151 17.7487 23.135C17.5002 23.1549 17.2628 23.246 17.0651 23.3972C16.8675 23.5484 16.7179 23.7534 16.6345 23.9873C16.5512 24.2213 16.5375 24.4743 16.5953 24.7158C17.3009 28.7287 24.1784 29.7023 27.3749 29.5499V27.0101C24.0679 27.2556 20.4974 25.2322 17.4539 24.1147C16.2467 23.7083 15.3031 25.4015 16.2127 26.2481C21.696 31.3278 29.7127 31.6495 36.2417 28.1022C37.6869 27.3149 36.4032 25.1221 34.958 25.9095C29.5002 28.8726 22.6142 28.7287 18.015 24.4533L16.7738 26.5783C20.0893 27.789 23.7703 29.8208 27.3749 29.5584C28.9901 29.4399 29.0241 26.9339 27.3749 27.0186C25.4451 27.1117 19.5282 26.7476 19.0521 24.0554L17.1819 25.4862L21.8831 27.7636L22.8607 25.4015C21.4794 24.9219 20.2016 24.1866 19.0946 23.2342C17.828 22.2183 16.0087 24.0046 17.2924 25.029V25.0629Z" fill="black"/>
<path d="M28.3772 25.0376C30.3345 26.5425 32.7929 27.2507 35.2547 27.0187C35.5413 26.9891 35.8097 26.8644 36.0165 26.6645C36.2233 26.4647 36.3565 26.2013 36.3948 25.9169C36.4331 25.6324 36.3742 25.3435 36.2275 25.0964C36.0808 24.8494 35.855 24.6587 35.5862 24.555C32.617 23.5566 29.5418 22.9032 26.4219 22.6078C25.5123 22.5147 25.0787 23.4544 25.1892 24.2164C25.6228 26.9509 30.477 27.1711 32.5428 27.1626C32.8483 27.1586 33.1423 27.0455 33.3711 26.8439C33.6 26.6423 33.7485 26.3655 33.7897 26.064C33.8309 25.7625 33.762 25.4562 33.5956 25.201C33.4291 24.9459 33.1762 24.7587 32.8828 24.6735C30.6815 24.1165 28.3778 24.0962 26.1669 24.6143C25.9546 24.6775 25.7622 24.794 25.6082 24.9526C25.4542 25.1112 25.3437 25.3066 25.2874 25.5199C25.231 25.7333 25.2307 25.9575 25.2865 26.1711C25.3422 26.3846 25.4522 26.5803 25.6058 26.7393C27.306 28.8643 31.3441 29.948 33.4354 27.6875C36.4534 24.4111 28.3347 23.8439 26.847 23.8269C26.6235 23.83 26.4047 23.891 26.2123 24.004C26.0198 24.1171 25.8603 24.2782 25.7495 24.4715C25.6387 24.6647 25.5805 24.8834 25.5807 25.106C25.5808 25.3285 25.6393 25.5472 25.7503 25.7403C27.8926 28.8135 31.3526 28.0769 34.3451 26.7308C35.3737 26.2736 35.0337 24.6735 34.039 24.4111C32.3235 23.9559 30.5256 23.9008 28.7852 24.2502L29.4653 26.697C31.7714 25.8303 33.9216 24.5981 35.8328 23.048C35.9887 22.8895 36.1004 22.6932 36.1571 22.4786C36.2137 22.264 36.2133 22.0384 36.1558 21.824C36.0984 21.6096 35.9858 21.4137 35.8293 21.2558C35.6728 21.0978 35.4777 20.9831 35.2632 20.923C33.0189 20.5421 29.2613 19.6447 28.3517 22.5316C28.3025 22.7198 28.2971 22.9167 28.3359 23.1073C28.3747 23.2979 28.4567 23.4772 28.5756 23.6315C28.6944 23.7858 28.8471 23.9111 29.0219 23.9977C29.1967 24.0844 29.3891 24.1302 29.5844 24.1317C30.6001 24.1859 31.6164 24.0379 32.574 23.6962C33.5315 23.3546 34.4111 22.8263 35.1612 22.1422C35.3353 21.9631 35.453 21.7372 35.4998 21.4923C35.5467 21.2475 35.5206 20.9943 35.4249 20.764C35.3291 20.5337 35.1678 20.3363 34.9609 20.1961C34.7539 20.0559 34.5103 19.979 34.26 19.9748C32.1513 20.1272 30.0682 20.5279 28.0541 21.1686C27.737 21.2702 27.4716 21.4898 27.3132 21.7816C27.1548 22.0735 27.1157 22.4149 27.204 22.7348C28.2157 25.6218 32.2538 23.3698 33.8265 22.193C34.6766 21.5919 34.6766 20.1357 33.5289 19.8732C32.5827 19.636 31.5986 19.5887 30.6338 19.7341C29.6691 19.8794 28.743 20.2145 27.9096 20.7199C26.5834 21.4903 27.5271 23.2597 28.8873 23.0396C30.7416 22.7527 32.5245 22.1177 34.141 21.1686L32.8573 18.9758C30.698 20.2458 28.6067 20.4997 26.2349 20.94C24.9682 21.177 23.0554 21.8797 22.9789 23.4375C22.9024 24.9953 24.6536 25.5202 25.7588 25.7741C27.6288 26.1701 29.5802 25.8174 31.1911 24.7921C31.425 24.6465 31.6056 24.4298 31.7062 24.174C31.8067 23.9182 31.8219 23.637 31.7494 23.372C31.6769 23.1069 31.5206 22.8722 31.3037 22.7026C31.0868 22.5329 30.8207 22.4373 30.545 22.43C28.3915 22.3707 26.2364 22.4471 24.0925 22.6586C23.787 22.6626 23.4931 22.7757 23.2642 22.9773C23.0354 23.1789 22.8868 23.4557 22.8456 23.7572C22.8044 24.0587 22.8733 24.365 23.0398 24.6202C23.2062 24.8753 23.4591 25.0625 23.7525 25.1477C26.2464 26.1682 29.0113 26.3291 31.6077 25.6048C31.8968 25.5146 32.1446 25.3253 32.3071 25.0707C32.4697 24.816 32.5365 24.5122 32.4958 24.2132C32.4551 23.9141 32.3094 23.6391 32.0847 23.4367C31.8599 23.2343 31.5705 23.1176 31.2676 23.1073H30.256C28.6152 23.1666 28.6152 25.7064 30.256 25.6472H31.2676L30.9276 23.1496C28.7745 23.7414 26.483 23.5831 24.4326 22.7009L24.0925 25.2408C26.2364 25.0292 28.3915 24.9529 30.545 25.0122L29.8989 22.6417C28.4707 23.4883 27.5781 23.1242 26.1158 23.2851C25.7503 23.065 25.6143 23.2174 25.7163 23.7338L26.5664 23.4629C27.136 23.3359 27.7396 23.319 28.3177 23.2343C30.3768 22.9357 32.3561 22.2336 34.141 21.1686C34.4201 20.9928 34.6198 20.716 34.6981 20.3966C34.7764 20.0771 34.7272 19.7398 34.5609 19.4557C34.3946 19.1717 34.1241 18.9629 33.8064 18.8734C33.4887 18.7839 33.1484 18.8206 32.8573 18.9758C31.4095 19.8179 29.8141 20.3781 28.1561 20.6267L29.1338 22.9465C29.6713 22.6068 30.2726 22.3799 30.9011 22.2794C31.5297 22.179 32.1721 22.2072 32.7893 22.3623L32.4833 20.0426C31.7012 20.6267 29.9329 21.9813 28.8192 21.5241L29.7544 22.3877L29.6439 22.0744L28.7937 23.6322C30.5917 23.0304 32.4553 22.6438 34.3451 22.4808L33.3589 20.322C32.8496 20.7768 32.2514 21.1221 31.602 21.3362C30.9525 21.5504 30.2656 21.6287 29.5844 21.5665L30.817 23.175C30.9956 22.5993 34.2685 23.2936 34.5916 23.3444L34.005 21.2194C32.429 22.4916 30.658 23.5034 28.7597 24.2164C28.4429 24.3139 28.1766 24.5305 28.0174 24.8203C27.8583 25.11 27.8187 25.4502 27.9072 25.7685C27.9957 26.0868 28.2052 26.3583 28.4914 26.5253C28.7775 26.6923 29.1177 26.7417 29.4398 26.6631C30.7327 26.4158 32.0656 26.4708 33.3334 26.8239L33.0274 24.5042C31.5311 25.1815 29.1593 26.1975 27.9266 24.428L26.8214 26.3329C27.238 26.3329 31.3696 26.4006 31.4376 26.9171L31.7692 25.681C30.477 27.0864 28.3687 26.1043 27.3825 24.9021L26.8214 27.0271C28.5881 26.615 30.4287 26.6354 32.1857 27.0864L32.5428 24.555C31.8032 24.555 27.8161 24.5127 27.6546 23.4714L26.4219 25.0799C29.3183 25.3721 32.171 25.9971 34.9231 26.9425L35.2632 24.445C33.2597 24.6668 31.2487 24.0985 29.6609 22.8618C28.3517 21.8713 27.1105 24.0809 28.3772 25.0545V25.0376Z" fill="black"/>
<path d="M20.7603 20.8721V20.7705C20.6633 20.4512 20.447 20.181 20.156 20.0156C19.8651 19.8503 19.5215 19.8023 19.196 19.8816H19.06C18.8737 19.9359 18.702 20.0313 18.5578 20.1608C18.4136 20.2902 18.3006 20.4504 18.2271 20.6294C18.1536 20.8083 18.1215 21.0015 18.1332 21.1944C18.145 21.3874 18.2002 21.5753 18.2949 21.7441C19.2726 23.7591 24.4923 26.3751 26.3031 24.3432C26.5378 24.103 26.6692 23.781 26.6692 23.4458C26.6692 23.1106 26.5378 22.7886 26.3031 22.5484C24.4363 20.995 22.3831 19.6784 20.1907 18.6286C18.975 18.0444 17.4533 19.6445 18.6435 20.6266C20.7574 22.4199 23.2036 23.7832 25.844 24.6395C27.9523 25.2999 31.1828 26.0111 33.3336 25.2152C34.8639 24.648 34.1838 22.1928 32.662 22.7601C28.794 24.1993 23.3107 21.1515 20.4457 18.8148L18.8985 20.8044C20.8956 21.7617 22.766 22.9618 24.4668 24.3771V22.5823C24.0928 22.9971 20.6753 20.9398 20.4627 20.4996L19.6976 22.3621H19.8421L18.2694 21.4732V21.5748C18.3816 21.8742 18.6024 22.121 18.8882 22.2663C19.174 22.4117 19.5041 22.4452 19.8135 22.3602C20.1228 22.2752 20.389 22.0779 20.5596 21.8072C20.7301 21.5364 20.7926 21.2119 20.7348 20.8975L20.7603 20.8721Z" fill="black"/>
<path d="M27.5102 26.1128C29.01 26.9862 30.7162 27.4465 32.4537 27.4465C34.1911 27.4465 35.8973 26.9862 37.3971 26.1128C38.7148 25.3932 37.7797 23.5137 36.411 23.7931C34.6597 24.1571 31.7098 24.2079 31.3782 26.4515C31.3327 26.6399 31.3298 26.8361 31.37 27.0257C31.4101 27.2154 31.4922 27.3937 31.6103 27.5478C31.7284 27.7019 31.8794 27.8278 32.0525 27.9164C32.2256 28.005 32.4164 28.0541 32.6109 28.06C35.9519 28.2293 39.2334 25.2239 37.9072 21.7104C37.7296 21.1307 37.3757 20.6201 36.8944 20.249C36.4132 19.8779 35.8281 19.6647 35.22 19.6387C34.6119 19.6127 34.0107 19.7752 33.4992 20.1038C32.9878 20.4324 32.5913 20.9109 32.3644 21.4734C31.4548 23.446 32.0583 28.0262 35.1953 26.7562C38.3323 25.4863 39.0889 20.9654 36.785 18.8235C36.6444 18.6913 36.4761 18.5919 36.2922 18.5322C36.1083 18.4726 35.9135 18.4543 35.7217 18.4785C35.5298 18.5028 35.3458 18.5691 35.1828 18.6727C35.0197 18.7762 34.8818 18.9145 34.7788 19.0774C33.5291 20.7029 32.9 23.6322 34.6087 25.2323C36.5385 27.0271 38.1878 24.7498 38.8594 23.0057C39.531 21.2617 39.803 18.9928 37.7457 18.2732C35.3398 17.4266 34.0221 19.7801 33.5886 21.7189C33.359 22.8618 34.8553 24.064 35.7054 22.9803C36.6264 21.8177 37.478 20.6021 38.2558 19.3399C38.3645 19.1458 38.4208 18.9269 38.4193 18.7046C38.4178 18.4823 38.3586 18.2642 38.2473 18.0715C38.136 17.8789 37.9765 17.7182 37.7843 17.6051C37.5921 17.4921 37.3738 17.4306 37.1506 17.4266C35.4276 17.4896 33.7804 18.1482 32.4919 19.2891L34.4897 20.8299C35.5864 19.3738 40.2536 16.2328 39.9135 19.941L42.4214 19.6108C42.0898 18.2244 42.0263 16.7878 42.2344 15.3777H39.684L40.075 19.2468C40.075 19.5836 40.2094 19.9066 40.4485 20.1447C40.6877 20.3829 41.012 20.5167 41.3502 20.5167C41.6884 20.5167 42.0128 20.3829 42.2519 20.1447C42.4911 19.9066 42.6254 19.5836 42.6254 19.2468C42.7097 18.0042 42.976 16.7806 43.416 15.6148H40.9507C41.3065 16.9015 41.3904 18.2478 41.1972 19.5685L43.6966 19.2298C43.5138 18.3103 43.5138 17.364 43.6966 16.4445H41.3077C41.8603 17.6763 42.0234 19.0464 41.7753 20.3728L44.3257 20.7114V17.071C44.3257 16.7342 44.1913 16.4112 43.9522 16.173C43.713 15.9348 43.3887 15.8011 43.0505 15.8011C42.7123 15.8011 42.3879 15.9348 42.1488 16.173C41.9096 16.4112 41.7753 16.7342 41.7753 17.071C41.754 18.6015 41.4664 20.1169 40.9252 21.5496H43.3565C43.1345 19.9384 42.2895 18.4773 41.0017 17.4773C40.8325 17.3814 40.6436 17.325 40.4494 17.3125C40.2551 17.2999 40.0605 17.3316 39.8803 17.405C39.7001 17.4784 39.5391 17.5917 39.4093 17.7362C39.2796 17.8807 39.1845 18.0528 39.1314 18.2393C38.5942 20.1414 38.3084 22.1052 38.2813 24.0809C38.2813 25.2831 40.109 25.8927 40.6616 24.7244C41.2705 23.5533 41.5493 22.2397 41.4685 20.9234C41.3877 19.6071 40.9502 18.3372 40.2026 17.2488C40.071 17.0401 39.8821 16.8733 39.6583 16.7684C39.4344 16.6635 39.185 16.6248 38.9397 16.6569C38.6944 16.689 38.4635 16.7905 38.2744 16.9495C38.0854 17.1084 37.9461 17.3181 37.8732 17.5535C37.255 20.2365 37.1569 23.0123 37.5842 25.7318C37.7542 26.8409 39.4289 26.934 39.9135 26.0366C40.5435 24.9921 40.8606 23.7901 40.8275 22.5722C40.7943 21.3542 40.4123 20.1711 39.7265 19.1621C39.5958 18.9508 39.4066 18.7817 39.1816 18.6751C38.9567 18.5684 38.7056 18.5288 38.4585 18.561C38.2115 18.5932 37.979 18.6959 37.7892 18.8566C37.5994 19.0173 37.4603 19.2292 37.3886 19.4669C36.8594 21.5028 36.5796 23.5951 36.5555 25.698L39.0549 25.3593L38.9189 24.7244C38.5703 23.1243 36.1134 23.8016 36.462 25.4017L36.598 26.0281C36.8871 27.4589 39.1059 27.0949 39.1059 25.698C39.1171 23.8303 39.3569 21.971 39.82 20.1611L37.4907 20.4659C37.9345 21.0903 38.1882 21.8288 38.2213 22.5931C38.2545 23.3574 38.0658 24.115 37.6777 24.7752L40.0155 25.0799C39.6744 22.8054 39.7696 20.487 40.2961 18.2478L37.9667 18.5525C38.4866 19.2494 38.8043 20.0751 38.8852 20.9395C38.9662 21.8039 38.8073 22.6738 38.4258 23.4544L40.7976 24.0979C40.8333 22.3478 41.0933 20.6095 41.5713 18.9251L39.701 19.687C40.3857 20.3667 40.8047 21.2672 40.8827 22.2268C41.1717 23.5476 42.9315 23.302 43.3395 22.2268C43.9617 20.5776 44.2897 18.8327 44.3087 17.071H41.7583V20.7114C41.7583 22.0999 44.0026 22.4978 44.2577 21.0501C44.6408 19.2825 44.4778 17.4408 43.7901 15.7672C43.382 14.7513 41.5713 14.3957 41.3332 15.7672C41.1037 17.1377 41.1037 18.5366 41.3332 19.9071C41.5628 21.4395 43.6881 20.8553 43.8836 19.5685C44.0677 18.0206 43.9552 16.452 43.552 14.946C43.2205 13.6422 41.5117 13.8454 41.0867 14.946C40.6087 16.3345 40.3227 17.7814 40.2366 19.2468H42.7869L42.3959 15.3777C42.3959 15.0409 42.2615 14.7179 42.0224 14.4798C41.7832 14.2416 41.4589 14.1078 41.1207 14.1078C40.7825 14.1078 40.4581 14.2416 40.219 14.4798C39.9799 14.7179 39.8455 15.0409 39.8455 15.3777C39.5688 17.018 39.6063 18.6956 39.956 20.322C40.3046 21.8035 42.3364 21.3379 42.5064 19.9833C43.1695 12.821 34.9998 16.0466 32.3049 19.5939C31.3867 20.8215 33.2825 21.9898 34.3112 21.1263C34.6885 20.7598 35.1355 20.4721 35.6261 20.2802C36.1166 20.0883 36.6407 19.996 37.1676 20.0087L36.0709 18.0954C35.4214 19.161 34.7089 20.1872 33.9371 21.1686L36.0624 22.4046C36.0757 22.0967 36.1528 21.7949 36.2889 21.518C36.425 21.2412 36.617 20.9954 36.8531 20.7961C36.8108 21.3611 36.6569 21.9122 36.4001 22.4179C36.1434 22.9235 35.7888 23.3736 35.3568 23.7423L36.598 23.4206C35.3823 23.0904 36.649 20.7961 36.9806 20.3728L34.9743 20.6267C35.9094 22.9634 35.7564 23.8919 34.5152 23.4121C35.0593 25.1561 34.4217 25.8673 32.6109 25.5286L33.8436 27.1372C33.9201 26.5869 36.632 26.3499 37.0911 26.2483L36.1049 23.9285C34.9967 24.5768 33.7347 24.9186 32.4494 24.9186C31.1641 24.9186 29.9021 24.5768 28.7939 23.9285C27.3572 23.1327 26.0735 25.3255 27.5102 26.1213V26.1128Z" fill="black"/>
<path d="M33.615 27.2132C34.2386 27.95 35.0764 28.476 36.0128 28.7186C36.9492 28.9612 37.9381 28.9085 38.8432 28.5678C40.2629 28.009 42.4308 26.028 40.926 24.5125C39.7784 23.3442 37.9761 25.139 39.1238 26.3158L39.2513 26.4428L38.8772 25.5454C38.8772 25.9772 37.5 26.3412 37.228 26.3497C36.873 26.3425 36.5245 26.2531 36.2102 26.0885C35.8959 25.9239 35.6244 25.6887 35.4172 25.4015C34.3546 24.157 32.5523 25.9602 33.615 27.1963V27.2132Z" fill="black"/>
<path d="M35.196 28.2293C39.8292 30.058 44.7599 23.0057 41.2234 19.3399C41.0646 19.1866 40.8688 19.0768 40.6548 19.0211C40.4409 18.9654 40.2162 18.9657 40.0024 19.0219C39.7886 19.0781 39.593 19.1883 39.4345 19.3419C39.2761 19.4956 39.1602 19.6873 39.0981 19.8987C38.6112 21.7654 38.7091 23.7358 39.3786 25.5456C39.4408 25.7569 39.5567 25.9487 39.7151 26.1023C39.8735 26.2559 40.0691 26.3661 40.2829 26.4223C40.4967 26.4785 40.7214 26.4788 40.9354 26.4231C41.1493 26.3674 41.3451 26.2576 41.5039 26.1043C42.1372 25.4679 42.5921 24.6773 42.8233 23.8113C43.0545 22.9454 43.0539 22.0342 42.8216 21.1686C42.7602 20.9556 42.6443 20.7622 42.4852 20.6073C42.3262 20.4524 42.1294 20.3414 41.9142 20.285C41.6991 20.2287 41.4729 20.229 41.2579 20.2859C41.0429 20.3429 40.8464 20.4545 40.6878 20.6098C39.4296 21.9221 36.4372 28.0854 40.0672 28.3987C43.9438 28.7288 44.3178 21.8035 43.8673 19.4245C43.5952 18.0615 41.827 18.3832 41.4104 19.4245C41.0491 20.2661 40.8628 21.1719 40.8628 22.0871C40.8628 23.0024 41.0491 23.9082 41.4104 24.7497C41.4929 25.011 41.6569 25.2392 41.8786 25.4012C42.1003 25.5632 42.3681 25.6506 42.6431 25.6506C42.9181 25.6506 43.1859 25.5632 43.4076 25.4012C43.6293 25.2392 43.7933 25.011 43.8758 24.7497C45.2574 21.3279 45.4871 17.5522 44.5304 13.9893C44.469 13.7763 44.3531 13.5829 44.194 13.428C44.0349 13.2732 43.8382 13.1621 43.623 13.1057C43.4078 13.0494 43.1817 13.0497 42.9667 13.1067C42.7517 13.1636 42.5552 13.2752 42.3966 13.4305C40.9019 15.1404 39.6831 17.0711 38.7835 19.1536C38.1374 20.6437 40.3393 21.939 40.9854 20.4405C41.7799 18.5507 42.8671 16.7967 44.2073 15.2423L42.0735 14.6835C42.8913 17.8067 42.6584 21.1107 41.4104 24.0894H43.8758C43.5903 23.4661 43.4425 22.7891 43.4425 22.1041C43.4425 21.419 43.5903 20.742 43.8758 20.1188H41.4104C41.5888 20.9797 41.6147 21.865 41.4869 22.7348C41.4104 23.2682 40.6368 24.936 40.6368 25.2154C40.7218 26.2398 41.0704 25.2662 41.1979 25.0122C41.6995 24.0047 41.657 23.319 42.5071 22.4216L40.3733 21.8628C40.5275 22.2925 40.5475 22.7586 40.4306 23.1999C40.3138 23.6411 40.0656 24.0368 39.7187 24.3349L41.8525 24.8937C41.3027 23.5291 41.2044 22.0254 41.5719 20.6013L39.4211 21.1686C41.2149 23.0227 38.0269 26.6631 35.8761 25.8165C34.3459 25.2069 33.6828 27.6621 35.196 28.2632V28.2293Z" fill="black"/>
<path d="M7.39621 7.42805L19.9016 12.0844C22.8855 13.1935 26.5155 15.327 29.729 15.4709C32.0839 15.5894 34.3112 13.9554 36.3515 13.0411C40.4565 11.2401 44.7271 9.83946 49.1034 8.85883C50.7016 8.49478 50.0215 6.04807 48.4233 6.41211C44.9499 7.19721 41.54 8.2386 38.2218 9.52765C35.3824 10.6452 31.8883 13.202 28.8704 12.6855C25.6569 12.1352 22.1119 10.1457 19.0429 9.03662L8.07631 4.98134C6.53758 4.40564 5.86598 6.86082 7.39621 7.42805Z" fill="black"/>
<path d="M8.50215 7.08924C12.0217 6.1241 15.5582 5.20976 19.1117 4.39701C23.2008 3.44881 27.3409 2.06036 31.4556 3.6012C37.2449 5.78546 42.2351 8.02052 48.5346 8.68088C50.1583 8.86713 50.1498 6.31883 48.5346 6.14104C43.9721 5.68934 39.5103 4.52064 35.3151 2.67839C33.3598 1.79791 31.4556 0.324802 29.2537 0.062352C26.2868 -0.293226 22.8013 0.959762 19.9023 1.60319C15.8557 2.54293 11.8091 3.53347 7.78805 4.63406C7.48736 4.7458 7.23962 4.96564 7.09363 5.25027C6.94764 5.53489 6.914 5.86365 6.99935 6.17175C7.08469 6.47984 7.28283 6.74493 7.5547 6.91476C7.82658 7.08459 8.15247 7.14684 8.46815 7.08924H8.50215Z" fill="black"/>
<path d="M25.5976 5.23524C24.2034 6.08185 23.6508 6.92847 23.8974 8.62169L26.2692 7.98673C25.7481 7.04085 25.0052 6.23435 24.1038 5.63589C23.2024 5.03742 22.1691 4.66471 21.092 4.54948C20.1398 4.42249 18.8986 5.39609 19.6467 6.41203C20.2356 7.22503 20.8655 8.00774 21.534 8.75715L23.0557 6.77607C21.194 5.37916 17.5214 2.86472 15.0901 4.18544C14.8998 4.29478 14.7411 4.45123 14.6294 4.6396C14.5177 4.82798 14.4567 5.0419 14.4525 5.26064C14.4525 7.52956 17.1389 8.37617 18.9921 8.71482C20.5904 9.00267 21.2875 6.58135 19.6722 6.25964C17.5554 5.85327 11.9021 3.38962 10.4824 5.92946C10.3877 6.0989 10.3325 6.28734 10.3207 6.48088C10.309 6.67441 10.341 6.86811 10.4144 7.04768C10.4879 7.22725 10.6008 7.38812 10.745 7.51841C10.8892 7.6487 11.0609 7.74509 11.2475 7.80048C12.5355 8.20562 13.8854 8.38047 15.2346 8.31691C15.5728 8.31691 15.8971 8.18312 16.1363 7.94496C16.3754 7.7068 16.5098 7.38379 16.5098 7.04699C16.5098 6.71019 16.3754 6.38718 16.1363 6.14902C15.8971 5.91087 15.5728 5.77707 15.2346 5.77707L13.8404 5.59928L13.5003 8.13912C18.278 8.4185 22.6817 10.3573 27.3319 11.3055C28.454 11.534 29.6612 10.044 28.5731 9.18046C26.4665 7.47624 24.0591 6.17846 21.4745 5.35376C21.2057 5.28827 20.9229 5.31102 20.6682 5.41861C20.4135 5.5262 20.2005 5.71288 20.0609 5.95083C19.9214 6.18878 19.8628 6.46525 19.8938 6.73907C19.9249 7.01288 20.044 7.26936 20.2333 7.4703C22.8265 9.66169 25.7536 11.4278 28.9046 12.7024C30.0948 13.1934 31.0554 11.3817 30.1458 10.5774C27.6586 8.33055 24.5042 6.95158 21.16 6.64908C20.9358 6.65064 20.716 6.71063 20.5223 6.82308C20.3287 6.93552 20.168 7.09651 20.0562 7.29001C19.9444 7.48352 19.8855 7.7028 19.8852 7.92604C19.885 8.14927 19.9435 8.36868 20.0548 8.56243C20.8848 9.88654 22.0401 10.978 23.4117 11.7335C24.7832 12.489 26.3256 12.8837 27.893 12.8802C29.2277 12.9479 29.5167 11.1869 28.5306 10.5181C25.7017 8.61827 22.5507 7.24434 19.2302 6.46283C18.9614 6.39734 18.6786 6.42008 18.4239 6.52767C18.1691 6.63526 17.9561 6.82194 17.8166 7.05989C17.677 7.29784 17.6184 7.57432 17.6495 7.84813C17.6806 8.12194 17.7997 8.37842 17.989 8.57936C19.4622 9.99215 21.206 11.0951 23.1164 11.8223C25.0269 12.5496 27.0648 12.8863 29.1086 12.8124C30.0948 12.8124 30.9364 11.3647 30.0098 10.6451C26.8898 8.25765 22.8517 7.62269 19.1197 6.65755L18.7796 9.14659C21.7153 9.40477 24.6682 9.40477 27.6039 9.14659C27.9068 9.13628 28.1962 9.0196 28.421 8.81721C28.6457 8.61482 28.7914 8.33976 28.8321 8.04072C28.8728 7.74168 28.806 7.43794 28.6434 7.18325C28.4809 6.92856 28.2331 6.73934 27.944 6.64908C25.6016 5.82093 23.2112 5.13393 20.7859 4.59181L21.551 6.46283C21.9761 5.61621 27.5019 6.31044 28.165 6.40356L28.5051 3.91452C25.7053 3.64369 22.889 3.58425 20.0803 3.73673C19.9128 3.7145 19.7426 3.72533 19.5794 3.7686C19.4161 3.81188 19.263 3.88675 19.1288 3.98895C18.8578 4.19536 18.6802 4.50053 18.6351 4.83733C18.59 5.17413 18.6811 5.51498 18.8884 5.78489C19.0956 6.0548 19.4021 6.23167 19.7403 6.27657C22.4437 7.12319 25.9207 6.46283 28.7346 6.3951V3.85526C25.7378 4.2052 22.7235 4.3861 19.7062 4.39709L20.3523 6.77607C23.5552 5.31119 27.1892 5.07897 30.5539 6.12418C30.876 6.20283 31.2162 6.1534 31.5023 5.98638C31.7885 5.81936 31.998 5.5479 32.0865 5.22958C32.1749 4.91126 32.1354 4.57114 31.9763 4.28137C31.8171 3.9916 31.5508 3.77498 31.234 3.67747C27.2101 2.45983 22.8759 2.77051 19.0687 4.54948C17.853 5.08285 18.5331 6.90307 19.7062 6.91153C22.7235 6.90029 25.7378 6.71939 28.7346 6.3697C30.3243 6.20884 30.4348 3.82986 28.7346 3.82986C26.2437 3.88912 22.7837 4.57488 20.4204 3.82986L20.0803 6.32737C22.889 6.17489 25.7053 6.23432 28.5051 6.50516C29.9163 6.64062 30.2648 4.21084 28.8451 4.00765C26.5243 3.63514 20.7009 2.54301 19.3492 5.19291C19.2527 5.36082 19.1958 5.54833 19.1827 5.74134C19.1696 5.93434 19.2006 6.12778 19.2734 6.30711C19.3463 6.48643 19.4591 6.64695 19.6032 6.77658C19.7474 6.90621 19.9193 7.00156 20.1058 7.05546C22.5304 7.60038 24.9206 8.28733 27.2639 9.11273L27.6039 6.62368C24.6682 6.88186 21.7153 6.88186 18.7796 6.62368C17.3259 6.52209 17.0794 8.74868 18.4396 9.16352C21.5425 10.0101 25.6061 10.5181 28.2075 12.55L29.1086 10.3826C27.3904 10.4484 25.677 10.1622 24.0743 9.54185C22.4716 8.92149 21.0139 7.98014 19.7913 6.77607L18.5501 8.90107C21.6562 9.63322 24.603 10.9212 27.2469 12.7024L27.893 10.3319C26.7675 10.3504 25.6564 10.0778 24.6685 9.54061C23.6805 9.00341 22.8495 8.22003 22.2566 7.26711L21.16 9.18046C23.8224 9.46347 26.3259 10.5811 28.3095 12.3722L29.5507 10.2472C26.8132 9.11716 24.2758 7.55643 22.0356 5.62468L20.7944 7.75815C22.9596 8.43741 24.9779 9.51421 26.7453 10.9329L28.0545 8.81641C23.1238 7.81741 18.5246 5.85327 13.5003 5.55695C12.0891 5.47229 11.7406 7.79201 13.1688 8.09679C13.8525 8.21861 14.542 8.3062 15.2346 8.35924V5.8194C14.1012 5.96237 12.95 5.79859 11.9021 5.3453L12.6672 7.21631C12.5652 7.40257 18.4566 8.61323 18.9751 8.71482L19.6552 6.25964L18.4906 6.04799C17.1049 6.47129 17.1134 6.80147 18.4906 7.05546C19.4002 7.76661 20.7519 8.22378 21.721 8.95187C22.9367 9.85775 24.1609 7.9698 23.2683 6.95386L21.8231 5.12518L20.4034 6.98773C21.1631 6.99549 21.906 7.21128 22.5508 7.61147C23.1955 8.01167 23.7173 8.58084 24.0589 9.25665C24.671 10.2303 26.6093 9.95088 26.4392 8.61323L26.9068 7.42797C28.301 6.58135 27.0173 4.37169 25.6146 5.23524H25.5976Z" fill="black"/>
<path d="M24.9432 5.81096C27.7447 5.63509 30.5551 5.962 33.2404 6.7761C34.8557 7.25867 35.3827 4.93894 33.9205 4.32938C32.2743 3.6408 30.7299 2.73222 29.3298 1.62869L27.7826 3.62669C29.6663 4.70438 31.6236 5.64926 33.64 6.45438L34.3116 4.00767C32.3563 3.32191 27.6551 1.30697 26.5074 4.21932C25.4108 6.98775 29.2023 9.07888 31.2341 9.80697C31.5609 9.89313 31.9086 9.84832 32.2027 9.68213C32.4967 9.51595 32.7136 9.24163 32.8069 8.91803C32.8978 8.4943 32.8783 8.05445 32.7504 7.64032C32.6224 7.22618 32.3902 6.85154 32.0758 6.55202C31.7614 6.25249 31.3753 6.03805 30.9541 5.92909C30.533 5.82012 30.0909 5.82026 29.6699 5.92948C28.7418 6.12942 27.9221 6.66741 27.3717 7.43798C26.8213 8.20855 26.5797 9.1561 26.6945 10.0948C26.7432 10.5417 26.9054 10.9688 27.1656 11.3361C27.4258 11.7034 27.7756 11.9987 28.182 12.1943C28.5883 12.3899 29.038 12.4793 29.4887 12.4541C29.9393 12.429 30.3762 12.2901 30.7581 12.0505C32.7133 10.8991 32.6708 8.31693 31.9312 6.44592C31.2851 4.79502 29.3808 4.08386 28.3267 5.84482C27.3661 7.46185 26.8985 10.5943 28.5732 11.915C28.9189 12.1643 29.3172 12.3316 29.7377 12.4045C30.1581 12.4773 30.5897 12.4536 30.9996 12.3352C31.4095 12.2168 31.7869 12.0069 32.103 11.7213C32.4191 11.4358 32.6657 11.0822 32.8239 10.6875C32.9727 10.2639 33.0296 9.81375 32.991 9.36668C32.9523 8.91961 32.819 8.48578 32.5997 8.09379C32.3804 7.7018 32.0801 7.36056 31.7187 7.09257C31.3573 6.82457 30.943 6.63592 30.503 6.53904C28.4372 6.25966 27.4596 9.26514 28.1227 10.8229C29.2278 13.4051 31.9227 11.8134 32.8324 10.0779C33.589 8.63018 31.3871 7.34333 30.6305 8.79104C30.5296 8.89058 30.4592 9.0167 30.4276 9.15463C30.396 9.29256 30.4044 9.43661 30.452 9.56992C30.5085 9.23773 30.6836 8.93706 30.9451 8.72331L30.0439 9.09582L30.112 9.79851C30.0451 9.43862 30.0596 9.06843 30.1545 8.71484C30.1926 8.09357 30.3982 7.49402 30.7496 6.97928L29.8484 7.35179C29.4489 7.23327 29.4149 7.42799 29.7549 7.92749C29.8613 8.1468 29.9094 8.38965 29.8945 8.63277C29.8796 8.87588 29.8023 9.11112 29.6699 9.31594C29.4772 10.1174 29.3667 10.0327 29.3383 9.06195C29.5765 8.69313 29.9331 8.41557 30.35 8.2746L31.9142 7.38566C31.2566 7.1612 30.633 6.84785 30.061 6.45438C29.4574 6.01414 28.4202 5.26066 29.7124 5.37918C31.0608 5.5897 32.3792 5.95916 33.64 6.47978C35.2127 7.03008 35.7993 4.63416 34.3116 4.03307C32.5057 3.30954 30.753 2.46085 29.0663 1.49323C27.8591 0.739741 26.3544 2.54303 27.5191 3.43197C29.2649 4.8001 31.1897 5.92514 33.2404 6.7761L33.9205 4.32938C31.0145 3.45062 27.9749 3.09231 24.9432 3.27112C23.3109 3.36424 23.3024 5.90408 24.9432 5.81096Z" fill="black"/>
<path d="M29.5852 12.313C30.4043 12.6356 31.2834 12.7799 32.1632 12.7361C33.043 12.6922 33.9032 12.4614 34.6859 12.059C35.8336 11.5426 35.2725 9.59536 34.0483 9.68848C32.2232 9.81426 30.4254 10.1991 28.7096 10.8314C27.8594 11.1616 27.2898 12.6855 28.412 13.1511C29.7233 13.7736 31.2146 13.9092 32.6174 13.5335C34.0202 13.1579 35.2421 12.2957 36.0631 11.1023C36.6922 10.2557 35.8251 9.24824 34.9665 9.18898C33.1412 9.02842 31.3216 9.55392 29.8657 10.6621C28.8116 11.441 29.3641 13.5236 30.8434 12.9818L37.2788 10.6452C37.5424 10.5656 37.7732 10.4036 37.9373 10.1834C38.1014 9.96307 38.1899 9.69607 38.1899 9.4218C38.1899 9.14753 38.1014 8.88053 37.9373 8.66024C37.7732 8.43995 37.5424 8.27805 37.2788 8.19844C35.3259 7.58498 33.3389 7.08464 31.3279 6.69994C30.1803 6.47982 29.0496 7.91906 30.0868 8.82494C31.1133 9.7914 32.4289 10.3972 33.8332 10.55C35.2375 10.7029 36.6535 10.3944 37.8654 9.67155C38.075 9.54058 38.2424 9.35245 38.3477 9.12951C38.4531 8.90657 38.492 8.6582 38.4597 8.4139C38.4275 8.16961 38.3255 7.93966 38.1659 7.75139C38.0063 7.56312 37.7958 7.42444 37.5594 7.35183C35.4057 6.69147 33.2379 6.08191 31.0559 5.52315C29.6957 5.1845 28.7436 7.17404 30.0698 7.85133C32.4756 9.06199 37.4318 11.314 39.7697 9.01119C39.9052 8.87331 40.0077 8.70666 40.0694 8.52374C40.1311 8.34081 40.1504 8.14635 40.1258 7.95494C40.1013 7.76352 40.0336 7.58013 39.9277 7.4185C39.8219 7.25686 39.6806 7.12119 39.5147 7.02165L32.9347 4.23629C32.6427 4.06565 32.2946 4.0175 31.967 4.10244C31.6393 4.18738 31.359 4.39846 31.1877 4.68923C31.0163 4.98 30.968 5.32666 31.0533 5.65293C31.1386 5.97921 31.3505 6.25837 31.6425 6.42902C34.2609 8.36777 37.3978 8.74028 40.5688 8.96886C42.065 9.09585 42.1925 6.92006 40.9089 6.47982C38.4605 5.63321 36.0631 4.7104 33.6998 3.64366C32.2376 2.99177 30.9284 5.08291 32.4161 5.84486C35.5482 7.45822 39.0531 8.21765 42.5751 8.04605C44.2158 7.96986 44.2243 5.43002 42.5751 5.50621C39.504 5.68142 36.4413 5.0416 33.6998 3.65213L32.4161 5.84486C34.9665 6.99625 37.5679 8.02912 40.2288 8.935L40.5688 6.39516C37.8229 6.2089 35.196 5.92952 32.9347 4.23629L31.6425 6.40362L38.2565 9.18898L38.0014 7.19097C36.9218 8.24924 32.3056 6.09884 31.3874 5.63321L30.4013 7.95293C32.5833 8.51734 34.7511 9.12407 36.9048 9.77314L36.5987 7.45342C35.8822 7.91422 35.031 8.12213 34.1817 8.04384C33.3323 7.96555 32.534 7.6056 31.9145 7.02165L30.6733 9.14665C32.6834 9.5354 34.6702 10.0357 36.6242 10.6452V8.19844L30.1973 10.5351L31.1749 12.8548C32.2571 11.9906 33.6377 11.586 35.0175 11.7288L33.9123 9.81548C33.4589 10.4553 32.7969 10.9188 32.039 11.1272C31.281 11.3356 30.474 11.2759 29.7552 10.9584L29.4492 13.2781C30.9441 12.7097 32.5128 12.3562 34.1078 12.2283L33.4618 9.86627C32.974 10.1214 32.4314 10.2547 31.8805 10.2547C31.3296 10.2547 30.787 10.1214 30.2993 9.86627C28.7606 9.28211 28.0975 11.7373 29.6192 12.313H29.5852Z" fill="black"/>
<path d="M39.8204 9.39213C41.2214 9.41708 42.6188 9.24028 43.969 8.86723C44.2697 8.75549 44.5175 8.53565 44.6634 8.25103C44.8094 7.9664 44.8431 7.63764 44.7577 7.32954C44.6724 7.02145 44.4742 6.75636 44.2024 6.58653C43.9305 6.4167 43.6046 6.35445 43.2889 6.41205C42.1615 6.7314 40.9922 6.87981 39.8204 6.85228C38.1797 6.85228 38.1797 9.39213 39.8204 9.39213Z" fill="black"/>
<path d="M45.2446 8.69787C54.409 6.97925 48.9682 19.0943 50.1584 23.539C50.2563 23.8546 50.4738 24.1197 50.7648 24.2782C51.0557 24.4367 51.3973 24.4761 51.7169 24.388C52.0365 24.2999 52.3091 24.0912 52.4768 23.8063C52.6446 23.5213 52.6942 23.1825 52.6152 22.8617C51.8926 20.1356 53.4143 16.9354 53.3973 14.1247C53.493 12.3356 53.1363 10.5512 52.3602 8.93492C50.7619 6.12417 47.506 5.70086 44.5815 6.25116C42.9748 6.54747 43.6549 9.00265 45.2616 8.69787H45.2446Z" fill="black"/>
<path d="M52.7082 22.955C52.2258 22.6462 51.653 22.5084 51.0823 22.5637C50.5116 22.619 49.9763 22.8642 49.5627 23.2598C49.1637 23.693 48.8637 24.2072 48.6831 24.7669C48.5026 25.3267 48.446 25.9187 48.517 26.5023C48.4894 27.0103 48.563 27.5188 48.7337 27.9983C48.9044 28.4778 49.1688 28.9189 49.5117 29.2961C49.9895 29.6803 50.5971 29.8673 51.2093 29.8185C51.8214 29.7696 52.3914 29.4887 52.8017 29.0337C54.4424 27.4674 54.4509 24.1318 52.1556 23.1074C51.6156 22.8933 51.0123 22.9015 50.4783 23.1301C49.9443 23.3586 49.5233 23.789 49.3077 24.3265C49.0729 24.9294 48.9799 25.5779 49.0359 26.2222C49.0919 26.8664 49.2954 27.4893 49.6307 28.0431C50.2853 29.186 51.756 30.1512 52.9207 29.0337C53.9493 28.0431 53.7028 26.0112 53.5328 24.7498C53.479 24.5628 53.3831 24.3905 53.2523 24.246C53.1216 24.1015 52.9594 23.9886 52.7782 23.9159C52.5971 23.8433 52.4016 23.8127 52.2068 23.8267C52.012 23.8406 51.8229 23.8986 51.654 23.9963C51.2285 24.2764 50.8707 24.6468 50.6062 25.0811C50.3416 25.5153 50.177 26.0025 50.1242 26.5077C50.0714 27.0129 50.1316 27.5234 50.3006 28.0026C50.4695 28.4818 50.743 28.9178 51.1014 29.2792C51.2621 29.4298 51.4586 29.5373 51.6724 29.5915C51.8863 29.6456 52.1105 29.6448 52.3239 29.5889C52.5373 29.533 52.7329 29.4239 52.8923 29.272C53.0518 29.1201 53.1698 28.9303 53.2352 28.7204C53.7207 27.5251 53.7954 26.2035 53.4478 24.9614C53.3864 24.7485 53.2705 24.5551 53.1114 24.4002C52.9523 24.2453 52.7555 24.1342 52.5404 24.0779C52.3252 24.0216 52.0991 24.0219 51.8841 24.0788C51.6691 24.1357 51.4726 24.2474 51.314 24.4027C50.8939 24.8281 50.588 25.352 50.4246 25.926C50.2612 26.5001 50.2454 27.1058 50.3788 27.6875C50.4843 27.9991 50.7041 28.2594 50.9942 28.4164C51.2843 28.5734 51.6232 28.6154 51.943 28.5342C52.2276 28.4928 52.4969 28.3802 52.7259 28.207C52.9548 28.0337 53.1359 27.8055 53.2522 27.5436C53.9578 26.079 51.756 24.7921 51.0504 26.2652L51.2629 26.079L52.8357 26.9256C52.806 26.7724 52.8162 26.6141 52.8653 26.4659C52.9144 26.3177 53.0008 26.1845 53.1162 26.079L50.9909 25.5117C51.198 26.3167 51.123 27.1679 50.7784 27.9246L52.9037 27.3658C52.8114 27.2833 52.7384 27.1817 52.6898 27.0681C52.6411 26.9545 52.618 26.8317 52.6221 26.7083C52.6261 26.5849 52.6572 26.4639 52.7132 26.3537C52.7692 26.2435 52.8487 26.1468 52.9462 26.0705L51.0079 25.4017C51.0844 25.9604 51.0079 26.5023 51.0079 27.0526C50.9984 27.1705 50.9756 27.2869 50.9399 27.3997L51.9345 26.9849C51.9345 26.9849 51.5945 26.2991 51.586 26.2398C51.5503 26.0355 51.5276 25.829 51.518 25.6218C51.5148 25.5296 51.5292 25.4377 51.5605 25.3509L51.1864 25.4525C51.3074 25.7713 51.3874 26.1042 51.4245 26.443C51.4245 26.6547 50.9824 27.1372 50.9824 27.2896C50.9824 27.442 51.1949 27.4759 51.2289 27.3997C51.1978 27.2194 51.1552 27.0412 51.1014 26.8663C51.0373 26.4454 51.0373 26.0173 51.1014 25.5964C51.1694 25.2832 51.2715 25.0376 51.433 25.1562C52.7592 26.1213 54.0344 23.9201 52.7167 22.9634L52.7082 22.955Z" fill="black"/>
<path d="M4.51463 23.5475C2.61885 25.0968 -1.16421 28.3478 0.349018 31.1162C1.19914 32.7078 3.74952 33.1819 5.33076 33.5968C8.73126 34.5027 11.2136 35.5525 13.6535 38.2278C18.6692 43.7223 27.043 56.5315 35.7568 48.3363C38.2561 46.0166 39.9564 42.1222 38.4177 38.8373C37.7522 37.4704 36.6026 36.3969 35.1901 35.8233C33.7776 35.2497 32.2021 35.2166 30.7665 35.7303C28.4117 36.67 25.9463 39.8363 27.128 42.5032C27.2845 42.9682 27.5898 43.3694 27.9971 43.6452C28.4044 43.921 28.8912 44.0563 29.3831 44.0304C29.8749 44.0045 30.3447 43.8187 30.7204 43.5016C31.0962 43.1845 31.3572 42.7535 31.4636 42.2746C31.5215 41.9602 31.4589 41.6357 31.2884 41.3649C31.1179 41.0942 30.8517 40.8968 30.5423 40.8118C30.2329 40.7269 29.9028 40.7604 29.617 40.9057C29.3312 41.0511 29.1105 41.2978 28.9983 41.5973C29.3193 40.4255 30.0906 39.4266 31.1453 38.8167C32.2001 38.2067 33.4535 38.0347 34.6346 38.3378C38.2731 39.1844 36.1138 43.8323 35.0172 45.3393C33.0279 48.0739 29.9164 48.6157 26.7709 47.5574C22.2058 45.9997 19.5534 41.4872 16.7394 37.9822C14.8352 35.6033 12.7013 33.3513 9.81092 32.1914C8.19568 31.5395 6.3254 31.5057 4.71016 30.8199C1.00361 29.2198 4.2936 26.9763 6.2914 25.3423C7.56659 24.3094 5.74732 22.5231 4.48913 23.5475H4.51463Z" fill="black"/>
<path d="M4.43785 26.2482C12.7316 33.0094 22.9504 37.0019 33.6482 37.6606C35.2889 37.7707 35.2804 35.2308 33.6482 35.1208C23.6145 34.4901 14.0306 30.7482 6.24012 24.4196C4.98194 23.3952 3.16267 25.1815 4.43785 26.2144V26.2482Z" fill="black"/>
<path d="M15.0393 35.6455C14.9745 35.1767 15.0373 34.6991 15.2213 34.2627C15.4052 33.8264 15.7035 33.4472 16.085 33.1649C16.3222 32.9243 16.4552 32.6006 16.4552 32.2633C16.4552 31.9261 16.3222 31.6023 16.085 31.3617C15.8417 31.1318 15.5192 31.0037 15.1838 31.0037C14.8485 31.0037 14.526 31.1318 14.2827 31.3617C13.6568 31.8769 13.1664 32.5363 12.8538 33.2827C12.5413 34.0291 12.416 34.8401 12.4889 35.6455C12.4975 35.9796 12.6347 36.2977 12.872 36.534C13.1093 36.7703 13.4286 36.9069 13.7641 36.9154C14.1023 36.9154 14.4267 36.7816 14.6658 36.5435C14.905 36.3053 15.0393 35.9823 15.0393 35.6455Z" fill="black"/>
<path d="M17.6998 38.1007C17.3257 37.3219 18.1163 35.9927 18.5499 35.4339C18.7011 35.2733 18.8087 35.0771 18.8625 34.8636C18.9164 34.6501 18.9147 34.4265 18.8577 34.2139C18.8007 34.0012 18.6903 33.8065 18.5367 33.6482C18.3832 33.4899 18.1917 33.3731 17.9803 33.3089C16.127 32.547 14.8859 34.2402 14.4778 35.8487L16.9347 36.526C17.2492 35.2477 17.5042 33.6899 16.5521 32.5978C16.3862 32.3991 16.1768 32.241 15.94 32.1354C15.7032 32.0298 15.4453 31.9796 15.186 31.9886C14.9267 31.9976 14.6729 32.0655 14.4441 32.1873C14.2152 32.309 14.0174 32.4813 13.8657 32.6909C13.1091 33.7238 13.4151 35.4 13.6277 36.5599C13.9281 38.1858 14.5777 39.728 15.5319 41.0808C16.2035 42.046 17.9633 41.7835 17.9038 40.4374C17.8443 39.0913 17.6403 36.78 19.2725 36.2043C20.9047 35.6286 20.1226 33.1735 18.5924 33.7491C15.7275 34.7651 15.3024 37.6266 15.3874 40.3951L17.7678 39.794C17.1212 38.896 16.6352 37.8935 16.3311 36.8308C16.1841 36.3193 16.0873 35.7947 16.042 35.2646C16.0293 35.0221 16.0293 34.779 16.042 34.5365C16.1525 33.9608 16.042 33.9269 15.7105 34.4518L14.7328 34.3164C14.9369 34.4264 14.5798 35.6964 14.5458 35.8487C14.1547 37.4319 16.5946 38.1092 17.0027 36.526C17.0452 36.3821 17.1302 35.6794 17.3767 35.7895L16.8071 33.6645C15.5149 35.2307 14.5883 37.4573 15.5319 39.4215C16.2461 40.8861 18.4479 39.5992 17.7338 38.1346L17.6998 38.1007Z" fill="black"/>
</svg>
