<svg width="57" height="57" viewBox="0 0 57 57" fill="none" xmlns="http://www.w3.org/2000/svg">
<g clip-path="url(#clip0)">
<path d="M16.9038 3.54148C16.7818 9.87967 16.0626 16.1907 14.7557 22.3917C14.5087 23.5481 16.2711 24.4369 16.852 23.2445L17.3027 22.2255C17.8862 20.9339 15.9481 19.7999 15.359 21.113L14.9029 22.1229L16.9631 22.9663C18.3019 16.5673 19.0294 10.0549 19.136 3.516C19.1767 2.08317 16.93 2.10488 16.9038 3.54148Z" fill="black"/>
<path d="M18.3198 4.42472C30.4845 6.17093 42.1392 10.8862 53.8806 14.2881C55.2681 14.6876 55.8296 12.5305 54.4422 12.1309C42.6862 8.72524 31.0533 4.01566 18.8813 2.26756C17.4651 2.06781 16.8891 4.2212 18.3198 4.42472Z" fill="black"/>
<path d="M53.3733 12.8814C50.1515 25.3969 47.139 37.9592 44.3358 50.5684L45.7022 49.7724C38.7689 47.9676 30.019 47.0258 24.0912 42.8723C22.9085 42.0424 21.8012 43.9807 22.9713 44.7997C29.1696 49.1311 38.0138 50.0667 45.1696 51.9371C45.4574 52.01 45.7622 51.9673 46.0179 51.8183C46.2736 51.6694 46.4598 51.426 46.536 51.1411C49.3041 38.5279 52.3166 25.9656 55.5734 13.4541C55.6479 13.1681 55.6049 12.864 55.454 12.6087C55.3031 12.3534 55.0565 12.1679 54.7686 12.093C54.4807 12.018 54.175 12.0598 53.9188 12.2091C53.6625 12.3583 53.4767 12.6029 53.4023 12.889L53.3733 12.8814Z" fill="black"/>
<path d="M27.5983 29.3126C25.4813 23.4332 17.3351 20.4988 11.6354 22.6237C4.37513 25.3404 1.99325 34.6093 4.65778 41.3837C7.18381 47.7996 16.1431 49.7479 21.6231 45.8844C26.8349 42.2198 28.8482 32.3482 25.0488 27.1134C24.206 25.9574 22.2623 27.0714 23.1177 28.2384C25.8791 32.0283 24.8224 39.3235 21.748 42.7921C17.7073 47.3604 9.03931 46.1635 6.77607 40.4303C4.75577 35.3668 6.03245 28.4437 10.8601 25.4239C15.347 22.6148 23.5663 24.5854 25.4581 29.8458C25.944 31.1853 28.1064 30.5966 27.617 29.2407L27.5983 29.3126Z" fill="black"/>
<path d="M23.576 27.3368C26.5563 30.7307 25.2995 34.5495 24.0427 38.3683C23.997 38.558 24.0015 38.7563 24.0559 38.9441C24.1102 39.1318 24.2124 39.3024 24.3526 39.4395C24.4928 39.5765 24.6662 39.6751 24.8559 39.7259C25.0456 39.7766 25.2451 39.7776 25.435 39.7289L25.6767 39.6613C25.865 39.6076 26.0359 39.506 26.1725 39.3666C26.3091 39.2271 26.4066 39.0546 26.4556 38.8659C26.7699 37.4506 26.2168 35.6866 25.9474 34.2575C25.6487 32.6442 25.4389 31.0157 24.5038 29.6206C24.372 29.4176 24.1785 29.2618 23.9516 29.1757C23.7247 29.0897 23.4762 29.0781 23.2427 29.1426C23.0091 29.2071 22.8027 29.3443 22.6535 29.5341C22.5044 29.7239 22.4205 29.9564 22.414 30.1975C22.1925 32.1068 22.1283 34.0313 22.222 35.9519C22.2289 36.1696 22.2993 36.3807 22.4246 36.5597C22.5499 36.7386 22.7247 36.8776 22.9277 36.9597C23.1307 37.0419 23.3532 37.0636 23.568 37.0223C23.7829 36.981 23.9808 36.8784 24.1377 36.727C25.5709 35.2881 25.1528 32.9758 24.8904 31.1339C24.6778 29.6351 24.4987 26.909 22.9623 26.1021C22.79 26.0057 22.5957 25.9548 22.3982 25.9545C22.2007 25.9542 22.0066 26.0044 21.8345 26.1003C20.3072 27.0694 20.3871 29.7313 20.3213 31.3496C20.2555 32.9678 20.0092 36.0516 21.3504 37.2222C21.4909 37.3643 21.6674 37.466 21.8612 37.5164C22.0549 37.5668 22.2586 37.5641 22.4505 37.5086C26.1138 36.0821 23.5897 24.7606 20.374 26.6645C17.4752 28.3898 17.4722 41.4335 22.0901 38.5664C23.3166 37.8031 22.1791 35.8793 20.9526 36.6426C20.8798 36.6851 20.7422 32.4342 20.7712 32.2037C20.884 31.2657 21.055 28.9762 21.8509 28.3234L20.7769 28.6197C21.3486 28.7685 21.7146 31.2516 21.7797 31.7138C21.8449 32.1761 22.0844 35.2635 21.8352 35.3599L22.9353 35.6462C22.2655 35.0726 22.1737 28.538 22.9774 28.0332L21.8496 28.0314C22.3515 28.3002 22.6158 31.0255 22.6758 31.448C22.8009 32.3329 23.268 34.4276 22.5459 35.1533L24.4615 35.9283C24.3685 34.0077 24.4327 32.0832 24.6534 30.1739L22.5708 30.7528C23.2038 31.8885 23.5855 33.1449 23.6903 34.4377C23.8882 35.5181 24.5051 37.2449 24.2788 38.3223L25.0558 37.5341L24.8141 37.6018L26.2139 38.9335C27.7682 34.2094 28.7213 29.8355 25.1536 25.7589C24.1996 24.6737 22.6274 26.2606 23.576 27.3368Z" fill="black"/>
<path d="M18.9307 29.0063C18.0102 31.3848 16.6063 35.887 20.0704 36.8886C20.2611 36.9376 20.4612 36.9362 20.6508 36.8845C20.8405 36.8329 21.0131 36.7328 21.1516 36.5942C23.413 34.3191 23.9425 29.6429 22.3462 26.8396C20.7499 24.0363 18.4636 26.0209 17.5969 28.2522C16.9263 29.997 16.5637 34.8932 19.9094 33.9445C22.6681 33.1731 23.179 27.8856 21.6499 25.952C17.3738 20.4703 12.3043 36.2643 18.7038 35.0434C21.6456 34.4886 21.8572 29.6683 21.1333 27.4913C20.268 24.8783 17.5035 23.4753 15.5975 25.9582C13.9865 28.0801 12.6196 32.9452 14.477 35.3097C16.3343 37.6742 18.1127 34.8204 18.787 33.0611C19.639 30.8567 19.7946 25.5689 16.2595 25.4932C13.0978 25.438 12.7145 30.2059 12.9403 32.3069C13.2455 34.9047 15.295 36.3826 17.4678 34.2993C19.4652 32.3854 20.057 27.856 18.0089 25.749C13.3213 20.9279 8.29731 35.8048 13.8126 34.5072C16.9589 33.7906 17.7201 28.0462 16.0849 25.7779C13.6285 22.3899 10.7657 27.2724 10.1211 29.5999C9.57646 31.6924 10.0356 38.0923 13.6338 35.3129C16.389 33.1893 15.6851 29.006 13.7241 26.6836C13.5144 26.4867 13.2368 26.3773 12.9489 26.3781C12.661 26.3789 12.3847 26.4898 12.1774 26.6879C10.162 28.8197 8.75092 31.5389 8.9639 34.5503C9.0566 36.3019 10.2721 38.6682 12.4899 37.9557C15.7314 36.9031 16.1308 28.1546 12.6799 27.1028C8.92128 25.9861 5.66931 35.0055 8.39288 36.9813C12.2466 39.7811 14.1785 29.2127 12.8012 26.904C12.6726 26.6141 12.4783 26.3577 12.2334 26.1549C11.9885 25.9521 11.6998 25.8084 11.39 25.7352C11.0802 25.662 10.7577 25.6613 10.448 25.733C10.1383 25.8048 9.84987 25.9472 9.60532 26.1489C7.3091 27.578 6.65946 32.0924 7.05725 34.4532C7.33425 36.0608 8.26323 37.9841 10.2312 37.9052C12.3242 37.8204 13.0038 35.4176 13.2333 33.7345C13.4435 32.1846 13.3913 28.5855 11.4289 27.9902C9.215 27.3218 8.30171 30.5927 7.91126 32.0036C7.33277 34.0182 6.50545 37.6417 8.02477 39.4345C9.37164 41.0289 11.5029 40.2631 12.4351 38.6708C13.463 36.9191 13.7748 32.6931 12.2323 31.0785C10.8029 29.5931 9.36584 30.839 8.56748 32.2435C7.16805 34.6509 6.5133 38.6802 8.4419 40.9788C9.96471 42.788 12.1846 42.7209 13.9271 41.3702C15.0621 40.4833 13.4537 38.9437 12.3372 39.7893L9.66664 38.6488L9.61449 36.1477C9.67027 35.7553 10.2359 33.3151 10.6431 33.4134C11.0502 33.5117 10.9813 35.7357 10.8275 36.1486C11.0008 36.9078 10.7681 37.2081 10.1221 37.0476C9.53288 37.2627 9.34409 37.0677 9.54661 36.4678C9.58068 36.5151 9.90714 30.7189 10.9091 31.0258C11.1986 31.1012 11.1145 34.3039 10.7906 34.4499L9.19138 33.1123C9.14179 32.086 9.33909 31.0634 9.76689 30.1296C9.8552 29.5732 10.1161 29.0587 10.5132 28.6578C10.9349 27.8693 11.1097 27.9992 11.0468 29.0424C11.4331 30.141 11.0662 31.5504 10.7096 32.5939C9.2978 36.7409 9.83876 31.1003 10.99 30.448C13.0867 29.2509 13.2668 33.843 12.3483 34.6404C10.6886 36.0587 11.3763 32.4373 11.4755 32.0562C11.8945 30.6278 12.6533 29.3217 13.6878 28.248L12.0958 28.2482C12.9884 29.3021 13.7137 31.2952 12.5193 31.9056C11.0554 32.6608 12.5443 28.841 12.9536 28.4562C14.9119 26.6626 14.7176 29.3683 14.2456 30.7657C13.6306 32.5941 13.9346 30.0014 14.3561 29.4508L14.8768 28.5192C16.6392 28.5173 17.294 29.1484 16.8675 30.3119C17.0084 31.0472 16.7007 31.4278 15.9318 31.4426C15.0444 32.0613 14.7746 31.7914 15.1225 30.6331C14.8623 28.9607 16.3994 27.6871 17.0089 29.65C17.1555 30.1258 16.7668 33.5487 16.0356 33.3891C15.3044 33.2295 16.4068 24.7791 19.0939 28.5574C19.4614 29.0753 19.1885 32.0831 18.6936 32.2921C18.498 32.1597 18.3324 31.9879 18.2078 31.7879C18.0832 31.588 18.0023 31.3642 17.9703 31.1314C17.9383 30.8985 17.956 30.6617 18.0223 30.4364C18.0885 30.2111 18.2018 30.0023 18.3547 29.8237C18.4357 28.1173 18.7741 27.9751 19.3589 29.4095C20.1923 30.6015 20.2168 30.7154 19.4486 29.7477L20.0649 28.2113C20.9359 28.1309 20.9013 30.3715 20.919 30.8675C20.9386 31.8016 20.0992 34.0169 20.1762 32.3555C20.3394 31.3861 20.6465 30.4466 21.0874 29.5677C21.6113 28.2376 19.4311 27.6778 18.9162 29.0025L18.9307 29.0063Z" fill="black"/>
<path d="M13.7218 34.2611C14.0779 34.7118 14.5394 35.0692 15.066 35.302C15.281 35.4199 15.5287 35.4651 15.7714 35.4307C16.0141 35.3963 16.2387 35.2842 16.4112 35.1113C16.5837 34.9385 16.6947 34.7143 16.7274 34.4726C16.7601 34.231 16.7127 33.9851 16.5924 33.7722C15.3682 31.5878 12.8026 28.0255 9.99652 30.1665C8.00052 31.6892 7.55041 35.5261 8.41924 37.7101C9.28808 39.8941 12.1297 41.6242 14.1997 39.6985C16.7063 37.372 14.5401 33.5221 12.9587 31.3445C11.6283 29.5087 9.60385 27.4001 7.55257 29.6992C5.50128 31.9984 5.53107 36.5744 7.12476 39.0315C7.37321 39.476 7.72949 39.8519 8.16106 40.1248C8.59264 40.3977 9.08575 40.559 9.59538 40.5939C10.105 40.6289 10.6149 40.5363 11.0785 40.3248C11.5422 40.1132 11.9447 39.7893 12.2495 39.3828C13.9916 37.2028 13.034 32.3315 11.6137 30.1882C9.63966 27.2328 6.53261 29.8176 5.59124 32.3059C4.19043 35.9951 6.32666 39.5147 9.02478 41.9446C9.9212 42.7461 11.56 41.6755 10.7837 40.5905C9.05571 38.3196 8.20641 35.5083 8.39136 32.6715C8.57631 29.8347 9.78314 27.1624 11.7908 25.144C11.9876 24.9323 12.0939 24.6527 12.0873 24.364C12.0807 24.0754 11.9618 23.8001 11.7556 23.5963C11.5494 23.3924 11.2719 23.2757 10.9816 23.2709C10.6912 23.266 10.4107 23.3734 10.199 23.5703L9.36541 24.3975C8.60687 25.1444 9.38337 26.644 10.4747 26.2218C11.6784 25.6675 13.0264 25.498 14.3334 25.7368L14.0454 23.6963C12.5778 24.3718 11.3623 25.4896 10.5708 26.8917C10.0139 27.814 11.1804 29.062 12.1141 28.4144C13.4052 27.4735 14.9435 26.9247 16.5438 26.8342L15.9187 24.7828C15.527 25.0109 19.6914 27.5077 19.963 27.7703C20.9039 28.7407 21.681 29.8557 22.2642 31.0719C22.9393 32.3379 24.8704 31.2129 24.1972 29.9397C22.4256 26.6225 17.6426 21.4848 13.3288 24.1931C12.4574 24.78 11.7497 25.9548 12.583 26.9395C13.6673 28.2659 15.9411 27.3683 17.0888 26.6997C17.2944 26.571 17.4525 26.3795 17.5395 26.1539C17.6265 25.9282 17.6377 25.6804 17.5715 25.4474C17.5054 25.2144 17.3653 25.0086 17.1722 24.8608C16.9792 24.7129 16.7434 24.6309 16.5001 24.627C14.5104 24.7166 12.5904 25.3735 10.9691 26.5194L12.5124 28.0421C13.0505 26.9327 14.0053 26.0786 15.1717 25.6632C15.9854 25.2685 15.8473 23.7507 14.8837 23.6227C13.1914 23.3512 11.4585 23.5219 9.85543 24.1181L10.9647 25.9424L11.7983 25.1152L10.199 23.5703C5.37415 28.6869 4.72375 35.965 8.85258 41.7155L10.6096 40.3686C8.90688 38.8351 6.48864 36.1019 7.6455 33.6468C7.61964 32.2222 8.4479 31.821 10.1303 32.4432L10.423 33.4561C10.5951 34.0799 10.7136 34.7169 10.7774 35.3603C11.2606 36.7299 10.4946 37.0603 8.47927 36.3514C7.59271 35.4526 8.43138 32.4386 9.35626 31.973C10.2014 30.9032 10.8703 31.2232 11.3629 32.933L11.9986 33.9046C12.9157 34.8344 12.7202 35.239 11.4121 35.1186C9.96716 35.7713 9.66906 35.1946 10.5792 33.42L12.8129 32.32C13.5754 33.0656 14.201 33.9378 14.6613 34.8972L16.1877 33.3674L15.3067 32.6851C14.3326 31.6177 12.7532 33.2028 13.7218 34.2611Z" fill="black"/>
<path d="M17.7884 26.5056C18.4979 26.5153 19.1953 26.6938 19.8222 27.0264C20.4491 27.3589 20.9871 27.8357 21.3913 28.4169C21.7955 28.998 22.0541 29.6666 22.1453 30.3666C22.2366 31.0666 22.1578 31.7776 21.9158 32.44L24.1238 32.7153C23.9289 30.822 23.4035 25.2109 20.3126 26.249C17.3563 27.2454 17.138 34.229 17.4933 36.6939C17.7809 38.5577 20.5254 42.8577 22.0626 39.1195C22.9431 36.9839 20.2484 32.7891 17.9376 32.6713C14.7389 32.4912 13.0397 38.3063 13.5203 40.7347C14.128 43.5955 17.3274 43.4763 18.2628 40.8329C18.9217 38.9545 17.5648 33.9255 14.8339 34.1744C11.2539 34.5093 11.6297 40.9029 12.4644 43.0396C12.5214 43.2243 12.6251 43.3916 12.7654 43.5255C12.9057 43.6594 13.0781 43.7553 13.2661 43.8043C13.4541 43.8532 13.6514 43.8535 13.8392 43.805C14.027 43.7566 14.199 43.661 14.3389 43.5275C16.4196 41.62 15.5882 37.0656 12.514 36.2884C9.8145 35.5857 8.85292 39.2203 9.02486 41.2613C9.17708 43.0515 11.2237 46.4403 13.3182 44.1832C15.5407 41.7904 10.9229 38.1852 9.31961 37.1306C9.16883 37.0487 9.00156 37.0015 8.83018 36.9926C8.6588 36.9836 8.4877 37.0131 8.32958 37.0788C8.17145 37.1446 8.03035 37.2449 7.91671 37.3724C7.80308 37.4999 7.71982 37.6513 7.67313 37.8153C7.04809 39.5337 6.91493 41.8561 8.48355 43.1627C9.33005 43.8591 10.4626 44.1692 11.2327 43.1105C12.6265 41.17 8.91833 35.6442 6.47736 37.0357C3.17128 38.9007 8.33867 43.8083 10.2547 44.76C14.6365 46.8373 19.629 42.5015 20.6919 38.4479C20.7663 38.1618 20.7234 37.8577 20.5724 37.6025C20.4215 37.3472 20.175 37.1617 19.8871 37.0867C19.5991 37.0118 19.2934 37.0535 19.0372 37.2028C18.7809 37.3521 18.5952 37.5967 18.5207 37.8827C17.8113 40.6079 14.1951 44.2579 10.8851 42.6055C9.80814 41.8127 8.88783 40.8286 8.17087 39.7031C8.60484 41.1827 9.17185 40.7263 9.87189 38.3339L8.2254 39.0186C8.05944 38.914 11.587 41.6902 11.3817 41.7366L11.4535 39.3829C13.3214 39.3317 13.7588 40.1749 12.7765 41.9001L14.651 42.388C14.1536 41.1222 13.6776 39.6854 14.3591 38.3734C14.3452 36.9724 14.6768 36.767 15.363 37.7824C16.0605 38.0715 16.2363 38.5242 15.8813 39.1458C15.5884 40.5283 15.6413 40.1173 16.0401 37.9126L16.84 36.0863C18.5686 34.6705 18.6621 36.7755 19.7107 37.1406C19.9423 37.2009 19.6203 35.1132 19.6403 34.4428C19.6585 33.0545 19.8992 31.6787 20.3534 30.3673C20.7379 29.2466 21.5301 28.8155 20.7349 28.2784C21.44 28.746 21.8284 32.0334 21.899 32.7121C21.9125 32.9767 22.0197 33.2284 22.2017 33.4226C22.3836 33.6167 22.6286 33.7408 22.8931 33.7729C23.1577 33.805 23.4249 33.7431 23.6474 33.598C23.8699 33.4529 24.0334 33.2341 24.1089 32.9802C25.7222 28.3559 22.5972 24.241 17.7305 24.264C17.4499 24.2923 17.1903 24.4241 17.0031 24.6335C16.8159 24.8429 16.7146 25.1146 16.7192 25.3952C16.7237 25.6758 16.8338 25.9449 17.0277 26.1493C17.2216 26.3538 17.4852 26.4789 17.7667 26.5L17.7884 26.5056Z" fill="black"/>
<path d="M17.0215 34.5594L17.2753 35.0094L17.2736 33.888C16.2579 35.2666 14.5194 38.1155 15.4767 39.9003C16.2821 41.4075 18.0774 40.7154 19.0352 39.767C20.1703 38.6421 20.8458 36.5223 19.8402 35.1012C19.654 34.8271 19.4065 34.5996 19.1172 34.4364C18.8278 34.2733 18.5046 34.1791 18.1728 34.1613C17.8411 34.1434 17.51 34.2023 17.2055 34.3335C16.9011 34.4646 16.6317 34.6643 16.4185 34.9169C14.6796 36.6985 11.8369 43.9971 16.7214 43.5794C20.8128 43.2395 25.1299 38.7969 22.8856 34.7423C22.7708 34.5552 22.6036 34.4054 22.4046 34.3113C22.2056 34.2172 21.9835 34.1829 21.7655 34.2126C21.5475 34.2423 21.3433 34.3348 21.1779 34.4787C21.0124 34.6225 20.8931 34.8114 20.8344 35.0222C20.397 36.8605 20.1664 38.742 20.1469 40.6323C20.1308 41.941 21.9667 42.0426 22.3495 40.8985L24.0071 35.9556L21.8384 35.9746C22.1836 37.3002 22.0588 38.7022 21.4851 39.9441L23.5767 40.4886C23.5956 38.8875 23.878 37.3011 24.4128 35.7925L22.2029 35.5243C22.2777 36.8423 22.1096 38.162 21.707 39.4184L23.9096 39.6846L24.0223 38.9846C24.3967 37.5465 22.3531 37.1143 21.8511 38.4194C21.188 40.0492 20.1409 41.4959 18.7978 42.6382C17.0377 44.1455 15.1297 43.549 13.1918 42.8296L12.9728 45.0068C14.7045 45.2119 16.1053 46.4211 17.8707 45.6061C19.1865 45.0043 19.849 43.5874 20.8433 42.6178C21.7296 41.766 20.5121 40.0901 19.4813 40.8736C17.6277 42.3117 15.2964 43.0036 12.949 42.8124C12.7047 42.8189 12.4693 42.9041 12.2783 43.0551C12.0873 43.2061 11.951 43.4149 11.8898 43.65C11.8286 43.8851 11.8458 44.1338 11.9389 44.3588C12.0321 44.5838 12.196 44.7729 12.4062 44.8977C14.1278 45.676 19.5854 47.0045 19.3973 43.3931C19.2664 40.5413 13.7016 41.9104 12.5682 43.2661C12.3794 43.479 12.2767 43.754 12.2797 44.0382C12.2827 44.3225 12.3913 44.5959 12.5846 44.8059C15.5835 48.6039 25.45 42.673 22.1804 38.7278C22.0209 38.5757 21.8202 38.4733 21.6031 38.4333C21.386 38.3933 21.1621 38.4173 20.9591 38.5025C20.756 38.5877 20.5827 38.7303 20.4606 38.9127C20.3384 39.095 20.2729 39.3091 20.2719 39.5285C20.567 41.8088 19.4297 44.3075 16.6992 44.0804C15.1862 43.9553 13.7098 42.6803 12.2472 42.1537L13.0835 43.216L13.0727 41.6546C13.1297 40.2183 10.8884 40.2491 10.8313 41.6854L10.7691 43.3199C10.7874 43.5614 10.8818 43.7912 11.0388 43.9768C11.1958 44.1624 11.4074 44.2943 11.6437 44.3537C14.4138 45.2898 16.2923 47.2759 19.3759 45.7906C20.4942 45.2075 21.3967 44.2864 21.9539 43.1595C22.511 42.0327 22.6941 40.7581 22.4768 39.5189L20.5683 40.3197C21.2919 41.1913 15.7267 45.263 14.1258 43.2493L14.1329 44.8251C14.5289 44.4828 15.0053 44.2452 15.5183 44.1339C16.562 44.2213 16.8257 44.1287 16.3131 43.8417C16.0237 43.5284 13.9542 43.1662 13.4556 42.9443L12.9128 45.0296C15.6538 45.2372 18.3729 44.4368 20.5536 42.7804L19.1863 41.0271C18.3163 41.8756 17.8156 43.0274 16.6108 43.351C15.4061 43.6747 14.1666 42.9144 12.8986 42.7686C11.6306 42.6228 11.5513 44.56 12.6378 44.958C15.0185 45.8464 17.3968 46.358 19.6286 44.8199C21.6391 43.3322 23.1725 41.2971 24.0443 38.9596L21.8731 38.3944C21.7605 38.8175 21.6991 39.2525 21.6903 39.6904C21.6361 40.9969 23.5299 41.1137 23.9002 39.9586C24.3532 38.5175 24.5424 37.0065 24.4587 35.4973C24.4505 35.2302 24.3462 34.9746 24.1647 34.7771C23.9832 34.5795 23.7366 34.4531 23.4698 34.4208C23.2029 34.3886 22.9336 34.4526 22.7109 34.6013C22.4881 34.75 22.3267 34.9735 22.2561 35.231C21.6678 36.9312 21.3624 38.7163 21.3518 40.5159C21.3341 41.5632 22.9816 42.0919 23.4433 41.0604C24.2864 39.2751 24.4797 37.2524 23.9904 35.337C23.7241 34.1928 22.1543 34.3753 21.8289 35.3579L20.1713 40.3008L22.3812 40.5689C22.4062 38.8801 22.6156 37.1995 23.0059 35.5567L20.9547 35.8367C21.7408 37.2697 21.0502 38.5871 19.9795 39.5829C19.563 39.9659 17.2008 41.708 16.6329 41.3068C15.7044 40.6582 16.7447 38.2648 17.2681 37.6794C18.653 36.1588 17.5304 38.4233 16.4737 38.5935L17.581 38.8818C16.9037 38.3369 18.8507 35.4886 19.2229 34.9789C19.3238 34.8087 19.3763 34.6144 19.3747 34.4165C19.3731 34.2187 19.3175 34.0248 19.2139 33.8556L18.9601 33.4057C18.2433 32.1519 16.3121 33.2769 17.029 34.5307L17.0215 34.5594Z" fill="black"/>
<path d="M22.9759 9.78251L24.1793 19.4089C24.1918 19.649 24.281 19.8792 24.4339 20.0659C24.5868 20.2527 24.7955 20.3862 25.0296 20.4472C25.2637 20.5081 25.511 20.4932 25.7355 20.4048C25.9601 20.3163 26.1502 20.1588 26.2782 19.9552C26.4508 19.6886 26.5679 19.3902 26.6226 19.0775C26.8951 17.6743 24.7258 17.1019 24.4514 18.5123L24.3347 18.8121L26.4335 19.3584L25.2389 9.75738C25.0582 8.3437 22.8134 8.35823 22.9904 9.78628L22.9759 9.78251Z" fill="black"/>
<path d="M26.4729 10.0635C26.9676 15.7738 27.8592 21.4446 29.1414 27.0349C29.4654 28.4322 31.6225 27.8343 31.2985 26.4371C30.0594 21.0333 29.1959 15.5522 28.7142 10.0327C28.5971 8.61251 26.3467 8.64861 26.4729 10.0635Z" fill="black"/>
<path d="M30.9441 13.0466C32.1274 20.9096 33.1245 28.7957 33.9352 36.7049L36.1334 36.3942L36.0304 35.6918C35.8189 34.2777 33.6653 34.8918 33.8714 36.2968L33.9763 36.9921C34.1566 38.229 36.304 37.9358 36.1746 36.6814C35.3461 28.5832 34.3216 20.5057 33.1012 12.4488C32.8897 11.0348 30.7288 11.647 30.9441 13.0466Z" fill="black"/>
<path d="M21.3371 32.2894C21.7255 33.4483 22.013 34.638 22.1966 35.8453C22.2843 36.4286 22.334 37.0096 22.3654 37.6013C22.3822 37.9128 22.3923 38.2302 22.3957 38.5536C22.3744 39.0906 22.3809 39.1844 22.4152 38.8351L23.3354 38.2684L23.1414 38.2717L24.1251 38.8272L24.0574 38.6714C23.4552 37.3629 21.5276 38.5042 22.1263 39.7964L22.1939 39.9522C22.2935 40.1234 22.4372 40.2652 22.6101 40.3629C22.7831 40.4605 22.979 40.5105 23.1776 40.5077C24.8877 40.4691 24.6424 38.5319 24.5634 37.3213C24.4399 35.3976 24.0728 33.4963 23.4709 31.6624C23.0504 30.3092 20.8662 30.8923 21.3119 32.2675L21.3371 32.2894Z" fill="black"/>
<path d="M20.5877 33.0617C22.5798 35.3538 22.0751 38.5392 19.9502 40.5274C18.6568 41.7263 13.9574 44.1346 12.5573 42.3881L11.4851 44.2511C12.6367 44.666 13.959 46.3845 15.2972 46.1417C16.3432 45.9533 16.1679 44.994 16.7638 44.3967C17.8039 43.3699 16.2655 41.9176 15.172 42.823C14.238 44.1155 13.4419 43.9082 12.7837 42.2013C13.4594 40.9415 11.5176 39.8218 10.8327 41.087C10.0042 42.6372 9.72605 44.5072 11.3814 45.6291C13.2785 46.8907 15.249 45.6147 16.7694 44.3752L15.1776 42.8015C14.9744 43.0136 14.7905 43.2432 14.6281 43.4876C14.5672 43.6133 14.5199 43.7451 14.4871 43.8809C14.3126 44.3729 14.3953 44.2332 14.7768 43.4803C13.9713 42.8357 13.045 42.3571 12.0522 42.0724C10.8862 41.6537 10.3752 43.1714 10.9781 43.9425C13.396 46.9443 19.699 43.9861 21.8147 41.7959C23.1892 40.4496 23.993 38.6306 24.0619 36.7106C24.1308 34.7906 23.4595 32.9146 22.1854 31.466C21.2314 30.3808 19.6592 31.9677 20.6005 33.042L20.5877 33.0617Z" fill="black"/>
<path d="M20.1633 34.0954C20.7159 33.6941 21.2955 35.3268 21.396 35.6831C21.628 36.5097 21.6253 37.3833 21.3881 38.207C21.3136 38.4931 21.3566 38.7972 21.5075 39.0525C21.6585 39.3077 21.905 39.4932 22.1929 39.5682C22.4808 39.6431 22.7866 39.6014 23.0428 39.4521C23.299 39.3028 23.4848 39.0583 23.5593 38.7722C24.0281 37.0769 23.8248 35.2654 22.9913 33.7106C22.2393 32.3248 20.5887 31.0659 19.0277 32.1644C17.8658 33.0059 19.0014 34.9369 20.1633 34.0954Z" fill="black"/>
<path d="M23.3923 28.548L23.3546 28.2771L22.8403 29.5406C25.737 27.8531 25.8175 33.9856 25.7586 34.9837C25.6627 36.8397 25.1366 38.6472 24.2215 40.2651C23.5033 41.5249 22.4588 42.5696 21.1962 43.2912C19.9336 44.0128 18.4989 44.385 17.0406 44.3692C15.8185 44.3735 15.4957 46.3855 16.7686 46.6017C21.3524 47.2498 23.8635 45.7076 25.3296 41.352C26.8682 36.7774 27.6606 31.6553 24.0142 27.8807C23.0073 26.8508 21.4315 28.4215 22.4366 29.4586C24.8153 31.9281 24.6151 35.1314 23.8878 38.2818C23.0399 41.9844 21.651 45.0933 17.3208 44.4805L17.0487 46.713C22.9813 46.7217 27.0157 42.029 27.8226 36.4653C28.1453 34.246 28.1937 31.4179 26.8025 29.4894C25.7231 27.9954 23.4344 26.724 21.6672 27.7534C21.459 27.8836 21.2977 28.0762 21.2066 28.3035C21.1155 28.5308 21.0992 28.7812 21.1601 29.0188L21.1997 29.2825C21.4256 30.7002 23.5792 30.0861 23.3568 28.6846L23.3923 28.548Z" fill="black"/>
</g>
<defs>
<clipPath id="clip0">
<rect width="46" height="46" fill="white" transform="translate(12.3242) rotate(14.5908)"/>
</clipPath>
</defs>
</svg>
