<svg id="maps-and-flags" xmlns="http://www.w3.org/2000/svg" width="11" height="15" viewBox="0 0 11 15">
  <path id="Shape" d="M5.5,15a.5.5,0,0,1-.368-.163C4.922,14.607,0,9.156,0,5.432a5.5,5.5,0,0,1,11,0c0,3.7-4.921,9.174-5.131,9.4A.5.5,0,0,1,5.5,15ZM5.5.978A4.487,4.487,0,0,0,.99,5.432c0,2.816,3.452,7.088,4.51,8.33,1.057-1.24,4.51-5.505,4.51-8.33A4.487,4.487,0,0,0,5.5.978Z" fill="#f95e00"/>
  <path id="Shape-2" data-name="Shape" d="M2.781,5.494A2.767,2.767,0,0,1,0,2.747,2.767,2.767,0,0,1,2.781,0,2.768,2.768,0,0,1,5.563,2.747,2.768,2.768,0,0,1,2.781,5.494Zm0-4.511A1.764,1.764,0,1,0,4.567,2.747,1.777,1.777,0,0,0,2.781.983Z" transform="translate(2.688 2.716)" fill="#f95e00"/>
</svg>
