<svg xmlns="http://www.w3.org/2000/svg" width="16" height="14.949" viewBox="0 0 16 14.949">
  <g id="message" transform="translate(0 -0.025)">
    <path id="Shape" d="M.422,14.949a.409.409,0,0,1-.409-.41L0,5.657V5.65a.408.408,0,0,1,.176-.331l2.3-1.59V2.042a.41.41,0,0,1,.41-.41H5.512L7.768.073a.408.408,0,0,1,.467,0l2.242,1.558h2.635a.41.41,0,0,1,.409.41V3.749l2.291,1.592a.415.415,0,0,1,.161.228.243.243,0,0,1,.014.081L16,14.518a.41.41,0,0,1-.41.41ZM8.006,9.175,1.621,14.128l12.748-.018L8.006,9.175ZM.821,6.44.831,13.7,5.779,9.866ZM15.17,6.42,10.223,9.858,15.179,13.7ZM3.3,2.452v4.7l3.16,2.184,1.3-1.006a.4.4,0,0,1,.25-.085.415.415,0,0,1,.247.082l.005,0,1.287,1,3.157-2.2V2.452Zm-.82,2.273L1.13,5.657l1.348.931Zm11.043.022V6.567l1.31-.911ZM8,.908l-1.047.724H9.041Z" transform="translate(0 0.025)" fill="#f95e00"/>
    <path id="Path" d="M5.958,0H.41a.41.41,0,0,0,0,.82H5.958a.41.41,0,0,0,0-.82Z" transform="translate(4.816 4.116)" fill="#f95e00"/>
    <path id="Path-2" data-name="Path" d="M5.958,0H.41a.41.41,0,0,0,0,.82H5.958a.41.41,0,0,0,0-.82Z" transform="translate(4.816 6.247)" fill="#f95e00"/>
  </g>
</svg>
