<?xml version="1.0" encoding="UTF-8"?> <svg xmlns="http://www.w3.org/2000/svg" width="187" height="187" viewBox="0 0 187 187" fill="none"><path d="M93.5 0C75.0075 0 56.9302 5.48368 41.5542 15.7576C26.1782 26.0315 14.1941 40.6342 7.1173 57.7191C0.0405122 74.804 -1.8111 93.6037 1.79662 111.741C5.40434 129.878 14.3093 146.538 27.3856 159.614C40.4618 172.691 57.1219 181.596 75.2591 185.203C93.3963 188.811 112.196 186.96 129.281 179.883C146.366 172.806 160.968 160.822 171.242 145.446C181.516 130.07 187 111.993 187 93.5C186.972 68.7108 177.112 44.9449 159.584 27.4163C142.055 9.88764 118.289 0.0278409 93.5 0V0ZM28.05 115.773C41.9234 112.71 56.0139 110.73 70.1942 109.851C70.1942 109.851 74.7231 127.726 76.8453 160.606C65.6191 157.793 55.2743 152.219 46.7521 144.389C38.2299 136.559 31.8009 126.722 28.05 115.773ZM93.5 109.083C91.959 109.083 90.4525 108.626 89.1712 107.77C87.8899 106.914 86.8912 105.697 86.3015 104.273C85.7117 102.85 85.5574 101.283 85.8581 99.7716C86.1587 98.2601 86.9008 96.8718 87.9905 95.7821C89.0802 94.6924 90.4685 93.9503 91.9799 93.6497C93.4914 93.3491 95.058 93.5034 96.4818 94.0931C97.9055 94.6828 99.1224 95.6815 99.9786 96.9628C100.835 98.2442 101.292 99.7506 101.292 101.292C101.292 103.358 100.471 105.34 99.0096 106.801C97.5483 108.262 95.5665 109.083 93.5 109.083ZM110.155 160.612C112.274 127.713 116.809 109.851 116.809 109.851C130.989 110.731 145.08 112.712 158.953 115.776C155.202 126.726 148.773 136.563 140.25 144.394C131.727 152.224 121.382 157.799 110.155 160.612ZM93.5 77.9167C69.9352 78.0085 46.5652 82.1905 24.4308 90.2762C25.2601 72.4707 32.934 55.6735 45.8509 43.3904C58.7678 31.1072 75.9295 24.2873 93.7541 24.354C111.579 24.4207 128.689 31.369 141.513 43.7485C154.338 56.128 161.886 72.9822 162.582 90.7934C140.516 82.384 117.114 78.0219 93.5 77.9167Z" fill="#FAFAFA"></path></svg> 