<?xml version="1.0" encoding="UTF-8"?> <svg xmlns="http://www.w3.org/2000/svg" width="164" height="187" viewBox="0 0 164 187" fill="none"><path d="M106.286 71.6331C74.4647 71.6331 48.5728 97.5114 48.5728 129.317C48.5728 161.122 74.4647 187 106.286 187C138.108 187 164 161.122 164 129.317C164 97.5114 138.108 71.6331 106.286 71.6331ZM93.8837 106.428C98.3046 106.428 101.903 110.021 101.903 114.439C101.903 118.862 98.3046 122.459 93.8837 122.459C89.4627 122.459 85.8641 118.862 85.8641 114.439C85.8641 110.021 89.4627 106.428 93.8837 106.428ZM118.689 152.205C114.268 152.205 110.67 148.612 110.67 144.194C110.67 139.772 114.268 136.174 118.689 136.174C123.11 136.174 126.709 139.771 126.709 144.194C126.709 148.612 123.11 152.205 118.689 152.205ZM125.438 118.707L95.6716 148.457C93.3001 150.82 89.4967 150.81 87.1353 148.457C84.7777 146.101 84.7777 142.282 87.1353 139.925L116.901 110.175C119.259 107.819 123.08 107.819 125.438 110.175C127.795 112.532 127.795 116.351 125.438 118.707ZM90.0663 0H50.8361C46.2515 0 43.342 4.91855 45.5438 8.93151L57.0714 29.9577C48.8625 34.8393 46.2266 45.2842 50.8135 53.3855C30.4742 60.3075 14.6538 77.6992 10.4253 99.7208L0.549849 151.153C-3.02085 169.766 11.2536 187 30.1875 187H55.3246C59.867 187 62.0899 181.481 58.8262 178.323C20.1438 140.894 38.1765 75.9386 89.7951 63.0948C94.5966 61.9 95.1134 55.0839 90.0889 53.3851C94.6754 45.2849 92.041 34.8393 83.8309 29.9573L95.3586 8.93113C97.5638 4.91252 94.6441 0 90.0663 0ZM74.9777 50.1431H65.9246C62.458 50.1431 59.761 46.7839 60.9152 43.1533C61.598 41.0005 63.6651 39.5867 65.9246 39.5867H74.9777C77.2373 39.5867 79.3044 41.0005 79.9871 43.1533C81.1414 46.7839 78.4443 50.1431 74.9777 50.1431Z" fill="#FAFAFA"></path></svg> 