<?xml version="1.0" encoding="UTF-8"?> <svg xmlns="http://www.w3.org/2000/svg" width="188" height="187" viewBox="0 0 188 187" fill="none"><path d="M170.282 17.6231C146.659 -5.87461 108.223 -5.87424 84.5994 17.6235C68.4633 33.6737 62.8586 57.3266 69.8454 78.7859L1.61379 146.655C0.580892 147.682 0 149.073 0 150.528V181.521C0 184.55 2.46347 187 5.50782 187H36.6667C38.1296 187 39.5282 186.422 40.5607 185.395L48.3491 177.642C49.5377 176.46 50.1186 174.802 49.9251 173.138L48.9568 164.813L60.5534 163.727C63.1891 163.48 65.2706 161.41 65.5181 158.788L66.6101 147.253L74.9795 148.222C76.5338 148.43 78.0991 147.911 79.277 146.874C80.4495 145.83 81.1218 144.343 81.1218 142.781V132.58H91.1908C92.6537 132.58 94.0523 132.002 95.0848 130.975L109.209 117.111C130.778 124.067 154.146 118.912 170.282 102.85C193.906 79.3531 193.906 41.1208 170.282 17.6231ZM154.701 56.3635C148.257 62.773 137.779 62.773 131.336 56.3635C124.892 49.954 124.892 39.532 131.336 33.1225C137.779 26.713 148.257 26.713 154.701 33.1225C161.145 39.532 161.144 49.954 154.701 56.3635Z" fill="#FAFAFA"></path></svg> 