<?xml version="1.0" encoding="UTF-8"?> <svg xmlns="http://www.w3.org/2000/svg" width="164" height="213" viewBox="0 0 164 213" fill="none"><path d="M5.03847 173.097C-0.714684 180.678 -1.60781 190.684 2.7039 199.222C6.99711 207.722 15.6327 213 25.2355 213H66.2316L82.0017 181.799L63.0796 169.318L88.3091 118.98V156.838L107.231 169.318L99.8722 213H138.768C148.364 213 157 207.722 161.293 199.222C165.605 190.696 164.718 180.69 158.971 173.109C154.081 166.649 151.383 158.654 151.383 150.598C151.383 121.651 137.554 92.4379 116.242 74.6124C128.873 73.2575 138.768 62.7726 138.768 49.9219H126.153C126.153 56.802 120.493 62.4024 113.539 62.4024C95.9721 62.4024 76.3709 62.4024 66.7938 62.4024C34.8996 76.6255 12.6208 113.705 12.6208 150.641C12.6271 158.788 10.0028 166.558 5.03847 173.097Z" fill="#FAFAFA"></path><path d="M108.979 49.9219L124.379 11.8406C123.111 11.9139 112.098 12.5537 113.366 12.4805C107.817 12.4376 105.377 10.5123 101.712 7.60518C97.4254 4.21715 92.0974 0 82.0018 0C71.9062 0 66.5782 4.21715 62.2909 7.60518C58.583 10.5427 56.1378 12.4805 50.7665 12.4988L39.6239 11.8406L55.0244 49.9219H108.979Z" fill="#FAFAFA"></path></svg> 