<?xml version="1.0" encoding="UTF-8"?> <svg xmlns="http://www.w3.org/2000/svg" width="142" height="186" viewBox="0 0 142 186" fill="none"><path d="M142 125.695C142 110.673 129.749 98.4492 114.692 98.4492C99.6356 98.4492 87.3846 110.673 87.3846 125.695C87.3846 140.718 99.6356 152.941 114.692 152.941C129.749 152.941 142 140.718 142 125.695ZM120.154 131.145H109.231V120.246H120.154V131.145Z" fill="#FAFAFA"></path><path d="M0 63.2262L10.9231 55.9569L27.3077 66.8554L43.6923 55.9569L60.0769 66.8554L76.4615 55.9569L92.8462 66.8554L109.231 55.9569L120.154 63.2262V0H0V63.2262ZM32.7692 22.1602H87.3846V33.0586H32.7692V22.1602Z" fill="#FAFAFA"></path><path d="M83.4024 103.898C90.3222 94.043 101.745 87.5508 114.692 87.5508C116.562 87.5508 118.354 87.8414 120.154 88.1015V77.3706L109.231 70.1013L92.8462 80.9997L76.4615 70.1013L60.0769 80.9997L43.6923 70.1013L27.3077 80.9997L10.9231 70.1013L0 77.3706V163.84H87.3846V152.306C80.6491 145.426 76.4615 136.048 76.4615 125.695C76.4615 121.883 77.1956 118.273 78.2442 114.797H21.8462V103.898H83.4024ZM54.6154 131.145V142.043H21.8462V131.145H54.6154Z" fill="#FAFAFA"></path><path d="M98.3077 160.014V186L131.077 169.652V160.014C126.091 162.395 120.578 163.84 114.692 163.84C108.807 163.84 103.293 162.395 98.3077 160.014Z" fill="#FAFAFA"></path></svg> 