<?xml version="1.0" encoding="UTF-8"?> <svg xmlns="http://www.w3.org/2000/svg" width="216" height="230" viewBox="0 0 216 230" fill="none"><path d="M199.664 159.926L181.273 149.351C185.307 140.85 187.892 131.541 188.71 121.739H200.04V129.132H213.572V100.868H200.04V108.262H188.71C187.892 98.4593 185.306 89.1501 181.273 80.6495L199.664 70.0748L204.281 78.0394L216 71.3008L200 43.7001L188.281 50.4388L192.898 58.4034L174.488 68.9894C168.98 61.1191 162.102 54.2695 154.199 48.7842L159.88 38.9858L166.309 42.6826L173.075 31.0113L148.498 16.8781L141.732 28.5494L148.16 32.2462L142.491 42.0258C133.956 38.0082 124.609 35.4336 114.766 34.6187V13.4773H124.001V0H91.9998V13.4773H101.234V34.6187C91.3917 35.4332 82.0445 38.0082 73.5092 42.0258L67.84 32.2462L74.2688 28.5494L67.5026 16.8781L42.9256 31.0104L49.6917 42.6817L56.1205 38.9849L61.801 48.7833C53.8985 54.2686 47.0209 61.1187 41.5128 68.9885L23.1025 58.4025L27.7197 50.4379L16.0007 43.6992L0 71.3003L11.719 78.039L16.3363 70.0743L34.7272 80.6491C30.6932 89.1496 28.1081 98.4589 27.2903 108.261H15.9601V100.868H2.42771V129.132H15.9601V121.738H27.2903C28.1081 131.541 30.6937 140.85 34.7272 149.351L16.3363 159.925L11.7195 151.961L0.000451691 158.7L16.0007 186.3L27.7197 179.562L23.1025 171.597L41.5128 161.012C47.0205 168.882 53.8985 175.731 61.8005 181.217L56.1201 191.015L49.6913 187.318L42.9251 198.99L67.5021 213.122L74.2683 201.451L67.8395 197.754L73.5087 187.974C82.044 191.992 91.3913 194.566 101.234 195.381V216.523H91.9993V230H124V216.523H114.766V195.381C124.608 194.567 133.956 191.992 142.491 187.974L148.16 197.754L141.731 201.451L148.497 213.122L173.074 198.99L166.308 187.318L159.879 191.015L154.199 181.217C162.101 175.731 168.979 168.881 174.487 161.012L192.897 171.597L188.28 179.562L199.999 186.301L215.999 158.7L204.28 151.961L199.664 159.926ZM75.3866 126.231C63.6756 126.231 54.1484 116.742 54.1484 105.079C54.1484 93.4161 63.6761 83.9272 75.3866 83.9272C87.097 83.9272 96.6247 93.4161 96.6247 105.079C96.6251 116.742 87.0975 126.231 75.3866 126.231ZM117.899 168.911C107.121 168.911 98.3528 160.179 98.3528 149.444C98.3528 138.71 107.121 129.977 117.899 129.977C128.677 129.977 137.446 138.71 137.446 149.444C137.446 160.179 128.677 168.911 117.899 168.911ZM135.53 110.731C124.897 110.731 116.247 102.115 116.247 91.5257C116.247 80.9361 124.897 72.3205 135.53 72.3205C146.163 72.3205 154.814 80.9361 154.814 91.5257C154.814 102.115 146.163 110.731 135.53 110.731Z" fill="#FAFAFA"></path></svg> 