<?xml version="1.0" encoding="UTF-8"?> <svg xmlns="http://www.w3.org/2000/svg" width="216" height="230" viewBox="0 0 216 230" fill="none"><path fill-rule="evenodd" clip-rule="evenodd" d="M131.87 35.9897C131.87 32.676 129.184 29.9897 125.87 29.9897H91.1299C87.8162 29.9897 85.1299 32.676 85.1299 35.9897V86.1197C85.1299 89.4334 82.4436 92.1197 79.1299 92.1197L29 92.1197C25.6863 92.1197 23 94.806 23 98.1197L23 132.29C23 135.603 25.6863 138.29 29 138.29H79.1299C82.4436 138.29 85.1299 140.976 85.1299 144.29V194.99C85.1299 198.303 87.8162 200.99 91.1299 200.99H125.87C129.184 200.99 131.87 198.303 131.87 194.99V144.29C131.87 140.976 134.556 138.29 137.87 138.29H188C191.314 138.29 194 135.603 194 132.29V98.1197C194 94.806 191.314 92.1197 188 92.1197L137.87 92.1197C134.556 92.1197 131.87 89.4334 131.87 86.1197V35.9897Z" fill="#FAFAFA"></path></svg> 