<?xml version="1.0" encoding="UTF-8"?> <svg xmlns="http://www.w3.org/2000/svg" width="187" height="163" viewBox="0 0 187 163" fill="none"><path d="M168.347 30.3122H128.072V14.0459C128.072 6.30076 121.786 0 114.058 0H72.9388C65.2114 0 58.9248 6.30076 58.9248 14.0459V30.3122H18.6501C8.39038 30.3122 0.0432101 38.6786 0.0432101 48.9621C0.0432101 58.303 -0.911207 66.6917 6.15104 76.1256C10.1468 81.463 15.6377 85.2705 22.0301 87.1358L84.1039 105.251C90.2492 107.044 96.7462 107.045 102.893 105.251L164.966 87.1358C171.359 85.2702 176.85 81.463 180.845 76.1256C187.94 66.6493 186.953 58.1743 186.953 48.9621C186.954 38.6786 178.607 30.3122 168.347 30.3122ZM70.7948 14.0459C70.7948 12.861 71.7566 11.8974 72.9388 11.8974H114.058C115.241 11.8974 116.203 12.8614 116.203 14.0459V30.3122H70.7948V14.0459Z" fill="#FAFAFA"></path><path d="M168.285 98.5588C101.331 118.098 102.198 118.493 93.4986 118.493C84.8618 118.493 86.9108 118.461 18.7124 98.5591C11.5218 96.4604 5.15361 92.5922 0.0436034 87.2596V144.351C0.0436034 154.634 8.3904 163 18.6505 163H168.347C178.607 163 186.954 154.634 186.954 144.351V87.2596C181.844 92.5919 175.475 96.4604 168.285 98.5588Z" fill="#FAFAFA"></path></svg> 