<?xml version="1.0" encoding="UTF-8"?> <svg xmlns="http://www.w3.org/2000/svg" width="199" height="145" viewBox="0 0 199 145" fill="none"><path d="M71.2565 76.8601C63.791 71.1671 54.4855 67.7495 44.3604 67.7495C19.8608 67.7495 0 87.5395 0 111.952V139.217C0 142.412 2.59765 145 5.80404 145H52.6164V117.119C52.6164 101.024 59.8686 86.6031 71.2565 76.8601Z" fill="#FAFAFA"></path><path d="M44.3604 60.3134C61.0763 60.3134 74.6248 46.8129 74.6248 30.1569C74.6248 13.5001 61.0763 0 44.3604 0C27.6444 0 14.096 13.5001 14.096 30.1569C14.096 46.8133 27.6444 60.3134 44.3604 60.3134Z" fill="#FAFAFA"></path><path d="M105.906 77.2376C83.8044 77.2376 65.8827 95.095 65.8827 117.119V139.217C65.8827 142.412 68.4803 145 71.6867 145H117.664V121.295C117.664 107.905 123.325 95.8274 132.352 87.2395C125.298 81.0335 116.057 77.2376 105.906 77.2376Z" fill="#FAFAFA"></path><path d="M91.1205 66.1419C95.3865 68.8921 100.446 70.5283 105.906 70.5283C111.367 70.5283 116.427 68.8925 120.695 66.1419C128.213 61.2947 133.214 52.9068 133.214 43.3215C133.214 28.2916 120.99 16.1115 105.906 16.1115C90.8259 16.1115 78.6022 28.2916 78.6022 43.3215C78.6022 52.9068 83.6032 61.2947 91.1205 66.1419Z" fill="#FAFAFA"></path><path d="M164.965 87.3814C146.167 87.3814 130.931 102.567 130.931 121.295V139.217C130.931 142.412 133.528 145 136.735 145H193.196C196.402 145 199 142.412 199 139.217V121.295C199 102.567 183.761 87.3814 164.965 87.3814Z" fill="#FAFAFA"></path><path d="M150.446 76.4572C154.433 79.6679 159.439 81.6719 164.965 81.6719C170.494 81.6719 175.501 79.6679 179.488 76.4572C184.752 72.2165 188.185 65.8096 188.185 58.5381C188.185 45.7582 177.791 35.3982 164.965 35.3982C152.142 35.3982 141.746 45.7582 141.746 58.5381C141.746 65.8096 145.178 72.2165 150.446 76.4572Z" fill="#FAFAFA"></path></svg> 