<?xml version="1.0" encoding="UTF-8"?> <svg xmlns="http://www.w3.org/2000/svg" width="188" height="186" viewBox="0 0 188 186" fill="none"><path d="M94.3798 39.3035L22.0942 110.143V180.551C22.0942 183.562 24.4846 186 27.5285 186H66.7673V125.172C66.7673 122.16 69.3046 119.796 72.3485 119.796H116.411C119.455 119.796 121.919 122.16 121.919 125.172V186H160.474C163.518 186 165.908 183.562 165.908 180.55V110.143L94.3798 39.3035Z" fill="#FAFAFA"></path><path d="M186.799 86.3441C186.795 86.3354 186.794 86.3263 186.791 86.3176C184.88 81.6545 136.604 34.8475 132.933 31.2161L106.061 4.62967C99.8215 -1.54322 88.9347 -1.54322 82.6955 4.62967C78.7313 8.55166 3.19391 81.4714 1.20816 86.3169C1.20485 86.3256 1.20412 86.3361 1.20412 86.3361C-1.20573 92.2442 0.00121107 99.2595 4.82862 104.036C6.21035 105.405 7.80761 106.372 9.48125 107.138L90.4843 27.7464C92.6356 25.6179 96.1213 25.6179 98.2727 27.7464L178.568 107.188C180.245 106.396 181.818 105.373 183.17 104.036C187.997 99.2595 189.204 92.2438 186.799 86.3441Z" fill="#FAFAFA"></path><path d="M160.472 10.957H138.441C135.511 10.957 133.174 13.0153 132.998 15.8696L165.906 48.5003V16.1882C165.906 13.1762 163.516 10.957 160.472 10.957Z" fill="#FAFAFA"></path></svg> 