<svg width="273" height="377" viewBox="0 0 273 377" fill="none" xmlns="http://www.w3.org/2000/svg">
<path d="M272.02 75.1745C271.644 70.0739 267.24 66.5035 263.176 64.0746C251.566 57.1402 238.245 51.8574 225.676 46.9511C215.071 42.6976 204.047 39.5794 192.786 37.6486C193.575 25.9172 184.937 17.7076 175.632 11.6719C170.548 8.3808 164.846 7.39711 159.071 5.98837C152.811 4.42175 147.279 0.75417 140.813 0.122666C135.669 -0.37092 130.497 0.704383 125.975 3.20732C122.409 5.16256 119.461 7.64 115.542 9.00016C112.375 10.1174 109.076 10.8218 105.836 11.8905C96.4826 15.0237 86.8012 21.606 87.6383 32.5966C81.1356 33.1188 74.5965 34.3939 68.6275 35.2562C53.0743 37.4907 36.3564 39.616 21.5554 45.1052C11.8498 48.7485 2.14423 56.0351 0.931029 67.0864C0.385089 73.2314 3.09052 78.5749 5.99007 83.797C10.4668 91.8608 15.174 99.8153 19.9055 107.733C28.9802 122.922 38.4027 137.9 48.173 152.667C48.356 152.941 48.6068 153.163 48.9009 153.311C47.8032 157.501 47.1525 161.796 46.9598 166.123C46.9296 166.292 46.9296 166.465 46.9598 166.633C46.9764 166.837 47.0332 167.035 47.1269 167.216C47.2206 167.398 47.3494 167.559 47.5057 167.69C49.7623 170.92 52.8438 172.973 55.6827 175.669C60.766 180.526 62.5494 187.084 62.8406 193.885C63.3986 206.576 61.3847 219.704 60.4142 232.358C58.6308 257.169 54.979 281.519 51.206 306.074C51.004 306.237 50.846 306.448 50.7464 306.688C50.6468 306.928 50.6088 307.188 50.6358 307.447C50.6358 308.017 50.7086 308.588 50.7328 309.159C49.6086 314.494 48.4763 319.818 47.3359 325.129C46.4139 329.452 45.0065 334.043 45.419 338.488C45.8073 342.617 48.1366 344.001 49.5682 347.486C51.3758 351.871 48.4278 356.522 47.348 360.979C47.1086 361.296 46.9845 361.686 46.9962 362.084V362.436C46.7574 362.643 46.5806 362.913 46.4855 363.214C46.3904 363.516 46.3806 363.838 46.4572 364.145C46.5339 364.452 46.694 364.732 46.9197 364.953C47.1455 365.175 47.4281 365.329 47.7362 365.399C63.0953 368.448 79.0004 369.626 94.5536 371.362C102.746 372.389 110.998 372.88 119.254 372.832C128.24 372.717 137.219 373.383 146.09 374.823C162.481 377.252 179.708 375.479 196.11 373.937C203.729 373.22 211.336 372.346 218.906 371.253C224.524 370.451 229.522 369.346 233.077 364.671C233.234 364.47 233.338 364.232 233.381 363.98C233.423 363.728 233.401 363.47 233.318 363.228C233.235 362.987 233.093 362.77 232.904 362.598C232.716 362.425 232.487 362.303 232.24 362.242C232.185 362.164 232.119 362.095 232.045 362.035C219.465 350.96 215.364 331.286 212.343 315.462C208.703 296.201 211.13 276.199 208.788 256.72C206.447 237.24 202.007 216.121 210.232 197.322C211.559 194.75 212.554 192.02 213.192 189.197C213.483 187.388 212.998 185.736 213.192 184C213.483 181.389 215.012 179.591 216.225 177.405C219.525 171.455 221.478 165.334 218.555 158.885C221.879 154.428 223.796 149.17 227.338 144.834C231.754 139.418 236.243 134.524 240.077 128.646C248.569 115.652 256.88 102.511 265.275 89.4441C267.859 85.3393 272.396 80.3359 272.02 75.1745ZM153.527 12.3641C164.24 11.2954 170.245 21.1566 175.547 28.6254C176.626 30.1434 174.127 31.5764 173.12 30.0827C168.389 23.4276 163.172 14.2951 153.588 15.2545C151.683 15.4366 151.695 12.5463 153.527 12.3641ZM164.737 32.1229C162.103 30.8262 159.909 28.7819 158.429 26.2451C157.446 24.6663 159.945 23.209 160.928 24.7878C162.158 26.9022 163.997 28.5954 166.205 29.6455C167.867 30.362 166.399 32.888 164.737 32.1229ZM141.686 41.5712C143.361 40.4661 144.926 38.9845 146.685 38.0372C149.317 36.6285 148.953 36.5435 151.732 38.2072C155.286 40.3568 158.61 44.1822 161.728 46.9511C160.515 49.0035 159.508 50.8495 158.392 52.5011C158.11 52.2997 157.779 52.178 157.434 52.1489C155.445 52.0172 153.448 52.0987 151.477 52.3918C151.243 52.4537 151.023 52.5615 150.831 52.7088C150.639 52.8562 150.478 53.0402 150.357 53.2502C150.237 53.4603 150.159 53.6922 150.128 53.9325C150.097 54.1729 150.115 54.417 150.179 54.6506C150.329 55.1109 150.653 55.4946 151.08 55.7211C151.508 55.9476 152.007 55.9992 152.472 55.8651C153.597 55.713 154.733 55.652 155.869 55.6829C153.582 58.0275 150.68 59.6777 147.498 60.4435C144.198 61.3543 140.34 62.1558 137.598 64.4147C135.414 61.2814 130.379 59.4112 127.819 57.6988C126.296 56.6517 124.946 55.3733 123.816 53.9098H125.308C125.791 53.9098 126.254 53.7179 126.595 53.3763C126.936 53.0347 127.128 52.5713 127.128 52.0882C127.128 51.605 126.936 51.1417 126.595 50.8001C126.254 50.4585 125.791 50.2665 125.308 50.2665H121.669H121.377C121.123 49.8536 120.892 49.4286 120.649 49.0521C124.423 47.6555 128.62 47.8377 132.442 46.4775C135.716 45.2352 138.822 43.587 141.686 41.5712ZM158.865 116.745C156.694 120.473 153.406 125.246 154.012 129.338C154.216 130.75 154.795 132.082 155.69 133.193C156.584 134.304 157.761 135.154 159.096 135.653C158.234 136.722 157.361 137.778 156.415 138.762C147.716 147.883 134.686 145.442 124.871 139.515C122.602 138.064 120.449 136.44 118.429 134.657C118.666 134.516 118.866 134.32 119.012 134.087C120.116 132.503 120.828 130.679 121.088 128.766C121.347 126.852 121.147 124.904 120.504 123.084C118.975 118.906 114.632 116.453 113.601 112.081C113.192 104.049 111.479 96.1362 108.53 88.6547C116.549 91.0836 125.175 87.6589 131.847 82.5826C134.504 80.5545 138.423 77.5669 138.047 73.7415C137.993 73.1616 137.854 72.5928 137.634 72.0534H137.804C137.974 72.0534 138.132 72.0534 138.302 72.0534C137.731 73.8994 138.896 76.1461 140.412 77.9434C144.61 82.874 148.905 85.9708 155.517 86.578C157.658 86.946 159.823 87.149 161.995 87.1852C160.891 95.1276 158.89 102.815 157.652 110.733C157.337 112.7 157.458 115.372 158.89 116.745H158.865ZM162.505 117.667C165.38 116.951 167.03 113.004 167.988 110.697C168.486 109.506 168.919 108.29 169.287 107.053C169.611 107.205 169.972 107.261 170.327 107.214C170.682 107.166 171.015 107.018 171.288 106.786C178.568 100.872 182.401 92.4923 184.634 83.5905C185.907 78.6114 186.66 73.535 187.63 68.4951C188.334 64.8519 187.849 60.6378 192.993 60.3949C195.419 60.2856 199.398 62.2894 201.485 63.2731C206.539 65.7455 211.183 68.9813 215.255 72.8671C218.021 75.4538 223.747 79.8015 224.803 83.3962C225.858 86.9909 215.607 95.4555 213.156 97.9694C208.922 102.196 204.506 106.203 199.944 110.114C199.696 110.312 199.51 110.577 199.41 110.879C196.45 112.955 193.09 113.065 189.862 114.522C187.764 115.482 186.223 118.032 184.112 118.663C182.353 119.21 180.606 118.481 178.665 119.453C176.437 120.665 174.637 122.535 173.509 124.808C173.264 124.759 173.013 124.759 172.769 124.808C167.661 125.671 164.47 129.01 161.498 132.702C153.746 131.658 160.333 121.663 162.553 117.667H162.505ZM95.9124 92.553C98.0112 102.013 102.124 114.692 110.641 114.656C113.164 120.837 120.892 124.711 115.918 132.277C115.885 132.335 115.856 132.396 115.833 132.459C111.441 128.719 106.952 125.173 101.529 123.958C98.0355 123.23 95.7546 123.023 93.0371 120.315C92.0089 119.075 90.9155 117.892 89.7614 116.769C86.4009 114 82.1911 113.951 78.3695 112.166C69.1613 107.879 62.0156 97.7629 55.3187 90.4885C53.1956 88.1932 50.9876 85.9587 48.9252 83.6027C44.6305 78.7207 46.4139 73.62 51.9096 71.2762C56.6411 69.2359 61.5424 67.4993 66.371 65.6777C69.1371 64.6333 71.9153 63.6131 74.6935 62.593C77.1199 61.7308 80.7595 59.7634 83.3072 59.9941C90.732 60.6499 87.3229 72.8671 87.3957 77.6034C87.4928 83.797 89.9313 90.3306 95.9124 92.553ZM128.754 24.7149C131.554 22.7824 134.102 20.5058 136.336 17.9384C137.549 16.5175 139.588 18.5699 138.374 19.9786C135.962 22.7164 133.22 25.1436 130.209 27.2045C127.638 29.0261 125.248 31.1878 122.105 31.9408C120.298 32.3901 119.533 29.5969 121.341 29.1597C124.192 28.4675 126.412 26.3665 128.754 24.7149V24.7149ZM109.549 26.5365C112.164 21.2212 116.617 17.0358 122.081 14.7566C123.767 13.9915 125.235 16.4811 123.549 17.1854C118.529 19.2409 114.434 23.0638 112.036 27.9331C111.247 29.6819 108.76 28.2125 109.549 26.5365V26.5365ZM50.102 148.988C36.5546 128.383 23.6583 107.373 11.4131 85.9587C8.01611 80.008 3.49088 73.535 4.8254 66.3456C6.0386 59.8727 10.9642 54.6749 16.46 51.4931C27.2453 45.2631 41.2578 43.6479 53.3291 41.4376C65.9949 39.1181 79.0004 36.8106 91.9452 36.3006C97.0285 36.0941 102.561 36.3006 107.171 38.7294C112.921 41.7169 115.299 47.4126 118.49 52.659C120.353 55.9517 122.937 58.7793 126.048 60.9292C127.565 61.9129 130.112 62.6052 131.289 63.9167C135.984 69.1631 127.65 66.8071 125.793 66.3456C120.298 64.9369 107.28 62.4837 106.212 71.4219C105.169 80.0808 118.975 77.4941 123.403 76.4011C124.338 76.1825 133.898 72.1506 134.007 75.6239C134.007 77.4334 127.819 81.1009 126.728 81.7689C120.395 85.6672 112.788 87.7317 106.03 83.6391C104.368 82.6311 102.815 84.5742 103.604 86.1408C107.286 93.9765 109.471 102.433 110.046 111.073C104.757 110.369 101.554 100.143 99.6733 92.2008V92.1158C99.495 91.6766 99.3451 91.2263 99.2244 90.7678C99.2059 90.6186 99.2059 90.4677 99.2244 90.3185C99.2244 90.1606 99.2244 89.9906 99.2244 89.8327L99.0909 89.7356C98.6178 87.501 98.2781 85.6065 98.0597 84.4163C97.623 82.1211 94.1168 83.0926 94.5536 85.3879C94.687 86.153 94.8569 87.0638 95.051 88.0718C87.6626 82.9712 93.5709 68.5437 90.7927 61.2207C88.2328 54.4685 81.1963 56.363 75.8461 58.3304C66.6743 61.5729 56.908 64.5118 48.27 68.9081C42.6408 71.7863 39.7777 76.8626 43.5022 82.7283C45.9286 86.5537 49.6652 89.7963 52.7346 93.0995C56.5562 97.2165 60.3292 101.37 64.1993 105.438C65.8943 107.221 67.7104 108.885 69.6345 110.417C69.6345 110.417 69.6345 110.417 69.6345 110.417C62.4887 121.967 54.4574 135.24 50.1262 148.988H50.102ZM124.107 70.1225C124.103 69.8045 124.05 69.4891 123.949 69.1874C125.369 69.6731 126.813 70.2318 128.22 70.6933C126.8 71.2883 125.393 71.9077 123.937 72.4178C124.152 72.0479 124.273 71.6309 124.289 71.2033C124.311 70.8339 124.249 70.4642 124.107 70.1225ZM119.109 73.1828L119.558 73.4014C118.478 73.5836 117.398 73.7293 116.33 73.8022L114.122 73.9237C109.892 74.288 110.459 72.434 115.821 68.3616C116.86 68.0186 117.96 67.8986 119.048 68.0094C118.361 68.4679 117.875 69.1716 117.689 69.9768C117.566 70.5925 117.636 71.2315 117.89 71.8057C118.144 72.3799 118.57 72.8611 119.109 73.1828V73.1828ZM210.996 178.972C209.698 181.486 209.783 182.615 209.783 185.372C209.783 190.412 207.357 194.42 205.513 198.961C204.032 202.621 203.037 206.459 202.553 210.377C199.968 229.674 204.979 249.057 206.374 268.233C207.757 286.546 205.937 304.605 210.232 322.663C213.69 337.14 217.511 353.498 228.903 363.954C223.517 368.982 212.04 368.533 205.561 369.273C198.112 370.083 190.651 370.755 183.178 371.289C175.717 371.799 168.207 372.249 160.721 372.212C152.811 372.212 145.229 370.767 137.428 369.674C130.246 368.678 123.137 369.188 115.918 369.176C108.812 369.081 101.717 368.603 94.6628 367.743C80.1044 366.116 65.2427 364.974 50.8542 362.29C51.4001 358.477 53.7052 355.198 54.0085 351.361C54.3118 347.523 52.674 345.908 50.8906 342.859C47.4451 337.006 50.1262 329.914 51.4365 323.756C52.5607 318.421 53.693 313.053 54.8335 307.653C54.9007 307.366 54.9007 307.066 54.8335 306.779C58.7521 281.191 62.4402 255.858 64.3085 229.99C65.2548 216.85 67.8753 202.629 66.1405 189.489C65.6576 184.975 64.1063 180.641 61.6152 176.847C58.5822 172.499 53.6809 170.082 50.6964 165.759C51.5214 146.996 63.0104 128.112 72.6796 112.543C76.1067 114.751 79.8218 116.475 83.7197 117.667C88.1964 119.101 89.628 122.975 93.2555 125.416C97.5138 128.282 102.779 127.383 107.134 130.48C114.414 135.665 120.48 141.993 128.814 145.624C136.47 148.951 145.884 149.947 153.467 145.794C161.377 141.47 164.482 129.8 173.812 128.233C174.068 128.195 174.313 128.099 174.528 127.954C174.892 128.078 175.29 128.06 175.643 127.905C175.995 127.75 176.277 127.468 176.432 127.116C177.174 125.404 178.451 123.981 180.072 123.06C181.831 122.064 182.717 122.586 184.67 122.355C185.795 122.35 186.875 121.916 187.691 121.141C188.601 120.388 189.207 119.1 190.202 118.433C191.688 117.624 193.294 117.058 194.958 116.757C196.551 116.359 198.099 115.802 199.58 115.093C198.913 128.452 198.488 142.308 202.383 155.291C203.353 158.545 204.712 162.917 208.279 164.217C211.191 165.285 213.86 163.864 216.007 161.861C218.045 168.212 213.811 173.507 210.996 178.972ZM259.524 91.5329L249.079 107.782C242.709 117.692 236.825 128.282 229.109 137.232C225.591 141.3 222.218 145.016 219.622 149.765C218.239 152.291 216.953 155.582 214.867 157.61C213.095 159.335 211.227 162.832 207.454 158.667C206.544 157.659 206.168 155.521 205.768 154.234C201.594 140.754 202.528 126.12 203.244 112.227C203.244 112.13 203.244 112.045 203.244 111.948C208.983 107.083 214.455 101.91 219.634 96.4514C222.461 93.4517 229.279 88.2297 228.636 83.4448C228.127 79.6072 223.116 75.5631 220.617 72.9885C216.299 68.4432 211.351 64.5415 205.925 61.4029C201.631 58.974 196.038 56.3751 191.015 56.3873C186.757 56.3873 185.895 59.5326 185.082 63.1759C181.989 76.984 181.261 92.3223 170.524 102.596C171.665 97.848 172.526 93.0267 174.467 88.5211C175.377 86.3837 172.235 84.5256 171.313 86.6752C169.753 90.4653 168.535 94.3873 167.673 98.3944C167.03 101.224 165.975 110.733 163.378 111.875C162.869 113.429 162.165 113.089 161.292 110.806C161.668 109.3 162.02 107.782 162.359 106.252C162.869 103.969 163.338 101.673 163.767 99.366C164.616 94.7269 165.271 90.0513 165.817 85.3636C165.817 85.0236 165.817 84.6835 165.817 84.3556C165.772 84.2209 165.706 84.0939 165.623 83.9792C165.623 83.9792 165.623 83.9791 165.623 83.9063C164.176 83.9143 162.738 83.6677 161.377 83.1776C161.13 83.1827 160.887 83.2364 160.661 83.3355C158.805 82.5947 155.711 82.9105 154.207 82.6797C151.125 82.2117 148.271 80.779 146.054 78.5871C145.702 78.2592 144.744 77.4576 144.088 76.729C143.822 76.5296 143.574 76.306 143.348 76.0611C142.951 75.6414 142.729 75.085 142.729 74.5066C142.729 73.9282 142.951 73.3718 143.348 72.9521C143.765 72.5449 144.325 72.3169 144.907 72.3169C145.49 72.3169 146.049 72.5449 146.466 72.9521L146.551 73.0371C146.818 73.2013 147.069 73.3882 147.303 73.5958C147.437 73.6686 147.437 73.6686 147.303 73.5958L147.376 73.6686C147.46 73.7127 147.541 73.7614 147.619 73.8144C149.475 74.6402 151.258 75.5996 153.139 76.2432C156.22 77.3119 160.163 78.3199 163.075 76.3404C164.003 75.7601 164.726 74.9031 165.141 73.89C165.557 72.877 165.645 71.7589 165.392 70.6933C165.543 70.4835 165.641 70.2401 165.677 69.9841C165.713 69.728 165.686 69.4671 165.599 69.2238C163.633 62.6416 153.187 63.8803 148.007 64.864C145.751 65.289 143.348 66.7221 141.128 66.9893C138.908 67.2564 144.574 64.9126 143.991 65.119C147.51 63.9046 151.271 63.4795 154.655 61.7065C161.935 57.8324 162.796 49.2464 168.292 43.8665C176.408 35.8998 193.332 40.9033 202.844 43.2714C214.355 46.3091 225.586 50.3273 236.413 55.2821C241.46 57.5167 246.446 59.8605 251.42 62.2165C255.885 64.3539 263.843 66.8435 266.44 71.3733C270.285 78.1499 263.115 85.983 259.524 91.5693V91.5329ZM152.872 72.357C151.186 71.6405 149.596 70.7054 147.898 70.0253C147.167 69.7247 146.412 69.4851 145.641 69.3088L146.005 69.1752C147.882 68.6459 149.79 68.2402 151.719 67.9608C151.665 68.1211 151.636 68.2893 151.635 68.4587C151.529 69.8694 151.972 71.2663 152.872 72.357V72.357ZM157.798 68.0094C157.72 67.9063 157.635 67.8089 157.543 67.7179C158.322 67.7043 159.096 67.8514 159.816 68.1502C160.536 68.449 161.187 68.893 161.728 69.4545C161.595 69.6627 161.518 69.9022 161.505 70.1492C161.492 70.3963 161.544 70.6425 161.656 70.8633C162.942 73.9965 159.605 73.9601 156.803 73.4136C157.404 73.2074 157.933 72.8297 158.323 72.327C158.713 71.8243 158.948 71.2185 158.999 70.584C159.026 70.089 158.93 69.5951 158.721 69.146C158.511 68.6969 158.194 68.3064 157.798 68.0094V68.0094Z" fill="black"/>
<path d="M133.194 86.4311C132.711 86.4311 132.248 86.623 131.907 86.9646C131.566 87.3062 131.374 87.7696 131.374 88.2527C131.374 88.7358 131.566 89.1992 131.907 89.5408C132.248 89.8824 132.711 90.0743 133.194 90.0743C133.676 90.0743 134.139 89.8824 134.481 89.5408C134.822 89.1992 135.014 88.7358 135.014 88.2527C135.014 87.7696 134.822 87.3062 134.481 86.9646C134.139 86.623 133.676 86.4311 133.194 86.4311V86.4311Z" fill="black"/>
<path d="M138.653 86.4311C138.17 86.4311 137.707 86.623 137.366 86.9646C137.025 87.3062 136.833 87.7696 136.833 88.2527C136.833 88.7358 137.025 89.1992 137.366 89.5408C137.707 89.8824 138.17 90.0743 138.653 90.0743C139.135 90.0743 139.598 89.8824 139.94 89.5408C140.281 89.1992 140.473 88.7358 140.473 88.2527C140.473 87.7696 140.281 87.3062 139.94 86.9646C139.598 86.623 139.135 86.4311 138.653 86.4311V86.4311Z" fill="black"/>
<path d="M150.555 101.308C142.256 96.9845 133.448 98.624 124.75 100.713C122.469 101.271 123.44 104.781 125.72 104.235C133.376 102.389 141.371 100.591 148.771 104.453C150.797 105.534 152.605 102.401 150.555 101.308Z" fill="black"/>
<path d="M66.8926 329.73L57.0535 338.426C55.2944 339.98 57.8785 342.542 59.6376 341L69.4767 332.305C71.2358 330.75 68.6517 328.188 66.8926 329.73Z" fill="black"/>
<path d="M96.7982 341.389C92.6127 338.96 86.5224 340.004 81.888 340.344C75.6643 340.781 69.9016 343.077 64.2845 345.651C62.1614 346.623 64.0054 349.768 66.1285 348.797C70.8314 346.418 75.8934 344.83 81.1115 344.097C84.6298 343.72 91.8362 342.676 94.9542 344.534C95.3708 344.779 95.8676 344.848 96.3351 344.726C96.8027 344.604 97.2027 344.301 97.4473 343.884C97.6918 343.467 97.7608 342.97 97.6391 342.502C97.5174 342.034 97.2149 341.633 96.7982 341.389V341.389Z" fill="black"/>
<path d="M80.2011 129.3C75.9428 134.778 70.168 140.473 69.1246 147.626C68.7849 149.909 72.3032 150.905 72.6308 148.586C73.5771 142.076 78.8909 136.879 82.7731 131.875C84.1926 130.053 81.6448 127.515 80.2011 129.3Z" fill="black"/>
<path d="M88.8635 133.345C83.4526 144.784 83.5376 160.633 87.2621 172.619C87.9536 174.854 91.4719 173.894 90.7682 171.648C87.3955 160.718 87.1286 145.586 91.9814 135.215C93.0005 133.077 89.8704 131.219 88.8635 133.345Z" fill="black"/>
<path d="M124.701 208.639C113.215 186.815 105.457 163.221 101.748 138.834C101.396 136.526 97.8897 137.51 98.2416 139.805C102.023 164.502 109.905 188.391 121.559 210.485C122.688 212.525 125.83 210.716 124.701 208.639Z" fill="black"/>
<path d="M165.95 138.178C165.501 147.177 160.078 155.52 155.516 163.037C150.901 170.627 145.748 177.876 140.096 184.727C138.628 186.524 141.188 189.111 142.68 187.302C148.99 179.654 154.704 171.534 159.774 163.013C164.3 155.326 169.14 147.225 169.589 138.166C169.65 135.834 166.01 135.846 165.95 138.178Z" fill="black"/>
<path d="M183.639 137.461C183.639 135.118 179.999 135.118 179.999 137.461C180.356 160.597 176.791 183.625 169.456 205.567C168.704 207.801 172.222 208.749 172.963 206.538C180.395 184.282 184.004 160.926 183.639 137.461V137.461Z" fill="black"/>
<path d="M197.02 161.349C194.805 151.983 193.532 142.418 193.223 132.798C193.138 130.466 189.499 130.454 189.583 132.798C189.903 142.745 191.216 152.635 193.502 162.321C194.048 164.592 197.554 163.632 197.02 161.349Z" fill="black"/>
</svg>
