<svg width="631" height="470" viewBox="0 0 631 470" fill="none" xmlns="http://www.w3.org/2000/svg">
<g opacity="0.25">
<path opacity="0.25" d="M215.337 138.217C215.404 138.149 215.55 137.992 215.517 138.014L215.258 138.273L215.337 138.217Z" fill="#202020"/>
<path opacity="0.25" d="M215.8 137.699C215.665 137.823 215.439 138.048 215.202 138.296C215.45 138.037 215.349 138.15 215.653 137.845C215.653 137.845 215.574 137.935 215.484 138.037C215.552 137.969 215.484 138.105 215.597 137.935C215.71 137.766 215.8 137.71 215.597 137.935C215.655 137.849 215.723 137.77 215.8 137.699Z" fill="#202020"/>
<path opacity="0.25" d="M215.901 136.964L215.978 136.887C215.901 136.964 215.901 136.942 215.901 136.964Z" fill="#202020"/>
<path opacity="0.25" d="M215.123 138.294L215.189 138.229L215.123 138.294Z" fill="#202020"/>
<path opacity="0.25" d="M216.183 136.841C216.21 136.802 216.244 136.768 216.283 136.74L216.183 136.841Z" fill="#202020"/>
<path opacity="0.25" d="M216.296 136.864L215.98 137.179L216.138 137.022C216.193 136.972 216.246 136.92 216.296 136.864Z" fill="#202020"/>
<path opacity="0.25" d="M216.183 136.739L216.259 136.662C216.24 136.693 216.214 136.719 216.183 136.739Z" fill="#202020"/>
<path opacity="0.25" d="M213.646 135.387L213.769 135.263L213.646 135.387Z" fill="#202020"/>
<path opacity="0.25" d="M216.308 135.952C216.308 135.952 216.333 135.939 216.308 135.952V135.952Z" fill="#202020"/>
<path opacity="0.25" d="M215.574 135.557C215.383 135.76 215.315 135.805 215.101 136.041C215.191 135.951 215.462 135.692 215.574 135.557Z" fill="#202020"/>
<path opacity="0.25" d="M216.036 135.951L215.936 136.04L216.036 135.951Z" fill="#202020"/>
<path opacity="0.25" d="M212.912 136.649L213.114 136.436C212.957 136.604 212.89 136.649 212.912 136.649Z" fill="#202020"/>
<path opacity="0.25" d="M215.246 138.172L215.146 138.261L215.246 138.172Z" fill="#202020"/>
<path opacity="0.25" d="M213.365 137.022C213.365 137.022 213.339 137.048 213.365 137.022V137.022Z" fill="#202020"/>
<path opacity="0.25" d="M213.871 137.946L214.017 137.789H213.961L213.871 137.946Z" fill="#202020"/>
<path opacity="0.25" d="M212.518 136.909C212.518 136.909 212.811 136.628 212.98 136.459C213.149 136.289 212.766 136.684 212.619 136.842L212.969 136.515C212.93 136.559 212.889 136.6 212.845 136.639C213.082 136.413 212.845 136.639 213.183 136.368L213.104 136.436L213.51 136.03C213.51 136.03 213.702 135.85 213.51 136.03L213.375 136.165L213.465 136.086C213.194 136.368 213.363 136.177 213.16 136.38C213.251 136.301 213.488 136.075 213.42 136.165C213.149 136.436 213.318 136.244 213.082 136.492L213.183 136.38C212.754 136.808 213.183 136.38 212.754 136.808C212.687 136.898 212.901 136.684 212.833 136.808L213.217 136.436C213.499 136.177 212.551 137.135 212.924 136.785C213.104 136.605 213.442 136.256 213.273 136.447L212.969 136.752C212.969 136.752 213.409 136.323 213.217 136.537C213.025 136.752 213.104 136.628 213.07 136.673C212.845 136.921 213.251 136.504 213.262 136.504L212.991 136.785C212.991 136.785 213.251 136.571 213.318 136.537C213.386 136.504 213.149 136.695 213.07 136.785C213.228 136.661 213.07 136.853 212.935 137.033L213.172 136.808L213.025 136.955C212.946 137.056 213.172 136.808 213.262 136.718C213.204 136.794 213.14 136.866 213.07 136.932C213.273 136.74 213.521 136.537 213.285 136.797L213.217 136.864C213.127 136.966 213.702 136.391 213.499 136.616C213.42 136.74 213.657 136.549 213.318 136.921C213.657 136.583 213.194 137.09 213.657 136.616C213.442 136.864 213.352 136.943 213.217 137.124L213.567 136.785L213.318 137.033L213.589 136.785L213.296 137.079H213.363L213.544 136.898C213.657 136.785 213.397 137.09 213.262 137.214L213.499 137.022L213.296 137.214C213.555 136.977 213.036 137.473 213.296 137.214C213.296 137.146 213.442 137.067 213.499 137.011C213.352 137.169 213.363 137.18 213.431 137.124L213.262 137.293C213.262 137.293 213.375 137.236 213.386 137.293L213.781 136.887L213.533 137.158C213.691 137 213.623 137.056 213.826 136.864C213.826 136.864 213.533 137.158 213.442 137.248L213.544 137.158L213.318 137.372C213.488 137.214 213.082 137.654 213.318 137.372L213.228 137.417C213.228 137.417 213.341 137.349 213.363 137.349L213.724 137C213.668 137.09 213.499 137.27 213.533 137.27L213.86 136.943C213.657 137.158 213.691 137.146 213.533 137.293L213.781 137.112L213.961 136.921L213.781 137.112C214.108 136.819 213.239 137.755 213.679 137.338L213.916 137.135C213.916 137.135 213.758 137.282 213.634 137.417C213.995 137.09 213.634 137.496 213.86 137.282C213.273 137.89 213.939 137.282 213.578 137.676L213.713 137.53C213.86 137.394 213.634 137.62 213.612 137.654C213.589 137.687 213.736 137.53 213.815 137.451C213.894 137.372 213.668 137.721 213.578 137.89C213.488 138.059 214.322 137.158 213.995 137.518L213.724 137.778C214.074 137.484 213.724 137.778 214.063 137.586C214.019 137.636 213.97 137.681 213.916 137.721C213.736 137.924 213.916 137.721 214.085 137.597L213.871 137.823C213.758 137.947 214.13 137.586 213.939 137.823L213.86 137.89C213.95 137.8 213.86 137.89 214.074 137.71C213.973 137.823 214.187 137.631 214.074 137.71C214.322 137.462 213.973 137.845 214.322 137.496C213.961 137.856 214.052 137.8 214.221 137.642C214.108 137.744 214.108 137.755 213.961 137.902C213.815 138.048 214.04 137.902 214.232 137.665C213.815 138.105 214.604 137.338 214.052 137.902C214.199 137.773 214.354 137.653 214.514 137.541C214.164 137.902 214.514 137.541 214.085 137.935C214.255 137.811 214.57 137.507 214.503 137.608C214.433 137.685 214.358 137.757 214.277 137.823C214.446 137.687 214.277 137.89 214.491 137.71L214.39 137.8C214.39 137.8 214.39 137.868 214.503 137.699C214.74 137.451 215.01 137.203 215.134 137.079C214.661 137.552 215.033 137.214 214.435 137.8L214.661 137.586L214.435 137.811C214.536 137.732 214.706 137.552 214.717 137.563L214.503 137.766C214.672 137.62 214.83 137.462 214.762 137.541L214.661 137.654C214.661 137.654 215.089 137.259 214.954 137.428C214.604 137.766 214.852 137.541 214.559 137.845L214.649 137.766L214.796 137.608C214.796 137.608 215.01 137.417 214.92 137.518L214.796 137.631H214.864L214.976 137.507C215.134 137.36 215.349 137.124 215.27 137.225C215.191 137.327 215.27 137.225 215.1 137.406C215.202 137.304 215.303 137.214 215.236 137.293L214.841 137.687C215.1 137.439 214.931 137.687 215.202 137.372C215.114 137.449 215.031 137.531 214.954 137.62L215.157 137.417L214.943 137.642C214.943 137.642 215.315 137.259 215.157 137.439L215.078 137.518C215.01 137.608 215.236 137.406 215.146 137.518C214.852 137.823 215.067 137.586 214.818 137.845C214.886 137.845 215.202 137.518 215.146 137.597C215.563 137.169 214.954 137.823 215.146 137.597L214.954 137.778C214.954 137.856 215.078 137.699 215.225 137.575L215.123 137.687C215.033 137.789 215.123 137.755 215.033 137.811C215.125 137.735 215.212 137.653 215.292 137.563C214.694 138.206 215.653 137.27 215.168 137.811L215.067 137.902L215.179 137.811L215.428 137.552L215.631 137.372C215.506 137.484 215.337 137.665 215.236 137.778L215.416 137.597C215.1 137.935 215.788 137.225 215.574 137.462L215.473 137.552C215.529 137.552 215.664 137.383 215.642 137.417L215.36 137.687C215.36 137.687 215.777 137.293 215.574 137.518L215.439 137.62C215.202 137.879 215.258 137.823 215.225 137.868L215.123 137.992V137.924C215.687 137.372 215.247 137.834 215.619 137.484C215.27 137.823 215.416 137.676 215.179 137.924L214.976 138.138C215.168 137.947 214.83 138.296 215.123 138.026L214.92 138.229C214.988 138.229 215.055 138.093 215.157 137.992C215.258 137.89 214.852 138.341 215.236 137.992C215.394 137.857 215.664 137.586 215.8 137.473L215.518 137.755C215.405 137.879 215.439 137.857 215.518 137.755L215.303 137.969C215.303 137.969 215.597 137.687 215.484 137.811L215.168 138.116L215.473 137.845L215.168 138.138C215.295 138.037 215.416 137.928 215.529 137.811L215.597 137.732L215.382 137.958C215.202 138.116 215.382 137.879 215.518 137.8C215.969 137.338 215.428 137.8 215.45 137.8L215.777 137.462L215.495 137.732L215.822 137.417C215.98 137.236 215.698 137.53 215.822 137.338V137.282L215.901 137.417C215.98 137.349 216.138 137.18 216.093 137.236C216.273 137.033 215.822 137.462 216.093 137.236C215.969 137.338 215.856 137.473 215.552 137.755L216.149 137.146L215.901 137.417C215.939 137.372 215.98 137.33 216.025 137.293L215.755 137.552C215.969 137.327 215.631 137.642 216.014 137.248C215.834 137.428 215.879 137.394 215.743 137.518C216.161 137.101 215.664 137.586 215.856 137.383C216.048 137.18 215.958 137.293 216.149 137.09C215.777 137.451 216.217 137 216.149 137.09C215.856 137.383 216.014 137.203 215.913 137.293C216.003 137.191 216.048 137.112 216.149 137C216.058 137.108 215.952 137.203 215.834 137.282L216.161 136.955C216.102 137.016 216.037 137.073 215.969 137.124L216.194 136.909C216.194 136.909 215.924 137.146 216.048 136.988C215.845 137.203 215.495 137.575 215.349 137.699C215.461 137.586 215.642 137.394 215.698 137.349H215.642L215.834 137.169C215.913 137.079 215.676 137.315 215.687 137.304L215.924 137.056C215.924 137.056 215.924 137.124 215.924 137.056L216.149 136.797L215.924 137.033C216.005 136.935 216.091 136.841 216.183 136.752C216.099 136.822 216.02 136.897 215.946 136.977L216.116 136.797C216.006 136.873 215.907 136.964 215.822 137.067C215.585 137.293 215.935 136.909 215.822 137L215.901 136.921C215.818 136.98 215.739 137.044 215.664 137.112C215.735 137.029 215.81 136.95 215.89 136.876C215.822 136.876 215.743 137.011 215.89 136.876C216.037 136.74 216.014 136.752 216.003 136.774C215.991 136.797 216.183 136.571 216.003 136.774C216.206 136.571 216.251 136.515 216.183 136.571L216.048 136.718L216.307 136.459C216.612 136.12 215.732 136.977 216.307 136.459C216.116 136.639 216.183 136.594 215.958 136.808L216.364 136.38C216.499 136.222 215.958 136.752 216.048 136.639C215.958 136.74 215.709 136.988 215.608 137.079L215.901 136.515L216.082 136.346L215.991 136.436C216.061 136.345 216.136 136.258 216.217 136.177C216.143 136.242 216.075 136.313 216.014 136.391C216.138 136.244 216.014 136.391 216.082 136.267L215.924 136.436C216.025 136.301 215.743 136.605 215.687 136.639C215.822 136.481 216.037 136.289 215.901 136.402C215.991 136.301 216.149 136.154 216.228 136.075C216.037 136.244 216.33 135.94 216.364 135.895L216.443 135.827H216.386L216.206 136.019L216.307 135.906L215.822 136.391C215.913 136.289 215.709 136.481 215.958 136.222C215.89 136.323 216.206 135.974 216.262 135.94C216.319 135.906 216.262 135.94 216.262 135.94L216.33 135.872C216.544 135.635 216.048 136.154 216.037 136.132C216.12 136.057 216.199 135.978 216.273 135.895L215.901 136.289C216.003 136.177 215.811 136.368 215.822 136.289V136.346C215.676 136.492 215.698 136.47 215.642 136.504L215.777 136.391C215.518 136.628 216.014 136.109 215.845 136.278L216.161 135.94C215.969 136.109 216.352 135.737 216.161 135.872C216.06 135.99 215.951 136.099 215.834 136.199L215.98 136.086L215.698 136.357C215.698 136.357 215.822 136.244 215.8 136.278L215.529 136.537C215.811 136.244 215.349 136.695 215.529 136.537L215.991 136.064C216.194 135.85 215.732 136.289 215.834 136.154L215.755 136.244C215.574 136.425 215.755 136.244 215.642 136.334C215.8 136.177 215.856 136.109 215.946 136.008C215.834 136.132 215.946 136.008 215.631 136.301L215.834 136.086C215.913 135.996 215.371 136.526 215.416 136.459L215.822 136.064C215.822 136.064 215.822 136.064 215.743 136.132C215.834 136.03 215.518 136.334 215.664 136.132L215.439 136.346L215.518 136.267L215.236 136.537C215.709 136.041 215.168 136.537 215.574 136.109L215.439 136.199C215.574 136.041 214.988 136.639 215.134 136.47C215.281 136.301 215.281 136.334 215.371 136.233C215.879 135.714 215.281 136.233 215.574 135.985C215.743 135.805 215.371 136.165 215.394 136.12L215.473 136.041C215.332 136.184 215.182 136.316 215.021 136.436L215.337 136.132L214.943 136.515C215.071 136.359 215.21 136.212 215.36 136.075C215.642 135.782 215.36 136.075 215.36 136.075L215.484 135.951C215.484 135.951 215.123 136.301 215.134 136.267L215.044 136.357C214.728 136.661 215.213 136.177 214.976 136.357L215.281 136.041L214.897 136.38C215.134 136.143 215.258 136.041 215.405 135.906C215.552 135.771 215.405 135.906 215.213 136.064C215.213 136.064 215.326 135.962 215.213 136.064C215.1 136.196 214.972 136.313 214.83 136.413C215.439 135.805 214.965 136.233 215.428 135.748C215.179 135.962 215.428 135.613 215.428 135.635C214.965 136.12 215.428 135.636 214.931 136.132L215.202 135.827L215.428 135.613C215.572 135.449 215.73 135.298 215.901 135.162C215.721 135.331 215.642 135.41 215.709 135.331L215.484 135.568C215.213 135.816 215.879 135.139 215.619 135.387L215.766 135.241C215.609 135.334 215.468 135.452 215.349 135.59L215.574 135.365C215.574 135.297 215.123 135.748 215.349 135.5L215.473 135.376C215.473 135.376 215.236 135.59 215.349 135.466L215.484 135.342C215.484 135.342 215.258 135.545 215.326 135.466L215.461 135.342C215.608 135.162 215.112 135.647 215.021 135.714C215.201 135.543 215.367 135.358 215.518 135.162C215.518 135.094 215.202 135.421 215.044 135.545C215.405 135.151 215.168 135.342 215.36 135.106C215.292 135.173 215.089 135.387 215.044 135.421C214.999 135.455 214.796 135.647 215.112 135.331C215.416 135.015 215.326 135.094 215.326 135.072L214.909 135.5C215.495 134.858 214.638 135.681 215.168 135.117L214.954 135.309L215.179 135.083C215.179 135.015 215.247 134.982 215.179 135.015L215.337 134.858C215.337 134.858 214.683 135.5 214.661 135.511L214.988 135.173C214.988 135.173 215.247 134.846 214.988 135.173L215.157 135.015C215.157 135.015 215.349 134.756 214.897 135.23C215.191 134.925 214.897 135.23 214.773 135.309L214.988 135.083C214.847 135.235 214.696 135.378 214.536 135.511C214.574 135.466 214.615 135.425 214.661 135.387C214.762 135.263 214.446 135.602 214.548 135.466L214.694 135.331C214.694 135.331 214.627 135.331 214.458 135.545C214.288 135.76 214.458 135.478 214.706 135.275C214.582 135.387 214.412 135.557 214.469 135.489C214.515 135.437 214.564 135.388 214.615 135.342C214.751 135.185 214.333 135.59 214.548 135.342L214.672 135.218C214.875 135.015 214.897 134.97 215.191 134.688C215.06 134.822 214.921 134.946 214.773 135.061L214.841 134.993C214.841 134.993 214.897 134.993 214.897 134.925C214.897 134.858 214.976 134.824 214.976 134.812C214.762 135.038 214.785 134.993 214.604 135.185C214.48 135.297 214.379 135.387 214.503 135.252L214.142 135.613L214.796 134.914C214.602 135.055 214.421 135.214 214.255 135.387L214.435 135.196L214.536 135.106C214.406 135.199 214.286 135.305 214.176 135.421C214.3 135.275 214.446 135.151 214.39 135.185L214.48 135.106C214.931 134.61 213.691 135.816 214.266 135.185L214.176 135.286C214.401 134.993 213.86 135.478 214.255 135.027C214.322 134.937 214.142 135.117 213.995 135.263L214.232 135.015L213.939 135.286C213.724 135.478 214.514 134.666 214.108 135.038L213.95 135.207C213.95 135.207 213.837 135.286 214.029 135.094C214.029 135.094 213.86 135.263 213.939 135.173L214.063 135.049L213.837 135.252C213.916 135.151 214.333 134.756 214.345 134.711C214.356 134.666 213.961 135.061 213.882 135.151L213.679 135.365H213.612C213.239 135.737 212.856 136.12 212.608 136.391L212.845 136.177L212.664 136.357C212.495 136.537 212.664 136.357 212.754 136.289L212.563 136.492L212.924 136.143C212.797 136.261 212.677 136.385 212.563 136.515L212.991 136.086C212.833 136.256 212.687 136.391 212.845 136.256L212.642 136.447C212.754 136.334 212.642 136.447 212.901 136.222C212.698 136.425 212.969 136.222 212.619 136.526C212.735 136.44 212.855 136.361 212.98 136.289C212.551 136.695 212.98 136.289 212.518 136.774C212.646 136.65 212.782 136.534 212.924 136.425L212.856 136.492L212.642 136.729C212.957 136.413 213.036 136.346 213.239 136.165C212.946 136.47 212.867 136.526 212.574 136.819C212.833 136.56 212.845 136.571 213.048 136.357C212.942 136.484 212.829 136.604 212.709 136.718C212.808 136.613 212.914 136.516 213.025 136.425C212.845 136.628 212.664 136.797 212.788 136.684C212.702 136.764 212.612 136.839 212.518 136.909V136.909ZM213.397 136.436L213.578 136.289L213.397 136.436ZM214.909 134.846H214.852H214.909Z" fill="#202020"/>
<path opacity="0.25" d="M214.638 135.16L214.704 135.094L214.638 135.16Z" fill="#202020"/>
<path opacity="0.25" d="M213.229 137.111L213.284 137.056L213.24 137.1L213.229 137.111Z" fill="#202020"/>
<path opacity="0.25" d="M215.18 137.879C215.18 137.879 215.155 137.904 215.18 137.879V137.879Z" fill="#202020"/>
<path opacity="0.25" d="M215.166 137.969L215.101 138.046L215.166 137.969Z" fill="#202020"/>
<path opacity="0.25" d="M215.089 138.103L215.189 138.014L215.089 138.103Z" fill="#202020"/>
<path opacity="0.25" d="M214.998 137.507C214.962 137.538 214.928 137.571 214.897 137.608L214.998 137.507Z" fill="#202020"/>
<path opacity="0.25" d="M214.886 137.597C214.886 137.597 214.929 137.564 214.886 137.597V137.597Z" fill="#202020"/>
<path opacity="0.25" d="M215.246 138.24H215.18C215.18 138.24 215.18 138.306 215.246 138.24Z" fill="#202020"/>
<path opacity="0.25" d="M215.189 138.195L215.111 138.283L215.189 138.195Z" fill="#202020"/>
<path opacity="0.25" d="M215.156 138.206L215.044 138.34H215.111C214.988 138.396 215.291 138.071 215.156 138.206Z" fill="#202020"/>
<path opacity="0.25" d="M216.104 137.146L216.048 137.224L216.273 136.999C216.509 136.73 216.082 137.202 216.104 137.146Z" fill="#202020"/>
<path opacity="0.25" d="M216.194 136.988C216.194 136.988 216.318 136.864 216.363 136.819C216.301 136.87 216.245 136.926 216.194 136.988Z" fill="#202020"/>
<path opacity="0.25" d="M215.958 136.752L216.161 136.549L215.958 136.752Z" fill="#202020"/>
<path opacity="0.25" d="M214.863 137.766L214.739 137.902L214.931 137.721L214.863 137.766Z" fill="#202020"/>
<path opacity="0.25" d="M216.284 136.289L216.317 136.256L216.229 136.322L216.284 136.289Z" fill="#202020"/>
<path opacity="0.25" d="M215.81 135.962L215.562 136.221C215.65 136.14 215.732 136.053 215.81 135.962Z" fill="#202020"/>
<path opacity="0.25" d="M215.394 136.052C215.506 135.929 215.584 135.839 215.461 135.962C215.338 136.086 215.36 136.086 215.394 136.052Z" fill="#202020"/>
<path opacity="0.25" d="M215.281 135.138L215.37 135.049L215.292 135.116L215.281 135.138Z" fill="#202020"/>
</g>
<path d="M629.925 422.505L629.643 422.257C629.444 422.067 629.2 421.931 628.933 421.863C628.527 420.341 628.2 417.105 628.064 416.305C627.613 413.599 627.252 410.871 626.936 408.142C626.395 403.091 626.102 397.995 625.865 392.933C625.414 383.091 625.267 373.237 624.252 363.429C622.583 347.172 618.443 330.734 607.988 317.836C602.856 311.489 596.788 307.464 589.795 303.417C581.979 298.907 578.088 291.162 571.038 285.852C564.271 280.745 556.252 277.306 549.293 272.323C542.927 267.793 536.995 262.683 531.574 257.058C532.702 256.054 533.694 255.04 534.653 253.969C540.213 247.737 545.021 240.872 548.977 233.517C549.12 233.259 549.193 232.968 549.189 232.673C549.185 232.378 549.105 232.089 548.956 231.835C548.807 231.58 548.595 231.369 548.339 231.221C548.084 231.073 547.794 230.994 547.499 230.992H541.86C546.076 226.711 549.427 221.659 551.729 216.11C552.259 214.847 550.759 213.765 549.642 214.036C547.003 214.656 544.409 215.389 541.837 216.212C545.448 209.821 548.036 202.905 549.507 195.715C549.578 195.427 549.573 195.126 549.493 194.84C549.413 194.555 549.261 194.295 549.051 194.085C548.841 193.876 548.581 193.723 548.296 193.644C548.01 193.564 547.709 193.559 547.42 193.629L537.642 195.884C541.431 185.433 544.589 174.813 543.789 163.55C543.78 163.255 543.696 162.968 543.545 162.715C543.394 162.462 543.18 162.252 542.924 162.105C542.669 161.958 542.379 161.879 542.085 161.875C541.79 161.872 541.499 161.944 541.24 162.084C539.583 162.802 537.984 163.646 536.457 164.61C537.465 152.885 536.384 141.075 533.265 129.728C532.442 126.763 531.247 118.826 528.111 117.202C526.442 116.345 524.547 117.484 522.912 118.859C523.16 115.038 523.306 111.204 523.318 107.36C523.329 103.515 523.656 99.6597 521.908 96.1872C521.775 95.9661 521.594 95.7777 521.378 95.6363C521.162 95.4948 520.917 95.4039 520.661 95.3703C520.405 95.3367 520.145 95.3613 519.9 95.4422C519.655 95.5232 519.431 95.6584 519.246 95.8377C517.775 97.2975 516.232 98.6822 514.622 99.9866C514.294 94.2594 513.922 88.5321 513.494 82.8161C513.065 77.1002 513.494 70.0989 511.847 64.5633C509.975 58.1596 504.019 63.9094 500.128 68.0583C500.128 65.2398 500.038 62.4213 499.936 59.614C499.936 58.2273 500.207 56.2318 499.079 55.1833C496.948 53.0863 493.068 55.7357 490.259 57.8552C490.167 50.9687 489.696 44.0924 488.849 37.2574C488.838 36.964 488.752 36.6783 488.6 36.4271C488.448 36.1758 488.234 35.9673 487.98 35.8208C487.725 35.6744 487.438 35.595 487.144 35.5899C486.85 35.5848 486.56 35.6543 486.3 35.7918C484.635 36.5601 483.077 37.5416 481.665 38.7118C482.195 29.4106 481.981 20.0193 481.665 10.7407C481.655 10.375 481.528 10.0222 481.302 9.73454C481.076 9.44686 480.763 9.2396 480.41 9.14347C480.057 9.04733 479.682 9.06742 479.341 9.20078C479.001 9.33413 478.712 9.57364 478.518 9.88385C474.106 17.2056 469.031 24.1079 463.359 30.5042C458.776 23.662 453.178 17.5567 446.757 12.398C446.545 12.1943 446.284 12.0485 446 11.9745C445.715 11.9006 445.417 11.901 445.132 11.9757C444.848 12.0504 444.588 12.1969 444.376 12.4012C444.165 12.6054 444.01 12.8606 443.926 13.1421L442.538 19.6472C439.831 17.7274 436.84 16.2438 433.673 15.2503C429.043 12.2912 423.871 10.2795 418.458 9.33142C417.195 7.00895 416.056 4.01003 414.319 2.04833C413.957 1.5423 413.424 1.1846 412.818 1.04155C412.212 0.898509 411.575 0.979822 411.025 1.27042C406.514 2.72478 402.002 6.90748 398.788 10.2897C393.483 7.85353 387.783 6.39457 381.96 5.983C370.809 5.39686 359.762 8.39136 350.435 14.5288C350.121 14.7263 349.877 15.0177 349.737 15.3616C349.597 15.7056 349.569 16.0847 349.657 16.4454C350.075 18.4684 350.954 20.3679 352.226 21.9966C353.497 23.6252 355.127 24.9392 356.988 25.8367C350.861 30.9131 344.992 36.2939 339.405 41.9587C339.225 42.1434 339.089 42.3662 339.007 42.6107C338.925 42.8551 338.899 43.1149 338.932 43.3706C338.964 43.6264 339.054 43.8715 339.195 44.0877C339.335 44.3039 339.522 44.4856 339.743 44.6194C342.689 45.9905 345.755 47.0887 348.901 47.9002C344.613 53.0739 341.348 59.0157 339.28 65.4089C339.213 65.6594 339.205 65.9218 339.254 66.1763C339.304 66.4307 339.412 66.6704 339.568 66.877C339.725 67.0836 339.927 67.2518 340.158 67.3686C340.39 67.4854 340.645 67.5478 340.905 67.551C343.914 67.5571 346.891 66.9351 349.646 65.7246C349.409 67.7088 349.228 69.6931 349.116 71.6773L348.913 72.2185C348.671 72.8905 348.699 73.63 348.992 74.2816C348.992 75.7247 348.913 77.1791 348.992 78.6447C349.002 78.9743 349.107 79.294 349.295 79.5653C349.482 79.8365 349.744 80.0479 350.049 80.1741C350.354 80.3003 350.689 80.3358 351.013 80.2765C351.338 80.2172 351.638 80.0656 351.879 79.8398C353.165 78.7913 354.439 77.6639 355.68 76.5364C354.96 79.9896 354.582 83.5054 354.552 87.0327C354.375 87.5863 354.375 88.1814 354.552 88.735C354.552 89.3664 354.552 89.9865 354.552 90.6178C354.557 90.9125 354.639 91.2008 354.789 91.4545C354.939 91.7082 355.152 91.9187 355.408 92.0653C355.664 92.2118 355.953 92.2895 356.248 92.2908C356.543 92.292 356.833 92.2167 357.09 92.0722L363.135 88.938C363.334 89.8983 363.587 90.8468 363.891 91.7791C363.981 92.1286 364.083 92.4781 364.184 92.8163C356.357 97.6078 348.394 102.963 342.754 110.257C339.2 109.791 335.603 109.753 332.039 110.145C329.896 110.381 329.874 113.775 332.039 113.527C334.864 113.215 337.713 113.185 340.544 113.437C339.495 115.111 338.586 116.868 337.825 118.69C334.848 125.94 334.972 133.651 335.378 141.34C335.845 146.119 334.501 150.898 331.611 154.734C329.152 158.375 326.761 162.051 324.471 165.805C320.343 172.569 316.215 179.503 313.463 186.966C310.215 195.749 308.546 204.52 304.192 212.897C301.711 217.7 290.048 234.239 295.248 240.8C295.209 240.895 295.179 240.993 295.158 241.094C292.834 252.108 289.518 266.212 294.65 276.878C296.599 281.144 300.154 284.47 304.542 286.134C308.207 287.408 312.098 287.193 315.719 288.772C318.155 289.832 320.23 291.331 322.96 291.466C325.092 291.481 327.194 290.961 329.073 289.956C329.964 298.005 338.344 302.639 345.991 303.552C355.454 304.68 365.165 300.767 372.068 294.307C374.198 292.298 376.09 290.051 377.708 287.611C377.753 287.455 377.813 287.304 377.888 287.16C378.45 286.132 379.071 285.138 379.749 284.183C382.481 278.865 383.998 273.007 384.193 267.032C384.389 261.057 383.256 255.113 380.877 249.628C385.178 244.458 390.151 239.886 395.663 236.031C397.236 246.796 398.072 257.656 398.167 268.535C398.167 269.583 398.167 270.643 398.167 271.691C397.85 271.762 397.56 271.922 397.333 272.154C393.164 276.32 389.237 280.72 385.569 285.333H385.411C384.335 286.767 383.358 288.274 382.49 289.843C382.24 290.35 381.816 290.751 381.294 290.97C361.116 318.84 350.932 352.189 347.164 386.902C346.928 389.055 350.311 389.044 350.548 386.902C354.191 353.35 364.004 321.072 383.257 294.003C382.465 305.951 380.981 317.842 378.813 329.618C376.298 342.234 373.038 354.59 371.448 367.375C368.242 393.65 369.747 420.287 375.892 446.034C376.388 448.154 379.647 447.263 379.151 445.144C372.854 418.731 371.519 391.378 375.215 364.477C377.02 351.569 380.617 339.066 382.873 326.258C385.039 313.913 386.076 301.455 387.046 288.93C390.497 284.465 394.199 280.201 398.134 276.156C397.956 283.07 398.356 289.986 399.329 296.833C402.002 313.068 410.788 328.626 425.395 336.969C440.847 345.751 458.633 342.234 475.168 338.705C491.489 335.221 505.395 328.445 515.028 314.42C520.723 306.123 526.509 297.182 529.047 287.363C531.303 278.772 531.213 269.854 530.683 261.026C534.749 265.126 539.086 268.949 543.665 272.469C550.815 277.926 558.654 281.872 566.222 286.686C573.463 291.308 577.276 298.941 584.122 303.879C592.017 309.516 599.912 312.898 606.037 320.79C618.004 336.134 620.767 355.988 621.827 374.838C622.357 384.872 622.47 394.929 623.35 404.94C623.744 409.45 624.286 413.892 625.075 418.323C625.515 420.78 625.414 424.061 627.647 425.606C627.969 425.793 628.344 425.869 628.714 425.82C629.084 425.771 629.426 425.6 629.688 425.335C629.801 425.211 629.903 425.076 630.004 424.952C630.317 424.616 630.484 424.171 630.469 423.712C630.455 423.254 630.259 422.82 629.925 422.505ZM408.961 6.27613C410.484 5.31783 411.341 4.31443 412.593 5.88153C413.347 6.89156 413.99 7.98021 414.51 9.12848C414.27 9.22647 414.056 9.37954 413.885 9.57536C413.715 9.77119 413.593 10.0043 413.529 10.2559C413.021 12.4866 412.644 14.7453 412.401 17.0204C408.882 15.2503 405.476 13.4014 402.002 11.8117C404.12 9.72587 406.452 7.8703 408.961 6.27613ZM339.653 124.046C344.356 122.772 347.627 126.65 348.304 131.002C348.664 132.879 348.552 134.816 347.976 136.639C346.849 139.931 340.837 143.561 339.923 137.766C339.923 137.676 339.923 137.608 339.844 137.518C340.468 137.738 341.13 137.831 341.79 137.793C342.451 137.754 343.097 137.584 343.691 137.293C344.318 136.951 344.866 136.482 345.299 135.915C345.733 135.348 346.042 134.696 346.207 134.001C346.372 133.307 346.389 132.586 346.257 131.884C346.124 131.183 345.845 130.517 345.439 129.931C345.169 129.314 344.768 128.763 344.264 128.317C343.759 127.871 343.163 127.541 342.517 127.349C341.32 127.048 340.052 127.23 338.987 127.856C339.135 126.574 339.357 125.302 339.653 124.046ZM526.904 280.598C525.551 290.068 521.344 298.129 516.325 306.145C511.678 313.575 506.805 320.802 499.406 325.74C493.113 330.001 485.872 332.572 478.518 334.409C462.66 338.378 443.835 342.662 428.62 334.849C413.405 327.036 404.878 311.309 402.397 295.006C400.784 284.454 401.698 273.676 401.371 263.056C401.371 262.898 401.371 262.74 401.371 262.593C401.685 262.299 401.875 261.896 401.901 261.466C402 259.895 402.2 258.332 402.498 256.787C405.115 249.493 411.804 243.822 417.375 238.749C423.5 233.179 429.974 228.016 436.053 222.39C446.475 212.75 455.701 201.521 459.163 187.44C459.243 187.152 459.243 186.848 459.163 186.561C459.592 185.208 459.987 183.798 460.291 182.344C462.705 172.344 463.901 160.923 454.731 154.046C452.994 152.738 451.347 155.669 453.028 156.966C461.284 163.167 459.536 176.031 456.073 186.065C455.983 186.212 455.915 186.371 455.87 186.538C455.87 186.685 455.791 186.82 455.757 186.955C454.926 189.261 453.97 191.519 452.892 193.72C447.704 204.205 435.873 209.74 425.958 214.96C409.288 223.743 391.603 231.668 379.196 246.28C377.824 243.705 376.183 241.283 374.301 239.053C372.903 237.384 370.512 239.786 371.91 241.443C377.318 247.719 380.454 255.632 380.814 263.907C381.174 272.181 378.737 280.337 373.895 287.058C369.136 293.7 362.027 298.283 354.011 299.877C346.668 301.241 334.464 299.11 332.581 290.677C337.95 293.078 343.194 294.251 349.093 291.996C355.443 289.55 360.011 284.364 363.88 278.975C368.019 273.202 372.598 266.787 371.594 259.312C370.703 252.728 366.158 247.328 361.974 242.469C361.741 242.25 361.461 242.089 361.156 241.997C360.851 241.906 360.528 241.887 360.214 241.941C359.9 241.996 359.603 242.123 359.346 242.313C359.09 242.502 358.881 242.749 358.736 243.033C355.669 260.384 344.751 278.129 328.543 286.156C323.242 288.783 321.776 287.644 317.388 285.807C315.486 284.997 313.506 284.385 311.478 283.98C305.568 282.853 301.023 281.658 297.943 275.84C292.958 266.257 296.094 252.92 298.248 242.773C298.786 242.959 299.336 243.106 299.895 243.213C302.026 243.608 302.94 240.338 300.797 239.955C291.921 238.331 304.181 220.214 306.245 216.279C307.7 213.483 309.076 210.71 310.305 207.88C310.483 207.778 310.639 207.645 310.768 207.485L344.153 167.857C337.747 188.342 332.502 209.312 334.058 230.992C334.216 233.145 337.6 233.168 337.442 230.992C335.705 206.786 342.596 183.483 349.995 160.72C350.086 160.362 350.058 159.983 349.915 159.642C349.771 159.301 349.521 159.016 349.201 158.83C348.881 158.644 348.509 158.567 348.142 158.611C347.774 158.655 347.431 158.818 347.164 159.074C335.946 172.415 324.727 185.749 313.508 199.075L313.576 198.816C317.614 184.159 324.483 171.611 332.874 158.928C336.1 154.08 339.055 150.258 338.976 144.271V142.761C339.704 143.359 340.552 143.795 341.462 144.04C342.372 144.285 343.324 144.333 344.254 144.181C348.518 143.505 351.022 139.548 351.665 135.568C352.793 128.476 348.428 119.784 340.814 120.438C341.714 118.141 342.88 115.958 344.288 113.933C347.288 114.468 350.222 115.322 353.041 116.481C355.048 117.304 355.928 114.034 353.932 113.222C351.548 112.242 349.083 111.469 346.567 110.911C351.653 104.891 358.545 100.223 365.278 96.097C365.684 97.1343 366.135 98.1715 366.654 99.1974C366.826 99.4797 367.076 99.706 367.373 99.8488C367.671 99.9916 368.004 100.045 368.332 100.002C368.659 99.9587 368.967 99.8214 369.218 99.6065C369.469 99.3917 369.652 99.1085 369.745 98.7916C371.347 93.7395 373.837 89.0132 377.098 84.8342C376.458 91.7576 377.278 98.7382 379.504 105.325C381.73 111.912 385.314 117.959 390.024 123.076C390.263 123.307 390.564 123.463 390.89 123.525C391.216 123.587 391.553 123.553 391.86 123.426C392.167 123.299 392.43 123.085 392.617 122.81C392.803 122.536 392.906 122.213 392.911 121.881C392.112 110.318 395.741 98.8841 403.062 89.8963C404.708 98.1219 409.108 105.542 415.537 110.934C415.777 111.16 416.078 111.311 416.402 111.371C416.727 111.43 417.062 111.394 417.367 111.268C417.671 111.142 417.933 110.931 418.121 110.659C418.309 110.388 418.414 110.068 418.424 109.739C418.616 107.935 418.819 106.086 419.067 104.203C419.183 103.87 419.229 103.517 419.202 103.166C420.984 90.1105 424.718 76.0178 437.249 70.2229C437.147 70.9445 437.068 71.666 437.012 72.4101C436.854 74.586 440.237 74.5748 440.395 72.4101C441.388 58.8812 450.919 48.9712 459.829 39.6588C466.734 32.5033 472.943 24.7079 478.371 16.3777C478.715 25.0221 478.579 33.6788 477.965 42.3082C477.04 53.7064 473.228 61.959 464.284 69.2985C450.952 80.2231 435.094 90.7193 433.651 109.547C433.651 109.547 433.651 109.649 433.651 109.694C432.726 111.069 434.857 112.929 436.391 111.7C441.19 107.836 446.505 104.66 452.182 102.264C454.753 101.52 457.381 101.013 459.975 100.449L451.956 106.537C451.678 106.711 451.456 106.962 451.316 107.259C451.177 107.556 451.125 107.886 451.168 108.212C451.21 108.537 451.346 108.843 451.558 109.094C451.769 109.345 452.049 109.529 452.362 109.626C458.536 111.618 463.975 115.406 467.983 120.506C464.291 122.676 461.23 125.771 459.101 129.487C456.973 133.202 455.851 137.408 455.847 141.69C455.849 141.986 455.929 142.276 456.078 142.532C456.227 142.787 456.441 142.999 456.698 143.147C456.955 143.294 457.246 143.371 457.542 143.371C457.838 143.37 458.129 143.292 458.385 143.144C463.063 139.981 468.487 138.096 474.119 137.676C468.254 144.959 461.893 154.587 462.457 163.505C462.462 163.801 462.544 164.09 462.695 164.345C462.845 164.6 463.059 164.812 463.316 164.959C463.573 165.107 463.863 165.186 464.16 165.188C464.456 165.19 464.747 165.115 465.006 164.971C466.889 163.843 468.762 162.558 470.645 161.318C470.792 163.099 470.995 164.88 471.254 166.639C471.217 167.058 471.283 167.48 471.446 167.868C471.694 169.492 471.987 171.115 472.337 172.739C472.419 173.022 472.572 173.28 472.783 173.486C472.994 173.692 473.256 173.84 473.541 173.915C473.826 173.99 474.126 173.99 474.412 173.914C474.697 173.838 474.958 173.689 475.168 173.483C477.544 170.92 479.841 168.289 482.059 165.591C480.232 173.858 478.202 182.1 475.969 190.315C475.889 190.637 475.905 190.976 476.015 191.289C476.124 191.603 476.322 191.878 476.585 192.081C476.848 192.284 477.164 192.406 477.495 192.433C477.826 192.46 478.158 192.39 478.45 192.231C479.409 191.702 480.39 191.228 481.36 190.777C482 190.846 482.646 190.716 483.21 190.405C483.875 190.01 484.541 189.638 485.218 189.278C486.345 188.883 487.417 188.511 488.545 188.15C484.53 192.66 480.48 197.057 476.375 201.431C476.195 201.616 476.059 201.839 475.977 202.083C475.895 202.328 475.87 202.587 475.902 202.843C475.935 203.099 476.025 203.344 476.165 203.56C476.305 203.776 476.493 203.958 476.713 204.092C479.156 205.194 481.703 206.052 484.315 206.651C483.887 206.858 483.482 207.111 483.108 207.406C480.413 209.594 479.725 213.337 477.232 215.715C477.063 215.871 476.931 216.061 476.843 216.273C476.756 216.485 476.717 216.714 476.727 216.943C476.738 217.171 476.799 217.395 476.906 217.598C477.012 217.801 477.162 217.978 477.345 218.117C477.353 218.384 477.424 218.645 477.554 218.878C477.683 219.112 477.867 219.311 478.089 219.458C483.323 223.044 490.09 222.198 495.301 225.468C500.196 228.545 499.53 235.614 499.959 240.688C500.388 245.761 500.782 250.722 501.2 255.75C501.205 256.008 501.269 256.262 501.386 256.493C501.504 256.723 501.672 256.924 501.878 257.08C502.084 257.236 502.323 257.344 502.577 257.394C502.83 257.445 503.092 257.438 503.343 257.373C506.918 256.37 512.366 252.864 513.719 259.29C514.531 263.326 513.302 267.982 512.05 271.77C511.396 273.777 514.407 274.657 515.231 272.898C515.267 272.855 515.301 272.81 515.332 272.763C518.468 268.253 522.957 264.623 527.322 260.936C527.845 267.487 527.706 274.075 526.904 280.598ZM361.398 276.742C358.533 280.79 355.319 284.837 350.988 287.374L350.525 287.622C347.432 285.428 345.176 282.247 344.13 278.603C345.619 277.127 347.03 275.577 348.36 273.958C350.148 271.759 351.79 269.447 353.278 267.035L361.398 276.742ZM355.082 263.879C357.975 258.563 360.116 252.871 361.443 246.967C364.827 251.037 368.211 255.693 368.448 261.083C368.628 265.818 366.034 270.034 363.406 273.856L355.082 263.879ZM346.995 289.121C342.484 290.463 338.074 289.493 333.461 287.351C334.588 286.573 335.716 285.773 336.641 285.096C338.308 283.867 339.912 282.553 341.446 281.162C342.628 284.226 344.536 286.957 347.006 289.121H346.995Z" fill="black"/>
<path d="M472.845 37.528C473.669 35.5099 470.398 34.6418 469.586 36.626C468.379 39.5798 464.059 42.0489 461.849 44.2811C459.686 46.4196 457.719 48.7477 455.972 51.2373C452.432 56.2361 450.397 62.1433 450.107 68.2612C450.017 70.4371 453.401 70.4371 453.491 68.2612C453.587 66.2548 453.909 64.2656 454.45 62.331C457.78 63.4087 461.4 63.1475 464.542 61.6027C467.683 60.0579 470.099 57.351 471.278 54.0558C472.056 52.0265 468.785 51.1471 468.007 53.1539C467.102 55.552 465.309 57.5103 462.999 58.6228C460.69 59.7352 458.04 59.9166 455.6 59.1292C457.351 55.0333 459.827 51.2867 462.909 48.0693C466.089 44.6306 471.063 41.9249 472.845 37.528Z" fill="black"/>
<path d="M421.402 131.78C417.409 123.369 408.792 119.615 400.818 125.534C394.378 130.314 386.945 140.821 394.051 148.217C399.476 153.854 412.097 156.695 418.549 151.599C424.662 146.718 425.169 138.161 421.402 131.78ZM415.616 149.536C410.98 152.479 402.758 150.111 398.337 147.281C387.058 140.156 407.089 116.052 417.094 130.968C417.119 131.337 417.261 131.688 417.5 131.971C417.775 132.298 418.031 132.641 418.267 132.997C418.379 133.211 418.481 133.426 418.582 133.651C418.669 133.845 418.796 134.018 418.955 134.158C421.616 139.356 420.838 146.244 415.616 149.581V149.536Z" fill="black"/>
<path d="M414.161 137.417C412.255 133.29 407.236 131.78 404.146 135.162L403.931 135.32C402.88 135.926 402.011 136.804 401.416 137.861C400.821 138.918 400.521 140.116 400.548 141.329C400.672 146.267 405.679 148.172 409.954 147.135C414.612 146.041 416.079 141.532 414.161 137.417Z" fill="black"/>
<path d="M426.737 124.44C423.297 121.994 419.767 118.803 415.898 117.022C411.635 115.117 406.176 115.692 401.608 115.432C399.431 115.32 399.442 118.702 401.608 118.815C406.063 119.063 411.939 118.488 415.853 120.855C419.034 122.794 422 125.207 425.034 127.36C426.816 128.623 428.497 125.692 426.737 124.44Z" fill="black"/>
<path d="M382.682 124.147C375.643 131.329 367.819 137.698 359.357 143.133L359.109 133.121C358.996 128.815 357.372 121.509 360.744 118.104C362.65 116.176 365.809 115.083 367.929 113.223C370.094 111.266 372.014 109.056 373.647 106.638C374.899 104.857 371.967 103.166 370.726 104.936C368.005 108.77 364.509 111.989 360.462 114.384C358.319 115.703 356.56 116.695 355.77 119.198C354.643 122.58 355.579 127.383 355.669 130.957C355.797 136.023 355.925 141.088 356.052 146.154C356.058 146.45 356.14 146.74 356.29 146.995C356.441 147.25 356.655 147.461 356.912 147.609C357.168 147.756 357.459 147.835 357.755 147.837C358.051 147.839 358.343 147.764 358.601 147.62C368.264 141.709 377.158 134.628 385.084 126.537C386.595 125.015 384.216 122.591 382.682 124.147Z" fill="black"/>
<path d="M378.746 170.112V170.033C378.141 169.136 377.462 168.291 376.716 167.507C376.591 167.733 376.49 167.947 376.388 168.139C375.994 169.266 375.644 170.393 375.261 171.465C374.651 178.488 370.851 184.937 371.155 192.107C371.335 196.324 373.512 202.885 378.78 202.547C383.765 202.22 384.881 196.38 384.949 192.401C385.084 184.655 381.701 177.203 378.746 170.112Z" fill="black"/>
<path d="M353.729 233.574C352.928 230.902 350.627 229.143 348.484 227.565C346.736 226.268 345.1 229.211 346.781 230.485C349.274 232.334 352.33 235.254 349.544 238.376C348.089 239.989 350.469 242.39 351.935 240.767C352.837 239.829 353.477 238.671 353.792 237.409C354.107 236.147 354.085 234.825 353.729 233.574Z" fill="black"/>
<path d="M340.679 247.677C341.446 245.31 342.247 242.525 340.928 240.597C339.608 238.669 336.495 238.241 334.273 238.737C326.964 240.383 325.25 248.748 325.25 255.13C325.25 260.135 328.092 266.776 334.273 264.25C335.49 263.724 336.539 262.874 337.304 261.792C338.07 260.711 338.524 259.439 338.615 258.117V258.05C339.07 256.592 339.25 255.063 339.146 253.54C339.872 251.649 340.387 249.682 340.679 247.677Z" fill="black"/>
<path d="M321.043 233.889C317.005 237.554 314.263 242.427 313.227 247.779C312.573 251.24 311.862 257.486 315.043 259.989C316.734 261.308 319.137 258.94 317.434 257.588C314.817 255.536 316.306 248.658 317.152 245.964C318.37 242.246 320.535 238.908 323.434 236.279C325.036 234.791 322.633 232.412 321.043 233.889Z" fill="black"/>
<path d="M473.544 246.776C473.416 246.418 473.172 246.113 472.852 245.909C472.531 245.705 472.152 245.613 471.773 245.648C471.649 249.247 471.023 252.81 469.912 256.235C469.644 259.004 469.162 261.748 468.469 264.442C467.702 267.43 466.754 270.44 467.341 273.552C468.085 277.588 471.762 281.444 476.206 280.113C488.308 276.404 475.856 252.999 473.544 246.776Z" fill="black"/>
<path d="M344.221 409.236C343.837 404.726 343.262 400.216 342.664 395.707C342.236 392.471 342.145 388.503 340.002 385.808C338.367 383.756 337.374 384.399 335.389 383.553C329.321 380.949 328.848 375.515 326.175 370.329C324.447 367.01 322.318 363.917 319.836 361.118C318.798 359.99 317.512 358.863 316.565 357.657C314.084 354.365 314.163 350.464 313.813 346.563C313.114 338.502 313.576 328.941 310.226 321.41C308.083 316.608 303.357 312.312 297.82 312.74C292.282 313.169 289.033 318.13 287.511 323.022C284.51 332.651 284.702 344.071 285.537 354.004C285.633 356.555 285.946 359.093 286.473 361.591C283.503 362.539 280.641 363.798 277.935 365.346C271.54 368.841 261.4 372.437 257.114 378.694C253.888 383.384 255.005 389.574 258.569 393.768C259.488 394.843 260.551 395.788 261.727 396.575C255.287 400.228 249.32 408.018 257.712 413.486C259.336 414.529 261.068 415.395 262.878 416.068C257.768 418.909 254.475 424.039 258.693 429.788C264.491 437.68 276.988 438.808 285.898 437.872C294.808 436.936 306.516 435.065 312.121 427.297C316.057 421.84 315.426 414.568 310.17 410.927C311.146 409.574 311.844 408.042 312.223 406.417C313.689 400.352 312.471 391.975 307.192 388.221C310.305 385.256 312.73 381.456 311.625 377.172C307.61 361.569 282.086 374.669 274.991 379.731C273.232 380.994 274.923 383.925 276.694 382.651C280.967 379.53 285.691 377.078 290.703 375.379C295.214 373.891 310.102 370.193 308.331 380.52C307.7 383.014 306.221 385.21 304.147 386.733L303.978 386.676C303.82 386.879 303.651 387.071 303.47 387.262C302.983 387.759 302.42 388.174 301.801 388.491C299.987 389.677 298.104 390.754 296.162 391.716C290.829 394.416 285.021 396.051 279.063 396.53C273.423 397.003 266.532 396.721 262.145 392.55C256.877 387.589 258.231 380.814 264.039 377.059C268.449 374.196 273.277 371.851 277.867 369.303C281.048 367.544 284.432 365.492 287.951 364.579L288.12 364.703C288.991 364.484 289.884 364.36 290.782 364.331C290.885 364.263 290.983 364.188 291.075 364.105C293.031 364.017 294.976 364.445 296.714 365.346C298.654 366.326 300.369 363.418 298.417 362.426C296.13 361.23 293.563 360.669 290.985 360.802C290.617 360.399 290.116 360.143 289.575 360.081C289.507 355.864 288.627 349.032 288.593 347.476C288.484 343.13 288.635 338.782 289.045 334.454C289.687 327.6 292.733 309.471 303.707 318.22C310.226 323.383 309.414 334.748 310.08 342.245C310.61 348.288 310.08 355.131 314.196 360.035C319.362 366.247 323.22 371.31 326.152 378.953C326.814 381.135 327.972 383.134 329.536 384.793C331.509 386.609 333.246 386.011 335.356 386.924C339.867 388.841 339.371 396.473 339.867 400.453C340.409 404.816 340.871 409.179 341.13 413.554C341.367 417.421 342.833 444.4 334.149 441.356C332.096 440.634 331.205 443.892 333.246 444.614C348.135 449.868 344.785 415.741 344.221 409.236ZM310.147 424.208C308.275 427.59 304.891 429.608 301.44 430.972C296.456 432.849 291.238 434.032 285.932 434.49C280.769 435.15 275.525 434.766 270.513 433.362C267.592 432.449 264.389 431.107 262.269 428.796C257.983 424.106 261.784 419.867 266.453 418.142C266.824 418.011 267.139 417.756 267.344 417.421C274.878 419.067 283.134 418.345 290.432 417.421C296.376 416.699 303.267 416.643 307.801 413.339C311.771 415.515 312.268 420.397 310.147 424.208ZM264.468 398.976C264.756 398.84 264.996 398.62 265.156 398.345C269.64 399.914 274.42 400.457 279.142 399.935C287.586 399.309 295.722 396.496 302.748 391.772C303.312 391.377 303.876 390.96 304.485 390.509C309.662 393.283 310.384 402.11 308.523 407.06C308.183 407.967 307.678 408.804 307.034 409.529C306.735 409.565 306.454 409.693 306.23 409.895C306.006 410.097 305.85 410.362 305.782 410.656C301.361 414.038 293.567 413.666 288.537 414.264C282.063 415.053 275.86 415.628 269.442 414.05C266.758 413.396 262.99 412.832 260.701 411.276C259.02 410.149 257.78 404.354 258.761 402.505C259.528 401.13 263.002 399.686 264.468 398.976Z" fill="black"/>
<path d="M249.107 411.976C243.91 405.798 240.988 398.027 240.828 389.957C240.76 387.781 237.377 387.781 237.444 389.957C237.647 398.918 240.919 407.538 246.716 414.377C248.114 416.034 250.494 413.633 249.107 411.976Z" fill="black"/>
<path d="M238.38 423.215C235.066 422.019 232.063 420.092 229.594 417.578C228.06 416.022 225.669 418.424 227.203 419.968C230.097 422.889 233.613 425.12 237.489 426.496C239.587 427.218 240.422 423.948 238.38 423.215Z" fill="black"/>
<path d="M268.562 348.141C263.047 345.548 262.291 339.336 261.795 333.913C261.603 331.76 258.208 331.749 258.411 333.913C259.02 340.497 260.204 347.938 266.859 351.061C268.821 351.974 270.536 349.066 268.562 348.141Z" fill="black"/>
<path d="M279.334 310.564C273.322 316.686 271.653 324.961 270.311 333.113C269.972 335.243 273.232 336.168 273.57 334.015C274.766 326.461 276.108 318.592 281.68 312.932C283.259 311.41 280.868 309.009 279.334 310.564Z" fill="black"/>
<path d="M329.976 334.849C328.983 332.91 326.062 334.623 327.054 336.551C329.834 341.851 330.456 348.019 328.791 353.767C328.699 354.19 328.772 354.633 328.997 355.004C329.221 355.375 329.58 355.645 329.998 355.759C330.416 355.874 330.862 355.823 331.245 355.618C331.627 355.413 331.915 355.069 332.051 354.657C333.934 348.034 333.191 340.939 329.976 334.849Z" fill="black"/>
<path d="M342.687 349.291C342.326 347.149 339.055 348.051 339.427 350.182C340.006 353.65 339.728 357.207 338.615 360.543C337.95 362.618 341.221 363.508 341.886 361.445C343.147 357.521 343.422 353.347 342.687 349.291Z" fill="black"/>
<path d="M298.293 448.887C297.425 451.051 289.27 449.721 287.668 449.62C283.901 449.394 280.157 449.022 276.389 448.549C274.235 448.278 274.258 451.66 276.389 451.931C282.426 452.766 288.511 453.215 294.605 453.272C297.695 453.272 300.312 452.844 301.541 449.789C302.365 447.771 299.094 446.891 298.293 448.887Z" fill="black"/>
<path d="M283.179 465.494C280.438 465.841 277.655 465.665 274.979 464.975C274.552 464.87 274.101 464.936 273.721 465.158C273.341 465.381 273.063 465.742 272.946 466.166C272.829 466.59 272.881 467.043 273.092 467.429C273.303 467.815 273.657 468.103 274.077 468.233C277.043 469.02 280.132 469.238 283.179 468.876C285.322 468.583 285.345 465.2 283.179 465.494Z" fill="black"/>
<path d="M574.817 317.713C576.373 316.191 573.982 313.801 572.415 315.323C556.399 330.903 547.218 351.964 543.71 373.824C541.813 386.353 541.264 399.048 542.074 411.694C542.74 423.678 542.898 437.861 547.432 449.124C548.233 451.119 551.504 450.251 550.691 448.233C546.372 437.478 546.18 424.253 545.526 412.765C544.624 400.07 545.108 387.316 546.969 374.726C550.376 353.407 559.184 332.91 574.817 317.713Z" fill="black"/>
<path d="M85.3003 135.998C80.0075 129.065 74.7148 122.133 69.4221 115.201C65.4059 109.985 64.5619 108.528 57.8131 110.637C53.0829 112.1 53.424 116.425 52.7592 120.916C51.1976 129.079 50.1354 137.316 49.446 145.685C49.3792 145.871 49.3721 146.184 49.4319 146.31C49.337 147.747 50.8949 148.093 51.7882 147.362C55.1784 146.996 59.0751 146.39 61.3962 143.436C61.9765 142.698 62.5322 140.269 62.9191 139.777C63.626 138.979 66.9846 137.235 68.3561 137.515C71.3525 137.954 72.0206 141.66 75.1365 142.352C78.5654 143.05 81.5583 140.861 84.0447 138.912C84.3647 138.606 84.4316 138.419 84.4386 138.107C85.258 137.874 85.8454 136.823 85.3003 135.998ZM76.3534 138.373C74.4016 138.832 73.1636 138.18 72.6397 136.417C72.1473 136.031 71.9152 135.213 71.2963 134.887C69.566 133.849 69.4851 134.661 67.9799 134.754C66.2215 134.967 62.6448 135.266 61.1115 136.61C60.5382 137.036 60.5839 137.788 60.1971 138.28C59.0295 140.07 57.8618 141.859 56.8208 143.589C55.3684 144.122 53.8561 144.527 52.3509 144.621C52.7695 139.937 53.2479 135.379 53.8528 130.762C54.5316 125.646 54.4052 114.569 60.834 112.766C65.7506 111.369 69.4431 119.831 72.1229 123.204C75.5271 127.781 78.9982 132.172 82.4024 136.75L82.2758 136.809C80.7213 139.091 78.7695 139.551 76.3534 138.373Z" fill="#0F0E09"/>
<path d="M66.1541 124.016C65.0639 122.366 64.0335 120.843 62.8765 119.379C62.3314 118.554 60.7594 118.834 60.4851 119.892C59.4686 123.311 59.2048 126.684 59.4404 130.131C59.4932 130.57 59.6725 130.949 59.9187 131.142C60.091 131.834 60.8893 132.539 61.7756 132.12C63.6747 131.222 67.705 130.244 67.7015 127.616C67.7965 126.179 66.8188 125.094 66.1541 124.016ZM63.5587 128.028C63.0522 128.268 62.6724 128.447 62.166 128.687C62.1414 126.997 62.2434 125.247 62.5318 123.564C63.1367 124.515 63.8682 125.407 64.4731 126.358C65.1975 127.562 64.5715 127.549 63.5587 128.028Z" fill="#0F0E09"/>
<path d="M106.869 98.7273C99.8813 100.331 92.7069 101.868 85.719 103.471C85.0261 103.644 84.6393 104.137 84.6252 104.762C84.5584 104.948 84.4916 105.134 84.6111 105.387C86.816 115.946 87.0093 126.837 92.8119 136.157C92.8576 136.909 93.4027 137.734 94.4085 137.568C97.5456 137.322 104.977 138.293 105.269 133.669C105.459 130.795 103.292 126.87 102.603 124.102C101.622 120.39 100.954 116.684 100.412 112.918C103.996 112.306 107.214 111.248 110.513 109.379C111.019 109.139 111.153 108.767 111.226 108.268C111.42 108.022 111.427 107.709 111.307 107.456C110.678 104.815 109.989 102.047 109.359 99.4059C108.948 98.2084 107.45 97.9888 106.869 98.7273ZM98.4639 110.437C97.7112 110.483 97.1907 111.348 97.3631 112.04C98.1226 117.249 99.0088 122.399 100.461 127.435C100.806 128.819 102.599 132.611 101.565 134.028C101.112 134.707 97.3557 134.627 95.2245 134.707C89.7876 125.832 89.4536 115.626 87.4211 105.76C93.8428 104.269 100.324 102.906 106.873 101.355C107.33 103.305 107.787 105.254 108.244 107.203C105.199 108.953 101.981 110.011 98.4639 110.437Z" fill="#0F0E09"/>
<path d="M147.278 89.8247C144.513 90.204 142.055 90.9026 139.344 91.721C138.837 91.9605 138.517 92.2665 138.57 92.7056C135.774 97.2763 133.284 102.166 131.353 107.256C130.379 103.231 129.405 99.2057 128.431 95.1807C128.199 94.3624 127.58 94.0364 126.827 94.083C124.13 94.2759 121.798 94.9146 119.519 95.9925C118.587 95.6598 117.507 96.3251 117.606 97.516C118.7 107.363 120.746 116.604 123.792 125.991C122.832 126.909 123.915 128.872 125.434 128.153C127.646 127.262 129.978 126.623 132.429 126.237C133.041 126.876 134.04 127.022 134.56 126.157C134.687 126.097 134.627 125.971 134.754 125.911C135.133 125.731 135.267 125.359 135.341 124.86C137.623 120.841 139.906 116.823 142.002 112.738C142.213 114.494 142.238 116.184 142.136 117.934C142.079 120.435 141.777 122.744 142.346 125.259C142.512 126.263 143.444 126.596 144.39 126.303C148.174 125.132 152.025 123.775 155.809 122.604C156.502 122.431 156.702 121.872 156.649 121.433C156.783 121.061 156.917 120.688 156.804 120.123C154.501 113.942 153.949 107.861 152.212 101.567C151.754 99.618 150.664 97.968 150.14 96.205C149.384 93.6236 149.785 92.5059 149.082 90.3636C148.589 89.9777 147.844 89.7116 147.278 89.8247ZM146.599 94.9409C147.675 97.2163 148.842 100.995 149.352 103.384C150.724 109.232 151.722 114.947 153.6 120.555C150.636 121.493 147.544 122.491 144.58 123.429C144.323 120.921 144.692 118.426 144.749 115.925C144.678 113.483 144.422 110.975 143.912 108.586C144.32 107.156 141.956 106.417 141.295 107.968C138.672 113.23 135.921 118.553 132.925 123.682C130.727 123.948 128.462 124.401 126.317 125.106C123.444 116.411 121.696 107.802 120.521 98.7668C122.294 97.9285 124.059 97.4028 125.944 97.1301C127.21 102.1 128.35 107.13 129.489 112.159C129.609 112.412 129.668 112.538 129.788 112.791C130.333 113.616 131.891 113.962 132.359 112.658C134.571 106.198 137.402 100.064 141.039 94.3223C142.491 93.79 145.336 92.5991 146.128 93.617C146.933 94.0095 146.18 94.0561 146.599 94.9409Z" fill="#0F0E09"/>
<path d="M190.549 76.1656C186.22 76.5116 178.163 75.5271 177.351 81.0158C176.908 84.0097 180.104 89.4585 177.544 91.9069C173.383 95.8854 171.214 83.7636 170.51 81.6214C170.338 80.9294 169.726 80.2908 168.907 80.5236C164.943 81.3154 161.346 82.5529 157.614 84.163C157.108 84.4025 156.654 85.0811 156.767 85.6466C159.397 96.7771 162.467 107.854 166.044 118.692C166.283 119.198 166.589 119.517 167.028 119.464C167.401 119.597 167.714 119.604 168.154 119.55C170.559 118.413 177.041 117.049 177.923 114.002C178.331 112.571 177.48 111.427 177.009 110.103C176.119 107.894 175.223 105.998 177.143 104.162C178.23 103.184 180.368 102.791 182.193 102.392C182.675 106.031 183.216 109.797 183.825 113.376C183.93 114.254 184.982 114.84 185.868 114.421C187.327 113.576 188.84 113.17 190.538 112.83C191.01 114.154 193.274 113.702 193.123 112.072C192.191 100.602 191.886 89.1457 192.019 77.6359C192.167 76.638 191.429 76.0592 190.549 76.1656ZM190.348 110.136C188.903 110.356 187.644 110.642 186.505 111.181C185.896 107.601 185.474 104.088 184.866 100.509C184.82 99.7573 183.955 99.2384 183.262 99.4114C180.238 100.223 173.331 101.015 173.053 105.013C172.965 106.138 173.369 107.648 173.661 108.593C173.833 109.285 175.163 111.44 174.962 111.999C174.66 114.308 170.876 115.479 168.351 116.364C166.772 111.387 165.252 106.537 163.8 101.501C162.872 98.2274 159.404 90.8958 160.167 87.5959C160.723 85.1675 162.742 84.5222 165.066 84.1961C168.457 83.8302 167.89 83.9433 169.265 86.8507C170.581 89.6316 170.57 92.8849 172.452 95.5528C172.757 95.8721 173.317 96.0717 173.756 96.0185C176.081 95.6924 178.553 94.3685 180.825 93.6033C181.332 93.3638 181.659 92.7451 181.673 92.1197C181.409 89.9242 179.89 85.0742 180.438 82.9585C181.648 79.2927 185.911 79.1329 189.42 79.0198C189.188 89.3386 189.455 99.7307 190.348 110.136Z" fill="#0F0E09"/>
<path d="M227.943 81.5271C223.797 79.3117 218.567 80.7022 214.337 82.2391C213.686 80.536 213.095 78.9592 212.445 77.256C212.033 76.0585 211.643 73.9229 210.405 73.2709C209.353 72.6855 207.961 73.3441 206.888 73.6967C204.996 74.2822 202.918 74.8012 201.026 75.3867C200.094 75.0541 198.694 76.0254 199.292 77.2895C201.803 82.5986 204.261 87.4686 205.066 93.4297C205.713 98.0735 206.114 102.524 207.707 106.875C207.767 107.002 207.767 107.002 207.827 107.128C207.686 107.813 207.978 108.758 209.043 108.718C217.248 108.705 233.936 104.68 234.295 94.3008C234.393 89.9231 231.717 83.6094 227.943 81.5271ZM227.841 99.9826C223.255 103.389 216.067 105.551 210.299 105.804C210.239 105.678 210.239 105.678 210.179 105.551C208.108 100.189 208.361 94.5007 207.043 89.0919C206.128 85.1932 204.208 81.4609 202.474 77.7951C203.547 77.4424 204.68 77.2162 205.626 76.9235C206.318 76.7505 207.011 76.5775 207.704 76.4045C208.084 76.2249 208.523 76.1717 208.903 75.992C209.846 78.6399 210.915 81.2279 211.857 83.8758C212.096 84.3814 212.343 84.5744 212.842 84.6476C213.208 85.0933 213.827 85.4193 214.46 85.1199C216.165 84.4679 217.998 83.756 219.756 83.5431C222.141 83.3434 226.202 83.7426 228.172 85.286C232.417 88.6923 231.474 97.1816 227.841 99.9826Z" fill="#0F0E09"/>
<path d="M214.407 90.2501C213.9 90.4896 213.766 90.8622 213.693 91.3611C213.626 91.5474 213.559 91.7337 213.679 91.9865C214.069 94.1221 214.273 96.1912 214.35 98.3202C213.83 99.1851 214.487 100.576 215.739 100.602C219.629 100.309 224.44 98.034 223.733 93.2638C223.026 88.4936 217.639 88.5668 214.407 90.2501ZM220.955 94.2684C220.659 96.2643 218.887 97.1026 217.002 97.3754C216.977 95.6856 216.766 93.9292 216.429 92.2327C218.321 91.6472 221.331 91.4608 220.955 94.2684Z" fill="#0F0E09"/>
<path d="M246.582 60.3377C244.631 60.7968 242.552 61.3157 240.6 61.7748C239.468 62.001 237.523 62.1474 236.443 62.8128C235.17 63.7242 235.336 64.7288 235.554 66.1725C236.281 70.0047 237.702 73.6638 238.363 77.6822C238.852 81.0088 239.728 83.8429 241.542 86.6971C241.908 87.1428 242.281 87.2759 242.594 87.2825C242.721 87.2226 242.907 87.2892 243.034 87.2293C245.425 86.717 247.876 86.3311 250.32 86.2579C250.946 86.2712 251.266 85.9651 251.527 85.5327C251.966 85.4794 252.353 84.9871 252.367 84.3617C252.17 76.4113 251.028 68.7537 248.819 61.136C248.721 59.9451 247.409 59.7921 246.582 60.3377ZM249.758 83.4303C247.627 83.5102 245.555 83.7165 243.477 84.2354C240.878 80.0507 241.064 74.5486 239.791 69.8915C239.447 68.5077 238.117 66.3521 239.338 65.0016C240.238 63.957 244.381 63.5445 246.519 63.1519C248.562 69.765 249.6 76.5444 249.758 83.4303Z" fill="#0F0E09"/>
<path d="M251.907 90.9211C249.417 90.2425 245.194 91.4668 243.885 93.9417C242.83 96.2969 244.81 100.156 246.786 101.386C249.501 103.196 252.174 101.313 254.161 99.2906C254.728 99.1775 255.174 98.8116 255.315 98.1263C255.758 95.1324 255.269 91.8059 251.907 90.9211ZM247.975 98.6587C247.117 97.827 245.914 95.6116 246.815 94.5671C247.588 93.5824 249.98 93.0701 251.225 93.4094C252.843 93.8817 252.934 95.3853 252.653 96.7558C252.526 96.8157 252.526 96.8157 252.399 96.8756C251.425 98.4191 249.565 100.382 247.975 98.6587Z" fill="#0F0E09"/>
<path d="M262.668 40.1073C244.782 26.0586 219.454 27.7342 198.037 28.6234C146.389 30.9679 95.8342 44.2789 49.7188 67.6755C40.3413 72.4469 30.3636 77.3612 23.1956 85.2761C16.2004 92.9957 13.4026 103.1 12.6209 113.307C11.1541 132.587 12.3937 157.322 28.4219 170.68C44.7084 184.309 69.8908 182.621 89.6797 182.193C120.212 181.532 150.589 177.675 180.316 170.684C188.113 168.844 195.852 166.788 203.533 164.517C212.858 161.759 219.143 160.309 228.016 165.448C241.74 173.325 255.2 181.724 268.784 189.851C269.104 190.064 269.483 190.169 269.867 190.15C270.25 190.132 270.618 189.991 270.915 189.748C271.213 189.505 271.425 189.173 271.521 188.8C271.616 188.428 271.59 188.034 271.447 187.677C263.825 167.949 256.205 148.212 248.589 128.467C256.887 125.423 264.28 120.323 270.08 113.643C275.879 106.963 279.897 98.9202 281.759 90.2627C285.606 71.566 277.479 51.7494 262.668 40.1073ZM278.844 75.1556C281.629 97.0169 267.308 117.79 247.127 125.205C246.657 125.031 246.14 125.028 245.668 125.197C245.196 125.367 244.799 125.698 244.547 126.133C244.295 126.567 244.204 127.077 244.291 127.572C244.377 128.067 244.635 128.516 245.019 128.839L266.381 184.193L238.964 167.81C230.645 162.836 222.58 156.441 212.323 158.375C200.612 160.586 189.168 165.012 177.507 167.684C165.621 170.427 153.627 172.663 141.525 174.392C117.107 178.001 92.4124 179.398 67.741 178.567C58.0022 178.174 47.8657 177.16 38.8259 173.008C27.8312 167.928 21.2356 158.252 18.3603 146.656C15.813 136.376 15.4065 125.169 16.0958 114.606C16.8436 103.049 20.1797 92.2585 29.082 84.4055C37.3868 77.091 48.1517 72.2324 58.0446 67.4636C68.5434 62.4109 79.2668 57.8709 90.2151 53.8435C112.651 45.627 135.845 39.6564 159.458 36.0189C182.477 32.4638 206.544 30.3874 229.822 32.3367C242.069 33.3653 253.923 36.7606 263.185 45.1988C271.758 53.0351 277.302 63.6459 278.845 75.1673L278.844 75.1556Z" fill="black"/>
</svg>
