<svg width="401" height="281" viewBox="0 0 401 281" fill="none" xmlns="http://www.w3.org/2000/svg">
<g clip-path="url(#clip0)">
<path d="M292.32 112.968C292.984 116.228 296.446 118.964 299.602 116.909C301.653 115.589 303.421 113.489 304.417 111.363C305.249 109.54 305.927 107.712 306.302 105.72C306.876 102.346 305.347 97.2076 300.808 99.0624C298.932 99.7715 297.948 96.8094 299.825 96.1003C303.269 94.6719 306.935 95.8722 308.675 99.3218C310.697 103.552 309.126 109.051 307.148 112.841C305.17 116.63 301.48 120.826 296.987 121.295C292.179 121.907 290.301 117.99 289.354 113.95C288.952 112.086 291.918 111.105 292.32 112.968Z" fill="black"/>
<path d="M296.482 108.48C296.765 109.26 297.048 110.04 297.804 110.528C298.864 111.18 299.954 110.907 300.303 109.685C300.667 108.001 300.157 104.746 298.162 104.372C296.167 103.998 296.88 101.092 298.88 101.312C301.03 101.691 302.516 103.436 303.062 105.613C303.613 107.636 303.99 110.269 302.695 112.077C299.94 115.995 294.787 113.05 293.675 109.312C293.119 107.444 295.931 106.457 296.482 108.48Z" fill="black"/>
<path d="M259.667 77.6601C259.756 79.6676 260.168 81.2231 261.824 82.5113C263.176 83.6353 264.698 84.3023 266.37 85.1284C268.195 85.9595 266.716 88.6863 264.89 87.8551C262.761 86.8597 260.632 85.8643 258.991 84.114C257.351 82.3638 256.805 80.187 256.572 77.8665C256.484 75.859 259.425 75.6476 259.667 77.6601Z" fill="black"/>
<path d="M264.607 63.6371C267.313 65.885 269.227 68.7237 270.04 72.1428C270.442 74.0064 267.63 74.993 267.074 73.1244C266.399 70.1724 264.779 67.806 262.526 65.8814C261.024 64.5983 263.106 62.354 264.607 63.6371Z" fill="black"/>
<path d="M143.079 91.8561C145.259 91.3112 147.264 91.3773 149.069 92.8246C150.571 94.1077 148.49 96.352 146.988 95.0689C146.083 94.4222 144.839 94.6896 143.754 94.808L143.6 94.8029C143.579 95.419 143.713 96.0402 143.693 96.6564C143.951 98.2068 145.027 103.022 147.361 102.483C149.227 102.082 150.211 105.044 148.344 105.445C143.054 106.658 140.949 100.267 140.469 96.0874C140.391 93.7719 140.75 92.2418 143.079 91.8561Z" fill="black"/>
<path d="M168.618 29.1697C177.993 49.2159 202.94 37.2405 219.626 41.6456C221.462 42.1688 220.898 45.2341 218.908 44.7058C200.54 39.7826 176.036 52.3895 165.651 30.1513C164.941 28.2775 167.902 27.45 168.618 29.1697Z" fill="black"/>
<path d="M20.8204 259.289C31.5428 252.55 40.0582 242.5 44.1665 230.299C47.7664 219.47 47.0676 207.883 49.5979 196.71C51.9435 186.456 57.4266 179.39 65.0692 172.395C69.6846 168.229 74.4492 164.223 77.4136 158.616C80.3729 153.162 81.193 147.021 82.3166 141.045C83.8656 131.536 85.8518 122.812 91.3654 114.822C97.0485 106.374 104.681 99.6871 111.568 92.2045C120.217 82.7754 124.378 73.6609 127.103 61.261C129.284 51.3102 132.947 43.2586 140.734 36.5766C142.167 35.2362 144.569 37.3199 142.981 38.6553C131.699 48.3059 131.622 60.0222 127.334 72.9874C124.417 81.8346 118.615 89.1988 112.217 95.9266C105.012 103.707 96.747 110.836 91.4961 120.223C85.7521 130.519 86.1373 142.25 82.6866 153.239C79.5799 163.159 72.8933 169.26 65.41 176.106C55.2182 185.485 52.0913 196.021 50.7188 209.545C48.3007 231.361 41.8247 249.805 22.4307 261.964C20.8527 262.991 19.2423 260.316 20.8204 259.289Z" fill="black"/>
<path d="M46.9181 245.193C49.5264 236.336 54.7316 228.335 57.35 219.17C57.8737 217.337 60.9434 217.9 60.4147 219.887C58.3199 227.22 55.6182 234.224 52.3047 241.053C49.659 246.363 48.8947 250.809 51.0204 256.584C52.1528 259.706 53.2953 262.519 53.6463 265.923C53.8888 267.935 50.7988 267.988 50.5512 266.129C49.5712 258.387 44.6538 252.982 46.9181 245.193Z" fill="black"/>
<path d="M181.627 107.622C182.471 110.117 185.257 109.9 186.259 107.62C187.091 105.797 189.822 107.275 188.99 109.098C186.981 113.812 180.359 113.285 178.66 108.603C178.109 106.581 181.071 105.753 181.627 107.622Z" fill="black"/>
<path d="M153.475 90.3487C153.33 90.0355 153.346 89.5734 153.664 89.2756C156.125 84.8851 160.253 81.4747 165.512 81.1856C171.08 80.9066 174.989 84.1194 178.405 88.2411C178.703 88.5594 178.842 89.0265 178.678 89.3295C178.971 89.8018 179.1 90.577 178.462 91.1728C174.623 95.2094 171.874 98.9736 165.704 98.7702C160.768 98.6074 156.695 95.6975 153.578 91.894C153.29 91.2677 153.156 90.6465 153.475 90.3487ZM167.359 95.4324C171.389 94.9486 173.177 92.232 175.583 89.5358C173.057 86.5228 169.904 83.7975 165.57 84.1172C161.549 84.293 158.373 86.9637 156.41 90.2913C159.234 93.6225 162.865 95.901 167.359 95.4324Z" fill="black"/>
<path d="M196.118 87.7955C195.998 85.2449 197.971 83.08 200.525 82.96C203.079 82.84 205.248 84.8104 205.368 87.361C205.488 89.9116 203.515 92.0765 200.961 92.1965C198.407 92.3165 196.239 90.3461 196.118 87.7955Z" fill="black"/>
<path d="M157.508 88.0665C157.388 85.5159 159.361 83.351 161.915 83.231C164.469 83.111 166.637 85.0814 166.758 87.632C166.878 90.1826 164.905 92.3475 162.351 92.4675C159.797 92.5875 157.628 90.6171 157.508 88.0665Z" fill="black"/>
<path d="M0.677977 251.994C6.60169 240.934 19.0684 237.49 26.633 228.179C36.7671 215.869 27.1608 198.128 32.8776 183.977C34.8911 179.109 38.1284 174.59 42.1014 171.174C48.1406 165.977 56.0682 164.388 62.5498 159.822C68.7178 155.399 70.5923 150.064 69.2885 142.774C68.9071 140.294 68.2172 137.804 68.1493 135.181C67.7558 128.383 69.2133 121.647 72.1929 115.577C78.825 101.764 92.9053 96.2148 104.321 87.1853C112.884 80.3748 117.457 72.8158 117.519 61.5616C117.599 54.4712 117.036 48.1307 119.881 41.4399C125.398 28.6695 136.044 24.2405 148.501 21.1048C163.61 17.1315 177.206 7.55713 192.841 6.37661C228.126 3.99381 244.018 41.8332 253.15 69.2727C253.633 68.6719 253.957 68.22 254.29 67.46C256.099 64.1274 256.848 60.143 258.507 56.6512C260.336 52.7025 263.017 46.3147 267.979 45.7073C267.187 32.2662 282.306 27.9848 293.025 26.0254C308.557 23.2995 324.603 23.6745 339.937 26.9557C353.126 29.7036 366.762 32.9288 370.146 47.3806C371.758 54.6809 371.813 62.3925 377.969 67.684C383.221 72.3288 390.409 74.4163 395.008 80.119C404.787 92.6229 389.535 100.909 384.568 111.076C380.93 118.358 381.746 126.403 379.029 133.869C376.826 139.81 371.51 141.793 365.891 143.612C361.367 145.005 356.854 146.09 352.762 148.422C350.557 149.737 348.491 151.519 345.987 152.516C339.731 154.931 331.442 153.424 325.333 151.372C323.96 150.864 322.433 150.352 321.065 149.69C323.871 158.263 326.99 166.692 331.831 174.408C341.808 180.904 349.355 190.868 355.811 201.103C368.287 220.789 374.965 243.059 387.914 262.452C389.097 264.033 386.414 265.795 385.39 264.065C374.504 247.67 369.098 228.988 359.148 212.315C351.538 199.575 343.213 185.114 330.356 176.98C330.202 176.975 329.899 176.811 329.75 176.652C327.327 175.184 324.746 173.865 321.846 172.845C311.767 169.428 300.775 170.299 290.776 173.825C285.466 175.654 279.821 178.243 275.38 181.798C270.616 185.804 268.104 191.734 265.757 197.362C257.199 218.051 251.522 240.376 244.641 261.736C244.471 262.193 244.147 262.645 243.68 262.784C242.739 263.216 241.515 262.867 241.406 261.475C240.506 246.643 241.297 232.021 243.785 217.454C230.821 212.555 215.464 214.67 202.007 210.679C199.842 220.168 201.954 231.031 202.251 240.755C202.538 250.788 202.362 260.805 201.877 270.811C201.811 272.814 198.721 272.866 198.782 271.018C199.302 259.933 199.354 248.987 199.103 237.876C198.796 228.46 196.962 218.531 199.272 209.356C199.446 208.745 199.765 208.447 200.233 208.308C200.407 207.697 201.045 207.101 201.96 207.44C202.268 207.45 202.418 207.609 202.726 207.619L202.731 207.465C207.775 194.987 211.143 181.838 212.052 168.299C212.589 161.377 211.276 154.395 210.111 147.572C209.802 147.562 209.494 147.552 209.19 147.388C207.823 146.726 206.219 148.523 205.119 149.104C204.019 149.684 203.083 149.962 201.844 150.075C201.285 152.986 200.577 155.739 200.207 157.577C197.662 169.212 194.747 182.685 187.63 192.473C187.62 192.781 187.614 192.935 187.45 193.238C183.884 198.363 181.392 203.678 179.513 209.167C179.662 209.326 179.965 209.49 180.115 209.649C181.571 212.318 182.867 215.137 181.835 218.341C180.813 221.237 178.583 223.322 176.357 225.253C176.188 225.71 175.71 226.157 175.088 226.29C174.933 226.285 174.625 226.275 174.466 226.424C173.942 228.257 173.418 230.09 173.049 231.928C169.213 245.217 165.224 258.5 162.309 271.973C161.934 273.966 158.87 273.248 159.244 271.256C162.344 256.863 166.971 242.984 170.682 228.767C170.857 228.155 171.037 227.39 171.211 226.779C163.479 227.141 154.886 225.47 147.544 223.378C146.198 226.725 144.852 230.073 143.357 233.262C138.179 245.119 131.793 256.164 124.491 266.871C123.356 268.53 120.625 267.052 121.76 265.394C131.005 251.975 138.737 237.581 144.489 222.352C144.186 222.187 144.042 221.874 144.052 221.566C141.387 218.086 141.514 214.235 142.731 210.112C143.943 206.143 145.253 203.873 148.836 202.912C148.799 199.364 148.299 195.801 147.027 192.213C144.752 186.279 142.601 181.273 143.277 174.82C144.004 166.825 147.04 159.061 149.294 151.58C149.468 150.969 149.643 150.358 149.817 149.747C149.668 149.588 149.678 149.28 149.683 149.126C149.646 145.578 150.226 142.051 151.263 138.693C150.959 138.529 150.656 138.364 150.363 137.892C146.478 129.283 138.69 121.933 128.644 122.219C119.523 122.535 112.487 129.858 107.019 136.463C97.5379 147.715 90.9159 161.22 84.916 174.591C78.7416 188.573 73.4723 203.202 70.6556 218.375C69.1474 226.652 68.4002 235.262 68.5886 243.595C68.8126 250.849 69.5095 257.811 68.191 265.015C67.8165 267.007 64.9061 266.294 65.1264 264.297C67.0245 253.566 64.9222 242.394 65.7456 231.474C66.3437 222.704 68.0164 214.124 70.306 205.565C75.0599 187.835 82.431 170.346 91.1446 154.288C97.392 142.776 106.224 127.801 118.628 121.58C118.633 121.426 118.793 121.277 118.798 121.123C121.567 116.743 124.342 112.208 126.201 107.336C128.06 102.463 128.053 97.9907 128.684 92.9231C129.534 85.8581 132.423 82.5611 138.107 78.7395C143.479 75.0618 147.935 71.0454 148.014 63.9551C148.172 59.1802 146.777 54.6625 147.088 49.8928C147.595 43.8959 150.529 39.2126 155.582 35.8327C157.165 34.6514 158.929 37.3309 157.197 38.3531C146.763 45.7188 152.145 55.7648 150.879 66.0541C150.238 71.4298 147.484 75.3481 143.362 78.6044C139.872 81.419 135.024 83.2637 132.877 87.5103C131.058 91.151 131.528 95.6382 131.093 99.4787C130.227 107.006 126.923 113.527 123.167 119.725C135.48 116.277 146.64 124.354 152.151 135.176C152.485 134.416 152.819 133.656 153.148 133.05C153.153 132.896 153.312 132.747 153.466 132.752C152.725 131.802 151.99 130.699 151.408 129.6C149.098 124.744 148.669 119.024 148.379 113.772C136.76 114.931 133.56 99.5601 135.393 90.8314C136.296 86.8521 138.14 82.4413 142.798 81.6697C145.435 81.2941 147.564 82.2895 149.051 84.0347C152.225 76.738 155.559 69.2923 157.206 61.4827C158.664 54.7462 159.191 48.1332 162.33 41.9147C162.067 40.5183 163.794 39.65 164.699 40.2967C165.306 40.6251 165.749 41.2565 165.569 42.0215C167.447 45.9383 173.834 48.9245 177.49 50.4328C182.514 52.6031 187.898 53.2432 193.307 53.1132C200.726 52.8953 208.026 51.5941 215.172 50.2878C215.794 50.1541 216.545 50.7957 216.679 51.4169C218.539 60.5757 220.399 69.7346 222.413 78.8985C223.065 77.8407 223.872 76.7879 224.823 76.0483C225.46 75.4525 226.242 75.1699 227.023 74.8873C225.112 67.2687 221.819 59.4503 221.764 51.7388C221.676 49.7313 224.766 49.679 224.859 51.5324C225.063 59.4031 228.506 67.3806 230.257 75.1482C230.56 75.3124 230.715 75.3174 231.018 75.4816C232.303 73.9821 234.03 73.1139 236.179 73.4931C238.637 73.8826 240.273 75.7869 240.814 78.1176C241.127 77.9738 241.436 77.9839 241.744 77.9941C241.765 77.378 242.088 76.9261 242.715 76.6384C243.656 76.2068 244.592 75.9293 245.533 75.4977C236.208 67.943 229.109 58.4572 224.534 47.3584C224.246 46.7321 224.415 46.2752 224.734 45.9773C222.611 35.422 209.658 30.2147 200.13 28.8211C190.756 27.4326 181.425 29.4378 172.267 26.2061C170.436 25.5289 171.001 22.4636 172.986 23.1459C185.348 27.5627 198.755 23.6874 211.256 28.5713C219.638 31.9316 227.173 37.577 228.097 47.0133C228.092 47.1674 228.086 47.3214 228.086 47.3214C232.682 57.8041 239.647 66.6687 248.678 73.7511C249.624 73.1656 250.565 72.734 251.516 71.9944C251.367 71.8353 251.372 71.6812 251.223 71.5221C242.096 43.9285 225.359 3.59419 188.842 10.5622C173.928 13.3085 160.219 21.6455 145.418 25.629C138.406 27.5565 131.975 30.5825 127.458 36.4472C121.337 44.1093 121.367 52.591 121.365 61.9968C121.378 94.3783 79.9385 96.0955 72.9577 125.162C70.0935 137.095 78.4639 150.169 68.7247 159.871C65.2144 163.302 60.8244 165.316 56.4293 167.484C48.2713 171.378 41.3371 175.621 37.3558 183.97C30.5694 197.778 39.918 213.969 32.2163 227.438C25.6553 239.095 10.5765 242.144 4.1596 254.114C2.58158 255.141 -0.154228 253.817 0.677977 251.994ZM308.628 86.6761C310.644 86.4342 310.437 83.3435 308.421 83.5854C300.833 84.2603 281.544 88.5584 283.384 74.8957C283.604 72.8984 280.694 72.1857 280.319 74.1779C278.074 90.7569 298.562 87.5777 308.628 86.6761ZM369.472 72.4922C360.155 69.4094 355.324 61.3861 351.433 52.9313C349.277 48.0801 347.28 43.08 342.908 39.8519C331.902 31.7792 319.351 42.4673 307.832 35.9196C306.165 34.9395 304.686 37.6662 306.352 38.6463C311.505 41.5918 316.57 42.5298 322.472 41.4909C326.508 40.853 330.265 39.2808 334.415 39.8802C340.868 40.864 344.427 45.2989 347.026 50.7814C352.084 61.2793 356.834 71.767 368.749 75.7065C370.744 76.0806 371.303 73.1694 369.472 72.4922ZM368.604 98.831C370.609 98.8971 370.402 95.8064 368.397 95.7402C360.844 95.337 358.928 87.8724 356.016 82.5337C354.122 79.079 351.756 75.917 349.39 72.7551C346.133 68.4844 342.713 64.5167 337.524 62.6495C329.435 59.7614 320.757 60.7087 312.694 57.0505C304.024 53.0639 298.72 45.3334 292.305 38.4914C290.963 37.0594 288.881 39.3037 290.224 40.7357C296.489 47.4185 301.798 54.995 310.155 59.1255C318.054 63.0867 326.09 62.8891 334.363 64.8581C344.93 67.5195 351.007 79.9014 355.813 88.6948C358.715 94.3416 362.13 98.4633 368.604 98.831ZM324.524 82.2661C331.169 86.8027 335.747 93.1215 337.493 101.043C338.446 104.929 338.468 108.939 338.49 112.949C338.414 115.259 337.701 118.166 338.55 120.507C341.252 127.534 354.1 126.57 359.719 124.751C361.59 124.196 360.607 121.234 358.736 121.789C351.714 124.025 341.076 123.52 341.386 114.124C341.528 109.811 341.511 105.647 340.568 101.453C338.842 92.9152 334.443 85.8313 327.356 80.6634C319.21 74.8437 310.006 72.9982 300.509 70.6804C286.728 67.142 282.141 51.7254 281.796 38.7616C281.708 36.7542 278.613 36.9605 278.701 38.968C279.127 49.4673 282.109 62.0554 290.199 69.5695C293.8 72.7721 298.104 73.3766 302.546 74.4483C310.377 75.7859 318.029 77.8886 324.524 82.2661ZM239.87 186.332C240.187 195.44 240.818 204.404 241.598 213.527C243.13 213.886 244.503 214.394 245.871 215.056C246.787 215.394 246.91 216.324 246.422 217.078C246.566 217.392 246.561 217.546 246.546 218.008C244.617 229.663 243.769 241.354 244 253.08C250.248 232.162 255.906 210.452 265.199 190.868C268.019 184.947 271.395 180.895 275.98 177.654C275.985 177.5 275.99 177.346 275.996 177.192C279.348 164.504 271.186 145.115 260.18 137.042C258.849 139.928 257.37 142.655 254.666 145.033C248.786 150.081 241.316 151.84 239.798 160.424C237.991 168.383 239.527 177.994 239.87 186.332ZM208.989 144.143C208.473 141.042 207.953 138.095 207.592 134.999C205.844 136.484 204.4 138.132 203.1 140.094C202.781 140.392 202.463 140.69 202.154 140.68C202.242 142.687 202.176 144.689 201.951 146.841C204.449 145.998 206.227 143.589 208.989 144.143ZM156.164 219.499C156.473 219.509 156.627 219.514 156.93 219.678C159.826 220.853 163.821 221.447 165.624 218.269C166.939 215.845 166.116 212.734 164.007 211.122C162.953 210.317 161.58 209.809 160.191 209.763C158.345 209.548 157.245 210.128 156.264 211.792C154.64 214.206 154.544 217.132 156.164 219.499ZM150.221 156.237C149.189 159.441 148.306 162.804 147.274 166.008C145.169 173.648 144.955 180.117 147.797 187.613C149.495 192.294 151.209 196.514 151.355 201.453C151.345 201.761 151.335 202.069 151.324 202.377C151.479 202.383 151.633 202.388 151.782 202.547C158.617 206.01 167.815 208.01 175.672 208.577C177.711 202.939 180.202 197.625 183.779 192.192C183.789 191.883 183.799 191.575 184.118 191.278C190.084 183.61 193.067 172.761 195.073 163.421C196.146 158.985 201.507 141.583 197.659 136.522C195.873 143.865 193.932 151.202 192.151 158.39C191.622 160.378 188.712 159.665 189.086 157.673L195.267 134.13C195.277 133.822 195.287 133.514 195.293 133.36C195.821 131.373 196.365 128.924 195.341 127.194C194.024 124.992 191.665 126.302 189.928 127.478C187.329 136.027 187.642 145.289 184.889 153.834C184.366 155.667 181.296 155.103 181.825 153.116C184.587 144.263 184.121 134.996 187.038 126.149C186.893 125.836 186.904 125.528 186.914 125.22C187.114 123.839 185.587 123.326 184.507 123.29C183.124 123.09 182.491 123.532 181.988 124.749C181.824 125.052 181.664 125.201 181.505 125.35C179.832 133.93 178.16 142.51 176.333 151.084C175.958 153.076 172.894 152.359 173.268 150.366C175.105 141.484 176.788 132.596 178.62 123.867C175.945 120.695 172.016 132.13 171.842 132.741C171.159 134.723 170.779 136.869 170.091 139.005C168.895 142.512 167.549 145.86 166.203 149.208C164.169 154.692 163.746 162.851 159.28 167.175C158.776 168.392 156.766 168.48 156.493 167.391C156.2 166.919 156.066 166.298 156.544 165.851C156.645 162.771 156.901 159.695 157.008 156.461C157.038 155.536 157.993 150.017 157.406 149.072C152.977 142.913 150.57 155.015 150.221 156.237ZM152.534 142.281C152.848 142.137 153.321 141.845 153.629 141.855C161.104 139.942 161.042 151.197 160.31 159.345C161.517 155.53 162.281 151.083 163.467 147.884C163.971 146.667 164.315 145.599 164.664 144.377C164.515 144.218 164.361 144.213 164.366 144.059C161.701 140.579 158.08 137.992 154.943 134.805C153.941 137.085 153.083 139.678 152.534 142.281ZM218.628 76.615C218.473 76.6099 218.324 76.4508 218.175 76.2916C213.536 71.8212 207.022 72.6857 201.13 73.4166C199.114 73.6585 199.062 70.5729 200.923 70.3258C206.815 69.595 212.856 69.0232 217.849 72.1176C216.932 67.1531 216.015 62.1886 214.63 57.3629C212.813 51.5977 209.965 53.6626 204.69 54.4138C200.814 54.9027 196.932 55.5457 193.071 55.5725C184.418 55.7497 169.219 53.0897 163.616 45.041C160.92 51.8909 160.676 59.2842 158.586 66.4625C158.232 67.8386 157.729 69.0555 157.22 70.4265C162.546 68.135 168.417 68.0203 174.125 68.2085C176.13 68.2746 176.182 71.3603 174.331 71.2992C168.162 71.0957 161.832 71.0412 156.322 74.2518C156.163 74.4007 155.854 74.3905 155.695 74.5395C154.01 78.8014 152.176 82.9042 150.342 87.007C150.337 87.161 150.337 87.161 150.487 87.3201C150.893 89.0297 148.544 90.0316 147.664 88.6148C147.515 88.4557 147.366 88.2966 147.217 88.1374C142.228 84.889 139.287 85.1004 138.554 88.6227C138.055 89.6857 137.866 90.7588 137.671 91.9859C137.281 94.4402 137.205 96.7506 137.586 99.2303C138.344 104.344 141.838 110.781 148.038 110.06C148.501 110.076 148.809 110.086 149.108 110.404C149.884 110.275 150.953 110.619 151.072 111.702C151.316 118.341 151.546 125.441 155.687 130.975C158.65 134.773 162.733 137.375 166.015 140.875C167.391 136.603 168.613 132.326 170.138 128.213C171.653 124.408 176.998 116.875 180.866 121.32C182.14 120.128 183.847 119.876 185.997 120.255C187.992 120.63 189.648 121.918 190.05 123.781C192.409 122.471 195.046 122.096 197.289 124.329C199.532 126.561 199.43 129.642 198.871 132.553C198.866 132.707 199.01 133.02 198.845 133.323C200.203 134.293 201.088 135.556 201.654 137.117C203.268 135.011 205.185 133.07 207.4 131.447L207.559 131.298C206.994 120.331 208.554 110.514 210.76 99.7932C210.945 98.8741 211.13 97.955 211.314 97.0359C206.472 98.7266 202.59 99.3696 197.581 96.7372C195 95.4185 191.24 92.3648 192.277 89.0067C193.314 85.6487 199.288 82.4533 202.398 81.7849C207.842 80.5767 212.856 83.055 216.431 87.0278C217.218 86.5912 218.148 86.4677 219.387 86.3543C219.577 85.2812 219.921 84.2132 220.265 83.1452C219.411 80.9583 219.019 78.7866 218.628 76.615ZM212.094 92.1274C212.263 91.6704 212.428 91.3674 212.597 90.9104C212.757 90.7615 212.767 90.4534 212.926 90.3045C213.09 90.0015 213.255 89.6986 213.573 89.4007C213.733 89.2517 213.738 89.0977 213.743 88.9437C209.114 84.1652 200.522 82.494 195.989 88.8208C194.576 89.5451 194.535 90.7773 196.027 92.3685L197.534 93.4976C198.742 94.3084 200.264 94.9754 201.642 95.3292C205.01 96.2113 207.987 94.9217 211.112 93.7912C211.267 93.7963 211.426 93.6473 211.58 93.6524C211.75 93.1954 211.76 92.8874 211.929 92.4304C211.929 92.4304 211.929 92.4304 211.77 92.5793C212.084 92.4355 212.089 92.2814 212.094 92.1274ZM244.615 93.9709C244.65 92.8927 244.67 78.2448 240.419 80.7259C238.546 90.6869 239.604 100.744 239.577 110.92C239.511 112.923 236.421 112.975 236.482 111.127C236.524 100.489 235.327 89.9639 237.524 79.5511C237.375 79.392 237.385 79.0839 237.395 78.7759C237.595 77.3947 236.566 75.8188 235.023 75.7679C233.789 75.7272 232.993 76.4719 232.5 77.3808C232.5 77.3808 232.5 77.3808 232.495 77.5349C230.741 88.5791 230.519 99.9822 230.153 111.072C230.087 113.075 226.997 113.127 227.058 111.279C227.573 100.348 227.779 89.4066 229.22 78.5062C229.076 78.1931 228.932 77.88 229.101 77.423C228.355 76.6274 226.952 77.0437 226.315 77.6395C225.364 78.3791 224.86 79.596 224.362 80.659C223.196 83.2418 222.338 85.8349 221.63 88.587C221.625 88.741 221.465 88.89 221.46 89.044C220.266 97.177 219.837 105.489 220.185 113.673C220.273 115.681 217.183 115.733 217.09 113.88C216.742 105.696 217.16 97.6913 218.196 89.7073C212.228 92.7486 210.411 115.047 210.105 119.663C209.395 131.821 211.482 143.454 214.027 155.257C217.483 172.178 211.409 192.486 205.024 208.158C215.751 210.67 227.504 210.132 238.235 212.491C237.155 198.424 236.383 184.366 236.228 170.329C236.045 161.843 235.677 154.275 242.965 148.656C247.401 145.256 252.717 143.272 255.815 138.286C258.091 134.815 258.856 130.368 261.739 127.225C264.622 124.082 270.637 124.28 273.053 121.276C274.171 115.454 272.854 113.251 268.957 114.357C266.788 114.593 264.454 115.133 262.423 115.837C258.675 117.101 255.37 118.997 252.358 121.365C251.094 122.248 249.901 120.975 250.095 119.748C247.631 114.887 246.096 109.902 245.349 104.48C244.998 101.077 244.806 97.5237 244.615 93.9709ZM244.516 78.2397C245.868 79.3637 246.887 81.2476 247.284 83.2653C248.226 87.4596 247.606 92.2192 247.777 96.3881C248.151 103.802 249.151 110.928 252.326 117.663C258.797 113.405 272.445 106.916 277.949 113.265C280.033 115.647 279.304 119.015 277.685 121.275C273.636 127.001 265.8 125.817 262.034 132.323C261.71 132.775 261.536 133.386 261.212 133.838C272.83 142.085 281.48 160.72 279.157 174.983C280.889 173.961 282.616 173.093 284.652 172.235C293.74 168.217 303.843 166.237 313.843 167.338C318.301 167.948 322.43 169.163 326.231 170.985C322.444 164.075 319.911 156.59 317.378 149.105C317.245 148.484 317.414 148.027 317.738 147.575C315.321 145.954 313.068 144.029 311.761 141.519C308.705 135.867 310.476 128.987 311.44 123.159C313.497 112.279 319.612 90.7391 301.196 91.982C294.234 92.3692 285.492 99.9449 278.493 96.7843C273.772 94.7783 273.806 89.0742 273.331 84.7411C272.882 79.6378 272.746 74.3907 272.919 69.1537C273.107 63.4547 276.752 51.2393 270.057 48.243C269.743 48.3868 269.43 48.5307 269.126 48.3665C262.524 47.2236 258.814 66.0673 256.369 69.9957C253.594 74.53 249.05 76.5389 244.516 78.2397Z" fill="black"/>
</g>
<defs>
<clipPath id="clip0">
<rect width="392" height="268" fill="white" transform="matrix(-0.999457 -0.0329616 -0.0329616 0.999457 400.621 12.9209)"/>
</clipPath>
</defs>
</svg>
