<svg width="339" height="392" viewBox="0 0 339 392" fill="none" xmlns="http://www.w3.org/2000/svg">
<g clip-path="url(#clip0)">
<path d="M244.509 244.341C246.108 244.359 247.704 244.505 249.28 244.778C249.528 244.815 249.76 244.924 249.947 245.091C249.321 242.335 248.141 239.736 246.478 237.452C245.649 239.695 244.99 241.998 244.509 244.341Z" fill="black"/>
<path d="M337.47 314.231C335.08 304.639 331.998 295.335 330.054 285.611C326.049 265.833 323.511 245.816 319.423 226.063C314.974 204.538 309.032 183.317 300.058 163.21C301.257 162.737 302.332 161.998 303.202 161.048C304.073 160.099 304.717 158.964 305.085 157.73C305.403 156.785 305.447 155.769 305.211 154.8C304.974 153.832 304.468 152.95 303.75 152.258C304.553 151.599 305.112 150.691 305.341 149.678C305.56 148.518 305.516 147.322 305.211 146.181C304.905 145.04 304.347 143.982 303.577 143.086C304.392 142.148 304.871 140.964 304.937 139.723C305.003 138.735 304.746 137.752 304.205 136.923C303.664 136.094 302.868 135.463 301.937 135.125C301.901 134.974 301.837 134.832 301.748 134.705C303.758 131.853 302.028 128.466 298.707 127.502C296.012 126.678 292.939 127.222 290.03 128.269C283.207 119.344 269.725 117.704 259.779 114.094C247.023 109.463 234.72 103.381 224.823 94.0363C228.845 85.293 231.353 75.9302 232.239 66.3471C232.305 65.6466 231.613 65.1604 231.003 65.111L202.986 62.9601C202.623 55.7246 202.005 48.4068 200.217 41.4103C201.123 41.4598 202.038 41.501 202.953 41.5092C203.574 41.6907 204.235 41.6907 204.856 41.5092C206.385 41.4868 207.912 41.3851 209.43 41.2043C209.645 41.199 209.856 41.1381 210.041 41.0275C210.226 40.9169 210.38 40.7603 210.487 40.573C210.594 40.3857 210.65 40.1739 210.652 39.9582C210.653 39.7425 210.598 39.5302 210.493 39.3419C206.793 33.5238 202.953 27.8541 197.259 23.8656C196.805 19.5474 198 15.1056 196.764 10.878C195.754 7.77354 193.683 5.12421 190.914 3.39534C183.555 -1.46675 173.707 0.0990089 165.492 1.17032C158.957 2.02736 149.118 3.1234 145.896 9.88912C144.108 13.6799 143.869 18.575 143.819 22.6954C143.819 24.4836 144.05 26.4532 143.21 28.1261C142.559 29.4117 141.199 30.5983 140.292 31.7438L134.944 38.3365C134.804 38.5198 134.713 38.7361 134.679 38.9647C134.646 39.1934 134.672 39.4267 134.755 39.6424C134.837 39.8581 134.974 40.0491 135.151 40.197C135.329 40.3449 135.541 40.4449 135.768 40.4873C135.824 40.6695 135.931 40.8314 136.078 40.953C136.224 41.0746 136.403 41.1505 136.592 41.1713C138.648 41.4619 140.722 41.6024 142.797 41.5916C141.384 43.5819 140.238 45.7484 139.386 48.0359C138.224 47.2119 136.914 46.5608 135.422 47.1459C133.23 48.0195 133.016 50.8626 132.728 52.9145C132.283 56.0131 131.384 62.3256 133.832 65.2758C128.368 64.4517 122.097 64.7566 120.062 70.2203C117.763 76.3432 122.073 83.1913 126.003 88.8446C120.088 87.9273 114.122 87.3768 108.138 87.1964C107.933 87.0498 107.69 86.9641 107.438 86.9492C106.152 86.8585 104.966 87.4271 104.883 88.8528C104.801 90.2785 105.707 90.7812 106.762 90.913C112.308 92.8166 118.068 93.7066 123.853 94.4648C121.71 104.659 113.651 111.639 105.864 118.108C104.99 118.833 105.757 120.176 106.737 120.217L113.981 120.522C109.77 127.041 108.904 134.762 109.16 142.435C109.481 152.324 110.511 162.213 110.61 172.102C110.651 176.881 110.388 181.661 110.462 186.441C110.536 191.22 111.286 196.025 111.731 200.821C112.56 210.99 112.223 221.22 110.726 231.312V231.395C110.689 231.515 110.67 231.64 110.668 231.765C110.734 235.465 110.363 240.262 111.904 243.69C112.01 243.878 112.164 244.035 112.351 244.144C112.538 244.253 112.751 244.309 112.967 244.308L113.733 244.258C114.728 252.461 115.651 260.669 116.502 268.882C116.889 272.648 117.483 276.488 117.557 280.279C117.631 284.07 116.733 288.009 116.403 291.866C115.606 299.53 115.331 307.239 115.579 314.94C116 323.132 117.145 331.084 116.708 339.317C116.691 339.484 116.711 339.653 116.768 339.811C116.825 339.97 116.918 340.113 117.038 340.23C117.159 340.348 117.305 340.436 117.464 340.489C117.624 340.542 117.794 340.558 117.961 340.536C119.205 341.36 121.455 340.915 122.971 340.536C126.267 339.712 129.234 338.212 132.653 337.916C135.682 337.757 138.719 337.907 141.718 338.361C143.987 338.722 146.285 338.871 148.582 338.806C149.48 343.142 150.091 347.533 150.412 351.95C150.7 356.227 150.14 360.636 150.585 364.871C150.665 365.831 150.916 366.769 151.326 367.64C151.248 367.811 151.209 367.997 151.211 368.184C151.211 372.546 151.192 376.906 151.153 381.262C151.153 383.347 150.651 386.405 151.977 388.242C153.304 390.08 155.636 389.932 157.746 389.891C161.8 389.891 165.863 389.891 169.909 389.767C171.68 389.767 173.312 389.932 174.293 388.226C175.199 386.652 174.424 384.155 173.65 382.696C172.426 380.588 170.501 378.975 168.211 378.139C167.132 377.702 165.146 377.719 164.247 377.125C162.047 375.7 162.599 372.873 162.649 370.615H162.723C162.906 370.661 163.098 370.665 163.283 370.627C163.468 370.588 163.643 370.509 163.793 370.394C163.943 370.279 164.066 370.132 164.152 369.964C164.238 369.795 164.284 369.609 164.289 369.42C164.091 363.119 163.78 356.815 163.357 350.508C163.143 347.36 162.896 344.214 162.616 341.072C162.459 339.349 162.533 337.471 161.99 335.814C163.835 335.575 165.698 335.41 167.56 335.303C169.628 335.18 175.726 334.092 177.407 335.452C177.583 335.617 177.803 335.727 178.04 335.771C178.277 335.814 178.522 335.788 178.744 335.696C178.967 335.604 179.158 335.449 179.295 335.251C179.432 335.053 179.509 334.819 179.517 334.578C179.616 333.424 179.739 332.262 179.88 331.084C188.182 332.355 196.553 333.134 204.947 333.416C205.571 344.042 205.527 354.696 204.815 365.316C204.814 365.587 204.903 365.851 205.066 366.067C205.23 366.283 205.46 366.439 205.722 366.511L205.886 366.552C205.846 366.737 205.846 366.928 205.886 367.113C207.295 372.123 207.501 377.394 206.488 382.498C206.059 384.682 205.219 386.718 207.024 388.49C209.117 390.542 212.858 391.118 215.602 391.473C218.758 391.868 222.598 392.544 225.491 390.945C229.841 388.588 229.685 382.556 226.315 379.408C224.024 377.266 220.901 377.397 218.503 375.642C216.385 374.085 216.5 372.008 216.08 369.519C215.997 369.058 215.973 368.547 215.907 368.052L216.863 368.118C217.189 368.114 217.501 367.982 217.732 367.751C217.963 367.521 218.095 367.209 218.099 366.882C218.324 355.098 218.266 343.311 217.926 331.521C223.185 329.532 228.902 329.084 234.407 330.227C239.021 331.117 243.578 332.056 248.259 332.534C257.547 333.451 266.911 333.257 276.153 331.957C281.147 331.282 286.14 329.807 291.175 329.485C295.609 329.238 299.605 330.763 304.047 329.963C308.835 329.09 313.441 327.903 318.344 327.705C322.464 327.549 326.749 328.472 330.804 327.771C337.981 326.65 338.953 320.19 337.47 314.231ZM227.732 78.1727C227.501 79.1204 227.254 80.0598 226.99 80.9993C226.933 80.9581 226.891 80.9004 226.834 80.8674C227.18 79.9854 227.48 79.086 227.732 78.1727ZM300.899 159.798C299.459 160.989 297.65 161.644 295.782 161.652C294.438 161.664 293.098 161.509 291.793 161.191L290.73 160.911C288.192 160.499 287.536 158.743 288.761 155.645C289.021 155.649 289.275 155.565 289.482 155.406C289.688 155.248 289.835 155.024 289.898 154.771C291.37 154.846 292.845 154.829 294.315 154.722C296.686 154.664 299.037 154.279 301.303 153.576C303.75 154.433 302.283 158.587 300.899 159.798ZM300.899 150.989H300.784C300.576 150.949 300.362 150.978 300.173 151.072C299.984 151.165 299.831 151.319 299.737 151.508C297.988 151.957 296.194 152.211 294.389 152.266C293.021 152.348 288.794 152.752 287.797 151.87C284.451 148.986 290.887 147.107 292.016 146.662L292.172 146.58C293.788 146.612 295.404 146.502 297.001 146.25C298.637 146.023 300.216 145.492 301.657 144.684C301.968 144.91 302.222 145.204 302.4 145.544C302.577 145.885 302.673 146.262 302.679 146.646C303.371 148.418 302.811 149.876 300.899 150.989ZM301.336 141.924H301.229C300.969 141.895 300.707 141.963 300.494 142.115C300.281 142.267 300.132 142.493 300.075 142.748C299.298 143.147 298.464 143.425 297.603 143.572C295.979 143.916 294.317 144.055 292.658 143.984C291.299 143.984 286.181 143.86 288.275 140.391C288.687 139.707 290.895 138.974 291.966 138.52C292.428 138.52 292.897 138.52 293.351 138.52C294.615 138.442 295.868 138.238 297.092 137.91C297.331 137.845 297.998 137.507 298.682 137.194C298.826 137.297 298.992 137.364 299.166 137.392C299.341 137.419 299.519 137.405 299.688 137.35C302.259 139.042 302.794 140.572 301.294 141.94L301.336 141.924ZM223.554 185.419C223.842 182.823 227.938 182.807 227.674 185.419C227.245 189.505 227.378 193.631 228.07 197.681C228.671 201.241 229.718 206.59 233.154 208.559C238.7 211.724 242.219 204.892 242.458 200.417C242.754 195.473 241.708 190.578 241.477 185.65C241.362 183.004 245.457 183.021 245.597 185.65C245.902 192.242 247.863 199.338 245.655 205.807C243.941 210.817 238.667 214.41 233.294 213.009C223.216 210.43 222.664 193.561 223.554 185.419ZM208.556 100.538C208.675 103.467 208.636 106.399 208.441 109.323C208.251 112.108 209.026 114.902 205.722 115.52C204.007 115.739 202.283 115.871 200.555 115.916C198.842 116.15 197.117 116.282 195.388 116.311C192.916 116.204 192.916 116.006 191.853 113.732C190.287 110.331 188.716 106.933 187.139 103.538C188.268 103.324 189.471 103.208 190.765 103.027L208.556 100.538ZM122.295 76.2855C122.295 76.1784 122.295 76.0795 122.229 75.9724C123.038 76.2647 123.915 76.3104 124.75 76.1035C125.585 75.8967 126.339 75.4466 126.918 74.8104C128.509 73.0469 129.102 69.8659 127.742 67.7727C131.178 67.2618 135.406 67.9623 138.339 68.6957C138.622 68.7586 138.919 68.7214 139.177 68.5903C139.436 68.4592 139.641 68.2425 139.758 67.977C139.874 67.7115 139.895 67.4138 139.817 67.1346C139.739 66.8554 139.566 66.612 139.328 66.446C138.71 58.2463 140.358 48.003 145.871 41.6575C154.4 42.564 163.044 41.5751 171.664 40.8335C177.842 40.2196 184.063 40.1452 190.254 40.611C192.726 40.817 195.141 41.056 197.58 41.2373C200.052 50.3846 200.44 60.1335 200.753 69.5445C201.065 79.4678 200.803 89.4008 199.97 99.2939L193.196 100.242C189.603 100.753 184.082 100.439 181.239 103.044C179.855 104.313 179.113 106.241 178.273 107.873C177.243 109.859 176.13 113.732 174.482 115.182C171.738 117.605 170.09 113.666 168.846 111.4C167.601 109.133 166.596 107.065 165.549 104.807C165.602 104.662 165.623 104.507 165.608 104.354C165.594 104.2 165.546 104.051 165.467 103.919C165.388 103.786 165.28 103.673 165.152 103.587C165.024 103.501 164.878 103.445 164.725 103.423C156.794 102.102 148.77 101.413 140.729 101.362C140.595 101.364 140.462 101.383 140.334 101.42C138.754 99.6904 137.282 97.8657 135.925 95.9564C137.573 96.1707 139.221 96.3849 140.803 96.5745C143.177 96.8629 145.039 97.2008 146.893 95.5608C147.044 95.4071 147.153 95.2166 147.208 95.0082C147.264 94.7998 147.264 94.5806 147.209 94.372C147.154 94.1634 147.046 93.9727 146.895 93.8185C146.745 93.6643 146.556 93.5519 146.349 93.4924C140.793 91.7772 135.138 90.4012 129.415 89.372C126.589 85.2763 123.465 80.9169 122.295 76.2855ZM162.187 105.557C160.243 108.903 158.457 112.339 156.831 115.866L156.32 115.446C151.551 111.846 146.997 107.969 142.682 103.835C149.215 103.976 155.731 104.551 162.187 105.557ZM137.466 93.7479C137.494 93.7074 137.524 93.6689 137.557 93.6325C138.315 93.8138 139.081 94.0116 139.847 94.2093C138.974 94.0693 138.158 93.8962 137.441 93.7479H137.466ZM109.959 117.844C117.376 111.556 124.405 104.486 126.267 94.6708L128.789 94.9922L132.678 95.5032C137.334 102.755 143.317 108.524 150.197 113.814C158.998 120.564 167.074 127.115 170.51 138.108C172.982 146.085 173.584 154.664 173.897 163.111C166.481 149.53 153.502 138.273 137.178 139.163C134.878 139.287 131.409 140.226 129.201 139.344C126.556 138.298 128.319 133.732 128.756 131.483C129.225 129.093 129.802 126.728 130.503 124.404C130.816 123.341 131.796 121.561 131.525 120.366C130.865 117.523 125.756 118.52 123.704 118.429L109.959 117.844ZM113.074 176.791C113.198 167.33 112.596 157.886 111.962 148.451C111.327 138.85 110.948 128.887 116.824 120.687L116.873 120.613L122.089 120.835C123.086 120.877 128.558 120.407 129.003 120.967C129.333 121.379 127.149 127.305 126.992 127.972C126.325 130.807 124.364 136.625 125.344 139.509C126.003 141.396 128.418 141.8 130.19 141.981C132.481 142.111 134.779 142.058 137.062 141.825C135.538 170.561 133.346 199.28 135.637 228.032C128.311 229.68 120.598 231.947 113.115 231.683C114.379 223.009 114.843 214.236 114.5 205.477C114.286 200.895 113.602 196.363 113.19 191.797C112.769 186.836 113.016 181.842 113.074 176.824V176.791ZM114.228 241.143C113.14 240.534 113.074 236.817 113.107 234.163C120.779 234.452 128.624 232.153 136.123 230.472C136.177 230.528 136.238 230.578 136.304 230.62C136.126 233.443 136.25 236.278 136.675 239.075C131.887 238.045 127.083 237.361 122.246 238.688C120.68 239.149 115.579 241.935 114.228 241.176V241.143ZM132.357 246.434C129.852 249.532 127.096 252.417 124.116 255.062C122.521 250.802 121.252 246.428 120.318 241.976C121.147 241.616 122.001 241.313 122.872 241.069C125.513 240.421 128.25 240.265 130.948 240.608C130.96 242.642 131.44 244.647 132.349 246.467L132.357 246.434ZM159.839 377.373V377.266C159.952 376.971 160.043 376.668 160.111 376.359C160.164 376.741 160.255 377.116 160.383 377.48C160.213 377.401 160.026 377.364 159.839 377.373ZM155.348 368.052C151.681 366.627 153.197 359.63 153.139 356.754C153.001 350.602 152.314 344.474 151.087 338.443C153.485 337.916 155.817 337.026 158.215 336.506C158.553 336.432 158.883 336.383 159.221 336.317C159.263 336.512 159.351 336.694 159.479 336.848C159.607 337.001 159.77 337.122 159.954 337.199C160.572 339.308 160.325 342.209 160.49 344.261C160.731 347.145 160.943 350.03 161.124 352.914C161.446 358.007 161.676 363.108 161.849 368.209C159.666 368.267 157.144 368.753 155.348 368.052ZM178.421 319.926C178.047 324.2 177.671 328.48 177.292 332.765C174.556 331.941 170.988 332.691 168.401 332.823C163.258 333.066 158.16 333.896 153.205 335.295C152.244 335.57 151.263 335.774 150.272 335.905C150.027 335.754 149.74 335.687 149.454 335.716C149.168 335.744 148.9 335.865 148.689 336.061C144.371 336.342 140.251 335.468 135.686 335.386C133.558 335.319 131.431 335.51 129.349 335.954C128.368 336.177 119.559 338.921 119.551 338.731C119.551 338.426 119.436 338.132 119.23 337.907C119.469 330.186 118.447 322.67 118.051 314.957C117.803 307.255 118.078 299.546 118.875 291.882C119.213 288.026 120.128 284.185 120.029 280.296C119.93 276.406 119.362 272.673 118.974 268.899C118.117 260.493 117.172 252.101 116.14 243.723C116.774 243.509 117.409 243.261 118.035 242.989C119.026 247.631 120.379 252.189 122.081 256.62C122.111 256.701 122.15 256.778 122.196 256.85C121.001 257.905 119.798 258.944 118.587 259.982C117.376 261.02 119.131 262.759 120.334 261.729C126.102 256.785 131.731 251.84 136.098 245.577C136.98 244.324 135.035 243.105 134.079 244.193C133.715 243.164 133.512 242.086 133.478 240.995C134.944 241.251 136.411 241.572 137.886 241.902C138.095 241.952 138.313 241.948 138.519 241.89C138.726 241.831 138.914 241.72 139.065 241.568C139.216 241.415 139.325 241.226 139.381 241.019C139.437 240.812 139.439 240.593 139.386 240.385C138.641 236.603 138.483 232.728 138.916 228.898C138.933 228.644 138.86 228.392 138.709 228.187C138.558 227.982 138.34 227.836 138.092 227.777C135.826 199.082 138.018 170.429 139.543 141.742C140.92 141.692 142.299 141.769 143.663 141.973C148.322 142.78 152.76 144.554 156.691 147.181C164.676 152.431 170.288 160.499 174.07 169.143L174.144 171.171C174.597 182.881 175.693 195.481 173.823 207.158C173.733 207.321 173.68 207.501 173.666 207.686C173.666 207.982 173.609 208.287 173.576 208.584L173.452 209.301C173.415 209.477 173.415 209.66 173.452 209.837C172.71 217.484 172.216 225.123 173.032 232.795C173.586 236.668 173.836 240.578 173.782 244.489C173.567 248.915 172.908 253.307 172.669 257.732C171.818 274.289 173.791 290.87 178.503 306.765C178.557 306.924 178.635 307.075 178.734 307.21C179.327 311.43 178.792 315.682 178.413 319.926H178.421ZM209.331 382.556C209.186 382.609 209.052 382.687 208.935 382.787C209.076 382.26 209.224 381.74 209.314 381.254C209.356 381.411 209.405 381.559 209.446 381.716C209.488 381.872 209.512 382.144 209.562 382.358C209.472 382.427 209.391 382.507 209.323 382.597L209.331 382.556ZM212.627 388.415H212.553C212.701 388.398 212.847 388.368 212.99 388.325H213.039C213.327 388.462 213.628 388.57 213.937 388.646C214.015 388.682 214.094 388.713 214.176 388.737L214.934 388.968C214.16 388.836 213.377 388.654 212.652 388.457L212.627 388.415ZM215.767 365.564C212.952 365.361 210.157 364.951 207.403 364.336C208.663 344.475 208.054 323.906 203.95 304.392C202.401 296.975 199.566 289.204 193.237 284.614C188.178 280.905 181.701 279.554 175.932 282.092C175.269 276.551 174.931 270.977 174.919 265.396L191.672 264.935L200.58 264.688C202.763 264.63 206.636 263.756 208.68 264.465C209.127 264.623 209.535 264.874 209.879 265.201C210.222 265.527 210.493 265.922 210.674 266.36C210.674 266.781 210.674 267.184 210.674 267.638C210.664 267.856 210.717 268.072 210.829 268.259C210.94 268.447 211.104 268.597 211.3 268.693C211.515 270.225 211.49 271.857 211.622 273.085C211.935 276.043 212.232 278.994 212.512 281.952C213.061 287.6 213.536 293.253 213.937 298.912C215.569 321.113 216.187 343.344 215.791 365.605L215.767 365.564ZM218.733 148.483L211.144 148.541C210.979 144.544 210.814 140.548 210.625 136.551C210.551 134.969 208.078 134.96 208.153 136.551C209.251 160.422 210.001 184.306 210.402 208.205C209.814 208.412 209.289 208.766 208.878 209.235C207.971 210.24 208.342 211.246 206.776 210.974C204.79 210.636 204.304 207.9 202.005 207.768C201.308 207.696 200.608 207.884 200.041 208.296C199.473 208.708 199.078 209.315 198.932 210.001C198.552 211.551 200.942 212.21 201.313 210.661C201.535 209.754 204.955 213.289 205.326 213.504C205.747 213.784 206.226 213.966 206.727 214.035C207.228 214.103 207.738 214.057 208.218 213.899C208.905 213.607 209.482 213.105 209.867 212.465C210.091 212.095 210.294 211.713 210.476 211.32C210.63 221.896 210.724 232.471 210.757 243.047C210.33 242.428 209.712 241.966 208.998 241.731C208.284 241.496 207.512 241.501 206.801 241.745C205.804 242.025 204.774 243.327 203.835 243.393C203.282 243.822 203.093 243.731 203.282 243.113C203.282 242.602 203.282 242.091 203.282 241.58C203.282 240.896 203.233 240.212 203.167 239.536C203.186 238.618 202.971 237.711 202.541 236.899C201.494 235.474 199.805 235.943 198.421 236.553C197.036 237.163 198.223 239.33 199.665 238.688C201.107 238.045 200.662 244.506 200.901 245.124C201.059 245.634 201.397 246.069 201.851 246.35C202.306 246.63 202.846 246.736 203.373 246.648C205.763 246.393 206.463 242.915 209.191 245.313C209.752 245.938 210.255 246.614 210.691 247.332C210.691 252.277 210.691 257.221 210.691 262.166C208.696 261.408 205.746 262.017 203.818 262.067L194.103 262.339L185.714 262.57C185.475 261.746 185.013 260.221 185.005 260.567C185.005 258.581 186.274 257.543 187.675 256.587C188.59 255.969 189.686 255.178 189.916 253.999C189.956 253.537 189.904 253.072 189.763 252.631C189.621 252.189 189.393 251.78 189.092 251.428C188.763 250.934 187.757 250.381 187.576 249.895C186.554 247.159 188.689 245.272 190.988 244.588C192.512 244.143 191.861 241.753 190.328 242.207C186.884 243.228 182.376 247.077 185.104 250.884C186.241 252.466 187.139 253.208 185.351 255.054C184.527 255.928 183.374 256.125 182.673 257.23C181.445 259.166 182.492 260.79 183.135 262.636L174.894 262.858C174.927 260.617 175.015 258.375 175.158 256.134C175.43 251.964 176.097 247.81 176.221 243.632C176.328 239.726 175.735 235.894 175.397 232.013C174.63 224.291 175.215 216.586 175.982 208.889C176.336 206.878 176.592 204.843 176.806 202.799C176.703 202.372 176.753 201.923 176.946 201.53C176.99 201.443 177.043 201.36 177.103 201.283L177.234 201.109C177.234 201.109 177.234 201.109 177.234 201.052C177.382 200.812 177.603 200.627 177.864 200.525C178.126 200.422 178.414 200.408 178.685 200.483C179.608 200.368 181.758 200.244 182.055 200.121C182.531 199.934 182.949 199.625 183.269 199.226C183.588 198.827 183.798 198.351 183.876 197.846C184.115 196.495 183.456 195.53 183.184 194.261C182.582 191.402 185.813 189.424 187.93 188.369C189.356 187.66 188.104 185.526 186.686 186.235C184.678 187.187 182.922 188.598 181.561 190.355C180.086 192.333 180.564 193.52 181.091 195.72C181.421 197.129 181.19 197.953 179.591 197.838C178.775 197.701 177.936 197.792 177.168 198.102H177.111C177.506 189.646 176.929 181.018 176.641 172.745C176.641 171.714 176.567 170.684 176.534 169.646C176.665 169.327 176.665 168.968 176.534 168.649C176.402 164.281 176.262 159.856 175.932 155.463C176.168 155.353 176.358 155.164 176.468 154.928C176.671 154.414 176.983 153.95 177.383 153.568C178.273 152.744 178.882 152.744 179.212 153.568C179.525 153.832 179.69 154.475 179.904 154.812C180.302 155.541 180.927 156.12 181.684 156.461C184.544 157.482 185.673 153.527 188.128 153.115C189.694 152.859 189.026 150.478 187.469 150.733C185.442 151.071 184.824 152.159 183.406 153.42C181.989 154.681 181.618 152.291 180.629 151.31C179.031 149.72 177.053 150.486 175.685 151.846C175.261 147.413 174.465 143.025 173.304 138.726C172.379 135.44 171.01 132.296 169.233 129.381C169.373 129.271 169.483 129.127 169.55 128.963C169.618 128.798 169.642 128.618 169.62 128.442C169.546 127.552 169.175 126.11 170.79 126.686C171.351 126.884 171.993 127.708 172.438 128.12C173.122 128.755 173.815 129.365 174.82 129.2C176.855 128.879 177.572 125.384 178.264 123.827C178.957 122.269 176.765 121.124 176.13 122.583C175.792 123.332 175.463 124.091 175.125 124.849C174.941 125.329 174.732 125.8 174.499 126.258C174.441 126.41 174.375 126.558 174.301 126.703C174.218 126.942 174.185 126.909 174.202 126.612C174.202 126.612 173.666 125.854 173.518 125.714C173.37 125.574 172.966 125.236 172.694 125.014C172.129 124.532 171.477 124.163 170.774 123.926C168.763 123.415 167.708 124.824 167.321 126.464C164.855 123.134 162 120.11 158.817 117.457C160.399 113.99 162.141 110.609 164.041 107.312C164.989 109.307 165.994 111.284 167.074 113.221C168.153 115.158 169.208 117.762 170.914 119.261C174.111 122.063 175.735 118.141 177.02 115.66C178.479 112.85 179.723 109.455 181.569 106.884C182.366 105.713 183.477 104.791 184.774 104.222C186.093 107.062 187.409 109.908 188.722 112.759C189.447 114.325 190.122 117.152 191.523 118.264C192.644 119.163 194.103 118.866 195.413 118.775C198.124 118.594 200.827 118.363 203.538 118.149C205.895 117.968 208.194 118.198 209.471 116.789C209.678 116.87 209.906 116.88 210.119 116.817C210.332 116.754 210.519 116.623 210.649 116.443C211.194 115.789 211.702 115.107 212.174 114.399C212.602 113.798 212.998 113.188 213.426 112.57C217.67 114.671 218.84 119.739 219.195 124.635C218.857 124.92 218.551 125.241 218.28 125.59C218.005 126.056 217.691 126.497 217.341 126.909C217.318 127.018 217.269 127.121 217.198 127.207C217.127 127.294 217.037 127.362 216.934 127.405C216.831 127.449 216.719 127.467 216.608 127.458C216.496 127.449 216.389 127.414 216.294 127.354C215.676 127.527 215.412 127.305 215.47 126.678C214.877 125.483 214.811 124.033 213.13 123.769C211.614 123.53 210.864 124.799 210.46 126.035C209.974 127.552 212.363 128.203 212.85 126.686C212.635 127.338 213.674 129.307 214.349 129.785C214.909 130.132 215.56 130.303 216.218 130.277C216.876 130.25 217.511 130.027 218.041 129.637C218.547 129.274 218.987 128.828 219.343 128.318C219.343 129.216 219.393 130.073 219.417 130.881C219.608 136.77 219.388 142.666 218.758 148.525L218.733 148.483ZM234.646 255.614C233.387 252.011 232.444 248.305 231.827 244.539C229.635 245.923 226.57 245.849 224.139 245.585H223.958C223.958 245.767 223.999 245.948 224.024 246.129C224.37 248.816 224.535 251.898 225.581 254.444C226.315 256.224 223.422 256.991 222.697 255.268C221.667 252.796 221.51 249.73 221.164 247.093C220.609 243.392 220.278 239.66 220.175 235.919C220.175 233.99 223.134 233.999 223.158 235.919C223.158 238.177 223.373 240.443 223.62 242.701C223.789 242.657 223.965 242.643 224.139 242.66C225.787 242.849 227.888 243.105 229.487 242.396C229.86 242.265 230.2 242.055 230.484 241.78C230.769 241.506 230.991 241.173 231.135 240.806C230.839 239.297 230.525 237.798 230.146 236.314C229.767 234.831 232.124 233.603 232.874 235.161C233.772 237.015 234.58 239.166 234.234 241.152C235.124 245.783 235.882 250.439 237.53 254.881C238.271 256.694 235.338 257.46 234.67 255.68L234.646 255.614ZM251.951 255.614C251.357 252.714 250.954 249.524 250.303 246.434C250.206 246.819 249.967 247.153 249.633 247.367C249.299 247.582 248.896 247.66 248.506 247.588C247.011 247.341 245.497 247.225 243.982 247.242C243.636 249.473 243.438 251.725 243.389 253.983C243.389 255.903 240.365 255.903 240.406 253.983C240.455 251.498 240.678 249.02 241.073 246.566C240.892 246.234 240.831 245.849 240.9 245.477C240.969 245.105 241.164 244.768 241.452 244.522C242.167 240.865 243.272 237.296 244.748 233.875C245.226 232.787 246.397 232.96 247.039 233.661C247.213 233.74 247.372 233.849 247.509 233.982C252.931 239.438 253.434 247.695 254.925 254.831C255.239 256.768 252.363 257.559 251.975 255.68L251.951 255.614ZM256.664 208.831C258.667 204.15 260.348 199.346 262.161 194.607C259.474 191.311 256.887 187.924 254.266 184.57C252.659 182.518 255.543 179.626 257.167 181.678C259.4 184.537 261.617 187.446 263.883 190.248C265.423 186.412 267.252 182.698 269.354 179.139C270.722 176.89 274.299 178.95 272.898 181.208C270.525 185.235 268.491 189.452 266.816 193.816C267.146 194.204 267.467 194.599 267.797 194.978C269.61 197.08 271.406 199.173 273.186 201.291C273.714 201.917 274.604 203.392 275.312 204.266C275.635 204.32 275.939 204.451 276.2 204.648C276.461 204.845 276.67 205.102 276.811 205.397C276.952 205.692 277.019 206.017 277.008 206.343C276.997 206.67 276.907 206.989 276.746 207.274L276.557 207.603C276.281 208.071 275.833 208.411 275.308 208.55C274.784 208.689 274.225 208.615 273.755 208.345C270.582 205.873 268.077 201.521 265.407 198.456C265.317 198.357 265.234 198.242 265.144 198.143C263.537 202.403 261.996 206.705 260.199 210.891C259.194 213.388 255.667 211.295 256.689 208.897L256.664 208.831ZM279.556 256.85C279.103 258.721 276.26 257.922 276.672 256.026C276.846 255.301 276.957 254.562 277.002 253.818C272.28 253.562 267.607 252.672 262.869 252.615C263.223 253.263 263.733 253.812 264.352 254.213C265.828 255.45 263.702 257.559 262.243 256.331C261.412 255.731 260.721 254.957 260.219 254.064C259.717 253.17 259.415 252.178 259.334 251.156C259.336 250.76 259.494 250.381 259.773 250.101C260.052 249.82 260.43 249.661 260.826 249.656C262.169 249.599 263.504 249.656 264.839 249.697C264.744 249.511 264.693 249.305 264.69 249.096C264.468 244.275 262.029 240.031 263.092 235.086C263.18 234.771 263.368 234.494 263.629 234.296C263.889 234.098 264.207 233.991 264.534 233.99C267.929 234.411 272.461 234.814 274.422 238.111C276.384 241.407 275.518 246.352 275.51 249.936C275.518 250.227 275.44 250.513 275.288 250.761C276.367 250.851 277.455 250.925 278.584 250.942C278.979 250.948 279.356 251.109 279.634 251.389C279.913 251.669 280.071 252.047 280.075 252.442C280.085 253.947 279.919 255.449 279.581 256.916L279.556 256.85ZM285.572 133.502C285.572 133.337 285.572 133.188 285.621 133.032L285.86 132.974C286.742 132.109 288.794 131.433 289.824 131.046C290.921 130.621 292.051 130.285 293.202 130.04C294.207 129.817 295.231 129.696 296.26 129.678C298.435 129.414 299.556 130.609 299.737 133.271C299.613 133.418 299.525 133.593 299.479 133.78C299.433 133.967 299.431 134.162 299.473 134.35C298.435 134.655 297.438 135.298 296.433 135.562C293.458 136.366 290.318 136.32 287.368 135.43C286.962 135.315 286.566 135.183 286.181 135.034C285.951 134.74 285.673 134.486 285.357 134.285C285.465 134.004 285.522 133.741 285.572 133.502ZM297.298 257.345C296.012 250.752 295.238 242.849 290.376 237.822C289.596 240.169 289.104 242.601 288.909 245.066C290.631 244.551 292.479 244.653 294.134 245.355C295.897 246.179 294.372 248.709 292.626 247.934C291.406 247.39 289.964 247.777 288.711 248.239C288.629 250.868 288.711 253.513 288.711 256.125C288.711 256.521 288.554 256.9 288.274 257.18C287.995 257.46 287.615 257.617 287.22 257.617C286.824 257.617 286.445 257.46 286.165 257.18C285.885 256.9 285.728 256.521 285.728 256.125C285.728 248.849 285.489 241.58 288.398 234.765C288.456 234.608 288.546 234.465 288.663 234.345C288.78 234.225 288.921 234.132 289.077 234.071C289.233 234.01 289.4 233.983 289.567 233.992C289.734 234.001 289.898 234.045 290.046 234.122C290.436 234.093 290.822 234.214 291.126 234.46C297.66 239.71 298.666 248.857 300.19 256.546C300.545 258.416 297.669 259.216 297.298 257.328V257.345ZM311.768 255.301C311.768 255.697 311.611 256.076 311.331 256.356C311.052 256.636 310.672 256.793 310.277 256.793C309.881 256.793 309.502 256.636 309.222 256.356C308.942 256.076 308.785 255.697 308.785 255.301V254.774C308.785 254.378 308.942 253.999 309.222 253.719C309.502 253.439 309.881 253.282 310.277 253.282C310.672 253.282 311.052 253.439 311.331 253.719C311.611 253.999 311.768 254.378 311.768 254.774V255.301ZM314.595 237.938C314.117 241.58 311.183 244.3 310.474 247.868C310.104 249.755 307.219 248.948 307.59 247.044C308.307 243.368 312.534 239.553 311.463 235.721C310.903 233.727 306.115 227.859 305.118 232.186C304.681 234.065 301.822 233.265 302.234 231.362C303.594 225.486 309.238 227.554 312.122 231.024C313.762 232.985 314.908 235.35 314.595 237.921V237.938Z" fill="black"/>
<path d="M272.618 250.464C272.556 250.292 272.526 250.11 272.527 249.928C272.527 246.969 273.236 243.063 272.123 240.228C271.217 237.905 268.218 237.418 265.803 237.138C265.457 241.184 267.501 245.066 267.682 249.104C267.705 249.393 267.636 249.681 267.484 249.928C269.198 250.068 270.912 250.274 272.618 250.464Z" fill="black"/>
<path d="M169.711 60.3971C168.985 60.463 168.252 60.5124 167.527 60.5701C167.527 60.2322 167.527 59.8944 167.527 59.5565C167.148 57.9688 167.834 57.0952 169.587 56.9359C170.353 58.3286 172.488 57.0842 171.721 55.6833C171.505 55.2464 171.192 54.8651 170.805 54.569C170.418 54.2729 169.967 54.0699 169.489 53.9759C169.011 53.8819 168.518 53.8992 168.047 54.0267C167.577 54.1542 167.142 54.3883 166.777 54.7109C165.005 56.1283 165.013 58.5758 165.046 60.7679C160.481 61.081 155.9 61.2459 151.326 61.4024C151.376 60.7432 151.417 60.1169 151.458 59.54C151.639 57.1337 152.364 52.387 150.238 50.2773C150.118 49.8475 149.891 49.4552 149.578 49.1368C149.266 48.8183 148.878 48.5842 148.45 48.4561C148.051 48.1119 147.547 47.9151 147.02 47.8986C146.494 47.8821 145.977 48.0469 145.558 48.3654C142.525 50.2691 142.154 56.8617 141.685 60.0262C141.166 63.5203 139.963 68.8192 142.459 71.8188C142.8 72.2839 143.243 72.6644 143.755 72.931C144.266 73.1977 144.832 73.3434 145.408 73.357C145.984 73.3705 146.556 73.2515 147.079 73.0091C147.603 72.7667 148.063 72.4074 148.425 71.9589C150.164 69.9811 150.799 66.8496 151.104 63.8664C153.905 63.7511 159.723 63.4956 164.981 63.2401C164.758 66.1739 164.107 70.8712 166.093 73.0303C167.823 74.8515 169.645 73.0303 171.309 71.9837C172.652 71.1596 171.408 69.0005 170.057 69.8493L168.409 70.8876C167.524 71.7721 167.249 71.5442 167.585 70.2036C167.074 68.8769 167.263 66.9815 167.304 65.6053C167.304 64.7812 167.395 63.9571 167.444 63.133C171.903 62.9105 175.438 62.7127 175.438 62.655C175.438 62.9829 175.568 63.2973 175.8 63.5291C176.032 63.7609 176.346 63.8912 176.674 63.8912C177.002 63.8912 177.316 63.7609 177.548 63.5291C177.78 63.2973 177.91 62.9829 177.91 62.655C177.869 58.4028 172.348 60.1581 169.711 60.3971Z" fill="black"/>
<path d="M99.5759 78.7248C99.3312 77.7053 98.8192 76.7695 98.0927 76.0136C96.8731 74.4973 96.3374 74.4808 96.7165 71.8437C96.9455 70.6872 97.3572 69.5745 97.9361 68.5474C98.653 67.1382 96.527 65.8856 95.8018 67.303C94.7305 69.3797 93.6922 71.9756 94.1949 74.3736C94.6976 76.7717 99.2958 79.6478 95.843 81.7162C95.5725 81.8873 95.3789 82.1567 95.303 82.4677C95.2271 82.7786 95.2748 83.1069 95.436 83.3835C95.5972 83.66 95.8594 83.8632 96.1674 83.9503C96.4754 84.0374 96.8051 84.0017 97.0873 83.8506C97.9802 83.3573 98.6986 82.5999 99.1442 81.6822C99.5897 80.7646 99.7405 79.7315 99.5759 78.7248Z" fill="black"/>
<path d="M107.379 63.141C108.681 62.251 107.445 60.1084 106.127 61.0066C103.737 62.6548 103.655 64.0145 104.718 66.5032C104.891 66.7834 105.072 67.0554 105.253 67.3273C105.301 68.2259 105.007 69.1093 104.429 69.7996C104.159 70.3549 103.933 70.9308 103.754 71.5219C103.544 73.0635 103.685 74.6325 104.166 76.1121C104.545 77.6613 106.935 77.0021 106.547 75.4528C106.11 73.6563 105.995 72.2306 106.967 70.5083C107.482 69.9108 107.859 69.2074 108.072 68.4481C108.253 66.5115 105.369 64.5172 107.379 63.141Z" fill="black"/>
<path d="M168.911 185.073C168.676 184.937 168.403 184.882 168.134 184.917C167.864 184.951 167.614 185.072 167.42 185.262C166.922 185.698 166.566 186.274 166.4 186.915C166.234 187.556 166.265 188.232 166.489 188.855C166.543 189.035 166.636 189.2 166.763 189.339C166.889 189.478 167.044 189.587 167.218 189.658C167.392 189.729 167.579 189.761 167.767 189.75C167.954 189.739 168.137 189.687 168.301 189.597C168.599 189.428 168.858 189.198 169.06 188.921C169.139 188.871 169.214 188.813 169.282 188.748C169.531 188.498 169.722 188.195 169.84 187.862C169.958 187.529 170.001 187.174 169.965 186.823C169.93 186.471 169.817 186.132 169.635 185.829C169.452 185.527 169.205 185.268 168.911 185.073Z" fill="black"/>
<path d="M168.153 217.154C167.99 217.06 167.807 217.005 167.619 216.993C167.431 216.98 167.243 217.01 167.069 217.081C166.894 217.151 166.738 217.26 166.612 217.4C166.485 217.54 166.393 217.707 166.34 217.887C166.181 218.367 166.089 218.866 166.068 219.371C165.897 219.516 165.772 219.708 165.709 219.923C165.646 220.139 165.648 220.368 165.714 220.582C165.854 220.989 166.082 221.361 166.381 221.67C166.496 221.897 166.685 222.077 166.917 222.181C166.962 222.255 167.011 222.327 167.065 222.395C167.297 222.627 167.611 222.757 167.939 222.757C168.266 222.757 168.581 222.627 168.812 222.395C169.136 222.017 169.377 221.576 169.52 221.1C169.663 220.623 169.705 220.122 169.642 219.629C169.58 219.135 169.416 218.66 169.159 218.234C168.903 217.808 168.56 217.44 168.153 217.154Z" fill="black"/>
<path d="M116.873 236.009C116.76 235.9 116.625 235.816 116.477 235.762L116.42 235.705C116.184 235.567 115.909 235.511 115.638 235.545C115.367 235.58 115.114 235.702 114.92 235.894C114.667 236.15 114.489 236.47 114.403 236.82C114.317 237.17 114.328 237.536 114.434 237.88C114.467 237.985 114.514 238.085 114.574 238.177C114.606 238.377 114.658 238.573 114.73 238.762C114.799 238.958 114.914 239.134 115.064 239.278C115.215 239.421 115.397 239.526 115.596 239.586C115.824 239.652 116.067 239.652 116.296 239.586C116.576 239.593 116.851 239.508 117.079 239.345C117.306 239.181 117.474 238.947 117.557 238.679C117.691 238.214 117.698 237.721 117.578 237.251C117.458 236.782 117.214 236.353 116.873 236.009Z" fill="black"/>
<path d="M201.749 142.311C201.325 141.393 200.597 140.648 199.689 140.202C198.56 139.666 196.78 140.408 196.863 138.809C196.863 138.117 198.61 136.74 198.931 135.958C199.338 135.064 199.38 134.046 199.046 133.123C198.222 130.65 195.561 130.181 193.278 129.942C191.696 129.785 191.712 132.257 193.278 132.414C195.478 132.208 196.311 133.51 195.75 136.304C195.314 136.79 194.926 137.301 194.514 137.828C194.231 138.218 194.004 138.645 193.838 139.097C193.655 139.592 193.616 140.129 193.726 140.645C193.835 141.162 194.088 141.636 194.456 142.015C196.171 143.556 199.986 140.811 199.137 146.259C198.824 148.294 197.365 148.681 197.901 150.989C198.255 152.538 200.637 151.887 200.282 150.33C199.928 148.772 201.823 146.827 202.079 145.27C202.264 144.273 202.149 143.243 201.749 142.311Z" fill="black"/>
<path d="M202.269 181.538C199.327 181.538 200.621 176.428 197.704 175.876C196.402 175.629 195.124 176.403 193.855 176.263C192.01 176.057 192.718 175.184 193.361 173.849C193.715 173.107 194.136 172.423 194.556 171.723C197.901 166.069 192.413 164.561 187.535 165.13C185.969 165.311 185.953 167.784 187.535 167.602C189.274 167.396 193.46 166.778 192.891 169.728C192.644 171.055 191.161 172.604 190.625 173.948C190.024 175.464 189.348 177.434 191.021 178.513C191.919 179.098 192.965 178.851 193.946 178.727C194.927 178.604 196.665 178.027 197.481 179.28C197.638 179.519 197.547 180.409 197.638 180.73C197.911 181.729 198.521 182.603 199.365 183.204C200.209 183.805 201.235 184.095 202.269 184.026C202.599 184.026 202.915 183.895 203.149 183.662C203.382 183.428 203.513 183.112 203.513 182.782C203.513 182.452 203.382 182.135 203.149 181.902C202.915 181.669 202.599 181.538 202.269 181.538Z" fill="black"/>
<path d="M193.929 226.005C193.723 225.181 192.948 224.991 192.734 224.497C191.753 222.206 194.201 219.849 191.654 218.094C190.245 217.129 188.663 217.575 189.611 214.929C190.105 213.536 191.259 212.976 191.481 211.377C191.803 208.814 190.097 207.512 187.814 206.993C186.265 206.647 185.606 209.029 187.163 209.383C190.748 210.207 185.993 214.88 186.257 217.088C186.496 219.099 187.757 218.827 188.96 219.816C190.19 219.816 190.517 220.574 189.94 222.09C189.777 222.453 189.65 222.832 189.561 223.219C189.561 224.044 189.38 224.686 189.817 225.477C190.056 225.906 190.863 226.302 191.003 226.615C191.099 226.922 191.132 227.244 191.101 227.564C191.07 227.884 190.975 228.195 190.822 228.477C190.777 228.559 190.738 228.645 190.707 228.733L190.476 229.408C189.948 230.916 192.33 231.551 192.857 230.068C193.236 229.005 194.234 227.216 193.929 226.005Z" fill="black"/>
</g>
<path d="M92.6379 286.024C94.0024 285.191 92.5091 283.206 91.1609 284.041C89.8409 284.844 88.4464 285.518 86.9967 286.054C86.5062 282.292 84.824 278.98 81.05 277.252C81.8824 275.99 82.5949 274.653 83.1784 273.258C83.7939 271.791 81.5305 270.792 80.9139 272.268C80.4047 273.496 79.7879 274.676 79.0707 275.796C78.9359 275.997 78.8507 276.227 78.8221 276.467C76.6136 275.926 74.3092 275.907 72.0927 276.413C72.1579 276.247 72.1841 276.069 72.1692 275.891C72.0135 274.366 71.996 272.83 72.1168 271.302C72.2473 269.731 69.8009 269.355 69.668 270.943C69.5301 272.694 69.5511 274.453 69.7308 276.2C69.7413 276.349 69.7817 276.494 69.8496 276.627C69.9175 276.76 70.0114 276.878 70.1259 276.974C67.5768 277.878 65.2065 279.222 63.1231 280.945C62.5618 279.987 62.0871 278.981 61.7046 277.938C61.1745 276.436 58.8798 277.357 59.4099 278.859C59.8735 280.184 60.4718 281.458 61.1953 282.661C60.0942 283.738 59.0862 284.905 58.182 286.151C57.441 287.167 56.7442 288.222 56.0532 289.296C55.5041 288.374 55.0885 287.379 54.8189 286.341C54.4184 284.808 52.1225 285.737 52.5242 287.262C52.9428 288.87 53.6766 290.379 54.683 291.702C53.3574 294.111 52.1592 296.587 51.0933 299.122C51.3737 294.67 51.5899 290.221 51.742 285.773C51.856 282.608 52.0509 279.346 52.0695 276.092C52.1285 276.043 52.1837 275.99 52.2346 275.933L57.383 270.166C58.442 268.972 56.5072 267.439 55.4494 268.625L51.9985 272.483C51.9236 270.668 51.7321 268.859 51.4252 267.068C50.8151 263.584 49.4339 260.279 47.3822 257.396L48.9157 255.638C49.6257 254.835 50.5289 254.134 50.4572 252.974C50.4314 252.771 50.3537 252.579 50.2317 252.415C50.1096 252.251 49.9473 252.122 49.7605 252.039L49.6462 252.022C49.4562 251.96 49.2545 251.942 49.0563 251.968C48.8582 251.995 48.6686 252.066 48.5018 252.176C48.3349 252.286 48.1951 252.432 48.0928 252.604C47.9904 252.776 47.9282 252.968 47.9107 253.167C47.6971 253.202 47.2747 253.865 47.1459 254.004C46.8834 254.316 46.614 254.618 46.3434 254.928L45.8127 255.533C44.1131 253.655 41.9085 252.305 39.4622 251.645C39.4433 251.455 39.3716 251.274 39.2552 251.123C39.3721 250.724 39.705 249.989 39.7898 249.752C40.0266 249.104 40.2868 248.467 40.5714 247.834C40.6713 247.539 40.6572 247.218 40.5317 246.933C40.4062 246.648 40.1785 246.421 39.8934 246.296C39.6084 246.17 39.2866 246.156 38.9917 246.256C38.6967 246.355 38.4499 246.562 38.2999 246.835C37.7816 247.994 37.329 249.182 36.9442 250.392C36.8536 250.688 36.795 250.992 36.7695 251.3C35.7566 251.304 34.7483 251.436 33.7685 251.692C33.466 251.765 33.1693 251.855 32.896 251.956C32.5272 251.016 32.2086 250.057 31.9414 249.084C31.5152 247.555 29.2262 248.494 29.6455 250.013C29.9314 251.034 30.2741 252.038 30.6719 253.021C27.5826 254.925 25.383 258.267 23.8004 262.009C23.3786 261.53 22.9568 261.052 22.5561 260.543C21.5525 259.313 19.5615 260.779 20.5721 262.018C21.2759 262.904 22.0511 263.759 22.8298 264.59C22.0476 266.973 21.4288 269.406 20.9778 271.873C20.1081 270.696 19.2747 269.5 18.4974 268.261C17.7202 267.023 15.6708 268.488 16.5214 269.795C17.6606 271.609 18.8955 273.361 20.2209 275.044C20.2819 275.124 20.3526 275.196 20.4313 275.258C20.3117 276.074 20.1921 276.889 20.0856 277.615C19.7364 281.076 19.6214 284.558 19.7414 288.035L15.9087 285.457C14.5958 284.573 13.0453 286.503 14.3664 287.388L19.5946 290.912L19.8112 291.027C19.872 292.943 19.934 294.852 19.9645 296.747C19.9951 298.642 19.9989 300.492 19.9735 302.371C18.7408 301.49 17.4603 300.669 16.1322 299.908C14.7478 299.114 13.7643 301.385 15.1336 302.169C16.7185 303.081 18.2408 304.097 19.6903 305.211C19.7967 305.29 19.914 305.352 20.0385 305.396C20.0569 308.976 20.3154 312.55 20.8122 316.096C17.418 316.156 14.1521 317.218 12.5683 320.626C11.8724 322.073 11.6009 323.924 12.4522 325.34C12.7532 325.832 13.1758 326.238 13.6794 326.519C14.1829 326.8 14.7504 326.946 15.3271 326.945C15.5579 341.972 14.0264 356.507 12.7315 371.419C12.2934 376.452 13.9656 379.321 18.4797 381.574C24.3471 384.492 31.0715 384.979 37.5157 385.158C44.1655 385.3 50.9824 385.667 57.6661 385.464C63.0009 385.305 63.5352 381.094 64.5175 376.557C67.462 362.962 67.9871 348.637 69.1149 334.75C72.0535 334.84 75.0321 334.202 76.0384 331.093C77.491 326.874 73.9874 323.587 70.4036 322.212C71.4643 321.176 72.4972 320.103 73.4917 319.008C74.1194 319.333 74.7588 319.635 75.4112 319.906C76.8908 320.506 77.8894 318.245 76.4098 317.645C75.994 317.467 75.6283 317.289 75.1915 317.083C77.1482 314.785 78.9232 312.338 80.5006 309.765C81.6534 309.895 82.8139 309.943 83.9734 309.908C85.5556 309.865 85.2494 307.405 83.666 307.456C83.0627 307.476 82.4573 307.453 81.8542 307.415C82.9915 305.314 83.9643 303.129 84.7641 300.878C86.5456 300.775 88.2883 300.317 89.8897 299.531C91.3167 298.841 90.4032 296.541 88.9668 297.238C87.9122 297.75 86.7871 298.101 85.6286 298.281C86.5807 295.143 87.0945 291.888 87.1555 288.61C87.245 288.597 87.3325 288.574 87.416 288.54C89.2416 287.89 90.9922 287.046 92.6379 286.024ZM22.2573 285.946C22.1517 280.818 22.7343 275.698 23.9897 270.724C24.3126 269.489 24.6487 268.164 25.028 266.828L25.9909 267.711C27.1958 268.762 28.73 266.83 27.5414 265.781C26.9575 265.27 26.4017 264.739 25.8541 264.209C26.908 261.173 28.343 258.268 30.6088 256.293C30.9698 255.985 31.3513 255.702 31.7506 255.445C32.0471 256.038 32.3694 256.627 32.7031 257.25C33.5114 258.618 35.4885 257.134 34.6884 255.767C34.4274 255.329 34.1958 254.862 33.9605 254.419C37.5464 253.279 41.4433 254.567 44.2405 257.327C43.7916 258.227 44.802 259.183 45.6626 259.001C48.6437 263.178 49.2877 268.396 49.4541 273.401C49.7505 284.115 48.9262 295.022 48.1306 305.734C48.1161 305.925 48.1449 306.118 48.2149 306.296C46.7326 310.377 45.3482 314.472 44.0355 318.419C39.706 317.684 35.33 317.257 30.9402 317.14C29.622 317.088 28.2375 316.977 26.8598 316.933C26.7127 316.832 26.5479 316.76 26.374 316.72C25.3631 316.513 24.3422 316.357 23.3154 316.255C21.6777 306.386 22.3291 295.861 22.2573 285.946ZM63.5925 367.059C63.2105 370.118 62.7527 373.183 62.1013 376.203C61.8154 377.527 61.446 380.33 60.7398 381.392C59.2829 383.594 56.8186 382.999 54.6672 383C48.8408 382.929 43.0086 382.898 37.1978 382.721C31.2202 382.543 24.9882 382.054 19.5494 379.341C14.8093 376.98 15.0291 373.605 15.6088 369.084C15.9703 366.221 16.2991 363.354 16.587 360.481C17.6446 349.366 18.0547 338.198 17.8154 327.035C33.9009 327.653 49.4054 331.893 65.2523 334.309L66.6726 334.517C65.7319 345.366 64.9193 356.25 63.5925 367.059ZM81.4136 302.744C80.7775 304.216 80.0603 305.651 79.2655 307.044L79.0043 307.005C77.6927 306.738 77.2576 308.34 77.9782 309.112C76.4853 311.47 74.8211 313.715 72.9991 315.829C72.1531 315.286 71.347 314.683 70.5869 314.025C69.376 313.015 67.8385 314.913 69.0364 315.955C69.7775 316.59 70.5574 317.177 71.3717 317.714C70.1947 318.974 68.9885 320.205 67.7301 321.395C61.0358 319.68 53.5275 319.478 46.759 318.952L46.4896 318.912C49.1902 310.869 52.2971 302.968 55.7985 295.239C56.0326 294.723 56.2911 294.212 56.552 293.683C57.7155 294.562 59.1374 292.713 57.9977 291.672C57.9163 291.601 57.8548 291.509 57.7746 291.431C59.1794 288.926 60.8812 286.6 62.8431 284.502C63.0325 284.521 63.2236 284.498 63.4033 284.436C63.583 284.373 63.7469 284.273 63.8837 284.141C64.0205 284.009 64.1268 283.848 64.1954 283.671C64.264 283.494 64.2931 283.304 64.2808 283.114C67.5182 280.257 71.4345 278.399 76.0854 278.64C88.5832 279.273 84.5879 295.371 81.4136 302.744Z" fill="black"/>
<path d="M60.8112 299.264L59.9099 295.517C59.8508 295.203 59.6761 294.923 59.4202 294.731C59.1643 294.539 58.8458 294.45 58.5275 294.481C58.2015 294.523 57.9052 294.692 57.7032 294.951C57.5012 295.21 57.4099 295.538 57.4492 295.864C57.7492 297.116 58.0504 298.36 58.3423 299.61C58.4012 299.926 58.577 300.208 58.8347 300.4C59.0924 300.592 59.4131 300.681 59.7328 300.647C60.0589 300.606 60.3552 300.437 60.5572 300.178C60.7592 299.919 60.8504 299.59 60.8112 299.264Z" fill="black"/>
<path d="M66.2757 291.402L65.5246 296.523C65.4771 296.848 65.5604 297.178 65.7564 297.441C65.9524 297.704 66.2449 297.878 66.5696 297.926C66.8944 297.974 67.2247 297.89 67.488 297.695C67.7512 297.499 67.9259 297.207 67.9734 296.882L68.7245 291.761C68.7721 291.437 68.6887 291.107 68.4927 290.844C68.2967 290.581 68.0042 290.406 67.6795 290.359C67.3548 290.311 67.0244 290.394 66.7612 290.59C66.4979 290.786 66.3233 291.078 66.2757 291.402Z" fill="black"/>
<path d="M70.9996 281.142L68.7327 286.024C68.0625 287.467 70.3258 288.465 70.996 287.022C71.7517 285.395 72.51 283.768 73.2711 282.142C73.9425 280.691 71.6698 279.699 70.9996 281.142Z" fill="black"/>
<path d="M80.4107 287.52C80.1506 287.322 79.8239 287.231 79.4986 287.267C79.1733 287.303 78.8745 287.463 78.6646 287.714C77.6475 288.735 76.4921 289.609 75.2321 290.309C74.9353 290.443 74.6998 290.683 74.5725 290.982C74.4452 291.282 74.4353 291.618 74.545 291.924C74.6706 292.228 74.9111 292.469 75.2142 292.597C75.5173 292.724 75.8584 292.726 76.1631 292.603C77.7923 291.702 79.2855 290.575 80.5981 289.255C80.803 289 80.8983 288.674 80.8632 288.349C80.828 288.024 80.6653 287.726 80.4107 287.52Z" fill="black"/>
<path d="M80.881 297.11C80.6837 296.849 80.3916 296.676 80.0678 296.629C79.7439 296.581 79.4145 296.663 79.1505 296.856C78.5963 297.425 77.8551 297.775 77.0633 297.841C76.8958 297.853 76.7325 297.898 76.5832 297.975C76.434 298.052 76.3019 298.158 76.1951 298.287C76.0883 298.417 76.0089 298.566 75.9619 298.727C75.9148 298.888 75.901 299.057 75.9213 299.224C75.9416 299.39 75.9957 299.551 76.0801 299.696C76.1645 299.841 76.2775 299.967 76.4124 300.067C76.5472 300.167 76.7009 300.238 76.8643 300.277C77.0276 300.316 77.1971 300.321 77.3625 300.292C78.5838 300.189 79.7344 299.677 80.6275 298.839C80.8833 298.638 81.0522 298.346 81.0994 298.025C81.1466 297.703 81.0684 297.376 80.881 297.11Z" fill="black"/>
<path d="M70.9366 301.299C70.6769 301.103 70.3519 301.014 70.0286 301.05C69.7052 301.086 69.4082 301.245 69.1986 301.494L66.5387 304.053C66.3328 304.311 66.2379 304.64 66.275 304.968C66.3122 305.296 66.4782 305.596 66.7366 305.802C66.995 306.007 67.3246 306.102 67.653 306.065C67.9813 306.028 68.2814 305.863 68.4874 305.604L71.1485 303.038C71.2491 302.91 71.3235 302.763 71.3673 302.607C71.4112 302.45 71.4236 302.286 71.4039 302.125C71.3842 301.963 71.3328 301.807 71.2526 301.665C71.1724 301.524 71.065 301.399 70.9366 301.299Z" fill="black"/>
<path d="M58.9589 305.873C58.9958 305.55 58.9082 305.226 58.7141 304.965C58.52 304.704 58.2339 304.527 57.9139 304.47C57.5895 304.425 57.2603 304.509 56.9975 304.704C56.7348 304.899 56.5597 305.19 56.5101 305.514C56.4599 306.822 56.419 308.124 56.37 309.425C56.3311 309.748 56.4178 310.073 56.6123 310.334C56.8068 310.595 57.0941 310.772 57.415 310.827C57.7398 310.875 58.0701 310.792 58.3334 310.596C58.5966 310.4 58.7713 310.108 58.8188 309.784C58.8923 308.487 58.9087 307.182 58.9589 305.873Z" fill="black"/>
<path d="M65.447 311.889C65.2459 311.633 64.9543 311.464 64.6323 311.417C64.3104 311.37 63.9825 311.448 63.7165 311.635L60.0628 313.806C59.926 313.9 59.8097 314.021 59.7208 314.161C59.6319 314.302 59.5721 314.458 59.5452 314.622C59.5182 314.786 59.5245 314.954 59.5637 315.115C59.603 315.276 59.6743 315.428 59.7736 315.561C59.8728 315.694 59.9979 315.806 60.1413 315.89C60.2847 315.974 60.4436 316.028 60.6084 316.049C60.7733 316.071 60.9407 316.058 61.1007 316.014C61.2607 315.969 61.41 315.892 61.5397 315.788L65.1935 313.617C65.4546 313.42 65.6275 313.128 65.675 312.805C65.7224 312.481 65.6405 312.152 65.447 311.889Z" fill="black"/>
<path d="M53.3809 315.882C52.9709 314.482 52.6902 313.046 52.5422 311.595C52.4928 311.277 52.3214 310.991 52.0644 310.797C51.8074 310.604 51.485 310.517 51.1657 310.557C50.8463 310.597 50.5551 310.76 50.3538 311.011C50.1525 311.261 50.057 311.581 50.0875 311.901C50.2743 313.551 50.6101 315.181 51.0909 316.771C51.538 318.328 53.834 317.398 53.3809 315.882Z" fill="black"/>
<path d="M29.7626 313.343L26.5288 308.046C25.7018 306.692 23.7247 308.177 24.5436 309.529L27.7692 314.825C28.5775 316.193 30.5815 314.696 29.7626 313.343Z" fill="black"/>
<path d="M36.5144 304.546C36.6951 302.974 34.2393 302.605 34.0656 304.187C33.8726 305.958 33.6714 307.728 33.4784 309.499C33.3047 311.081 35.7523 311.448 35.9272 309.858C36.1202 308.087 36.3214 306.317 36.5144 304.546Z" fill="black"/>
<path d="M42.1578 304.558L40.7077 308.76C40.1878 310.258 42.4499 311.264 42.971 309.758L44.4211 305.556C44.941 304.058 42.6777 303.06 42.1578 304.558Z" fill="black"/>
<path d="M31.4482 296.624L28.1196 291.404C27.2657 290.063 25.2886 291.547 26.1355 292.879L29.4641 298.098C30.3483 299.461 32.3335 297.978 31.4482 296.624Z" fill="black"/>
<path d="M39.4695 290.086C39.1037 291.7 38.5414 293.262 37.7949 294.738C37.0933 296.168 39.3578 297.158 40.0664 295.738C40.8923 294.054 41.514 292.277 41.9183 290.445C42.2622 288.897 39.8122 288.546 39.4695 290.086Z" fill="black"/>
<path d="M34.3919 278.771C34.167 277.405 32.5423 276.601 31.5753 277.85C31.4607 277.997 31.3813 278.168 31.3431 278.35C31.3048 278.532 31.3089 278.72 31.3549 278.901C31.4008 279.081 31.4875 279.249 31.6083 279.391C31.7291 279.532 31.8807 279.645 32.0516 279.719C32.1069 280.252 32.0522 280.852 32.0599 281.311C32.0872 282.148 32.0467 283.05 31.9864 283.916C31.8804 285.491 34.3268 285.867 34.4352 284.275C34.6303 282.445 34.6158 280.598 34.3919 278.771Z" fill="black"/>
<path d="M28.3795 284.112C27.3449 282.887 26.5283 281.493 25.9652 279.993C25.4 278.502 23.1053 279.423 23.6705 280.914C24.3115 282.612 25.2325 284.192 26.3955 285.587C27.4097 286.802 29.4007 285.336 28.3795 284.112Z" fill="black"/>
<path d="M35.2521 270.685C34.6907 268.909 34.3079 267.081 34.1096 265.228C34.0602 264.911 33.8888 264.625 33.6318 264.431C33.3748 264.237 33.0524 264.151 32.7331 264.191C32.4137 264.231 32.1225 264.394 31.9212 264.644C31.7199 264.895 31.6244 265.215 31.6549 265.535C31.8857 267.599 32.3216 269.636 32.9562 271.615C33.4268 273.125 35.7145 272.194 35.2521 270.685Z" fill="black"/>
<path d="M38.5065 258.043C37.8772 259.665 37.524 261.381 37.4616 263.12C37.4152 264.688 39.8698 265.065 39.9104 263.48C39.948 261.96 40.2389 260.457 40.7711 259.033C41.3469 257.551 39.0673 256.551 38.5065 258.043Z" fill="black"/>
<path d="M41.6498 267.658L39.6475 272.271C39.5264 272.568 39.5262 272.902 39.647 273.2C39.7677 273.498 40 273.737 40.2945 273.867C40.5889 273.997 40.9224 274.007 41.2242 273.896C41.526 273.784 41.7723 273.559 41.9109 273.269L43.8887 268.653C43.9699 268.367 43.945 268.061 43.8187 267.791C43.6923 267.522 43.4729 267.307 43.2007 267.186C42.9285 267.065 42.6218 267.046 42.337 267.133C42.0521 267.22 41.8081 267.406 41.6498 267.658Z" fill="black"/>
<path d="M46.3613 277.153C46.0659 277.028 45.7338 277.019 45.4326 277.13C45.1313 277.24 44.8836 277.462 44.7398 277.748C44.1315 278.858 43.3563 279.868 42.4411 280.743C42.2539 280.998 42.1706 281.315 42.208 281.63C42.2454 281.945 42.4008 282.233 42.6427 282.438C42.9 282.622 43.2164 282.703 43.5302 282.666C43.844 282.628 44.1327 282.476 44.3398 282.237C45.388 281.209 46.2728 280.027 46.9635 278.732C47.0805 278.442 47.0835 278.118 46.9718 277.825C46.8602 277.532 46.6422 277.292 46.3613 277.153Z" fill="black"/>
<path d="M42.9019 336.719C42.9785 336.467 42.9904 336.199 42.9365 335.941C42.8826 335.683 42.7646 335.442 42.5933 335.241C42.3271 334.94 41.971 334.733 41.5778 334.65C41.1846 334.567 40.775 334.612 40.4097 334.779C40.0658 334.93 39.7723 335.176 39.5636 335.488C39.2149 335.801 38.9931 336.23 38.9403 336.696C38.8874 337.161 39.0072 337.629 39.2769 338.012C39.4349 338.205 39.6346 338.359 39.861 338.464C39.8915 338.507 39.9245 338.548 39.9597 338.587C40.2802 338.846 40.682 338.985 41.0946 338.979C41.5072 338.972 41.9043 338.821 42.2163 338.551C42.4797 338.331 42.6814 338.047 42.8016 337.726C42.9218 337.405 42.9564 337.058 42.9019 336.719Z" fill="black"/>
<path d="M58.3861 343.939C58.3709 343.678 58.2993 343.423 58.1762 343.192C58.0532 342.961 57.8817 342.76 57.6734 342.601C57.4567 342.436 57.1925 342.344 56.9198 342.34C56.6471 342.336 56.3804 342.42 56.1591 342.579C56.1531 342.62 56.0713 342.666 56.0245 342.701C55.7956 342.763 55.5814 342.871 55.3945 343.017C55.0841 343.293 54.866 343.658 54.7694 344.063C54.6729 344.467 54.7025 344.891 54.8543 345.278C55.0005 345.666 55.2636 345.999 55.6074 346.232C55.9511 346.464 56.3586 346.585 56.7736 346.576C57.1424 346.56 57.4991 346.44 57.8018 346.229C58.1045 346.019 58.3406 345.726 58.4824 345.385C58.5778 345.153 58.6188 344.902 58.6021 344.651C58.5854 344.4 58.5115 344.156 58.3861 343.939Z" fill="black"/>
<path d="M34.2169 352.672C34.0992 352.304 33.8735 351.981 33.5692 351.744C33.4579 351.54 33.3008 351.366 33.1103 351.234C32.9198 351.102 32.7012 351.016 32.4718 350.983C32.1426 350.942 31.809 351.005 31.5171 351.162C31.2252 351.319 30.9893 351.563 30.8422 351.86C30.6931 352.152 30.596 352.467 30.5554 352.793C30.3859 353.051 30.2927 353.352 30.2862 353.661C30.2819 354.007 30.3868 354.346 30.5861 354.63C30.7044 354.878 30.8868 355.091 31.1147 355.246C31.3426 355.401 31.6077 355.492 31.8827 355.511C32.1614 355.62 32.4633 355.658 32.7603 355.62C33.0574 355.582 33.34 355.47 33.5822 355.294C33.944 354.974 34.1988 354.552 34.3123 354.083C34.4258 353.614 34.3925 353.121 34.2169 352.672Z" fill="black"/>
<path d="M24.8385 337.943C24.687 337.755 24.4976 337.601 24.2825 337.49C24.0674 337.38 23.8315 337.316 23.59 337.302C23.3398 337.215 23.0698 337.204 22.813 337.268C22.5562 337.333 22.3239 337.47 22.1444 337.665C22.0567 337.726 21.9741 337.795 21.8974 337.87C21.6325 338.171 21.4474 338.533 21.3593 338.924C21.176 339.365 21.1099 339.846 21.1675 340.32C21.2251 340.794 21.4044 341.245 21.688 341.629C21.8267 341.805 22.0101 341.939 22.2189 342.019C22.4277 342.099 22.6542 342.122 22.8746 342.084C23.095 342.047 23.3013 341.951 23.4717 341.806C23.6421 341.661 23.7703 341.474 23.843 341.262C24.2571 341.076 24.586 340.74 24.7646 340.323C24.8539 340.125 24.9155 339.915 24.9477 339.7C25.0975 339.427 25.1668 339.117 25.1475 338.806C25.1281 338.495 25.021 338.196 24.8385 337.943Z" fill="black"/>
<path d="M50.0527 363.074C50.0484 362.902 50.0171 362.731 49.96 362.569C49.8938 362.361 49.7868 362.167 49.6453 362.001C49.5037 361.834 49.3304 361.697 49.1355 361.598C48.9405 361.499 48.7278 361.44 48.5097 361.423C48.2915 361.407 48.0724 361.434 47.8649 361.504C46.102 362.153 46.7096 364.491 47.8533 365.392C48.071 365.555 48.3348 365.645 48.6069 365.649C48.879 365.653 49.1453 365.571 49.3676 365.414C49.7484 365.175 50.0283 364.805 50.1546 364.374C50.2808 363.943 50.2445 363.48 50.0527 363.074Z" fill="black"/>
<path d="M54.1803 376.715C54.0702 376.435 53.9172 376.173 53.7269 375.94C53.6614 375.827 53.5698 375.731 53.4596 375.66L53.3923 375.55C53.1963 375.287 52.904 375.113 52.5795 375.065C52.2551 375.017 51.925 375.1 51.6618 375.296C51.6375 375.324 51.6113 375.351 51.5834 375.376C51.3459 375.488 51.1416 375.659 50.9903 375.874C50.839 376.088 50.746 376.338 50.7203 376.599L50.7047 376.705C50.6892 376.811 50.6748 376.909 50.6091 377.016C50.5651 377.327 50.6411 377.643 50.8217 377.9C51.0024 378.157 51.2742 378.335 51.5819 378.399L51.6923 378.499C51.945 378.684 52.2568 378.769 52.5685 378.74C52.8802 378.71 53.1702 378.568 53.3835 378.339C53.4594 378.322 53.5332 378.297 53.6031 378.263C53.8748 378.123 54.0845 377.887 54.1913 377.6C54.298 377.314 54.2941 376.998 54.1803 376.715Z" fill="black"/>
<path d="M35.9004 375.141C35.9282 375.097 35.9519 375.05 35.9709 375.002C36.0841 374.747 36.1358 374.469 36.1219 374.191C36.108 373.912 36.0288 373.641 35.8907 373.399C35.7526 373.156 35.5595 372.95 35.327 372.796C35.0944 372.642 34.8289 372.544 34.5517 372.511C34.0771 372.519 33.6226 372.704 33.2773 373.029C32.9319 373.355 32.7205 373.797 32.6845 374.27C32.6726 374.351 32.6606 374.433 32.6487 374.515C32.4881 374.919 32.4579 375.363 32.5624 375.785C32.6451 376.238 32.8783 376.651 33.2244 376.956C33.4606 377.155 33.748 377.284 34.0538 377.328C34.1441 377.354 34.2374 377.367 34.3313 377.369C34.6894 377.369 35.0359 377.242 35.3084 377.011C35.5809 376.779 35.7615 376.457 35.8176 376.104C35.8541 375.898 35.8568 375.687 35.8257 375.48C35.8615 375.37 35.8866 375.257 35.9004 375.141Z" fill="black"/>
<path d="M22.6861 364.999C22.522 364.785 22.315 364.607 22.0782 364.477C21.8415 364.347 21.5802 364.269 21.3112 364.246C21.0422 364.223 20.7713 364.256 20.516 364.344C20.2607 364.431 20.0266 364.571 19.8286 364.755C19.4972 365.076 19.3019 365.513 19.2828 365.974C19.1635 366.223 19.1088 366.498 19.1237 366.774C19.1387 367.05 19.2227 367.318 19.3682 367.552C19.3656 367.58 19.3616 367.607 19.3562 367.634C19.4832 367.924 19.7155 368.156 20.0064 368.282C20.2973 368.408 20.6253 368.419 20.9242 368.314L21.006 368.267C21.2927 368.195 21.557 368.053 21.7754 367.854C21.9937 367.655 22.1593 367.405 22.2573 367.127C22.2974 366.994 22.3175 366.857 22.3171 366.719C22.5943 366.54 22.7888 366.258 22.858 365.935C22.9272 365.613 22.8654 365.276 22.6861 364.999Z" fill="black"/>
<defs>
<clipPath id="clip0">
<rect width="244" height="392" fill="white" transform="translate(94.0635)"/>
</clipPath>
</defs>
</svg>
