<?xml version="1.0" encoding="UTF-8"?> <svg xmlns="http://www.w3.org/2000/svg" width="70" height="70" viewBox="0 0 70 70" fill="none"><path d="M62.6704 13.7797C62.6704 13.7437 62.6794 13.7077 62.6794 13.6807C62.6794 13.6447 62.6704 13.5997 62.6704 13.5638C62.6704 13.5368 62.6704 13.5098 62.6615 13.4738C62.6525 13.4378 62.6436 13.4018 62.6346 13.3658C62.6256 13.3388 62.6167 13.3208 62.6167 13.3028C62.6077 13.3028 62.6077 13.2938 62.6077 13.2848C62.5898 13.2398 62.5719 13.2128 62.5539 13.1768C62.536 13.1498 62.5271 13.1228 62.5091 13.1048C62.4912 13.0778 62.4643 13.0508 62.4375 13.0238C62.4195 12.9968 62.4106 12.9698 62.3927 12.9518C62.3747 12.9338 62.3389 12.9068 62.312 12.8798C62.2941 12.8618 62.2672 12.8348 62.2314 12.8168C62.2134 12.7988 62.1776 12.7898 62.1597 12.7718C62.1238 12.7538 62.088 12.7358 62.0521 12.7268C62.0521 12.7178 62.0432 12.7178 62.0342 12.7178L35.725 2.07199C35.6981 2.06299 35.6623 2.05399 35.6265 2.05399C35.5996 2.03599 35.5727 2.03599 35.5368 2.027C35.501 2.018 35.4741 2.018 35.4383 2.018C35.4114 2.009 35.3755 2 35.3487 2C35.3128 2 35.277 2.009 35.2411 2.018C35.2053 2.018 35.1784 2.018 35.1336 2.027C35.1157 2.03599 35.0888 2.03599 35.053 2.05399C35.0261 2.05399 34.9902 2.06299 34.9633 2.07199L8.64518 12.7178C8.63622 12.7178 8.63622 12.7178 8.62726 12.7268C8.59142 12.7358 8.55557 12.7538 8.52869 12.7808C8.49285 12.7988 8.47493 12.8078 8.44804 12.8168C8.4122 12.8438 8.39428 12.8708 8.3674 12.8978C8.34051 12.9158 8.32259 12.9338 8.29571 12.9518C8.26883 12.9698 8.25987 13.0058 8.24194 13.0328C8.21506 13.0508 8.19714 13.0778 8.17026 13.1048C8.1613 13.1228 8.15234 13.1588 8.13441 13.1768C8.11649 13.2128 8.08961 13.2488 8.08065 13.2848C8.07169 13.2938 8.07169 13.2938 8.07169 13.3028C8.06273 13.3208 8.06273 13.3478 8.05377 13.3658C8.03584 13.4018 8.03584 13.4378 8.02688 13.4738C8.00896 13.5098 8.00896 13.5368 8.00896 13.5727C8.00896 13.5997 8 13.6447 8 13.6717C8 13.7077 8.00896 13.7437 8.00896 13.7797C8.00896 13.8157 8.01792 13.8427 8.02688 13.8787C8.03584 13.9147 8.0448 13.9507 8.05377 13.9867C8.06273 14.0047 8.07169 14.0227 8.07169 14.0497C8.08065 14.0587 8.08961 14.0587 8.08961 14.0677C8.08961 14.0857 8.10753 14.1037 8.11649 14.1127C8.13441 14.1577 8.15234 14.1937 8.17026 14.2297C8.18818 14.2387 8.19714 14.2477 8.2061 14.2657C8.23298 14.3107 8.26883 14.3377 8.29571 14.3737C8.30467 14.3917 8.32259 14.4007 8.33155 14.4097C8.37636 14.4457 8.42116 14.4907 8.47493 14.5266C8.48389 14.5266 8.49285 14.5356 8.50181 14.5356C8.53765 14.5626 8.59142 14.5806 8.63622 14.5986C8.64518 14.6076 8.64518 14.6166 8.66311 14.6166L16.8534 17.8023C16.8086 17.9193 16.7817 18.0273 16.7817 18.1623V27.0623C16.6652 27.4493 16.7996 27.8812 17.1312 28.1422C17.4358 28.3852 24.5777 33.9286 34.6766 33.9286C34.8917 33.9286 35.1246 33.9286 35.3487 33.9196C35.5637 33.9286 35.7967 33.9286 36.0118 33.9286C39.614 33.9286 42.84 33.2266 45.5193 32.2997V35.1074C44.3633 35.5304 43.5389 36.6373 43.5389 37.9421C43.5389 39.5979 44.8741 40.9478 46.5319 40.9478C48.1807 40.9478 49.5248 39.5979 49.5248 37.9421C49.5248 36.6373 48.6914 35.5304 47.5444 35.1164V31.5258C51.1646 29.996 53.387 28.2772 53.5572 28.1422C53.8977 27.8812 54.0232 27.4493 53.9067 27.0623V18.1623C53.9067 18.0273 53.8798 17.9193 53.835 17.8023L62.0253 14.6166C62.0342 14.6166 62.0342 14.6076 62.0521 14.5986C62.0969 14.5806 62.1507 14.5536 62.1955 14.5266L62.2134 14.5176C62.2672 14.4907 62.312 14.4457 62.3658 14.4097C62.3747 14.4007 62.3837 14.3917 62.3927 14.3737C62.4285 14.3467 62.4554 14.3107 62.4823 14.2657C62.4912 14.2477 62.5002 14.2387 62.5091 14.2297C62.536 14.1937 62.554 14.1577 62.5808 14.1127C62.5808 14.0947 62.5898 14.0857 62.5988 14.0677C62.5988 14.0677 62.6077 14.0587 62.6077 14.0497C62.6167 14.0227 62.6167 13.9957 62.6256 13.9687C62.6346 13.9417 62.6525 13.9057 62.6525 13.8697C62.6704 13.8337 62.6704 13.8067 62.6704 13.7797ZM46.5319 38.905C45.9942 38.905 45.5731 38.4641 45.5731 37.9421C45.5731 37.4202 46.0032 36.9792 46.5319 36.9792C47.0606 36.9792 47.4817 37.4202 47.4817 37.9421C47.4817 38.4641 47.0606 38.905 46.5319 38.905ZM46.5856 18.4142L35.7967 12.7538C35.2949 12.5019 34.6856 12.6998 34.4167 13.1948C34.1479 13.6897 34.354 14.3107 34.8558 14.5716L44.0587 19.3951L35.3397 22.7788L11.7905 13.6447L35.3487 4.11477L58.8979 13.6447L46.5856 18.4142ZM35.3487 31.8768C35.3397 31.8768 35.3397 31.8768 35.3307 31.8768C26.9702 32.1018 20.4915 28.0342 18.8068 26.8643V18.5582L34.9723 24.8215C34.9902 24.8305 34.9902 24.8305 35.0081 24.8305C35.044 24.8485 35.0888 24.8575 35.1246 24.8665C35.1426 24.8665 35.1605 24.8755 35.1784 24.8755C35.2232 24.8845 35.277 24.8935 35.3397 24.8935C35.3487 24.8935 35.3487 24.8935 35.3487 24.8935C35.4024 24.8935 35.4562 24.8845 35.5189 24.8755C35.5279 24.8755 35.5458 24.8665 35.5637 24.8665C35.6085 24.8575 35.6444 24.8485 35.6892 24.8305C35.6981 24.8305 35.7071 24.8305 35.7161 24.8215L45.5193 21.0239V30.122C42.7324 31.1479 39.2556 31.9758 35.3487 31.8768ZM51.8726 26.8643C51.1826 27.3413 49.6771 28.3132 47.5444 29.2851V20.223L51.8636 18.5492V26.8643H51.8726Z" fill="#E83118"></path><path d="M47.5169 41.5775C47.0241 41.5775 46.6208 41.9105 46.5312 42.3694C46.4147 41.9105 46.0205 41.5775 45.5455 41.5775C44.981 41.5775 44.533 42.0365 44.533 42.5944V47.1299C44.533 47.6789 44.981 48.1468 45.5455 48.1468C46.0294 48.1468 46.4237 47.7958 46.5312 47.3549C46.6298 47.7958 47.0331 48.1468 47.5169 48.1468C48.0815 48.1468 48.5295 47.6699 48.5295 47.1299V42.5944C48.5385 42.0365 48.0815 41.5775 47.5169 41.5775Z" fill="#E83118"></path></svg> 