<?xml version="1.0" encoding="UTF-8"?> <svg xmlns="http://www.w3.org/2000/svg" width="70" height="70" viewBox="0 0 70 70" fill="none"><mask id="path-1-inside-1" fill="white"><path d="M29.3729 48.9428C29.4851 49 29.5411 49 29.6533 49C29.9336 49 30.2139 48.8285 30.3821 48.5998L47.8739 19.6107C48.042 19.3248 48.042 19.0389 47.8739 18.753C47.7057 18.4672 47.4253 18.2956 47.145 18.2956H40.081L44.3979 3.08637C44.454 2.80049 44.3979 2.57178 44.2858 2.34307C44.1176 2.11436 43.8934 2 43.613 2H28.0274C27.5789 2 27.2425 2.34307 27.1865 2.80049L25 26.6436C25 26.8723 25.0561 27.101 25.2243 27.3297C25.3924 27.5012 25.6167 27.6156 25.841 27.6156H32.064L28.8684 48.028C28.7562 48.371 28.9805 48.7713 29.3729 48.9428ZM33.858 26.8723C33.9141 26.6436 33.8019 26.3577 33.6898 26.1861C33.5216 26.0146 33.2974 25.9002 33.0731 25.9002H26.738L28.8123 3.77251H42.4918L38.1749 18.9246C38.1188 19.2105 38.1749 19.4392 38.287 19.6679C38.4552 19.8966 38.6795 20.011 38.9598 20.011H45.6313L31.167 44.0255L33.858 26.8723Z"></path></mask><path d="M29.3729 48.9428C29.4851 49 29.5411 49 29.6533 49C29.9336 49 30.2139 48.8285 30.3821 48.5998L47.8739 19.6107C48.042 19.3248 48.042 19.0389 47.8739 18.753C47.7057 18.4672 47.4253 18.2956 47.145 18.2956H40.081L44.3979 3.08637C44.454 2.80049 44.3979 2.57178 44.2858 2.34307C44.1176 2.11436 43.8934 2 43.613 2H28.0274C27.5789 2 27.2425 2.34307 27.1865 2.80049L25 26.6436C25 26.8723 25.0561 27.101 25.2243 27.3297C25.3924 27.5012 25.6167 27.6156 25.841 27.6156H32.064L28.8684 48.028C28.7562 48.371 28.9805 48.7713 29.3729 48.9428ZM33.858 26.8723C33.9141 26.6436 33.8019 26.3577 33.6898 26.1861C33.5216 26.0146 33.2974 25.9002 33.0731 25.9002H26.738L28.8123 3.77251H42.4918L38.1749 18.9246C38.1188 19.2105 38.1749 19.4392 38.287 19.6679C38.4552 19.8966 38.6795 20.011 38.9598 20.011H45.6313L31.167 44.0255L33.858 26.8723Z" fill="#F7544A"></path><path d="M29.3729 48.9428L36.6415 34.6891L36.2173 34.4728L35.781 34.2821L29.3729 48.9428ZM30.3821 48.5998L43.2719 58.0788L43.7043 57.4908L44.0814 56.8658L30.3821 48.5998ZM47.8739 19.6107L61.5732 27.8768L61.6192 27.8005L61.6644 27.7238L47.8739 19.6107ZM40.081 18.2956L24.689 13.9269L18.9077 34.2956H40.081V18.2956ZM44.3979 3.08637L59.7899 7.45513L59.9712 6.81666L60.0989 6.16537L44.3979 3.08637ZM44.2858 2.34307L58.6522 -4.70015L58.0228 -5.98402L57.1757 -7.13594L44.2858 2.34307ZM27.1865 2.80049L11.3053 0.854027L11.2756 1.0963L11.2533 1.33938L27.1865 2.80049ZM25 26.6436L9.06685 25.1824L9 25.9115V26.6436H25ZM25.2243 27.3297L12.3344 36.8087L13.006 37.722L13.7998 38.5315L25.2243 27.3297ZM32.064 27.6156L47.8714 30.0903L50.7637 11.6156H32.064V27.6156ZM28.8684 48.028L44.0767 52.9986L44.4767 51.7748L44.6758 50.5027L28.8684 48.028ZM33.858 26.8723L18.3181 23.063L18.1565 23.7221L18.0513 24.3925L33.858 26.8723ZM33.6898 26.1861L47.0824 17.4317L46.219 16.111L45.1143 14.9843L33.6898 26.1861ZM26.738 25.9002L10.8078 24.4069L9.16791 41.9002H26.738V25.9002ZM28.8123 3.77251V-12.2275H14.2421L12.8822 2.27915L28.8123 3.77251ZM42.4918 3.77251L57.8794 8.15651L63.6869 -12.2275H42.4918V3.77251ZM38.1749 18.9246L22.7872 14.5406L22.6032 15.1865L22.4739 15.8456L38.1749 18.9246ZM38.287 19.6679L23.9206 26.7111L24.5501 27.995L25.3972 29.1469L38.287 19.6679ZM45.6313 20.011L59.3372 28.2662L73.9465 4.01095H45.6313V20.011ZM31.167 44.0255L15.3603 41.5458L44.8728 52.2808L31.167 44.0255ZM22.1044 63.1965C23.2071 63.7588 24.806 64.4223 26.832 64.7666C27.7339 64.9199 28.4795 64.9683 28.9508 64.9868C29.1799 64.9958 29.3652 64.9983 29.4705 64.9992C29.5254 64.9997 29.5708 64.9999 29.599 64.9999C29.6255 65 29.6496 65 29.6533 65V33C29.2764 33 30.6544 32.9574 32.1942 33.2191C34.1361 33.5492 35.6509 34.184 36.6415 34.6891L22.1044 63.1965ZM29.6533 65C36.0968 65 40.7872 61.4576 43.2719 58.0788L17.4922 39.1208C18.7415 37.422 20.3329 36.007 22.1723 34.9649C24.0044 33.9268 26.5567 33 29.6533 33V65ZM44.0814 56.8658L61.5732 27.8768L34.1745 11.3446L16.6827 40.3337L44.0814 56.8658ZM61.6644 27.7238C62.9603 25.5209 64 22.6077 64 19.1819C64 15.756 62.9603 12.8428 61.6644 10.64L34.0833 26.8661C32.9556 24.9492 32 22.3219 32 19.1819C32 16.0419 32.9556 13.4146 34.0833 11.4976L61.6644 27.7238ZM61.6644 10.64C59.1083 6.29519 53.9937 2.29562 47.145 2.29562V34.2956C40.857 34.2956 36.303 30.6391 34.0833 26.8661L61.6644 10.64ZM47.145 2.29562H40.081V34.2956H47.145V2.29562ZM55.4731 22.6644L59.7899 7.45513L29.0059 -1.28238L24.689 13.9269L55.4731 22.6644ZM60.0989 6.16537C60.9913 1.61464 59.8802 -2.19541 58.6522 -4.70015L29.9194 9.38628C29.5135 8.55828 28.9468 7.19917 28.6392 5.42119C28.3191 3.57095 28.3589 1.73115 28.697 0.00737941L60.0989 6.16537ZM57.1757 -7.13594C54.038 -11.4026 49.059 -14 43.613 -14V18C41.5173 18 39.1073 17.5554 36.723 16.3395C34.3456 15.1272 32.5979 13.4566 31.3959 11.8221L57.1757 -7.13594ZM43.613 -14H28.0274V18H43.613V-14ZM28.0274 -14C18.2078 -14 12.1797 -6.28052 11.3053 0.854027L43.0676 4.74695C42.3053 10.9667 36.9501 18 28.0274 18V-14ZM11.2533 1.33938L9.06685 25.1824L40.9331 28.1047L43.1196 4.2616L11.2533 1.33938ZM9 26.6436C9 29.8267 9.89141 33.4866 12.3344 36.8087L38.1141 17.8507C39.0657 19.1446 39.8396 20.6431 40.347 22.2992C40.8481 23.9346 41 25.4302 41 26.6436H9ZM13.7998 38.5315C16.1806 40.9597 20.3007 43.6156 25.841 43.6156V11.6156C30.9327 11.6156 34.6042 14.0427 36.6487 16.1278L13.7998 38.5315ZM25.841 43.6156H32.064V11.6156H25.841V43.6156ZM16.2565 25.1409L13.0609 45.5533L44.6758 50.5027L47.8714 30.0903L16.2565 25.1409ZM13.6601 43.0573C10.266 53.4419 17.3574 61.1526 22.9649 63.6035L35.781 34.2821C40.6036 36.39 47.2465 43.3002 44.0767 52.9986L13.6601 43.0573ZM49.3979 30.6815C50.3327 26.8681 49.6803 23.7032 49.2105 22.0743C48.6969 20.2933 47.9338 18.7343 47.0824 17.4317L20.2973 34.9405C19.558 33.8095 18.907 32.4793 18.4635 30.9413C18.0638 29.5553 17.4394 26.6477 18.3181 23.063L49.3979 30.6815ZM45.1143 14.9843C42.7335 12.5561 38.6134 9.90024 33.0731 9.90024V41.9002C27.9813 41.9002 24.3098 39.4731 22.2653 37.388L45.1143 14.9843ZM33.0731 9.90024H26.738V41.9002H33.0731V9.90024ZM42.6681 27.3936L44.7425 5.26586L12.8822 2.27915L10.8078 24.4069L42.6681 27.3936ZM28.8123 19.7725H42.4918V-12.2275H28.8123V19.7725ZM27.1041 -0.611499L22.7872 14.5406L53.5626 23.3086L57.8794 8.15651L27.1041 -0.611499ZM22.4739 15.8456C21.5815 20.3964 22.6927 24.2065 23.9206 26.7111L52.6534 12.6247C53.0593 13.4526 53.626 14.8117 53.9336 16.5897C54.2538 18.4399 54.2139 20.2798 53.8758 22.0036L22.4739 15.8456ZM25.3972 29.1469C28.5348 33.4135 33.5138 36.0109 38.9598 36.0109V4.01095C41.0556 4.01095 43.4655 4.45559 45.8499 5.67147C48.2273 6.88378 49.9749 8.55438 51.1769 10.1889L25.3972 29.1469ZM38.9598 36.0109H45.6313V4.01095H38.9598V36.0109ZM31.9255 11.7557L17.4611 35.7703L44.8728 52.2808L59.3372 28.2662L31.9255 11.7557ZM46.9736 46.5053L49.6647 29.352L18.0513 24.3925L15.3603 41.5458L46.9736 46.5053Z" fill="#E83118" mask="url(#path-1-inside-1)"></path></svg> 