<?xml version="1.0" encoding="UTF-8"?> <svg xmlns="http://www.w3.org/2000/svg" width="70" height="70" viewBox="0 0 70 70" fill="none"><path d="M48.3468 27.0661C48.3468 19.401 42.1248 13.1462 34.4998 13.1462C26.8748 13.1462 20.6528 19.401 20.6528 27.0661C20.6528 28.1698 20.7748 29.2736 21.0798 30.3774C21.4458 32.1557 22.1168 33.2594 23.0318 34.7925C23.2148 35.1604 23.4588 35.5283 23.7028 35.9576C24.0078 36.4481 24.2518 36.9387 24.5568 37.3679C25.7768 39.3915 26.5089 40.5566 26.5089 42.9481V48.7122C26.5089 50.1839 27.5459 51.3491 28.9489 51.5944C29.5589 54.7217 31.3888 56.6839 34.4998 56.6839C37.6108 56.6839 39.5018 54.7217 40.0508 51.5944C41.4538 51.3491 42.4908 50.1226 42.4908 48.7122V42.9481C42.4908 40.5566 43.2228 39.3302 44.4428 37.3679C44.6868 36.9387 44.9918 36.4481 45.2968 35.9576C45.5408 35.5283 45.7848 35.1604 45.9678 34.7925C46.8828 33.2594 47.5538 32.1557 47.9198 30.3774C48.2248 29.2736 48.3468 28.1698 48.3468 27.0661ZM40.1118 44.4198H29.0098V43.0094C29.0098 42.7028 29.0099 42.4575 28.9489 42.2122H40.1118C40.1118 42.4575 40.0508 42.7028 40.0508 43.0094V44.4198H40.1118ZM39.5628 49.2641H29.4368C29.1318 49.2641 28.9489 49.0189 28.9489 48.7736V46.8726H40.0508V48.7736C40.1118 49.0189 39.8678 49.2641 39.5628 49.2641ZM34.4998 54.2925C33.8288 54.2925 32.1208 54.2924 31.4498 51.717H37.6108C36.9398 54.2924 35.1708 54.2925 34.4998 54.2925ZM45.5408 29.8868C45.2358 31.2359 44.7479 32.1557 43.8939 33.566C43.6499 33.934 43.4668 34.3019 43.2228 34.7311C42.9178 35.2217 42.6738 35.7122 42.4298 36.0802C41.6978 37.3066 41.0268 38.4104 40.5998 39.6981H28.5218C28.0948 38.4104 27.4848 37.3066 26.6918 36.0802C26.4478 35.6509 26.1429 35.2217 25.8989 34.7311C25.6549 34.3019 25.4108 33.8726 25.2278 33.566C24.3738 32.0943 23.8858 31.2359 23.5808 29.8255C23.3368 28.9057 23.2148 27.9859 23.2148 27.0661C23.2148 20.75 28.3388 15.5991 34.6218 15.5991C40.9048 15.5991 46.0289 20.75 46.0289 27.0661C45.9069 27.9859 45.7848 28.9057 45.5408 29.8868Z" fill="#E83118"></path><path d="M59.6319 25.8396H54.5689C53.8979 25.8396 53.3489 26.3915 53.3489 27.066C53.3489 27.7405 53.8979 28.2924 54.5689 28.2924H59.6319C60.3029 28.2924 60.8519 27.7405 60.8519 27.066C60.8519 26.3915 60.3029 25.8396 59.6319 25.8396Z" fill="#E83118"></path><path d="M48.6521 14.066C48.9571 14.066 49.2621 13.9433 49.5061 13.698L53.1051 10.0801C53.5931 9.58957 53.5931 8.85373 53.1051 8.36316C52.6171 7.8726 51.8851 7.8726 51.3971 8.36316L47.7981 11.9811C47.3101 12.4716 47.3101 13.2075 47.7981 13.698C48.0421 13.9433 48.3471 14.066 48.6521 14.066Z" fill="#E83118"></path><path d="M34.4998 8.11788C35.1708 8.11788 35.7198 7.566 35.7198 6.89147V1.80185C35.7198 1.12733 35.1708 0.575439 34.4998 0.575439C33.8288 0.575439 33.2798 1.12733 33.2798 1.80185V6.89147C33.2798 7.566 33.8288 8.11788 34.4998 8.11788Z" fill="#E83118"></path><path d="M19.4938 13.698C19.7378 13.9433 20.0428 14.066 20.3478 14.066C20.6528 14.066 20.9578 13.9433 21.2018 13.698C21.6898 13.2075 21.6898 12.4716 21.2018 11.9811L17.6028 8.36316C17.1148 7.8726 16.3828 7.8726 15.8948 8.36316C15.4068 8.85373 15.4068 9.58957 15.8948 10.0801L19.4938 13.698Z" fill="#E83118"></path><path d="M14.492 25.8396H9.42898C8.75798 25.8396 8.20898 26.3915 8.20898 27.066C8.20898 27.7405 8.75798 28.2924 9.42898 28.2924H14.492C15.163 28.2924 15.712 27.7405 15.712 27.066C15.712 26.3915 15.163 25.8396 14.492 25.8396Z" fill="#E83118"></path><path d="M19.4938 40.434L15.8948 44.0519C15.4068 44.5424 15.4068 45.2783 15.8948 45.7689C16.1388 46.0142 16.4438 46.1368 16.7488 46.1368C17.0538 46.1368 17.3588 46.0142 17.6028 45.7689L21.2018 42.1509C21.6898 41.6604 21.6898 40.9245 21.2018 40.434C20.7138 39.9434 19.9208 39.9434 19.4938 40.434Z" fill="#E83118"></path><path d="M49.5061 40.434C49.0181 39.9434 48.2861 39.9434 47.7981 40.434C47.3101 40.9245 47.3101 41.6604 47.7981 42.1509L51.3971 45.7689C51.6411 46.0142 51.9461 46.1368 52.2511 46.1368C52.5561 46.1368 52.8611 46.0142 53.1051 45.7689C53.5931 45.2783 53.5931 44.5424 53.1051 44.0519L49.5061 40.434Z" fill="#E83118"></path></svg> 