<?xml version="1.0" encoding="UTF-8"?> <svg xmlns="http://www.w3.org/2000/svg" width="130" height="45" viewBox="0 0 130 45" fill="none"><path d="M23.42 6.94799C25.472 4.09799 26.27 2.72999 26.194 2.19799C25.852 -0.918008 11.146 20.742 7.83995 26.404C6.66195 28.38 5.63595 29.216 2.10195 30.964C0.543952 31.724 0.429952 31.838 0.771952 32.218C1.11395 32.636 1.18995 32.636 2.44395 32.256C3.92595 31.838 4.30595 31.876 4.83795 31.876C3.24195 36.094 3.08995 36.056 4.07795 37.044C5.06595 37.918 5.40795 37.918 5.97795 36.968C6.43395 36.322 6.58595 35.79 7.04195 33.7C7.11795 33.396 7.53595 33.966 7.68795 34.232C10.31 37.88 18.328 43.124 28.208 44.492C30.412 44.834 39.076 44.91 41.698 41.452C42.572 40.274 42.458 39.666 41.546 40.73C40.368 42.022 36.264 43.162 32.502 43.162C25.51 43.162 15.098 39.248 10.348 34.878C8.94195 33.586 7.83995 32.18 7.80195 31.686C7.76395 31.458 8.10595 30.622 8.56195 29.786C9.81595 27.468 9.73995 28.494 20.646 19.488C29.386 12.344 36.834 6.94799 41.318 4.47799C43.864 3.10999 48.842 0.905991 49.146 3.86999C49.298 5.23799 49.906 4.81999 49.754 3.48999C49.526 1.28599 46.828 0.411993 43.332 1.51399C38.696 2.99599 28.132 10.368 17.112 19.982C16.39 20.59 11.222 25.112 11.64 24.428C12.628 22.946 14.566 19.412 23.42 6.94799Z" fill="black"></path><path d="M26.3059 30.47C26.3059 32.94 28.0159 35.068 28.8899 35.448C32.4619 36.892 38.9219 29.9 38.3899 29.9C37.7059 29.9 32.4619 34.042 29.9539 34.042C27.3319 34.042 27.7879 30.622 28.6619 28.076C29.1559 26.556 29.1939 26.518 30.6759 25.72C36.7939 22.338 51.5759 6.98599 51.5759 2.53999C51.5759 1.43799 50.7019 0.791992 49.7519 0.791992C45.4199 0.791992 26.3059 21.426 26.3059 30.47ZM30.2199 24.466C31.3599 21.616 45.8379 2.12199 50.0179 2.12199C51.7659 2.12199 46.7499 8.54399 45.6479 9.87399C40.0999 16.562 29.5359 26.442 30.2199 24.466Z" fill="black"></path><path d="M44.458 23.288C44.762 23.288 45.256 22.832 45.978 21.958C46.472 21.35 46.662 21.046 46.662 20.78C46.662 20.628 46.358 18.994 44.952 20.514C43.736 21.806 44.002 23.288 44.458 23.288ZM42.558 24.58C42.444 24.58 42.292 24.618 42.14 24.694C41.684 24.846 37.314 29.672 37.314 31.648C37.314 32.256 38.568 35.258 41.988 33.51C43.318 32.826 47.194 29.748 46.13 29.748C45.902 29.748 45.484 29.976 44.762 30.47C42.976 31.762 40.772 32.75 39.822 32.75C38.112 32.75 40.962 28.494 41.95 27.126C42.976 25.644 43.204 24.58 42.558 24.58Z" fill="black"></path><path d="M47.197 32.446C47.197 31.534 51.339 26.556 51.339 25.378C51.339 24.998 50.997 24.846 50.655 24.846C49.439 24.846 44.119 31.458 44.119 33.396C44.119 34.004 45.715 35.448 46.171 35.448C46.855 35.448 52.859 29.634 52.859 29.824C52.859 30.204 52.479 30.66 52.479 31.344C52.479 31.838 54.037 33.282 54.151 33.282C55.215 33.282 58.711 29.634 62.207 26.974C65.627 24.352 60.041 29.102 59.585 32.712C59.395 34.156 61.295 35.6 62.055 35.6C63.993 35.6 70.035 30.014 68.857 30.014C68.857 30.014 63.271 33.814 61.561 33.814C63.081 29.482 66.957 24.2 66.957 24.2C66.957 24.01 66.615 23.554 66.197 23.554C64.639 23.554 58.293 28.19 57.039 29.178C56.963 29.216 55.101 30.66 55.063 30.546C55.025 30.546 55.025 30.508 55.025 30.508C55.025 29.672 59.547 25.378 57.761 25.378C56.013 25.378 50.617 29.786 49.249 30.888C47.235 32.56 47.197 32.522 47.197 32.446Z" fill="black"></path><path d="M68.0088 31.724C68.0088 32.56 68.1608 32.826 68.9968 33.7C70.2508 35.03 70.8208 35.106 71.4668 35.106C73.5568 35.106 76.7868 33.244 78.1548 31.002C78.3828 30.622 78.4968 30.318 78.4968 30.128C78.4968 29.102 74.9248 33.434 71.6568 33.434C70.0988 33.434 69.7188 32.75 70.3648 31.268C70.6308 30.622 70.7828 30.508 71.1628 30.584C72.9108 31.078 76.1028 27.734 76.1028 26.366C76.1028 25.454 74.8108 24.466 72.9868 24.998C70.8208 25.644 68.0088 29.444 68.0088 31.724ZM74.5448 26.746C74.5448 27.088 73.1768 28.836 72.6448 29.178C71.9608 29.634 70.9348 30.052 70.9348 29.862C70.9348 28.912 74.5448 25.644 74.5448 26.746Z" fill="black"></path><path d="M78.5683 33.89C78.5683 33.89 87.0803 26.594 90.7663 24.694C91.8683 24.124 91.8683 24.124 90.2723 26.214C89.3223 27.506 87.8783 29.824 87.9163 31.306C87.9163 32.294 89.2463 35.182 92.0583 33.548C93.1603 32.94 95.9723 30.356 95.9723 30.014C95.9723 29.482 91.8683 32.674 90.3483 32.674C87.9163 32.674 93.4643 25.15 93.4643 23.744C93.4643 23.288 93.1223 23.212 92.6663 23.25C89.6263 23.364 80.7723 30.508 80.2403 30.85C80.1263 30.926 80.0123 31.002 80.0123 30.964C80.0123 30.774 83.5083 26.48 83.5083 26.062C83.5083 25.644 83.1283 25.112 82.7483 25.112C81.8743 25.112 76.8583 31.078 76.8583 32.142C76.8583 32.598 78.1123 33.89 78.5683 33.89Z" fill="black"></path><path d="M93.0475 35.258C93.9215 35.258 95.2135 33.7 99.3175 30.014C105.702 41.718 117.064 41.642 117.064 36.892C117.064 36.55 116.532 37.082 116.304 37.348C115.62 38.032 114.67 38.374 113.568 38.374C108.476 38.374 103.46 32.712 101.218 30.394L102.586 30.28C106.5 29.9 109.806 25.948 109.806 24.542C109.806 22.908 107.868 23.212 106.386 23.858C104.98 24.504 101.408 26.86 99.5835 28.418C98.9755 28.95 98.4815 29.33 98.4055 29.33L98.3675 29.292C98.3675 28.874 100.724 26.48 101.218 26.366C103.726 25.758 123.828 10.558 123.828 4.36399C123.828 3.71799 123.41 1.89399 121.7 1.89399C115.924 1.89399 92.8575 33.13 92.6295 34.004C92.4775 34.536 92.5155 35.258 93.0475 35.258ZM101.712 28.228C112.238 20.59 108.096 26.48 104.182 28.418C101.332 29.748 99.6595 29.672 101.712 28.228ZM102.016 24.77C110.984 13.94 118.66 2.76799 121.814 3.07199C122.688 3.14799 122.84 3.48999 122.612 4.74399C121.548 10.254 100.078 27.088 102.016 24.77Z" fill="black"></path><path d="M109.333 33.814C110.891 33.814 115.945 29.444 115.945 26.328C115.945 25.416 115.375 23.554 113.741 23.744L113.133 23.82C114.349 24.466 116.021 25.036 113.285 28.684C112.297 30.014 109.067 32.864 109.067 31.8C109.067 31.534 109.219 31.04 109.599 30.242C110.131 29.102 111.917 27.278 112.525 27.278C112.981 27.278 113.209 27.088 113.209 26.67C113.209 23.288 106.939 28.114 106.939 31.23C106.939 32.066 108.953 33.814 109.333 33.814Z" fill="black"></path><path d="M116.502 37.5C116.502 37.5 116.502 37.5 116.54 37.5C117.946 37.5 122.924 28.304 123.342 29.14C123.456 29.292 124.634 31.306 126.306 31.116C127.446 31.002 129.346 30.394 129.346 30.09C129.346 29.254 123.38 31.99 125.926 26.062C126.762 24.162 126.154 22.946 125.014 24.162C124.102 25.188 116.958 34.954 116.654 34.954C116.35 34.954 117.072 32.256 117.452 30.774C118.25 27.734 118.25 26.822 117.452 26.822C116.996 26.822 116.806 27.012 116.35 28.266C115.438 30.774 114.754 33.434 114.716 34.65C114.64 36.512 116.312 37.5 116.502 37.5Z" fill="black"></path></svg> 