<?xml version="1.0" encoding="UTF-8"?> <svg xmlns="http://www.w3.org/2000/svg" width="70" height="70" viewBox="0 0 70 70" fill="none"><path d="M47.5236 37.1718L47.5236 37.1718C47.8051 36.8917 48.2642 36.8906 48.5476 37.17C48.8279 37.4486 48.8277 37.8963 48.5487 38.1737C44.4488 42.251 38.9957 44.4967 33.1872 44.4967C21.2253 44.4967 11.5 34.8484 11.5 22.9984C11.5 17.1389 13.835 11.6636 18.0756 7.57756C18.3635 7.30109 18.8227 7.30842 19.1005 7.59158C19.3759 7.8737 19.3697 8.32038 19.085 8.59597C15.1262 12.409 12.9427 17.5244 12.9427 22.9984C12.9427 34.0718 22.0281 43.0741 33.1865 43.0741C38.6041 43.0741 43.6967 40.9774 47.5236 37.1718Z" fill="#E83118" stroke="#E83118"></path><path d="M58.1428 17.0068L58.1418 17.0062C57.8079 16.7875 57.3581 16.8807 57.1394 17.2089L58.1428 17.0068ZM58.1428 17.0068C58.4751 17.2232 58.5639 17.6636 58.3488 17.9871L58.3488 17.9871L54.7694 23.3722C54.768 23.3742 54.7667 23.376 54.7655 23.3777C54.7606 23.3842 54.7556 23.3911 54.7501 23.3988C54.7498 23.3992 54.7493 23.3998 54.7486 23.4008L54.7428 23.4081L54.7328 23.4207L54.7327 23.4206L54.7254 23.4305C54.7174 23.4412 54.7105 23.45 54.7033 23.4586M58.1428 17.0068L54.7033 23.4586M53.9833 23.6886C53.9801 23.6879 53.9767 23.6872 53.9732 23.6865L53.9731 23.6869C53.9651 23.6843 53.9583 23.6823 53.9537 23.6809L53.9488 23.6795L53.9435 23.6776L53.9286 23.6723L53.9287 23.6721L53.9153 23.6678C53.9077 23.6654 53.8994 23.6625 53.8841 23.6569L53.8804 23.6553L53.8723 23.652L53.7788 23.6056L53.7644 23.5969C53.7587 23.5931 53.7531 23.5896 53.7477 23.5863L53.7446 23.584L53.7321 23.5749L53.7295 23.5733L53.7294 23.5733L53.724 23.5689L53.7164 23.5629L53.7062 23.5548L53.6801 23.5252L53.6453 23.5054L48.7786 19.2562L48.7781 19.2559C48.4807 18.9968 48.4525 18.5495 48.7139 18.2556C48.9773 17.9593 49.4355 17.9296 49.7364 18.1915C49.7366 18.1916 49.7367 18.1917 49.7368 18.1918L52.3898 20.5091L53.413 21.4029L53.2133 20.059C51.7737 10.3742 43.3402 2.92336 33.1872 2.92336C30.2885 2.92336 27.4866 3.51868 24.8656 4.69214L24.8647 4.69258C24.5002 4.85669 24.0714 4.69397 23.9078 4.33563C23.7462 3.98132 23.9039 3.56041 24.2674 3.39804L24.2678 3.39783C27.0785 2.13897 30.0786 1.5 33.1872 1.5C43.9424 1.5 52.8902 9.30287 54.585 19.4889L54.793 20.7392L55.4946 19.6836L57.1392 17.2092L53.914 23.7614L53.9042 23.7959M53.9833 23.6886L53.9875 23.6895L53.876 24.1769M53.9833 23.6886L53.967 23.6848C53.9652 23.6843 53.9641 23.684 53.9634 23.6838C53.9626 23.6836 53.9626 23.6836 53.9633 23.6838L53.8175 24.1621M53.9833 23.6886C53.9896 23.6899 53.9952 23.6911 53.9996 23.6922L54.0151 23.6958C54.0168 23.6962 54.018 23.6965 54.0189 23.6967M53.876 24.1769L53.9709 23.6981L53.8175 24.1621M53.876 24.1769C53.883 24.1783 53.8902 24.1801 53.8975 24.1818C53.9057 24.1838 53.9141 24.1858 53.9225 24.1874C53.9367 24.1903 53.951 24.1918 53.9645 24.1948M53.876 24.1769C53.8565 24.1725 53.837 24.168 53.8175 24.1621M53.8175 24.1621C53.8145 24.1611 53.8108 24.1601 53.8071 24.1591C53.8053 24.1586 53.8035 24.1581 53.8017 24.1576M54.0189 23.6967L54.0154 23.6961C54.0166 23.6963 54.0176 23.6965 54.0184 23.6967L54.018 23.6966L54.0205 23.6971L54.0246 23.6979L54.0246 23.6978L54.0193 23.6968M54.0189 23.6967C54.0189 23.6967 54.019 23.6968 54.019 23.6968L54.0193 23.6968M54.0189 23.6967L54.0193 23.6968M54.0193 23.6968L54.0221 23.6973L54.0403 23.7003C54.041 23.7004 54.0416 23.7005 54.0423 23.7006M54.0423 23.7006L54.026 23.6986L54.0222 23.7288C54.0207 23.7293 54.0192 23.7297 54.0179 23.7301C54.0147 23.731 54.012 23.7318 54.0099 23.7325L54.0083 23.733M54.0423 23.7006L54.0619 23.703C54.0741 23.7045 54.0844 23.7062 54.0914 23.7073L54.0955 23.7081C54.1132 23.7091 54.1306 23.7097 54.1475 23.7097C54.1496 23.7097 54.1517 23.7097 54.1538 23.7097C54.1559 23.7097 54.1581 23.7097 54.1602 23.7097C54.1798 23.7097 54.2013 23.7086 54.2272 23.7062L54.2337 23.705C54.2389 23.7041 54.2454 23.703 54.253 23.7019C54.2707 23.699 54.287 23.6968 54.2969 23.6953C54.2977 23.6952 54.2985 23.6951 54.2993 23.695L54.3074 23.6927L54.3188 23.69L54.3397 23.6851C54.3524 23.6814 54.3632 23.6785 54.3702 23.6766L54.3727 23.676C54.3848 23.6711 54.3996 23.6657 54.4167 23.6605L54.4175 23.6602C54.425 23.657 54.4313 23.6545 54.4353 23.6528L54.4356 23.6527C54.4404 23.6508 54.4423 23.65 54.4429 23.6498L54.4538 23.645L54.4546 23.6447L54.4593 23.6425C54.4639 23.6402 54.4708 23.637 54.4788 23.6334C54.4793 23.6331 54.4798 23.6328 54.4803 23.6326L54.4817 23.6316L54.5134 23.6144L54.5134 23.6145L54.5321 23.6015L54.552 23.5902L54.561 23.5852C54.563 23.5838 54.5648 23.5825 54.5665 23.5814C54.5683 23.5801 54.57 23.579 54.5715 23.578L54.5727 23.577L54.5877 23.5654C54.5924 23.5618 54.5985 23.5572 54.6055 23.5521L54.0617 23.7043C54.0543 23.7028 54.0478 23.7016 54.0423 23.7006ZM54.0083 23.733L54.0082 23.733C54.0082 23.733 54.0083 23.733 54.0083 23.733ZM54.0083 23.733C54.0107 23.7322 54.014 23.7313 54.0179 23.7301C54.0192 23.7298 54.0207 23.7293 54.0222 23.7289L53.9645 24.1948M53.9645 24.1948L54.0005 24.1993L54.0479 23.8159L53.9645 24.1948ZM53.8017 24.1576L53.917 23.7894M53.8017 24.1576L53.9042 23.7959M53.8017 24.1576L53.8294 23.8336L53.8688 23.8137L53.8813 23.8074L53.9042 23.7959M53.917 23.7894L53.9265 23.7847C53.9249 23.7814 53.9232 23.7782 53.9215 23.775L53.917 23.7894ZM53.917 23.7894L53.9042 23.7959M54.7033 23.4586C54.703 23.459 54.7027 23.4594 54.7023 23.4598L54.7016 23.4606C54.6952 23.4672 54.6876 23.4751 54.6794 23.4844C54.6673 23.4968 54.6615 23.5025 54.6573 23.5064L54.6592 23.5085C54.6585 23.5094 54.6577 23.5103 54.657 23.5113L54.6473 23.5222L54.645 23.5248L54.6281 23.544L54.6243 23.5483L54.7033 23.4586ZM54.0695 23.7179L54.072 23.7065C54.0685 23.7057 54.0651 23.705 54.0618 23.7043L54.0695 23.7179ZM54.0695 23.7179C54.0721 23.7174 54.0748 23.7169 54.0775 23.7165L54.0695 23.7179ZM53.6901 23.555L53.69 23.555C53.6886 23.5543 53.6878 23.5539 53.6876 23.5538C53.6874 23.5536 53.6883 23.5541 53.6901 23.555ZM53.9367 23.6762C53.9358 23.6759 53.9366 23.6761 53.938 23.6765L53.9367 23.6762ZM53.6047 24.0794C53.6152 24.0853 53.6252 24.091 53.6367 24.0951L53.5505 24.052C53.5635 24.0594 53.576 24.0653 53.5889 24.0713C53.5916 24.0725 53.5942 24.0738 53.597 24.0751C53.5996 24.0765 53.6021 24.078 53.6047 24.0794ZM53.4057 23.9546C53.4207 23.9665 53.4357 23.9792 53.4522 23.9896L53.4057 23.9546ZM54.0481 23.8152L54.0694 23.7183C54.072 23.7179 54.0747 23.7175 54.0775 23.717L54.0481 23.8152ZM55.0211 23.5919L55.1401 23.676L55.021 23.5919L55.0211 23.5919ZM54.516 23.6182L54.5155 23.6184C54.5157 23.6184 54.5158 23.6183 54.516 23.6182ZM53.7344 23.5772L53.7343 23.5772L53.7344 23.5772Z" fill="#E83118" stroke="#E83118"></path><path d="M33.1873 9.85901C32.5131 9.85901 31.9656 10.4018 31.9656 11.0703V22.9982C31.9656 23.0377 31.9678 23.0778 31.9716 23.1187C31.9731 23.1343 31.9761 23.1507 31.9791 23.1678C31.9821 23.1893 31.9851 23.2131 31.9903 23.2362C31.9941 23.2548 31.9993 23.2726 32.0038 23.2912C32.0091 23.3113 32.0136 23.3306 32.0196 23.3507C32.0248 23.3693 32.0331 23.3871 32.0383 23.4042C32.0458 23.4228 32.0518 23.4437 32.0593 23.4622C32.0668 23.4779 32.0751 23.4942 32.0826 23.5113C32.0916 23.5299 32.0998 23.5507 32.1103 23.5693C32.1193 23.5849 32.1276 23.5983 32.1373 23.6147C32.1493 23.6333 32.1591 23.6526 32.1718 23.6712C32.1838 23.6868 32.1951 23.7032 32.2071 23.718C32.2191 23.7336 32.2303 23.7515 32.2431 23.7656C32.2656 23.7917 32.2888 23.8177 32.3128 23.843C32.3166 23.8459 32.3203 23.8504 32.3241 23.8549L38.5573 30.0363C38.7958 30.2713 39.1086 30.391 39.4213 30.391C39.7341 30.391 40.0476 30.272 40.2861 30.0363C40.7631 29.5612 40.7631 28.796 40.2861 28.3209L34.4106 22.4971V11.0703C34.4098 10.4026 33.8631 9.85901 33.1873 9.85901Z" fill="#E83118"></path><path d="M16.3196 21.787C15.6454 21.787 15.0979 22.3298 15.0979 22.9983C15.0979 23.6675 15.6447 24.2111 16.3196 24.2111H19.6684C20.3426 24.2111 20.8901 23.6683 20.8901 22.9983C20.8901 22.3306 20.3434 21.787 19.6684 21.787H16.3196Z" fill="#E83118"></path><path d="M31.9663 40.1478C31.9663 40.8155 32.5131 41.3591 33.1881 41.3591C33.8631 41.3591 34.4106 40.8163 34.4106 40.1478V36.7362C34.4106 36.0685 33.8638 35.5249 33.1881 35.5249C32.5138 35.5249 31.9663 36.0677 31.9663 36.7362V40.1478Z" fill="#E83118"></path></svg> 