<?xml version="1.0" standalone="no"?>
<!DOCTYPE svg PUBLIC "-//W3C//DTD SVG 20010904//EN"
 "http://www.w3.org/TR/2001/REC-SVG-20010904/DTD/svg10.dtd">
<svg version="1.0" xmlns="http://www.w3.org/2000/svg"
 width="100px" height="100px" viewBox="0 0 425.000000 417.000000"
 preserveAspectRatio="xMidYMid meet">

<g transform="translate(0.000000,417.000000) scale(0.100000,-0.100000)"
fill="#000000" stroke="#000">
<path d="M2065 3924 c-321 -49 -547 -154 -752 -347 -249 -235 -386 -536 -400
-874 -7 -167 6 -284 48 -425 206 -695 940 -1081 1630 -857 147 47 354 158 399
214 8 10 -7 2 -35 -17 -209 -150 -522 -232 -786 -207 -306 29 -564 153 -777
373 -208 216 -324 482 -339 782 -27 516 286 1003 767 1194 530 212 1145 20
1463 -455 15 -22 27 -35 27 -28 0 13 -57 97 -121 179 -171 216 -445 383 -734
445 -87 19 -325 33 -390 23z"/>
<path d="M1790 670 c-69 -17 -76 -17 -93 -2 -31 28 -55 -11 -108 -184 -76
-247 -75 -244 -53 -261 36 -27 201 15 269 69 56 44 3 53 -75 13 -28 -14 -70
-28 -95 -32 -51 -6 -54 0 -35 68 7 25 17 38 33 42 58 13 213 76 221 90 19 30
-3 29 -105 -2 -56 -17 -106 -31 -110 -31 -14 0 32 117 54 138 21 19 126 52
209 66 42 7 58 24 37 37 -21 13 -65 10 -149 -11z"/>
<path d="M2252 511 c-12 -74 -59 -231 -72 -245 -11 -11 -41 50 -74 152 -33 99
-61 134 -82 101 -15 -25 -91 -295 -86 -307 10 -28 28 -1 53 84 15 49 33 108
39 132 6 23 14 40 19 38 4 -3 14 -30 21 -60 16 -69 69 -177 93 -191 28 -15 50
19 86 132 40 125 52 192 40 215 -17 31 -25 20 -37 -51z"/>
<path d="M3282 544 c-85 -42 -133 -117 -98 -152 12 -12 34 -17 79 -17 81 0 86
-18 23 -82 -42 -42 -48 -45 -88 -41 -24 3 -51 8 -60 12 -13 6 -18 4 -18 -8 0
-25 65 -49 109 -41 43 8 126 87 137 130 6 24 2 32 -20 52 -24 20 -34 23 -76
17 -31 -4 -50 -2 -55 5 -21 36 92 117 150 108 29 -5 35 -3 35 13 0 37 -48 39
-118 4z"/>
<path d="M3500 458 c-17 -57 -41 -133 -53 -171 -16 -51 -18 -70 -9 -79 9 -9
15 -2 27 28 26 65 29 67 115 91 46 12 85 22 86 20 1 -1 -2 -22 -6 -47 -14 -71
-12 -92 7 -88 12 2 21 21 30 68 7 35 18 69 23 74 6 6 10 19 10 31 0 12 10 49
21 84 15 43 18 66 11 73 -17 17 -30 1 -47 -60 -28 -100 -25 -97 -115 -116 -45
-10 -84 -16 -87 -13 -3 3 7 46 22 96 25 85 26 111 5 111 -5 0 -23 -46 -40
-102z"/>
<path d="M2494 521 c-86 -50 -154 -145 -154 -216 0 -27 8 -44 29 -66 36 -35
60 -36 127 -5 85 40 147 137 111 173 -14 14 -21 14 -69 -2 -29 -10 -59 -19
-65 -21 -12 -3 -19 -44 -8 -44 2 0 28 9 56 20 28 12 54 19 56 16 12 -12 -42
-78 -83 -102 -51 -30 -80 -28 -105 6 -29 39 -10 91 61 161 61 61 101 80 131
60 25 -15 29 -14 29 9 0 19 -27 40 -52 40 -7 0 -36 -13 -64 -29z"/>
<path d="M2757 543 c-3 -5 -8 -24 -12 -43 -4 -19 -20 -77 -36 -129 -36 -116
-37 -138 -4 -153 20 -9 39 -5 115 22 50 18 93 37 96 42 16 25 -17 24 -81 -2
-76 -31 -115 -37 -115 -17 0 6 16 67 36 133 21 67 34 129 31 138 -7 17 -23 21
-30 9z"/>
<path d="M3055 538 c-2 -7 -10 -35 -19 -63 -36 -113 -65 -250 -56 -259 17 -17
30 8 45 80 8 38 27 103 42 145 25 72 26 109 3 109 -6 0 -12 -6 -15 -12z"/>
</g>
</svg>
