<svg width="20" height="13" viewBox="0 0 20 13" fill="none" xmlns="http://www.w3.org/2000/svg">
<g clip-path="url(#clip0)">
<path d="M19.9353 1.81098C20.1294 1.29357 19.8058 0.517451 19.0291 0.452774C13.0097 -0.0646388 6.99028 -0.129315 0.90614 0.258744C-0.0647339 0.323421 -0.258909 1.4876 0.258891 2.00501V11.6418C0.258891 12.1592 0.582515 12.4179 0.90614 12.5473C1.03559 12.7413 1.29449 12.806 1.55339 12.8707C7.57281 13.3881 13.4628 12.8707 19.288 11.3184C19.6764 11.1891 19.8705 10.9304 19.9353 10.607C19.9353 10.5423 20 10.413 20 10.3483V2.19904C20 2.06969 20 1.94034 19.9353 1.81098ZM17.2168 2.26372C14.9514 3.4279 12.6861 4.59208 10.4854 5.75626C7.50808 5.23884 4.91908 4.00999 2.65371 2.06969C7.50808 1.87566 12.3625 1.94034 17.2168 2.26372ZM2.20064 10.9304V4.26869C4.53074 5.95029 7.18446 7.11446 10.0971 7.69655C10.2265 7.69655 10.356 7.69655 10.4207 7.69655C10.6149 7.76123 10.8738 7.76123 11.1327 7.63188C13.4628 6.40302 15.7929 5.23884 18.0582 4.00999V9.63685C12.8802 10.9304 7.57281 11.3184 2.20064 10.9304Z" fill="white"/>
</g>
<defs>
<clipPath id="clip0">
<rect width="20" height="13" fill="white"/>
</clipPath>
</defs>
</svg>
