<svg width="23" height="20" viewBox="0 0 23 20" fill="none" xmlns="http://www.w3.org/2000/svg">
<path d="M21.0522 5.31204C20.5758 5.33942 20.1047 5.35585 19.6283 5.3668C19.5839 5.34626 19.5378 5.32977 19.4906 5.31751C17.1086 4.66581 14.7265 4.05245 12.3445 3.3679C9.96243 2.68334 8.22618 1.52781 6.10881 0.410612C2.75276 -1.35281 2.54103 2.99002 1.79995 5.47633C1.79754 5.49816 1.79754 5.52021 1.79995 5.54205C1.4697 5.57679 1.14351 5.64465 0.825952 5.74468C0.734281 5.74456 0.643512 5.76339 0.558973 5.80007C0.474435 5.83674 0.397832 5.89053 0.333662 5.95826C0.248213 6.01571 0.176165 6.09208 0.122722 6.18185C0.0692795 6.27163 0.0357766 6.37256 0.0246338 6.47736C0.0134909 6.58216 0.0249862 6.68821 0.0582893 6.78786C0.0915925 6.8875 0.145872 6.97825 0.217207 7.05355C0.481879 10.5804 -0.264496 14.1072 0.169566 17.5902C0.524226 20.4489 2.78453 19.7808 5.12423 19.7315C8.49615 19.6494 11.8151 20.1149 15.1818 19.9725C17.1192 19.8958 19.1571 19.9725 21.0734 19.7315C21.7403 19.6494 22.1321 19.7315 22.5291 19.1291C23.0584 18.3186 22.6932 16.5552 22.7143 15.5913L22.8573 9.56724C22.9261 7.43142 23.6248 5.1806 21.0522 5.31204ZM6.02941 2.31094C7.20984 2.7381 8.2897 3.72386 9.52837 4.19484C10.767 4.66581 11.9316 5.02178 13.165 5.36132C12.0745 5.36132 10.9841 5.36132 9.89362 5.36132C7.98798 5.36132 6.08234 5.43252 4.18199 5.49276H3.44091C3.83792 3.87721 4.0973 1.59353 6.02941 2.31094ZM4.37256 7.11926C4.27739 7.72644 4.00386 8.28859 3.58913 8.72934C3.32446 9.01959 2.43516 9.93416 1.88464 9.95059C1.88464 9.02507 1.88464 8.0886 1.79465 7.14665C2.65146 7.0582 3.51418 7.04903 4.37256 7.11926ZM2.95921 18.1543C1.90052 18.1543 2.01698 18.3186 1.74701 17.2617C1.66423 16.8791 1.63042 16.4869 1.64644 16.0952C2.10483 16.1349 2.54494 16.2993 2.92215 16.5716C3.3974 16.9602 3.7055 17.5269 3.77969 18.1488C3.50443 18.1543 3.23447 18.1598 2.95921 18.1543ZM17.3785 18.2474H17.1668C15.8699 18.2967 14.5677 18.3624 13.2708 18.4062C10.9576 18.4829 8.72377 18.105 6.42112 18.0612C6.07175 18.0612 5.72239 18.0612 5.36243 18.0612C5.27714 17.0965 4.85795 16.196 4.18199 15.5256C3.84914 15.2125 3.46571 14.9622 3.0492 14.7863C2.61496 14.6303 2.16608 14.522 1.70996 14.4632C1.7523 13.4884 1.80524 12.53 1.84229 11.5716C2.75806 11.5716 3.62618 10.909 4.3355 10.2737C5.26223 9.47707 5.85115 8.33713 5.97647 7.09736C6.93458 7.06998 7.8874 7.04259 8.84551 7.02616C11.4658 6.98783 14.086 7.02616 16.701 7.13569C16.8563 8.32026 17.3716 9.42305 18.1726 10.2847C19.0248 11.1006 20.1311 11.3142 21.2428 11.4347L21.1951 13.6253V13.7951C19.3424 14.3701 17.3468 16.1554 17.3785 18.2474ZM20.851 17.8586C20.5123 18.2091 19.7447 18.2857 18.9666 18.2912C18.9666 17.0316 20.1153 16.0075 21.2533 15.4928C21.2692 16.473 21.2163 17.4752 20.851 17.8586ZM21.2904 9.55081C21.2904 9.62748 21.2904 9.70415 21.2904 9.77534C20.4961 9.77987 19.7284 9.47936 19.136 8.93197C18.7174 8.41076 18.4365 7.78622 18.3208 7.11926C18.9814 7.06409 19.6452 7.06409 20.3058 7.11926C21.7033 7.32737 21.3169 8.37337 21.2904 9.55081Z" fill="black"/>
<path d="M10.8363 9.22758L10.704 9.26592C9.06828 9.46307 7.74492 10.3612 7.64964 12.3656C7.55435 14.37 9.12121 15.7719 11.0004 15.7555C13.0595 15.7555 14.2982 14.2002 14.277 12.1356C14.2859 11.6928 14.1972 11.2537 14.0178 10.8516C13.8383 10.4495 13.5727 10.0949 13.2412 9.81466C12.9097 9.53446 12.5208 9.33598 12.1042 9.23427C11.6875 9.13255 11.2539 9.13027 10.8363 9.22758ZM10.6987 14.0961C10.4753 14.0881 10.2565 14.0292 10.0576 13.9237C9.85884 13.8181 9.68499 13.6684 9.5485 13.4854C9.412 13.3023 9.31622 13.0904 9.26799 12.8646C9.21975 12.6389 9.22024 12.4049 9.26943 12.1794C9.50763 10.865 10.6087 10.8322 11.6779 10.865C11.7448 10.8734 11.8123 10.8734 11.8791 10.865C12.165 11.014 12.397 11.2542 12.5409 11.55C12.6849 11.8458 12.7331 12.1817 12.6784 12.508C12.6096 13.6416 11.7944 14.2385 10.6987 14.0961Z" fill="black"/>
</svg>
