<svg width="114" height="153" viewBox="0 0 114 153" fill="none" xmlns="http://www.w3.org/2000/svg">
<g clip-path="url(#clip0)">
<path d="M100.313 33.141C93.4698 19.1775 83.9848 5.0341 68.1965 0.659245C67.8363 0.539386 67.4761 0.719174 67.296 0.958892C66.9959 1.01882 66.7557 1.19861 66.6957 1.55819C65.375 6.41248 64.1144 12.1058 67.1159 16.6005C68.4967 18.698 70.5377 20.1363 72.5788 21.5746C75.3403 23.4924 77.8016 25.53 79.8426 28.1669C88.127 38.7145 88.6673 52.5582 86.8663 65.3232C85.5456 52.1986 80.503 39.6134 72.3987 29.1857C67.8363 23.3725 62.7336 18.0388 55.4098 16.0012C47.2455 13.7239 38.4809 14.0835 30.3766 16.4806C30.1365 16.4806 29.8963 16.5406 29.7763 16.7203C29.4761 16.9601 29.4161 17.3196 29.4761 17.6792C28.8158 22.953 33.5583 25.8296 38.0606 27.3878C41.3023 28.5265 44.6041 29.3055 47.9659 29.725C52.048 30.2644 55.89 30.3843 59.0717 33.3208C63.8742 37.7556 65.375 45.3067 66.3355 51.4795C67.4161 58.7909 67.176 66.2221 65.7352 73.4736C65.7352 73.4736 65.6752 73.4736 65.6752 73.5335C65.0148 67.0012 63.7542 60.4689 61.7131 54.2362C59.612 47.8238 56.6704 42.6698 50.9074 38.9542C44.9643 35.1187 38.0006 32.7815 30.9769 31.7627C29.236 31.5229 27.435 31.3431 25.6341 31.2233C22.9327 30.3843 20.2313 30.5041 17.4098 30.8637C15.4287 31.1634 11.5867 31.1634 10.5662 33.201C10.5061 33.3208 10.5061 33.4407 10.4461 33.5605C10.0859 33.7403 9.84579 34.0999 9.90582 34.5793C11.7668 44.9471 23.9532 45.6064 31.9974 48.2433C37.3403 49.9812 41.9027 53.5171 44.6641 58.4313C46.5251 61.6675 47.3655 65.3232 47.8458 68.9789C45.5646 64.4842 42.3229 60.6487 36.9801 59.3902C28.9959 57.4724 20.5314 61.6075 13.988 65.8625C7.80471 69.9977 2.4619 75.7509 1.1412 83.302C0.120666 89.1751 0.180698 97.6851 4.68307 102.3C4.80313 102.479 4.92319 102.719 5.16332 102.779C5.22335 102.839 5.28338 102.899 5.40345 102.959C4.32288 103.318 3.36237 104.217 2.70202 105.836C2.52193 106.255 2.34184 106.734 2.22177 107.214C2.16174 107.274 2.16174 107.334 2.16174 107.454C1.44136 109.731 1.1412 112.248 0.901077 114.465C0.420824 118.361 0.720982 122.136 2.16174 125.792C4.50297 131.785 9.18544 136.639 13.988 140.834C19.3908 145.509 25.2739 149.165 32.4177 150.363C40.2818 151.682 48.5061 151.921 56.4903 152.221C63.9343 152.521 71.7984 152.88 78.9422 150.243C90.6483 145.868 98.4524 135.081 103.615 124.174C109.918 110.87 113.46 96.1869 113.52 81.4442C113.46 64.1845 107.757 48.483 100.313 33.141ZM78.7621 148.326C71.3782 151.202 63.0338 150.723 55.2297 150.363C47.1854 150.004 38.6009 150.004 30.7368 148.206C23.2328 146.528 17.0496 141.613 11.7068 136.28C6.78417 131.365 2.64199 125.432 2.4619 118.301C2.70202 118.541 3.06221 118.84 3.4224 119.02C5.52351 120.099 8.52509 119.799 9.96585 117.761C12.7873 113.746 9.36553 106.435 4.50297 106.435C4.80313 106.015 5.28338 105.716 6.18386 105.296C6.72414 105.056 7.26443 104.817 7.74468 104.577C9.00534 104.996 9.90582 105.776 10.5662 106.854C10.8663 107.334 11.1665 107.873 11.4066 108.412C12.127 109.911 12.7273 111.529 13.3876 113.087C15.5488 117.881 18.3703 122.736 22.8726 125.732C32.2376 132.025 43.5835 124.893 46.8252 115.244C49.3466 107.753 47.6057 99.483 45.0843 92.2315C43.2234 86.8978 40.5219 80.785 34.879 78.5676C29.296 76.3502 23.0527 78.9272 19.2107 83.1822C16.9295 85.6393 15.3687 88.6357 14.108 91.7521C12.7273 95.1081 11.2865 103.019 6.06379 101.281C4.86316 100.142 4.02272 98.644 3.4224 96.906C3.66253 97.0259 3.84263 97.0858 4.08275 97.1457C6.90424 97.805 9.60566 96.3666 10.0859 93.49C10.5061 90.9131 9.54563 87.6169 7.26443 86.1187C5.82367 85.1598 3.90266 85.1598 2.52193 86.0588C2.70202 84.3208 3.06221 82.7027 3.4224 81.3843C5.34342 75.1516 10.326 70.4771 15.7289 67.0611C21.4919 63.4654 28.6357 59.8696 35.6594 61.0682C43.0433 62.3267 46.2249 68.859 48.6262 75.2115C48.6862 75.9307 48.8063 76.6498 48.8663 77.369C48.9864 78.5077 50.7873 78.5077 50.6673 77.369C50.6072 76.8896 50.5472 76.4101 50.4872 75.9906C50.6072 75.8108 50.6673 75.5711 50.5472 75.2715C50.4872 75.0917 50.4271 74.9718 50.3671 74.792C49.8869 69.9977 49.4666 65.0235 47.7257 60.5887C46.0448 56.3937 43.1633 52.738 39.5014 50.1011C35.1191 46.9248 30.0164 45.9659 24.9137 44.7074C20.1112 43.5088 14.7684 41.4113 12.4872 36.9166C16.7494 40.5124 25.454 41.4712 27.4951 35.7779C27.9153 34.6393 27.9153 33.8602 27.6151 33.3208C29.0559 33.4407 30.5567 33.6804 31.9374 33.8602C38.1807 34.7591 44.424 36.9765 49.8268 40.4524C55.89 44.3478 58.5314 50.1011 60.5125 56.8132C62.5535 63.5852 63.6941 70.4771 64.0543 77.5488C64.1143 78.4477 65.255 78.7474 65.7352 78.0282C65.9753 77.6686 66.1554 77.3091 66.3355 77.0094C66.5756 76.9495 66.8158 76.7697 66.8758 76.4101C69.8774 63.9448 69.9974 48.6628 63.8742 37.0364C61.4129 32.3619 57.6309 29.3055 52.3482 28.5864C47.1854 27.8672 31.6973 26.7885 31.157 19.2973C33.8584 21.5746 37.3403 22.5934 40.8821 22.0541C43.9437 21.5746 47.5456 19.8966 47.7257 16.4806C50.127 16.7204 52.5283 17.1399 54.8695 17.7991C62.3134 19.8966 67.6562 25.8296 72.0985 31.8825C80.503 43.2691 85.1254 57.1728 85.3655 71.3161C85.3655 72.275 86.9264 72.5746 87.1065 71.5558C87.2265 70.8966 87.4066 70.1775 87.5267 69.5182C87.7668 69.4583 87.9469 69.2785 88.0069 68.9189C90.108 56.6933 90.5283 43.5688 84.5251 32.302C82.0038 27.5676 78.5219 23.7321 74.1396 20.6158C71.2581 18.5782 68.3166 16.6005 67.296 13.0047C66.5756 10.3079 66.9959 7.49121 67.6562 4.79438C68.3166 7.0717 70.3576 8.74973 72.6388 10.0082C75.2202 11.4466 79.0622 12.5852 80.8632 9.52881C88.127 15.4618 93.4698 23.9119 97.7321 32.302C104.576 45.906 110.339 59.9894 111.359 75.3314C112.32 90.1939 109.498 105.176 103.855 118.96C98.9927 130.706 91.3087 143.411 78.7621 148.326ZM8.58512 103.199C12.127 102.3 13.988 97.2057 15.1286 93.9695C17.7099 86.7779 23.533 77.9683 32.4777 79.7062C39.9816 81.1446 42.9232 90.5535 44.6641 96.8461C46.8853 104.757 47.3655 114.046 41.7826 120.698C36.92 126.451 28.9358 128.369 22.7526 123.395C17.7099 119.32 15.7289 113.147 13.0275 107.514C12.067 105.596 10.3861 103.918 8.58512 103.199Z" fill="black" stroke="black" stroke-width="2" stroke-miterlimit="10"/>
</g>
<defs>
<clipPath id="clip0">
<rect width="114" height="153" fill="white"/>
</clipPath>
</defs>
</svg>
