<svg width="58" height="110" viewBox="0 0 58 110" fill="none" xmlns="http://www.w3.org/2000/svg">
<g clip-path="url(#clip0)">
<path d="M57.5638 56.3515C57.2386 55.7454 57.1638 55.041 56.4906 54.6741C55.5149 54.1335 54.0775 54.7592 53.1148 55.0312C52.4188 55.231 51.7326 55.4473 51.0496 55.6864C49.7975 51.4437 47.7649 47.4696 44.7111 44.1934C42.3337 41.6477 39.5888 39.3543 36.5057 37.8767C37.4077 32.1797 38.8039 26.5733 40.6783 21.122C41.4524 18.8811 42.7565 16.2535 42.2166 13.8094C42.1139 13.3407 41.879 12.9118 41.5402 12.5743C41.5079 12.4936 41.452 12.4247 41.38 12.3768C41.308 12.3288 41.2232 12.304 41.1369 12.3056C40.9537 12.2332 40.7542 12.213 40.5604 12.2471C40.3665 12.2811 40.1857 12.3683 40.0376 12.4989C39.3872 13.0002 39.1693 14.1371 38.9221 14.8546C38.431 16.2699 37.966 17.6983 37.4456 19.1137C37.2765 19.5789 36.4374 22.0197 35.3349 19.6444C35.2911 19.3677 35.2911 19.0857 35.3349 18.809C35.3678 18.0204 35.4646 17.2359 35.6244 16.4632C35.9004 15.1835 36.2467 13.9202 36.6618 12.6791C37.257 10.7756 38.5254 8.09238 38.2099 6.06439C37.9855 4.61301 36.7854 4.75389 35.8943 5.58605C34.2682 7.0833 33.8064 9.42909 33.4812 11.5193C33.1542 13.8532 32.6309 16.1549 31.9169 18.3995C31.7 15.1232 31.493 11.847 31.2957 8.57071C31.1721 6.66066 31.0615 4.75061 30.9314 2.83728C30.8566 1.7594 30.8371 0.720827 29.8549 0.0917876C29.7901 0.055301 29.7179 0.0340032 29.6438 0.0294767C29.5697 0.0249501 29.4955 0.0373111 29.4267 0.0656413C29.358 0.0939716 29.2965 0.137543 29.2467 0.193117C29.197 0.248692 29.1603 0.314841 29.1395 0.38665C27.9231 3.40407 28.3264 6.65083 28.2939 9.84845C28.2501 13.3408 27.86 16.82 27.1296 20.2342C26.2938 18.8352 25.9913 17.2069 25.6596 15.5983C25.2726 13.7013 24.827 11.8175 24.3067 9.95002C23.8449 8.28896 23.4839 6.22492 22.6513 4.7244C22.274 4.04294 21.6756 3.74153 20.9146 4.08553C20.1536 4.42954 19.9389 5.28792 20.0137 6.0906C20.2024 7.82373 20.9894 9.59946 21.3927 11.3064C22.3076 15.3379 22.8057 19.4541 22.8789 23.589L20.7487 23.0321C20.6122 22.96 20.4756 22.8846 20.339 22.8158C20.2684 22.778 20.1896 22.7582 20.1097 22.7582C20.0297 22.7582 19.951 22.778 19.8804 22.8158L13.0085 20.991C12.9057 20.9656 12.7975 20.9744 12.7 21.0161C12.6026 21.0577 12.5211 21.1299 12.4677 21.222C12.4143 21.3141 12.3919 21.4211 12.4038 21.5271C12.4157 21.633 12.4612 21.7323 12.5337 21.81C14.9305 23.9658 18.1795 24.431 20.7748 26.2199C24.2156 28.6082 24.0107 33.0639 23.7018 36.7956C23.691 36.8888 23.7104 36.983 23.757 37.0642C19.3535 38.4992 15.5517 41.5396 12.8491 45.4056C11.203 47.7943 9.93981 50.4289 9.10582 53.2129C8.13015 52.384 7.25205 51.3847 6.02272 50.985C4.96637 50.6619 3.83245 50.7092 2.80628 51.1193C1.62572 51.5747 1.2257 52.3479 0.464682 53.1375C0.371826 53.1514 0.284286 53.1898 0.211009 53.2489L0.149217 53.3013C0.0724912 53.378 0.0231972 53.4781 0.00907051 53.586C-0.00505614 53.6939 0.0167841 53.8035 0.0711641 53.8976L0.132956 53.9861C0.171337 54.0498 0.223424 54.104 0.285378 54.1447C0.347332 54.1855 0.417573 54.2117 0.49092 54.2214C0.564268 54.2312 0.638852 54.2242 0.709173 54.201C0.779494 54.1779 0.843758 54.1391 0.897227 54.0876C1.85013 53.203 2.23714 52.23 3.63884 51.8761C5.20966 51.4764 6.37721 52.1415 7.5415 53.1604C7.95453 53.5175 8.38383 53.8484 8.81637 54.1695C8.19058 56.4974 7.78763 58.8803 7.61305 61.2855C7.15506 61.0483 6.62398 60.9978 6.13004 61.1447C5.53346 61.3094 4.99283 61.6351 4.56644 62.0866C4.14005 62.5381 3.84406 63.0982 3.71039 63.7067C3.30712 65.964 5.8471 67.707 7.49597 66.2523C7.49597 66.3768 7.49597 66.5046 7.49597 66.6324C7.49674 66.7015 7.51257 66.7696 7.54236 66.8319C7.57215 66.8941 7.61515 66.9491 7.66834 66.9928C7.95128 74.3643 8.0456 81.7817 8.644 89.1336C9.13183 95.0604 10.2701 101.911 14.8232 106.17C19.2755 110.331 26.206 110.377 31.8616 109.636C37.8164 108.86 42.0735 105.194 45.0558 100.103C48.4186 94.3625 50.4545 87.6528 51.6383 81.1396C52.5434 76.2913 52.9002 71.3552 52.7018 66.426C53.0746 66.5966 53.4789 66.6865 53.8884 66.6899C54.2979 66.6933 54.7035 66.6101 55.0791 66.4456C56.1621 65.9509 56.2825 64.7387 56.0548 63.687C55.8271 62.6353 55.2905 61.1086 54.1783 60.6205C53.8485 60.4655 53.4796 60.4157 53.121 60.4777C52.7624 60.5398 52.4311 60.7108 52.1716 60.9677C51.9553 59.5038 51.6567 58.0533 51.2773 56.6234C51.4984 56.5481 51.7163 56.4694 51.9277 56.3974C52.7245 56.1353 54.1848 55.4145 55.0238 55.5324C56.2825 55.6995 56.4223 56.7053 57.1183 57.4622C57.1876 57.5278 57.2743 57.5718 57.3679 57.5891C57.4614 57.6063 57.558 57.596 57.6459 57.5593C57.7338 57.5227 57.8093 57.4612 57.8634 57.3824C57.9175 57.3035 57.9478 57.2107 57.9508 57.1149V56.8102C57.9495 56.7003 57.91 56.5943 57.8394 56.5106C57.7687 56.4268 57.6713 56.3706 57.5638 56.3515ZM37.1399 7.3585C37.1283 7.09478 37.0823 6.83373 37.0033 6.58203C37.0922 6.68772 37.1517 6.81527 37.1757 6.95168C37.1997 7.08809 37.1874 7.22848 37.1399 7.3585ZM22.2513 6.37563C22.0854 5.97265 21.926 5.56967 21.7179 5.17325C21.796 5.1929 21.8643 5.31413 21.913 5.54674C22.0921 5.79791 22.2183 6.08334 22.2838 6.38546L22.2513 6.37563ZM7.47971 65.0991C7.39798 65.0961 7.3168 65.1137 7.24353 65.1503C7.17027 65.1869 7.10724 65.2414 7.06017 65.3088C6.12028 66.6193 4.5267 65.3088 4.65679 64.0245C4.7274 63.4787 5.00045 62.9801 5.42106 62.6288C5.7723 62.3012 7.34312 61.4493 7.41467 62.5534C7.41812 62.6604 7.45705 62.763 7.52524 62.845C7.49597 63.5953 7.47971 64.3488 7.47971 65.0991ZM52.7701 61.8556C53.0953 60.8498 54.2531 61.7934 54.5165 62.2324C54.7743 62.6873 54.966 63.1772 55.0856 63.687C55.206 64.1686 55.31 64.7059 55.0856 65.1613C54.7832 65.7511 53.2319 65.9444 52.8546 65.2465C52.8105 65.1609 52.7412 65.0911 52.6562 65.0467C52.5869 64.0944 52.4947 63.141 52.3798 62.1865C52.4702 62.1758 52.5556 62.1389 52.6255 62.0801C52.6954 62.0213 52.7467 61.9433 52.7733 61.8556H52.7701ZM34.8536 9.55031C34.8113 9.83862 34.7658 10.1302 34.7235 10.4185L34.652 10.4349C34.7105 10.1368 34.7788 9.82879 34.8536 9.55031ZM29.7964 1.46781C29.8709 1.64234 29.9297 1.82326 29.972 2.00839C29.9439 1.96721 29.9073 1.93258 29.8647 1.90683C29.8647 1.87407 29.8647 1.84458 29.8647 1.81509C29.848 1.74338 29.8158 1.67627 29.7704 1.61852C29.7671 1.56938 29.7801 1.51696 29.7964 1.46781ZM25.2921 37.6343C37.0976 34.761 46.8543 45.4613 50.126 56.0173C48.5361 56.6256 46.987 57.337 45.4883 58.1469C44.7859 56.0337 42.9809 54.2482 40.7173 54.543C37.9595 54.3563 35.1886 55.4145 34.5056 57.9503C31.9622 56.3018 28.8821 55.7144 25.9165 56.3122L26.2775 54.1269C26.3816 53.5077 25.4417 53.2423 25.3376 53.8648C25.1848 54.7756 25.0384 55.6897 24.8921 56.6005C23.8104 56.9642 22.8288 57.5792 22.0269 58.3959C21.8962 57.8326 21.6521 57.3024 21.3097 56.8381C20.9673 56.3737 20.534 55.9851 20.0365 55.6963C18.0852 54.4906 15.6981 54.6348 14.4655 56.5579C12.9857 55.6963 11.4637 54.8641 10.0392 53.9107C12.2767 46.2934 17.0477 39.6426 25.2921 37.6343ZM46.2624 95.6239C44.0964 100.538 40.9027 105.682 35.6992 107.72C32.821 108.847 29.572 108.984 26.5117 108.965C23.5847 108.948 20.5471 108.585 17.9226 107.182C11.5482 103.778 10.1173 95.388 9.61967 88.8355C9.02776 81.3001 8.9302 73.7091 8.62449 66.1606C8.61761 66.0349 8.56147 65.917 8.46838 65.833C8.40887 62.1354 8.84648 58.4467 9.76927 54.8674C11.145 55.7945 12.5857 56.6136 14.0297 57.4654C13.5679 58.8349 13.6134 61.0693 14.5988 62.1799C14.564 62.2225 14.5383 62.2718 14.5231 62.3247C14.508 62.3777 14.5038 62.4332 14.5108 62.4879C14.5178 62.5425 14.5359 62.5951 14.5639 62.6425C14.5919 62.6898 14.6292 62.7309 14.6736 62.7631C16.69 64.4537 19.2072 64.7289 20.9471 62.4781C21.6919 61.5562 22.1036 60.4068 22.1147 59.2182C22.2014 59.272 22.3043 59.293 22.405 59.2774C22.5057 59.2618 22.5976 59.2106 22.6643 59.133C23.2429 58.5298 23.9365 58.0507 24.7034 57.7243C23.9554 62.4202 23.2876 67.126 22.7001 71.8416C22.4627 73.7549 21.5976 76.543 22.531 78.3712C23.4286 80.1305 25.3181 79.4949 26.6418 78.666C27.1751 78.3384 26.6873 77.4833 26.1507 77.8175C25.2693 78.3712 25.123 78.5317 24.1245 78.0403C23.1912 77.5816 23.1716 77.4604 23.1489 76.5168C23.1852 75.5934 23.2786 74.6732 23.4286 73.7615C23.7039 71.4594 23.9977 69.1594 24.3099 66.8617C24.7436 63.6859 25.2162 60.5189 25.7279 57.3606C28.5898 56.5874 32.0762 57.3606 34.3105 58.9987H34.3332C34.326 59.2578 34.3347 59.5171 34.3593 59.7752C34.6845 62.9138 36.9903 65.9116 40.3401 65.7642C41.8384 65.7087 43.2535 65.0565 44.2749 63.9508C45.2962 62.8451 45.8403 61.3763 45.7876 59.8669C45.7799 59.6134 45.756 59.3606 45.716 59.1101C47.2309 58.288 48.7988 57.5689 50.409 56.9576C50.5228 57.377 50.6301 57.7963 50.7342 58.2157C53.4595 70.4656 51.274 84.2422 46.2624 95.6173V95.6239Z" fill="#1F1E1C"/>
<path d="M29.9718 81.8864C27.8644 82.4401 25.7667 83.0299 23.682 83.672C22.7064 83.9734 21.6787 84.2421 20.716 84.6156C20.3648 84.7532 20.1046 84.7859 19.9225 85.1332C19.8641 85.2446 19.8497 85.3741 19.8823 85.4956C19.9149 85.6172 19.992 85.7219 20.0981 85.7885L20.1989 85.8409C20.3095 85.8997 20.438 85.9142 20.5587 85.8813C20.6794 85.8485 20.7832 85.7708 20.8494 85.664L20.8884 85.5919C20.9087 85.5536 20.924 85.5129 20.9339 85.4707C21.4283 85.2118 22.7324 84.9727 23.0316 84.8777C23.8251 84.6287 24.6198 84.3862 25.4155 84.1503C27.0091 83.6786 28.6091 83.2395 30.2157 82.8169C30.3161 82.7664 30.3961 82.6827 30.4424 82.5797C30.4886 82.4768 30.4982 82.3609 30.4696 82.2517C30.4409 82.1425 30.3758 82.0465 30.2851 81.98C30.1945 81.9134 30.0838 81.8804 29.9718 81.8864Z" fill="#1F1E1C"/>
</g>
<defs>
<clipPath id="clip0">
<rect width="58" height="110" fill="white"/>
</clipPath>
</defs>
</svg>
