<svg width="62" height="88" viewBox="0 0 62 88" fill="none" xmlns="http://www.w3.org/2000/svg">
<g opacity="0.268" clip-path="url(#clip0)">
<path d="M61.1991 52.473C60.3439 47.112 58.8032 41.8433 57.16 36.6244C59.1 37.3989 61.192 35.2673 60.4323 33.0718C59.7573 31.1355 57.0964 30.1408 55.4532 31.2599C55.0715 30.0614 54.6981 28.8654 54.333 27.6717C53.1704 23.8561 52.1279 19.9659 50.5024 16.3031C48.8768 12.6403 46.4597 9.62048 43.873 6.63978C41.6255 4.04632 39.3109 1.40312 35.8761 0.493632C32.4413 -0.415855 28.2714 0.0211253 24.8436 0.998114C20.8929 2.13142 17.6277 4.6183 14.7265 7.46045C11.8252 10.3026 8.88514 13.4503 7.24194 17.2801C4.55981 23.5292 5.16408 30.5209 6.32316 37.136C4.78597 36.8518 3.17103 36.9335 1.8388 37.8466C1.21649 38.2383 0.717269 38.7993 0.398945 39.4645C0.0806201 40.1297 -0.0437915 40.872 0.0401136 41.6053C0.499504 44.6713 4.17109 45.6767 6.25248 43.5735C6.71541 50.5616 9.54242 57.5 11.5072 64.0867C12.5673 67.5861 13.6275 71.1494 15.5004 74.3113C17.246 77.2529 19.7055 79.6048 22.5149 81.509C25.4942 83.477 28.655 85.1521 31.9536 86.5112C35.1976 87.8861 38.5405 88.38 42.0178 87.6872C49.1171 86.2661 54.2906 80.7843 58.1812 74.9863C60.3368 71.7889 61.6797 68.5595 61.9164 64.6587C62.1232 60.5826 61.8826 56.496 61.1991 52.473ZM57.9409 35.7753C58.0264 35.7302 58.0993 35.6642 58.153 35.5835L58.2802 35.6048C58.3962 35.6046 58.5091 35.5663 58.6015 35.4958C58.694 35.4252 58.7611 35.3263 58.7926 35.214C58.7926 35.214 58.7926 35.182 58.7926 35.1678L58.9799 35.3206C58.8556 35.4704 58.6982 35.5889 58.5203 35.6666C58.3423 35.7443 58.1488 35.7791 57.9551 35.7682L57.9409 35.7753ZM17.7938 6.54385C17.891 6.47882 17.9642 6.38331 18.0019 6.27216C18.0396 6.16102 18.0397 6.04047 18.0023 5.92924C18.8156 5.25774 19.6701 4.63835 20.5607 4.07474C21.2215 3.66375 21.9086 3.29702 22.6174 2.97696C25.147 4.97763 27.9331 6.62669 30.9005 7.87966C31.109 7.96848 31.3387 8.05375 31.5825 8.13546C31.1422 8.24053 30.7455 8.48118 30.4478 8.82383C30.15 9.16647 29.9661 9.59402 29.9217 10.0468C29.8722 10.5726 30.6779 10.7573 30.9076 10.3133C30.9712 10.1925 31.0313 10.0717 31.0914 9.95798C32.7216 8.55823 33.4425 8.99402 33.254 11.2654C32.9049 11.6075 32.5128 11.9025 32.0879 12.1429C31.3584 12.574 30.5595 12.8734 29.7273 13.0275C27.8792 13.3828 26.1405 12.96 24.4973 12.1003C21.9919 10.7893 19.1967 9.11244 17.7832 6.56517L17.7938 6.54385ZM6.23835 39.8147C6.17827 40.7171 6.17121 41.6195 6.19948 42.5219C6.10914 42.4815 6.00802 42.4726 5.91205 42.4964C5.81608 42.5202 5.73072 42.5754 5.66941 42.6533C4.07568 44.4723 0.877617 43.5522 1.07551 40.9267C1.25926 38.2018 4.46086 37.8146 6.54579 38.2729C6.60939 38.6282 6.673 38.9834 6.74014 39.3103C6.60953 39.3179 6.48625 39.3735 6.39374 39.4665C6.30123 39.5595 6.24593 39.6834 6.23835 39.8147ZM60.0753 69.1137C58.9763 72.5172 56.5734 75.6969 54.3118 78.4111C52.135 81.0259 49.5871 83.3849 46.5375 84.9587C43.2122 86.6747 39.3427 87.4456 35.6535 86.6391C32.4519 85.9499 29.3704 84.2411 26.5081 82.685C23.0768 80.8021 19.7267 78.5141 17.398 75.2812C15.1222 72.1229 13.9066 68.3606 12.8041 64.6729C11.6167 60.7649 10.4259 56.8357 9.27032 52.9028C8.16072 49.0944 7.2384 45.2397 7.25607 41.2713C7.34943 41.3197 7.45432 41.3409 7.55901 41.3327C7.66369 41.3245 7.76403 41.2871 7.84878 41.2248C7.93352 41.1624 7.99933 41.0776 8.03882 40.9798C8.07831 40.882 8.08993 40.775 8.07237 40.6709C6.76841 34.0914 5.49626 27.0286 7.28434 20.4206C8.295 16.6832 10.3799 13.6386 12.9737 10.8284L13.2387 10.5442C15.7301 14.0116 18.2143 17.7561 21.2781 20.7262C23.7517 23.1278 27.3102 25.0178 30.8475 24.5524C33.1727 24.2504 36.7136 21.5859 34.3248 19.1061C32.6462 17.3582 27.918 18.051 28.2714 20.9997C28.3067 21.3053 28.5859 21.6534 28.9428 21.5113C29.2023 21.4393 29.4376 21.2984 29.6242 21.1033C29.8107 20.9083 29.9416 20.6663 30.003 20.4029C30.0443 20.2941 30.0433 20.1736 30 20.0656C29.9568 19.9575 29.8745 19.8699 29.7697 19.8202C31.3246 18.4205 36.2683 19.6248 32.9961 22.57C32.1338 23.3445 30.8475 23.5541 29.7309 23.5399C27.2572 23.5115 24.7836 22.3249 22.9107 20.7581C19.338 17.781 16.67 13.5 13.9702 9.74127C14.8784 8.78915 15.8113 7.85124 16.7973 6.96662C18.1436 9.54587 20.7374 11.1375 23.1792 12.5692C25.7978 14.1111 28.6955 14.7683 31.6038 13.5604C33.1445 12.9209 36.1977 10.7183 34.3636 8.81757C34.2996 8.75248 34.2311 8.69194 34.1587 8.63639C35.4944 8.63639 36.6924 8.16033 36.9857 6.54741C37.3391 4.62185 34.7064 3.06933 33.0985 4.06053C31.8016 4.86699 32.9431 6.76057 34.1163 5.69476C34.1857 5.63292 34.2374 5.55352 34.266 5.46481C34.2946 5.37609 34.299 5.2813 34.2788 5.19028C34.2329 5.07304 34.194 4.98067 34.1587 4.90251C34.2909 4.90627 34.4224 4.92414 34.5509 4.9558C35.6676 4.98186 35.7229 5.85582 34.717 7.57769C34.2117 7.8619 33.0597 7.5315 32.5402 7.36808C31.3704 6.96977 30.2337 6.47916 29.1407 5.90082C27.2414 4.93971 25.4339 3.80519 23.7411 2.51156C26.2061 1.62385 28.8017 1.15791 31.42 1.13312C35.5015 1.0443 38.5794 2.42629 41.3499 5.39634C43.8235 8.04309 46.2972 10.8604 48.1277 13.9903C50.0642 17.2943 51.1844 20.9784 52.2975 24.6199C53.0643 27.1317 53.8524 29.6399 54.6369 32.1516C54.5953 32.2551 54.5909 32.3698 54.6245 32.4762C54.658 32.5825 54.7274 32.6738 54.8206 32.7342C56.2341 37.2213 57.5946 41.7154 58.7855 46.2344C59.7811 49.9563 60.4376 53.7615 60.7468 57.603C61.0295 61.3689 61.2592 65.49 60.0753 69.1137Z" fill="#828282"/>
<path d="M26.4362 33.104C25.6941 32.1696 24.118 32.3934 23.5845 33.4308C23.0155 34.5321 24.1428 35.9816 25.3513 35.5624C25.3964 35.5471 25.4401 35.5281 25.4821 35.5056C25.7333 35.4563 25.9682 35.3446 26.1653 35.1805C26.3624 35.0164 26.5154 34.8052 26.6103 34.5663C26.7053 34.3273 26.7391 34.0683 26.7086 33.8128C26.6782 33.5573 26.5845 33.3136 26.4362 33.104Z" fill="#828282"/>
<path d="M49.2156 29.2208C49.0199 28.9486 48.7291 28.7607 48.4015 28.6948C48.0739 28.6289 47.7336 28.6899 47.4487 28.8656C47.3113 28.9518 47.1921 29.0645 47.0982 29.1972C47.0042 29.3299 46.9372 29.4799 46.9011 29.6387C46.8649 29.7975 46.8604 29.962 46.8877 30.1225C46.915 30.2831 46.9735 30.4367 47.06 30.5744C47.1806 30.7403 47.3411 30.8727 47.5266 30.9591C47.712 31.0455 47.9163 31.0831 48.1202 31.0682C48.2547 31.1752 48.4249 31.2263 48.5957 31.2111C48.7666 31.1959 48.9252 31.1155 49.0389 30.9865C49.277 30.7642 49.4262 30.4622 49.4587 30.1372C49.4912 29.8122 49.4048 29.4864 49.2156 29.2208Z" fill="#828282"/>
<path d="M45.4451 38.6853C44.385 33.1467 42.6888 27.7288 41.1693 22.3039C41.1267 22.1742 41.0363 22.0658 40.9166 22.0012C40.7969 21.9365 40.6571 21.9206 40.526 21.9566C40.395 21.9926 40.2827 22.0779 40.2123 22.1947C40.142 22.3116 40.119 22.4511 40.148 22.5845C41.3071 26.7305 42.5298 30.8623 43.551 35.0403C44.0563 37.1008 44.5051 39.1791 44.8302 41.2752C45.0582 42.546 45.2069 43.8298 45.2755 45.1192C45.2755 45.4745 45.431 46.3591 45.1447 46.6469C44.8585 46.9347 43.3779 46.7464 42.9538 46.725C42.2718 46.6824 42.2753 47.7518 42.9538 47.7909C44.1977 47.8619 46.2649 48.1177 46.4134 46.455C46.6466 44.0001 45.9116 41.0834 45.4451 38.6853Z" fill="#828282"/>
<path d="M50.4591 61.0847C49.9785 58.2426 49.5403 55.1162 47.8229 52.7146C46.5119 50.8814 44.5541 49.7233 42.4374 49.0447C37.741 47.5348 31.1682 46.7781 27.3659 50.512C23.7579 54.0646 21.5952 59.5074 22.1147 64.6019C21.9874 65.7154 22.1267 66.8433 22.5211 67.8917C22.5325 68.0532 22.5862 68.2089 22.6766 68.3429C22.6981 68.3797 22.7217 68.4153 22.7472 68.4495V68.485C23.1379 69.3468 23.6641 70.1398 24.3056 70.8333C24.8599 71.6919 25.5135 72.4814 26.2527 73.1852C28.585 75.395 31.5145 76.1588 34.5854 76.7379C34.67 76.7595 34.7587 76.7595 34.8433 76.7379C34.9067 76.7662 34.9758 76.7792 35.0451 76.7757C35.1144 76.7722 35.1818 76.7523 35.2421 76.7177C35.3023 76.6831 35.3535 76.6348 35.3917 76.5765C35.4299 76.5183 35.4539 76.4519 35.4618 76.3826C35.8151 74.1622 36.3735 71.1175 34.0765 69.867C32.6448 69.1538 31.2528 68.3628 29.9067 67.4973C29.4608 67.1904 29.0325 66.8582 28.6239 66.5026C28.7865 65.6807 29.1987 65.3574 29.8607 65.5327C30.8219 65.4688 31.9174 66.0443 32.7054 66.5168C33.1966 66.8117 33.6383 66.2432 33.4122 65.8063C32.6612 64.1662 32.0832 62.4516 31.6877 60.6904C31.2147 59.1892 30.83 57.6612 30.5357 56.1145C30.4688 55.869 30.4886 55.6078 30.5916 55.3752C30.6947 55.1427 30.8747 54.9533 31.1011 54.8391C31.1011 54.761 31.1011 54.6828 31.1011 54.6046C31.1753 54.6508 31.2424 54.7041 31.3131 54.7539C31.5997 54.6789 31.9039 54.7147 32.1656 54.8541C32.4272 54.9935 32.6274 55.2265 32.7266 55.507C33.2557 56.7302 33.7147 57.9828 34.1013 59.2587C34.5508 60.3563 34.9158 61.487 35.1932 62.6408C35.2074 62.7215 35.2427 62.7969 35.2955 62.8594C35.3483 62.9218 35.4166 62.969 35.4936 62.9961C35.2391 60.4453 34.6773 57.9442 34.2603 55.404C34.2194 55.1721 34.2489 54.9331 34.3451 54.7183C34.2532 54.3631 34.1649 54.0078 34.0836 53.6277C33.7726 52.2066 35.9636 51.5849 36.2745 53.0202C36.9106 55.9334 37.8859 58.7471 38.7482 61.5999C38.7305 61.1629 38.7093 60.7295 38.6916 60.296C38.6916 60.0793 38.5927 59.4576 38.522 58.7968C38.3523 57.8341 38.1162 56.8844 37.8152 55.9547C37.3523 54.5336 39.5468 53.9581 40.0062 55.3472C40.701 57.6185 41.1187 59.9662 41.2501 62.3388C41.3191 62.2601 41.4003 62.1929 41.4904 62.1399C41.4875 60.1061 41.6173 58.0744 41.8791 56.0577C42.084 54.6046 44.275 55.2264 44.07 56.6652C43.9181 57.7964 43.8261 58.9348 43.7944 60.0758C43.7944 60.3778 43.7944 60.6833 43.7944 60.9853C43.7944 61.9895 43.8321 62.9973 43.9075 64.0086C44.1481 67.3309 44.7405 70.618 45.6744 73.814C45.6305 73.9457 45.6381 74.0892 45.6956 74.2155L46.0913 75.1356C46.3034 75.6294 47.049 75.3701 47.0808 74.9047C48.6109 74.2581 49.7806 71.2845 50.2223 70.0197C51.2047 67.0994 50.9609 64.0441 50.4591 61.0847Z" fill="#828282"/>
</g>
<defs>
<clipPath id="clip0">
<rect width="62" height="88" fill="white"/>
</clipPath>
</defs>
</svg>
