<svg width="70" height="98" viewBox="0 0 70 98" fill="none" xmlns="http://www.w3.org/2000/svg">
<g clip-path="url(#clip0)">
<path d="M69.4112 27.3615C69.0149 23.1483 68.1242 19.1304 65.8921 15.4813C63.7326 11.9624 60.8243 8.73291 57.8433 5.88672C54.95 3.07506 51.2791 1.18623 47.3005 0.461963C43.0689 -0.326435 38.7718 -0.000949784 34.5366 0.635555C30.2177 1.27206 25.7134 1.90495 21.5981 3.45643C14.2291 6.23028 10.3465 12.4977 7.52905 19.4739C3.81365 28.6635 0.105523 38.4099 9.59784e-05 48.4349C-0.00161118 48.5394 0.0194736 48.643 0.0618981 48.7387V49.6428C0.0696846 49.761 0.105141 49.8757 0.165434 49.9778C0.225728 50.0799 0.309189 50.1665 0.40915 50.2309C0.509112 50.2952 0.622804 50.3353 0.741146 50.3481C0.859488 50.3609 0.9792 50.346 1.09072 50.3046C1.21763 50.2792 1.33542 50.2206 1.43192 50.1347C1.52842 50.0489 1.60014 49.939 1.63967 49.8164C1.78536 49.3614 1.90671 48.899 2.00321 48.4313C2.28314 48.0696 2.28677 47.7694 2.31222 47.2306C2.34588 46.0073 2.53024 44.7927 2.86117 43.6141C3.53736 41.3321 4.72614 39.2345 5.90038 37.1767C8.08163 33.3721 9.89934 29.4591 11.7171 25.4882C12.6005 23.5714 13.5093 21.6619 14.5454 19.8247C15.5815 17.9875 16.8648 15.4632 18.5444 14.0853C19.1697 13.5718 20.2894 13.2499 20.4093 14.3313C20.4639 14.8014 20.2167 15.3294 20.0785 15.7779C19.6388 17.1392 19.1043 18.4685 18.4789 19.756C17.4683 21.8934 16.2977 23.9403 15.1162 25.9872C14.6472 26.8082 15.8433 27.4809 16.374 26.7105L21.5618 19.2027L24.3574 15.1558L25.5498 13.4235C25.9315 12.8666 26.4005 11.7852 26.9676 11.4055C27.3869 10.6822 27.8716 10.9691 28.4218 12.2662C28.4218 12.3313 28.4218 12.4 28.4218 12.4688C28.2849 12.9365 28.1073 13.3915 27.891 13.8286C27.6147 14.4361 27.3094 15.0292 26.9967 15.6187C26.3133 16.899 25.5644 18.1503 24.8155 19.3871L20.0313 27.376C19.6132 28.074 20.5984 28.8551 21.1728 28.2512C24.9282 24.2983 26.5786 18.9097 30.2613 14.928C31.0866 14.0347 32.8061 13.4814 32.2644 15.5609C32.0754 16.2842 31.5119 17.0581 31.1375 17.7308L28.7199 21.9621L23.8157 30.5874C23.8051 30.5961 23.7954 30.6058 23.7866 30.6164C23.2486 31.2673 24.052 32.1751 24.6482 31.7845C24.7896 31.7244 24.9054 31.6169 24.9754 31.4807L25.0154 31.412C28.1128 27.998 33.0424 30.1607 35.111 33.6325C35.6381 34.5113 36.3288 35.7084 36.2816 36.7608C36.1871 38.9307 34.8274 38.7065 34.0167 37.4841C33.8349 37.2093 33.7332 36.8729 33.5514 36.5944C33.1349 35.9637 32.5953 35.4225 31.9645 35.0032C31.3338 34.5839 30.6248 34.2948 29.8796 34.1533C26.5677 33.5132 23.9939 36.0773 22.0889 38.4099C20.7547 40.0518 19.246 41.7118 18.0899 43.473C17.5846 44.2506 17.501 44.9196 18.3444 45.4657C19.0715 45.9214 20.1367 46.142 20.9474 46.4458C21.9419 46.8457 22.9592 47.1875 23.9939 47.4693C25.6771 47.8779 27.4584 47.9828 29.0326 47.1582C30.3377 46.4747 31.2538 45.303 31.9591 44.0444C32.3917 43.2669 32.6861 42.4387 33.0788 41.6358C33.3405 41.0753 33.5041 40.6739 34.0567 40.3194C34.1788 40.1427 34.3439 39.9996 34.5366 39.9035C34.6974 39.9422 34.862 39.9628 35.0274 39.965C35.3412 40.2603 35.5676 40.6356 35.6817 41.05C35.6798 41.495 35.6397 41.939 35.5618 42.3772C34.8747 46.482 31.8318 49.6572 27.9274 50.9049C24.4265 52.0152 20.6565 52.0333 17.2138 53.3569C13.4948 54.7854 11.1354 57.7691 9.57943 61.3132C7.75081 65.3999 6.54385 69.7759 5.20965 74.0289C5.28963 74.7522 5.34416 75.4755 5.43868 76.1734C8.18706 81.7393 11.1027 87.2255 15.8978 91.3374C18.0476 93.2508 20.3959 94.9311 22.9032 96.3499C25.6807 97.8399 28.7963 97.8182 31.8682 97.8616C35.4709 97.9123 39.0881 98.0569 42.6908 97.9737C45.6355 97.9086 47.8458 97.0334 50.1652 95.2577C52.8518 93.1963 55.4621 91.0337 58.0541 88.8565C60.1808 87.0664 62.493 85.3304 63.5472 82.6759C64.1871 81.0666 64.3979 79.3451 64.8014 77.6743C64.8487 77.4718 64.9032 77.2729 64.9578 77.0776C65.026 76.9535 65.0808 76.8225 65.1214 76.687C65.1723 76.4989 65.2159 76.3253 65.2595 76.1228C65.703 74.8426 66.2556 73.5913 66.7464 72.3363C67.9656 69.1372 68.8263 65.814 69.313 62.4271C69.0961 61.3736 68.9636 60.3045 68.9167 59.2301C67.7387 56.7565 66.0584 54.5524 63.9818 52.7567C61.9051 50.961 59.4771 49.6126 56.8508 48.7965C53.4808 47.7586 50.1907 48.3951 46.7807 47.9105C44.5703 47.5922 43.0653 46.3554 42.0546 44.4206C41.3021 42.9957 40.4841 41.0934 40.3496 39.3828C42.3236 40.1061 43.7306 42.7063 45.5919 43.6611C47.3551 44.5616 49.7326 45.0679 51.6667 44.4386C56.0837 42.992 53.2735 36.2907 51.3904 33.9255C48.9292 30.837 43.6615 29.224 41.9746 33.9255C41.7565 34.533 41.5638 35.8892 40.9822 36.2292C38.9427 37.419 39.3971 35.1044 39.4953 34.5367C39.7207 33.2419 40.0588 31.8062 40.7422 30.667C42.3346 28.0053 45.9809 27.8895 48.8165 28.5477C49.8766 28.5487 50.9318 28.691 51.9539 28.9709C51.9633 28.8696 51.9465 28.7675 51.9052 28.6745C51.8638 28.5814 51.7992 28.5005 51.7176 28.4392C49.6108 26.6723 47.6103 24.7836 45.7264 22.783C44.7885 21.7776 43.882 20.7457 43.0071 19.6873C42.5236 19.1014 41.6184 18.2769 41.3494 17.597L40.9858 17.087C41.1364 16.9252 41.3404 16.8227 41.5606 16.7981C41.7809 16.7735 42.0027 16.8286 42.1855 16.9532C44.7885 17.398 47.2751 19.9477 49.1691 21.6077C50.4488 22.736 51.7139 23.8824 52.8954 25.0903C53.364 25.306 53.8077 25.5716 54.2187 25.8824L54.4769 26.1066C54.9211 26.4069 55.3472 26.7329 55.7529 27.083C55.7529 27.0179 55.7529 26.9565 55.7238 26.895C54.3714 23.5606 51.8085 20.8518 49.3364 18.2624C47.6095 16.4541 45.2938 14.7508 44.843 12.1143C44.7701 11.8096 44.771 11.492 44.8455 11.1877C44.9201 10.8834 45.0663 10.6011 45.272 10.3639C45.2462 10.2699 45.2255 10.1745 45.2102 10.0782C45.2756 10.1144 45.3374 10.1578 45.4028 10.1976C45.4875 10.1174 45.5916 10.0603 45.7049 10.0318C45.8183 10.0033 45.9371 10.0043 46.05 10.0348C46.4422 10.041 46.823 10.1673 47.1406 10.3965C47.9695 10.9426 48.4311 12.0782 48.9801 12.8666C49.1546 13.1197 49.3436 13.362 49.5218 13.5899C50.2743 14.4 50.9759 15.2679 51.6739 16.1721C53.7425 18.8917 55.7529 21.6583 57.7887 24.3996C57.8953 24.5491 58.0526 24.6553 58.2316 24.6985C58.4107 24.7417 58.5994 24.719 58.763 24.6347C57.9471 22.5699 56.9597 20.5764 55.8111 18.6747C55.3384 17.8501 54.804 17.0834 54.2696 16.3131C53.6061 15.6315 52.9892 14.9066 52.4228 14.1432C51.8048 13.3801 51.0341 12.2952 51.1214 11.2102C51.0618 11.0836 51.0482 10.9404 51.0829 10.8049C51.1176 10.6695 51.1985 10.5502 51.3117 10.4674C51.4249 10.3847 51.5635 10.3435 51.7038 10.351C51.8441 10.3585 51.9775 10.4142 52.0811 10.5086L52.1575 10.5882C53.648 11.0041 54.3387 12.6387 55.0294 14.0419C55.1276 14.1649 55.233 14.2806 55.3275 14.4036C56.6211 16.0543 57.7601 17.8193 58.7303 19.6764C60.4571 22.9783 61.246 26.6057 63.7981 29.441C66.8336 32.7971 67.7098 37.9253 68.5496 42.2507C68.7059 43.0716 69.8438 42.8438 69.9528 42.1349C69.9821 42.0561 69.9981 41.973 70.0001 41.889C70.0255 37.0393 69.8656 32.1859 69.4112 27.3615ZM30.2213 40.9957C30.1861 41.2572 30.1023 41.5098 29.9741 41.7407C29.1016 43.285 26.4805 43.256 25.4989 41.842C25.2 41.4102 25.0655 40.8865 25.1194 40.365C25.1734 39.8434 25.4123 39.358 25.7934 38.9958C25.86 38.8739 25.9419 38.7609 26.037 38.6595C26.3263 38.3892 26.6712 38.1845 27.0478 38.0597C27.4244 37.9348 27.8237 37.8927 28.2182 37.9362H28.2364C28.5848 37.9091 28.9344 37.9705 29.2524 38.1147C29.5703 38.259 29.8462 38.4813 30.0541 38.7607C30.1564 38.9226 30.2244 39.1035 30.2541 39.2924C30.3882 39.5575 30.4553 39.8513 30.4496 40.1481C30.4439 40.4449 30.3655 40.7358 30.2213 40.9957ZM45.4174 36.0484C45.6485 35.6328 46.0056 35.3004 46.4377 35.0984C46.8698 34.8965 47.3549 34.8353 47.824 34.9236C48.1088 34.9953 48.3764 35.1227 48.6111 35.2985C48.8458 35.4742 49.0429 35.6947 49.191 35.9471C49.9362 36.7427 50.238 37.9325 49.3909 38.9488C48.5438 39.965 47.2097 39.8999 46.2753 39.2345C45.9198 39.0528 45.6236 38.7744 45.421 38.4316C45.0102 37.7445 44.9012 36.7102 45.4174 36.0484ZM47.1987 57.223C47.1987 55.4473 48.0785 53.4256 50.1725 54.771C50.8196 55.1905 50.2161 56.2176 49.5618 55.8089C48.1512 54.9012 48.3912 57.9788 48.3803 58.3405C48.3439 59.3025 48.3075 60.2681 48.1985 61.2337C48.056 62.9592 47.5612 64.6378 46.7443 66.1666C45.4138 68.4884 42.869 70.5534 40.0515 70.369C34.7511 70.0073 31.3883 63.277 30.7557 58.7202C30.6503 57.9644 31.8137 57.6353 31.9191 58.3983C32.5444 62.9949 37.1614 71.9675 43.0398 68.351C46.8461 65.9966 47.2024 61.2373 47.1987 57.223ZM41.4657 57.1398C41.5994 55.3648 41.4992 53.5799 41.1676 51.8308C41.0294 51.0749 42.1928 50.7458 42.3273 51.5089C42.6908 53.6137 43.636 63.3023 38.8518 61.3096C37.1141 60.5863 36.8342 58.1235 36.7106 56.5105C36.5542 54.5034 36.6015 52.2575 37.1686 50.3046C37.3831 49.5632 38.5428 49.8815 38.3283 50.6229C37.9797 52.0228 37.822 53.463 37.8594 54.9048C37.8594 56.3514 37.7903 58.4128 38.71 59.646C40.2878 61.7689 41.3566 58.42 41.4657 57.1398Z" fill="#1F1E1C"/>
<path d="M28.6036 39.5357C28.4239 39.3476 28.1905 39.219 27.935 39.1673C27.6794 39.1155 27.4141 39.1431 27.1748 39.2464C27.0758 39.2904 26.9839 39.3489 26.9022 39.42C26.7033 39.5603 26.5463 39.7515 26.4478 39.9733C26.3059 40.1807 26.2406 40.4307 26.2632 40.6806C26.2857 40.9305 26.3946 41.165 26.5714 41.344C26.8591 41.6057 27.2261 41.7647 27.6147 41.796H27.6293C27.6752 41.7996 27.7214 41.7996 27.7674 41.796C27.7952 41.7995 27.8233 41.7995 27.851 41.796C27.9262 41.7885 28.0004 41.774 28.0728 41.7526L28.2073 41.6911H28.2473C28.2941 41.6681 28.3391 41.6415 28.3818 41.6116C28.4266 41.5822 28.4691 41.5495 28.509 41.5139C28.6934 41.3562 28.8326 41.1528 28.9126 40.9244C28.9913 40.6867 29.0042 40.4323 28.9498 40.1879C28.8954 39.9435 28.7758 39.7182 28.6036 39.5357Z" fill="#1F1E1C"/>
<path d="M48.6817 36.9426C48.5874 36.6648 48.4048 36.4249 48.1616 36.2592C47.9183 36.0935 47.6275 36.011 47.3329 36.024C47.0437 36.024 46.7663 36.1384 46.5617 36.3418C46.3572 36.5453 46.2423 36.8213 46.2423 37.109C46.2384 37.4618 46.3301 37.8091 46.5077 38.1144C46.654 38.362 46.8931 38.5419 47.1725 38.6144C47.452 38.687 47.7489 38.6463 47.9982 38.5013C48.1322 38.4156 48.2472 38.3036 48.3363 38.1722C48.5008 38.0179 48.6199 37.8219 48.6808 37.6052C48.7417 37.3885 48.742 37.1595 48.6817 36.9426Z" fill="#1F1E1C"/>
</g>
<defs>
<clipPath id="clip0">
<rect width="70" height="98" fill="white"/>
</clipPath>
</defs>
</svg>
