<svg width="55" height="87" viewBox="0 0 55 87" fill="none" xmlns="http://www.w3.org/2000/svg">
<g clip-path="url(#clip0)">
<path d="M13.4924 26.8432C13.3048 26.9642 13.1502 27.1294 13.0422 27.324C12.9342 27.5187 12.8761 27.7369 12.8731 27.9592C12.8678 28.0013 12.8678 28.0439 12.8731 28.0859C12.874 28.331 12.9334 28.5723 13.0465 28.79C13.0642 28.8252 13.0748 28.8604 13.0925 28.8921C13.1168 28.925 13.1441 28.9556 13.1739 28.9836C13.2148 29.033 13.2585 29.0801 13.3048 29.1245C13.4372 29.2333 13.5941 29.3087 13.7621 29.3439C13.9301 29.3792 14.1043 29.3734 14.2695 29.327C14.4348 29.2806 14.5863 29.195 14.7111 29.0776C14.8358 28.9602 14.93 28.8144 14.9856 28.6527C15.5412 27.7726 14.5362 26.2518 13.4924 26.8432Z" fill="#1F1E1C"/>
<path d="M54.7164 31.0571C54.7164 30.9515 54.6916 30.8459 54.681 30.7438L54.6598 30.0714C54.6598 29.9482 54.6598 29.8249 54.6598 29.7193C54.6598 29.4412 54.6598 29.1561 54.6846 28.8709C55.0632 25.9243 54.1148 22.7806 53.209 20.0382C52.5437 18.0245 51.7652 15.3032 50.3781 13.286C49.936 12.4354 49.4421 11.6124 48.899 10.8218C46.4202 7.18049 42.9812 4.2889 38.9591 2.46429C39.0913 3.22705 39.2481 3.98628 39.4298 4.742C39.6469 5.68784 39.9379 6.61536 40.3003 7.51608C40.4504 7.89051 40.629 8.25299 40.8346 8.60037C40.9171 8.74632 41.0081 8.88738 41.1071 9.02282C41.3795 9.52976 41.7723 9.49104 42.2854 8.91369C41.6343 8.09695 42.8162 6.92465 43.4567 7.74491C44.3519 8.882 44.5713 10.5612 42.94 11.1773C41.5246 11.7335 40.2189 10.7232 39.4935 9.57905C38.078 7.36119 37.4411 4.45332 37.1439 1.725C34.6463 0.833038 32.0222 0.341101 29.3696 0.267551C29.2281 0.267551 29.083 0.249949 28.945 0.249949C28.5911 0.179541 28.2373 0.123214 27.8834 0.0844899C28.2196 1.65812 29.221 3.20006 30.1552 4.38292C30.686 5.05531 31.5388 6.18185 32.4871 6.24874C33.8388 6.34027 33.5168 4.99547 32.5119 4.67863C31.5069 4.36179 31.9315 2.76705 32.9507 3.0874C34.3165 3.52041 35.4277 4.67863 35.0066 6.19945C34.6244 7.57241 33.1913 8.14976 31.8785 7.79068C30.0738 7.29782 28.7716 5.4496 27.841 3.95342C27.1156 2.78465 26.4043 1.40817 26.1849 0C24.167 0.0402583 22.1889 0.566954 20.4206 1.5349C20.2842 1.6093 20.1561 1.6978 20.0384 1.79893L19.4829 2.0172C19.4829 3.60842 19.957 5.23838 21.0575 6.42124C21.414 6.8214 21.8491 7.14467 22.3359 7.37112C22.8228 7.59756 23.3512 7.72238 23.8884 7.73787C25.3286 7.73787 25.0915 6.76976 24.2422 5.97766C23.4496 5.27358 24.6244 4.09776 25.4135 4.81241C26.4008 5.70307 27.204 7.1394 26.2875 8.37154C25.371 9.60369 23.5982 9.52272 22.2925 9.12139C19.5607 8.26593 18.0887 5.47776 17.8587 2.73888C16.5774 3.36713 15.3553 4.1082 14.2068 4.95322C0.877054 14.7646 -0.573762 32.4195 0.148107 47.5784C0.112721 47.9128 0.0773353 48.2473 0.038411 48.5817C0.0411287 48.7209 0.097923 48.8537 0.196882 48.9521C0.29584 49.0506 0.429274 49.1071 0.569197 49.1098C8.4779 49.1344 15.5055 44.9839 20.7815 39.3688C22.0201 38.044 23.186 36.6538 24.2741 35.2041C24.6279 34.7606 25.3746 33.2996 25.9903 32.6554C26.0626 32.6723 26.1336 32.6947 26.2026 32.7222C26.2913 32.6432 26.3967 32.585 26.511 32.5519C26.6253 32.5188 26.7456 32.5116 26.8631 32.5308C26.9806 32.5501 27.0922 32.5953 27.1898 32.6632C27.2874 32.731 27.3684 32.8198 27.4269 32.9229C28.9839 36.0526 26.1106 39.2597 24.2422 41.5514C23.2267 42.7906 22.2359 44.3678 21.0929 45.7372C24.5436 43.8668 28.1397 42.2751 31.8466 40.9776C34.1538 40.1996 39.1573 38.3021 40.8841 41.0163C40.9913 41.2063 41.0202 41.4303 40.9647 41.6411C40.9093 41.8518 40.7739 42.033 40.5869 42.1464C37.664 44.2586 34.0051 45.0191 30.601 45.9977C28.4284 46.6208 26.2981 47.3637 24.1715 48.11C23.991 48.2543 23.8176 48.3987 23.6442 48.55C23.6119 48.6001 23.5752 48.6472 23.5345 48.6908C23.2373 49.0147 22.9577 49.3421 22.6676 49.666C23.991 49.314 25.3215 48.9619 26.6485 48.6099C27.0023 48.4374 27.3562 48.2578 27.71 48.0924C27.8304 48.0375 27.9618 48.0106 28.0942 48.0136C28.2266 48.0167 28.3566 48.0496 28.4744 48.11C29.5194 47.8213 30.5586 47.5197 31.5918 47.2052C33.6985 46.4096 35.7886 45.5776 37.8622 44.7093L40.0101 44.0228C40.2613 43.9418 40.8098 43.6919 41.3477 43.4877C41.3983 43.4912 41.4492 43.4912 41.4998 43.4877C41.6095 43.4525 41.7192 43.4137 41.8289 43.3821C41.955 43.3468 42.0842 43.3232 42.2146 43.3117C42.277 43.2804 42.3373 43.2451 42.3951 43.206C42.4513 43.205 42.5073 43.2121 42.5614 43.2272C42.6827 43.2709 42.8009 43.3227 42.9153 43.3821C43.2111 43.4656 43.4646 43.6568 43.6252 43.9177C43.7858 44.1786 43.8419 44.4901 43.7822 44.7902C43.6442 46.0329 42.1262 46.6244 41.1141 47.0046C39.1679 47.7403 37.1226 48.1593 35.0986 48.6345C32.7016 49.1689 30.3952 50.0464 28.2514 51.2396C27.7277 51.5353 27.1899 51.8311 26.6732 52.1197C28.9875 51.6856 31.263 51.0675 33.4779 50.2715L34.2564 50.011L34.8792 49.9019C35.5869 49.7751 36.2946 49.6425 37.0023 49.5041C38.5734 48.8457 40.4666 48.2086 42.1934 48.3775C42.4376 48.3212 42.7383 48.2649 43.0568 48.2226C43.2214 48.2532 43.3767 48.3212 43.5105 48.4214C43.6443 48.5215 43.7531 48.6511 43.8282 48.8C43.8282 48.8704 43.8282 48.9373 43.853 49.0077C43.8351 49.1335 43.7892 49.2538 43.7185 49.3597C43.7419 49.6314 43.6637 49.9021 43.4991 50.1201C42.8693 51.053 41.1495 51.5283 40.1339 51.8381C37.5296 52.6654 34.9004 53.1829 32.4022 54.3446C30.6683 55.1473 28.7751 56.2597 26.8148 57.0483L27.4376 56.911C27.675 56.9842 27.9276 56.9939 28.17 56.9392C31.2168 56.2809 34.3944 55.7563 37.5083 55.0452C38.3399 54.9572 39.1679 54.8903 39.9853 54.8621C40.1198 54.8621 40.4383 54.8375 40.7921 54.8305L41.1778 55.0874C41.2378 55.3255 41.3332 55.5533 41.4609 55.7634C41.0439 56.2843 40.5691 56.7567 40.0455 57.1715C39.2544 57.5709 38.4403 57.9236 37.6074 58.2276C35.3823 59.0086 33.0987 59.6136 30.778 60.0371C28.216 60.5476 25.6329 61.0933 23.0179 61.2376C20.5409 61.3749 18.0639 61.3784 15.5692 61.5896C10.6962 62.0111 5.86984 62.8581 1.14598 64.1208C1.03075 64.1454 0.9287 64.2114 0.859461 64.3063C0.790222 64.4012 0.758679 64.5182 0.770895 64.6348C0.715599 64.6697 0.66902 64.7168 0.634688 64.7723C0.600355 64.8278 0.579169 64.8903 0.572735 64.9552C0.39571 66.1716 0.39571 67.407 0.572735 68.6234C0.583565 68.953 0.643182 69.2792 0.749664 69.5915C1.3123 72.091 2.57557 74.3723 4.16085 76.4775C4.96677 77.7949 5.98125 78.9741 7.16509 79.9697C7.90819 80.7477 8.66545 81.5046 9.41208 82.2369C11.2026 83.9971 12.9896 85.1975 15.2401 85.6024C15.8812 85.9735 16.5496 86.2959 17.2394 86.567C19.589 87.4929 21.9068 86.7923 24.0582 85.6482C27.2429 84.9441 30.2613 83.1029 32.8834 81.3427C34.083 80.54 35.3109 79.6987 36.5069 78.8009C38.8316 77.1376 40.9496 75.2054 42.8162 73.0451C47.4836 67.5955 50.2755 60.8644 52.2005 54.0348C54.3519 46.4343 55.5904 38.9499 54.7164 31.0571ZM18.3328 28.716C18.3151 28.7477 18.2939 28.7794 18.2762 28.8146C17.7414 29.8683 17.0691 30.8472 16.2769 31.726C15.8899 32.0128 15.4678 32.2494 15.0207 32.4301C14.2729 32.7297 13.4565 32.8186 12.6613 32.6869C11.866 32.5552 11.1226 32.2081 10.5126 31.6837L9.0193 29.1279C8.51683 26.7551 10.2047 24.1008 12.526 23.4108C13.5005 23.1486 14.5313 23.1803 15.4876 23.5018C16.4439 23.8233 17.2827 24.4202 17.8976 25.2167C18.461 26.2931 18.6155 27.5355 18.3328 28.716ZM33.6159 27.8782L33.7433 27.6282C33.815 27.5545 33.8812 27.4756 33.9415 27.3923C34.1924 27.0536 34.3586 26.6601 34.4262 26.2447C34.9712 25.4209 35.7001 24.7063 36.5777 24.4845C37.664 24.1923 38.9238 24.4317 40.0349 24.4845C40.0984 24.4877 40.1619 24.4793 40.2224 24.4598C40.7916 24.8127 41.3207 25.2259 41.8006 25.692C42.4084 26.3346 42.7821 27.1613 42.8622 28.0401C42.9719 29.4236 42.7206 30.8564 42.2359 31.733C42.073 31.8756 41.9312 32.0403 41.8148 32.2224C41.7228 32.3702 41.6449 32.5181 41.5706 32.6659C41.4928 32.7539 41.4043 32.8314 41.3194 32.9159C40.5904 32.2716 39.8438 31.8245 38.531 32.0463C37.2182 32.2681 36.2804 33.0426 35.2826 33.7432C33.4248 32.5216 32.8693 30.0045 33.6159 27.8782Z" fill="#1F1E1C"/>
<path d="M39.1399 28.202C39.0971 28.0712 39.0248 27.9519 38.9287 27.8531C38.8325 27.7543 38.715 27.6786 38.585 27.6317C38.455 27.5849 38.316 27.5681 38.1786 27.5828C38.0411 27.5974 37.9088 27.643 37.7917 27.7161C37.546 27.8965 37.3578 28.1435 37.2499 28.4277C37.1419 28.7119 37.1187 29.021 37.1831 29.3179C37.2267 29.4563 37.3104 29.5788 37.4237 29.67C37.5493 29.8397 37.7351 29.9556 37.9434 29.9941C38.1516 30.0327 38.3669 29.9911 38.5455 29.8777C38.6844 29.789 38.7998 29.6683 38.8816 29.5256C39.0455 29.3515 39.1567 29.135 39.2024 28.9008C39.2481 28.6667 39.2264 28.4244 39.1399 28.202Z" fill="#1F1E1C"/>
</g>
<defs>
<clipPath id="clip0">
<rect width="55" height="87" fill="white"/>
</clipPath>
</defs>
</svg>
