<svg width="86" height="114" viewBox="0 0 86 114" fill="none" xmlns="http://www.w3.org/2000/svg">
<path d="M32.585 31.246C27.339 29.552 31.888 15.966 35.874 14.621C40.568 13.036 47.374 14.072 50.391 18.116C51.795 19.999 51.644 23.048 51.683 25.261C51.734 28.147 50.029 29.631 48.557 31.768C47.456 33.366 50.058 34.864 51.147 33.282C53.196 30.307 54.692 29.074 54.682 25.261C54.673 21.895 54.371 18.466 52.304 15.695C48.472 10.558 40.744 10.477 35.075 11.727C27.742 13.344 23.619 31.5 31.786 34.138C33.634 34.736 34.418 31.838 32.585 31.246Z" fill="black"/>
<path d="M27.7236 30.603C19.6316 47.352 66.0005 47.718 54.6475 29.27C53.6355 27.626 51.0405 29.132 52.0575 30.784C60.1936 44.005 25.4006 42.288 30.3146 32.117C31.1526 30.383 28.5656 28.861 27.7236 30.603Z" fill="black"/>
<path d="M34.096 22.064C30.134 23.946 32.65 28.253 35.374 29.907C36.854 30.806 36.118 33.264 36.764 34.746C37.503 36.441 40.159 37.08 41.77 37.192C43.47 37.311 46.002 36.093 46.331 34.245C46.493 33.333 46.465 32.447 46.52 31.525C46.533 31.303 46.469 30.302 46.106 30.409C46.528 30.285 46.895 30.15 47.299 29.972C48.809 29.309 49.18 26.644 49.151 25.254C49.107 23.219 47.629 21.858 45.752 21.411C43.871 20.963 43.073 23.856 44.954 24.304C46.451 24.66 46.314 26.018 45.813 27.161C45.53 27.807 44.084 27.82 43.633 28.546C42.421 30.493 44.997 34.922 40.882 34.068C38.331 33.538 39.79 30.67 38.661 28.931C38.062 28.008 33.702 25.559 35.611 24.653C37.357 23.825 35.834 21.239 34.096 22.064Z" fill="black"/>
<path d="M32.1262 18.4199C33.1252 19.2899 34.7192 19.3349 35.7282 18.4399C36.9642 17.3429 36.1152 15.5499 34.8772 14.8949C33.8092 14.3299 32.3772 14.4759 31.5202 15.3589C30.3792 16.5359 31.0772 18.2169 32.4302 18.8209C33.1772 19.1539 34.0362 19.0449 34.4822 18.2829C34.8612 17.6359 34.6912 16.5639 33.9442 16.2309C33.8602 16.1959 33.7782 16.1569 33.6992 16.1139C33.3622 15.9409 33.8892 16.3149 33.6662 16.0969C34.0752 16.4949 33.9632 17.0809 33.6422 17.4809C33.8112 17.2699 33.3272 17.6829 33.5692 17.5299C33.8192 17.3719 33.2212 17.6459 33.5162 17.5539C33.8192 17.4599 33.1442 17.5739 33.4702 17.5549C33.5942 17.5479 33.8552 17.6219 33.4442 17.5389C33.7672 17.6039 33.1512 17.3739 33.4522 17.5329C33.7502 17.6909 33.2302 17.3129 33.4812 17.5679C33.2412 17.3239 33.5422 17.7769 33.3792 17.3429C33.2082 16.8859 33.4862 16.3809 33.8482 16.1289C33.6092 16.2959 34.1912 16.0209 33.8892 16.1049C33.5732 16.1929 34.2492 16.0849 33.9152 16.0949C33.5822 16.1049 34.2612 16.1749 33.9462 16.1039C33.7022 16.0489 34.2032 16.2599 34.2482 16.2999C33.6322 15.7639 32.7342 15.6919 32.1272 16.2999C31.5782 16.8469 31.5092 17.8829 32.1262 18.4199Z" fill="black"/>
<path d="M45.9071 16.2941C45.7741 17.1971 45.8851 17.9761 46.5221 18.6681C47.0271 19.2171 47.8781 19.4501 48.5991 19.4061C50.2711 19.3031 51.6261 18.0661 51.6871 16.3601C51.7061 15.8281 51.3851 15.3361 50.9441 15.0651C50.2101 14.6141 49.3781 14.3881 48.5201 14.3601C47.7021 14.3341 47.0201 15.0621 47.0201 15.8601C47.0201 16.6981 47.7031 17.3341 48.5201 17.3601C48.7431 17.3671 49.1041 17.4551 49.4301 17.6551C49.1821 17.2231 48.9351 16.7921 48.6871 16.3601C48.6771 16.6341 48.7851 16.0741 48.6491 16.4751C48.7391 16.2701 48.7461 16.2371 48.6681 16.3781C48.8561 16.0641 48.7471 16.2771 48.6551 16.3671C48.9411 16.0881 48.6841 16.3401 48.5651 16.4041C48.9381 16.2011 48.5261 16.4061 48.3851 16.4351C48.8251 16.3431 48.4641 16.4151 48.3291 16.4091C48.5821 16.4501 48.6301 16.4551 48.4721 16.4231C48.1751 16.3591 48.7881 16.5921 48.5271 16.4541C48.3971 16.3701 48.4361 16.4011 48.6441 16.5471C48.7891 16.7561 48.8201 16.7941 48.7371 16.6641C48.8251 16.9021 48.8471 16.9431 48.8011 16.7891C48.9201 17.2291 48.8581 16.7041 48.8011 17.0921C48.9201 16.2841 48.6131 15.4831 47.7531 15.2471C47.0381 15.0501 46.0261 15.4841 45.9071 16.2941Z" fill="black"/>
<path d="M26.0203 37.3601C25.6763 41.4371 22.0493 44.1811 19.4203 46.9521C17.3493 49.1361 16.0113 51.7571 14.8513 54.5171C13.2623 58.2981 12.0083 62.2221 10.5733 66.0661C9.86032 67.9751 9.05032 70.7431 10.0503 72.7061C13.8973 80.2581 28.6923 76.2961 35.2883 77.4741C37.1793 77.8121 37.9883 74.9211 36.0863 74.5811C32.5973 73.9581 28.9343 74.2631 25.4073 74.2291C20.9253 74.1851 11.3973 74.8791 13.0383 68.1881C13.6943 65.5141 15.0263 62.9951 15.8283 60.3571C17.0443 56.3571 18.7523 52.2311 21.5423 49.0741C24.7913 45.3981 28.5803 42.5721 29.0203 37.3611C29.1833 35.4311 26.1813 35.4471 26.0203 37.3601Z" fill="black"/>
<path d="M26.3909 52.1031C24.8389 54.6411 23.0549 57.0111 22.0319 59.8251C21.6839 60.7811 21.7209 62.0011 21.6539 62.9961C21.5309 64.8371 20.4859 66.1311 19.5569 67.6031C19.1429 68.2591 19.3799 69.3011 20.0949 69.6551C25.0699 72.1191 30.5309 72.7951 36.0189 73.0261C37.9539 73.1081 37.9459 70.1071 36.0189 70.0261C31.0839 69.8181 26.0899 69.2841 21.6089 67.0641C21.7879 67.7481 21.9679 68.4321 22.1469 69.1161C23.4419 67.0641 24.3369 65.4121 24.6529 62.9951C25.1409 59.2591 27.0549 56.7641 28.9799 53.6161C29.9939 51.9611 27.3979 50.4551 26.3909 52.1031Z" fill="black"/>
<path d="M48.4176 70.413C44.6266 69.52 41.7496 68.223 38.0336 70.138C35.1696 71.614 33.6936 74.85 35.2306 77.831C38.0036 83.206 45.4006 80.515 49.4426 78.321C51.1436 77.398 49.6286 74.808 47.9286 75.731C45.4846 77.057 41.4716 78.965 38.7526 77.494C36.1116 76.066 38.3736 73.333 40.0686 72.46C42.5306 71.192 45.1996 72.735 47.6196 73.306C49.5026 73.749 50.3006 70.857 48.4176 70.413Z" fill="black"/>
<path d="M48.7522 73.4729C53.8742 72.4259 59.2302 72.2959 63.9442 69.8219C64.4192 69.5719 64.6672 69.0419 64.6872 68.5269C64.8072 65.4829 61.1502 64.9029 61.3752 62.2139C61.6972 58.3619 57.2042 55.3799 55.3162 52.4359C54.2762 50.8129 51.6782 52.3159 52.7262 53.9499C54.1042 56.0989 55.6692 57.9789 57.4192 59.8369C58.8992 61.4079 57.8712 64.1099 59.3282 65.9009C59.5332 66.1529 61.4592 67.7409 61.5392 67.6989C60.0732 68.4689 58.2932 68.7829 56.6882 69.1219C53.8002 69.7319 50.8482 69.9879 47.9552 70.5799C46.0602 70.9669 46.8632 73.8589 48.7522 73.4729Z" fill="black"/>
<path d="M53.9587 40.0869C61.1207 46.9109 65.1807 56.1349 69.1527 65.0219C69.7577 66.3739 70.4877 67.5769 71.2027 68.8669C72.1247 70.5299 67.1717 71.2259 66.6007 71.3859C60.9737 72.9639 55.5897 74.8279 49.6857 75.0259C47.7567 75.0909 47.7497 78.0909 49.6857 78.0259C56.4137 77.7999 62.6587 75.6069 69.0847 73.8059C71.9247 73.0099 75.6577 72.4729 74.3727 68.6089C72.7677 63.7789 69.7497 58.7059 67.4097 54.1749C64.3527 48.2549 60.9317 42.5899 56.0787 37.9659C54.6807 36.6319 52.5557 38.7499 53.9587 40.0869Z" fill="black"/>
<path d="M23.1212 66.973C31.8202 68.99 42.5322 66.079 48.7472 59.587C50.0842 58.19 47.9662 56.066 46.6262 57.466C41.1652 63.169 31.5862 65.858 23.9192 64.08C22.0362 63.643 21.2372 66.536 23.1212 66.973Z" fill="black"/>
<path d="M42.9293 64.1549C47.9013 67.886 54.6663 69.148 60.4433 66.655C62.2153 65.89 60.6853 63.306 58.9293 64.065C54.1333 66.135 48.4623 64.5809 44.4433 61.5649C42.8943 60.4019 41.4023 63.0089 42.9293 64.1549Z" fill="black"/>
<path d="M11.3909 74.7689C9.19293 79.2589 8.39093 84.6519 13.9539 86.806C15.7609 87.5059 16.5359 84.604 14.7519 83.913C11.3149 82.582 12.7649 78.7699 13.9819 76.2829C14.8289 74.5529 12.2419 73.0319 11.3909 74.7689Z" fill="black"/>
<path d="M69.7919 74.754C70.6109 75.745 71.3709 76.751 71.9479 77.905C72.7229 79.455 71.7169 80.459 70.4289 81.232C68.7729 82.227 70.2799 84.821 71.9429 83.822C73.8619 82.67 75.3679 81.046 75.2089 78.676C75.0519 76.344 73.3309 74.349 71.9129 72.632C70.6799 71.139 68.5699 73.274 69.7919 74.754Z" fill="black"/>
<path d="M10.6264 83.6319C6.38443 88.4899 4.28142 95.1059 11.5514 98.4299C15.4734 100.223 20.7464 100.148 24.9334 100.615C31.3924 101.335 37.8724 101.871 44.3524 102.359C53.5184 103.049 65.0964 102.595 73.0204 97.3559C78.7234 93.5859 78.5834 86.1719 73.9124 81.7979C72.5024 80.4769 70.3764 82.5939 71.7914 83.9189C78.5554 90.2539 71.2204 95.6189 65.1044 97.5299C58.9424 99.4549 52.3064 99.7509 45.9024 99.4659C38.9074 99.1539 31.8934 98.3579 24.9334 97.6139C21.6524 97.2629 18.3554 96.9179 15.1044 96.3509C12.6774 95.9269 10.6544 95.0689 9.63242 92.4599C8.62042 89.8759 11.3144 87.3929 12.7464 85.7529C14.0134 84.3029 11.9004 82.1719 10.6264 83.6319Z" fill="black"/>
<path d="M13.4544 86.973C17.2414 87.903 21.1054 88.634 25.0194 88.527C26.9504 88.474 26.9554 85.474 25.0194 85.527C21.3594 85.627 17.7914 84.95 14.2514 84.081C12.3734 83.618 11.5764 86.511 13.4544 86.973Z" fill="black"/>
<path d="M70.7631 81.2309C68.6931 82.5559 66.1721 83.6169 63.6871 83.6929C61.7571 83.7519 61.7511 86.7519 63.6871 86.6929C66.6931 86.6019 69.7621 85.4319 72.2771 83.8219C73.9001 82.7819 72.3971 80.1849 70.7631 81.2309Z" fill="black"/>
<path d="M29.1334 38.0919C29.3034 37.3639 29.3674 36.6309 29.6334 35.9249C30.2334 34.3349 27.6174 33.2399 26.8914 34.7689C26.5044 35.5839 26.2884 36.4229 26.0734 37.2939C25.8784 38.0869 26.3174 38.9179 27.1214 39.1389C27.8934 39.3509 28.7714 38.8849 28.9664 38.0909C29.1134 37.4949 29.3014 36.6629 29.4814 36.2829C28.5674 35.8979 27.6534 35.5119 26.7394 35.1269C26.4734 35.8319 26.4094 36.5649 26.2394 37.2939C26.0534 38.0899 26.4764 38.9159 27.2874 39.1389C28.0524 39.3499 28.9474 38.8879 29.1334 38.0919Z" fill="black"/>
<path d="M53.1855 37.0259C53.2245 38.2079 53.6335 39.2699 54.2235 40.2829C55.0675 41.7299 57.5065 40.7699 56.9655 39.1269C56.6695 38.2289 56.3725 37.3109 56.3525 36.3589C56.3105 34.4269 53.3105 34.4229 53.3525 36.3589C53.3785 37.5829 53.6925 38.7689 54.0725 39.9239C54.9865 39.5389 55.9005 39.1529 56.8145 38.7679C56.4965 38.2229 56.2075 37.6679 56.1855 37.0249C56.1225 35.0969 53.1225 35.0909 53.1855 37.0259Z" fill="black"/>
<path d="M37.5852 73.4731C38.0302 73.3041 37.3462 73.4501 37.7292 73.4401C37.9602 73.4341 38.2022 73.3881 38.4182 73.3061C40.0012 72.7051 39.7572 70.4781 38.0192 70.3601C38.6052 70.4001 38.0402 70.3531 37.8882 70.3191C37.7862 70.2961 37.6852 70.2721 37.5842 70.2471C37.7032 71.1611 37.8232 72.0751 37.9422 72.9891C37.6462 73.1201 38.0682 72.9821 38.1052 72.9741C38.3232 72.9231 38.5372 72.8731 38.7512 72.8071C39.3922 72.6101 39.8522 72.0431 39.8522 71.3611C39.8522 71.3051 39.8522 71.2501 39.8522 71.1941C39.8522 70.3771 39.1702 69.6941 38.3522 69.6941C37.4302 69.6941 36.5292 69.7441 35.6202 69.9141C34.8162 70.0651 34.3692 71.0211 34.5722 71.7591C34.8022 72.5961 35.6142 72.9571 36.4172 72.8071C36.9822 72.7011 37.6692 72.6941 38.3522 72.6941C37.8522 72.1941 37.3522 71.6941 36.8522 71.1941C36.8522 71.2501 36.8522 71.3051 36.8522 71.3611C37.2192 70.8791 37.5862 70.3971 37.9532 69.9151C37.4302 70.0761 36.9342 70.1761 36.4282 70.4001C35.2102 70.9381 35.6132 72.8511 36.7862 73.1421C37.1902 73.2421 37.6022 73.3341 38.0182 73.3621C37.8852 72.3801 37.7522 71.3981 37.6192 70.4161C37.1742 70.5851 37.8582 70.4391 37.4752 70.4491C37.2442 70.4551 37.0022 70.5011 36.7862 70.5831C36.0222 70.8731 35.5062 71.5831 35.7382 72.4281C35.9412 73.1571 36.8202 73.7631 37.5852 73.4731Z" fill="black"/>
<path d="M39.5199 81.9429C45.7279 82.4619 51.7069 80.2529 57.9129 80.0839C62.6649 79.9549 67.8469 79.6129 71.3309 76.0039C72.1649 75.1399 71.6399 73.3049 70.2699 73.4429C66.5929 73.8159 62.9689 74.5449 59.2699 74.6929C57.3259 74.7709 57.3479 77.5669 59.2699 77.6929C62.3859 77.8969 65.1469 77.0569 68.1689 76.3889C69.8319 76.0219 69.4519 73.3959 67.7699 73.4429C57.8069 73.7169 48.5149 78.3829 38.5199 77.9429C37.0819 77.8799 36.3959 80.1039 37.7629 80.7379C42.9249 83.1339 46.2769 82.2409 51.4189 80.1389C53.1849 79.4169 52.4129 76.5139 50.6209 77.2459C46.5609 78.9059 43.6309 80.1679 39.2769 78.1469C39.0249 79.0789 38.7719 80.0099 38.5199 80.9419C48.5529 81.3839 57.8019 76.7159 67.7699 76.4419C67.6369 75.4599 67.5039 74.4779 67.3709 73.4959C64.6579 74.0949 62.0769 74.8769 59.2699 74.6919C59.2699 75.6919 59.2699 76.6919 59.2699 77.6919C62.9779 77.5429 66.5819 76.8159 70.2699 76.4419C69.9159 75.5879 69.5629 74.7349 69.2089 73.8809C65.7829 77.4309 60.1379 77.0169 55.5809 77.1479C50.1219 77.3039 45.0239 79.4019 39.5199 78.9419C37.5909 78.7819 37.6059 81.7829 39.5199 81.9429Z" fill="black"/>
<path d="M42.6677 79.2461C41.1467 78.7681 39.6897 78.4551 38.2757 77.6471C36.8377 76.8251 35.1047 78.8981 36.4577 80.0031C38.9597 82.0451 41.2557 82.8011 44.4167 81.8891C46.0467 81.4181 45.7217 78.9551 44.0177 78.9431C39.8467 78.9121 36.4817 76.6671 32.4007 76.5441C26.0417 76.3521 20.4447 76.9071 14.1667 74.9971C12.8557 74.5981 11.8757 76.0811 12.4727 77.2001C12.6917 77.6101 12.9007 77.9091 13.2077 78.2541C13.2077 77.5471 13.2077 76.8401 13.2077 76.1331C12.4347 76.7311 12.3557 76.8071 11.9727 77.6871C11.6397 78.4531 11.7547 79.2701 12.5107 79.7391C18.2467 83.2981 27.2897 81.0381 33.1667 78.8901C34.9687 78.2311 34.1907 75.3311 32.3687 75.9971C27.2727 77.8601 18.9997 80.2351 14.0247 77.1481C14.2037 77.8321 14.3837 78.5161 14.5627 79.2001C14.8177 78.8851 15.0727 78.5691 15.3277 78.2541C16.0017 77.7331 15.8167 76.6821 15.3277 76.1331C15.2397 75.9841 15.1507 75.8351 15.0627 75.6871C14.4977 76.4211 13.9337 77.1561 13.3687 77.8901C18.5207 79.4571 23.7227 79.9971 29.0967 79.8131C31.8757 79.7181 33.9557 79.5181 36.5897 80.5601C39.1467 81.5711 41.2867 81.9231 44.0177 81.9431C43.8847 80.9611 43.7517 79.9791 43.6187 78.9971C41.9387 78.6261 40.2587 78.2541 38.5777 77.8831C37.9717 78.6681 37.3657 79.4541 36.7597 80.2391C38.3897 81.1701 40.0837 81.5791 41.8677 82.1401C43.7217 82.7211 44.5067 79.8241 42.6677 79.2461Z" fill="black"/>
<path d="M8.47397 89.45C10.592 94.389 21.049 90.278 24.276 88.738C25.906 87.96 24.689 85.701 23.12 85.996C18.941 86.784 14.737 86.277 10.519 86.442C8.88197 86.506 8.40797 89.016 10.12 89.388C12.442 89.893 14.32 89.292 14.965 86.84C15.458 84.967 12.564 84.173 12.072 86.042C11.687 86.193 11.302 86.344 10.917 86.494C10.784 87.476 10.651 88.458 10.518 89.44C15.022 89.263 19.454 89.728 23.917 88.886C23.532 87.972 23.146 87.058 22.761 86.144C21.005 86.982 12.125 90.408 11.063 87.932C10.304 86.162 7.72097 87.692 8.47397 89.45Z" fill="black"/>
<path d="M64.1678 84.7459C62.8538 84.5309 61.6058 84.4519 60.2688 84.4419C58.8058 84.4309 58.1798 86.5249 59.5118 87.2369C63.4428 89.3389 72.8287 91.2379 74.9647 85.8409C75.2507 85.1189 74.6588 84.1409 73.9167 83.9959C71.3267 83.4869 69.1948 84.0679 66.6188 84.4959C66.8848 85.4599 67.1508 86.4249 67.4168 87.3889C68.6718 87.1559 69.9307 86.9579 71.1667 86.6389C72.8167 86.2129 72.4577 83.6859 70.7677 83.6929C65.3517 83.7139 59.9868 84.0189 54.6188 84.7469C52.8898 84.9809 53.3928 87.6539 55.0178 87.6929C59.0418 87.7919 62.9947 88.5889 67.0177 88.6929C68.9537 88.7429 68.9487 85.7429 67.0177 85.6929C62.9947 85.5889 59.0418 84.7919 55.0178 84.6929C55.1508 85.6749 55.2838 86.6569 55.4168 87.6389C60.5138 86.9479 65.6287 86.7129 70.7677 86.6929C70.6347 85.7109 70.5018 84.7289 70.3688 83.7469C69.1328 84.0659 67.8738 84.2639 66.6188 84.4969C64.7068 84.8529 65.5338 87.7029 67.4168 87.3899C69.3238 87.0729 71.1338 86.4999 73.1188 86.8899C72.7698 86.2749 72.4207 85.6599 72.0707 85.0449C70.9517 87.8709 62.8857 85.6439 61.0237 84.6489C60.7717 85.5809 60.5187 86.5119 60.2667 87.4439C61.3057 87.4129 62.3398 87.4789 63.3678 87.6399C65.2628 87.9489 66.0738 85.0589 64.1678 84.7459Z" fill="black"/>
</svg>
