<svg width="45" height="45" viewBox="0 0 45 45" fill="none" xmlns="http://www.w3.org/2000/svg">
<circle cx="22.5" cy="22.5" r="22.5" fill="#FF9358"/>
<g filter="url(#filter0_d)">
<path d="M22.3362 21.0792C23.8582 21.0792 25.1762 20.5333 26.2531 19.4562C27.33 18.3793 27.8759 17.0617 27.8759 15.5394C27.8759 14.0177 27.33 12.6999 26.253 11.6226C25.1759 10.5459 23.8581 10 22.3362 10C20.8139 10 19.4963 10.5459 18.4194 11.6228C17.3425 12.6997 16.7964 14.0175 16.7964 15.5394C16.7964 17.0617 17.3425 18.3795 18.4195 19.4564C19.4966 20.5331 20.8144 21.0792 22.3362 21.0792Z" fill="white"/>
<path d="M32.0292 27.6859C31.9982 27.2378 31.9353 26.7489 31.8429 26.2326C31.7495 25.7125 31.6293 25.2209 31.4854 24.7715C31.3368 24.307 31.1347 23.8483 30.8848 23.4087C30.6254 22.9525 30.3208 22.5552 29.979 22.2283C29.6215 21.8863 29.1839 21.6113 28.6778 21.4108C28.1735 21.2112 27.6146 21.1102 27.0168 21.1102C26.782 21.1102 26.5549 21.2065 26.1164 21.492C25.8465 21.668 25.5308 21.8716 25.1785 22.0967C24.8772 22.2887 24.469 22.4685 23.9649 22.6314C23.473 22.7905 22.9736 22.8712 22.4807 22.8712C21.9878 22.8712 21.4886 22.7905 20.9962 22.6314C20.4926 22.4687 20.0844 22.2888 19.7835 22.0969C19.4344 21.8738 19.1186 21.6703 18.8447 21.4918C18.4067 21.2063 18.1794 21.11 17.9446 21.11C17.3466 21.11 16.7879 21.2112 16.2838 21.4109C15.778 21.6111 15.3402 21.8861 14.9824 22.2285C14.6408 22.5556 14.336 22.9527 14.077 23.4087C13.8273 23.8483 13.6251 24.3068 13.4763 24.7716C13.3326 25.221 13.2124 25.7125 13.119 26.2326C13.0266 26.7482 12.9638 27.2372 12.9327 27.6865C12.9022 28.1266 12.8867 28.5833 12.8867 29.0446C12.8867 30.2452 13.2684 31.2172 14.021 31.934C14.7643 32.6414 15.7479 33.0002 16.9439 33.0002H28.0185C29.2146 33.0002 30.1978 32.6415 30.9413 31.934C31.6941 31.2177 32.0757 30.2456 32.0757 29.0445C32.0756 28.581 32.0599 28.1239 32.0292 27.6859Z" fill="white"/>
</g>
<defs>
<filter id="filter0_d" x="8.88672" y="10" width="27.189" height="31.0002" filterUnits="userSpaceOnUse" color-interpolation-filters="sRGB">
<feFlood flood-opacity="0" result="BackgroundImageFix"/>
<feColorMatrix in="SourceAlpha" type="matrix" values="0 0 0 0 0 0 0 0 0 0 0 0 0 0 0 0 0 0 127 0"/>
<feOffset dy="4"/>
<feGaussianBlur stdDeviation="2"/>
<feColorMatrix type="matrix" values="0 0 0 0 0 0 0 0 0 0 0 0 0 0 0 0 0 0 0.25 0"/>
<feBlend mode="normal" in2="BackgroundImageFix" result="effect1_dropShadow"/>
<feBlend mode="normal" in="SourceGraphic" in2="effect1_dropShadow" result="shape"/>
</filter>
</defs>
</svg>
