<svg width="113" height="113" viewBox="0 0 113 113" fill="none" xmlns="http://www.w3.org/2000/svg">
<circle cx="56.5" cy="56.5" r="56.5" fill="#FF9358"/>
<g clip-path="url(#clip0)" filter="url(#filter0_d)">
<path d="M91 68.0196C91 59.5813 86.1591 52.0504 78.9089 48.3872C78.6838 64.5664 65.5664 77.6838 49.3872 77.9089C53.0504 85.1591 60.5813 90 69.0196 90C72.6899 90 76.2664 89.0932 79.4634 87.3637C79.9416 87.1049 80.4999 87.0262 81.024 87.1712L87.5023 88.9631C89 89.3774 90.3774 88 89.9631 86.5023L88.1712 80.024C88.0262 79.4999 88.1049 78.9416 88.3637 78.4634C90.0932 75.2664 91 71.6899 91 68.0196Z" fill="white"/>
<path fill-rule="evenodd" clip-rule="evenodd" d="M48.9648 22C63.2821 22 74.9297 33.6476 74.9297 47.9648C74.9297 62.2821 63.2821 73.9297 48.9648 73.9297C44.5844 73.9297 40.3124 72.8351 36.5058 70.7498C36.0294 70.4888 35.4713 70.411 34.9478 70.5558L26.4971 72.8929C24.9994 73.3072 23.6221 71.9298 24.0364 70.4321L26.3738 61.982C26.5186 61.4584 26.4408 60.9002 26.1798 60.4238C24.0946 56.6172 23 52.3452 23 47.9648C23 33.6476 34.6476 22 48.9648 22ZM42 40.6682H41C39.8954 40.6682 38.978 39.7625 39.2119 38.683C40.1615 34.3007 44.1893 31 49 31C54.5143 31 59 35.3369 59 40.6682C59 43.3742 57.8151 45.9751 55.748 47.803L51.5 51.562V53.3318C51.5 54.4363 50.6046 55.3318 49.5 55.3318H48.5C47.3954 55.3318 46.5 54.4363 46.5 53.3318V49.4332L52.3724 44.2366C53.4219 43.3081 54 42.0411 54 40.6682C54 38.0026 51.7572 35.8341 49 35.8341C46.9561 35.8341 45.1948 37.0258 44.4204 38.7282C43.963 39.7336 43.1046 40.6682 42 40.6682ZM46.5 62.1659C46.5 61.0613 47.3954 60.1659 48.5 60.1659H49.5C50.6046 60.1659 51.5 61.0613 51.5 62.1659V63C51.5 64.1046 50.6046 65 49.5 65H48.5C47.3954 65 46.5 64.1046 46.5 63V62.1659Z" fill="white"/>
</g>
<defs>
<filter id="filter0_d" x="19" y="22" width="76" height="76" filterUnits="userSpaceOnUse" color-interpolation-filters="sRGB">
<feFlood flood-opacity="0" result="BackgroundImageFix"/>
<feColorMatrix in="SourceAlpha" type="matrix" values="0 0 0 0 0 0 0 0 0 0 0 0 0 0 0 0 0 0 127 0"/>
<feOffset dy="4"/>
<feGaussianBlur stdDeviation="2"/>
<feColorMatrix type="matrix" values="0 0 0 0 0 0 0 0 0 0 0 0 0 0 0 0 0 0 0.1 0"/>
<feBlend mode="normal" in2="BackgroundImageFix" result="effect1_dropShadow"/>
<feBlend mode="normal" in="SourceGraphic" in2="effect1_dropShadow" result="shape"/>
</filter>
<clipPath id="clip0">
<rect width="68" height="68" fill="white" transform="translate(23 22)"/>
</clipPath>
</defs>
</svg>
