<?xml version="1.0" encoding="utf-8"?>
<!-- Generator: Adobe Illustrator 23.0.1, SVG Export Plug-In . SVG Version: 6.00 Build 0)  -->
<svg version="1.1" id="Слой_1" xmlns="http://www.w3.org/2000/svg" xmlns:xlink="http://www.w3.org/1999/xlink" x="0px" y="0px"
	 viewBox="0 0 612 518" style="enable-background:new 0 0 612 518;" xml:space="preserve">
<style type="text/css">
	.st0{fill-rule:evenodd;clip-rule:evenodd;fill:#020608;}
	.st1{fill-rule:evenodd;clip-rule:evenodd;fill:#DB895E;}
	.st2{fill:#020608;}
	.st3{fill:#FFFFFF;}
</style>
<title>Монтажная область 1 копия</title>
<polygon class="st0" points="389.6,292 389.6,292 389.6,292 "/>
<path class="st1" d="M378.6,296.3c-0.8,4.7-4.4-0.2-5.6-1.9c-0.2-0.3-0.3-0.5-0.4-0.6s0.1,0.3,0.2,0.6c0.7,1.7,2.4,6.6,1.6,10.8
	c-0.9,4.6-6.3-4-6.6-4.4c0.8,3.7,0.8,7.6,0,11.3c-0.9,5.7-6.3-1.6-6.3-1.6s0.6,8.8-1.3,13.2c-1.6,4.4-6.6-2.5-6.6-2.5
	c-6.6,6.6-27.1,19.5-34.6,21.4h-1c-5.7-0.3-11-7.9-12-7.6h-0.6c-0.9-0.3-6.3,7.2-12,7.6h-1.3c-7.9-1.9-26.8-13.2-34.3-21.4
	c0,0-5,6.9-6.9,2.5c-1.6-4.4-0.9-13.2-0.9-13.2s-5.4,7.2-6.3,1.6c-0.7-3.7-0.7-7.6,0-11.3c-0.3,0.4-5.7,9-6.6,4.4
	c-0.9-4.9,1.7-11,1.9-11.3c-0.2,0.4-5.1,8-6,2.5c-0.2-1.3-0.3-2.5-0.2-3.8l-7.3,1.3l-2,0.4l-1.4,0.3v-0.3h-0.1v0.6
	c0.3,2.1,0.7,4.2,1.3,6.3l1.9-4.1c-0.1,0.5-1.3,8.6-0.9,13.5c0.4,2.8,0.6,5.7,0.7,8.6l4.4-5c-1.4,4.9-2,9.9-1.9,15
	c0,7.9,1.6,12,1.6,12l4.1-6c0,0-3.5,8.2-3.8,14.8c-0.2,3.7-0.1,7.3,0.3,11l4.7-4.4c0,0,0,8.2,1.6,13.9c1,3.7,2.3,7.3,3.8,10.8
	l3.5-5.4c0,0,2.8,9.5,7.9,14.2s13.9,8.5,13.9,8.5l-1-5.3c3.3,2.9,6.8,5.7,10.4,8.2c6.3,4.4,9.1,5,9.1,5l-1.3-4.4
	c0,0,3.1,2.5,10.4,7.9c7.6,5.4,12.9,8.5,12.9,8.5l0.3-0.6l0.3,0.6c0,0,5.4-3.1,12.9-8.5c7.2-5.4,10.4-7.9,10.4-7.9l-1.3,4.4
	c0,0,2.8-0.6,9.1-5c3.6-2.5,7-5.2,10.1-8.2l-0.6,5.4c0,0,8.8-3.8,13.9-8.5s7.9-14.2,7.9-14.2l3.4,5.3c0,0,1.9-5,3.8-10.7
	c1.6-5.7,1.6-13.9,1.6-13.9l4.7,4.4c0.4-3.6,0.5-7.3,0.3-11c-0.3-6.6-3.8-14.8-3.8-14.8l3.8,6c0,0,1.6-4.1,1.9-12
	c0.1-5.1-0.5-10.2-1.9-15.1l4.4,5c0-2.8,0.3-5.7,0.6-8.5c0.3-4.9-0.9-13.1-0.9-13.5l1.9,4.1c0.5-2.1,0.8-4.2,0.9-6.3
	c0-0.1,0-0.2,0-0.4h-10.5C378.8,295,378.8,295.6,378.6,296.3z"/>
<path class="st1" d="M401.3,133.2c-1.3-12.6-17.3-15.8-17.3-15.8s14.2,8.2,8.8,22.4s-16.7,5-24.9-7.9s-24.6-26.5-68-31.5
	s-63.6,26.1-63.6,26.1s1.6,12.9-8.2,9.8c-9.2-3.3-9.4-7.9-9.4-8.5c-0.1,1.3-1,26.4,22.4,25.2c0,0-20.2,15.7-22.7,22.7
	c-2.8,6.9,7.6,9.4,8.8,22c1.6,12.6,3.5,18.6,3.5,18.6l2.5-8.8l0.3-28l25.8-19.5c0,0,22,9.4,42.5,7.2c20.5-2.5,15.4-12.9,34.6-5.7
	c13.5,5,18.9,9.4,28.3,9.1c2.5,4.4,6,10.1,7.9,12.3c2.1,2.3,4.2,15.9,5.4,24.6h2.2c1.4-8.4,3.8-21.2,5.7-24.9c2.2-4.1-2.8-11-6-14.8
	l0.9-0.3C402.9,160.2,402.6,145.8,401.3,133.2z"/>
<path class="st1" d="M305.6,305.4c1,2.2,3.2,3.4,5.7,4.1c6.7,2,13.7,3.1,20.8,3.1c5.5-0.1,10.9-1.5,15.8-4.1c0,0-0.6-2.5-10.1-3.5
	c-9.1-0.9-10.7-3.5-16.7-5.4c-5.7-2.2-14.8,0-14.8,0c-0.3,0-0.6,0.3-0.6,0.6c-0.3-0.3-0.3-0.6-0.6-0.6c0,0-9.1-2.2-15.1,0
	c-5.7,1.9-7.6,4.4-16.7,5.4s-10.1,3.5-10.1,3.5c5,2.6,10.5,4,16.1,4.1c6.9-0.1,13.8-1.1,20.5-3.1
	C302.4,308.8,304.3,307.6,305.6,305.4z"/>
<polygon class="st2" points="225.7,293.7 225.7,294.1 223.7,294.1 "/>
<path class="st3" d="M282.4,207.9c-0.8,0.2-1.2,0.4-1.1,0.7c0,0.4,0.3,0.7,0.7,0.7c0,0,0,0,0,0c0.9,0,2.1-0.8,3.5-2.2
	c1.5,0.3,3.1,0.5,4.6,0.6c1.1,0,2.1-0.2,3.1-0.6c2.1-0.7,4-2,5.5-3.6c1.5-1.6,2.3-3.8,2.2-6c-0.1-2.5-1.8-4.1-4.9-4.8
	c2.8-1.8,4.2-3.9,4.2-6.4c0-1.3-0.5-2.6-1.4-3.6c-1.1-1.2-2.6-2.1-4.2-2.5c0.4-0.5,0.9-0.8,1.5-1.1l1.9-0.5c0.4-0.1,0.6-0.4,0.6-0.7
	c0-0.3-0.3-0.4-0.9-0.4c-0.8,0.1-1.6,0.4-2.2,0.9c-0.6,0.5-1.2,1-1.7,1.5c-1.7-0.3-3.4-0.5-5.1-0.6c-2.4,0.1-4.7,0.5-6.9,1.4
	c-1.9,0.7-3.6,1.7-5.1,3.1c-1.6,1.3-2.8,2.9-3.6,4.8c-0.7,1.6-1.1,3.4-1.1,5.2c-0.1,1.9,0.6,3.8,2,5.1c1.3,1.2,3,1.8,4.7,1.8
	c0.6,0,1.2-0.1,1.8-0.2c0.6-0.1,1-0.2,1.3-0.2c0.5,0.9,1.2,1.6,2,2.3c-0.3,0.7-0.8,1.4-1.3,2c-0.6-0.1-1.3-0.3-1.9-0.5
	c-1.1-0.4-2.2-0.6-3.3-0.7c-1.3-0.1-2.7,0.1-4,0.6c-1.2,0.5-1.8,1.2-1.9,2c0,0.4,0.4,0.9,1.5,1.3c1.2,0.4,2.4,0.6,3.6,0.6
	c1.8,0,3.6-0.4,5.1-1.3c0.1-0.1,0.2-0.1,0.4-0.1c0.8,0,1.6,0.2,2.4,0.5C283.8,207.4,283.1,207.8,282.4,207.9z M276,206.5
	c-1.8,0-2.7-0.3-2.7-0.9c0-0.4,0.6-0.6,1.8-0.6c1.8-0.1,3.5,0.2,5.2,0.8C278.9,206.3,277.5,206.5,276,206.5z M296.6,195
	c0.5,0.5,0.9,1.1,1.2,1.7c0.2,0.7,0.4,1.5,0.4,2.3c0.1,1.8-0.6,3.6-1.9,5c-1.2,1.4-3.1,2.2-5,2.2c-1.7,0-3.3-0.3-4.9-0.7
	c0.5-0.7,0.9-1.4,1.3-2.2c1.2,0,2.4-0.3,3.5-1c1.8-1.3,2.6-2.2,2.6-2.8c0-0.2-0.1-0.5-0.3-0.6c-0.2-0.2-0.4-0.3-0.6-0.3
	c-0.3,0-0.6,0.3-0.9,0.9c-0.3,0.6-0.6,1.2-1,1.7c-0.5,0.6-1.3,0.9-2.1,0.9c-0.2,0-0.5,0-0.7,0c0.5-1.3,0.9-2.2,1.2-2.9
	c0.5-2.1,0.9-3.7,1.1-4.8c0.4,0,0.7,0.1,1,0.1c0.4,0,0.8-0.1,1.2-0.2l1.2-0.5C294.9,193.9,295.9,194.3,296.6,195z M290.5,193.5
	c0-0.1,0.4-0.2,1.2-0.2c0.3,0,0.7,0,1,0.1c-0.4,0.2-0.8,0.4-1.3,0.4c-0.3,0-0.5-0.1-0.8-0.2C290.6,193.7,290.5,193.6,290.5,193.5
	L290.5,193.5z M297.6,187.3c0.2,2.2-1,4.3-3,5.3c-1.1-0.3-2.3-0.4-3.5-0.1c0.9-3.1,1.7-5.2,2.6-6.2c0.3-0.2,0.6-0.4,1-0.6
	c0.4-0.3,0.7-0.5,0.7-0.8c0-0.5-0.2-0.8-0.6-0.8s-1,0.4-1.6,1.3c-0.4,0.6-0.8,1.2-1.1,1.9c-0.8,1.7-1.4,3.5-2,5.3
	c-0.2,0.3-0.4,0.7-0.7,0.9l0.3,0.7c-0.6,2.7-1.4,5.3-2.4,7.9c-0.6-0.1-1.1-0.3-1.5-0.4c0.9-1.2,2-4.3,3.5-9.3
	c1.4-5.1,2.9-8.8,4.3-10.9C296.1,182.7,297.5,184.7,297.6,187.3L297.6,187.3z M282.1,197.2c0-0.8,0.1-1.5,0.3-2.2
	c0.3-0.7,0.6-1,1.1-0.9c0.3,0.1,0.4,0.3,0.4,0.8c0,0.7-0.3,1.3-0.6,1.9c-0.3,0.6-0.7,1.2-1.1,1.6C282.2,198,282.1,197.6,282.1,197.2
	L282.1,197.2z M283.2,200c-0.1-0.2-0.3-0.4-0.4-0.7c0.5-0.4,1-1,1.2-1.7c0.4-0.9,0.7-1.8,0.8-2.8c0.1-0.4,0.1-0.8,0.1-1.3
	c0-1-0.2-1.5-0.7-1.6c-1-0.1-1.8,0.5-2.4,2c-0.4,1.3-0.6,2.6-0.6,3.9v1.1c-0.5,0.3-1.1,0.4-1.7,0.4c-1.1,0-2.2-0.5-3-1.3
	c-0.9-0.8-1.4-1.9-1.6-3.1c0-0.4-0.1-0.8-0.1-1.3c0.1-3.1,1.3-6.2,3.3-8.5c2.3-2.8,5-4.4,7.9-4.6c1.5-0.1,2.5-0.2,3.2-0.2
	c0.5,0,1,0.1,1.5,0.2c1,0.3,1.6,0.4,1.6,0.4c-2.1,1.6-4,5-5.6,10.4c-0.8,3.2-1.7,6.4-2.5,9.6C283.8,200.7,283.4,200.4,283.2,200
	L283.2,200z M283.4,204.8c0.5-0.3,0.9-0.7,1.3-1.2c0.2-0.2,0.3-0.5,0.5-0.8c0.5,0.2,1,0.3,1.5,0.4c-0.3,0.8-0.7,1.5-1.1,2.2
	C284.8,205.3,284.1,205.1,283.4,204.8L283.4,204.8z"/>
<path class="st3" d="M311.4,197.6c1.1-0.8,1.8-2,1.9-3.3c0-1-0.7-1.8-1.7-1.9c0,0,0,0,0,0c-2.1-0.3-4.1,0.8-6.1,3.3
	c-1.7,2.1-2.7,4.7-2.7,7.4c-0.1,1.4,0.4,2.7,1.3,3.7c0.6,0.5,1.3,0.8,2.1,0.8c1.4,0,2.7-0.5,3.9-1.2c1.2-0.7,2.2-1.7,2.8-3
	c0.2-0.4,0.3-0.8,0.3-1.2c0-0.7-0.2-1.1-0.6-1.1c-0.2,0-0.5,0.3-0.7,0.8c-0.4,1.1-1,2.1-1.7,2.9c-0.7,0.9-1.7,1.4-2.8,1.5
	c-0.4,0-0.8-0.1-1.2-0.3c-0.8-0.4-1.1-1.4-1.1-3c0-1,0.2-2.1,0.6-3C307.7,199.8,309.7,198.9,311.4,197.6z M307.4,195.3
	c0.5-0.8,1.3-1.3,2.3-1.4c0.9,0,1.4,0.4,1.4,1.2c-0.1,0.9-0.5,1.7-1.2,2.3c-0.8,0.8-2,1.3-3.1,1.3c-0.2,0-0.5,0-0.7-0.1
	C306.2,197.5,306.7,196.3,307.4,195.3L307.4,195.3z"/>
<path class="st3" d="M324.4,194.5c0-0.6-0.4-1.2-0.9-1.5c-0.6-0.4-1.3-0.7-2-0.7c-2.5,0.2-4.4,2.1-4.6,4.6c0,0.5,0.1,1,0.3,1.5
	c0.7,0.9,1.5,1.8,2.4,2.5c1,0.6,1.6,1.7,1.8,2.9c0,0.4-0.1,0.9-0.3,1.3c-0.3,0.8-1.1,1.3-2,1.3c-0.8,0-1.7-0.3-2.3-0.9
	c-0.7-0.5-1.1-1.2-1.1-2.1c0-0.2,0-0.4,0.1-0.6c-1,0.2-1.6,1.1-1.5,2.1c-0.1,0.8,0.2,1.6,0.9,2.1c0.8,0.4,1.7,0.7,2.6,0.7
	c1.4,0,2.7-0.5,3.7-1.3c1-0.8,1.7-2.1,1.7-3.4c0-1.1-0.4-2.1-1.1-2.9c-0.1-0.1-0.8-0.9-2.2-2.2c-0.6-0.5-1.1-1.2-1.2-2.1
	c0.1-0.7,0.4-1.3,1-1.7c0.2-0.2,0.6-0.3,0.9-0.3c0.7,0.1,1.3,0.5,1.6,1.1c0.4,0.5,0.5,1,0.5,1.6
	C323.9,195.9,324.4,195.2,324.4,194.5z"/>
<path class="st3" d="M327.6,193.1c-0.2,0.2-0.3,0.4-0.4,0.6c-0.2,0.4,0.4,0.5,2,0.5c0,0.2-0.6,2.1-1.6,5.5c-0.6,1.8-1,3.7-1.2,5.6
	c-0.1,0.7,0.1,1.4,0.6,1.9c0.4,0.3,0.8,0.4,1.3,0.4c1,0,1.9-0.3,2.8-0.9c0.9-0.6,1.7-1.3,2.3-2.3l-0.4-1c-1.1,1.7-2.1,2.6-3.1,2.6
	c-0.7,0-1.1-0.4-1.1-1.3c0-1.5,0.9-5,2.6-10.5c1.1,0.1,2.1-0.1,3.1-0.3c0.8-0.3,1.4-1,1.5-1.8c-0.5,0.4-1.9,0.6-4.2,0.6
	c0.5-1.7,0.9-3,1.2-3.9c-0.9,0.2-1.7,0.4-2.2,0.4c-0.8,2.2-1.1,3.3-1.2,3.4C328.9,192.4,328.2,192.6,327.6,193.1z"/>
<path class="st3" d="M209.6,214.3h-16.8V245h-3.1l-1.9,10.2h5V286h16.1c0.3,0,0.5,0,0.7,0c9.7,0,14.5-5,14.5-15v-10.9
	c0.1-2.7-0.8-5.3-2.5-7.4c-1-1.1-2.1-1.9-3.5-2.6c4-2,6-5.3,6-10v-10.8C224.1,219.3,219.2,214.3,209.6,214.3z M213.2,270.9l-4.7,4.9
	h-4.8v-20.5h3.4l6.1,4.9L213.2,270.9z M213.2,240.1l-6.1,4.9h-3.4v-20.5h4.8l4.7,4.9V240.1z"/>
<path class="st3" d="M240.6,283.2l2-12.4h11.1l2.1,13.3l10.2,1.8l0.7,0.1l-3.5-25.5l-7.6-46.3h-14.9l-4.6,27.8l-3.1,18.4h-3.2
	l-1.9,10.3h3.7l-0.7,5.1l-1.1,7.6l-0.4,2.5h0.1l0.6-0.1l10.2-1.8L240.6,283.2z M247,239h2.3l3,21.5H244L247,239z"/>
<path class="st3" d="M295.3,252.6c5.7-2,8.5-6.2,8.5-12.5v-10.8c0-10-4.8-15.1-14.5-15.1h-15.8V245h-3.1l-1.9,9.6h5V286l10.9-2
	v-29.4l1.4-0.2l9.8,29.6l9.9,1.6l2,0.3L296.9,257L295.3,252.6z M293,240.1l-3,4.6c-1,0.2-2.1,0.3-3.1,0.3h-2.5v-20.5h3.8l4.7,4.9
	L293,240.1z"/>
<path class="st3" d="M330.5,214.3h-16.8V245h-3.1l-1.9,10.2h5V286h16.1c0.3,0,0.5,0,0.7,0c9.7,0,14.5-5,14.5-15v-10.9
	c0.1-2.7-0.8-5.3-2.5-7.4c-1-1.1-2.1-2-3.5-2.6c4-2,6-5.3,6-10v-10.8C345,219.3,340.2,214.3,330.5,214.3z M334.1,270.9l-4.7,4.9
	h-4.8v-20.5h3.4l6.1,4.9L334.1,270.9z M334.1,240.1l-6.1,4.9h-3.4v-20.5h4.8l4.7,4.9L334.1,240.1z"/>
<polygon class="st3" points="380.3,224.5 381.2,219.4 382.2,214.2 354,214.2 354,245 350.9,245 348.9,255.2 354,255.2 354,286 
	382.2,286 381.7,283.5 380.3,275.7 364.9,275.7 364.9,255.2 375.9,255.2 376.9,250.1 377,249.4 377.8,245 364.9,245 364.9,224.5 "/>
<path class="st3" d="M413.8,257.1l-1.6-4.5c5.7-2,8.5-6.2,8.5-12.5v-10.8c0-10-4.8-15.1-14.5-15.1h-15.8V245h-3.1l-1.9,9.6h5V286
	l10.9-2v-29.4l1.4-0.2l9.8,29.6l9.9,1.6l2,0.3L413.8,257.1z M409.8,240.1l-3,4.6c-1,0.2-2.1,0.3-3.1,0.3h-2.5v-20.5h3.9l4.7,4.9
	L409.8,240.1z"/>
<path class="st3" d="M262.8,366.6c0,0-0.2,2.6-1.9,2.7s6.7,12.4,6.7,12.4S262.2,370.2,262.8,366.6z"/>
<path class="st3" d="M364.1,335.9c0,1.5-0.9,1.4-0.9,3.2s2.1,2,4.5,9.1s1.5,11.3,1.5,11.3s1.4-2,1.4-7.6c0-10.2-8.3-21.9-8.3-24.6
	c-0.2,1-0.1,2,0.2,3C362.9,332.1,364.1,335.2,364.1,335.9z"/>
<path class="st3" d="M371.4,327.3c0,0-1.1,0.8-1.1,3.3c0,0.8,0.2,1.5,0.3,2.2c-0.8-0.4-1.6-0.9-2.2-1.6c0,3.2,2,6.5,3.6,8.9
	c4.4,6.5,3.4,14.6,3.4,14.6c2-5.7,1.7-11.9-0.7-17.4C372.9,333.4,371.4,333.3,371.4,327.3z"/>
<path class="st3" d="M298.8,368.8c-2.3,0-2.3,17.2,2.5,30.9l0.7,0.5c0.1,0.1,0.3,0.2,0.4,0.3c-1.5-6.9-2.2-13.9-2.3-21
	C300.1,372.3,300,368.8,298.8,368.8z"/>
<path class="st3" d="M307.5,366.5c-2,0-4,4.4-2,10.4c0,0,0.3-4.7,3.2-7.7c0.6-0.6,0.6-1.6,0-2.3
	C308.4,366.7,307.9,366.5,307.5,366.5z"/>
<path class="st3" d="M287.5,358.7c-1.6,0-3.5,2-3.5,2c0-2.8-2.1-3.1-2.1-3.1c2.3,2.3-1.9,4.1-1.9,11.8s2.8,11.9,2.8,11.9
	c0-10.6,3.9-20.5,6.4-21.7C289.1,359.6,289.1,358.7,287.5,358.7z"/>
<path class="st3" d="M314,350.2c-2.5,0-6,4.6-4.9,10.2c0,0,0.9-6.7,3.5-8S315.1,350.2,314,350.2z"/>
<path class="st3" d="M333.7,372.6c0-11.3-4-16.3-5.1-16.3c0,0,0.4,3.6,1.1,10.6c1.1,10.3-0.9,25.6-1.5,29.7l1.8-1.4
	c4.3-6.5,2.3-14.2,2.3-14.2c0.9,0.1,1.7,0.6,2.1,1.4c0-4.9-2.6-12.5-2.6-12.5C333,369.9,333.7,372.6,333.7,372.6z"/>
<path class="st3" d="M264.9,339c0-1.8-0.9-1.7-0.9-3.3c0-0.7,1.2-3.9,1.6-5.8c0.3-1,0.4-2,0.2-3.1c0,2.8-8.5,14.7-8.5,25.2
	c0,5.8,1.4,7.8,1.4,7.8s-0.8-4.3,1.6-11.6S264.9,340.8,264.9,339z"/>
<path class="st3" d="M314,389.2c0,0-2.6,12.2,0,14.8c0.9,0.9,2.1-1.6,2.1-3.1S313.9,398.3,314,389.2z"/>
<path class="st3" d="M276.5,348.7c-0.5-0.5-0.8-1.3-0.6-2.1c0,0-1,1.4-1.8,1.4c-0.6,0-0.4-3.9-0.4-3.9c-1.1-0.2-1.6,2.9-1.9,4.8
	s-2,2.9-2.6,6.7s1.6,7.4,1.1,10.8c0.8-1.1,1.4-2.5,1.5-3.9c0.3-1.9-0.4-4-0.2-5.3c0.7-4.6,6.4-5.2,7.2-10.7
	C278.2,347.4,277.4,348.1,276.5,348.7z"/>
<path class="st3" d="M257.3,336.6c1.5-2.1,3.3-5.2,3.3-8.1c-0.6,0.6-1.2,1.1-2,1.4c0.2-0.7,0.3-1.3,0.3-2c0-2.3-1-3-1-3
	c0,5.5-1.4,5.6-3.1,9.2c-2.2,5-2.4,10.7-0.6,15.9C254.2,350,253.2,342.6,257.3,336.6z"/>
<path class="st3" d="M274.3,374c-0.8,0.3,1,7.2,4,11.2c0,0-1.8-4.1-2.8-7C275,376.7,275,373.8,274.3,374z"/>
<path class="st3" d="M264.8,360c0.1-2.5,0.3-5,0.7-7.5c0.3-1.5,1.9-4.1,0.9-4.2S263.5,355,264.8,360z"/>
<path class="st3" d="M364.4,351.8c-0.9,0.2,0.7,2.7,0.9,4.2c0.4,2.5,0.6,5,0.7,7.5C367.3,358.5,365.4,351.6,364.4,351.8z"/>
<path class="st3" d="M284.6,384.5c0,7.2,3.3,8.4,3.3,8.4c-0.5-2.4-0.9-4.8-1.2-7.3c-0.3-3.5,1.2-18.7,1.2-18.7
	S284.6,377.3,284.6,384.5z"/>
<path class="st3" d="M346.7,355.1c0,0-2.6,0.4-2.6,3.8c0,0-2.3-2.5-4.3-2.5s-2,1.1-2,1.1c3,1.5,7.7,13.5,7.7,26.3
	c0,0,3.4-5.1,3.4-14.4S344,357.9,346.7,355.1z"/>
<path class="st3" d="M362,357.6c-1,0,0.2,2.8,0.2,4.3c-0.1,2.5-0.3,5-0.6,7.5C363.8,364.8,363.1,357.6,362,357.6z"/>
<path class="st3" d="M341.3,385.6c-0.2,2.5-0.6,4.9-1.2,7.3c0,0,3.3-1.2,3.3-8.4s-3.3-17.6-3.3-17.6S341.6,382.1,341.3,385.6z"/>
<path class="st3" d="M356,346.9c0,0-0.4,3.7-1,3.6c-0.8-0.2-1.5-1.6-1.5-1.6c0,0.7-0.3,1.4-0.9,1.9c-0.7-0.7-1.4-1.5-1.9-2.4
	c0,5.3,5.2,6.7,5.2,11.1c0,1.2-0.9,3.1-0.9,4.9c0,1.3,0.2,2.7,0.9,3.9c0-3.3,2.6-6.2,2.6-9.9s-1.5-4.9-1.5-6.7
	S357.1,346.9,356,346.9z"/>
<path class="st3" d="M303,301.6c0,0-5.1,1.2-9,2.2s-21.8,1-21.8,1c6.9,2,14.2,2.2,21.2,0.6C301.5,303.7,303,301.6,303,301.6z"/>
<path class="st3" d="M335.1,306.1c0,0-15.9-2-19.8-3s-7.8-2.1-7.8-2.1s0,1.9,8.3,3.9C322.2,306.2,328.7,306.6,335.1,306.1z"/>
<path class="st3" d="M256.4,370.9c0,0-0.3,12,12.2,18.7c0,0-6.8-8.6-8.2-10.8S256.4,370.9,256.4,370.9z"/>
<path class="st3" d="M360.9,390.7c10.1-4.4,10.6-13.8,10.6-13.8s-2.4,4.3-3.6,5.9S360.9,390.7,360.9,390.7z"/>
<path class="st3" d="M246.8,352.3c-2.2-0.8,2.1,19.5,2.1,19.5s-0.9-17.5,1.8-22C250.7,349.8,249,353.1,246.8,352.3z"/>
<path class="st3" d="M382.9,336.1c-1.3,1.1-3.2-0.7-3.2-0.7c2.9,2.3,6.7,14.3,6.7,14.3S384.2,335,382.9,336.1z"/>
<path class="st3" d="M248.6,316.6c0,0-2.1,1.6-3.3,0.5s-4.4,13.4-4.4,13.4S245.5,318.7,248.6,316.6z"/>
<path class="st3" d="M247.6,337.2c0,0-5.6,0-5.6,14.8C242,352,244.1,339.3,247.6,337.2z"/>
<path class="st3" d="M381.8,357.7c-1.4-1.4,1.3,7-0.2,14c0,0,2.9-11.1,2.3-16C383.9,355.6,383.2,359.1,381.8,357.7z"/>
<path class="st3" d="M369.4,369.9c0,0-3.4-1.8-3.4,0.8c-0.1,5.5-4,12.3-4,12.3C366,378.2,369.4,369.9,369.4,369.9z"/>
<path class="st3" d="M385.1,316.8c4.7,6.2,6.1,17.2,6.1,17.2c0.4-8.9-3-21-3-21S382.9,314,385.1,316.8z"/>
<path class="st3" d="M315.6,134.9c1.6,0.8,1.9-0.1,3.3,0.6c0.6,0.3,2.9,2.7,4.4,3.9c0.7,0.7,1.6,1.2,2.6,1.5
	c-2.4-1.2-9.3-13.7-18.6-18.1c-5.1-2.4-7.5-2-7.5-2s4.1,1.1,9.5,6.3C314.7,132.1,314,134.1,315.6,134.9z"/>
<path class="st3" d="M277.8,155.7c0.5-0.9-1.5-5.9-9.9-10.8c0,0,1.7,1.7,1.3,2.5c0,0-4.5-5.2-8.1-7.3c0.3,0.7,0.4,1.5,0.1,2.2
	c0,0-4.8-4.8-11.5-4.4l-1.8,0.8c3.3,1.3,15.5,6.5,22.7,11.7C275.3,153.9,277.8,155.7,277.8,155.7z"/>
<path class="st3" d="M307.5,133.3c0.6-0.8-4.8-5.6-9.9-6.6c2.2,1.2,4.4,2.5,6.5,3.9C305.4,131.5,306.9,134,307.5,133.3z"/>
<path class="st3" d="M267.7,131.3c11.6,5.6,20.4,15,20.4,18.4c0,0,1.1,0.4,1.9-1.3s-0.4-4.9-0.4-4.9c3.1,1.5,4.5-0.7,4.5-0.7
	c-3.7,1.3-3.6-4.2-11.9-8.3S267.7,131.3,267.7,131.3z"/>
<path class="st3" d="M283.5,128.6c0.2-1-6.7-3.1-11.7-1.9c2.5,0.2,5,0.5,7.5,0.9C280.8,127.9,283.3,129.6,283.5,128.6z"/>
<path class="st3" d="M257.1,132.4c2.4,0.6,4.8,1.3,7.1,2.1c3.3,1.3,16.3,9.1,16.3,9.1s-8-7.5-14.5-10.6S257.1,132.4,257.1,132.4z"/>
<path class="st3" d="M306.4,141.3c0.6-0.9-1.9-2.5-3.4-3.4s-1.7-2.9-4.8-4.9s-7-1.4-9.8-3.1c0.7,1.2,1.6,2.1,2.8,2.8
	c1.6,1,3.6,1.2,4.7,1.9c3.7,2.4,2.1,7.5,6.5,10.3c-0.5-0.9-0.8-1.8-1-2.8c0.7-0.2,1.4-0.1,2,0.3c0,0-0.8-1.4-0.5-2.1
	C303,139.5,306.4,141.3,306.4,141.3z"/>
<path class="st3" d="M284.3,107.8c-0.7-1.1,5.6-5.2,7.4-5.6c-11,0.1-16,2.9-23.6,7c-7.5,4.1-19.8,16.9-19.8,16.9
	c12.7-12,20.5-13.4,20.5-13.4C266,107.1,284.7,108.4,284.3,107.8z"/>
<path class="st3" d="M291.7,102.2h0.4C292,102.1,291.9,102.1,291.7,102.2z"/>
<path class="st3" d="M331.9,140.4c0.9-5.1,10.3,3.4,10.3,3.4s-12-21.5-28.4-27.5l-11.2-4.3C307,115.5,328.5,126.6,331.9,140.4z"/>
</svg>
