<?xml version="1.0" encoding="utf-8"?>
<!-- Generator: Adobe Illustrator 23.0.1, SVG Export Plug-In . SVG Version: 6.00 Build 0)  -->
<svg version="1.1" id="Слой_1" xmlns="http://www.w3.org/2000/svg" xmlns:xlink="http://www.w3.org/1999/xlink" x="0px" y="0px"
	 viewBox="0 0 612 518" style="enable-background:new 0 0 612 518;" xml:space="preserve">
<style type="text/css">
	.st0{fill:#FBFFFD;}
</style>
<path class="st0" d="M148.7,223.7c49.1-35.5,98-70.9,147.4-106.7c49.1,35.5,98.2,71.1,147.2,106.6C425,280,406.8,335.9,388.8,392
	c-1.2,3.9-3.1,4.9-6.9,4.9c-57.1-0.1-114.1-0.1-171.2,0c-4.4,0-6.4-1.2-7.8-5.5c-16.7-51.8-33.6-103.5-50.4-155.3
	C151.2,232.3,150.1,228.3,148.7,223.7z M296.1,384.7C296.1,384.7,296.1,384.7,296.1,384.7c25.5,0,51-0.1,76.5,0.2
	c4.5,0,6.4-1.4,7.8-5.6c15.8-48.9,31.7-97.8,47.7-146.7c1.1-3.3,0.9-5.3-2.2-7.5c-41.9-30.2-83.6-60.6-125.3-91.1
	c-3.3-2.4-5.5-2.4-8.9,0c-41.5,30.4-83.1,60.6-124.8,90.7c-3.6,2.6-3.7,4.8-2.4,8.6c15.9,48.6,31.7,97.3,47.4,146.1
	c1.4,4.4,3.5,5.5,7.8,5.5C245.1,384.6,270.6,384.7,296.1,384.7z"/>
<path class="st0" d="M386.1,330.3c-7.7-13.6-14.7-26-21.7-38.3c-1.5-2.6-2.9-5.3-4.4-7.9c-4.1-7.1-7-14.3-8.5-22.6
	c-4.2-24-19.1-39.1-42.6-45.3c-4.2-1.1-5.7-2.7-5.4-6.9c0.3-5.4,0.1-10.7,0.1-16.8c19.4,1.7,35.1,9.8,49,22.8
	c3.4-3.7,6.4-7,9.5-10.3c-31.7-36-97.4-38.3-131.9,0c3.2,3.2,6.4,6.3,9.9,9.8c13.4-12.4,29-20.4,48.6-22.4c0,6.8,0.2,13.4-0.2,20
	c-0.1,1.2-2.7,2.9-4.4,3.4c-10.4,2.8-19.8,7.1-27.6,15.4c3.6,3.2,6.9,6.1,10.2,9c6.3-3.3,13.4-7,21.6-11.2c0,13.3,0,24.8,0,37.2
	c-11.8-6.8-23.1-13.2-35.2-20.2c-7.9,14.7-15.4,29-23,43.2c-7.5,14-15.1,28-23.4,43.6c-2.6-8.1-4.8-14.8-7-21.4
	c-8.1-25.1-16.2-50.1-24.5-75.2c-1.2-3.7-0.8-5.7,2.5-8c38-27.4,75.9-55,113.8-82.6c3.2-2.4,5.4-2.7,9-0.2
	c37.6,27.6,75.4,55,113.3,82.3c3.9,2.8,4.5,5.1,3,9.5C406.5,267.5,396.6,298.1,386.1,330.3z"/>
<path class="st0" d="M259,266.2c9.3,5.3,17.9,10.2,26.4,15.3c1.5,0.9,3,3.2,3.1,5c0.3,8.2,0.1,16.4,0.1,26.9
	c-8.3-4.2-15.4-7.7-23.6-11.9c-2,2.6-4.8,6.3-7.9,10.4c7.9,8.4,18.8,13.1,31.2,15.4c0,15.7,0,31.1,0,47.2c-1.6,0.2-3.3,0.5-4.9,0.5
	c-19,0-38-0.1-57.1,0.1c-4.4,0.1-6.4-1.2-7.9-5.5c-5.7-17.4-5.9-17.4,2.8-33.5c11.5-21.5,23-43,34.6-64.5
	C256.7,270,257.7,268.4,259,266.2z"/>
<path class="st0" d="M303.9,375.1c-0.1-2.7-0.3-4.6-0.3-6.5c0-13.6,0-27.2,0-41.1c20.4-3.8,35.1-14.6,44.6-34
	c7.1,12.6,13.7,24.3,20.3,36c0.6,1.1,1.2,2.3,1.8,3.4c10.2,18.4,10.2,18.4,2.5,38c-0.7,1.7-3.1,3.9-4.7,3.9
	C347,375.2,325.8,375.1,303.9,375.1z"/>
<path class="st0" d="M337,264c3.3,23.7-12.4,45.7-33.5,47.5c0-8.6-0.1-17.2,0.1-25.8c0-1.2,1-3,2.1-3.6
	C315.9,276.1,326.1,270.3,337,264z"/>
<path class="st0" d="M331.9,250c-9.3,5.4-18.2,10.5-27.8,16.1c0-12.3,0-23.8,0-35.9C316,232.9,325.2,238.9,331.9,250z"/>
<image style="overflow:visible;" width="594" height="208" xlink:href="342ED164.jpg"  transform="matrix(1 0 0 1 1514 597.8898)">
</image>
</svg>
