<?xml version="1.0" encoding="utf-8"?>
<!-- Generator: Adobe Illustrator 23.0.2, SVG Export Plug-In . SVG Version: 6.00 Build 0)  -->
<svg version="1.1" id="Слой_1" xmlns="http://www.w3.org/2000/svg" xmlns:xlink="http://www.w3.org/1999/xlink" x="0px" y="0px"
	 viewBox="0 0 603.9 499.5" style="enable-background:new 0 0 603.9 499.5;" xml:space="preserve">
<style type="text/css">
	.st0{fill-rule:evenodd;clip-rule:evenodd;fill:#FFFFFF;}
	.st1{fill-rule:evenodd;clip-rule:evenodd;fill:url(#SVGID_1_);}
	.st2{fill-rule:evenodd;clip-rule:evenodd;fill:url(#SVGID_2_);}
	.st3{fill-rule:evenodd;clip-rule:evenodd;fill:url(#SVGID_3_);}
	.st4{fill-rule:evenodd;clip-rule:evenodd;fill:url(#SVGID_4_);}
	.st5{fill-rule:evenodd;clip-rule:evenodd;fill:url(#SVGID_5_);}
	.st6{fill-rule:evenodd;clip-rule:evenodd;fill:url(#SVGID_6_);}
	.st7{fill-rule:evenodd;clip-rule:evenodd;fill:#966CA1;}
	.st8{fill-rule:evenodd;clip-rule:evenodd;fill:url(#SVGID_7_);}
	.st9{fill-rule:evenodd;clip-rule:evenodd;fill:url(#SVGID_8_);}
	.st10{fill-rule:evenodd;clip-rule:evenodd;fill:#65548D;}
	.st11{fill-rule:evenodd;clip-rule:evenodd;fill:#954575;}
	.st12{fill-rule:evenodd;clip-rule:evenodd;fill:url(#SVGID_9_);}
	.st13{fill:#FFFFFF;}
	.st14{fill:#363F4C;}
</style>
<title>Монтажная область 4</title>
<g>
	<path class="st0" d="M421.1,168.7c8.7,94.3-25.8,168.9-103.7,220.3l-8.9,5.9l-9.3-5.2c-21.3-11.8-40.2-27.4-55.7-46.1
		c-39.9-48.4-51.1-112-49.2-173.7l0.4-13L207,153c38.6-12,56.5-48.8,100.8-48.8c11.9-0.1,23.5,2.8,34,8.4c11.4,6,21,14.4,31.3,22
		c11.3,8.3,22.2,14.3,35.5,18.4l11.3,3.5L421.1,168.7z"/>
	
		<linearGradient id="SVGID_1_" gradientUnits="userSpaceOnUse" x1="366.16" y1="192.0886" x2="366.16" y2="245.0706" gradientTransform="matrix(1 0 0 -1 0 502)">
		<stop  offset="0" style="stop-color:#9DCEE7"/>
		<stop  offset="0.27" style="stop-color:#9BCBE5"/>
		<stop  offset="0.45" style="stop-color:#94C2DD"/>
		<stop  offset="0.6" style="stop-color:#89B3CF"/>
		<stop  offset="0.74" style="stop-color:#799DBC"/>
		<stop  offset="0.87" style="stop-color:#6482A3"/>
		<stop  offset="0.99" style="stop-color:#4B6085"/>
		<stop  offset="1" style="stop-color:#495E83"/>
	</linearGradient>
	<path class="st1" d="M340.6,270.5c10.3,9.7,18.2,22.8,23.6,39.4c3.7,0.1,10.6-0.1,20.7-0.7c1.8-3.1,3.3-5.8,4.6-8.1l0,0
		c0.8-1.5,1.6-2.9,2.3-4.4c-2.5-4.3-4.8-8.6-7-12.8c-12.5-20.6-23.9-29.4-34.4-26.4C346.6,261.4,343.3,265.8,340.6,270.5z"/>
	
		<linearGradient id="SVGID_2_" gradientUnits="userSpaceOnUse" x1="246.93" y1="183.4" x2="246.93" y2="281.51" gradientTransform="matrix(1 0 0 -1 0 502)">
		<stop  offset="0" style="stop-color:#CD4B59"/>
		<stop  offset="1" style="stop-color:#CD4B59"/>
	</linearGradient>
	<path class="st2" d="M246.9,234.4c4.2,0,7.7,3,7.7,6.6s-3.4,6.6-7.7,6.6s-7.6-3-7.6-6.6S242.7,234.4,246.9,234.4z M259.5,309.9v-78
		h5l-17.6-11.4l-17.6,11.4h4.9v86.7L259.5,309.9z"/>
	
		<linearGradient id="SVGID_3_" gradientUnits="userSpaceOnUse" x1="269.334" y1="170.97" x2="269.334" y2="345.23" gradientTransform="matrix(1 0 0 -1 0 502)">
		<stop  offset="0" style="stop-color:#E7AB44"/>
		<stop  offset="1" style="stop-color:#95AF4C"/>
	</linearGradient>
	<path class="st3" d="M304,293c4.1-6.5,3.2-19.3,2.3-35.3c0-0.9-1.6-2.6-1.7-3.6c-4.8-15.1-2.4-38.7-2.4-55.1l2.9-1.3l-19.8-26.2
		v-6.1H282v-8.7h-2.3v8.7h-3.3v6.1l-19.8,26.2l2.9,1.3l-0.7,47.1c-9.4,26.6-19,48.9-27.3,67.4c0,0,3,7.6,11.3,17.5
		c3.6-1.1,7.3-1.7,11.1-1.8C255.6,315.3,284.8,253.1,304,293L304,293z M284,180.8c1.3,0.7,2.4,1.8,3.1,3.1H284V180.8z M287,190.1
		c-0.7,1.3-1.7,2.3-3,3v-3H287z M277.7,193.1c-1.3-0.7-2.3-1.7-3-3h3V193.1z M274.7,183.9c0.7-1.3,1.7-2.4,3.1-3.1v3.1H274.7z
		 M278.5,180.5c0.8-0.3,1.6-0.4,2.4-0.4c0.8,0,1.6,0.1,2.4,0.4v3.4h-4.7L278.5,180.5L278.5,180.5z M284,184.6h3.4
		c0.3,0.7,0.4,1.5,0.4,2.3c0,0.8-0.1,1.6-0.4,2.4H284L284,184.6L284,184.6z M283.2,193.5c-1.5,0.6-3.2,0.6-4.7,0v-3.3h4.7V193.5z
		 M283.2,189.4h-4.7v-4.7h4.7V189.4z M277.7,189.4h-3.3c-0.3-0.8-0.4-1.6-0.4-2.4c0-0.8,0.1-1.6,0.4-2.3h3.4L277.7,189.4
		L277.7,189.4z M268.3,220.5v-9.7c0-2.3,1.8-4.1,4.1-4.1l0,0c2.3,0,4.1,1.9,4.1,4.1v9.7H268.3z M285,220.5v-9.7
		c0-2.3,1.8-4.1,4.1-4.1l0,0c2.3,0,4.1,1.9,4.1,4.1v9.7H285z M285,241.1v-9.7c0-2.3,1.8-4.1,4.1-4.1l0,0c2.3,0,4.1,1.9,4.1,4.1v9.7
		H285z M268.3,241.1v-9.7c0-2.3,1.8-4.1,4.1-4.1l0,0c2.3,0,4.1,1.9,4.1,4.1v9.7H268.3z"/>
	
		<linearGradient id="SVGID_4_" gradientUnits="userSpaceOnUse" x1="336.48" y1="372.49" x2="336.48" y2="172.75" gradientTransform="matrix(1 0 0 -1 0 502)">
		<stop  offset="0" style="stop-color:#8CC5EA"/>
		<stop  offset="1.000000e-02" style="stop-color:#8CC7EB"/>
		<stop  offset="2.000000e-02" style="stop-color:#8CC5EA"/>
		<stop  offset="3.000000e-02" style="stop-color:#8CC5EA"/>
		<stop  offset="4.000000e-02" style="stop-color:#8BC4EB"/>
		<stop  offset="5.000000e-02" style="stop-color:#8AC3E9"/>
		<stop  offset="6.000000e-02" style="stop-color:#8AC5EA"/>
		<stop  offset="7.000000e-02" style="stop-color:#8AC3E9"/>
		<stop  offset="8.000000e-02" style="stop-color:#8AC3E9"/>
		<stop  offset="9.000000e-02" style="stop-color:#88C1E9"/>
		<stop  offset="0.1" style="stop-color:#88C3E9"/>
		<stop  offset="0.11" style="stop-color:#88C3E9"/>
		<stop  offset="0.12" style="stop-color:#88C1E7"/>
		<stop  offset="0.13" style="stop-color:#88C1E5"/>
		<stop  offset="0.14" style="stop-color:#88C1E5"/>
		<stop  offset="0.15" style="stop-color:#88C1E7"/>
		<stop  offset="0.16" style="stop-color:#88C1E7"/>
		<stop  offset="0.17" style="stop-color:#87C0E5"/>
		<stop  offset="0.18" style="stop-color:#87C0E5"/>
		<stop  offset="0.19" style="stop-color:#87C0E5"/>
		<stop  offset="0.2" style="stop-color:#86BFE6"/>
		<stop  offset="0.21" style="stop-color:#85BEE4"/>
		<stop  offset="0.22" style="stop-color:#84BCE5"/>
		<stop  offset="0.23" style="stop-color:#85BEE4"/>
		<stop  offset="0.24" style="stop-color:#85BEE4"/>
		<stop  offset="0.25" style="stop-color:#85BCE3"/>
		<stop  offset="0.26" style="stop-color:#83BCE3"/>
		<stop  offset="0.27" style="stop-color:#83BCE5"/>
		<stop  offset="0.28" style="stop-color:#83BCE3"/>
		<stop  offset="0.29" style="stop-color:#83BCE3"/>
		<stop  offset="0.3" style="stop-color:#83BAE2"/>
		<stop  offset="0.31" style="stop-color:#83BAE2"/>
		<stop  offset="0.32" style="stop-color:#83BAE2"/>
		<stop  offset="0.33" style="stop-color:#83BAE2"/>
		<stop  offset="0.34" style="stop-color:#81BAE1"/>
		<stop  offset="0.35" style="stop-color:#81BAE1"/>
		<stop  offset="0.36" style="stop-color:#81BAE1"/>
		<stop  offset="0.37" style="stop-color:#81BAE1"/>
		<stop  offset="0.38" style="stop-color:#80B8E0"/>
		<stop  offset="0.39" style="stop-color:#80B8E0"/>
		<stop  offset="0.4" style="stop-color:#80B8E0"/>
		<stop  offset="0.41" style="stop-color:#80B8E0"/>
		<stop  offset="0.42" style="stop-color:#80B8E0"/>
		<stop  offset="0.43" style="stop-color:#7EB5DF"/>
		<stop  offset="0.44" style="stop-color:#7EB4DE"/>
		<stop  offset="0.45" style="stop-color:#7CB3DE"/>
		<stop  offset="0.46" style="stop-color:#7AAFD9"/>
		<stop  offset="0.47" style="stop-color:#79AFD7"/>
		<stop  offset="0.48" style="stop-color:#79AFDB"/>
		<stop  offset="0.49" style="stop-color:#78ADD6"/>
		<stop  offset="0.5" style="stop-color:#76ACD6"/>
		<stop  offset="0.51" style="stop-color:#76A9D4"/>
		<stop  offset="0.52" style="stop-color:#74A9D4"/>
		<stop  offset="0.53" style="stop-color:#72A5D0"/>
		<stop  offset="0.54" style="stop-color:#72A5D0"/>
		<stop  offset="0.55" style="stop-color:#72A5D0"/>
		<stop  offset="0.56" style="stop-color:#72A5D0"/>
		<stop  offset="0.57" style="stop-color:#72A5D0"/>
		<stop  offset="0.58" style="stop-color:#72A4CF"/>
		<stop  offset="0.59" style="stop-color:#70A3CE"/>
		<stop  offset="0.6" style="stop-color:#6FA0CB"/>
		<stop  offset="0.61" style="stop-color:#6FA0CB"/>
		<stop  offset="0.62" style="stop-color:#6FA0CB"/>
		<stop  offset="0.63" style="stop-color:#6FA0CB"/>
		<stop  offset="0.64" style="stop-color:#6FA0CB"/>
		<stop  offset="0.65" style="stop-color:#6FA0CB"/>
		<stop  offset="0.66" style="stop-color:#6E9EC8"/>
		<stop  offset="0.67" style="stop-color:#6E9EC8"/>
		<stop  offset="0.68" style="stop-color:#6E9DC9"/>
		<stop  offset="0.69" style="stop-color:#6D9CC6"/>
		<stop  offset="0.7" style="stop-color:#6E9DC9"/>
		<stop  offset="0.71" style="stop-color:#6D9BC5"/>
		<stop  offset="0.72" style="stop-color:#6E9BC6"/>
		<stop  offset="0.73" style="stop-color:#6D9BC5"/>
		<stop  offset="0.74" style="stop-color:#6D9BC5"/>
		<stop  offset="0.75" style="stop-color:#6D9AC4"/>
		<stop  offset="0.76" style="stop-color:#6D9AC4"/>
		<stop  offset="0.77" style="stop-color:#6B99C2"/>
		<stop  offset="0.78" style="stop-color:#6B99C2"/>
		<stop  offset="0.79" style="stop-color:#6B98C3"/>
		<stop  offset="0.8" style="stop-color:#6A96BF"/>
		<stop  offset="0.81" style="stop-color:#6A98C3"/>
		<stop  offset="0.82" style="stop-color:#6996BF"/>
		<stop  offset="0.83" style="stop-color:#6995C0"/>
		<stop  offset="0.84" style="stop-color:#6996BF"/>
		<stop  offset="0.85" style="stop-color:#6993BD"/>
		<stop  offset="0.86" style="stop-color:#6995BE"/>
		<stop  offset="0.87" style="stop-color:#6993BD"/>
		<stop  offset="0.88" style="stop-color:#6993BD"/>
		<stop  offset="0.89" style="stop-color:#6893BD"/>
		<stop  offset="0.9" style="stop-color:#6892BB"/>
		<stop  offset="0.91" style="stop-color:#6790BA"/>
		<stop  offset="0.92" style="stop-color:#658FB9"/>
		<stop  offset="0.93" style="stop-color:#658DB6"/>
		<stop  offset="0.94" style="stop-color:#658CB5"/>
		<stop  offset="0.95" style="stop-color:#6289B2"/>
		<stop  offset="0.96" style="stop-color:#6288B1"/>
		<stop  offset="0.97" style="stop-color:#6086AF"/>
		<stop  offset="0.98" style="stop-color:#6085AD"/>
		<stop  offset="0.99" style="stop-color:#5E82AA"/>
		<stop  offset="1" style="stop-color:#5E82AA"/>
	</linearGradient>
	<path class="st4" d="M391.7,296.7c-15.2-29.7-29-42.8-41.4-39.1c-16.6,15.5-25.5,37.6-24.1,60.3L290,326l-8.8,3.3
		c17-19.7,31.4-51.9,41.8-86.2h-6.5v-3h7.4c2.6-8.8,5-17.7,7.1-26.6h-2.8v-3h3.4c6.6-29.1,10.8-46.8,10.8-68.3l2-3.4v-6.1h0.8v6.3
		l2,3.4c0,28.8,2.8,43.5,8.8,68.3h2v3h-1.3c2.3,9,5,17.9,8.2,26.6h5v3H366c7.1,18.5,15.7,36.4,25.7,53.6L391.7,296.7z M335,240.1
		h19.7l-4.3-20.5h-11.2L335,240.1z"/>
	
		<linearGradient id="SVGID_5_" gradientUnits="userSpaceOnUse" x1="327.3895" y1="176.0757" x2="327.3895" y2="314" gradientTransform="matrix(1 0 0 -1 0 502)">
		<stop  offset="0" style="stop-color:#D65C73"/>
		<stop  offset="1" style="stop-color:#7A5E8B"/>
	</linearGradient>
	<path class="st5" d="M338.9,211.6c0.5,27.5,4.3,42.8,11.5,45.9c-12.9,13.4-20.9,33.5-24.1,60.3c-0.2,4.7-4.3,8.4-9,8.1
		c-3.2-0.2-6.1-2.1-7.4-5.1c-4.8-11.2-6.4-29.8-4.7-55.7c0.7-29.2,0.9-47,0.8-53.4c-0.7-0.6-1.2-1.6-1.2-2.6l12.8-21.1h9.6
		l12.8,21.1C339.9,210,339.5,210.9,338.9,211.6L338.9,211.6z M323.8,231.2v8.9h8.9v-8.9H323.8z M311.7,242.8v8.9h8.9v-8.9H311.7z
		 M311.7,231.2v8.9h8.9v-8.9H311.7z M323.8,219.6v8.9h8.9v-8.9H323.8z M311.7,219.6v8.9h8.9v-8.9H311.7z"/>
	
		<linearGradient id="SVGID_6_" gradientUnits="userSpaceOnUse" x1="296.32" y1="222.202" x2="296.32" y2="187.28" gradientTransform="matrix(1 0 0 -1 0 502)">
		<stop  offset="0" style="stop-color:#944031"/>
		<stop  offset="1" style="stop-color:#FFF343"/>
	</linearGradient>
	<path class="st6" d="M288.6,279.8c5.4,16.5,6.5,28.1,3.3,34.9c4.5-7,8.5-14.2,12.1-21.7C299.3,283.2,294,279.6,288.6,279.8z"/>
	<path class="st7" d="M381.7,364l8.7-1.3c8.1-1.2,20-0.9,28.1,0.1c6.8,0.9,26.3,4.9,32.4,7.8c-0.2-2.5-8.5-24.7-8.5-27
		c0-0.4,3.8-4,4.3-4.5l14.2-13.6c-6.1-1.4-10.8-3.3-19-5c-12.5-2.6-15.8-2.7-28.2-2.7c-2.8,0-15.4,18.7-17.4,21.6L381.7,364z"/>
	
		<linearGradient id="SVGID_7_" gradientUnits="userSpaceOnUse" x1="191.15" y1="252.2281" x2="426.4" y2="252.2281" gradientTransform="matrix(1 0 0 -1 0 502)">
		<stop  offset="0" style="stop-color:#C16484"/>
		<stop  offset="1" style="stop-color:#8B6EA5"/>
	</linearGradient>
	<path class="st8" d="M293.5,102.1v7.3c9.1-0.8,11.3-2.5,23-1.1l7.3,1.2c4.4,1.1,8.6,2.5,12.8,4.2c11.9,5,28.7,19.6,40.5,27.5
		c12.3,8.2,20.6,12.1,34.8,16.3c1.2,0.4,2,0.6,3.2,1.1c1.5,0.6,1.8,0.5,2.1,2.1l1.9,23.6l-1.2,41.3c-3.2,29.4-12.4,57.8-27,83.5
		c-2.9,5.1-10,15.6-13.6,20.4l-7.5,9.5c-4.6,4.7-6.8,8.5-12.4,13.1c-3.4,2.9-3.6,4.2-6.4,6.4l-13.6,11.9c-4.2,3.1-7.6,6-12.2,9
		l-10,7c-7.5,5-4.5,5.4-16.2-1.6c-1-0.6-1.7-1-2.7-1.5c-0.8-0.6-1.8-1.1-2.7-1.5v8.1l0.4,0.3l0.4,0.3l14.9,8.2
		c0.9-0.1,18-12,20.1-13.5l9.8-7.2c5.5-4,10.6-8.4,15.4-13.2c1.1-1.1,1.9-1.5,3.1-2.7l21.8-23.8c1-1.2,1.6-2.1,2.5-3.3
		s1.5-2,2.3-3.1s1.5-2.1,2.4-3.4c5.1-7.1,15.5-24.1,19-32.4c0.6-1.6,1-2.8,1.7-4.1c6.7-13.6,13.3-37.9,15.7-52.6
		c3.2-19.3,3.2-33.6,3.2-53.6l-2.4-32.1c-1.5-0.4-2.8-0.9-4.4-1.4c-10.8-3.5-19.1-5.5-29.2-11.4c-13.4-7.8-15.5-10.1-27.4-19
		c-12.4-9.3-22.2-16.3-38.3-19.7C308,98.9,307,102,293.5,102.1L293.5,102.1z M293.5,389.9c-2.3-1.2-4.6-2.6-6.8-4.1
		c-17-11.4-23.3-16.3-37.8-31.4l-7.4-8.5c-4.9-5.8-9.4-11.9-13.4-18.3c-1.4-2.3-2.7-4.2-4.1-6.7l-7.3-13.5
		c-7.2-15.6-12.8-29.9-16.8-46.9c-5.2-21.9-5.9-28-7.7-50.7c-0.1-1.4-0.2-3.3-0.4-5c-0.6-6.1,0.1-15.8-0.6-20.6l0.7-30.4
		c2.1-0.2,19-5.9,22-7c11.1-4.1,20.6-12,29.7-18.2c10.9-7.5,16.4-12.9,28.8-19.1c5.4-2.7,15.2-7,21.2-7.5v7.3
		c-9.1,2-17.7,5.8-25.4,11c-1.1,0.7-1.9,1.1-2.9,1.8l-5.5,3.8c-8.8,5.9-17,12.5-26.2,18.6c-7.3,4.8-28,14.5-34.8,14.7v20.1
		c0,4.7-0.6,9.9-0.4,14.7c1.3,24.5,3.8,49.9,10.8,73.5l4.9,15.2c5.4,14.1,11.4,27.3,19.4,40.1c3.9,6.1,8.1,11.9,12.7,17.5
		c0.9,1.2,1.4,1.6,2.3,2.8s1.4,1.5,2.2,2.4c1.7,2.1,3.1,3.2,4.9,5.2c1,1,1.2,1.6,2.3,2.7l21.3,18.5c3.8,3,11.7,7.8,14.4,10
		L293.5,389.9L293.5,389.9z M301.2,110.9c2.6-0.2,4.9-0.4,8.1-0.4c11.3,0.1,22.4,3.1,32.2,8.7c4.7,2.8,5.6,3.8,9.7,6.5
		c1,0.7,1.6,1.2,2.5,1.8s1.6,1,2.5,1.7l13.9,10.4c11.5,8.7,19,12.3,32,17.5l12.2,4.1c0.9,0.9,2,16.7,2,18.8l0.4,11.6
		c0,16.7-0.6,30.1-3.3,45.8c-1.6,9.4-6.4,31-10.3,38.8l-2.3,6.2c-3.7,9.5-8.3,18.7-13.5,27.4c-2,3.3-4.1,6.5-6.4,9.8l-14.3,18.6
		c-3.3,4.2-5.3,5.6-7.8,8.8l-16.9,16l-28,21.1c-6,4-4.2,3.8-10.4,0.4l-10-6.2v-4.3c4.6,2.6,8.8,5.6,13.9,8.2
		c1.7,0.8,1.7,0.6,3.3-0.6c5-3.8,10.9-7.2,16.1-11.4l8.8-7.5c3.5-2.8,12.7-10.3,14.7-12.8s4-3.7,5.6-5.3l10.1-11.6
		c10.9-12.9,18.2-24.5,25.9-39.8c3-6.1,10.4-24.3,12.2-31.4c4.3-16.6,9-39.1,8.9-56.4c0-8.9-0.1-23.2-0.8-31.6
		c-0.4-3.3-0.7-6.7-0.7-10.1c-3.8,0-18.3-6-22.2-8c-23.2-11.7-28.4-20.5-47.8-32.2c-1.1-0.7-1.9-1.2-3.2-1.8
		c-1.1-0.6-2.2-1.2-3.3-1.7c-6-2.5-8.1-3.6-15.3-4.8l-14.1-1c-2.1,0-2.3,0.4-4.2,0.4L301.2,110.9L301.2,110.9z M293.5,378.3
		c-1.3-0.3-5-3-6.2-3.9c-7.5-5.2-14.7-10.9-21.5-17.1c-10.2-9.5-23.6-25.2-30.7-37.3c-1.3-2.1-2.4-3.8-3.6-6
		c-2.2-4-4.8-8.6-6.6-12.7c-0.9-2.2-2-4.3-3.1-6.6l-5.6-14.1c-1.6-4.7-3.4-9.5-4.7-14.6c-2.7-10.8-4.9-20.9-6.8-31.9
		c-2.1-11.8-3.1-23.8-3.2-35.8l-0.6-9.1c-0.4-2.9,0.2-5.7,0.2-9c0-6.8,0.4-12.5,0.4-18.9c2.3-0.2,11.9-3.4,14.5-4.5
		c10.3-4.1,25.3-14.6,34.9-21.1l5.5-4.2c1.9-1.2,3.5-2.6,5.4-3.9c3.8-2.5,13.8-8.9,17.7-10.6c6.5-2.8,14.5-5.9,21.8-6.1v3.9
		c-4,0-11.9,2.3-15,3.6c-8.4,3.1-16.2,7.5-23.3,13c-1.8,1.3-3.4,2.6-5.3,3.9L224.7,157c-3.7,1.9-16.3,7-19.8,7.3
		c0,7.1-0.3,16.5,0.4,23.3c0.2,1.9-0.3,2.2-0.4,4.2l1.7,26.6c2.4,19.1,3.1,26.9,8.8,47.3c2.6,9.4,5.8,18.5,9.6,27.4
		c5,11.3,6.3,13.5,12.9,24.6c0.7,1.3,1.2,1.9,2,3c6.3,9.5,10.7,15.5,18.5,23.6l4.4,4.8l4.6,4.6c4.8,4.5,9.9,8.7,15.2,12.7l10.9,7.7
		L293.5,378.3z"/>
	
		<linearGradient id="SVGID_8_" gradientUnits="userSpaceOnUse" x1="142.93" y1="170.615" x2="220.99" y2="170.615" gradientTransform="matrix(1 0 0 -1 0 502)">
		<stop  offset="0" style="stop-color:#B25C9F"/>
		<stop  offset="1" style="stop-color:#B25C9F"/>
	</linearGradient>
	<path class="st9" d="M155.3,304.9c0,7.7,0.3,11,3.5,18.2c0.9,2.1,1.7,3.8,2.7,5.8c1.5,2.9-0.1,3.3-2.1,5.3l-6,6.8
		c-1.7,1.9-10.1,10.3-10.5,11.9c6.4,3.4,21.6,8.1,29,8.1h0.9c6,0,12-0.2,15.4-4.6c0.9-1.1,1.6-2,2.5-3.3l20.3-26
		c0.9-1.1,1.6-2.1,2.6-3.2c1.5-1.8,7-8.6,7.4-10.3c-8.8,0-25.6-1.8-34.7-3.6c-5.2-1-10.5-2-15.6-3.4l-14.7-4.6
		C155.6,302.8,155.3,303.8,155.3,304.9z"/>
	<path class="st10" d="M381.9,328.8c19,11.7,32,19.9,39.2,24.6c-15.3,2.7-28.4,6.3-39.2,10.7V328.8z"/>
	<path class="st11" d="M221,337c-20.6,0.4-33.9-3.1-40-10.5c20.2-2.5,33.5-6.8,40-12.9V337z"/>
	
		<linearGradient id="SVGID_9_" gradientUnits="userSpaceOnUse" x1="180.8" y1="161.9377" x2="297.75" y2="161.9377" gradientTransform="matrix(1 0 0 -1 0 502)">
		<stop  offset="0" style="stop-color:#D2637D"/>
		<stop  offset="1" style="stop-color:#8471AA"/>
	</linearGradient>
	<path class="st12" d="M297.7,365.2v-46.8c-1.9,0.5-4.3,0.8-6.4,1.2l-34.8,5c-4.6,0.4-9.9,1-14.4,1.5c-4.8,0.5-10.7-0.1-15.3,0.5
		c-2,0.3-5,0.1-7.3,0.5c-3.4,0.5-4.7-0.1-7.5-0.2c-4.8-0.1-11.2,0.5-15.8,0s-10.4-0.3-15.5-0.3v0.7c0,13.9,0.2,28,0,41.8v3.6
		c0.2,0.5,0.7,0.6,1.9,0.7l15.6,0.7l0.6,0h21.3c8.5-0.2,16.8-0.6,20.3-1l20-1.6c3.3-0.1,14.8-2.3,18.7-3L297.7,365.2L297.7,365.2z
		 M349.4,309.5v47.1c4.7-1.2,11.9-1.6,17-2.2l17.6-1.7c2.9,0,6.8,0.2,9.6,0c3.1-0.3,6.2-0.4,9.3-0.4l18.1,1.2v-46.8
		c-6-0.7-12.1-0.9-18.2-0.8c-6.3,0-12.6,0-18.9,0c-5.8,0-12,1-17.4,1.5c-3,0.3-5.9,0.6-8.9,0.8S351.8,309.5,349.4,309.5L349.4,309.5
		z M297.7,318.4l51.6-8.9v47.1l-26,4.3c-4.3,0.7-8.7,1.5-12.9,2.2l-6.3,1c-2.1,0.5-4.3,0.8-6.5,1L297.7,318.4z"/>
	<path class="st13" d="M205.7,345c1.6,0,2.9,1.4,2.8,3c0,0.8-0.4,1.6-1.1,2.1c0.5,0.3,0.9,0.7,1.1,1.2c0.3,0.5,0.4,1.1,0.4,1.7
		c0,0.9-0.4,1.7-1,2.3c-0.6,0.6-1.4,0.9-2.3,0.9c-1,0-2-0.4-2.7-1.1c-0.7-0.7-1.1-1.7-1-2.7l0.1-3.9c0-0.9,0.4-1.8,1.1-2.4
		C203.9,345.3,204.8,345,205.7,345z M205.9,351.9l-1.6,0v0.4c0,0.4,0.1,0.8,0.4,1.1c0.3,0.3,0.7,0.5,1.1,0.5c0.3,0,0.5-0.1,0.7-0.3
		c0.2-0.2,0.3-0.4,0.3-0.7c0-0.2-0.1-0.5-0.3-0.7C206.4,352,206.1,351.9,205.9,351.9L205.9,351.9z M204.4,349.5
		c0.6-0.3,1.2-0.7,1.7-1.1c0.1-0.1,0.2-0.3,0.2-0.5c0-0.3-0.2-0.6-0.5-0.7c0,0-0.1,0-0.1,0c-0.7,0-1.2,0.5-1.2,1.1L204.4,349.5z"/>
	<path class="st13" d="M214.1,347.2c1.2,0,2.3,0.5,3,1.4c0.8,0.9,1.2,2,1.2,3.1c0,1.2-0.4,2.3-1.1,3.2c-0.7,0.9-1.8,1.5-2.9,1.4
		c-1.2,0-2.3-0.5-3-1.4c-0.8-0.9-1.2-2-1.2-3.1c0-1.1,0.4-2.3,1.1-3.1C211.9,347.7,213,347.2,214.1,347.2z M214.1,349.4
		c-0.6,0-1.1,0.3-1.4,0.8c-0.7,0.9-0.7,2.2,0,3.1c0.3,0.5,0.8,0.8,1.4,0.7c0.6,0,1.1-0.3,1.4-0.8c0.3-0.5,0.5-1,0.5-1.5
		c0-0.6-0.2-1.1-0.5-1.5C215.2,349.7,214.7,349.4,214.1,349.4L214.1,349.4z"/>
	<path class="st13" d="M221.3,347.2l0.2,6.3c1.2-0.5,2-1.7,1.9-3l-0.1-3.4l2.3-0.1l0.1,3.4l0.2,5.4l-2.3,0.1v-1
		c-0.9,0.7-2,1.1-3.1,1.1h-1.2l-0.3-8.8L221.3,347.2z M221.6,344.5c0,0.1,0.1,0.3,0.3,0.3c0.1,0.1,0.3,0.1,0.4,0.1
		c0.1,0,0.3,0,0.4-0.1c0.1,0,0.3-0.2,0.3-0.3l1.9,0.3c-0.1,0.6-0.4,1.1-0.9,1.4c-0.9,0.7-2.2,0.8-3.2,0.1c-0.5-0.3-0.9-0.8-1-1.4
		L221.6,344.5z"/>
	<path class="st13" d="M241.7,346.1l0.5,7.3c0.1,1.3-0.3,2.6-1.2,3.6c-0.8,1-2.1,1.6-3.4,1.7l-1.6,0.1l-0.1-2.3l1.6-0.1
		c0.9,0,1.7-0.5,2.1-1.3h-0.3c-1.2,0.1-2.4-0.4-3.2-1.3c-0.8-0.9-1.3-2-1.4-3.2l-0.3-4.1l2.3-0.1l0.3,4.1c0,0.6,0.3,1.2,0.6,1.6
		c0.4,0.5,0.9,0.7,1.5,0.7l0.7,0l-0.4-6.5L241.7,346.1z"/>
	<path class="st13" d="M251,351.9c-0.2,0.8-0.7,1.4-1.3,1.9c-0.6,0.5-1.4,0.8-2.1,0.9c-1.2,0.1-2.3-0.3-3.1-1.2
		c-0.8-0.8-1.3-1.9-1.4-3c-0.1-1.1,0.2-2.3,0.9-3.2c0.7-1,1.7-1.6,2.9-1.6c0.8-0.1,1.6,0.1,2.3,0.5c0.7,0.4,1.2,1,1.6,1.7l-1.9,1.1
		c-0.2-0.3-0.4-0.6-0.7-0.8c-0.3-0.2-0.6-0.3-1-0.3c-0.6,0-1.1,0.4-1.3,0.9c-0.3,0.5-0.4,1-0.4,1.6c0.1,0.6,0.3,1.1,0.6,1.5
		c0.3,0.4,0.9,0.7,1.4,0.6c0.4,0,0.7-0.2,1-0.4c0.3-0.2,0.5-0.6,0.6-0.9L251,351.9z"/>
	<path class="st13" d="M252.3,354.2l-0.8-8.8l3.3-0.3l3.3-0.3l0.8,8.8l-2.3,0.2l-0.6-6.6l-2,0.2l0.6,6.6L252.3,354.2z"/>
	<path class="st13" d="M265.6,353l-1.8,0.2c-2.1,0.2-4-1.3-4.2-3.4c0,0,0,0,0,0l-0.2-1.7c-0.1-0.9,0.2-1.8,0.8-2.5
		c0.6-0.7,1.4-1.2,2.3-1.3c0.8-0.1,1.5,0.2,2.1,0.7c0.6,0.5,0.9,1.2,1,2c0.1,0.5,0,1-0.2,1.4c-0.2,0.6-0.7,1.2-1.4,1.4
		c-0.6,0.3-1.3,0.4-1.9,0.5c0.3,0.5,0.8,0.7,1.4,0.6l1.8-0.2L265.6,353z M261.8,348L261.8,348l0.8-0.1c0.2,0,0.5-0.1,0.6-0.2
		c0.2-0.1,0.3-0.4,0.2-0.6c0-0.4-0.3-0.6-0.7-0.6c-0.3,0-0.6,0.2-0.8,0.5c-0.2,0.3-0.3,0.6-0.2,0.9L261.8,348z"/>
	<path class="st13" d="M268.5,343.8l1.6,2l0.3-0.6c0.3-0.6,0.7-1,1.2-1.4c0.5-0.4,1.1-0.6,1.7-0.6l0.2,2.2c-0.5,0.1-0.9,0.4-1.1,0.8
		l-0.8,1.7l3.1,4.2l-2.6,0.3l-1.6-2.1l-0.3,0.6c-0.3,0.6-0.7,1.1-1.2,1.4c-0.5,0.4-1.1,0.6-1.7,0.7l-0.2-2.3c0.5,0,0.9-0.4,1.1-0.8
		l0.8-1.7l-3.1-4.1L268.5,343.8z"/>
	<path class="st13" d="M283,351.1l-1-8.8l2.3-0.3l0.4,3.3l2-0.2l-0.4-3.3l2.3-0.3l1,8.8l-2.3,0.3l-0.4-3.3l-2,0.2l0.4,3.3L283,351.1
		z"/>
	<path class="st13" d="M292.8,341c0.9-0.1,1.8,0.1,2.5,0.7c0.7,0.5,1.2,1.3,1.3,2.2l0.7,5.5l-3.6,0.5c-0.8,0.1-1.5-0.1-2.1-0.6
		c-0.6-0.5-1-1.1-1.1-1.9c-0.1-0.8,0.1-1.5,0.6-2.1c0.5-0.6,1.1-1,1.9-1.1l1.3-0.2c-0.2-0.5-0.7-0.8-1.2-0.7l-2.4,0.3l-0.3-2.2
		L292.8,341z M294.7,347.4l-0.1-1.2l-1.4,0.2c-0.3,0-0.5,0.2-0.5,0.5c0,0.1,0,0.1,0,0.1c0,0.4,0.3,0.5,0.7,0.5L294.7,347.4z"/>
	<path class="st13" d="M302.2,346l-0.8,0.1c-1.9,0.2-3.7-1.1-4-3.1l-0.3-2.5l2.3-0.3l0.3,2.5c0,0.3,0.2,0.6,0.5,0.8
		c0.3,0.2,0.6,0.3,1,0.3l0.8-0.1l-0.5-3.7l2.3-0.3l1.1,8.8l-2.3,0.3L302.2,346z"/>
	<path class="st13" d="M307.4,339.2l0.8,6.3c0.6-0.3,1-0.8,1.3-1.3c0.3-0.6,0.4-1.2,0.3-1.8l-0.4-3.4l2.3-0.3l0.4,3.4l0.7,5.4
		l-2.3,0.3l-0.1-1c-0.8,0.8-1.9,1.3-3,1.4l-1.1,0.1l-1.2-8.8L307.4,339.2z"/>
	<path class="st13" d="M314.3,347.2l-1.2-8.8l2.3-0.3l0.5,3.3l2-0.3l-0.5-3.3l2.3-0.3l1.2,8.8l-2.3,0.3l-0.5-3.3l-2,0.3l0.4,3.3
		L314.3,347.2z"/>
	<path class="st13" d="M323.9,337c0.9-0.1,1.8,0.1,2.5,0.6c0.7,0.5,1.2,1.3,1.3,2.2l0.8,5.4l-3.6,0.5c-0.8,0.1-1.5-0.1-2.1-0.5
		c-0.6-0.4-1-1.1-1.1-1.9c-0.2-1.6,0.9-3,2.5-3.3l1.3-0.2c-0.2-0.5-0.7-0.8-1.2-0.7l-2.4,0.3l-0.3-2.2L323.9,337z M325.9,343.3
		l-0.2-1.2l-1.4,0.2c-0.3,0-0.5,0.2-0.5,0.5c0,0.1,0,0.1,0,0.2c0,0.3,0.3,0.5,0.6,0.5c0,0,0.1,0,0.1,0L325.9,343.3z"/>
	<path class="st13" d="M335.4,344.3l-1.8,0.3c-2.1,0.3-4-1.2-4.3-3.2l-0.2-1.6c-0.1-0.9,0.1-1.8,0.6-2.5c0.5-0.8,1.3-1.3,2.3-1.4
		c0.8-0.1,1.5,0.1,2.1,0.6c0.6,0.5,1,1.1,1.1,1.9c0.1,0.5,0,1-0.1,1.4c-0.2,0.6-0.7,1.2-1.3,1.5c-0.6,0.3-1.3,0.5-1.9,0.6
		c0.3,0.5,0.9,0.7,1.4,0.6l1.8-0.3L335.4,344.3z M331.3,339.5h0.1l0.7-0.1c0.2,0,0.4-0.1,0.6-0.3c0.2-0.1,0.2-0.4,0.2-0.6
		c-0.1-0.4-0.3-0.6-0.7-0.6c-0.3,0-0.6,0.2-0.8,0.5c-0.2,0.3-0.2,0.6-0.2,0.9L331.3,339.5z"/>
	<path class="st13" d="M342,336.6l-2.1,0.3l1,6.5l-2.3,0.3l-1-6.5l-2.1,0.3l-0.3-2.2l3.3-0.5l3.3-0.5L342,336.6z"/>
	<path class="st13" d="M350.8,339.5c-0.2,0.8-0.6,1.5-1.2,2c-0.6,0.6-1.3,0.9-2.1,1c-1.1,0.2-2.3-0.1-3.2-0.9
		c-0.9-0.8-1.5-1.8-1.6-2.9c-0.2-1.1,0.1-2.3,0.7-3.3c0.6-1,1.6-1.7,2.8-1.8c0.8-0.1,1.6,0,2.3,0.4c0.7,0.4,1.3,0.9,1.7,1.5
		l-1.9,1.2c-0.2-0.3-0.5-0.6-0.8-0.7c-0.3-0.2-0.7-0.3-1-0.2c-0.6,0.1-1,0.4-1.3,0.9c-0.5,1-0.3,2.2,0.5,3c0.4,0.4,0.9,0.6,1.5,0.5
		c0.4,0,0.7-0.2,0.9-0.5c0.2-0.3,0.4-0.6,0.5-0.9L350.8,339.5z"/>
	<path class="st13" d="M350.9,336.1c-0.1-0.8,0.1-1.7,0.6-2.4c0.5-0.7,1.2-1.2,2.1-1.3l0.6-0.1c0.8-0.1,1.7,0.1,2.4,0.6
		c0.7,0.5,1.1,1.3,1.2,2.1l0.9,5.7l-2.2,0.4l-0.4-2.5h-0.3c-0.1,0.1-0.2,0.2-0.3,0.4c-0.1,0.1-0.1,0.3-0.2,0.5l-0.7,1.9l-2.5,0.4
		l1.1-3c-0.6-0.2-1.2-0.5-1.5-1C351.2,337.3,351,336.7,350.9,336.1z M355.7,336.3l-0.1-1c0-0.2-0.2-0.5-0.4-0.6
		c-0.2-0.2-0.4-0.2-0.7-0.2l-0.6,0.1c-0.2,0-0.5,0.2-0.6,0.4c-0.1,0.2-0.2,0.5-0.1,0.7c0,0.2,0.2,0.5,0.4,0.6
		c0.2,0.2,0.4,0.2,0.7,0.2L355.7,336.3z"/>
	<path class="st13" d="M371.1,332.4c-0.1-0.3-0.2-0.5-0.5-0.4l-0.6,0.1c-0.3,0-0.4,0.2-0.3,0.5l-2.2,0.4c-0.1-0.7,0.1-1.4,0.5-2
		c0.4-0.6,1-1,1.7-1.1l0.6-0.1c0.7-0.1,1.4,0.1,2,0.5c0.6,0.4,1,1.1,1.1,1.8c0.1,0.5,0,1-0.2,1.4c0.6,0.5,1,1.1,1.1,1.9
		c0.3,1.6-0.8,3.1-2.4,3.4l-0.4,0.1c-1,0.2-2.1-0.1-2.9-0.7c-0.9-0.6-1.4-1.5-1.6-2.6l2.3-0.4c0.1,0.9,1,1.5,1.9,1.4c0,0,0,0,0.1,0
		h0.4c0.3,0,0.6-0.3,0.6-0.6c0-0.1,0-0.1,0-0.2c0-0.3-0.3-0.6-0.6-0.6c-0.1,0-0.1,0-0.2,0h-0.1h-0.1l-0.6,0.1l-0.4-2.3l0.6-0.1
		C371,332.9,371.1,332.7,371.1,332.4z"/>
	<path class="st13" d="M376.3,335.6l0.2-3.6c0.1-0.8,0.3-1.5,0.7-2.2c0.4-0.7,1-1.2,1.8-1.3l0.5-0.1l2.2-0.4l1.1,6.5l1.1-0.2
		l0.5,3.1l-2.2,0.4l-0.1-0.8l-4.2,0.7l0.1,0.8l-2.3,0.4l-0.5-3.1L376.3,335.6z M379.3,330.7c-0.2,0-0.4,0.3-0.4,0.6
		c-0.1,0.3-0.1,0.5-0.1,0.8l-0.2,3l1.9-0.3l-0.7-4.2L379.3,330.7z"/>
	<path class="st13" d="M390.3,335.5l-1.8,0.3c-1,0.2-2-0.1-2.8-0.7c-0.8-0.6-1.4-1.5-1.6-2.5l-0.3-1.6c-0.2-0.9,0.1-1.8,0.6-2.6
		c0.5-0.8,1.3-1.3,2.2-1.4c0.8-0.1,1.6,0,2.2,0.5c0.6,0.4,1,1.1,1.2,1.9c0.1,0.5,0,1-0.1,1.4c-0.2,0.6-0.7,1.2-1.3,1.5
		c-0.6,0.3-1.2,0.5-1.9,0.6c0.3,0.5,0.9,0.7,1.4,0.5l1.8-0.3L390.3,335.5z M386.1,330.9h0.1l0.7-0.1c0.2,0,0.5-0.1,0.6-0.3
		c0.2-0.1,0.2-0.4,0.2-0.6c-0.1-0.4-0.3-0.6-0.7-0.6c-0.3,0-0.6,0.2-0.8,0.5c-0.2,0.3-0.2,0.6-0.2,0.9L386.1,330.9z"/>
	<path class="st13" d="M399,331.6c-0.2,0.8-0.6,1.4-1.1,2c-0.6,0.6-1.3,1-2.1,1.1c-1.1,0.2-2.3-0.1-3.2-0.9
		c-1.8-1.5-2.3-4.1-1.1-6.2c0.6-1,1.6-1.7,2.7-1.9c0.8-0.1,1.6,0,2.3,0.3c0.7,0.3,1.3,0.9,1.7,1.5l-1.8,1.3
		c-0.2-0.3-0.5-0.5-0.8-0.7c-0.3-0.2-0.7-0.2-1-0.2c-0.6,0.1-1,0.5-1.3,1c-0.5,1-0.3,2.2,0.5,3c0.4,0.4,0.9,0.6,1.5,0.5
		c0.4-0.1,0.7-0.2,0.9-0.5c0.2-0.3,0.4-0.6,0.5-0.9L399,331.6z"/>
	<path class="st13" d="M401.4,327.3l1.6-0.3c0.8-0.1,1.7,0.1,2.4,0.5c0.7,0.5,1.2,1.2,1.3,2c0.2,0.8,0,1.7-0.5,2.4
		c-0.5,0.7-1.2,1.2-2,1.3c-2.1,0.3-4-1-4.4-3.1l-0.9-5.1l2.3-0.4L401.4,327.3z M401.9,329.8c0.1,0.8,0.9,1.4,1.7,1.3
		c0,0,0.1,0,0.1,0c0.2,0,0.4-0.2,0.6-0.4c0.3-0.4,0.2-1-0.2-1.2c0,0,0,0,0,0c-0.2-0.1-0.4-0.2-0.7-0.2l-1.5,0.3L401.9,329.8z"/>
	<path class="st13" d="M406,321.1l2.5-0.4l1,8l-1.7,0.3L406,321.1z M408.8,329.8c0.3-0.1,0.7,0,0.9,0.2c0.3,0.2,0.5,0.5,0.5,0.8
		c0.1,0.7-0.3,1.3-1,1.5c-0.7,0.1-1.3-0.3-1.5-1c-0.1-0.3,0-0.7,0.2-1C408.2,330,408.5,329.8,408.8,329.8z"/>
	<path class="st13" d="M201.5,346.4h-3.4l-0.1,9.8h-3.6l0.1-9.8h-3.4v-3.3h5.2h5.2L201.5,346.4z"/>
	<path class="st14" d="M250.7,239.9l-3.6,1.3c0,0,0,0.1-0.1,0.1l0,0c-0.1,0.2-0.4,0.2-0.6,0.1c0,0,0,0,0,0c-0.2-0.2-0.2-0.4,0-0.6
		c0,0,0,0,0,0l0,0c0.1-0.2,0.4-0.2,0.6-0.1c0,0,0,0,0,0v0.1l3.6-1.2c0.1,0,0.2,0,0.2,0.1c0,0,0,0,0,0
		C250.8,239.7,250.8,239.8,250.7,239.9C250.7,239.9,250.7,239.9,250.7,239.9z"/>
	<path class="st14" d="M246.4,241.6c0.3,0.1,0.7-0.1,0.8-0.4c0.1-0.3,0-0.6-0.3-0.7c-0.2-0.1-0.5,0-0.7,0.1l0,0l-2.3-0.9
		c-0.1,0-0.2,0-0.3,0.1c0,0,0,0,0,0c-0.1,0.1,0,0.2,0.1,0.3c0,0,0,0,0,0l2.3,1l0,0C246,241.3,246.2,241.5,246.4,241.6z M246.5,241.3
		c-0.2-0.1-0.2-0.3-0.2-0.4c0.1-0.2,0.3-0.2,0.4-0.2c0.2,0.1,0.2,0.2,0.2,0.4c0,0,0,0,0,0C246.9,241.3,246.7,241.3,246.5,241.3z"/>
	<circle class="st13" cx="246.7" cy="241" r="0.3"/>
</g>
</svg>
