<?xml version="1.0" encoding="utf-8"?>
<!-- Generator: Adobe Illustrator 23.0.1, SVG Export Plug-In . SVG Version: 6.00 Build 0)  -->
<svg version="1.1" id="Слой_1" xmlns="http://www.w3.org/2000/svg" xmlns:xlink="http://www.w3.org/1999/xlink" x="0px" y="0px"
	 viewBox="0 0 612 518" style="enable-background:new 0 0 612 518;" xml:space="preserve">
<style type="text/css">
	.st0{fill-rule:evenodd;clip-rule:evenodd;fill:#488655;}
	.st1{fill-rule:evenodd;clip-rule:evenodd;fill:#FFFFFF;}
	.st2{fill-rule:evenodd;clip-rule:evenodd;fill:#538857;}
</style>
<g>
	<g>
		<path class="st0" d="M125.8,297.9c-6.3,0-11.6-1.8-15.8-5.3c-21.5-17.7-20.8-64.2-12-88.9c4.5-12.7,13.6-22,27.5-22
			c5.8,0,9.6,2.6,14.4,5.4c3.5,2.1,6.6,0.8,7.1-3.5h7.6v39h-12.5c-0.2-3-0.6-6-1.1-9.2c-1.2-7.1-4.7-17.3-13.3-17.3
			c-2.8,0-5.1,1.4-6.8,4.3c-8.8,14.9-8.6,64.4,0.3,79.2c3.2,5.4,10,5.8,13.6,0.9c1.6-2.2,2.5-5.9,2.5-11c0-11.5-3.6-14-14.6-14
			v-12.6l52.4,0.2v12.6c-8.6,0-18.6-2.7-18.6,9.6v31.3h-6.4c0-1.5-0.3-2.9-0.9-4.3c-0.6-1.4-1.7-2.1-3.3-2.1
			C142.9,290.2,136.3,297.9,125.8,297.9z"/>
		<path class="st1" d="M205.3,217.4h14.2l12.9,63.2c0.8,4.3,2.6,7,7.2,7v8.9h-26.9v-8.9c4.5,0,6-2.8,5-7l-1.5-7h-11.8l-1.5,7
			c-1,4.4,0.3,7,4.9,7v8.9h-23.1v-8.9c4.7,0,6.7-2.6,7.5-7L205.3,217.4L205.3,217.4z M210.4,244.6l-3.9,18.9h7.8L210.4,244.6z"/>
		<path class="st1" d="M255.4,296.6v-8.9c4.5,0,6-2.9,6-7v-47.1c0-4.1-1.5-7.2-6-7.2v-8.9H278c4.9,0,9.1,1,12.7,3
			c8,4.5,12.1,12.8,14.1,21.5c2.3,9.8,2.3,22.2,0.3,32.1c-1.7,8.2-5.3,15.8-12.9,19.8c-3.4,1.8-7.6,2.7-12.5,2.7H255.4L255.4,296.6z
			 M276.2,226.8v60.8c3.5,0,6.6,0.1,9.2-2.7c8.3-9.1,7.1-46.4-0.9-55.4C282,226.7,279.6,226.8,276.2,226.8z"/>
		<path class="st1" d="M344.7,297.5c-8.8,0-14.6-5.4-18.3-13.1c-5-10.6-5.7-23-4.9-34.6c0.6-8.3,2.7-19.3,7.9-26.1
			c1.7-2.3,3.8-4.1,6.3-5.5c3.5-1.9,9.3-2.8,13.1-1.3c2.1,0.8,3.9,1.9,5.8,3.1c2.5,1.5,4.6,0.6,5-2.5h5.3v27.3h-8.7
			c-0.1-2.1-0.4-4.2-0.8-6.4c-0.6-3.7-2-7.8-4.7-10.4c-1.2-1.2-2.7-1.7-4.6-1.7c-2,0-3.5,1-4.7,3c-2.8,4.8-3.8,12-4.1,17.6
			c-0.2,3.6-0.3,7-0.3,10.2c0,8.1,0.6,21,4.6,27.7c1.2,2,2.7,3,4.5,3c2.2,0,3.8-0.8,5-2.3c2.4-3.3,2.2-11,0.3-14.6
			c-1-1.8-2.7-2.7-5.3-2.7v-8.8h26.6v8.8c-2.2,0-3.8,0.5-4.8,1.6c-1.1,1-1.6,2.8-1.6,5.1v21.9h-4.5c0-1-0.2-2-0.6-3
			c-0.4-1-1.2-1.5-2.3-1.5c-0.6,0-1.3,0.3-2,0.8c-2.1,1.6-4.2,2.8-6.6,3.7C348.6,297.2,346.8,297.5,344.7,297.5z"/>
		<path class="st1" d="M394.8,233.5c0-2.8-0.6-4.6-1.8-5.6c-1.2-1-2.6-1.5-4.2-1.5v-8.9h26.7v8.9c-1.8,0-3.2,0.5-4.3,1.5
			c-1.1,1-1.7,2.9-1.7,5.7v47.1c0,2.8,0.6,4.7,1.7,5.6c1.1,0.9,2.6,1.4,4.3,1.4v8.9h-26.7v-8.9c1.6,0,3-0.5,4.2-1.5
			c1.2-1,1.8-2.8,1.8-5.6V233.5z"/>
		<path class="st2" d="M481.4,207.6c1.1-1.8,1.6-3.5,1.6-5c0-3.3-2-6.6-5.5-6.6v-12.6h35.3v12.6c-5.4,0-7.5,2.7-10,7.2l-18.9,35.5
			l21.7,37.2c2,3.4,5.3,7.1,9.3,7.8v12.8h-38.1v-12.8c1.8,0,3.5-0.3,4.9-0.8c2.8-1,2.5-5.4,1.2-7.5l-18.3-31.3v30.7
			c0,5.8,2.6,8.9,8.4,8.9v12.8h-38.1v-12.8c6.4,0,8.7-4.3,8.7-10.2v-67.3c0-5.9-2.4-10.2-8.7-10.2v-12.6H473v12.6
			c-6.6,0-8.4,4.1-8.4,10.2v33.4L481.4,207.6z"/>
	</g>
	<path class="st1" d="M91.7,317.9h2.9v10.5l6.3-10.5h3.1v15.7h-2.9v-10.3l-6.3,10.3h-3.1V317.9L91.7,317.9z M107.7,322.3h3v4.2h4.3
		v-4.2h3v11.4h-3v-4.8h-4.3v4.8h-3V322.3L107.7,322.3z M120.2,322.3h10.2v2.4h-3.6v9h-3v-9h-3.6V322.3L120.2,322.3z M139.3,330.1
		l3,0.5c-0.4,1.1-1,1.9-1.8,2.5c-0.8,0.6-1.9,0.9-3.1,0.9c-2,0-3.4-0.6-4.3-1.9c-0.7-1-1.1-2.4-1.1-3.9c0-1.9,0.5-3.4,1.5-4.4
		c1-1.1,2.2-1.6,3.7-1.6c1.7,0,3,0.6,4,1.7c1,1.1,1.4,2.8,1.4,5.2H135c0,0.9,0.3,1.6,0.7,2.1c0.5,0.5,1,0.7,1.7,0.7
		c0.5,0,0.9-0.1,1.2-0.4C138.9,331.1,139.1,330.6,139.3,330.1L139.3,330.1z M139.5,327c0-0.9-0.2-1.5-0.7-2
		c-0.4-0.5-0.9-0.7-1.5-0.7c-0.6,0-1.2,0.2-1.6,0.7c-0.4,0.5-0.6,1.1-0.6,2H139.5L139.5,327z M145.4,322.3h2.8v1.7
		c0.4-0.6,0.8-1,1.5-1.4c0.6-0.4,1.3-0.5,2-0.5c1.3,0,2.4,0.5,3.3,1.6c0.9,1,1.4,2.5,1.4,4.3c0,1.9-0.5,3.4-1.4,4.4
		c-0.9,1.1-2,1.6-3.3,1.6c-0.6,0-1.2-0.1-1.7-0.4c-0.5-0.2-1-0.7-1.6-1.3v5.7h-3V322.3L145.4,322.3z M148.3,327.8
		c0,1.3,0.2,2.2,0.8,2.8c0.5,0.6,1.1,0.9,1.8,0.9c0.7,0,1.3-0.3,1.7-0.8c0.5-0.6,0.7-1.5,0.7-2.8c0-1.2-0.2-2.1-0.7-2.7
		c-0.5-0.6-1.1-0.9-1.8-0.9c-0.7,0-1.3,0.3-1.8,0.9C148.6,325.8,148.3,326.7,148.3,327.8L148.3,327.8z M159.2,322.3h3v4.2h4.3v-4.2
		h3v11.4h-3v-4.8h-4.3v4.8h-3V322.3L159.2,322.3z M179.5,330.1l3,0.5c-0.4,1.1-1,1.9-1.8,2.5c-0.8,0.6-1.9,0.9-3.1,0.9
		c-2,0-3.4-0.6-4.3-1.9c-0.7-1-1.1-2.4-1.1-3.9c0-1.9,0.5-3.4,1.5-4.4c1-1.1,2.2-1.6,3.7-1.6c1.7,0,3,0.6,4,1.7
		c1,1.1,1.4,2.8,1.4,5.2h-7.4c0,0.9,0.3,1.6,0.7,2.1c0.5,0.5,1,0.7,1.7,0.7c0.5,0,0.9-0.1,1.2-0.4
		C179.1,331.1,179.4,330.6,179.5,330.1L179.5,330.1z M179.7,327c0-0.9-0.2-1.5-0.7-2c-0.4-0.5-0.9-0.7-1.5-0.7
		c-0.6,0-1.2,0.2-1.6,0.7c-0.4,0.5-0.6,1.1-0.6,2H179.7L179.7,327z M184.1,322.3h10.2v2.4h-3.6v9h-3v-9h-3.6V322.3L184.1,322.3z
		 M196.3,329.5v-3h5.9v3H196.3L196.3,329.5z M204.6,322.3h3.7l2.8,7.9l2.8-7.9h3.7v11.4H215v-7.5l-2.7,7.5h-2.6l-2.6-7.5v7.5h-2.5
		V322.3L204.6,322.3z M223,325.8l-2.7-0.5c0.3-1.1,0.8-1.9,1.6-2.5c0.7-0.5,1.8-0.8,3.3-0.8c1.3,0,2.3,0.2,3,0.5
		c0.6,0.3,1.1,0.7,1.4,1.2c0.3,0.5,0.4,1.4,0.4,2.7l0,3.5c0,1,0,1.7,0.1,2.2s0.3,1,0.5,1.5h-3c-0.1-0.2-0.2-0.5-0.3-0.9
		c0-0.2-0.1-0.3-0.1-0.4c-0.5,0.5-1,0.9-1.6,1.1c-0.6,0.3-1.2,0.4-1.8,0.4c-1.2,0-2.1-0.3-2.7-1c-0.7-0.6-1-1.4-1-2.4
		c0-0.6,0.2-1.2,0.5-1.7c0.3-0.5,0.7-0.9,1.3-1.2c0.5-0.3,1.3-0.5,2.4-0.7c1.4-0.3,2.4-0.5,2.9-0.7V326c0-0.6-0.1-1-0.4-1.3
		c-0.3-0.2-0.8-0.4-1.6-0.4c-0.5,0-0.9,0.1-1.2,0.3C223.5,324.9,223.2,325.3,223,325.8L223,325.8z M227,328.2
		c-0.4,0.1-1,0.3-1.8,0.5c-0.8,0.2-1.4,0.4-1.6,0.5c-0.4,0.3-0.6,0.6-0.6,1.1c0,0.4,0.2,0.8,0.5,1.1c0.3,0.3,0.7,0.5,1.2,0.5
		c0.5,0,1-0.2,1.5-0.5c0.4-0.3,0.6-0.6,0.7-1c0.1-0.3,0.1-0.7,0.1-1.5V328.2L227,328.2z M233.4,322.3h7.6v2.4h-4.6v9h-3V322.3
		L233.4,322.3z M245.4,325.8l-2.7-0.5c0.3-1.1,0.8-1.9,1.6-2.5c0.7-0.5,1.8-0.8,3.3-0.8c1.3,0,2.3,0.2,3,0.5
		c0.6,0.3,1.1,0.7,1.4,1.2c0.3,0.5,0.4,1.4,0.4,2.7l0,3.5c0,1,0,1.7,0.1,2.2c0.1,0.5,0.3,1,0.5,1.5h-3c-0.1-0.2-0.2-0.5-0.3-0.9
		c0-0.2-0.1-0.3-0.1-0.4c-0.5,0.5-1,0.9-1.6,1.1c-0.6,0.3-1.2,0.4-1.8,0.4c-1.2,0-2.1-0.3-2.7-1c-0.7-0.6-1-1.4-1-2.4
		c0-0.6,0.2-1.2,0.5-1.7c0.3-0.5,0.7-0.9,1.3-1.2c0.5-0.3,1.3-0.5,2.4-0.7c1.4-0.3,2.4-0.5,2.9-0.7V326c0-0.6-0.1-1-0.4-1.3
		c-0.3-0.2-0.8-0.4-1.6-0.4c-0.5,0-0.9,0.1-1.2,0.3C245.8,324.9,245.5,325.3,245.4,325.8L245.4,325.8z M249.3,328.2
		c-0.4,0.1-1,0.3-1.8,0.5c-0.8,0.2-1.4,0.4-1.6,0.5c-0.4,0.3-0.6,0.6-0.6,1.1c0,0.4,0.2,0.8,0.5,1.1c0.3,0.3,0.7,0.5,1.2,0.5
		c0.5,0,1-0.2,1.5-0.5c0.4-0.3,0.6-0.6,0.7-1c0.1-0.3,0.1-0.7,0.1-1.5V328.2L249.3,328.2z M259.1,329v-2c0.5,0,0.9,0,1.1-0.1
		c0.2-0.1,0.5-0.2,0.7-0.5c0.2-0.3,0.3-0.6,0.3-0.9c0-0.4-0.1-0.7-0.4-1c-0.3-0.3-0.6-0.5-1.2-0.5c-0.4,0-0.7,0.1-1.1,0.3
		c-0.3,0.2-0.6,0.6-0.8,1.2l-2.5-0.5c0.3-1,0.8-1.7,1.6-2.2c0.8-0.5,1.8-0.7,2.8-0.7c1.4,0,2.4,0.3,3.1,0.9c0.7,0.6,1.1,1.4,1.1,2.4
		c0,0.6-0.2,1.1-0.5,1.5c-0.3,0.4-0.8,0.8-1.5,1.1c0.8,0.2,1.5,0.6,1.9,1c0.4,0.5,0.6,1,0.6,1.7c0,0.9-0.4,1.7-1.2,2.3
		c-0.8,0.6-2,1-3.5,1c-2.7,0-4.3-1.1-4.9-3.2l2.7-0.5c0.4,1.1,1.2,1.7,2.2,1.7c0.6,0,1-0.2,1.3-0.4c0.3-0.3,0.5-0.6,0.5-1
		c0-0.4-0.2-0.8-0.5-1c-0.4-0.3-0.8-0.4-1.4-0.4H259.1L259.1,329z M267.4,322.3h2.9v7.2l4.6-7.2h2.9v11.4h-2.9v-7.3l-4.6,7.3h-2.9
		V322.3L267.4,322.3z M281.3,322.3h3v4.2h4.3v-4.2h3v11.4h-3v-4.8h-4.3v4.8h-3V322.3L281.3,322.3z M300.4,322.3h2.9v7.2l4.6-7.2h2.9
		v11.4h-2.9v-7.3l-4.6,7.3h-2.9V322.3L300.4,322.3z M329.7,325.7l-2.9,0.5c-0.1-0.6-0.3-1-0.7-1.3c-0.4-0.3-0.8-0.4-1.4-0.4
		c-0.7,0-1.3,0.3-1.8,0.8c-0.4,0.5-0.7,1.4-0.7,2.6c0,1.4,0.2,2.3,0.7,2.9c0.4,0.6,1,0.8,1.8,0.8c0.6,0,1-0.2,1.4-0.5
		c0.4-0.3,0.6-0.9,0.8-1.7l2.9,0.5c-0.3,1.4-0.9,2.4-1.7,3.1c-0.9,0.7-2,1-3.5,1c-1.6,0-3-0.5-3.9-1.6c-1-1.1-1.5-2.5-1.5-4.4
		c0-1.9,0.5-3.4,1.5-4.4c1-1.1,2.3-1.6,4-1.6c1.4,0,2.5,0.3,3.3,0.9C328.8,323.5,329.3,324.4,329.7,325.7L329.7,325.7z M339.1,330.1
		l3,0.5c-0.4,1.1-1,1.9-1.8,2.5c-0.8,0.6-1.9,0.9-3.1,0.9c-2,0-3.4-0.6-4.3-1.9c-0.7-1-1.1-2.4-1.1-3.9c0-1.9,0.5-3.4,1.5-4.4
		c1-1.1,2.2-1.6,3.7-1.6c1.7,0,3,0.6,4,1.7c1,1.1,1.4,2.8,1.4,5.2h-7.4c0,0.9,0.3,1.6,0.7,2.1c0.5,0.5,1,0.7,1.7,0.7
		c0.5,0,0.9-0.1,1.2-0.4C338.7,331.1,338.9,330.6,339.1,330.1L339.1,330.1z M339.2,327c0-0.9-0.2-1.5-0.7-2
		c-0.4-0.5-0.9-0.7-1.5-0.7c-0.6,0-1.2,0.2-1.6,0.7c-0.4,0.5-0.6,1.1-0.6,2H339.2L339.2,327z M345.1,322.3h2.8v1.7
		c0.4-0.6,0.8-1,1.5-1.4c0.6-0.4,1.3-0.5,2-0.5c1.3,0,2.4,0.5,3.3,1.6c0.9,1,1.4,2.5,1.4,4.3c0,1.9-0.5,3.4-1.4,4.4
		c-0.9,1.1-2,1.6-3.3,1.6c-0.6,0-1.2-0.1-1.7-0.4c-0.5-0.2-1-0.7-1.6-1.3v5.7h-3V322.3L345.1,322.3z M348.1,327.8
		c0,1.3,0.2,2.2,0.8,2.8c0.5,0.6,1.1,0.9,1.8,0.9c0.7,0,1.3-0.3,1.7-0.8c0.5-0.6,0.7-1.5,0.7-2.8c0-1.2-0.2-2.1-0.7-2.7
		c-0.5-0.6-1.1-0.9-1.8-0.9c-0.7,0-1.3,0.3-1.8,0.9C348.3,325.8,348.1,326.7,348.1,327.8L348.1,327.8z M359.1,322.3h6.5
		c1.3,0,2.3,0.2,3,0.7c0.7,0.5,1,1.2,1,2.2c0,0.6-0.2,1.2-0.5,1.7c-0.4,0.5-0.8,0.8-1.4,0.9c0.8,0.2,1.4,0.6,1.7,1.1
		c0.4,0.5,0.6,1.1,0.6,1.7c0,0.9-0.3,1.6-1,2.2c-0.6,0.6-1.6,0.8-2.9,0.8h-7.1V322.3L359.1,322.3z M362.1,327h1.9
		c0.9,0,1.6-0.1,2-0.4c0.4-0.2,0.6-0.6,0.6-1.1c0-0.5-0.2-0.8-0.6-1c-0.4-0.2-1.1-0.3-2.1-0.3h-1.9V327L362.1,327z M362.1,331.7h2.4
		c0.9,0,1.5-0.1,1.9-0.3c0.4-0.2,0.6-0.6,0.6-1.1c0-0.6-0.2-0.9-0.7-1.2c-0.4-0.2-1.3-0.3-2.6-0.3h-1.5V331.7L362.1,331.7z
		 M372.9,322.3h2.9v7.2l4.6-7.2h2.9v11.4h-2.9v-7.3l-4.6,7.3h-2.9V322.3L372.9,322.3z M396.8,325.7l-2.9,0.5c-0.1-0.6-0.3-1-0.7-1.3
		c-0.4-0.3-0.8-0.4-1.4-0.4c-0.7,0-1.3,0.3-1.8,0.8c-0.4,0.5-0.7,1.4-0.7,2.6c0,1.4,0.2,2.3,0.7,2.9c0.4,0.6,1,0.8,1.8,0.8
		c0.6,0,1-0.2,1.4-0.5c0.4-0.3,0.6-0.9,0.8-1.7l2.9,0.5c-0.3,1.4-0.9,2.4-1.7,3.1c-0.9,0.7-2,1-3.5,1c-1.6,0-3-0.5-3.9-1.6
		c-1-1.1-1.5-2.5-1.5-4.4c0-1.9,0.5-3.4,1.5-4.4c1-1.1,2.3-1.6,4-1.6c1.4,0,2.5,0.3,3.3,0.9C395.8,323.5,396.4,324.4,396.8,325.7
		L396.8,325.7z M399.5,322.3h3v4.2h4.3v-4.2h3v11.4h-3v-4.8h-4.3v4.8h-3V322.3L399.5,322.3z M413.4,322.3h3v4.7h3
		c1.2,0,2.1,0.1,2.7,0.3c0.6,0.2,1.1,0.5,1.6,1.1c0.4,0.6,0.6,1.2,0.6,2c0,1.1-0.4,1.9-1.1,2.5c-0.7,0.6-1.9,0.8-3.4,0.8h-6.4V322.3
		L413.4,322.3z M416.3,331.7h2.8c0.7,0,1.2-0.1,1.6-0.3c0.3-0.2,0.5-0.6,0.5-1.1c0-0.5-0.2-0.9-0.6-1.1c-0.4-0.2-1.2-0.3-2.3-0.3
		h-1.9V331.7L416.3,331.7z M425.9,322.3h3v11.4h-3V322.3L425.9,322.3z M432.4,322.3h2.9v7.2l4.6-7.2h2.9v11.4h-2.9v-7.3l-4.6,7.3
		h-2.9V322.3L432.4,322.3z M439.5,317.7h1.5c-0.1,1-0.4,1.7-1,2.3c-0.6,0.6-1.4,0.8-2.3,0.8c-0.9,0-1.7-0.3-2.3-0.8
		c-0.6-0.6-0.9-1.3-1-2.3h1.5c0.1,0.5,0.2,0.9,0.5,1.1c0.3,0.3,0.7,0.4,1.3,0.4c0.6,0,1-0.1,1.3-0.4
		C439.2,318.6,439.4,318.2,439.5,317.7L439.5,317.7z M451.7,322.3h3v9h4.3v-9h3v9h1.2v5.4h-2.4v-3h-9V322.3L451.7,322.3z
		 M472.3,330.1l3,0.5c-0.4,1.1-1,1.9-1.8,2.5c-0.8,0.6-1.9,0.9-3.1,0.9c-2,0-3.4-0.6-4.3-1.9c-0.7-1-1.1-2.4-1.1-3.9
		c0-1.9,0.5-3.4,1.5-4.4c1-1.1,2.2-1.6,3.7-1.6c1.7,0,3,0.6,4,1.7c1,1.1,1.4,2.8,1.4,5.2H468c0,0.9,0.3,1.6,0.7,2.1
		c0.5,0.5,1,0.7,1.7,0.7c0.5,0,0.9-0.1,1.2-0.4C471.9,331.1,472.1,330.6,472.3,330.1L472.3,330.1z M472.4,327c0-0.9-0.2-1.5-0.7-2
		c-0.4-0.5-0.9-0.7-1.5-0.7c-0.6,0-1.2,0.2-1.6,0.7c-0.4,0.5-0.6,1.1-0.6,2H472.4L472.4,327z M478.3,322.3h3v4.2h4.3v-4.2h3v11.4h-3
		v-4.8h-4.3v4.8h-3V322.3L478.3,322.3z M490.8,322.3H501v2.4h-3.6v9h-3v-9h-3.6V322.3L490.8,322.3z M503.3,322.3h2.8v1.7
		c0.4-0.6,0.8-1,1.5-1.4c0.6-0.4,1.3-0.5,2-0.5c1.3,0,2.4,0.5,3.3,1.6c0.9,1,1.4,2.5,1.4,4.3c0,1.9-0.5,3.4-1.4,4.4
		c-0.9,1.1-2,1.6-3.3,1.6c-0.6,0-1.2-0.1-1.7-0.4c-0.5-0.2-1-0.7-1.6-1.3v5.7h-3V322.3L503.3,322.3z M506.2,327.8
		c0,1.3,0.2,2.2,0.8,2.8c0.5,0.6,1.1,0.9,1.8,0.9c0.7,0,1.3-0.3,1.7-0.8c0.5-0.6,0.7-1.5,0.7-2.8c0-1.2-0.2-2.1-0.7-2.7
		c-0.5-0.6-1.1-0.9-1.8-0.9c-0.7,0-1.3,0.3-1.8,0.9C506.4,325.8,506.2,326.7,506.2,327.8z"/>
</g>
</svg>
