<?xml version="1.0" encoding="utf-8"?>
<!-- Generator: Adobe Illustrator 23.0.3, SVG Export Plug-In . SVG Version: 6.00 Build 0)  -->
<svg version="1.1" id="Слой_1" xmlns="http://www.w3.org/2000/svg" xmlns:xlink="http://www.w3.org/1999/xlink" x="0px" y="0px"
	 viewBox="0 0 612 518" style="enable-background:new 0 0 612 518;" xml:space="preserve">
<style type="text/css">
	.st0{fill:#F5FFF6;}
</style>
<g>
	<path class="st0" d="M331.8,229.6c-64.8-61.1-130.7-96.4-147.2-78.9c-8.2,8.6-2.7,28.6,12.7,53.8c4-4.2,8.8-7.6,14-9.9
		c-3.3-9.2-3.4-16.3,0.4-20.3c12.6-13.3,64.2,14.8,115.2,62.9s82.3,97.9,69.7,111.3c-12.6,13.3-64.2-14.8-115.2-62.9
		c-6.5-6.2-12.7-12.3-18.6-18.4c-2.8,2.9-5.8,5.4-9.3,7.5c6,6.1,12.1,12.3,18.7,18.3c64.8,61.1,130.7,96.4,147.2,78.9
		C435.8,354.4,396.7,290.7,331.8,229.6z"/>
	<g>
		<path class="st0" d="M203.7,266.1c6.4,5.6,14.6,9.1,23.6,9.8v-33.4L203.7,266.1z"/>
		<path class="st0" d="M190.1,238.6c0.6,9,4.2,17.2,9.8,23.6l23.6-23.6H190.1z"/>
		<path class="st0" d="M199.9,209.6c-5.6,6.4-9.1,14.6-9.8,23.6h33.4L199.9,209.6z"/>
		<path class="st0" d="M227.3,195.9c-9,0.6-17.2,4.2-23.6,9.8l23.6,23.6V195.9z"/>
		<path class="st0" d="M256.4,205.7c-6.4-5.6-14.6-9.1-23.6-9.8v33.4L256.4,205.7z"/>
		<path class="st0" d="M270.1,233.1c-0.6-9-4.2-17.2-9.8-23.6l-23.6,23.6H270.1z"/>
		<path class="st0" d="M236.7,238.6l23.6,23.6c5.6-6.4,9.1-14.6,9.8-23.6H236.7z"/>
		<path class="st0" d="M232.8,275.9c9-0.6,17.2-4.2,23.6-9.8l-23.6-23.6V275.9z"/>
	</g>
	<path class="st0" d="M253.4,283.3c0,0-58.1,55.9-60.2,83.2c0,0,73.8-62,82.4-60.4L253.4,283.3z"/>
	<path class="st0" d="M272.3,268.7l25.3,25.8l49.3-27.4L304.4,227C294.6,244,283.5,257.9,272.3,268.7z"/>
	<path class="st0" d="M315.4,207.2c4.2-0.1,11.3-61.4,8.4-62h109.9c1.4,36-21.8,71.1-71.3,105.3
		C350.5,237.2,333.9,221.6,315.4,207.2z"/>
</g>
</svg>
