<?xml version="1.0" encoding="utf-8"?>
<!-- Generator: Adobe Illustrator 23.0.2, SVG Export Plug-In . SVG Version: 6.00 Build 0)  -->
<svg version="1.1" id="Слой_1" xmlns="http://www.w3.org/2000/svg" xmlns:xlink="http://www.w3.org/1999/xlink" x="0px" y="0px"
	 viewBox="0 0 612 518" style="enable-background:new 0 0 612 518;" xml:space="preserve">
<style type="text/css">
	.st0{fill:#4C8DC5;}
	.st1{fill:#4692D2;}
</style>
<title>Монтажная область 1 копия 5</title>
<path class="st0" d="M264.7,401.1c-9.5-2.7-18.7-6.4-27.5-11l0.1-0.2c8.4,1.6,16.9,5,27.5,11L264.7,401.1z"/>
<path class="st1" d="M237.2,390c9.7,1.8,18.8,6.1,27.5,11C255.2,398.3,246,394.6,237.2,390 M237.2,389.8l-0.2,0.5
	c8.8,4.6,18,8.3,27.5,11l0.2-0.5C254.1,394.7,245.6,391.3,237.2,389.8L237.2,389.8z"/>
<g>
	<rect x="160.7" y="245.2" class="st1" width="16.4" height="48.5"/>
	<polygon class="st1" points="223.7,267.3 205.3,245.3 191.8,245.3 191.8,293.7 207.8,293.7 207.8,271.7 226.2,293.7 239.6,293.7 
		239.6,245.3 223.7,245.3 	"/>
	<polygon class="st1" points="250.8,257.9 265,257.9 265,293.7 281.3,293.7 281.3,257.9 295.5,257.9 295.5,245.3 250.8,245.3 	"/>
	<polygon class="st1" points="303.7,257.9 317.9,257.9 317.9,293.7 334.2,293.7 334.2,257.9 348.4,257.9 348.4,245.3 303.7,245.3 	
		"/>
	<polygon class="st1" points="375.6,275 396.1,275 396.1,263.3 375.6,263.3 375.6,257.6 399,257.6 399,245.3 359.6,245.3 
		359.6,293.7 399.9,293.7 399.9,281.4 375.6,281.4 	"/>
	<polygon class="st1" points="429.5,245.3 413.1,245.3 413.1,293.7 451.3,293.7 451.3,281 429.5,281 	"/>
	<path class="st0" d="M170.3,319.7l0.1,0L170.3,319.7c-0.3-0.7-0.6-1.4-0.9-2l0.1-0.2h5.8v0.2c-1.8,0.8-3.4,1.4-4.8,2.1L170.3,319.7
		z"/>
	<path class="st1" d="M175.2,317.6L175.2,317.6 M175.2,317.6c-1.6,0.6-3.2,1.3-4.9,2.1c-0.3-0.7-0.6-1.4-0.9-2.1H175.2 M175.2,317.3
		h-5.8l-0.2,0.4c0.3,0.7,0.6,1.4,0.9,2.1l0.3,0.1c1.5-0.7,3-1.3,4.8-2.1L175.2,317.3L175.2,317.3L175.2,317.3z"/>
	<path class="st0" d="M377.8,126.2c-6.9-2.6-14.1-5.2-21.9-8l-3.9-1.3c-7.5-2.7-15.3-5.1-23.3-7.2l0-0.3
		c17.2,2.6,33.9,8.2,49.1,16.5L377.8,126.2z"/>
	<path class="st1" d="M328.7,109.6c17.2,2.6,33.8,8.2,49.1,16.5c-6.8-2.6-14.2-5.2-21.9-8l-3.9-1.4
		C344.5,114,336.6,111.6,328.7,109.6 M328.7,109.3l-0.1,0.5c8,2.1,15.8,4.5,23.3,7.2l3.9,1.4c7.7,2.8,15,5.4,21.9,8l0.2-0.4
		C362.6,117.5,346,111.9,328.7,109.3L328.7,109.3z"/>
	<path class="st0" d="M161.4,220.5l-0.1-0.2c2-7.8,4.6-15.4,7.8-22.7l0.2,0.1c-1,7.1-2.6,14.8-7.7,22.8l-0.1,0.1H161.4z"/>
	<path class="st1" d="M169.3,197.7L169.3,197.7 M169.3,197.7c-1.1,7.9-2.8,15.1-7.7,22.7h-0.1C163.4,212.6,166,205,169.3,197.7
		 M169.3,197.4L169.3,197.4v0.2l-0.2-0.1c-3.2,7.4-5.8,15-7.8,22.8l0.2,0.3h0.1l0.2-0.1c5.1-8,6.7-15.7,7.7-22.8l-0.3-0.1
		L169.3,197.4L169.3,197.4z"/>
	<path class="st0" d="M393,135.8c-10.5-4.9-24-9.7-38.2-14.7l-3.8-1.4c-14.3-5.1-29-9-44-11.7v-0.3c7.3,0,14.5,0.6,21.7,1.7
		c8,2.1,15.9,4.5,23.3,7.2l3.9,1.4c7.7,2.8,15,5.3,21.9,8c5.3,2.9,10.4,6.1,15.3,9.6L393,135.8z"/>
	<path class="st1" d="M307,107.9c7.3,0,14.5,0.6,21.7,1.7c7.9,2.1,15.7,4.5,23.3,7.2l3.9,1.4c7.7,2.7,15.1,5.4,21.9,8
		c5.3,2.9,10.4,6.1,15.3,9.6c-10.5-4.8-23.7-9.6-38.2-14.7l-3.9-1.4C336.7,114.5,322,110.6,307,107.9 M307,107.7l0,0.5
		c15,2.7,29.7,6.6,44,11.7l3.9,1.4c14.2,5.1,27.6,9.8,38.2,14.7l0.3-0.4c-4.9-3.5-10-6.7-15.3-9.6c-6.9-2.6-14.2-5.2-21.9-8
		l-3.9-1.4c-7.5-2.7-15.4-5.1-23.3-7.2C321.6,108.2,314.3,107.7,307,107.7L307,107.7z"/>
	<path class="st0" d="M415.7,155.8c-6-3.6-15.4-6.7-26.2-10.3c-9-3-19.2-6.3-29.9-10.7c-27.2-11.3-56.2-17.4-81.8-17.4
		c-11-0.1-21.9,1.2-32.6,3.8l-0.1-0.2c5-2.2,10-4.2,15.2-5.8c5.8-0.7,11.6-1,17.4-1c26,0,55.5,6.3,83,17.7
		c10.6,4.4,20.7,7.7,29.6,10.6c7.8,2.6,13.7,4.6,18.8,6.7c2.3,2.2,4.5,4.4,6.5,6.6L415.7,155.8z"/>
	<path class="st1" d="M277.9,114.1c27.2,0,56.5,6.7,83,17.7c10.5,4.4,20.7,7.7,29.6,10.6c7.2,2.4,13.5,4.5,18.8,6.7
		c2.2,2.1,4.4,4.3,6.5,6.5c-6-3.6-15.1-6.6-26.3-10.3c-9-3-19.2-6.3-29.9-10.7c-26.1-10.8-55-17.5-81.8-17.5
		c-11-0.1-21.9,1.2-32.6,3.8c5-2.2,10-4.2,15.2-5.8C266.2,114.4,272.1,114.1,277.9,114.1 M277.9,113.9c-5.8,0-11.6,0.3-17.4,1
		c-5.2,1.7-10.3,3.6-15.3,5.9l0.2,0.5c10.7-2.6,21.6-3.9,32.6-3.8c25.5,0,54.6,6.2,81.7,17.4c10.7,4.4,20.9,7.8,29.9,10.7
		c10.8,3.6,20.2,6.6,26.2,10.3l0.3-0.4c-2-2.1-4.2-4.4-6.5-6.6l-0.1-0.1c-5.5-2.3-12.3-4.5-18.9-6.7c-8.9-2.9-19.1-6.3-29.6-10.6
		C333.4,120.2,303.9,113.9,277.9,113.9L277.9,113.9z"/>
	<path class="st0" d="M171.3,220.5l-0.1-0.2c2.3-5.4,3.4-11,4.8-17.5c2.1-11.6,5.4-23,9.8-34c2.4-3.2,5-6.5,7.8-9.7l0.2,0.1
		c-0.9,1.7-1.7,3.4-2.5,5.1c-7.6,17-10.1,29.2-12,39.1c-1.3,6.3-2.4,11.7-4.4,17l-0.1,0.1L171.3,220.5z"/>
	<path class="st1" d="M193.6,159.3L193.6,159.3 M193.6,159.3c-0.9,1.6-1.7,3.3-2.5,5.1c-7.6,17-10.1,29.3-12.1,39.1
		c-1.3,6.3-2.4,11.7-4.4,16.9h-3.3c2.3-5.4,3.4-11,4.8-17.5c2.1-11.6,5.4-23,9.8-33.9C188.3,165.6,190.8,162.4,193.6,159.3
		 M193.6,159L193.6,159v0.2l-0.2-0.1c-2.8,3.2-5.4,6.5-7.8,9.6v0.1c-4.4,11-7.7,22.4-9.8,34c-1.3,6.5-2.4,12.1-4.7,17.5l0.2,0.4h3.3
		l0.2-0.2c2.1-5.3,3.1-10.7,4.4-17c2-9.8,4.4-22.1,12-39.1c0.7-1.7,1.6-3.4,2.5-5l-0.2-0.1L193.6,159L193.6,159z"/>
	<path class="st0" d="M183.9,220.5l-0.1-0.2c0.6-1.9,1.2-3.8,1.8-5.9c3.4-12.3,7.9-24.3,13.2-35.9c10.2-22.3,26.7-37.8,48.9-45.9
		c12.6-4.4,25.9-6.6,39.2-6.4c25.9,0,54.5,7.1,82.8,20.5c13.7,6.5,27,9.8,37.8,12.4c5.1,1.1,10.2,2.6,15.2,4.3
		c1.5,1.9,2.9,3.6,4.2,5.4l-0.2,0.2l-0.3-0.2c-0.1-0.1-0.3-0.2-0.4-0.3c-4.2-2.5-10.9-4.1-19.3-6.1c-10.9-2.7-24.4-6-38.4-12.6
		c-27.6-13.1-55.9-20-81.8-20c-14,0-26.6,2-37.7,6.1c-21.4,7.8-37.2,22.6-47,44.1c-5.3,11.5-9.6,23.3-13,35.5
		c-0.5,1.8-1,3.5-1.5,5.1l-0.1,0.1L183.9,220.5z"/>
	<path class="st1" d="M286.9,126.4c25.6,0,54.2,6.9,82.8,20.5c13.7,6.5,27.1,9.8,37.8,12.4c5.1,1.1,10.2,2.6,15.2,4.3
		c1.4,1.8,2.8,3.5,4.1,5.3l-0.7-0.5c-4.2-2.5-10.9-4.1-19.3-6.2c-10.8-2.7-24.3-6-38.4-12.6c-27.9-13.2-56.5-20-81.8-20
		c-13.8,0-26.5,2-37.8,6.1c-21.4,7.8-37.2,22.7-47.1,44.2c-5.3,11.5-9.6,23.3-13,35.5c-0.5,1.8-1,3.5-1.5,5.1h-3.2
		c0.6-1.9,1.2-3.8,1.8-5.9c3.4-12.3,7.8-24.3,13.2-35.9c10.2-22.3,26.6-37.7,48.8-45.8C260.3,128.4,273.5,126.3,286.9,126.4
		 M286.9,126.2c-13.4-0.2-26.7,2-39.3,6.4c-22.3,8.1-38.7,23.6-48.9,45.9c-5.3,11.6-9.7,23.6-13.2,35.9c-0.6,2.2-1.2,4.1-1.8,5.9
		l0.2,0.3h3.2l0.2-0.2c0.5-1.6,1-3.3,1.5-5.1c3.4-12.1,7.7-24,13-35.4c9.8-21.5,25.6-36.3,46.9-44.1c11.1-4,23.8-6.1,37.7-6.1
		c25.8,0,54.1,6.9,81.7,20c14,6.6,27.5,10,38.4,12.6c8.4,2.1,15.1,3.7,19.3,6.1l0.4,0.3l0.3,0.2l0.3-0.4c-1.3-1.7-2.7-3.5-4.1-5.4
		l-0.1-0.1c-5-1.7-10.1-3.1-15.2-4.3c-10.7-2.6-24-5.9-37.7-12.4C341.4,133.2,312.8,126.1,286.9,126.2L286.9,126.2z"/>
	<path class="st0" d="M198.2,220.5l-0.1-0.2c2.9-7.3,6.2-15.5,11.2-26.3c11.9-25.4,30-42.4,53.9-50.3c10.6-3.4,21.6-5.1,32.8-5
		c25.9,0,54.4,8,82.5,23c15.2,8.2,30.5,10.3,41.6,11.8c3.8,0.5,7.7,1.1,11.4,2l0.3,0.4c0.8,1.2,1.6,2.4,2.4,3.7l-0.1,0.2
		c-3.3-1.4-8.4-2.1-14.4-2.9c-11.4-1.6-27-3.7-42.7-12.2C349.3,149.9,321.3,142,296,142c-10.8-0.1-21.5,1.5-31.8,4.8
		c-23,7.6-40.5,24-52,48.6c-4.9,10.4-8.1,18.5-10.7,25l-0.1,0.1L198.2,220.5z"/>
	<path class="st1" d="M296,138.9c25.5,0,54.1,7.9,82.4,23c15.3,8.2,30.5,10.3,41.6,11.8c3.8,0.5,7.6,1.1,11.4,1.9
		c0.9,1.3,1.7,2.6,2.5,4c-3.3-1.4-8.4-2.1-14.4-2.9c-11.4-1.6-26.9-3.7-42.7-12.1c-27.8-14.9-55.9-22.7-81-22.7
		c-10.8-0.1-21.5,1.5-31.8,4.8c-23,7.6-40.5,24-52,48.6c-4.8,10.3-8.1,18.4-10.7,25h-3.3c2.7-6.9,6.1-15.4,11.2-26.3
		c11.9-25.4,30-42.3,53.8-50.2C273.9,140.4,284.9,138.7,296,138.9 M296,138.6c-11.1-0.1-22.2,1.6-32.8,5
		c-23.9,7.9-42.1,24.9-54,50.3c-5,10.8-8.4,19-11.2,26.3l0.2,0.3h3.3l0.2-0.2c2.6-6.5,5.8-14.6,10.7-25
		c11.5-24.6,28.9-40.9,51.9-48.5c10.2-3.3,20.9-4.9,31.7-4.8c25.3,0,53.2,7.8,80.8,22.6c15.8,8.5,31.4,10.6,42.7,12.2
		c5.9,0.8,11.1,1.5,14.3,2.9l0.3-0.4c-0.8-1.2-1.5-2.5-2.3-3.6l-0.2-0.4l-0.1-0.1c-3.8-0.9-7.6-1.5-11.5-2
		c-11.1-1.5-26.3-3.6-41.5-11.8C350.4,146.6,321.9,138.6,296,138.6L296,138.6z"/>
	<path class="st0" d="M214.9,220.5l-0.1-0.2c1.5-3.3,3.2-6.9,5.1-10.8c13.6-28.6,33.3-46.9,58.5-54.6c8.9-2.6,18.1-3.9,27.4-3.9
		c25.3,0,53.4,8.9,81.4,25.8c16,9.6,32,9.9,43.7,10.1c2.6,0,5.2,0.1,7.4,0.3l0.1,0.1c0.6,1.1,1.1,2.1,1.6,3.2l-0.1,0.2
		c-2.5-0.3-5.5-0.4-9.1-0.4c-12.1-0.2-28.6-0.5-45.4-10.6c-27.5-16.5-55-25.3-79.7-25.3c-9-0.1-17.9,1.2-26.5,3.8
		c-24.3,7.3-43.3,25.1-56.5,52.8c-1.6,3.4-3.1,6.6-4.5,9.5l-0.1,0.1H214.9z"/>
	<path class="st1" d="M305.9,151.2c25.1,0,53.1,8.8,81.4,25.8c16,9.7,32.1,9.9,43.8,10.1c2.8,0,5.3,0.1,7.4,0.3
		c0.6,1.1,1.1,2.1,1.6,3.2c-3-0.3-6.1-0.4-9.1-0.4c-12-0.2-28.5-0.5-45.3-10.6c-27.7-16.7-55.2-25.3-79.8-25.3
		c-9-0.1-17.9,1.2-26.5,3.7c-24.3,7.4-43.3,25.1-56.6,52.9c-1.6,3.4-3.1,6.6-4.5,9.5h-3.4c1.5-3.3,3.2-6.9,5.1-10.8
		c13.6-28.6,33.3-46.9,58.4-54.5C287.4,152.5,296.6,151.2,305.9,151.2 M305.8,151c-9.3-0.1-18.5,1.3-27.5,3.9
		c-25.3,7.6-45,26-58.6,54.6c-1.6,3.5-3.3,6.9-5.1,10.8l0.2,0.4h3.4l0.2-0.1c1.6-3.4,3-6.5,4.5-9.5c13.2-27.7,32.1-45.4,56.4-52.7
		c8.6-2.5,17.5-3.8,26.5-3.7c24.6,0,52.2,8.7,79.6,25.3c16.8,10.1,33.4,10.4,45.4,10.6c3,0,6.1,0.1,9.1,0.4l0.3-0.4
		c-0.5-1-1.1-2.1-1.6-3.2l-0.2-0.1c-2.2-0.2-4.8-0.2-7.4-0.3c-11.7-0.2-27.7-0.5-43.7-10.1C359.3,159.9,331.1,151,305.8,151
		L305.8,151z"/>
	<path class="st0" d="M232.9,220.5l-0.1-0.2c15.1-29.1,35.4-47.2,60.3-54c7.5-2,15.1-3,22.9-3c31,0,60.6,15.5,80,28.5
		c8.8,5.9,18.9,8.8,30.7,8.8c4.8-0.1,9.5-0.4,14.3-1l3.1-0.3l0.1,0.1c0.3,0.6,0.5,1.3,0.8,1.9l0.4,1.1l-0.1,0.2
		c-1.2,0.1-2.5,0.3-3.9,0.4c-4.9,0.6-9.8,1-14.7,1c-12.5,0-23.1-3-32.5-9.4c-19-12.8-48-28-78.2-28c-7.4,0-14.8,0.9-22,2.9
		c-23.6,6.4-42.9,23.5-57.5,50.9l-0.1,0.1L232.9,220.5z"/>
	<path class="st1" d="M316,163.5c30.3,0,59.3,14.6,80,28.5c10.5,7.1,21.4,8.8,30.8,8.8c4.8-0.1,9.6-0.4,14.3-1l3.1-0.4
		c0.4,1,0.8,2,1.2,2.9c-1.2,0.1-2.5,0.3-4,0.4c-4.9,0.6-9.8,1-14.7,1.1c-9.8,0-21.2-1.8-32.4-9.3c-20.3-13.6-48.7-28-78.3-28
		c-7.4,0-14.8,1-22,2.9c-23.6,6.4-43,23.5-57.6,51H233c15.1-29,35.4-47.1,60.2-53.9C300.7,164.6,308.4,163.6,316,163.5 M316.1,163.3
		c-7.7,0-15.4,1-22.9,3c-24.9,6.8-45.2,24.9-60.4,54l0.2,0.4h3.4l0.2-0.1c14.6-27.3,33.9-44.4,57.5-50.8c7.2-1.9,14.6-2.9,22-2.9
		c30.1,0,59.1,15.2,78.1,28c9.4,6.3,20,9.4,32.5,9.4c4.9-0.1,9.9-0.4,14.8-1.1l3.9-0.4l0.2-0.3c-0.1-0.3-0.3-0.7-0.4-1
		c-0.2-0.6-0.5-1.3-0.8-1.9l-0.3-0.1c-1,0.1-2,0.2-3.1,0.3c-4.7,0.6-9.5,0.9-14.3,1c-11.8,0-21.9-2.9-30.6-8.8
		C376.8,178.9,347.1,163.4,316.1,163.3L316.1,163.3z"/>
	<path class="st0" d="M252.7,220.5l-0.1-0.2c15.3-23,33.7-37.2,54.9-42.4c6-1.4,12.2-2.2,18.4-2.1c24.2,0,51.5,10.8,79.1,31.2
		c7.2,5.5,16.1,8.4,25.2,8.2c6.4-0.2,12.8-1.1,18.9-2.8l0.1,0.1c0.2,0.6,0.4,1.3,0.6,2l0.3,1l-0.1,0.1c-6.4,1.8-13.1,2.8-19.8,2.9
		c-9.8,0.2-19.4-2.9-27.2-8.8c-26.9-20-53.6-30.6-77.1-30.6c-5.9,0-11.8,0.7-17.6,2.1c-19.8,4.8-37.2,18-51.8,39.3l-0.1,0.1
		L252.7,220.5z"/>
	<path class="st1" d="M325.8,175.9c24.3,0,51.2,10.6,79,31.2c7.3,5.5,16.1,8.4,25.2,8.2c6.4-0.2,12.8-1.1,19-2.8
		c0.3,1,0.6,1.9,0.9,2.9c-6.4,1.8-13.1,2.8-19.8,2.9c-9.8,0.1-19.3-3-27.1-8.8c-27.3-20.2-53.6-30.5-77.2-30.5
		c-5.9,0-11.9,0.6-17.6,2c-19.9,4.8-37.3,18.1-51.8,39.4h-3.7c15.2-23,33.6-37.2,54.8-42.3C313.4,176.6,319.6,175.9,325.8,175.9
		 M325.8,175.6c-6.2,0-12.4,0.7-18.4,2.2c-21.2,5.1-39.6,19.4-54.9,42.4l0.2,0.4h3.7l0.2-0.1c14.5-21.3,31.9-34.5,51.7-39.3
		c5.8-1.4,11.7-2.1,17.6-2.1c23.5,0,50.1,10.6,77,30.5c7.9,5.9,17.4,9,27.3,8.9c6.7-0.1,13.4-1.1,19.8-2.9l0.2-0.3l-0.3-1
		c-0.2-0.7-0.4-1.3-0.6-2l-0.3-0.2c-6.1,1.8-12.5,2.8-18.9,2.9c-9,0.1-17.9-2.7-25.1-8.2C377.4,186.5,350,175.7,325.8,175.6
		L325.8,175.6z"/>
	<path class="st0" d="M406.4,220.5c-25.1-19.4-48.7-29.2-70.2-29.2c-4.8,0-9.6,0.5-14.3,1.5c-15.7,3.4-30.2,12.7-43.3,27.6h-0.1h-4
		l-0.1-0.2c14-16.7,29.8-27,46.9-30.7c4.9-1.1,10-1.6,15-1.6c23.1,0,48.4,10.8,75.2,32.2l-0.1,0.2L406.4,220.5z"/>
	<path class="st1" d="M336.2,188.2c23.1,0,48.3,10.8,75.1,32.2h-4.9c-25.1-19.4-48.7-29.1-70.2-29.1c-4.8,0-9.6,0.5-14.3,1.5
		c-15.8,3.4-30.3,12.7-43.4,27.6h-4c14-16.6,29.6-26.9,46.8-30.6C326.2,188.7,331.2,188.2,336.2,188.2 M336.2,187.9L336.2,187.9
		c-5,0-10.1,0.5-15,1.6c-17.1,3.7-32.9,14-46.9,30.7l0.2,0.4h4l0.2-0.1c13.1-14.9,27.6-24.2,43.3-27.6c4.7-1,9.5-1.5,14.3-1.5
		c21.4,0,45,9.8,70,29.1l0.1,0.1h4.9l0.2-0.4C384.6,198.8,359.3,188,336.2,187.9L336.2,187.9z"/>
	<path class="st0" d="M171.5,322.5c-0.3-0.6-0.5-1.2-0.8-1.8c-0.2-0.3-0.3-0.7-0.5-1l0.1-0.2c1.5-0.7,3-1.3,4.9-2.1h8.8v0.3
		c-4.2,1.4-8.2,3-12.3,4.8L171.5,322.5z"/>
	<path class="st1" d="M184,317.6L184,317.6 M184,317.6c-3.8,1.3-7.9,2.9-12.4,4.8c-0.4-0.9-0.8-1.9-1.3-2.8c1.7-0.8,3.3-1.4,4.9-2.1
		H184 M184,317.3h-8.8h-0.1c-1.8,0.7-3.3,1.4-4.9,2.1l-0.1,0.3c0.2,0.3,0.3,0.7,0.5,1c0.3,0.6,0.5,1.2,0.8,1.8l0.3,0.1
		c4.1-1.9,8.2-3.4,12.3-4.8L184,317.3L184,317.3L184,317.3z M184,317.8L184,317.8z"/>
	<path class="st0" d="M395.5,220.5c-17.4-11.2-33.9-16.8-49.2-16.8c-3.7,0-7.4,0.3-11.1,1c-10.9,2.1-21.5,7.4-31.6,15.8h-4.7
		l-0.1-0.2c11.3-10.1,23.3-16.5,35.8-18.8c3.9-0.7,7.8-1.1,11.7-1.1c17,0,35.4,6.7,54.7,19.9l-0.1,0.2L395.5,220.5z"/>
	<path class="st1" d="M346.3,200.5c17,0,35.3,6.7,54.7,19.9h-5.5c-17.4-11.2-33.9-16.8-49.2-16.8c-3.7,0-7.4,0.3-11.1,1
		c-11,2.1-21.6,7.4-31.6,15.8h-4.6c11.3-10.1,23.2-16.4,35.7-18.8C338.5,200.8,342.4,200.5,346.3,200.5 M346.3,200.2
		c-3.9,0-7.9,0.4-11.7,1.1c-12.5,2.4-24.5,8.7-35.8,18.9l0.2,0.4h4.6l0.2-0.1c10-8.4,20.6-13.7,31.5-15.8c3.7-0.7,7.4-1,11.1-1
		c15.2,0,31.7,5.7,49,16.8h0.1h5.6l0.1-0.4C381.8,206.9,363.4,200.2,346.3,200.2L346.3,200.2z"/>
	<path class="st0" d="M380.2,220.5c-7.4-2.9-15.3-4.5-23.3-4.6c-2.9,0-5.9,0.2-8.8,0.7c-4.5,0.8-8.9,2.1-13.1,3.9H328l-0.1-0.2
		c6.1-3.4,12.8-5.7,19.7-6.9c3.1-0.5,6.2-0.8,9.3-0.8c9.9,0,20.4,2.6,31.1,7.7l-0.1,0.2L380.2,220.5z"/>
	<path class="st1" d="M357,212.8c9.9,0,20.3,2.5,31,7.6h-7.7c-7.4-2.9-15.3-4.5-23.3-4.6c-2.9,0-5.9,0.2-8.8,0.7
		c-4.5,0.8-9,2.1-13.2,3.9h-7c6.1-3.4,12.8-5.7,19.7-6.9C350.8,213,353.9,212.8,357,212.8 M357,212.5c-3.1,0-6.3,0.3-9.4,0.8
		c-6.9,1.2-13.6,3.5-19.8,6.9l0.1,0.5h7h0.1c4.2-1.8,8.6-3.1,13-3.9c2.9-0.5,5.8-0.7,8.8-0.7c8,0.1,15.8,1.6,23.2,4.6h7.9l0.1-0.5
		C377.4,215.1,366.9,212.5,357,212.5L357,212.5z"/>
	<path class="st0" d="M176.4,331.7l-0.5-0.9c-0.3-0.6-0.7-1.1-1-1.7l0.1-0.2c13.3-5.8,25.3-8.5,37.7-8.5c4.6,0.1,9.3,0.3,13.9,0.9
		c3.4,0.3,6.6,0.7,9.6,0.7c6,0,10.4-1.3,14.8-4.5h4.7l0.1,0.2c-7.4,6.7-14.1,7.6-19.6,7.6c-3.2,0-6.4-0.3-9.9-0.7
		c-4.5-0.5-9-0.8-13.5-0.9c-11.9,0-23.4,2.5-36.2,8L176.4,331.7z"/>
	<path class="st1" d="M255.8,317.6c-6.7,6-12.8,7.5-19.5,7.5c-3.3-0.1-6.6-0.3-9.9-0.7c-4.5-0.5-9-0.8-13.5-0.9
		c-9.5,0-21.2,1.6-36.3,8.1c-0.5-0.9-1-1.8-1.5-2.7c15.7-6.8,27.8-8.5,37.7-8.5c4.6,0,9.3,0.3,13.9,0.9c3.5,0.4,6.7,0.7,9.6,0.7
		c5.3,0.2,10.6-1.4,14.9-4.5L255.8,317.6 M255.7,317.3h-4.6l-0.1,0c-4.3,3.1-8.7,4.5-14.7,4.5c-3.2-0.1-6.4-0.3-9.6-0.7
		c-4.6-0.5-9.3-0.8-13.9-0.9c-12.4,0-24.4,2.7-37.8,8.5l-0.1,0.3c0.3,0.6,0.7,1.2,1,1.7c0.2,0.3,0.4,0.6,0.6,0.9l0.3,0.1
		c12.8-5.5,24.3-8,36.2-8c4.5,0,9,0.3,13.5,0.9c3.5,0.4,6.8,0.7,9.9,0.7c5.6,0,12.3-0.9,19.7-7.6L255.7,317.3L255.7,317.3z"/>
	<path class="st0" d="M181.9,340.6c-0.4-0.6-0.7-1.1-1.1-1.7l-0.5-0.8l0.1-0.2c11.2-4.6,21.7-6.8,32.2-6.8
		c7.4,0.1,14.7,1.1,21.9,2.7c5.2,1.1,9.7,2,14.1,2l0,0c10,0,17.5-5.3,26.1-18.2l0.1-0.1h3.6l0.1,0.2c-9.7,15-18.7,21.4-30,21.4
		c-4.7,0-9.5-1-14.6-2c-6.2-1.3-13.3-2.7-21.5-2.7c-9.8,0-19.7,2.1-30.2,6.4L181.9,340.6z"/>
	<path class="st1" d="M278.3,317.6c-11,17-20.1,21.3-29.9,21.3c-4.6,0-9.4-1-14.6-2c-6.4-1.3-13.4-2.7-21.5-2.7
		c-8.6,0-18.4,1.5-30.2,6.4c-0.6-0.8-1.1-1.7-1.6-2.6c12.6-5.2,23.1-6.8,32.2-6.8c7.4,0.1,14.7,1,21.9,2.7c5.2,1.1,9.8,2,14.1,2
		c8.8,0,16.6-3.8,26.2-18.3L278.3,317.6 M278.3,317.4h-3.6l-0.2,0.1c-8.6,12.9-16.1,18.2-26,18.2c-4.3,0-8.8-0.9-14-2
		c-7.2-1.7-14.5-2.6-21.9-2.7c-10.5,0-21.1,2.2-32.3,6.9l-0.1,0.4l0.5,0.9c0.4,0.6,0.7,1.1,1.1,1.7l0.3,0.1
		c10.5-4.3,20.4-6.4,30.1-6.4c8.2,0,15.3,1.4,21.5,2.7c5.1,1,10,2,14.7,2c11.4,0,20.4-6.4,30.1-21.5L278.3,317.4L278.3,317.4z"/>
	<path class="st0" d="M259.6,353.2c-6,0-12.1-1.8-18.6-3.7c-7.9-2.4-16.9-5-27.5-5c-8.6,0.1-17.1,1.7-25.1,4.8h-0.1l-0.6-0.8
		c-0.4-0.6-0.9-1.1-1.3-1.7v-0.2c8.6-3.5,17.8-5.3,27.1-5.4c11.1,0,20.4,2.8,28.6,5.2c6.6,2,12.3,3.6,17.8,3.6
		c12.4,0,22.3-9.2,34.1-31.9l0.3-0.5l0.1-0.1h3.5l0.1,0.2l-0.5,0.9c-0.2,0.3-0.4,0.7-0.6,1C284.5,343.1,273.4,353.2,259.6,353.2z"/>
	<path class="st1" d="M297.7,317.6c-0.3,0.6-0.7,1.3-1,1.9c-13.8,26.6-25.3,33.6-37,33.6c-6,0-12-1.8-18.6-3.7c-8-2.4-16.9-5-27.6-5
		c-8.6,0.1-17.2,1.7-25.2,4.8c-0.7-0.8-1.3-1.7-2-2.5c8.6-3.5,17.7-5.3,27-5.4c11,0,20.2,2.7,28.5,5.2c6.5,1.9,12.3,3.6,17.8,3.6
		c11,0,21.1-6.8,34.2-32l0.3-0.5L297.7,317.6 M297.6,317.3h-3.5l-0.2,0.1l-0.1,0.2c0,0.1-0.1,0.2-0.1,0.3
		c-11.8,22.6-21.6,31.9-34,31.9c-5.5,0-11.2-1.7-17.8-3.6c-8.2-2.4-17.5-5.2-28.6-5.2c-9.3,0.1-18.5,1.9-27.1,5.4l-0.1,0.4
		c0.4,0.6,0.9,1.1,1.3,1.7l0.7,0.8l0.3,0.1c8-3.1,16.5-4.8,25.1-4.8c10.6,0,19.6,2.7,27.5,5c6.5,1.9,12.6,3.7,18.6,3.7
		c13.8,0,25-10.1,37.2-33.7l0.5-1l0.5-0.9L297.6,317.3L297.6,317.3z"/>
	<path class="st0" d="M270.8,367.7c-7.3,0-14.8-2.8-22.7-5.8c-9.4-3.5-20-7.5-32.7-7.5c-6.8,0-13.6,1.1-20.1,3.3h-0.1
		c-0.5-0.6-1-1.1-1.5-1.7l-0.7-0.8l0.1-0.2c7.2-2.6,14.7-3.9,22.3-3.9c13.2,0,24.2,4.1,33.9,7.8c7.8,3,14.6,5.5,21.3,5.5
		c12.4,0,22.5-9.2,33.8-30.8c2.8-5.3,5.6-10.5,8.8-16l0.1-0.1h3.5l0.1,0.2c-3.3,5.6-6.5,11.5-9.6,17.4
		C295.5,357.6,284.2,367.7,270.8,367.7z"/>
	<path class="st1" d="M316.8,317.6c-3.2,5.5-6.4,11.2-9.6,17.4c-13.3,25.3-24.7,32.6-36.4,32.6c-7.3,0-14.6-2.8-22.6-5.8
		c-9.4-3.5-20-7.5-32.7-7.5c-6.8,0-13.6,1.1-20.1,3.3c-0.7-0.8-1.4-1.7-2.2-2.5c7.1-2.6,14.7-3.9,22.3-3.9c13.1,0,24.1,4.1,33.8,7.8
		c7.7,2.9,14.6,5.5,21.3,5.5c11,0,21.4-7,33.9-30.9c3-5.7,5.9-10.9,8.8-16H316.8 M316.8,317.3h-3.5l-0.2,0.1c-3.2,5.5-6,10.8-8.8,16
		c-11.3,21.6-21.4,30.8-33.7,30.8c-6.7,0-13.4-2.5-21.2-5.5c-9.7-3.7-20.7-7.8-33.9-7.8c-7.6,0-15.2,1.4-22.3,3.9l-0.1,0.4l0.7,0.8
		c0.5,0.6,1,1.2,1.5,1.7l0.3,0.1c6.5-2.2,13.2-3.3,20.1-3.3c12.7,0,23.3,4,32.6,7.5c7.9,3,15.4,5.8,22.7,5.8
		c13.5,0,24.8-10.1,36.6-32.7c3.1-5.9,6.3-11.8,9.6-17.4L316.8,317.3L316.8,317.3z"/>
	<path class="st0" d="M281.4,382.3c-8.6,0-17.2-3.9-26.3-8c-11.3-5.1-23.1-10.3-37.2-10.3c-4.9,0-9.8,0.7-14.5,1.9h-0.1l-0.8-0.7
		c-0.6-0.5-1.2-1.1-1.8-1.7l0.1-0.2c5.6-1.6,11.3-2.5,17.1-2.5c15,0,27.5,5.6,38.5,10.6c9.2,4.1,17.2,7.7,25,7.7l0,0
		c12.2,0,22.5-9.3,33.5-30c6.2-11.6,12.3-22.3,18.1-31.5l0.1-0.1h3.6l0.1,0.2c-6.2,9.7-12.6,20.8-19,32.9
		C306.3,372.5,295,382.3,281.4,382.3z"/>
	<path class="st1" d="M336.8,317.6c-6.1,9.6-12.5,20.5-19,32.9c-12.9,24.3-24.6,31.7-36.4,31.7c-8.5,0-17.1-3.9-26.3-7.9
		c-11.1-5-23.1-10.4-37.3-10.4c-4.9,0-9.8,0.6-14.6,1.9c-0.9-0.8-1.7-1.6-2.5-2.4c5.6-1.6,11.3-2.5,17.1-2.5
		c14.9,0,27.4,5.6,38.5,10.5c9.2,4.1,17.3,7.7,25.1,7.7c11,0,21.5-7.1,33.6-30.1c6.2-11.7,12.2-22.2,18.1-31.5L336.8,317.6
		 M336.8,317.3h-3.6l-0.2,0.1c-5.8,9.3-11.9,19.9-18.1,31.5c-11,20.7-21.3,30-33.4,30c-7.8,0-15.8-3.6-25-7.7
		c-11.1-5-23.6-10.6-38.6-10.6c-5.8,0-11.6,0.8-17.2,2.5l-0.1,0.4c0.6,0.6,1.2,1.1,1.7,1.7c0.3,0.2,0.5,0.5,0.8,0.7l0.2,0.1
		c4.7-1.2,9.6-1.9,14.5-1.9c14.1,0,25.8,5.3,37.2,10.3c9.1,4.1,17.8,8,26.4,8c13.7,0,25-9.8,36.6-31.8c6.4-12.1,12.8-23.2,19-32.9
		L336.8,317.3L336.8,317.3z M336.8,317.8L336.8,317.8z"/>
	<path class="st0" d="M292.2,397.1c-9.8,0-19.7-5.1-30.2-10.5c-12-6.2-25.6-13.1-41.1-13.1c-2.7,0-5.4,0.2-8,0.6h-0.1
		c-1-0.8-2-1.6-3-2.5v-0.2c3.6-0.7,7.3-1.1,11.1-1.1c16.5,0,30.4,7.1,42.7,13.4c10,5.1,19.5,10,28.5,10l0,0c12.4,0,22.8-9,33.6-29.2
		c10.1-19,19.3-34.3,28.1-47l0.1-0.1h3.7l0.1,0.2c-9.1,12.8-18.6,28.7-29.1,48.4C317.1,387.3,305.6,397.1,292.2,397.1z"/>
	<path class="st1" d="M357.5,317.6c-9.1,12.9-18.7,28.9-29.1,48.4c-12.6,23.5-24.3,31-36.2,31c-9.8,0-19.6-5.1-30.1-10.5
		c-12.4-6.3-25.7-13.1-41.2-13.1c-2.7,0-5.4,0.2-8,0.6c-1-0.8-2-1.6-3-2.5c3.6-0.7,7.3-1.1,11-1.1c16.4,0,30.4,7.1,42.6,13.4
		c10.2,5.3,19.5,10,28.5,10c11.1,0,21.9-7.1,33.7-29.3c10-18.7,19.3-34.3,28.1-47L357.5,317.6 M357.5,317.3h-3.7l-0.2,0.1
		c-8.8,12.7-18,28.1-28.1,47c-10.8,20.2-21.1,29.2-33.5,29.2c-9,0-18.4-4.9-28.4-10c-12.3-6.3-26.2-13.4-42.7-13.4
		c-3.7,0-7.4,0.4-11.1,1.1l-0.1,0.4c1,0.8,2,1.7,3,2.5h0.2c2.6-0.4,5.3-0.6,8-0.6c15.5,0,29.1,7,41.1,13.1
		c10.5,5.4,20.4,10.5,30.3,10.5c13.5,0,25-9.9,36.4-31.2c10.5-19.7,20.1-35.6,29.1-48.4l-0.2-0.4L357.5,317.3z"/>
	<path class="st0" d="M289.1,406c-3.5-0.4-7-0.9-10.5-1.6c-3.2-1.7-6.3-3.5-9.9-5.5c-12.9-7.3-27.4-15.6-43.7-16
		c-1.6-1-3.1-2-4.6-3.1l0.1-0.2c1.2-0.1,2.4-0.1,3.5-0.1c17.3,0,32.7,8.8,46.3,16.5c6.3,3.6,12.8,7.3,18.8,9.7L289.1,406z"/>
	<path class="st1" d="M224.1,379.7c17.3,0,32.3,8.6,46.2,16.5c6.6,3.8,12.9,7.3,18.9,9.7c-3.6-0.4-7.1-0.9-10.5-1.6
		c-3.2-1.7-6.5-3.6-9.8-5.5c-13.2-7.5-27.5-15.7-43.7-16c-1.5-1-3-2-4.5-3C221.7,379.7,222.9,379.7,224.1,379.7 M224.1,379.4
		c-1.2,0-2.4,0-3.5,0.1l-0.1,0.5c1.5,1,3,2.1,4.5,3h0.1c16.2,0.3,30.8,8.6,43.6,16c3.5,2,6.7,3.8,9.8,5.5h0.1
		c3.5,0.7,7.1,1.2,10.6,1.6l0.1-0.5c-6.1-2.4-12.5-6.1-18.8-9.7c-13.6-7.8-29-16.5-46.3-16.5L224.1,379.4z"/>
	<path class="st0" d="M312.4,406.6c8.3-3.7,16.1-12.4,23.8-26.6c14.7-27.3,27.4-47.7,39-62.5l0.1,0h4l0.1,0.2
		c-12,14.8-25.2,35.7-40.3,63.9c-6.3,11.8-12.8,19.9-19.8,24.9c-2.5,0.2-4.7,0.4-6.8,0.5L312.4,406.6z"/>
	<path class="st1" d="M379.2,317.6L379.2,317.6 M379.2,317.6c-12.1,15-25.3,36-40.3,63.9c-6.3,11.8-12.9,19.9-19.8,24.8
		c-2.2,0.2-4.5,0.3-6.7,0.4c8.3-3.7,16.1-12.5,23.8-26.7c14.5-27,27.3-47.5,39-62.5H379.2 M379.2,317.3h-4l-0.2,0.1
		c-11.6,14.8-24.4,35.2-39,62.5c-7.6,14.2-15.4,22.9-23.7,26.6l0.1,0.5c2.1-0.1,4.3-0.2,6.8-0.4l0.1,0c7-5,13.5-13.1,19.8-24.9
		c15.1-28.2,28.3-49.1,40.3-63.9L379.2,317.3L379.2,317.3z"/>
	<path class="st0" d="M342.6,402.4c1.5-2.5,2.8-4.6,4-6.9c20.7-38,37-62.8,51.4-78h4.4l0.1,0.2c-14.8,14.8-31.6,40.1-53,79.4
		c-0.8,1.4-1.5,2.7-2.3,3.9l-0.2,0.3l-0.2,0.1c-1.4,0.4-2.7,0.8-4.1,1.1L342.6,402.4z"/>
	<path class="st1" d="M402.5,317.6L402.5,317.6 M402.5,317.6c-14.9,15-32,40.8-53,79.5c-0.8,1.5-1.6,2.9-2.4,4.3
		c-1.4,0.4-2.8,0.8-4.3,1.2c1.4-2.1,2.7-4.4,4-6.9c20.3-37.3,36.8-62.6,51.3-78L402.5,317.6 M402.5,317.3h-4.4l-0.2,0.1
		c-14.4,15.2-30.7,40-51.4,78c-1.2,2.2-2.5,4.4-4,6.9l0.3,0.4c1.4-0.3,2.7-0.7,4-1.1l0.2-0.1l0.1-0.1l0.2-0.3
		c0.7-1.3,1.5-2.5,2.3-3.9c21.4-39.3,38.2-64.6,53-79.4L402.5,317.3L402.5,317.3z"/>
	<path class="st0" d="M366.7,394.1c24-42.2,41.6-65.8,57-76.6h5.9l0.1,0.2c-15.5,8.6-33.4,31.5-58,74.4c-1.7,0.8-3.3,1.6-4.8,2.2
		L366.7,394.1z"/>
	<path class="st1" d="M429.6,317.6L429.6,317.6 M429.6,317.6c-15.5,8.6-33.6,32-58.1,74.4c-1.6,0.8-3.2,1.5-4.8,2.2
		c23.7-41.6,41.5-65.8,57-76.6H429.6 M429.6,317.3h-5.8h-0.1c-15.4,10.8-33,34.4-57.1,76.7l0.3,0.4c1.5-0.6,3.2-1.4,4.8-2.2l0.1-0.1
		c24.6-42.8,42.5-65.7,58-74.3L429.6,317.3L429.6,317.3L429.6,317.3z"/>
	<path class="st0" d="M397.5,375.7c16.2-25.4,29.1-40.6,40.5-47.8l0.2,0.2c-1.2,2.3-2.5,4.5-3.7,6.5c-8.4,6.9-17.8,18.2-28.8,34.6
		c-2.5,2.3-5.2,4.5-8,6.7L397.5,375.7z"/>
	<path class="st1" d="M438.1,328L438.1,328 M438.1,328c-1.2,2.2-2.4,4.4-3.7,6.5c-8.4,6.9-17.7,18.2-28.8,34.6
		c-2.6,2.3-5.3,4.5-8,6.6C413.9,350.4,426.7,335.2,438.1,328 M438.1,327.8L438.1,327.8v0.2l-0.1-0.1c-11.4,7.2-24.3,22.4-40.5,47.8
		l0.4,0.3c2.8-2.2,5.5-4.4,8-6.6l0,0c11-16.4,20.4-27.7,28.7-34.5l0.1-0.1c1.3-2.1,2.5-4.3,3.7-6.5l-0.2-0.2L438.1,327.8
		L438.1,327.8z M438.1,328.3L438.1,328.3z"/>
	<polygon class="st0" points="161.2,220.7 161.3,220.4 161.4,220.3 161.6,220.3 161.7,220.5 161.5,220.8 	"/>
	<path class="st1" d="M161.6,220.4L161.6,220.4 M161.6,220.4l-0.2,0.4c0-0.1,0-0.2,0.1-0.4H161.6 M161.6,220.1h-0.1l-0.2,0.2
		c0,0.1,0,0.1,0,0.2v0.2l0.4,0.2l0.2-0.4L161.6,220.1L161.6,220.1z M161.6,220.6L161.6,220.6z"/>
</g>
</svg>
