<svg version="1" xmlns="http://www.w3.org/2000/svg" width="1760" height="1760" viewBox="0 0 1320.000000 1320.000000"><path d="M856 3.3c-2.5 1.9-7.6 6.4-11.5 10l-7 6.7 4.8 4.1c2.6 2.3 4.7 4.8 4.7 5.8.1.9 2.1 2.6 5.1 3.9 3.5 1.7 5.6 3.5 7.2 6.3 1.2 2.1 2.7 3.9 3.4 3.9.6 0 1.3.6 1.6 1.2.9 2.6 1.7-.1 3.7-12.3 2.3-14.1 2.6-26.2.7-29.9-2-4-7.1-3.8-12.7.3z"/><path d="M817.5 43.2c-8.2 9-24.7 26-36.6 37.8l-21.7 21.5 2.1 3.6c1.5 2.7 3.4 4.1 6.7 5.3 6.6 2.4 8.6 4.1 9.4 7.6.3 1.7 1.8 4.6 3.2 6.5l2.6 3.5h-2.9c-1.6 0-3.9.7-5.1 1.6-3.2 2.2-7.3.6-14.7-5.8-3.3-2.8-7.3-5.9-9-6.9l-3-1.9 4.3-1.6c4.8-1.9 5.2-3.2 1.7-5.6-2.4-1.8-2.4-1.8-10.9 6.3-4.7 4.5-8.6 8.9-8.6 9.8 0 1 2.4 2.8 6.8 4.8 6.4 3 14.1 8.8 13 9.8-.2.3-2.1-.4-4.2-1.5-3.6-1.8-6.6-1.8-6.6.1 0 2.4-3.3.3-7.9-4.9l-5.1-5.7-29.2 29.3-29.3 29.3 3.9 3.5c2.2 1.9 6.4 4.2 9.5 5.1 3.5 1.1 7.6 3.4 10.9 6.3 4.7 4 5.2 4.8 4.8 7.7-.4 2.5 0 3.5 2 4.8 1.3.8 2.4 2.3 2.4 3.3 0 2.3 7.6 4.8 9.6 3.1 1-.8 3.7 0 11.6 3.7 6.6 3.1 10.3 4.3 10.6 3.6.4-1.3 3.2.9 3.2 2.5 0 2 2.2 3.2 3.9 2.1 3.2-2 16.6 6.2 20 12.2 1.2 2.2 2.8 4 3.6 4 2.4 0 13 7.8 14.9 11 1.3 2.2 2.1 2.9 2.9 2.1.7-.7 2.3-.1 5.1 1.9 2.3 1.6 8.6 4.8 14.1 7.1 13.1 5.6 17 8.1 20 12.9 2.1 3.3 3 3.9 4.9 3.4 1.9-.4 3.1.4 6.7 4.5 3.2 3.6 5.9 5.5 9.9 7 6.4 2.4 11.4 6.6 10.6 8.8-.4.9-.1 2.2.6 3.1 1.1 1.3 1 1.4-1.1.7-1.7-.5-2.2-.4-1.9.6.3.9 1.6 1.3 3.2 1.1 1.5-.2 3.4.2 4.2.8 1.1 1 1.4.9 1.4-.3 0-1.9 1.8-2.5 5.5-1.6 1.7.4 2.3.7 1.4.8-.9 0-2.2.8-3 1.7-1 1.3-1 1.7.2 2.5.8.5 1 .9.4.9-.5.1 0 .5 1.3 1.1 3.1 1.2 2.5 4-1 5-3 .8-3.8.3-3.8-2.3 0-1-.7-1.8-1.5-1.8s-1.2-.6-.9-1.4c.4-1.1-.8-1.6-4.8-2.3-4-.7-5.2-1.3-5-2.5.2-1.1-.9-1.7-3.7-2.2-3.9-.6-6.8-3.3-8.4-7.9-.4-.9-1.3-1.7-2.2-1.7-.8 0-1.5-.5-1.5-1 0-.6-1.2-1-2.7-1-1.4 0-5.1-1.4-8.2-3.1-5.1-2.9-5.5-3-6.7-1.4-.8 1-1.5 2.1-1.6 2.6-.2.4-3.3.5-7 .2s-6.5-1-6.2-1.4c.3-.5-1.2-.9-3.4-.9-2.5 0-4.9-.8-6.6-2.1-1.4-1.1-2.6-1.8-2.6-1.6 0 .3-1.5-.9-3.2-2.6-3.1-3-3.2-3.3-1.5-5 2.3-2.3 2.2-3.2-1.2-10.3-2.8-5.8-3.2-6.3-8.3-7.9-2.9-1-8.3-3.2-11.9-4.9-4.6-2.3-7.6-3.1-10-2.9-2.8.3-4.2-.3-8.3-3.6-3.1-2.7-5.8-4.1-7.6-4.1-1.5 0-3-.6-3.3-1.4-.3-.8-1.9-1.7-3.6-2.1-2.7-.6-3.1-1.1-3.1-3.8 0-4.6-11-14.9-20.6-19.3-4-1.8-7.5-3.8-7.9-4.4-.5-.7-1.7-.9-3.4-.4-4.3 1.2-6.7.6-12.8-3.1-3.2-1.9-6.9-3.5-8.3-3.5-1.7 0-4-1.4-6.5-4.1-2.2-2.2-5.8-5.4-8.1-6.9l-4.1-2.9-6.2 6.3-6.1 6.2 2.9 2.8c1.7 1.6 2.8 3.3 2.5 3.8-.8 1.3-4.8.9-7.2-.8-2.2-1.5-2.6-1.2-18.6 14.3-17.9 17.4-25.3 23.3-26.1 21.1-.7-1.9 5.1-24.4 11.5-44.2 2.8-8.8 4.8-16.6 4.5-17.3-.2-.8-1.3-1.3-2.2-1.2-3.3.3-4.1-.1-4.6-2.1-.3-1.2-1.4-2-2.7-2-1.6 0-2 .4-1.6 1.5.9 2.4-.1 1.8-2.5-1.6-1.9-2.8-2-3.2-.6-4.6 2.3-2.3 6.4-.8 11.2 4l4.2 4.2 4.3-9.9 4.4-9.9-3.9-3.4C609 154.6 593.6 145 588.9 145c-1.3 0-1.9-.7-1.9-2.4 0-1.3-1.8-4.3-4.1-6.9-4.8-5.6-4.4-8.3 1.4-8.1 2.8.1 5.8 1.7 13.8 7.8 5.6 4.3 14 9.5 18.5 11.7 6.3 3 8.5 4.6 9.6 6.9 1.6 3.7 2.8 3.4 4.3-1 1.1-3.2 1-3.6-1.2-5.3-1.2-1-2.3-2.3-2.3-2.8 0-1.3 3.4-1.1 4.7.2 1.7 1.7 15.8-42.6 23.2-73 5.5-22.5 6-33.2 1.5-33.9-7-1-64 45.6-184.7 151.1-31.8 27.8-47.7 42.3-47.3 43.3.3.9-.1 1.3-1.3 1.1-1.2-.1-15.6 11.7-39.2 32.1-20.5 17.8-37.5 31.9-37.7 31.4-.1-.5 2.4-19.4 5.8-42 6.4-43.6 7.1-53.2 4.4-57.1-7.6-10.7-36.4 21.6-84.9 94.9C249 327.1 205 397.7 205 399.8c0 .4 1.3 1.6 3 2.7 1.6 1.1 2.8 2.6 2.7 3.5-.1.8.3 1.7.8 1.9 1.4.7 2.4 1.5 7.6 6 2.5 2.3 5.4 4.1 6.3 4.1.9 0 1.9.8 2.2 1.7.3 1 1.3 3.5 2.4 5.5 2.7 5.5.6 4.9-9-2.5-11.4-8.7-13.1-9.7-15.5-9.1-1.3.3-2.8-.2-3.9-1.5-1.1-1.2-2.3-2.1-2.7-2.1-.7 0-12.9 20.5-12.9 21.7 0 .2-6.2 11.5-13.9 25.1-38.4 68.6-51.5 95-68.6 138.7C73.8 671.1 53.5 759 47 839c-.6 7.4-1.2 15.4-1.5 17.7-.3 3.2-.1 4.5 1.1 5.1 1.5.8 1.5 1 0 1.5-1.4.6-1.6 3.8-1.6 27.9 0 59.2 7.4 108.2 23.6 158.1 26.5 81.2 78.2 149.6 149.3 197.7 32.9 22.2 81.9 45.7 116.7 56 57.1 16.8 119.2 18.3 186.4 4.5 35.8-7.4 67.1-17.5 111.2-36 7.1-3 7.9-4.5 2.2-4.5-2.3 0-3.4-.5-3.4-1.5 0-.8-1.3-2.4-3-3.6-2.3-1.8-2.7-2.5-1.8-3.6.8-1 1.4-1.1 2.2-.3 1.5 1.5 2.6 1.2 2-.5-.4-1 .3-1.6 2.3-2.1 1.5-.3 3.5-.8 4.5-1 .9-.3 1.9 0 2.2.5.4.5 1.7.8 3 .5 2-.3 2.3-.1 1.9 1.6-.3 1.1-.9 1.8-1.3 1.5-.7-.4-3 1.7-4.4 4.3-.6.9-.1 1.2 1.6.9 1.2-.2 1.7-.2 1.1 0-1.5.5-1.8 4.3-.3 4.3 1.6 0 28.6-13.1 43-20.9 98.4-53.4 199.1-137.8 294.6-247.1 95.6-109.4 184.7-244.5 241.3-366.1 34.7-74.5 52.3-131.3 43.6-140.9-5-5.5-14.1.4-34.7 22.3-16.7 17.8-34.3 35.3-42.8 42.7l-5.6 4.8 2.8-5.6c6.7-14.1 20.2-66.6 40.4-157.7 8.8-39.3 13.6-63.3 13.7-67.5.3-12.3 2.9-14.4-71 59.4-36.7 36.6-66.8 66.5-66.9 66.3-.2-.1 1.3-4.8 3.2-10.3 13.6-39.9 24.5-89.2 40.4-182.4 3.8-22.8 8.6-50.5 10.5-61.5 3.6-20.9 4.3-31.3 2.3-33.3-3.5-3.5-7.7-.7-34.8 22.8-22.2 19.3-119.3 99.9-119.8 99.5-.5-.4 4.1-31.7 12.3-83.5 4-25.6 7-46.9 6.5-47.4s-1.8 1-2.9 3.3c-2.5 4.8-5.6 5.5-7.1 1.5-1.8-4.5-1.3-5.7 2-5.2 3.8.6 4-1.3.5-4.8-3.3-3.3-7-3-7 .7.1 2.4-.2 2.5-3.7 1.9-4-.8-4.7-1.2-12.8-7.8-2.8-2.3-5.9-4.2-6.7-4.2-1.3 0-1.4-.7-.7-3.8.4-2 .8-6.6.8-10 .1-5.1.5-6.7 2-7.8 1.1-.8 2.3-1.4 2.7-1.4.4 0 2.3 2.2 4.3 5 2.1 2.9 4.6 5.2 6.1 5.6 1.8.4 2.5 1.2 2.3 2.5-.3 1.9.6 2.2 3.3 1.4 1.1-.4 4.4 2.1 9.8 7.5 4.5 4.4 8.5 8 8.9 8 .8 0 4-20.5 6.2-38.5.5-4.5 1.4-17 2.1-27.8 1.1-17.8 1-20.1-.5-24.1-2.6-6.7-7.8-8.1-14.5-3.9-1.9 1.2-2.1 1.7-1 2.4 1 .6.7.9-1.2.9-2.7 0-5.9 2.5-19.4 14.8-7.3 6.7-29.5 30.2-29.5 31.3 0 .4 2.1 1.2 4.7 1.9 6.4 1.6 8 2.9 5.2 4.4-1.3.6-3.7 3.1-5.4 5.6-3.4 4.8-3.5 4.8-12.5 3.7l-5.5-.7-8.5 9.7c-8.7 10-43.8 49.6-52.5 59.2-4.9 5.3-4.9 5.4-2.8 7 1.5 1.3 1.8 2.2 1.2 3.4-.8 1.3-.1 2 3.5 3.8 2.5 1.1 5.3 1.8 6.4 1.5 2.4-.8 7 .9 10 3.6 2.7 2.6 3 7.6.5 8.4-1 .3-2.8 1-4 1.6-1.9.9-3.2-.1-12.4-9.6l-10.2-10.7-29.4 29.2c-16.1 16.1-29.5 29-29.7 28.8-.2-.2 3.8-21.5 9-47.4 5.2-25.8 9.6-48.3 9.8-50 .3-1.6 1.2-5.9 2-9.5.9-3.6 3.2-14.2 5.2-23.5 2.7-13 11.1-50.4 15.8-70.6.2-1.2-.2-1.5-1.5-1.2-1.1.3-1.9 0-1.9-.6 0-.8-.5-.8-1.9.1-1.5.9-2.4.7-5.1-1.2-2.7-1.9-3.4-2-4.5-.9-1.9 2.1-3 9.1-1.3 8.8 2.9-.3 3.8.2 5.4 3.3l1.7 3.2-2.9-1.8c-7.7-4.9-9.3-9-5.4-13.9 1.1-1.4 1.7-3.2 1.4-4-.6-1.7 1.2-3.2 2.1-1.7.3.5 1.7 1 3 1 1.8 0 2.2-.4 1.8-2-.4-1.4 0-2 1.2-2 1.1 0 1.5-.7 1.3-2.3-.2-1.2-1-2.2-1.9-2.2-.8 0-3.1-1.5-5-3.3-2.6-2.5-11.2-7.7-18-11-.3-.1-7.2 7.1-15.4 16zm12.7-10c-.7.7-1.2.8-1.2.2 0-1.4 1.2-2.6 1.9-1.9.2.3-.1 1.1-.7 1.7zm-24 110.4c2.1.6 2.1.7.3 2-3.1 2.3-8.5-2.5-7.1-6.3.5-1.2 1-1 2.6 1 1.1 1.4 3 2.9 4.2 3.3zm-37.7 8.4c-.3.5.8 1.6 2.5 2.5 2.6 1.3 2.9 1.9 2 3.5-1 1.9-4 1.8-4-.2 0-.6-1.4-2.3-3.1-3.9l-3.1-2.9h3.2c1.7 0 2.9.4 2.5 1zm62.9 1.6c1.1.4 1.6 1.9 1.6 4.4 0 4.5.9 5.4 4.3 4.1 2.4-.9 2.4-.9 1.5 2.9-.6 2.1-1.8 4.6-2.9 5.5-1.7 1.6-2 1.6-4.8-.4-1.7-1.2-4.2-2-5.8-1.9-2.2.1-4.4-1.1-9.5-5.4-3.7-3.1-6.4-5.9-6-6.2.3-.3 2.6-.6 5.1-.5 3.6.1 4 .3 2.1.8-1.6.5-2.1.9-1.3 1.4 2.1 1.3 9.5-1.2 10-3.4.5-1.9 2.8-2.4 5.7-1.3zM608 171.5c0 1.2-2.8 3.5-4.4 3.5-1.1 0-.6-2.6.6-3.8 1.7-1.7 3.8-1.5 3.8.3zm198.5 5.5c-.3.5-1.2.7-2 .3-2.1-.7-1.9-1.3.6-1.3 1.1 0 1.8.4 1.4 1zM470 207c0 .5-.2 1-.4 1-.3 0-.8-.5-1.1-1-.3-.6-.1-1 .4-1 .6 0 1.1.4 1.1 1zm15 3.5c1.1 1.3.8 2-1.6 4.5l-2.9 2.9-2.3-2.2-2.2-2.1 2.2-2.3c2.5-2.7 5-3 6.8-.8zm631.8 10c-.3.3-.9-.2-1.2-1.2-.6-1.4-.5-1.5.5-.6.7.7 1 1.5.7 1.8zm-233 3.6c-.6.4-2.3.2-3.7-.4-3.4-1.5-3.4-1.4-2.7-2.6.5-.7 1.9-.5 4.1.6 2.2 1.1 3.1 1.9 2.3 2.4zm28.8-1.5c-.4 1.1-.2 1.5.8 1.1.8-.3 2.1.4 2.9 1.6.8 1.3 3.1 3.1 5.1 4.2 2 1.1 3.6 2.5 3.6 3.2 0 .7.4 1.3 1 1.3.5 0 .7.7.4 1.5-.4 1 0 1.5 1.5 1.5 1.2 0 3.6.7 5.2 1.6 2.9 1.4 3 1.7 1.5 3.3-.9 1-3.5 2.7-5.8 3.7l-4 1.8-1.9-2.3c-1.1-1.3-1.9-3.6-1.9-5.1 0-1.5-.9-3.5-1.9-4.4-1.1-1-1.7-2.5-1.4-3.6.4-1.6-.1-1.9-3.4-2.2-3.3-.3-3.8-.6-3.6-2.6.2-1.4-.3-2.2-1.2-2.2-1.7 0-1.8-.2-.9-2.4.3-.9 1.5-1.6 2.6-1.6 1.4 0 1.8.5 1.4 1.6zm-411.8 3.5c3.3 2.4 4.2 3.7 4.2 6.1 0 4.5 3.9 11 6.2 10.2 1.2-.4 1.8 0 1.8 1.1 0 1.3.4 1.4 2 .5 2.3-1.2 4-.6 4 1.4 0 1.7 4.8 4.9 6.3 4.3.7-.2 2.2 1.7 3.4 4.4l2.2 4.9h-2.5c-3 0-7.2-3.9-5.4-5 2.4-1.5.2-3.7-5.2-5.4-2.9-.9-7.8-3-10.9-4.7-3.1-1.6-6.4-2.9-7.4-2.9-1.2 0-1.5-.5-1-2 .9-2.9-1.2-5.1-4.1-4.4-2.1.5-2.3.3-2.2-2.2 0-1.6-.3-4.4-.7-6.2-.7-3.1-.6-3.2 2.2-3.2 1.7 0 4.7 1.3 7.1 3.1zm389.8.8c0 1.1-.5 1.7-1.3 1.4-1.4-.6-1.7-1.6-.6-2.6 1.1-1.2 1.9-.7 1.9 1.2zm-206.4 8.6c.4 1.8 0 2.5-1.9 3-2.9.7-4.3-.1-4.3-2.4 0-4.3 5.4-4.8 6.2-.6zm-161.1 1.6l2.1 2.1-2.4-.4c-1.2-.2-2.4-1.1-2.6-2.1-.5-2.2.3-2.2 2.9.4zm168.7 5.2c.8.6 1.2.6 1.2-.2 0-.7.6-.8 1.8-.2.9.5 3.1 1.4 4.8 2.1 1.6.6 5.5 3.1 8.5 5.5 2.9 2.5 5.7 4.5 6.1 4.5.5 0 .8 1.1.8 2.5s.5 2.5 1 2.5c.6 0 1 1.3 1 3 0 1.9-.5 3-1.4 3-1.5 0-5.4-3.4-7.6-6.8-1.1-1.6-2.9-2.4-6.5-2.8-5.5-.7-9.5-2.7-9.5-4.8 0-.8-1.1-2.1-2.4-2.9-1.3-.9-2.8-2.9-3.4-4.5-.9-2.8-.9-2.9 1.7-2.4 1.4.3 3.2.9 3.9 1.5zM549 259.8c.3.3-.6.1-2-.2-2.6-.8-11-9-11-10.8 0-.6 2.8 1.5 6.3 4.7 3.4 3.3 6.4 6.1 6.7 6.3zm-66-2.6c0 1.2-1.3 1-3.8-.8-3.3-2.3-2.7-3.8.8-1.7 1.7.9 3 2.1 3 2.5zm50.4 5.3c1.5 2.3 1.5 2.7.2 4-1.8 1.9-3.1.4-3.1-3.8 0-3.4.8-3.4 2.9-.2zm44.1.5c1 1.1 1.6 2.3 1.3 2.5-.8.9-5.6-1.6-6.2-3.1-.8-2.2 2.8-1.7 4.9.6zm-164.4 10.7c1.3 1.5 1.2 1.5-.8.4-2.4-1.2-2.9-2.1-1.4-2.1.5 0 1.5.7 2.2 1.7zm102.1 4c1.1 1 3.1 1.8 4.6 1.8 1.9.1 3.1 1 4 2.9 1.9 3.8.9 5.5-2.9 5.4-2.3-.1-3.8.6-5.2 2.3-1.8 2.3-1.9 2.3-3.3.4-.8-1-1.3-3.8-1.2-6.1 0-2.4-.4-5-1.1-5.8-1-1.2-.9-1.5.6-1.9 1-.3 2-.5 2.2-.6.3 0 1.3.7 2.3 1.6zm219.2-.2c1.1.8 1.5 1.5 1 1.5-.6 0-1.9-.7-3-1.5-1-.8-1.4-1.4-.9-1.4.6 0 1.9.6 2.9 1.4zM567.5 288c-.9 1.4-6.2-1.5-7.5-4.1-.7-1.1-.9-2.8-.5-3.7.5-1.4 1.3-.9 4.6 2.6 2.2 2.3 3.7 4.7 3.4 5.2zm37.5-5.4c0 .2-.9 0-2-.6s-2-1.3-2-1.6c0-.2.9 0 2 .6s2 1.3 2 1.6zm148.4 3.6c2.2 2.4 3.6 2.2 3.7-.5v-2.2l1 2.3c1.2 3.2.4 4.2-3.5 4.2-2.9 0-9.6-1.7-9.6-2.5 0-.1.7-2 1.6-4.1l1.6-3.9 1.9 2.5c1 1.4 2.5 3.3 3.3 4.2zM445.7 293c5.8 4.5 5.7 4.3 4.3 7.1-1.4 2.6-2.7 2.4-3.4-.6-.4-1.5-2.1-3.2-4.5-4.5-3.1-1.5-3.8-2.4-3.4-4 .3-1.1.8-2 1.1-2 .3 0 2.9 1.8 5.9 4zm17.1 13c1.1 1.7 1 2-.7 2-2.4 0-4.7-2.6-2.9-3.3 2.1-.9 2.3-.8 3.6 1.3zm330.9 5.1c1.2 1.4 1.2 1.7-.2 2.3-1.9.7-5.5-1.3-5.5-3.1s3.4-3.5 3.9-2c.2.7 1 1.9 1.8 2.8zm-321.7.3c0 1.1-1.9 1.5-2.5.6-.3-.5.1-1 .9-1 .9 0 1.6.2 1.6.4zm6 5.4c1.9 1.6 2 2 .8 2.5-1.7.6-5.8-1.8-5.8-3.4 0-1.5 2.6-1 5 .9zm160.3-1.1c.9.9-1.2 3.3-3 3.3-1.1 0-1.1-.4-.3-2 1.1-2.1 2.2-2.5 3.3-1.3zM497.5 318c1 1.1 1.6 2 1.3 2-.3 0-1.3-.9-2.3-2-1-1.1-1.6-2-1.3-2 .3 0 1.3.9 2.3 2zm-13.5 2c0 .5-.4 1-1 1-.5 0-1-.5-1-1 0-.6.5-1 1-1 .6 0 1 .4 1 1zm346 6c1.3.8 1.3 1.1-.1 2.5-1.5 1.5-1.7 1.5-2.1-.9-.6-2.8-.1-3.1 2.2-1.6zm-175.4 2.5c-.3.8-.1 1.5.4 1.5.6 0 1 .8 1 1.7 0 1.5.4 1.3 2-.7l1.9-2.5 2.3 2.2c1.3 1.1 4.6 3.2 7.4 4.6 6.8 3.4 11.2 7.2 12.8 11.1 1 2.5 2.3 3.5 5.7 4.5 6.4 1.9 16 6.6 22.9 11.2 4.4 3 6.2 4.9 6.8 7.2.7 2.8 1.3 3.2 4.8 3.5 6.7.4 8 1 16.4 7.7 8.5 6.7 11.8 7.9 15 5 1.4-1.3 2.1-1.1 6.3 1.8 3.1 2.1 4.6 3.9 4.7 5.4 0 1.8.8 2.3 3.8 2.9 5.3.9 12.5 5.2 11.8 7.1-.3.8-.6 1.9-.6 2.4s-.7.9-1.5.9-1.5.9-1.5 2-.5 2-1 2c-.7 0-.7.6 0 2 .8 1.5 1.7 1.9 3.5 1.4 2.5-.6 3 .1 1.9 3-.5 1.3-1.3 1.3-6.1-.6-5.3-1.9-5.6-2-9.4-.3-4.5 2.1-6.1 5.3-3.3 6.9 1.1.6 4.4 2.1 7.3 3.3 9.6 3.9 12.8 9.3 6.5 10.9-2.4.6-3.5-.1-9.8-6.9-4.1-4.3-8.6-8.1-10.4-8.8-2.4-.8-3.2-1.7-3.2-3.5 0-1.7.6-2.4 2-2.4 1.1 0 2-.6 2.1-1.3 0-.8.2-.8.5-.1.6 1.4 8.4-.3 8.4-1.9 0-.5-2-3-4.5-5.4-2.4-2.5-3.8-4.2-3-3.9.8.3 2.2.9 3.2 1.3 1.2.5 1.4.3.8-.7-.6-1-.4-1.2.8-.7 1.2.5 1.7.1 1.7-1.2 0-2.4-1.4-3.5-7-5.7-2.5-.9-5.2-2.3-6.1-3.1-1.3-1-2.3-1.1-4.5-.3-1.6.6-3.1 1.5-3.4 2-.3.5-2.5 0-4.8-1.1-2.9-1.5-4.4-2.9-4.8-4.8-.8-3.4-5.2-8.1-7.6-8.1-1.3 0-2 1-2.4 3-.6 2.6-.9 2.8-2.6 1.9-1.1-.6-2.7-2.4-3.6-4-1.2-2-2.5-2.9-4.3-2.9-6.4 0-18.3-5.2-21.9-9.4-1.1-1.4-1.1-2.1-.1-3.8 1-1.6.9-2.4-.4-4.4-2.1-3.3-4.8-4.9-16.7-10-5.7-2.5-12.9-6.5-16.1-9-3.2-2.5-6.5-4.8-7.4-5.1-1.2-.5-1.2-.7-.1-1.4 1-.6 1-1.1 0-2.1-1.8-1.8-1.5-3.4 1.1-4.6 3-1.4 3-1.4 2.3.3zm-117.4 2.8c.7.8 2.3 1.9 3.5 2.6 3 1.6 5 5.1 2.8 5.1-.8 0-1.5-.6-1.5-1.3 0-1.6-5.4-4.9-6.5-3.9-.5.4-.5.1-.1-.6s.1-1.2-.9-1.2c-.9 0-1.3-.5-1-1 .8-1.4 2.1-1.3 3.7.3zM589 334c0 1.5-.7 2-2.5 2-4.1 0-3-3.7 1.3-3.9.6-.1 1.2.8 1.2 1.9zm-68.4 9.1c3.5 2.7 6.1 3.9 8.3 3.9 1.8 0 4.8 1.1 6.9 2.5 2 1.4 4.1 2.5 4.6 2.5 1.5 0 4.7-4.3 4.2-5.7-.9-2.2 1.2-1.5 4.9 1.8 4.1 3.7 4.5 5.4 1 4.5-1.4-.4-2.5-.2-2.5.4 0 .5-.7 1-1.5 1s-1.5.4-1.5.9c0 1.7 7.4 7.1 11.1 8.1 2.3.6 3.9 1.8 4.2 3 .8 3.2-2.6 2.5-10-2-6-3.6-12.3-5.3-12.3-3.2 0 .4-.9.8-2 .8s-2-.4-2-.8-.7-.8-1.6-.8c-.8 0-1.3-.4-.9-.9.3-.5.1-1.2-.5-1.6-.5-.3-1-1.9-1-3.6 0-3.5-1.4-3.7-4.4-.4-2 2.2-2.4 2.3-3.8.9-.8-.8-4.4-2.5-7.9-3.7-6.8-2.3-8.7-5-5.4-7.7.8-.7 1.5-2.1 1.5-3.2 0-2.9 4.3-1.6 10.6 3.3zM581 345c.6 1.1.8 2 .6 2-.3 0-1-.9-1.6-2-.6-1.1-.8-2-.6-2 .3 0 1 .9 1.6 2zm348.4-.1c.3.5 0 1.1-.8 1.4-1.5.6-2.6-.1-2.6-1.5 0-1.1 2.7-1 3.4.1zM603 354.7c0 1.9-1.8 1.6-3-.6-1.7-3.3-1.2-4.6 1-2.6 1.1 1 2 2.4 2 3.2zm272.6 2c1.5 2 1.8 3.3.7 3.3-.5 0-1.3-1.1-2-2.5-1.3-2.9-.6-3.3 1.3-.8zm53.4-.2c1.9.7 2.7 1.4 1.8 1.4-1 .1-1.8.6-1.8 1.1 0 .6-1.1.8-2.7.4-3.5-.9-3.5-.8-2.7-2.8.7-1.9.8-1.9 5.4-.1zm-550.6 8.1c.5 1.4.4 1.5-.9.4-1.7-1.4-1.9-2-.6-2 .5 0 1.2.7 1.5 1.6zM950 367c1.6 1.1 1.5 1.1-1.7 1.5-2.3.2-2.9-.5-1.6-1.8.9-.9 1.5-.9 3.3.3zm-321.8 2.8c1.3 1.1 1.5 1.8.7 2.8-1.6 1.9-4.9-.4-4.9-3.4 0-2.4.9-2.3 4.2.6zm-45.4-.3c.6.3 1.2 1.2 1.2 2.1 0 1.3-.6 1.5-3.2.9-1.8-.3-4.6-.8-6.2-.9-1.6-.2-3.2-1-3.7-1.8-.7-1.2.1-1.4 4.9-1.1 3.1.3 6.3.6 7 .8zm349 2.2c.4 3.9 0 4-3.8 1.1-3.9-2.8-3.8-4.3.3-4.3 2.9 0 3.2.3 3.5 3.2zm38.7-1.7c.4.6-.5 1-1.9 1s-2.6-.5-2.6-1c0-.6.9-1 1.9-1 1.1 0 2.3.4 2.6 1zm-615.2 4.7c.9.3 1.7.9 1.7 1.4 0 .5 2.4 2.4 5.3 4.3 2.8 1.9 6.3 4.5 7.6 5.9 1.3 1.4 2.9 2.3 3.7 2 .8-.3 1.4.1 1.4 1.1 0 .9 2.6 3.3 5.8 5.2 3.1 2 7.2 5.1 9 6.8 2.6 2.4 3.5 2.8 4.1 1.7 1-1.5 2.8-.5 12.6 7.3 2.8 2.1 7.2 4.9 9.8 6.1 2.7 1.3 4.4 2.6 3.8 3-.6.3-1.1 1-1.1 1.4 0 .8 7.9 4 11 4.5.9.1 2 .5 2.7.9.6.4 1.8.4 2.7.1 1.8-.7 1.9-.4 1 2-.3.9-1.5 1.6-2.6 1.6-1.5 0-1.8.5-1.3 1.9.4 1.3.1 2-1 2.3-1.2.2-.7 1.2 2.1 3.8 2.1 2 3.4 2.8 3.1 1.8-.7-1.9.8-3.4 1.8-1.8.3.5 1.3 1 2.2 1 .8 0 2.8 1.1 4.5 2.5 1.6 1.4 3.6 2.5 4.5 2.5 1.1 0 1.3.7.8 3-.8 3.6 1.1 4.8 4.5 3 1.5-.8 2-.8 1.6-.1-.4.6 0 1.1.8 1.1 1 0 1.6-.9 1.6-2.5 0-2.9.8-3.1 3.6-1.1 1.5 1.2 1.7 1.7.7 2.7-1.8 1.8-1.6 3.2.8 5.7 1.1 1.2 1.7 2.7 1.4 3.2-.4.6.7 1.3 2.4 1.6 1.6.4 3.8 1.5 4.8 2.6 1.8 2 1.7 2-.4 1.4-2.6-.8-3.5.4-2 2.5 1.5 2 5.7 3.5 5.7 1.9 0-.6.8-1 1.8-.8 1.3.2 1.8-.5 2-3.5.2-2 .6-3.7 1-3.7.9 0 7.2 6.3 7.2 7.2 0 .5-1.1.6-2.5.2-3.1-.8-3.1-.1-.3 5.7 1.6 3.3 3.1 4.9 4.8 5.2 1.4.3 4.9 2.6 7.8 5.1 5.2 4.5 6.1 6.5 1.2 2.6-2.6-2-6-2.7-6-1.1 0 .4 2.4 3.2 5.3 6.2 5.1 5.2 18 14 39.3 26.9 5.9 3.6 13.4 9.1 16.6 12.2 3.2 3.2 6.1 5.8 6.4 5.8.3 0 1.7.9 3 1.9l2.5 2-2.7.3c-1.5.2-2.9.9-3.2 1.6-.6 2 5.9 7.5 11.4 9.6 2.7 1 7.5 3.2 10.7 4.7 5.2 2.5 6 2.7 7.3 1.4 1.2-1.1 1.3-1.9.3-3.6-1-2-.9-2.1 1.7-1.5 1.6.4 5.3 2.6 8.2 4.9 6.1 4.8 10.4 7.7 11.5 7.7 1.2 0 .8-2.8-.5-3.4-.7-.3.1-.3 1.7.1 4.3.8 4.6 1.2 3.3 3.3-1 1.5-.7 2.4 1.6 5.4 2.7 3.6 5.3 4.5 7.2 2.6.7-.7 1.5-.2 2.4 1.5.7 1.4 1.9 2.5 2.7 2.5.7 0 1.3.4 1.3 1 0 1.9 8.8 9.9 15.6 14 7.6 4.7 17.6 12.1 32.9 24.5 5.5 4.4 12.2 9.6 14.9 11.5 3.9 2.8 4.5 3.6 2.9 3.8-1.1.2-4.1-1.1-6.6-2.8-2.5-1.6-11.1-6.2-19.2-10-17.7-8.4-22.8-12-28.3-19.8-2.3-3.3-5.3-6.7-6.7-7.6-2.4-1.6-2.8-1.6-5.1-.2-2.3 1.5-2.6 1.5-6.5-1.1-2.3-1.5-7.1-3.7-10.8-5-3.6-1.2-6.9-2.9-7.4-3.7-.4-.9-1.1-2.3-1.5-3.2-.4-.9-4.7-3.4-9.6-5.5-13.8-5.9-46.3-25.7-47.7-29.1-.7-1.8-2.1-2.9-4.2-3.4-1.8-.3-3.8-1.1-4.4-1.6-1.3-1-4.1-.8-7.7.7-1.7.7-1.8.5-1.2-1.8.4-1.9.2-2.7-.6-2.7-.7 0-2-1.5-2.8-3.3-1.3-2.6-3.8-4.3-14.7-9.7-7.2-3.6-13.7-7.1-14.5-7.7-.9-.8-1.3-2.4-1-4.1.5-3.8-1.1-4.9-8.1-5.4-4.8-.4-6.3-1-8.4-3.2-1.9-2-2.2-3.1-1.4-3.9.8-.8 1.1-.7 1.1.6 0 2.3 1.5 2.1 4.9-.4 2.3-1.7 3.3-1.9 4.9-1 1.5.8 2.1.7 2.6-.4.9-2.5-8.8-9.8-32.6-24.6-6.6-4-8.8-5.9-8.8-7.5 0-1.6-1.2-2.6-4.7-4.1-4.7-2-6.9-3.7-18.2-13.9-3.1-2.9-7.1-6.1-9-7.2-2-1.2-3.9-3.4-4.5-5.2-.6-1.8-1.5-3.1-2.1-3-.5.1-.9.6-.8 1.1.5 1.6-1.3 1-3.2-1.1-1.3-1.5-1.5-2-.4-2 1.7 0-6.6-8.5-15.3-15.7l-6.7-5.5.6-4.4c.4-3 .2-4.4-.6-4.4-.6 0-1.1.7-1.1 1.5 0 3-2.7 1.4-7.5-4.4-2.7-3.3-5.3-5.7-5.7-5.5-.4.3-.8.1-.8-.5s-.6-.8-1.4-.5c-1.5.6-13.7-8.8-14.5-11-.2-.6-1.5-2.4-3-4-2.2-2.5-2.3-2.8-.6-2.1 1.1.4 2.8 1 3.8 1.2zm37.7 1.4c0 .5.7.6 1.6.2 1.2-.4 1.5-.1 1.3 1.2-.6 2.9-2.3 2.8-4.7-.4-2-2.8-2-2.9-.2-2.4 1.1.3 2 .9 2 1.4zm287.5 3.1c2.2 1.6 4 3.2 4 3.6 0 .4.4.6.9.4.4-.1 1.4.5 2.1 1.5 1 1.4 1 2-.2 3.2-1.2 1.1-1.6 1.2-2.3.1-.4-.7-1.3-1-1.9-.6-1.4.9-8-2.5-10.8-5.6-2-2.1-2.1-2.7-1.1-5 1.4-3 2.1-2.8 9.3 2.4zM969 375c0 .5-.4 1-1 1-2.2 0 .6 3 7.5 8.1 4.1 3 7.5 5.7 7.5 6.1 0 .4-1.5.5-3.2.1-3.8-.7-9.3-4.3-15.8-10.1l-4.5-4.1 3.3-.1c2 0 3.1-.4 2.7-1-.3-.6.3-1 1.4-1 1.2 0 2.1.4 2.1 1zm-327.7 14.5c-.1.3-.4 1.9-.8 3.5-.8 3.7-2.4 3.8-5.7.2-3.4-3.6-4.9-6.7-4.2-8.6.5-1.3 1.4-1.1 5.7 1.4 2.9 1.6 5.1 3.2 5 3.5zm-22.7-4.1c2.3 1.7 1.2 2.3-5.3 2.8-4.8.4-4.7.4-3.3-2.3 1.3-2.3 5.7-2.5 8.6-.5zm345.9 3.8c4.2 1.9 2.7 6.4-1.9 5.2-3.2-.8-3.7-1.4-2.9-4.2.6-2.5 1.2-2.6 4.8-1zm-354.3 9.7c6.2 6 6.2 6 3.5 6.6-1.5.4-3.7.5-5 .1-1.6-.4-2.6.1-3.5 1.4-1.4 2.3-4.4 2.6-6 .7-1.5-1.7-.7-12.8 1-13.8 2.4-1.6 3.7-.9 10 5zm83.3-2.9c.8 0 1.8-.8 2.4-1.8.9-1.6 1.1-1.6 3.2.5 2.6 2.6 1.9 5.3-1.3 5.3-2.5 0-8.8-3.5-8.8-4.8 0-1.8 1.4-2.2 2.2-.7.5.8 1.5 1.5 2.3 1.5zm-466.7 4.5c-.3.3-.9-.2-1.2-1.2-.6-1.4-.5-1.5.5-.6.7.7 1 1.5.7 1.8zm449.1-1.6c1.6 1 .6 3.1-1.5 3.1-.8 0-1.4-.9-1.4-2 0-2.2.7-2.5 2.9-1.1zM458.2 405c1.6 1.6 3.4 3 3.9 3s.9.7.9 1.5.9 1.9 2 2.5c1.3.7 2 2.1 2 3.8 0 1.5.7 3.8 1.6 5.1 1.6 2.2 1.6 2.3-.2 1.3-2.5-1.3-5.5-4.7-5.2-5.8.1-.5-.1-1.9-.5-3-.6-1.7-1.3-2.1-3-1.6-1.9.5-2 .4-.9-1.1 1.2-1.4 1.1-1.7-1-2.2-2.9-.7-6.6-6.5-4.2-6.5.9 0 2.9 1.3 4.6 3zm254.3 0c.3 1.1 1.4 2 2.4 2 2.4 0 4.5 2.5 3.7 4.5-.4 1.2-1.4.9-4.9-1.7-2.8-2.1-4.1-3.7-3.6-4.4.5-.6.6-1.4.2-1.7-.3-.4-.1-.7.5-.7s1.4.9 1.7 2zm-256.8 7.6c0 .8-.6 1.3-1.4 1-2.5-1-1.3 3 1.7 5.9 1.6 1.6 2.8 3 2.6 3.3-.7.6-6-2.5-8.1-4.8-1.9-2.1-1.9-2.2-.1-3.5 1-.8 1.5-1.8 1.1-2.4-.3-.6-.1-1.1.6-1.1s.5-1-.6-2.8l-1.8-2.7 3 2.8c1.6 1.5 3 3.4 3 4.3zm168.3-2.2c0 .6-.7 1.9-1.4 2.9-1.2 1.6-1.4 1.4-2.3-2.2-1-3.9-1-3.9 1.3-2.9 1.3.6 2.4 1.6 2.4 2.2zm396.3-.5c2.6 1 4.4 6.1 2.2 6.1-1.6 0-6.7-5.5-5.8-6.3.8-.9.7-.9 3.6.2zm-222.1 3.6c1.6 3.4.3 4.3-2.5 1.7-1.3-1.2-2.9-2.2-3.6-2.2-.7 0-.9-.5-.6-1 1.3-2 5.5-1.1 6.7 1.5zm-150.5 11.9c-.6 1.9-2.7 1.7-2.7-.2 0-1.1-1.1-2.4-2.6-3.1-2.2-1-2.4-1.4-1.3-2.7 1.1-1.4 1.6-1.2 4.1 1.8 1.5 1.8 2.6 3.7 2.5 4.2zm170.6-1.8c6.7 4.6 9 8.2 4.5 7.1-5.4-1.3-10-3.5-11.5-5.6-.8-1.3-2.9-3.1-4.7-4.2l-3.1-1.9h4c3.1 0 5.5 1 10.8 4.6zm-108.1-1.9c2.7 2.5 2.2 3.3-1.4 2-4.2-1.5-4.1-1.4-3.3-2.6.9-1.6 2.6-1.4 4.7.6zm-34.1 1.6c-1.3 1.3-2.6.3-1.6-1.2.3-.6 1.1-.8 1.7-.5.6.4.6 1-.1 1.7zm-230.6.6c.3.5.1 1.2-.5 1.6-.5.3-1-.1-1-.9 0-1.8.6-2.1 1.5-.7zm595.5 1.3c0 1.3-2.3.5-2.8-1-.2-.7.2-1 1.2-.6.9.3 1.6 1.1 1.6 1.6zm-337.4.6c.6.4 1 2.4 1 4.5-.2 5.3-3.7 8.5-9.8 8.8-2.6.2-5.1 0-5.5-.4-.4-.4.4-2.8 1.7-5.2 2.1-3.9 2.7-4.3 5.2-3.8 3.5.7 6.9-.4 4.9-1.6-.7-.5-1-1.4-.7-2 .8-1.3 1.7-1.4 3.2-.3zM643 428c0 .5 1.2 1.6 2.8 2.4 3.7 2.1 2.1 2-2.2-.1-1.9-.9-3.3-2-3-2.5.7-1.1 2.4-1 2.4.2zm-154.9 1c1.9 1 2.7 5 1.1 5-.9 0-3.3-2.5-4.6-4.8-.9-1.5.8-1.6 3.5-.2zm321.4 4c-.3.5-1 1-1.6 1-.5 0-.9-.5-.9-1 0-.6.7-1 1.6-1 .8 0 1.2.4.9 1zM195 436.7c0-1.3 9.6 3.6 12.3 6.1 1.5 1.5 3.6 2.7 4.5 2.7 1.1 0 1.8 1 2 2.7.3 2.7-1.1 3.8-2.3 1.8-.4-.6-1.2-.4-2.1.5-.9.8-2.2 1.5-3 1.5-1.2 0-1.2-.4-.2-2 .7-1.1 1.9-2.1 2.8-2.3 1.1-.2.7-1.1-1.7-3.5-3.1-3.1-6.2-4.4-4.7-2 .6 1 .4 1-.8 0-1.4-1.1-1.7-1-2 .5-.3 1.5-1.2 1-5.1-2.6-5-4.7-6.3-7.2-2.2-4.5 1.4.9 2.5 1.4 2.5 1.1zm193 3.3c0 .5-.2 1-.4 1-.3 0-.8-.5-1.1-1-.3-.6-.1-1 .4-1 .6 0 1.1.4 1.1 1zm690.4 4.3c.3-.4.6.5.6 1.8 0 1.7 1.1 3.1 3.6 4.7 3.3 2.1 3.5 2.5 2.1 3.9-1.7 1.7-3.7 1-3.7-1.3 0-.8-.4-1.4-.9-1.4-1.7 0-2.2 1.9-1.1 3.9.5 1.1.7 2.7.4 3.6-.7 1.8-4.2 1.4-10.4-1.2l-3.5-1.4 2.9-2.4c1.9-1.5 2.7-2.9 2.3-4-.4-.9-.3-1.4.3-1 .6.4 1-1 1-3.5v-4.1l2.9 1.5c1.6.9 3.1 1.2 3.5.9zm-680.6.5c.6 1.8-1.5 1.4-2.2-.4-.4-1-.1-1.4.6-1.2.6.2 1.4 1 1.6 1.6zm279.9 8c-.8 1-1.5.8-3.4-.9-1.2-1.3-2.3-3.1-2.3-4.2 0-1.7.4-1.6 3.3 1 2.5 2 3.1 3.1 2.4 4.1zm44.9-5.3c.8 2-1.3 4.5-3.8 4.5-2.7 0-3.5-3-1.3-4.6 2.5-1.8 4.4-1.8 5.1.1zm80.9 2.5c1.6 1.7 3.9 3 5.3 3 3.2 0 5.7 1.5 9.7 5.8 4 4.3 4.4 5.6 1.3 4.6-1.3-.5-3.4-.8-4.8-.9-5.3-.2-20-10.9-20-14.5 0-2.3 5.7-.9 8.5 2zm-53.7.2c-.3 2.4-3.5 3.5-6.6 2.3-1.5-.6-1.4-.9.7-2.6 3.3-2.7 6.3-2.5 5.9.3zM221 454.7c0 .7-3.9-1.7-4.6-2.8-.3-.6.5-.3 2 .6 1.4 1 2.6 1.9 2.6 2.2zm188.3.3c-.6 2.3-1.9 2.6-2.6.6-.6-1.6.1-2.6 1.9-2.6.7 0 1 .8.7 2zm681.1 1.6c.5 1.3.3 1.4-.6.7-.7-.6-2-1.3-2.8-1.6-1-.4-.8-.6.6-.6 1.2-.1 2.5.6 2.8 1.5zm-666.9 1.2c-.3.3-1.1 0-1.8-.7-.9-1-.8-1.1.6-.5 1 .3 1.5.9 1.2 1.2zM563 459c0 .5-.5 1-1.1 1-.5 0-.7-.5-.4-1 .3-.6.8-1 1.1-1 .2 0 .4.4.4 1zm-129.9 5.7c1.3 1.6 1.2 1.7-.3.4-1-.7-1.8-1.5-1.8-1.7 0-.8.8-.3 2.1 1.3zm143.4 2.3c2 1.6 4.5 3.2 5.6 3.5 1.5.5 1.7 1.2 1.2 3.8-.8 4.2-.6 4-4.4 2.4-5.1-2.2-10-7.7-9.3-10.5.8-2.9 2.4-2.8 6.9.8zm253.9-1.6c1.2-.4 1.5-.2 1.1.9-.5 1.1.4 1.6 3 2.1 3.3.6 3.7 1 3.2 3.2-.3 2 0 2.4 2 2.4 4.9 0 11.3 4.9 11.3 8.7 0 2.9-.7 2.9-3.7 0-1.3-1.2-5.6-3.8-9.6-5.7-5.1-2.5-7.2-4-7.1-5.3.1-.9-.3-1.7-.8-1.7-1.4 0-4.7-4.3-4.1-5.3.3-.4 1.1-.3 1.8.3s2 .8 2.9.4zm-404.1 3.1c4.1 4.1 3.9 4.3-1.3 1.4-2.4-1.4-3.6-2.7-3.3-3.5.7-1.9.6-1.9 4.6 2.1zm74.3 2.3c2.1 1.4 6.6 8.2 5.5 8.2-1.3 0-5.7-4.5-7.2-7.3-1-1.8-.2-2.2 1.7-.9zm64.6 6.3c3.6 3.6 5.7 6.6 5.4 7.5-.3.8-.1 1.4.5 1.4s1.7.6 2.5 1.4c1.7 1.8 1.9 4 .2 2.9-.7-.4-1.7-.8-2.1-.8-.4 0-1.3-1.1-2-2.5-1.1-2.1-6-6.3-11-9.5-.9-.6-1.9-2.2-2.3-3.8-1.1-4.6 2.4-3.3 8.8 3.4zm219.4-4.5c2.5 1.2 3.3 2.1 2.9 3.4-.4 1.2.3 2.1 2.4 3 1.6.6 4.2 2.5 5.8 4.1 2.7 2.7 6.3 3.9 6.3 2 0-.4 1.1-.6 2.5-.3 1.6.3 2.5 1.1 2.5 2.3 0 1 .5 2.1 1 2.4 1.3.8 1.3 2.5.1 2.5-.5 0-2.3-1.1-3.9-2.5-3.8-3.1-5.3-3.1-8.3.1-2.1 2.2-2.5 2.3-3.5.9-.8-1.1-1.4-1.2-1.9-.6-.3.7-2.3-1-4.5-3.8-2.1-2.7-5.3-5.9-7.1-7.2-3.1-2.2-3.1-2.3-1-3 2.2-.9 2.9-2.9 1-2.9-.5 0-.7-.5-.4-1 .9-1.4 2.2-1.3 6.1.6zm-40.8 4.1c.2.8-.6 1.3-2.2 1.3-2.5 0-3.3-1-1.9-2.4 1-1 3.6-.3 4.1 1.1zm165.2.9c0 1.7-2.2 1.4-2.8-.4-.2-.7.3-1.2 1.2-1.2.9 0 1.6.7 1.6 1.6zm-603.4 6.9c3 1.1 4.4 2.2 4.4 3.5 0 1 1.4 3 3.2 4.4 4 3.1 3.2 4.2-1.7 2.6-4.6-1.5-10.5-6.6-10.5-9.1 0-1.5-.5-1.7-2.9-1.3-3.6.7-4.9-1.1-2.6-3.6 1.7-1.8 1.8-1.8 3.7-.1 1.1 1.1 3.9 2.6 6.4 3.6zm285.4-3.6c0 1.4-1.8 2.3-3 1.6-.6-.4-.8-1.1-.5-1.6.8-1.2 3.5-1.2 3.5 0zm166.4 2.7c.4 1 .1 1.4-.6 1.2-1.5-.5-2.3-2.8-1-2.8.5 0 1.3.7 1.6 1.6zm-210.9 19.8c10 7.7 14.1 10.3 14.3 9.2.2-.9.5-1.6.7-1.6.2 0 3.5 1.6 7.4 3.6 5.2 2.6 9 5.6 14.6 11.6 7.1 7.6 7.5 8.2 5.9 9.9-.9 1-1.3 2.2-1 2.8 1 1.6-13.2-4.7-19.1-8.5-2.9-1.9-5.3-3.6-5.3-3.9 0-.4.5-.3 1 0 1.8 1.1 1-2.5-.9-4.4-3.3-3.3-8.2-5.3-11.1-4.7-2.3.4-4-.6-10.6-6.1-4.4-3.6-8.9-7-10.2-7.6-1.2-.6-2.1-1.6-1.8-2.4.3-.7-.4-1.9-1.5-2.7-1.3-.9-1.6-1.6-1-2.1 1.8-1 1.3-3.2-1.6-6.6l-2.8-3.3 4.5 3.1c2.5 1.7 10.8 7.9 18.5 13.7zm68.6-11.4c1 .6 1.9 1.9 1.9 2.8 0 1 .5 2.3 1.2 3 .9.9.9 1.2-.1 1.2-1.7 0-7.2-6-6.5-7.1.7-1.1 1.1-1.1 3.5.1zm-425.8 5.1c2.7 4.1 3.3 5.9 2 5.9-.5 0-2-2.3-3.4-5-3.2-6-2.3-6.6 1.4-.9zm79.6.9c2.4 1.7 4 3 3.6 3-1.1 0-9.5-4.9-9.5-5.5 0-1.1 1.7-.3 5.9 2.5zm290-1.6c1.5.8 3.3 2.2 4 3 2.2 2.6-2.8 2-5.6-.6-3.8-3.6-3.1-4.8 1.6-2.4zM819 511.6c5.3 3.7 5.5 4 3.8 5.7-1.7 1.6-2.1 1.6-4.8.2-4.4-2.3-10.1-2-10.7.5-.3 1.1-.9 2-1.4 2-.4 0-1.3-.9-1.9-2-.6-1.1-1.7-2-2.5-2-.9 0-1.2-.6-.8-1.6.4-1 1.3-1.4 2.9-1 2.7.7 3.9-1.7 2.8-5.8-.4-1.8-1.3-2.6-2.8-2.6-1.2 0-3.1-.7-4.2-1.5-1.9-1.5-1.9-1.5.5-3.5l2.3-2 5.7 4.9c3.1 2.6 8.1 6.6 11.1 8.7zm-491.9-8.1c4.6 3.6 6.9 4.4 6.9 2.2 0-.8.3-.8.9.2.8 1.2 1.2 1.2 2.5.2 1.2-1 1.8-.6 3.8 2.8 1.6 2.8 3 4.1 4.5 4.1 1.3 0 3.3 1.5 5.2 4.2 3.8 5.1 2.2 6.5-2.1 1.9-1.6-1.7-3.7-3.1-4.6-3.1-1.5 0-1.5.2-.2 1 1.1.7 1.2 1 .2 1s-1.2.8-.7 3c.4 1.9.3 3-.4 3-.6 0-1.1.4-1.1 1 0 .5 1.5 1 3.4 1 3.6 0 6 1.9 5.4 4.4-.2 1.3-1.7.7-7.2-2.5-3.7-2.3-7.1-3.8-7.5-3.3-1.5 2.2-6.6 1.4-10.1-1.4-3.2-2.8-3.3-3-1.7-4.6.9-1 2.1-1.4 2.7-1.1 2.1 1.3.9-1.9-1.5-4.1-1.4-1.3-2.5-3.2-2.5-4.2 0-1.1-.7-2.2-1.5-2.6-.8-.3-1.5-1-1.5-1.7 0-.6.7-.8 1.6-.5 1.3.5 1.5.1 1-1.9-.4-1.4-.5-2.5-.3-2.5s2.4 1.6 4.8 3.5zM283 508c1.9 2.7 2.6 5 1.5 5-1.2 0-6.2-2.9-7.4-4.3-.6-.8-1.6-2.9-2-4.5l-.9-3 3.4 2c1.9 1.1 4.3 3.3 5.4 4.8zm188-1c0 .5-.4 1-1 1-.5 0-1-.5-1-1 0-.6.5-1 1-1 .6 0 1 .4 1 1zm152.9 2.4c1.5.8 3.3 2.2 4 3 1.2 1.4 1 1.6-1.1 1.6-2.9 0-8.1-3.7-7.3-5.1.8-1.2 1.1-1.2 4.4.5zm-34.4 4.6c.3.5.2 1-.4 1-.5 0-1.3-.5-1.6-1-.3-.6-.2-1 .4-1 .5 0 1.3.4 1.6 1zm-339 3c.3.6-.1.7-.9.4-1.8-.7-2.1-1.4-.7-1.4.6 0 1.3.4 1.6 1zm363.6 4.3c-.1 1.2-1.5.9-1.9-.4-.3-.6.1-1 .8-.8.6.3 1.1.8 1.1 1.2zm-306.8 1.9c.4 1 .7 1 1.4.1.7-1 2.5-.2 7.4 3 7.7 5 20.5 15.2 27 21.5 4.3 4 4.6 4.7 4.2 8.1-.4 2.6 0 4.1 1.1 5 2.7 2.3 1.8 2.8-3.9 2.3-4.5-.4-5.5-.2-5.5 1.1 0 2.2 2.8 4.7 5.3 4.7 1.6 0 1.8.3.9 1.2-.8.8-2 .5-5-1.5-2.1-1.5-4.6-2.7-5.5-2.7-.9 0-1.7-.4-1.7-1 0-.5-1.2-1.6-2.8-2.4-1.5-.8-5.9-4.1-9.8-7.3-3.8-3.2-8.4-6.5-10.2-7.2-3.5-1.5-3.7-1.8-2.2-4.1.8-1.2 1.3-1.3 3-.3 2.6 1.7 5.5 1.6 7.3-.1 1.2-1.3 1.8-1.2 4.6.5 2.9 1.8 3.9 3.8 2.5 5.2-.4.3-1.7-.1-2.9-.9-2.2-1.4-2.4-1.4-3 .6-.5 1.4-.1 2.8 1.2 4.2 2.3 2.6 13.3 10.1 13.3 9.1 0-.4.5-.2 1 .3.7.7 2.5-.2 5.5-2.9 4.7-4.2 5.5-6.6 3-8.7-.8-.7-1.5-1.8-1.5-2.4 0-.6-4.4-3.1-9.7-5.5-5.3-2.4-10.4-5.2-11.5-6.3-2.2-2.2-4.2-2.4-3.4-.2.4 1.2.2 1.5-.9 1.1-.8-.4-1.7-.2-2 .3-1 1.5-2.8 1.2-2.2-.4.4-1-.9-1.9-4.1-3.1-9.2-3.2-8.6-3.3-8 1.3.5 3.5.4 4-1.1 3.3-8.4-3.9-10.1-4.8-10.5-6.1-.4-.8-.9-2.2-1.2-3-.5-1.1-.2-1.1 1.3.3 1.1.9 2.3 1.4 2.6 1 .4-.3.7-.1.7.5 0 .7.5 1.2 1.1 1.2.6 0 .8-.8.4-1.9-.5-1.6-.1-1.9 2.7-1.8 3 .2 3.3-.1 3.6-3.1.3-2.7.7-3.2 2.3-2.7 1.1.4 1.9.2 1.9-.4 0-1.5 2.7-1.4 3.3.1zm-37.9 7.3c.3.8 1.2 1.5 2.1 1.5.8 0 1.5.6 1.5 1.2.1.7 4.2 4.1 9.3 7.5 11 7.3 25.1 18.9 25.5 20.9.2.8-.3 1.4-1.1 1.4-.9 0-2.2.3-3.1.6-1.1.4-3.7-1.6-8.2-6.5-4.1-4.3-7.8-7.3-9.5-7.6-2-.5-3.4-1.8-4.6-4.2-2.1-4.4-8-10.6-9.4-9.7-1.3.8-6.3-4.2-5.4-5.6.9-1.4 2.2-1.2 2.9.5zm332.1 5.3c.7 1.5 1.6 2.1 2.8 1.8 1-.2 2.6.3 3.6 1.2.9.9 5.8 5 10.8 9.1 5.1 4 9.4 8 9.7 8.7.3.8 1.5 1.4 2.6 1.4 1.2 0 1.9-.4 1.6-.9-.3-.5 0-1.4.8-2 1-.9 1.9-.7 3.7.9 2 1.6 2.2 2.1.9 2.9-1.2.8-1.2 1.3.4 3 2.3 2.5 4.4 2.6 9 .4 3.5-1.6 3.6-1.6 9.9 1.6 3.4 1.7 9 5.6 12.2 8.6 5.6 5.1 5.9 5.6 4.2 6.9-1.3 1-1.7 2.1-1.2 3.5.7 2.3 6.3 7.4 10.4 9.6 2.5 1.2 3 1.2 3.4.1.4-.9 1.4-1.2 2.6-.9 1.2.3 2.8 0 3.7-.7 1.2-1.1 1.8-1 3.1.3.9.8 1.3 2.3.9 3.2-.5 1.3-1.4 1.5-5.3.9l-4.7-.7 1.7 2.7c2.2 3.3 1.7 3.3-3.5-.1-5.1-3.2-13.7-7-19.8-8.9-3.4-1-4.6-1.1-5.2-.1-.5.9-1 .9-2-.2-.9-.9-1-1.5-.2-1.8.8-.2.5-1.6-.7-4.1-1.1-2-1.9-4.2-1.9-4.9 0-.7-4.8-3.5-10.6-6.3-5.9-2.7-12.7-6.6-15-8.6-2.4-1.9-4.4-3.2-4.4-2.8 0 .3-.6.2-1.2-.3-.7-.6-2.5-1.3-4-1.7-2.7-.6-20.2-17.1-20.3-19 0-.6-.6-2.2-1.3-3.4-1.2-2.1-1.2-2.3.5-2 1 .2 2.3 1.3 2.8 2.6zm58.5-.8c0 .5.7 1 1.6 1 .8 0 1.3.4 1 .9-.3.5 2.9 2.1 7.1 3.6 8.9 3.1 13.8 6.1 15.2 9.2.9 2 .8 2.3-.9 2.3-1.1 0-2-.5-2-1 0-1.7-11.9-8.9-17.6-10.7-2.9-.9-5.2-2.1-5.1-2.7.1-.6-.8-1-2-.8-2.2.3-3-.8-1.6-2.1 1-1.1 4.3-.8 4.3.3zm-300.5 2.8c-.3.3-1.1 0-1.8-.7-.9-1-.8-1.1.6-.5 1 .3 1.5.9 1.2 1.2zm15.2 6.5c.2.3-.3.7-1.2 1-.8.4-1.5.2-1.5-.3 0-.6-.4-1-1-1-.5 0-1 .9-1 2s-.6 2-1.4 2c-2.1 0-2.8-1.7-1.6-3.9.8-1.6 1.5-1.8 4.1-1.1 1.8.5 3.4 1.1 3.6 1.3zm46.7 13.6c1.1 1.2 2.4 2.1 3 2.1.7 0 1.2.9 1.2 2 0 2.2-.4 2.4-2.6 1-.9-.6-1.7-.5-2.2.3-.6.9-1 .9-1.6-.1-.5-.7-1.5-1-2.4-.7-.8.3-2.1-.1-2.8-1-1.5-1.9-.5-3.4 1.2-1.7s2.8 1.5 2.2-.3c-.4-.8-.1-1.5.6-1.5.9 0 .6-.8-.6-2.1-1.9-2.2-1.9-2.2.1-1.1 1.1.5 2.9 2 3.9 3.1zm281.2 1.8c-.7.7-2.6-.7-2.6-1.9 0-.6.6-.6 1.5.2.9.7 1.3 1.5 1.1 1.7zM355.4 565c1.2 0 3.7 1.3 5.6 3 3 2.5 3.2 2.9 1.5 3-2 0-5.6-2-8.3-4.7-.7-.7-1.7-1.3-2.2-1.3-.5 0-.6-.8-.2-1.8.6-1.6.7-1.6 1 0 .2 1.1 1.3 1.8 2.6 1.8zm35.6.5c.7.8.8 1.5.2 1.5-.5 0-1.5-.7-2.2-1.5-.7-.8-.8-1.5-.2-1.5.5 0 1.5.7 2.2 1.5zm15.4 2c.3.8 1.1 1.5 1.8 1.5s3 .5 5.1 1.1c3.2.9 3.7 1.4 3.7 3.9 0 3.2-2.3 5-6.4 5-2.6 0-3.1-1.7-1.1-3.2 1.3-1-1.6-6.3-3.5-6.4-2.5-.2-5-1.6-4.4-2.5.9-1.4 4.1-1 4.8.6zm50.3.1c.2.7-.6 1-2.1.7-1.4-.3-2.3-1-2-1.5.8-1.2 3.6-.6 4.1.8zm-131.1 8.3c2.3 1.7 5.2 2.9 7.2 2.9 4.4.1 9.9 3.8 12.1 8.2l1.7 3.6-2.9-.2c-2.4-.2-5.1-1.9-8.7-5.4-.3-.3-2.2-1.4-4.4-2.5-5-2.5-12.6-9.4-10.5-9.5.8 0 3.3 1.3 5.5 2.9zM457 581c1.1.6 2.4 2 3 3.1 1.1 2 1 2-1.8.5-3.4-1.8-6.1-4.6-4.3-4.6.7 0 2.1.5 3.1 1zm-63.2 11.7c1.5 2.1 1.5 3.3 0 3.3-1.9 0-11.3-6-12.6-8-1-1.6-.4-1.5 5.1.6 3.4 1.3 6.8 3.2 7.5 4.1zm101 1.1c.7 2.3-1.6 1.2-3.4-1.5l-1.8-2.8 2.4 1.6c1.3.9 2.6 2.1 2.8 2.7zm-31.1.2c3.3 2.6 1.7 2.6-2.2 0-1.6-1.1-2.4-2-1.7-2 .8 0 2.5.9 3.9 2zm16.1 7.6c-1.3 2.8-3.8 2-3.8-1.1 0-1.3-.4-2.7-1-3-.5-.3-1-1.3-1-2.1 0-1.1.9-.7 3.4 1.2 2.9 2.4 3.3 3 2.4 5zm196.2-2.9c1.4.9 2.9 2.3 3.3 3 .4.7 1.7 1.3 2.7 1.3 1.1 0 2 .5 2 1.1 0 .7.8 1.8 1.8 2.5 1.5 1.2 1.3 1.3-2 1.2-3-.1-3.8-.5-3.8-2 0-1.4-.5-1.8-1.9-1.3-1.3.4-2.8-.5-5-3-1.7-2-3.1-3.8-3.1-4 0-1.1 3.8-.4 6 1.2zm-363.3 3.7c4.4 3.6 7.6 5.1 8.1 3.7.3-.8 1.4-.5 3.6.8 1.7 1.1 4.1 1.9 5.1 1.9 1.8-.2 7.5 2.8 7.5 3.8 0 .3-1.1.2-2.5-.2-1.4-.3-2.5-.2-2.5.2 0 .5 4.5 5.1 10 10.2 9.1 8.5 9.9 9.5 8.4 10.9-1.2 1.3-2 1.3-4 .4-1.4-.6-2.2-1.6-1.9-2.1.3-.6.1-1-.6-1-1 0-1-.3-.2-1.1.9-.9.4-1.8-1.8-3.6-1.6-1.4-2.9-3.1-2.9-3.9 0-.8-.7-1.4-1.5-1.4-.9 0-5-1.8-9.1-4-4.2-2.2-8.4-4-9.4-4-1.4 0-2-.9-2.2-3.3-.2-2.7-.9-3.4-3.8-4.4-1.9-.7-3.1-1.2-2.6-1.2.5-.1.1-1-.9-2.1-2.5-2.8-.3-2.5 3.2.4zm105.8-1.4c-.3.5-1.2 1-2 1s-1.7-.5-2-1c-.4-.6.5-1 2-1s2.4.4 2 1zm291.3.6c1.6.5 2.1 1.2 1.7 2.4-.3.9.4 2.8 1.5 4.3 3.2 4.1 2.3 5-2.2 2.2-2.4-1.4-5-3-5.8-3.4-1.2-.8-1.2-1.3 0-3.5 1.5-2.8 1.5-2.8 4.8-2zm-261.1 3c-.3.3-1.2.4-1.9.1-.8-.3-.5-.6.6-.6 1.1-.1 1.7.2 1.3.5zM492 606c2.8 2.2 2.1 2.5-2.8 1.1-2.6-.8-3.2-.7-3.2.6 0 1.3-.3 1.3-1.5.3-1.4-1.1-1.3-1.4.7-2.5 3.2-1.8 3.9-1.7 6.8.5zm-75.2 3.5c1.6.5 2.1 1.2 1.6 2.4-.4.9-.6 2.4-.6 3.3 0 1-.6 1.8-1.5 1.8s-1.3.6-.9 1.5c.8 2.1-.2 1.9-3.7-1.1-2.1-1.8-3.2-2.2-3.7-1.4-.6.9-.9.9-1.5 0-.4-.6-1.8-1.5-3.1-2-1.5-.6-2.2-1.5-1.8-2.5.3-.8 1.1-1.2 1.7-.8 2 1.2 4.7 1 4.7-.3 0-2.1 3.9-2.5 8.8-.9zm59.7 5.7l2.8 4.3-4.4-4c-2.4-2.2-4.6-4.1-4.8-4.3-.2-.1.5-.2 1.6-.2 1.3 0 3 1.5 4.8 4.2zm-234.9 3.3c2.4 3.7 1.2 4-2.1.5-2.2-2.3-2.5-3-1.2-3 .9 0 2.4 1.1 3.3 2.5zm151-1.7c1.4.9 2.8 5.2 1.8 5.2-1.3 0-4.4-3.3-4.4-4.7 0-1.4.9-1.7 2.6-.5zm102.3 5.3c3 4 2.1 4.7-2.3 1.9-3.8-2.3-4.4-3.5-2.3-4.3 2.1-.9 2.3-.8 4.6 2.4zm221.9-2.2c1.2.7 1.2 1.2 0 3-1.1 1.8-1.1 2.3.1 3 .8.5 2 .7 2.8.4.7-.3 1.3.1 1.3.8 0 .8.9.4 2.3-.9 1.3-1.2 2.9-2.2 3.6-2.2 1.9 0 12.6 8.8 20.6 17l7 7.1-5.5-2c-6.9-2.6-15.7-8.6-17.5-12-.8-1.4-1.4-2-1.5-1.4 0 1.9-1.5 1.6-5.6-1.2-2.1-1.4-4.2-2.4-4.8-2.2-1 .3-3.3-1.6-7.1-6.1-1.6-2-1.7-2.5-.5-3.2 1.9-1.2 3.1-1.2 4.8-.1zm-286.6 2.6c1.6 1.4 3.6 2.5 4.4 2.5.8 0 1.7 1.3 2.1 3 .4 2.4 2.2 4.2 7.2 7.7 7.2 5 14.1 11.2 14.1 12.6 0 .4-4.5-1.5-10.1-4.4-8.9-4.7-10-5.6-9.6-7.6.3-1.8-.3-2.8-2.8-4.3-1.7-1.1-4-2.8-5-4-1-1.1-2.8-2-4.1-2-2.1 0-2.1-.2-1.1-3 .6-1.7 1.3-3 1.5-3 .2 0 1.7 1.1 3.4 2.5zm87.6 2.3c.7 2.3-1.6 1.2-3.4-1.5l-1.8-2.8 2.4 1.6c1.3.9 2.6 2.1 2.8 2.7zm-55.3.1c5 2.2 10.5 6.8 10.5 8.7 0 .8-.4 1.4-1 1.4-1.6 0-1.1 3.6.8 5.2.9.9 3.3 2 5.4 2.6 2 .5 8 4.3 13.5 8.4 5.4 4.1 13.2 9.8 17.5 12.7 7.3 5.1 10.4 9.1 7.2 9.1-2.7 0-6.9-2.8-11.9-8-5.8-6-8-7.3-15.4-9-4.4-1-6.4-2.3-10.5-6.5-2.8-2.8-6.1-6.6-7.4-8.3-1.3-1.8-2.9-3.2-3.7-3.2-.7 0-1.8-.7-2.5-1.5-1.1-1.3-1.5-1.3-2.2-.3-.6 1-1 1-1.6.1-.4-.6-2.9-2.1-5.5-3.2-3.3-1.4-4.5-2.4-4.1-3.5.5-1.2 1-1.3 2.4-.4 1 .7 1.6 1.6 1.4 2-.3.4.6.8 2 .8 1.7 0 2.6-.5 2.6-1.6 0-1.4.3-1.4 1.5-.4 1.2 1 1.5.9 1.5-.7 0-1.2-1.5-2.6-4.2-4-5.4-2.7-2.1-3.1 3.7-.4zm-54.9 8.3l2.9 3.1-3.2-2.2c-3.5-2.3-5-4.1-3.5-4.1.4 0 2.1 1.4 3.8 3.2zm14.8 2.7c-.2.3-1.2-.3-2.2-1.3-1.6-1.7-1.6-1.8.5-.5 1.2.7 2 1.5 1.7 1.8zm292.1.7l1.6 2.5-2.5-1.6c-1.4-1-2.3-2.1-2-2.6.8-1.3 1-1.2 2.9 1.7zm-61.8 2c-.3.3-1.2.4-1.9.1-.8-.3-.5-.6.6-.6 1.1-.1 1.7.2 1.3.5zm-207.7 12c3.9 3.2 6.6 6 6.1 6.2-1.1.4-8.1-4.1-14.8-9.5-3.3-2.6-4.8-3.2-6.8-2.7-2.8.7-3 .2-1.3-2.6 1.2-1.9 1.3-1.9 5.5.4 2.3 1.3 7.4 5 11.3 8.2zm288.5-1.9l4.8 3.8-3.8.3c-4.2.4-6-.9-7-5.1-.9-3.6.2-3.4 6 1zM469 652.5c1.4.8 2.1 1.4 1.6 1.5-.5 0-.3.7.4 1.5 1.1 1.3 1 1.4-.6.9-1-.4-3.2-1.8-4.7-3.1-2.3-1.8-2.5-2.3-1-2.3 1 .1 2.9.7 4.3 1.5zm128.1 2.7c2.2 1.8 2.8 2.8 1.8 2.8-2 0-8.1-4.1-8.7-5.7-.5-1.8 2.6-.4 6.9 2.9zM185 658c2 2.2 3.5 4 3.3 4-1.3 0-6.2-3.2-8.2-5.4-2.2-2.3-2.2-2.6-.6-2.6 1 0 3.5 1.8 5.5 4zm-21.3-2.4c-.3.3-1.2.4-1.9.1-.8-.3-.5-.6.6-.6 1.1-.1 1.7.2 1.3.5zm350.9 2.9c3.6 3.2 2.2 3.9-1.6.8-.8-.7-2.4-1.9-3.5-2.7-1.6-1.2-1.7-1.5-.4-1.6.9 0 3.3 1.6 5.5 3.5zm258.8-1.9c.9.3 1.6 1 1.6 1.5 0 1.4-3.4 1.1-5.6-.6-1.9-1.4-1.9-1.4.3-1.5 1.2 0 2.8.3 3.7.6zM465 662.2c0 1.2-2.8-.3-3.4-1.8-.4-1.1-.2-1.2 1.4-.1 1.1.6 2 1.5 2 1.9zm267.1-1.5c1.3 1.7 1.3 1.7-.6.3-1.1-.8-2.2-1.6-2.4-1.7-.2-.2 0-.3.6-.3s1.7.8 2.4 1.7zm-250.2 1.4c1.6 1.2 3.4 1.9 3.9 1.5 1-.6 2.7 4.2 1.8 5.1-.3.3-2.5-1.6-4.9-4.1-4.9-5-5.1-5.7-.8-2.5zm129.7.5c6 2 6.9 2.7 5.7 4.9-.9 1.5-1.2 1.4-3-.9-1.1-1.4-2.3-2.3-2.6-2-.3.4-1.8-.3-3.3-1.5-3.2-2.5-3.1-2.5 3.2-.5zm-139.6 5c0 1.4-2.8-.1-4.5-2.4l-1.9-2.6 3.2 2.2c1.8 1.3 3.2 2.5 3.2 2.8zm-85.3.9c.1.5-.2 1.7-.7 2.5-.8 1.3-1.2 1.1-3-.7-1.1-1.2-2-2.5-2-2.8 0-1 5.3-.1 5.7 1zm9.5 1.2c.2.5 1.7 1.6 3.4 2.5 2.4 1.3 3.4 1.4 4.3.5.9-.9 1.8-.5 3.9 1.7l2.7 2.8-3.5-.7c-1.9-.4-5.4-1.8-7.7-3.1-3-1.7-4.3-2-4.6-1.1-.3.9-.7.9-1.9-.1-1.3-1-1.7-1-2 0-.4 1-.8 1-2.2-.1-1.3-1.1-1.4-1.6-.4-2.2 1.6-1.1 7.5-1.2 8-.2zm155.8 1.9c0 .2-.9 0-2-.6s-2-1.3-2-1.6c0-.2.9 0 2 .6s2 1.3 2 1.6zm-56.9 8c3.9 1.9 7.7 4.3 8.7 5.4.9 1.1 2.2 2 2.8 2 .7 0 1.4.3 1.6.7.6 1.6 9.3 7 10.5 6.6.6-.2 2.7.3 4.7 1.1 3.1 1.3 3.6 2 3.6 4.8 0 2.3.9 4.2 3.2 6.5 1.8 1.8 2.8 3.3 2.2 3.2-.5 0-4.7-1.9-9.4-4.2-6-3-9.1-5.2-10.5-7.4-1.1-1.8-2.4-3.2-2.9-3.3-.5 0-4.9-2.7-9.7-6-4.8-3.2-9.9-6.2-11.3-6.6-1.5-.3-2.6-1.3-2.6-2.3 0-.9-.7-2.9-1.5-4.5-2-3.8-.8-5.3 1.7-2.1 1.1 1.4 5.1 4.2 8.9 6.1zm39.3-.4c2.8 2 3 2 4.2.3.7-1 1.5-2.3 1.7-2.9.3-.6 2 .4 3.8 2.2 1.9 1.8 2.6 3 1.7 2.6-1.4-.4-1.8-.1-1.8 1.4 0 1.4 2 3.3 6.5 6.1 3.6 2.3 6.5 4.3 6.5 4.6 0 .5-6.1-2-12.5-5.3-5.7-2.8-18.5-11.1-18.5-11.9 0-1.1 5.6.9 8.4 2.9zm-93 2.8c.8 0 3.3 1.8 5.7 4.1l4.4 4-5.2-2.7c-2.9-1.4-6.2-3.8-7.5-5.1-1.9-2-2-2.5-.8-3.3 1.1-.7 1.6-.4 1.8 1 .2 1.1.9 2 1.6 2zm-253.9 3.3c.8 1.3 2.6 2.9 4 3.5 4 1.8 2.9 3.2-2.2 2.8-4.1-.4-4.9-.8-5.6-3-1.7-5.1 1-7.5 3.8-3.3zm390.5 1.2c.7.9.8 1.5.2 1.5-.5 0-1.2-.7-1.6-1.5-.3-.8-.4-1.5-.2-1.5s.9.7 1.6 1.5zm201 .6c1.3.7 1.3.8 0 .8-.8 0-2.6-.6-4-1.5l-2.5-1.5 2.5.7c1.4.3 3.2 1 4 1.5zm-568.6 3.5c.9.3 1.6 1.5 1.6 2.5 0 2.3-1.8 2.5-2.6.4-.4-.8-1.2-1.5-2-1.5s-1.4-.5-1.4-1c0-1.1 2-1.3 4.4-.4zm314.1.4c.3.5.2 1-.4 1-.5 0-1.3-.5-1.6-1-.3-.6-.2-1 .4-1 .5 0 1.3.4 1.6 1zm-110 3c.3.6-.1.7-.9.4-1.8-.7-2.1-1.4-.7-1.4.6 0 1.3.4 1.6 1zm58.9 8.7c3.1 5 1.8 5.6-2.6 1.3-2.5-2.5-2.8-3.3-1.8-4.5.7-.9 1.4-1.4 1.5-1.3.1.2 1.4 2.2 2.9 4.5zm145.6-1c0 1.4-.2 1.4-2-.2-1.1-1-2-2.2-2-2.7s.9-.4 2 .2c1.1.6 2 1.8 2 2.7zm-297.9-.7c.5 0 .9.7.9 1.5s-.6 1.2-1.5 1c-.8-.3-2.2-.7-3.1-1-.8-.3-1.2-1-.9-1.6.4-.6 1.4-.8 2.2-.5.8.3 1.9.6 2.4.6zm185 2.6c4 2 8.9 6.4 8.9 8 0 1.7.1 1.7-4.5-.2-2.7-1.1-4.1-1.2-4.8-.5-.6.6-2.1 1.1-3.4 1.1-1.9 0-2.3-.5-2.3-3 0-2.9-1.5-4.1-2.2-1.9-.6 1.7-4.8-.7-4.8-2.7 0-1.2.4-1.2 2-.4 1.6.8 2.2.7 3.2-1 1.3-2.1 2.9-2 7.9.6zm-54.9 1.7c-.2 1.2-.9 2.8-1.5 3.4-.5.7-.7 2.2-.4 3.4.5 2 .5 2-1.3.4-1.6-1.5-2.1-1.5-2.5-.3-.7 1.6-.2 5.5.8 6.4.8.8 1 4.4.2 4.4-2 0-14.9-8.3-19.2-12.4-4-3.6-4.1-4.6-.7-4.6 3.4 0 6.4 1.7 6.4 3.6 0 .8.7 2.8 1.5 4.4 2.1 4 5.1 3.9 7.3-.1.9-1.7 2.9-4.5 4.5-6.2 1.5-1.8 2.7-3.7 2.7-4.4 0-.7.6-1 1.4-.7.8.3 1.2 1.4.8 2.7zm106.8 1.3c2.2 1.5 3.8 2.9 3.6 3.2-.8.7-8-3.2-8.4-4.6-.5-1.8.4-1.5 4.8 1.4zm20.8 2c-1 1-2.8-.6-2.8-2.4 0-1.5.1-1.5 1.7.1.9.9 1.4 1.9 1.1 2.3zm-167.7 3.3c2.9 2.6 6.9 5.6 8.7 6.5 1.7.9 3.2 2 3.2 2.5s-3.3-.8-7.2-2.8c-5.4-2.7-7.7-4.5-8.8-6.8-.8-1.8-2.4-3.4-3.5-3.6-2-.4-2-.4.1-.6 1.1 0 4.3 2 7.5 4.8zm243.2-3.8c2.9 1.5 6.1 4.9 4.6 4.9-.8 0-.8.4.1 1.5 2.1 2.5.2 3-2.3.7-1.3-1.2-2.9-2.2-3.6-2.2-.7 0-.9-.5-.6-1 .3-.6 0-1-.8-1s-1.9 1-2.6 2.2c-.9 1.7-1 1.8-.5.3.4-1.1.9-3 1.1-4.3.6-2.5 1.5-2.7 4.6-1.1zm36.7 6c2.2 1.1 2.8 1.8 1.7 1.9-1.9 0-9.7-3.7-9.7-4.6 0-.8 3.9.5 8 2.7zm132.1 2.9c3.1 2.6 1.5 2.6-1.8 0-1.4-1.1-2.1-2-1.5-2 .5 0 2 .9 3.3 2zm-268.5.6c1.8 1.5 1.8 1.5-.3.5-2.9-1.5-3.3-1.4-3.3.6 0 .9 1 2.8 2.3 4.1 1.9 2.2 1.3 2-5.1-1.3-7.5-3.9-8.9-5.3-3.3-3.4 2.7 1 3.5.9 4.9-.5 2-2 2.3-2 4.8 0zm118 1.5l2.9 3.2-3.3-1.9c-4.2-2.4-6-4.4-4-4.4.8 0 2.7 1.4 4.4 3.1zm-160.4 9.4c1.9 1.6 1.4 5-.6 3.8-1.5-1-5.6-1.1-5.6-.2 0 1.5 5.3 4.9 9.1 5.9 2.1.6 5.6.8 7.8.4 3.9-.6 4.1-.6 4.1 2.1 0 1.7.4 2.5 1.3 2.2 1.9-.7 4.5 2.2 4 4.3-.3 1.1-.9 1.7-1.4 1.4-.5-.3-.9 0-.9.5 0 .6-1 1.1-2.2 1.1-4.1 0-12.1-4.5-20.8-11.7-4.7-3.8-10.2-8.1-12.3-9.5l-3.8-2.5 4.8-.6c3.1-.3 5.3-1.2 6.3-2.5 1.6-2.1 1.9-1.9 10.2 5.3zm77.8-.1c3.6 2.5 8.3 6.1 10.5 8.1l4 3.7-5-2.7C595 735 581 725.1 581 724.3c0-1.2 3.5.4 9 4.1zm-348 .6c4.4 2.2 4.9 3 2.3 3-1.7 0-8.6-4.9-7-5 .4 0 2.6.9 4.7 2zm449.1 4.6c.8 1-.4.5-2.8-1.1-2.4-1.5-4.3-2.9-4.3-3.2 0-.8 5.7 2.7 7.1 4.3zm452.7-.7c2.9 1.5 3.1 1.9 1.8 3-2.6 2.2-6 1-6.3-2.2-.2-3.2.1-3.2 4.5-.8zm-528.1 1.7c3 3 2.5 3.9-1.9 3-2.6-.5-3.3-1.1-3.4-3.1-.2-3.3 1.9-3.2 5.3.1zm41.7 1.3c-.2.3-1.2-.3-2.2-1.3-1.6-1.7-1.6-1.8.5-.5 1.2.7 2 1.5 1.7 1.8zm-116.3.1c.5 0 .9.9.9 2 0 2.4-.8 2.5-3.2.3-2.2-2-2.4-3.7-.2-2.9.9.3 2 .6 2.5.6zm154 .7c1.3 1.6 1.2 1.7-.3.4-1-.7-1.8-1.5-1.8-1.7 0-.8.8-.3 2.1 1.3zm-61.6 4.2c.7 1.3-.8 2.2-2.1 1.3-.6-.4-1.3-1.5-1.7-2.5-.6-1.5-.4-1.6 1.3-.7 1 .5 2.1 1.4 2.5 1.9zm67.4-1.3c.5-.4 1.2-.2 1.6.4.3.5 2 1 3.6 1 4.3 0 6.8 1.6 6.2 3.9-.3 1.4.3 2.4 2.4 3.5 4.7 2.6.7 1.8-5.2-1-3.1-1.5-6-3.5-6.6-4.5-.5-1-1.6-1.6-2.3-1.3-.9.3-2-.4-2.7-1.8-1.1-2.1-1.1-2.2.4-1 .9.8 2.1 1.1 2.6.8zM582 741c0 2.3-.4 2.4-3.2.9-1.7-.9-1.8-1.3-.7-2 2.3-1.5 3.9-1 3.9 1.1zm-86 7c1.1 1.5 3.1 3 4.4 3.4 2.3.6 4.2 3.3 3.1 4.4-1.5 1.5-15.1-9-14-10.8.9-1.5 4.5.2 6.5 3zm158.3-1.5c5.1 3.5 4.7 3.9-.8.8-2.5-1.3-4.5-2.7-4.5-2.9 0-1 1.8-.2 5.3 2.1zM468 746c0 .5-.4 1-.9 1-.6 0-1.3-.5-1.6-1-.3-.6.1-1 .9-1 .9 0 1.6.4 1.6 1zm152 2.6c0 1.8-1.4 1.8-3-.1-1.6-1.9-.3-4 1.6-2.4.8.6 1.4 1.8 1.4 2.5zm-27.5-.8c-.3.3-1.1 0-1.8-.7-.9-1-.8-1.1.6-.5 1 .3 1.5.9 1.2 1.2zm16.4 2.5c1.9 1.6 4.4 1.8 5.3.4.5-.8.8-.7.8.5 0 1 1.7 2.5 4.3 3.6 2.4 1.1 7.5 4.7 11.4 8 3.9 3.4 9.7 7.9 12.9 10.2l5.7 4H646c-2.7 0-4.2-.9-7.9-4.8-2.5-2.7-6.5-5.9-8.8-7.2-2.3-1.2-4.3-3-4.6-3.9-.2-1-2.7-2.4-6-3.4-3.1-1-6.3-2.4-7.1-3.2-.8-.8-1.8-1.5-2.1-1.5-.4 0-2.1-1.2-3.9-2.6-2.9-2.5-2.9-2.6-.6-1.9 1.4.4 3.1 1.2 3.9 1.8zm18.6-.3c.3.6-.1.7-.9.4-1.8-.7-2.1-1.4-.7-1.4.6 0 1.3.4 1.6 1zm-307 3c0 .7-.6 1.5-1.2 1.7-.8.3-1.3-.4-1.3-1.7 0-1.3.5-2 1.3-1.8.6.3 1.2 1.1 1.2 1.8zm7.7-.2c1.6 1.6.2 2.8-1.6 1.3-1.1-.9-1.5-.9-1.8 0-.5 1.5-2.8.3-2.8-1.4 0-1.6 4.6-1.5 6.2.1zm240.8.7c3.5 3.7 1.4 4.4-2.3.7-2.2-2.2-2.7-3.2-1.6-3.2.9 0 2.6 1.1 3.9 2.5zm-85 1.6c0 .4-.7.6-1.5.3-.8-.4-1.5-1-1.5-1.5 0-.4.7-.6 1.5-.3.8.4 1.5 1 1.5 1.5zm189.4 4.1c4 3.2 4.7 5.3 1.6 4.3-3.2-1-2.3.5 1.3 2 1.7.8 2.4 1.4 1.5 1.5-.9 0-3.7-1.6-6.2-3.5-2.6-1.9-5-3.5-5.5-3.5-1.7 0-2.2-1.9-.9-3.3 1.6-1.8 3.8-1.2 8.2 2.5zm-425.2-2c.6-.6 1.6-1.2 2.2-1.2.5 0 .2.6-.9 1.3-1 .8-1.5 1.9-1.2 2.4.7 1.2-1.7 2.5-2.7 1.6-.3-.4-.6-1.8-.6-3.2 0-2 .2-2.3 1-1.1.7 1.2 1.2 1.2 2.2.2zm514.1.8c-.4 1.7-.8 1.8-2 .8-1.3-1-1.3-1.3.4-1.9 1-.4 1.9-.8 2-.8 0-.1-.1.8-.4 1.9zM560 765.6c1 2.9 1.4 3.3 2.7 2.3 2.2-1.9 3.8 1.1 1.6 3.1-1.2 1.1-1.7 1.2-2 .2-.3-.6-2.1-1.2-4-1.2-4 0-11.3-3.7-11.3-5.7 0-.8 1.1-2.5 2.5-3.8l2.4-2.5 3.5 2.1c2.2 1.3 3.9 3.3 4.6 5.5zm156.5-1.8c-.4.5-7.5-3.7-7.5-4.4 0-.3 1.8.5 4 1.7s3.8 2.5 3.5 2.7zM476.7 762c.3 1.1.9 2 1.4 2 .5 0 .9.7.9 1.5 0 1.2-.5 1.2-4.2-.1-2.3-.8-4.8-2-5.6-2.6-1.2-1.1-1.1-1.4.9-1.9 4.3-1.2 6.1-.9 6.6 1.1zm123.2 5.4c3.1 2.4 6.3 5.2 7.1 6.1 1.3 1.5.8 1.4-2.7-.3-2.3-1.2-4.4-3.1-4.8-4.2-.4-1.1-1.5-2-2.6-2-2.5 0-5.9-1.7-5.9-3 0-2.1 3.4-.8 8.9 3.4zm160.5 2.1c-.4.8-1.1 1.5-1.6 1.5-.6 0-.5-.6.2-1.5.7-.8 1.4-1.5 1.6-1.5.2 0 .1.7-.2 1.5zm-269.9 3.3c-.7.8-3.5-.7-3.5-1.8 0-.6.7-.6 2 .2 1 .7 1.7 1.4 1.5 1.6zm-393.7 1.8c.1 0-1.1.1-2.8.2-1.8 0-3-.4-3-1.2 0-2.3 1.3-2.6 3.4-.9 1.2 1 2.2 1.8 2.4 1.9zm521.2 5.6c0 .5-1.1.1-2.5-.8s-2.5-1.8-2.5-2c0-.2 1.1.2 2.5.8 1.4.6 2.5 1.5 2.5 2zm85.5 5.3c2.6 2.1 2.8 2.4 1 2.5-1.7 0-9.4-5.5-13-9.2-1.7-1.8 8.9 4.1 12 6.7zm67.1-6c1.9 1.4 1.9 1.4-.2 1.5-1.2 0-2.4-.7-2.8-1.5-.7-1.9.5-1.9 3 0zm-641.4 2.1c1.3 1.6 2.7 2.4 3.9 2.1 1.2-.3 1.6 0 1.2.9-.3.8-.8 1.4-1.2 1.4-1.4 0-8.6-6.9-7.2-7 .7 0 2.2 1.2 3.3 2.6zm124.5-.4c-.3.8-.6.5-.6-.6-.1-1.1.2-1.7.5-1.3.3.3.4 1.2.1 1.9zm290 8c-.3.7-.5.2-.5-1.2s.2-1.9.5-1.3c.2.7.2 1.9 0 2.5zm56.6-1.6c4.6 2.4 12.6 9.8 9.5 8.9-7.5-2.4-18.2-10.5-13.8-10.5.6 0 2.5.7 4.3 1.6zm56.6.3c.7.5.9 1.1.4 1.4-.6.4-1.9 0-2.9-.8-1.5-1.1-1.6-1.4-.4-1.5.8 0 2.1.4 2.9.9zm-123.3 5.7c5.5 2.6 9.9 10.4 5.9 10.4-.9 0-3.9-2.1-6.8-4.7s-5.4-4.9-5.6-5c-.6-.4 1-2.3 2.1-2.3.5 0 2.5.7 4.4 1.6zm218.5-.1c.1 1.7-1.8 1.7-2.5 0-.4-1.1-.1-1.5 1-1.3.8.2 1.5.7 1.5 1.3zm-72.8 1.2c-.7.2-.9 1.2-.6 2 .5 1.2.2 1.5-1 1-2.6-1-2 1.5 1.2 5 4.6 5 2.4 4.6-2.9-.5-4.7-4.6-5.9-7-3.1-6.4.7.2 1-.1.7-.6-.3-.6 1-1 3.2-1 2 0 3.2.3 2.5.5zm92 .5c1.5-1.3 3.7.2 3.7 2.4 0 1.5-8.1 1.4-9.2-.1-1.7-2.3-.9-3.5 1.7-2.3 1.8.8 2.8.8 3.8 0zM145.2 800c.2.5 2.1 1 4.3 1.1 4.5.3 7.5 1.8 7.5 3.6 0 .7.9 1.3 2 1.3s2-.7 2-1.5c0-2.1.5-1.9 3.5 1.1 1.4 1.4 5.6 3.9 9.3 5.6 7.3 3.3 13.2 7.3 13.2 9 0 .7-2.1.9-6.5.5-5-.5-6.3-.3-5.9.7.3.9-.5 1.2-3.1 1.2-3.9-.2-8.3-3.9-7.7-6.7.5-2.5-2.6-4.5-4.8-3.1-2.2 1.3-4.5-.7-5.5-5-.4-1.5-1-2.7-1.4-2.6-.3.1-1.8-.4-3.3-1-1.6-.7-3.9-1.6-5.3-2.2-1.4-.5-2.5-1.4-2.5-2 0-1.3 3.7-1.3 4.2 0zm584.9 2.1c2.1 1.7 3.9 2.8 3.9 2.5 0-1.2 7.6 2.6 10.5 5.2 1.7 1.5 6.9 5.4 11.8 8.6 5.7 3.9 8.7 6.5 8.7 7.8 0 1.8-.1 1.8-3.2.1-6.2-3.4-12.7-7.8-12.8-8.6 0-.4-1-2.2-2.2-3.8-2.4-3.3-13.8-9.2-16-8.4-1.8.7-7.3-3.1-5.9-4 .6-.3.9-1.1.6-1.6-1.1-1.8.7-.9 4.6 2.2zM380 809.6c0 2.3-2.4 1.6-5.3-1.4-4-4.2-3.3-5.6 1.3-2.6 2.2 1.5 4 3.3 4 4zm404.7-4c-.7.7-3.7-.7-3.7-1.7 0-.6.9-.5 2.1.1 1.1.7 1.9 1.4 1.6 1.6zM666 809.5c1.3 1.6 1.1 1.6-2.4.1-2.1-.9-4-1.6-4.2-1.6-.2 0-.4-.7-.4-1.5 0-1.4.3-1.4 2.8-.1 1.6.8 3.5 2.2 4.2 3.1zm-271-1c2.2 2.7.5 3.4-2.3.9-2.4-2.1-2.5-2.4-.9-2.4 1.1 0 2.5.7 3.2 1.5zm-1.1 3.4c1.2 2.1.5 3.2-1.5 2.4-1-.4-1.2 0-.8 1.1.6 1.5.3 1.5-2.1.4-2.3-1-2.5-1.3-1.1-2.4.9-.6 1.6-1.6 1.6-2.3 0-1.8 2.8-1.3 3.9.8zm-276.5 3.3c2.1 1.5 4.9 2.8 6.1 2.8 2.5 0 5.9 3.3 5.3 5-.4 1.2-14.5-7.6-16.9-10.7-1.2-1.5-1.2-1.6.1-.8.8.5 3.3 2.2 5.4 3.7zm461-2.6c.3.8.2 1.2-.4.9-.6-.3-1-1-1-1.6 0-1.4.7-1.1 1.4.7zm92.2 2.2c-.9.9-3.7-.8-3.1-1.8.5-.8 1.1-.7 2.1.1.8.6 1.2 1.4 1 1.7zm-443.1-.2c1.2.5 1.4.9.4 1.4-1.4.9-3.9.2-3.9-1.1 0-1.1 1.2-1.1 3.5-.3zm13.7 1c.7.6-2.2 8.4-3.1 8.4-.3 0-1.3-.4-2-.9-1.3-.8-1.2-1.5.4-4.5 1.8-3.4 3.4-4.4 4.7-3zm551.9 3c1.3 1.6 1.2 1.6-.7.6-1.1-.6-2.7-1.9-3.5-2.8-1.3-1.6-1.2-1.6.7-.6 1.1.6 2.7 1.9 3.5 2.8zm-204.7.9c1.6 1.2 1.7 1.5.4 1.5-.8 0-2.1-.7-2.8-1.5-1.6-1.9-.1-1.9 2.4 0zm130.1 5.5c1.9 2 1.9 2-.4 2-2.6 0-8.1-2.9-8.1-4.3 0-1.6 6.4.2 8.5 2.3zm-521.5-.4c5.2 1.4 5.6 1.8 5.2 4-.2 1.3-1 2.4-1.6 2.4-1.9 0-1.5 3.2.6 5.9 2.3 3 2.3 4.1 0 4.1-1.5 0-1.8.6-1.5 3.2.3 2.7.2 3-.7 1.5-.6-.9-.8-2.2-.5-2.7.3-.6.1-1-.4-1-.6 0-1-.5-.8-1.2.2-1.3-3.8-2.5-8.9-2.7-2.9-.1-3.1.2-3.2 3.4-.2 4.4-.8 5.5-3.2 5.5-2.6 0-3-1-2-5.6.6-2.5.6-4-.1-4.2-1.3-.5 3-4.2 4.8-4.2.7 0 2.2-.5 3.2-1.2 1.8-1.1 1.8-1.4.4-4.1-1.2-2.5-1.3-3.1-.1-3.8 1.8-1.2 2.3-1.1 8.8.7zm385.1 3c1.2 1.6 1 1.5-1.9-.2-4.6-2.6-6.8-5.3-2.6-3.1 1.7.9 3.7 2.4 4.5 3.3zm-426.2.4c-1.6 1-3-.6-2.2-2.6.4-1.1.8-1 2.1.2 1.3 1.3 1.3 1.7.1 2.4zm182.2-1.4c2.5 2.8 2.3 2.8-2.3.5-3-1.5-3.7-3.1-1.5-3.1.8 0 2.4 1.2 3.8 2.6zm88.5-1.1c3.5 1.5 14 9.1 16.3 11.9.7.9 1.7 1.4 2.1 1.1 1-.6 8 1.5 8 2.4 0 .5-1.1 1.2-2.5 1.5-1.7.4-2.5 1.3-2.5 2.7 0 1.5-.4 1.9-1.6 1.5-1.2-.4-1.5-.2-1.1.9.8 1.8-8.2-3.6-10.9-6.7-1.7-1.9-1.5-1.9 1.6.3 4 2.9 8.2 3.6 7.3 1.3-.3-.8.1-1.4.8-1.4 1.7 0-6.4-7.3-10.4-9.6-1.6-.8-3.5-1.3-4.3-1-.7.3-1.8-.3-2.4-1.4-.6-1.1-2.3-2.6-3.8-3.4-3.5-2-1.2-2 3.4-.1zm345.2 3.5c1.5 0 1.9.5 1.5 2-.5 1.9-.7 1.9-2.3.5-.9-.8-2.2-1.5-2.9-1.5-.7 0-.9-.5-.6-1 .3-.6.1-1-.5-1s-.8-.5-.4-1.2c.5-.8 1.1-.6 1.9.5.7 1 2.1 1.7 3.3 1.7zM660 830.1c0 .6-.4.7-1 .4-.5-.3-1-1.1-1-1.6 0-.6.5-.7 1-.4.6.3 1 1.1 1 1.6zm168.2.9c-1 1.1-2.5 3.2-3.2 4.5-1.2 2.2-1.1 2.7.6 4 3.7 2.8-.2 1.5-5.6-1.9-5-3.1-5.2-3.4-3.2-4.5 1.1-.6 2.8-1.1 3.7-1.1.8 0 1.8-.7 2.1-1.5.4-.9 1.9-1.5 4-1.5 3.4 0 3.5 0 1.6 2zm-41.6 8.2c2.9 3.7 4.1 5.9 3 5.5-1-.4-2.4-.7-3.2-.7-.8 0-1.4-.6-1.4-1.4 0-.8-.8-2.1-1.8-2.8-2.5-1.8-3.3-3.4-2.6-5.2.3-.9.8-1.6.9-1.6.2 0 2.5 2.8 5.1 6.2zm-315.4 13.2c4.1 2 9.8 7.2 9.8 9 0 .4-.9.2-2-.4-1.4-.7-2-.7-2 0 0 .5-.9 1-2 1-1.3 0-1.8.5-1.4 1.5.7 1.8-.6 1.9-4.1.3-1.8-.8-2.5-1.8-2.2-2.9.3-1-.2-2-1.2-2.4-1.4-.6-1.4-.8.3-2 1.8-1.3 1.8-1.6.2-3.9-.9-1.4-4.1-4.4-7.1-6.7s-5.5-4.3-5.5-4.6c0-.2 2.8 1.7 6.3 4.2 3.4 2.5 8.3 5.6 10.9 6.9zm306.8-3.3c0 .6-1 .3-2.2-.5-1.2-.9-3.4-1.6-4.8-1.6l-2.5-.1 2.5-2 2.4-2.1 2.3 2.7c1.3 1.4 2.3 3.1 2.3 3.6zm-563-.4c0 3.3-1.2 2.8-3.2-1.2l-1.7-3.4 2.4 1.1c1.6.7 2.5 1.9 2.5 3.5zm143.1-2c1.3 1.6 1.2 1.7-.3.4-1-.7-1.8-1.5-1.8-1.7 0-.8.8-.3 2.1 1.3zM224.4 854c1.4.5 2.6 1.6 2.6 2.5 0 2.2-1.3 1.9-4-1-2.6-2.8-2.4-3 1.4-1.5zm149.6 3.5c2.9 3 3.1 3.5 1.4 3.5-2.5-.1-6.4-3.4-6.4-5.4 0-2.4 1.3-1.9 5 1.9zm120.6 6.3c2.4 1.3 6 5.2 4.8 5.2-1.3 0-11.1-5.8-11.8-6.9-.7-1.1 3.9 0 7 1.7zM389.5 868c1.2 2.3 2.2 3 4.6 3 4.2 0 8.6 2 16 7.5 5.8 4.2 13 8.5 14.4 8.5.3 0 .5-1.4.5-3 0-1.7-.4-3-1-3-.5 0-1-.5-1-1 0-.6.7-1 1.6-1 .8 0 1.2-.5.9-1-1.3-2 2.1-.9 4.4 1.5 2 2.2 2.1 2.5.5 2.5-1.4 0-1.5.3-.6 1.2.7.7 1.2 2 1.2 2.9 0 1 .6 2 1.3 2.2.9.4.9.7 0 1.4-.9.6-.3 1.9 2.2 4.6 1.9 2 3.9 3.7 4.4 3.7.6 0 1.1 1.2 1.1 2.6 0 1.4.5 3.4 1 4.5 1.3 2.4.1 2.5-4.2.3-1.7-.9-4.4-1.4-6-1.2-2.6.4-2.9.2-2.4-1.7.3-1.3 0-2.7-.7-3.2-2-1.6-6.5-2.4-7.2-1.3-.9 1.4-2.6.2-2.3-1.6.2-.8-.8-2-2.1-2.7-1.4-.6-3.6-3.2-5.1-5.6-2.5-4.3-5.6-7-4.4-3.7.9 2.3-2.3 2-3.6-.3-1.1-2.2.2-3.7 2.1-2.5.7.4 1 .1.7-.7-.5-1.7-12.6-8.1-13.9-7.3-.5.3-.9 1.4-.9 2.5 0 2.5-1.5 2.4-3.4-.3-2.2-3-2.1-10.8 0-10.8.2 0 1 1.3 1.9 3zm-61.2-.9c2.6.7 3.7 1.5 3.7 2.9 0 2.7-1.1 2.5-5.5-1-4.1-3.3-3.9-3.5 1.8-1.9zM62 870.5c2.4 1.7 2.9 2.5 1.6 2.5-2.3 0-7.6-2.8-7.6-4 0-1.7 2.5-1.1 6 1.5zm226.4.6c4.7 2.7 4.6 4.4-.1 2.4-2.9-1.2-3.8-1.3-4.5-.3-.9 1.6-1.1-.2-.2-2.6.8-2 .6-2 4.8.5zm126.6-.6c1.8 2.2.5 3-1.9 1.3-1.2-.8-1.8-1.8-1.4-2.1 1-1.1 1.9-.8 3.3.8zm-166 7c1 1.2.9 1.5-.8 1.5-1.1 0-2.5-.7-3.2-1.5-1-1.2-.9-1.5.8-1.5 1.1 0 2.5.7 3.2 1.5zm579.4 0c1.1.8 2.7 1.5 3.7 1.5.9 0 1.9.7 2.3 1.5.4 1.1-.8.8-4.4-1-2.8-1.4-5-2.8-5-3 0-.9 1.5-.5 3.4 1zM519 880.2c3.4 1.8 4.4 2.8 4.2 4.3-.6 3-.9 3-4.8-.1-8.5-6.7-8.2-6.4-5.9-6.4 1.2 0 4.1 1 6.5 2.2zm-254.1 1.6c5.7 4.2 2.3 5.7-4.3 1.9-5.3-3-6.1-5.2-1.5-4.3 1.9.3 4.5 1.4 5.8 2.4zM402 885c0 .5-.2 1-.4 1-.3 0-.8-.5-1.1-1-.3-.6-.1-1 .4-1 .6 0 1.1.4 1.1 1zm48.8 5.6c1.7.5 2.1 1.1 1.6 2.8-.3 1.1-1.3 2.7-2.3 3.4-1.5 1.3-1.5 1.5.3 2.5 3.5 2.2 6.1 4.6 5 4.7-1.3 0-12.4-8-12.4-9 0-.9 3.9-5 4.8-5 .4 0 1.7.3 3 .6zm405.7 4.4c1.7 1.1 2.4 2 1.7 2-1.5 0-7.2-2.8-7.2-3.5 0-1.1 2.7-.4 5.5 1.5zm-326 4c1 1.1 1.6 2 1.3 2-.3 0-1.3-.9-2.3-2-1-1.1-1.6-2-1.3-2 .3 0 1.3.9 2.3 2zm-65.8 8.6c-.7.7-3.7-.7-3.7-1.7 0-.6.9-.5 2.1.1 1.1.7 1.9 1.4 1.6 1.6zM265 920.1c0 1.4-1.6 1.1-2.9-.5-1-1.2-.8-1.3.8-.9 1.2.3 2.1.9 2.1 1.4zm206 2.4c2.2 2.3 2.9 3.5 1.9 3.5-.8 0-3-1.6-4.9-3.5-2.2-2.3-2.9-3.5-1.9-3.5.8 0 3 1.6 4.9 3.5zm18.8.5c1.7 1.1 3.2 2.2 3.2 2.5 0 .3-2 .4-4.5.3-3.9-.3-4.5-.6-4.5-2.6 0-2.7 1.5-2.8 5.8-.2zm-10.5 3.4c1.5.3 2.7 1.1 2.7 1.6 0 1.2 0 1.2-3.9-.1-1.8-.6-3.1-1.8-3.1-2.7 0-1.1.3-1.3.8-.6.4.6 1.9 1.4 3.5 1.8zm27.3 10.2c-2.5 1.8-3.1 1.2-1.4-1.5.8-1.4 1.6-1.7 2.3-1 .7.7.4 1.5-.9 2.5zm14.8 7.7c.8 1.2.7 2-.1 2.8-1.6 1.6-3.3.2-3.3-2.7 0-2.8 1.7-2.8 3.4-.1zm41.2 110.7c.8 0 1.4.5 1.4 1.1 0 1.5-5.3.6-5.8-1-.3-1 0-1.2 1.2-.8 1 .4 2.4.7 3.2.7zM129 1121c.8.5 1.1 1.2.8 1.6-1 .9-3.8-.3-3.8-1.6 0-1.2 1-1.3 3 0zm311.7 10.9c-.1.8-.7 1.6-1.4 1.8-1.7.6-3.5-3.4-2.7-5.9.6-2.1.6-2.1 2.5.3 1 1.3 1.8 3 1.6 3.8zm74.1 14.3c1.9 1.9 1.4 3-.8 1.8-1.1-.6-2-1.5-2-2 0-1.4 1.4-1.2 2.8.2zm-54.3 3.8c.3.5.1 1-.4 1-.6 0-1.1-.5-1.1-1 0-.6.2-1 .4-1 .3 0 .8.4 1.1 1zm18 3.7c-1.9 4.6-1.7 5.4 2.4 9.1 2.2 2 4.1 4 4.1 4.3 0 1.5-7.2-.5-8.1-2.3-.6-1.1-1.7-1.7-2.4-1.4-.8.3-2.2-.9-3.4-3-1.3-2.1-2.8-3.4-4.1-3.4-1.1 0-2-.7-2-1.5 0-1.1 1-1.3 4.8-.8 3.7.4 5.1.2 6.1-1.1 1.8-2.1 3.5-2 2.6.1zm49.9.8c.3.8.1 1.5-.4 1.5-.6 0-1-.7-1-1.5s.2-1.5.4-1.5.6.7 1 1.5zm-172.9 4h7l.3 4.9c.3 4.8.3 4.8 3.4 4.2 2.4-.5 2.8-.3 2 .7-.6.7-.9 2.2-.6 3.4.3 1.1.1 2.4-.5 2.7-.6.4-1.1 0-1.1-.8 0-1-.6-1.3-1.5-1-.8.4-1.5.1-1.5-.5 0-1.4-9.5-1.5-12.1-.1-1.7 1-2.2.6-3.9-3.2-1.1-2.4-2-5.3-2-6.5 0-3.3 1.1-5.4 2.4-4.5.6.4 4.3.7 8.1.7zm16.5 8.5c0 .5-.5 1-1.1 1-.5 0-.7-.5-.4-1 .3-.6.8-1 1.1-1 .2 0 .4.4.4 1zm29.2 5.3c4.1 2.4 6.9 6 5.5 7.3-.6.7-8.4-2.3-11.2-4.3-1.3-1-2.5-2.5-2.5-3.4 0-.9-.8-2-1.7-2.4-1.7-.7-1.6-.8.2-1.5 1.2-.5 2.6-.3 3.5.5.8.6 3.6 2.4 6.2 3.8zm96.9.9c.1.7.1 1.9 0 2.5-.3 1.8 1.9 1.6 4-.3 1.5-1.4 1.9-1.3 3.8 1.4 2.5 3.6 2.6 5 .6 7.9-1.3 1.9-1.3 2.3.4 4.4 1.7 2.2 2.1 2.2 4.5 1 3.3-1.8 3.9-1.2 2.4 2.7-1.6 4-4 4.1-6.8.2-1.2-1.6-3.2-3.3-4.6-3.6-1.3-.3-2.4-1-2.4-1.5s-1.9-3-4.2-5.5c-3.7-4-4-4.8-3-6.5.7-1.1 1-2.4.7-2.9-.4-.6.5-1 1.9-1s2.7.6 2.7 1.2zm-115 8c0 1.3.3 1.7.6 1 .4-1 .8-.9 1.8.5 1.1 1.5 1.7 1.5 3.9.5 2.4-1.1 2.7-1 3.6 1.4.6 1.4 1 3 1 3.5s2.2.9 5 .9c3.9 0 5.1.4 6 2 .6 1.1 1.6 1.7 2.2 1.4.6-.4.8-.3.5.3-1.2 1.9 2 3.5 5.3 2.8 2.6-.6 2.9-1 2.4-3.3-.6-2.5-.5-2.6 1.1-1.1 1.6 1.6 1.4 2.1-3.5 8.8-5.6 7.7-5.7 7.8-12.5 4.3-6.4-3.2-8.7-5.3-8.1-7.7.4-1.6-.2-2.7-2.7-4.6-1.7-1.3-3.9-2.4-4.7-2.4-.8 0-1.5-.7-1.5-1.5 0-1-1.7-1.7-5.5-2.4l-5.4-.8 3.2-2.9c4-3.6 7.2-3.8 7.3-.7zm171 26.9c.8 1.2 1.2 1.1 2.3-.4 2.1-2.8 4.4-2 6.6 2.2 1.1 2.2 4 5.7 6.5 7.8 2.5 2 4.5 4.1 4.5 4.6s-1.6.7-3.5.4c-2.3-.4-4-.1-4.9.8-1.2 1.2-1.5 1.1-2-1-.8-3.2-1.9-3.2-4 0-1.3 2-2.2 2.4-4.4 1.9-5.1-1.1-5.1-1.1-3-5.3l2-4.1-3.1-3.9c-1.7-2.1-3.1-4.1-3.1-4.4 0-1.2 5.2.1 6.1 1.4zm25.3 22.4c.4 1.6.5 2.7.1 2.3-.4-.4-1.2-.3-1.9.3-3.8 3.1-11.3 7.4-12.6 7.1-1.1-.2-1.6-1.4-1.5-4.2v-4h5.5c6 0 7.3-.5 8.3-3.4.9-2.3 1.2-2 2.1 1.9zm19.5 10.9c1.3.7 3.2 1.1 4.3.8 1-.2 1.8.1 1.8.7s.9 1.1 2 1.1c1.6 0 1.8.4 1 2.4-.5 1.3-.6 2.7-.3 3 .4.3-.5.6-1.9.6-1.7 0-2.8.8-3.6 2.5-1.6 3.5-4.9 3.2-7-.5-.9-1.6-2-3-2.4-3-1.3 0-.9-2.9.7-6 1.7-3.4 2-3.5 5.4-1.6z"/></svg>