<svg width="47" height="36" viewBox="0 0 47 36" fill="none" xmlns="http://www.w3.org/2000/svg">
<path d="M45.8562 0.0442443L31.0541 4.39015L16.2438 0.0442443C16.2148 0.0311885 16.1838 0.0409724 16.1466 0.0360765C16.0783 0.0213886 16.0183 0.0164537 15.948 0.0164537C15.8776 0.0164537 15.8156 0.0213886 15.7494 0.0360765C15.7121 0.0409724 15.6811 0.0311885 15.6522 0.0442443L0.554364 4.4783C0.223407 4.57296 0 4.82597 0 5.10504V35.3309C0 35.5513 0.136509 35.7536 0.364042 35.8809C0.508836 35.9576 0.674303 36 0.843919 36C0.949411 36 1.04253 35.9853 1.14389 35.9576L15.9459 31.6084L30.7521 35.9576C30.8535 35.9869 30.9548 36 31.052 36C31.1492 36 31.2506 35.9853 31.3478 35.9576L46.4457 31.5202C46.7808 31.4239 47 31.1742 47 30.8935V0.670879C47 0.450562 46.8676 0.246567 46.636 0.122536C46.4105 -0.00312612 46.1189 -0.0373547 45.8562 0.0442443ZM15.0999 30.4284L1.69617 34.3664V5.56851L15.0999 1.63379V30.4284ZM30.206 34.3664L16.7981 30.4284V1.6321L30.206 5.56682V34.3664ZM45.308 30.4284L31.9043 34.3664V5.56851L45.308 1.63379V30.4284Z" fill="#00C3B5"/>
</svg>
