<svg width="39" height="40" viewBox="0 0 39 40" fill="none" xmlns="http://www.w3.org/2000/svg">
<path d="M39 1.87489C39 0.843521 38.1616 0 37.1268 0H1.87485C0.840091 0 0 0.843521 0 1.87489C0 2.66037 0.486652 3.32976 1.17479 3.60809V28.909C1.17479 29.2949 1.48895 29.6091 1.87485 29.6091H18.805V33.1335L7.49262 37.6551C7.13233 37.8003 6.95816 38.2067 7.1033 38.567C7.21088 38.8402 7.47213 39.0058 7.75045 39.0058C7.83754 39.0058 7.92634 38.9887 8.01001 38.9563L19.5034 34.3613L30.9933 38.9563C31.0804 38.9887 31.1693 39.0058 31.2546 39.0058C31.533 39.0058 31.7942 38.8385 31.9035 38.567C32.0469 38.2084 31.8711 37.8003 31.5142 37.6551L20.2018 33.1335V29.6091H37.1234C37.511 29.6091 37.8218 29.2949 37.8218 28.909V3.60809C38.5134 3.32976 39 2.66037 39 1.87489ZM1.87485 1.40021H37.1268C37.3881 1.40021 37.6032 1.61363 37.6032 1.87489C37.6032 2.13785 37.3898 2.35134 37.1268 2.35134H1.87485C1.61189 2.35134 1.40016 2.13785 1.40016 1.87489C1.40016 1.61363 1.61189 1.40021 1.87485 1.40021ZM36.4284 28.2089H2.57497V3.74983H36.4284V28.2089Z" fill="#00C3B5"/>
<path d="M7.70049 22.8553C7.9071 22.8553 8.1086 22.7648 8.24691 22.5924L16.4413 12.3692L23.3329 17.9922L32.9241 6.13997C33.1666 5.83944 33.1205 5.3989 32.8182 5.15472C32.5177 4.91395 32.0772 4.95835 31.8347 5.25889L23.128 16.0182L16.2313 10.3901L7.15407 21.7164C6.9116 22.0169 6.96115 22.4575 7.26168 22.7016C7.39145 22.8041 7.54852 22.8553 7.70049 22.8553Z" fill="#00C3B5"/>
</svg>
