<svg width="56" height="39" viewBox="0 0 56 39" fill="none" xmlns="http://www.w3.org/2000/svg">
<path d="M31.4719 36.3654H4.10503C1.97336 36.3654 0.25 34.6789 0.25 32.6213V5.99408C0.25 3.9365 1.97336 2.25 4.10503 2.25H31.4719C33.6036 2.25 35.3269 3.9365 35.3269 5.99408V32.6213C35.3269 34.6789 33.6036 36.3654 31.4719 36.3654ZM4.10503 4.41272C3.21813 4.41272 2.48669 5.11469 2.48669 5.99408V32.6213C2.48669 33.5007 3.21813 34.2027 4.10503 34.2027H31.4719C32.3588 34.2027 33.0902 33.5007 33.0902 32.6213V5.99408C33.0902 5.11469 32.3588 4.41272 31.4719 4.41272H4.10503Z" fill="#00C3B5" stroke="#101010" stroke-width="0.5"/>
<path d="M39 15.3102V23.5572C39 25.4134 39.8592 27.1652 41.327 28.3015L51.222 35.9622C52.5459 36.9871 54.4679 36.0289 54.4462 34.3548L54.0545 4.19853C54.0327 2.51513 52.0677 1.61028 50.7743 2.68806L41.1589 10.7009C39.7909 11.8409 39 13.5296 39 15.3102Z" stroke="#00C3B5" stroke-width="2"/>
</svg>
