<svg width="59" height="50" viewBox="0 0 59 50" fill="none" xmlns="http://www.w3.org/2000/svg">
<g clip-path="url(#clip0)">
<path d="M56.553 20.991L35.187 11.3522L25.2133 6.85743C22.5067 5.63174 19.046 3.22215 16.1067 2.79539C14.312 2.53833 14.0794 3.35503 12.8286 4.62216C10.7452 6.76718 9.16491 8.52896 8.10555 11.4493C6.92372 14.6022 6.26861 17.8973 4.82509 20.9577C3.93001 22.7886 1.682 25.1988 1.91128 27.3844C2.12189 29.3571 3.77212 29.6765 5.40263 30.3052C8.73435 31.5795 12.1218 32.7039 15.4991 33.903C22.4402 36.4456 29.3326 39.1239 36.1761 41.9378C38.6806 42.9672 42.2545 45.4321 44.9486 45.5175C46.301 45.5672 46.6695 45.1182 47.413 44.0638C49.4016 41.3054 50.6113 37.3243 52.0794 34.2316L57.4628 23.0042C58.1376 21.6239 56.0144 20.5859 55.3396 21.9663L48.0063 37.4154C47.5657 38.3166 46.7345 40.9496 46.0069 41.6307C44.1967 43.3067 42.4569 41.9688 40.7589 41.2628C38.403 40.2705 36.0424 39.2997 33.6772 38.3501C28.4682 36.2703 23.2394 34.2429 17.9909 32.2678C15.1144 31.2042 12.2345 30.1655 9.35122 29.1518C8.24434 28.7613 6.6688 28.5582 5.73717 27.899C4.20329 26.8035 4.72089 26.516 5.30694 25.0302C6.24903 22.6906 7.65473 20.5865 8.47634 18.1525C9.34331 15.6078 9.82096 12.855 11.0877 10.4791C11.5352 9.56367 14.1988 5.4604 15.6165 5.14329C16.4912 4.95057 19.1439 6.7348 19.9259 7.09047L23.517 8.71312L55.5041 23.1366C56.8839 23.758 57.9399 21.6158 56.553 20.991Z" fill="black"/>
<path d="M13.9291 17.0433C13.7654 16.8012 13.55 16.5991 13.2984 16.4516C13.0469 16.3042 12.7655 16.215 12.4746 16.1906C12.1837 16.1662 11.8904 16.2072 11.6161 16.3106C11.3418 16.414 11.0931 16.5772 10.8882 16.7885C10.6868 17.0316 10.5417 17.3165 10.4633 17.6223C10.385 17.9282 10.3755 18.2472 10.4355 18.5561C10.4956 18.8649 10.6236 19.1558 10.8103 19.4074C10.9969 19.6589 11.2375 19.8648 11.5143 20.0099C12.0669 20.2665 12.6983 20.2976 13.2769 20.0967C13.8555 19.8958 14.3365 19.4784 14.6195 18.9316C14.8872 18.4182 14.9715 17.829 14.8582 17.2635C14.7449 16.698 14.4409 16.1907 13.9975 15.8273C13.5387 15.4581 12.9581 15.2756 12.3693 15.3155C11.7805 15.3555 11.2259 15.615 10.814 16.0433C10.4246 16.4932 10.215 17.0719 10.2263 17.666C10.2376 18.26 10.469 18.8265 10.8752 19.2544C11.2718 19.6682 11.779 19.9579 12.3365 20.0891C12.894 20.2203 13.4785 20.1875 14.0208 19.9947C14.5257 19.774 14.9368 19.3793 15.1799 18.8821C15.423 18.3849 15.4819 17.818 15.3459 17.2841C15.2199 16.9702 15.0323 16.6855 14.7942 16.4469C14.5561 16.2083 14.2724 16.0207 13.96 15.8953C13.6475 15.7698 13.3127 15.709 12.9754 15.7165C12.638 15.724 12.3051 15.7996 11.9962 15.9389C11.6582 16.08 11.3694 16.3199 11.1675 16.6274C10.9655 16.9349 10.8598 17.2957 10.8641 17.6628C10.8715 18.0398 11.0032 18.4025 11.2385 18.694C11.4738 18.9855 11.7993 19.1892 12.1639 19.273C12.4701 19.3183 12.7828 19.2416 13.0357 19.0591C13.2886 18.8767 13.4617 18.603 13.5185 18.2959C13.5581 17.9885 13.4813 17.6783 13.3035 17.4272C13.1257 17.176 12.8598 17.0023 12.5588 16.9406L12.4597 16.8921L13.0259 17.1689C13.1017 17.2633 13.1505 17.3767 13.1673 17.4972C13.184 17.6177 13.168 17.7408 13.121 17.8534C13.0266 18.0465 12.9706 18.161 12.801 18.1312C12.6314 18.1015 13.1117 18.1236 13.1082 18.1307C13.1047 18.1379 13.0293 17.8795 13.0148 17.8015C13.0003 17.7235 13.0637 17.7014 13.0148 17.8015C13.0672 17.6942 13.0603 17.7085 12.9973 17.8373C13.2194 17.7775 12.7638 17.7231 12.6859 17.685C12.6081 17.647 12.5727 17.6297 12.5444 17.6158C12.3989 17.465 12.3742 17.4618 12.4948 17.5916C12.4599 17.6631 12.4669 17.6488 12.5228 17.5344C12.5232 17.5524 12.5193 17.5702 12.5114 17.5864C12.5035 17.6026 12.4918 17.6167 12.4773 17.6274C12.5438 17.4915 12.5543 17.47 12.5088 17.563L12.4773 17.6274C12.4066 17.5928 12.5767 17.7291 12.5198 17.6481C12.4629 17.5672 12.4779 17.734 12.4709 17.7483C12.5303 17.6267 12.4394 17.8126 12.411 17.781C12.4605 17.8053 12.5982 17.7928 12.6587 17.9021C12.876 18.3008 12.1541 18.7011 11.8909 18.2889C12.709 19.5749 14.6833 18.245 13.8652 16.9589L13.9291 17.0433Z" fill="black"/>
<path d="M30.6552 35.3307C33.1811 36.4237 35.7422 37.4808 38.2923 38.4705C39.4595 38.917 41.3749 40.075 42.7359 39.6947C45.5247 38.9047 48.0819 33.2075 49.2888 30.8822C50.0981 29.5627 50.7447 28.1498 51.2141 26.6749C51.3609 26.3746 51.5078 26.0742 51.6651 25.7523L51.728 25.6236L51.8819 25.3089C51.9679 25.1472 52.0117 24.9663 52.009 24.7835C52.0063 24.6008 51.9571 24.4221 51.8663 24.2645C51.8972 24.039 51.849 23.8105 51.7302 23.6181C51.6113 23.4258 51.4292 23.2817 51.2152 23.2107C42.3015 19.6151 33.9183 14.7548 24.8475 11.5344C22.5276 10.7015 21.7648 10.6654 20.2783 12.8452C19.1377 14.7147 18.3056 16.7561 17.8146 18.8893C16.7137 21.2488 15.6341 23.6187 14.6075 26.0056C14.5441 26.1487 14.5077 26.3022 14.5002 26.4582C14.4284 26.7244 14.4495 27.0066 14.5599 27.2574C14.6704 27.5082 14.8635 27.7125 15.1069 27.8359C20.1575 30.5088 25.3734 33.041 30.6552 35.3307Z" fill="black"/>
</g>
<defs>
<clipPath id="clip0">
<rect width="31" height="50" fill="white" transform="translate(58.5342 21.9597) rotate(116.053)"/>
</clipPath>
</defs>
</svg>
