<svg width="67" height="64" viewBox="0 0 67 64" fill="none" xmlns="http://www.w3.org/2000/svg">
<g clip-path="url(#clip0)">
<path d="M25.0157 59.8059C21.2285 53.3993 18.2553 46.4494 17.099 39.0719C16.6086 35.9887 16.4422 32.8635 16.6024 29.7477C16.6938 28.124 16.8824 26.5077 17.1674 24.9073C17.4345 23.4454 17.7374 20.3722 18.6732 19.2733C19.2674 18.4895 20.1392 17.9639 21.1099 17.8042C22.0807 17.6445 23.0768 17.8628 23.8943 18.4144C24.7036 19.059 25.393 19.8417 25.9305 20.7261C27.1109 22.7209 27.8088 24.9633 27.9684 27.2736C28.3643 30.9893 27.8975 34.7929 27.6715 38.4993C27.4455 42.2057 27.3043 45.8366 26.9838 49.5052C26.8629 51.0551 26.7027 52.5977 26.4529 54.1591C26.2978 55.0636 24.6521 59.6875 25.0744 60.04C24.8582 59.8691 24.5844 59.7891 24.3109 59.8168C24.0375 59.8445 23.7859 59.9779 23.6095 60.1885C23.4332 60.3992 23.346 60.6706 23.3665 60.9452C23.3869 61.2198 23.5134 61.476 23.7191 61.6594L24.0442 61.933C24.1853 62.0432 24.3519 62.116 24.5284 62.1444C24.705 62.1729 24.8857 62.1561 25.0537 62.0956C28.0231 60.9087 28.4085 55.4972 28.7762 52.7911C29.5027 47.3163 29.5918 41.7228 29.9248 36.2102C30.3233 29.7005 30.9688 16.6223 21.91 15.3464C14.3992 14.2825 14.3273 28.3552 14.4663 33.0883C14.6649 43.0722 18.2268 52.5158 23.2762 61.0037C23.974 62.1786 25.7096 60.975 25.0157 59.8059Z" fill="black"/>
<path d="M22.6384 57.0858C23.8219 56.7812 25.0403 56.6313 26.2632 56.6398L25.8342 54.5766C24.8548 54.8941 24.0225 55.5524 23.4877 56.4324C23.2847 56.8291 23.2001 57.2762 23.2438 57.7205C23.2876 58.1648 23.4579 58.5876 23.7345 58.9385C24.2586 59.5382 25.5744 59.5499 25.6436 58.5331C25.7172 58.0397 25.5921 57.5367 25.2959 57.1343C25.1749 56.9669 25.008 56.838 24.8156 56.7635C24.6231 56.6889 24.4134 56.6719 24.2118 56.7144C24.0102 56.7569 23.8255 56.8571 23.6801 57.0029C23.5346 57.1487 23.4348 57.3338 23.3926 57.5357C23.2916 58.2951 23.3544 59.0678 23.5767 59.8018C23.9064 60.9386 25.8182 60.5743 25.6263 59.377C25.5746 59.1921 25.5944 58.9947 25.6816 58.8242C25.8001 58.5698 25.8125 58.2784 25.7163 58.0141C25.6201 57.7499 25.4231 57.5343 25.1686 57.415C24.9141 57.2956 24.623 57.2822 24.3594 57.3777C24.0957 57.4732 23.881 57.6698 23.7626 57.9242C23.5177 58.4135 23.4273 58.9663 23.5035 59.5092L25.5588 59.0804C25.4462 58.7066 25.4144 58.3133 25.4654 57.9268L23.5563 58.3321L23.565 58.146L25.4741 57.7407C25.0097 57.2028 26.1517 56.7509 26.5321 56.5834C26.7676 56.4927 26.963 56.321 27.0833 56.0989C27.2035 55.8769 27.2409 55.619 27.1886 55.3714C27.1363 55.1238 26.9978 54.9026 26.7978 54.7474C26.5979 54.5922 26.3495 54.513 26.0972 54.5242C24.6913 54.5365 23.293 54.7242 21.9347 55.0831C20.6207 55.4217 21.3244 57.4245 22.6384 57.0858Z" fill="black"/>
<path d="M19.3566 49.9366C20.2157 49.995 21.0577 50.2085 21.8419 50.5668C21.9884 50.6315 22.1474 50.6628 22.3072 50.6584C22.467 50.6541 22.6238 50.6142 22.7661 50.5416C22.9084 50.4691 23.0328 50.3657 23.1301 50.239C23.2274 50.1122 23.2953 49.9653 23.3288 49.8089C23.4844 49.2901 22.822 49.7805 23.3081 49.6173C23.4481 49.5724 23.7977 49.9063 23.9795 49.9098C24.5759 49.9194 24.8542 49.8393 25.1109 49.877C26.0914 50.0595 26.7968 50.7489 27.6364 49.5103C28.4761 48.2717 27.8233 46.1567 27.7662 44.8324C27.6411 41.6671 27.7441 38.4976 28.0744 35.3486C28.2085 34.004 26.1317 33.6071 25.9958 34.9615C25.7283 37.3414 25.6262 39.676 25.5681 42.0745C25.5972 43.3582 25.6383 44.6593 25.6874 45.9721C25.8249 46.6165 25.885 47.2747 25.8665 47.9329C25.8195 48.1626 26.8583 47.9705 25.7103 47.706C25.2923 47.6079 24.948 47.7162 24.5558 47.6432C24.1636 47.5702 23.7907 47.3638 23.431 47.3627C22.0759 47.3437 21.6146 48.2875 21.2208 49.4164L22.7094 48.6486C21.7559 48.2643 20.7586 48.0002 19.7406 47.8625C18.3906 47.677 18.024 49.7392 19.3566 49.9366Z" fill="black"/>
<path d="M26.3834 46.2132L19.1654 46.5431C18.3291 46.57 17.7858 47.8789 18.5609 48.4087C19.4714 49.0935 20.5173 49.5754 21.6281 49.8219C23.1559 50.1165 24.837 49.5165 26.3271 50.0172L26.6616 48.0201C24.751 48.4292 22.7749 48.4344 20.8596 48.0353L20.4966 50.0779L26.8867 50.7555C27.1346 50.7906 27.3866 50.7372 27.5985 50.6047C27.8104 50.4721 27.9687 50.2689 28.0455 50.0307C28.1223 49.7925 28.1127 49.5346 28.0185 49.3022C27.9242 49.0698 27.7513 48.8779 27.5301 48.7601C24.8319 47.3243 23.1016 45.8913 22.497 42.791C22.0995 40.749 21.7877 38.6822 21.4491 36.6511C21.1977 35.2804 19.0949 35.4417 19.3415 36.7557C19.8513 39.681 19.966 43.1871 21.1897 45.8954C22.2368 48.2106 24.5259 49.4992 26.6563 50.6568L27.2707 48.6813L20.8766 47.9979C19.5332 47.8594 19.1431 49.8005 20.4966 50.0779C22.582 50.5275 24.7368 50.5366 26.8231 50.1045C27.7019 49.9283 28.3385 48.4693 27.2106 48.1223C24.7313 47.265 22.2402 48.4142 19.9421 46.8145L19.3376 48.6802L26.5396 48.3271C27.897 48.2501 27.739 46.1461 26.3834 46.2132Z" fill="black"/>
<path d="M21.4512 46.1875C20.6463 45.1549 20.0186 43.9957 19.5939 42.7576C19.1401 41.4405 17.3065 42.1541 17.6016 43.4518C17.7219 43.9865 18.026 44.4033 18.1712 44.9122C18.2506 45.4754 18.2588 46.0461 18.1955 46.6109C18.3318 47.5777 18.7927 48.4704 19.5022 49.1419C19.7809 49.449 20.1207 49.6944 20.4996 49.8619C20.8786 50.0295 21.2882 50.1155 21.702 50.1145C23.401 50.3599 25.1161 50.5169 26.8182 50.7172L26.9281 48.6174C24.7236 48.9482 22.4794 48.9241 20.2802 48.5462C18.9101 48.3316 18.5012 50.4315 19.8712 50.6461C22.2463 51.0635 24.6715 51.099 27.0553 50.7512C28.1748 50.5894 28.4346 48.8067 27.1692 48.6573C25.5611 48.4694 20.7997 48.7545 20.4299 46.7277C20.3333 46.2025 20.6672 45.7067 20.5122 45.0844C20.3226 44.2628 19.7875 43.5849 19.5939 42.7576L17.6016 43.4518C18.085 44.8693 18.7978 46.1982 19.7116 47.3852C20.5388 48.4625 22.2824 47.2705 21.4512 46.1875Z" fill="black"/>
<path d="M23.9507 42.9654C23.8799 40.7252 23.6719 38.491 23.3277 36.2755C23.155 35.168 21.3615 34.8848 21.2359 36.1548L20.493 43.4678L22.5293 43.3094C21.8717 40.8742 21.3549 38.4036 20.9816 35.9097C20.8013 34.816 18.978 34.5018 18.8898 35.789C18.6788 38.7512 18.7478 41.7276 19.0957 44.6787C19.1266 44.9511 19.2617 45.2013 19.4728 45.3765C19.6838 45.5518 19.9543 45.6384 20.2272 45.6183C20.5002 45.5981 20.7543 45.4728 20.9362 45.2685C21.1181 45.0642 21.2136 44.797 21.2025 44.5231C21.0776 42.2502 20.6967 39.9978 20.0669 37.8089C19.724 36.5784 18.018 37.0926 18.0133 38.2279C18.0022 40.8233 18.1634 43.4172 18.4958 45.9923L20.5805 45.5689L18.8411 37.3321C18.5908 36.1493 16.6763 36.584 16.7915 37.7569L17.4472 44.7673L19.53 44.5769L18.1651 37.12C17.9243 35.802 15.9473 35.8853 16.0543 37.2697L16.4928 42.9715L18.6036 42.8218C18.1914 40.1645 18.1441 37.4643 18.4628 34.7965L16.4113 34.9825C17.1596 38.4327 18.362 41.7696 19.987 44.9055C20.4114 45.7454 21.7732 45.3395 21.8961 44.5001C22.1496 42.8317 22.178 41.1361 21.9807 39.4587L19.8739 39.6142C20.2446 41.7547 20.7722 43.8653 21.4525 45.9291C21.5332 46.1464 21.6822 46.3317 21.8771 46.4569C22.072 46.5822 22.3021 46.6406 22.5327 46.6234C22.7632 46.6061 22.9817 46.5141 23.1549 46.3613C23.3282 46.2085 23.4468 46.0032 23.4929 45.7764C23.7552 43.6585 23.8623 41.5237 23.8133 39.3891L21.7007 39.5486C21.9821 41.6149 22.437 43.6544 23.0607 45.6452C23.147 45.886 23.3173 46.0876 23.5401 46.2129C23.7629 46.3382 24.0233 46.3787 24.273 46.3269C24.5228 46.2751 24.7451 46.1346 24.899 45.9312C25.0529 45.7278 25.1279 45.4753 25.1102 45.2204L24.7501 39.5331C24.661 38.1622 22.6032 38.3268 22.6393 39.6828C22.6894 41.5928 22.9067 43.4952 23.2887 45.3681C23.5097 46.4339 25.2478 46.7981 25.3805 45.4888C25.5873 43.6127 25.571 41.718 25.332 39.8443C25.3113 39.564 25.1802 39.3031 24.9676 39.1189C24.7551 38.9347 24.4784 38.8424 24.1985 38.8623C23.9186 38.8821 23.6584 39.0125 23.4751 39.2248C23.2918 39.437 23.2005 39.7137 23.2212 39.994C23.3112 42.164 23.5462 44.326 23.9246 46.4655C23.9555 46.738 24.0907 46.9881 24.3017 47.1634C24.5127 47.3386 24.7832 47.4253 25.0562 47.4052C25.3291 47.385 25.5833 47.2596 25.7652 47.0554C25.9471 46.8511 26.0425 46.5839 26.0314 46.31C26.1032 43.2028 25.9616 40.0935 25.6075 37.0044C25.4793 35.8747 23.6007 35.6416 23.5099 36.8877C23.3016 39.7093 23.6022 42.547 24.3974 45.2652C24.7564 46.519 26.3968 45.9469 26.4469 44.8403C26.6065 41.414 26.7138 37.978 26.7689 34.5323C26.7853 33.1658 24.6946 33.3446 24.6581 34.682C24.6034 36.2986 24.726 37.9169 25.0234 39.5079C25.2172 40.5838 27.0449 40.9292 27.1152 39.6286L27.4335 34.0575L25.3931 34.2102L26.11 37.3617C26.3884 38.4737 27.9178 38.0382 28.1731 37.1676C28.5409 35.9055 28.7337 34.5982 28.7461 33.2824L26.6295 33.436L26.6575 35.8354L28.7683 35.6857C28.6963 34.9387 28.6878 34.1871 28.7428 33.439C28.7994 32.4909 27.6163 31.6416 26.8907 32.5615C26.5191 33.0027 26.3287 33.569 26.3578 34.1463L28.4646 33.9908C28.3505 32.9156 28.1518 31.8507 27.8703 30.8063C27.5181 29.4878 25.52 30.186 25.874 31.4947C26.1372 32.3572 26.2995 33.247 26.3578 34.1463C26.3887 34.4188 26.5238 34.6689 26.7349 34.8442C26.9459 35.0194 27.2164 35.1061 27.4893 35.086C27.7623 35.0658 28.0164 34.9404 28.1983 34.7362C28.3802 34.5319 28.4757 34.2647 28.4646 33.9908L28.5284 33.9469L26.6802 33.0752C26.6223 34.0019 26.62 34.9314 26.6735 35.8587C26.7667 37.2355 28.8009 37.0614 28.7843 35.709L28.7563 33.3096C28.7452 31.9279 26.678 32.1161 26.6455 33.4593C26.6259 34.5961 26.4438 35.7237 26.1047 36.8078L28.1393 36.6592L27.4224 33.5076C27.1965 32.4967 25.445 32.622 25.3879 33.6563L25.0696 39.2274L27.1552 39.3266C26.8572 37.7357 26.7347 36.1173 26.7898 34.5007L24.679 34.6504C24.6386 38.109 24.5326 41.5469 24.3611 44.9642L26.4067 44.5335C25.7072 42.1694 25.4372 39.7001 25.6095 37.2432L23.5177 37.1225C23.8698 40.2118 24.0115 43.3209 23.9416 46.4281L26.0484 46.2726C25.6712 44.135 25.4376 41.9749 25.349 39.8069L23.2382 39.9566C23.4659 41.6441 23.4942 43.3519 23.3224 45.0447L25.4201 45.1614C25.0364 43.2887 24.8191 41.3861 24.7707 39.4761L22.6273 39.6653L22.9914 45.3584L25.0449 44.9394C24.4701 43.1256 24.0482 41.2671 23.7839 39.3836C23.7619 39.1031 23.6295 38.8424 23.4158 38.659C23.2021 38.4755 22.9247 38.3844 22.6446 38.4055C22.3644 38.4267 22.1045 38.5584 21.922 38.7718C21.7395 38.9851 21.6493 39.2626 21.6713 39.5431C21.7311 41.4891 21.6431 43.4363 21.4081 45.3679L23.4542 45.2113C22.8267 43.331 22.3343 41.4085 21.9807 39.4587C21.7498 38.1425 19.7103 38.2345 19.8739 39.6142C20.0595 41.1156 20.0446 42.6344 19.8295 44.1305L21.7386 43.7252C20.2309 40.7395 19.1227 37.569 18.4428 34.2956C18.2219 33.2299 16.5621 33.4635 16.4082 34.4443C16.0539 37.2825 16.0864 40.157 16.5048 42.989C16.5255 43.2693 16.6566 43.5302 16.8692 43.7144C17.0817 43.8986 17.3584 43.9909 17.6383 43.9711C17.9182 43.9512 18.1784 43.8208 18.3617 43.6086C18.545 43.3963 18.6363 43.1196 18.6156 42.8393L18.1771 37.1374L16.0583 37.2755L17.4232 44.7324C17.6697 46.0464 19.6896 45.9508 19.53 44.5769L18.8743 37.5665L16.8207 37.9856L18.5602 46.2224C18.8065 47.3994 20.7856 46.9716 20.6137 45.8034C20.2813 43.2282 20.1202 40.6344 20.1313 38.039L18.0818 38.4639C18.6411 40.4811 18.9732 42.554 19.0717 44.6437L21.1784 44.4882C20.8407 41.7184 20.7623 38.9239 20.9444 36.1411L18.865 36.0634C19.2649 38.7421 19.8193 41.396 20.5254 44.0116C20.6061 44.2288 20.7551 44.4141 20.95 44.5394C21.1449 44.6646 21.375 44.7231 21.6056 44.7058C21.8361 44.6886 22.0546 44.5966 22.2278 44.4438C22.4011 44.291 22.5197 44.0856 22.5658 43.8589L23.3088 36.5459L21.2151 36.435C21.5576 38.6508 21.7656 40.8848 21.8381 43.1249C21.8783 44.4867 23.9909 44.3272 23.9449 42.9693L23.9507 42.9654Z" fill="black"/>
<path d="M20.2312 34.1621C21.049 35.3672 22.1504 36.3528 23.4378 37.0316C24.3177 37.515 25.4699 36.2586 24.7512 35.4755C24.0159 34.5878 23.0754 33.893 22.0118 33.4518C20.9481 33.0106 19.7936 32.8364 18.649 32.9443C18.4881 32.9578 18.3325 33.0075 18.1937 33.0898C18.055 33.1721 17.9367 33.2848 17.8478 33.4195C17.7588 33.5541 17.7015 33.7073 17.6801 33.8674C17.6586 34.0276 17.6737 34.1907 17.7241 34.3445C18.7322 36.3177 21.4672 37.0248 23.4448 37.6872C24.6992 38.1186 25.6192 36.3016 24.3377 35.7688C22.3251 34.9439 20.2527 34.2748 18.1387 33.7674C17.9105 33.7295 17.6763 33.7671 17.4718 33.8744C17.2672 33.9818 17.1033 34.153 17.005 34.3622C16.9066 34.5715 16.8791 34.8073 16.9265 35.0341C16.974 35.2608 17.094 35.4662 17.2682 35.619L19.7909 37.6815L20.911 35.9068C19.2574 35.33 17.6217 35.5986 17.4657 33.2616C17.4472 32.3995 17.5867 31.5418 17.8773 30.731C18.2674 29.7334 18.3252 29.9166 19.5696 29.6259C21.1357 29.2137 22.7419 28.9703 24.3608 28.9C25.5492 28.8879 26.8305 28.7004 27.229 30.0985C27.468 30.9546 27.0988 32.3924 27.0133 33.2489L29.0537 33.0962L27.8546 29.865C27.7633 29.6289 27.5911 29.4328 27.369 29.3116C27.1468 29.1905 26.8892 29.1523 26.642 29.2039C26.3949 29.2555 26.1744 29.3934 26.02 29.5931C25.8656 29.7928 25.7873 30.0412 25.7992 30.2939C25.8287 31.1313 25.8614 31.9236 25.9515 32.7621L27.4534 31.728C26.1013 30.9436 24.3104 30.3413 22.8018 30.9683C22.6256 31.0305 22.469 31.138 22.3478 31.2802C22.2266 31.4224 22.1451 31.5941 22.1114 31.7782C21.983 33.2303 22.7723 34.265 23.9292 35.0637C24.1453 35.2346 24.4191 35.3147 24.6926 35.2869C24.9661 35.2592 25.2177 35.1259 25.394 34.9152C25.5703 34.7045 25.6575 34.4331 25.6371 34.1585C25.6166 33.8839 25.4902 33.6277 25.2845 33.4444C24.5064 32.6065 23.5285 31.9802 22.4431 31.6246C21.3578 31.2689 20.2007 31.1957 19.0811 31.4117C18.8969 31.4289 18.7204 31.4935 18.5689 31.5994C18.4173 31.7052 18.2959 31.8486 18.2164 32.0157C18.1368 32.1827 18.1019 32.3677 18.1151 32.5525C18.1282 32.7374 18.189 32.9158 18.2914 33.0704C19.3595 34.4909 20.7892 35.5982 22.4303 36.2759C23.3299 36.6514 24.456 35.593 23.7476 34.7256C23.0988 33.8758 22.2838 33.1671 21.3527 32.6431C20.4216 32.1191 19.394 31.7907 18.3328 31.6782C17.3924 31.5538 16.5402 32.861 17.4623 33.5298C18.6818 34.4222 20.0547 35.082 21.5119 35.4759C22.5685 35.769 23.1458 34.2736 22.3766 33.6282C21.1774 32.5918 19.7875 31.8005 18.2855 31.2991L17.6341 33.2828C20.0211 33.6376 22.3539 34.297 24.5753 35.2449C24.8273 35.353 25.1109 35.3591 25.3666 35.2621C25.6223 35.165 25.8302 34.9723 25.9464 34.7245C26.0626 34.4767 26.0781 34.1931 25.9897 33.9335C25.9012 33.6738 25.7158 33.4583 25.4723 33.3322L19.6533 30.1944L19.5778 32.1332C21.4513 31.7009 23.5627 33.2404 25.4968 33.281C26.7913 33.2989 26.6637 31.4998 25.6067 31.1812L18.2788 29.0051L18.4337 31.0426C19.2695 30.6301 20.7982 31.3358 21.6539 31.5357L25.2432 32.3664C26.5717 32.6696 26.9517 30.5896 25.6232 30.2865C24.5986 30.0399 21.7927 29.8877 21.0929 28.9458L20.2992 30.5987C22.3216 30.6376 24.3353 30.8834 26.3091 31.3323C27.4589 31.587 28.095 29.7424 26.9484 29.3311L23.4736 28.0956L23.1352 30.0869C24.3398 29.8961 25.5693 29.9207 26.7667 30.1595C28.1121 30.4253 28.4881 28.3395 27.1524 28.0756C25.7631 27.7881 24.3343 27.7522 22.9339 27.9698C21.9959 28.1096 21.4828 29.5865 22.5607 29.985L26.0355 31.2205L26.6748 29.2193C24.5348 28.7471 22.3537 28.4905 20.164 28.4533C19.9761 28.4635 19.7945 28.5238 19.638 28.6279C19.4815 28.732 19.3557 28.8762 19.2736 29.0455C19.1915 29.2148 19.1562 29.4031 19.1711 29.5909C19.1861 29.7788 19.2508 29.9594 19.3587 30.1141C20.6243 31.8157 23.3037 31.8835 25.2486 32.337L25.6285 30.257L20.6871 29.1137C19.6585 28.8613 18.7379 28.5174 17.7452 29.0123C17.5141 29.0864 17.3153 29.237 17.1814 29.4395C17.0475 29.6419 16.9864 29.8841 17.0081 30.1264C17.0299 30.3687 17.1331 30.5966 17.3011 30.7728C17.469 30.9491 17.6915 31.0631 17.9322 31.0963L25.2253 33.2964L25.3112 31.1617C22.9568 31.1189 21.2577 29.5699 18.8429 30.1348C17.875 30.3552 18.0105 31.6942 18.7443 32.0896L24.5633 35.2274L25.4602 33.3148C23.0753 32.2911 20.5712 31.5743 18.0079 31.1814C16.883 31.0125 16.185 32.7797 17.3744 33.1787C18.7009 33.608 19.9311 34.2938 20.9951 35.197L21.8656 33.3454C20.7555 33.0527 19.7117 32.5483 18.7914 31.8599L17.9266 33.7076C18.7201 33.7696 19.4925 33.9969 20.1942 34.3748C20.8959 34.7526 21.5116 35.2728 22.0018 35.9019L23.321 34.3418C22.0109 33.8363 20.8657 32.9768 20.0132 31.8592L19.2195 33.5121C20.0663 33.3342 20.9456 33.3826 21.7692 33.6526C22.5928 33.9226 23.3316 34.4046 23.9114 35.0502L25.2667 33.4309L24.1722 32.1518L23.4779 32.9558C24.4759 32.5431 25.6998 33.1413 26.5155 33.6432C26.6829 33.7197 26.8671 33.7517 27.0502 33.7359C27.2333 33.72 27.409 33.657 27.5602 33.5528C27.7115 33.4487 27.8331 33.307 27.9132 33.1416C27.9933 32.9762 28.0292 32.7928 28.0173 32.6091C27.953 31.7957 27.8945 30.9782 27.865 30.1409L25.8115 30.5599L27.0204 33.793C27.3623 34.724 28.946 34.7399 29.0509 33.6385C29.2583 31.6431 30.2175 28.058 27.7693 27.1963C24.8867 26.1878 21.3524 27.026 18.465 27.7362C17.3298 28.0117 16.5417 28.1084 16.0374 29.1761C15.5836 30.4996 15.3388 31.8863 15.3118 33.2866C15.1533 34.3513 15.4061 35.4377 16.0189 36.3248C17.0888 37.6551 18.524 37.3188 20.0168 37.8605C21.1174 38.2176 22.1377 36.9062 21.1449 36.0974L18.6279 34.0309L17.7587 35.8473C19.6889 36.321 21.5801 36.9429 23.4158 37.7072L24.3087 35.7887C23.3609 35.455 20.2316 34.6592 19.7552 33.6321L18.8342 35.0381C19.6127 34.9424 20.4034 35.0397 21.1369 35.3213C21.8703 35.6029 22.524 36.0603 23.0406 36.6533L24.3638 35.099C23.4143 34.5829 22.6077 33.8382 22.0171 32.9323C21.8578 32.7009 21.6133 32.542 21.3375 32.4906C21.0616 32.4392 20.7771 32.4996 20.5464 32.6585C20.3157 32.8173 20.1578 33.0616 20.1074 33.3376C20.057 33.6136 20.1182 33.8986 20.2775 34.1301L20.2312 34.1621Z" fill="black"/>
<path d="M17.2923 26.2191L17.152 26.127L17.5005 27.1049L17.5149 26.9149L16.8206 27.7189C18.2583 27.0634 20.3578 27.0587 21.9145 26.9732C23.8328 26.8169 25.7634 27.0795 27.5731 27.7429L27.4215 25.9089C25.6027 27.4013 22.1843 26.8561 19.943 26.9155C18.7804 26.9527 16.8007 26.6348 16.1201 27.9182C15.1743 29.7101 17.5371 34.0356 19.6661 32.0378C21.1773 30.62 19.5107 27.2561 17.4127 27.5857C17.1622 27.637 16.9247 27.7379 16.7141 27.8827C16.5035 28.0274 16.3242 28.213 16.1865 28.4284C16.0489 28.6439 15.9558 28.8848 15.9128 29.1372C15.8698 29.3895 15.8776 29.648 15.9359 29.8976C16.152 31.3784 17.4049 32.4284 18.5863 33.1759C19.7678 33.9234 20.625 31.978 19.4792 31.2574C19.1197 31.0332 17.6139 29.7028 18.0518 29.1097C18.1647 28.9634 19.4782 29.071 19.7163 29.0443L23.3845 28.9716C25.2799 28.9187 27.1145 28.9763 28.6278 27.6857C28.7787 27.5786 28.8991 27.4339 28.9769 27.2659C29.0547 27.0978 29.0872 26.9121 29.0713 26.7273C29.0554 26.5424 28.9916 26.3648 28.8862 26.2119C28.7808 26.059 28.6375 25.9362 28.4704 25.8556C26.5456 25.1272 24.4966 24.7888 22.4425 24.86C20.5177 24.9074 17.922 24.9364 16.1547 25.7587C15.9785 25.8208 15.822 25.9284 15.7008 26.0706C15.5796 26.2127 15.498 26.3845 15.4644 26.5685L15.4459 26.7528C15.4116 26.9368 15.4267 27.1269 15.4898 27.3035C15.5528 27.4801 15.6615 27.6369 15.8047 27.758L15.949 27.8559C17.0564 28.62 18.4255 27.0083 17.3043 26.2365L17.2923 26.2191Z" fill="black"/>
<path d="M17.4781 24.3161C20.9996 23.8607 24.5688 23.8971 28.0834 24.4243C29.4299 24.6294 29.8099 22.5494 28.4634 22.3444C24.7723 21.7825 21.0229 21.7347 17.3219 22.2023C15.972 22.377 16.134 24.4868 17.4781 24.3161Z" fill="black"/>
<path d="M32.1767 50.6041C36.444 46.8082 40.5575 42.5779 45.172 39.2119C49.7866 35.8458 55.2522 34.2868 60.1603 31.645C61.3577 31.0006 60.1403 29.2573 58.9584 29.8995C54.0271 32.5573 48.5205 34.1188 43.9702 37.4664C39.4198 40.8139 35.2341 45.0511 30.9748 48.8586C29.975 49.7529 31.1653 51.5064 32.1767 50.6041Z" fill="black"/>
<path d="M27.1485 60.0358C33.6596 56.3472 39.8823 52.1716 45.7636 47.5444C48.5713 45.3281 51.1947 42.8442 54.0924 40.7461C57.4651 38.2952 61.2186 37.1174 65.2131 36.0909C66.5329 35.7483 65.8233 33.7495 64.5152 34.0842C61.2488 34.9267 58.0344 35.8448 55.0988 37.5401C51.6347 39.5479 48.727 42.4506 45.6128 44.9294C39.4228 49.8991 32.8422 54.3613 25.9346 58.2728C24.7531 58.9405 25.9608 60.682 27.1364 60.0184L27.1485 60.0358Z" fill="black"/>
</g>
<defs>
<clipPath id="clip0">
<rect width="50" height="43" fill="white" transform="translate(0.736328 28.3557) rotate(-34.5491)"/>
</clipPath>
</defs>
</svg>
