<svg width="384" height="341" viewBox="0 0 384 341" fill="none" xmlns="http://www.w3.org/2000/svg">
<g clip-path="url(#clip0)">
<path d="M161.185 83.0363C160.72 81.3648 159.696 79.9031 158.285 78.8943C156.874 77.8854 155.16 77.3902 153.429 77.4908C144.008 77.9823 142.927 88.8997 146.667 95.5149C146.783 95.7135 146.974 95.8577 147.197 95.9157C147.419 95.9737 147.656 95.9408 147.854 95.8243C148.053 95.7077 148.197 95.5171 148.255 95.2942C148.313 95.0714 148.28 94.8346 148.164 94.636C145.95 90.727 144.95 85.1295 148.395 81.5675C151.285 78.5606 156.752 78.1674 158.96 82.1978C161.364 86.5752 158.711 90.8369 157.729 95.1101C157.209 97.3885 157.729 99.4991 160.041 100.424C161.075 100.841 161.526 99.1637 160.503 98.7473C157.613 97.5908 160.931 91.4556 161.347 89.3797C161.823 87.2848 161.767 85.1041 161.185 83.0363Z" fill="black" stroke="black" stroke-width="2" stroke-miterlimit="10"/>
<path d="M234.315 95.5498C227.455 95.0698 229.501 86.7835 229.466 82.4293C229.466 80.3649 228.472 78.5203 226.045 79.2604C223.23 80.122 221.467 84.6035 220.167 86.9338C218.163 90.5639 216.425 94.3343 214.965 98.2155C214.566 99.2621 216.242 99.7132 216.635 98.6781C218.055 94.9381 219.741 91.3051 221.681 87.807C222.421 86.477 223.207 84.5052 224.299 83.4412C224.6 82.4871 225.265 82.1748 226.305 82.5102C227.686 81.932 228.125 82.2905 227.628 83.5048C227.813 84.2507 227.403 85.4477 227.345 86.2052C226.998 91.0452 228.651 96.8913 234.333 97.2845C235.425 97.3655 235.419 95.6307 234.315 95.5498Z" fill="black" stroke="black" stroke-width="2" stroke-miterlimit="10"/>
<path d="M89.1649 94.3469C88.9106 91.2416 86.0035 88.6337 82.8767 88.9344C82.7532 88.9481 82.6335 88.9854 82.5241 89.0443C82.3928 89.0201 82.2575 89.0301 82.1311 89.0732C80.8202 89.5281 79.7089 90.426 78.9884 91.6123C78.2679 92.7986 77.9833 94.1991 78.1836 95.5728C78.5882 98.5161 81.241 100.28 84.1193 99.9559C86.9976 99.6321 89.4366 97.3595 89.1649 94.3469ZM83.8708 98.2385C79.247 98.7242 78.4726 92.0512 82.5877 90.7501C82.6508 90.7314 82.7111 90.7041 82.7668 90.6692C82.8034 90.6721 82.8401 90.6721 82.8767 90.6692C83.9957 90.5825 85.1037 90.9407 85.9606 91.6659C86.8174 92.3911 87.3541 93.425 87.4541 94.5435C87.616 96.6194 85.8127 98.0419 83.8939 98.2385H83.8708Z" fill="black" stroke="black" stroke-width="2" stroke-miterlimit="10"/>
<path d="M106.978 1.02302C106.906 0.905438 106.804 0.808203 106.684 0.740436C106.564 0.672668 106.428 0.636591 106.29 0.635589C106.175 0.635589 106.065 0.635589 105.955 0.635589H105.92C105.734 0.563853 105.528 0.563853 105.342 0.635589C100.921 0.832194 96.7133 3.64828 95.4476 8.04877C94.1414 12.5591 96.4937 17.0926 101.169 18.0583C105.747 19.0008 110.683 17.48 111.885 12.6169C113.07 7.95625 111.371 2.97172 106.978 1.02302ZM110.244 12.1486C109.14 16.2368 104.608 17.3008 100.863 16.1963C97.0023 15.0398 95.9504 10.5931 97.6381 7.245C98.4084 5.78233 99.5606 4.55601 100.972 3.69659C102.384 2.83718 104.002 2.37683 105.654 2.36456C109.683 3.71767 111.313 8.19333 110.244 12.1486Z" fill="black" stroke="black" stroke-width="2" stroke-miterlimit="10"/>
<path d="M226.853 16.9482C226.81 16.8795 226.751 16.8228 226.68 16.7833C226.609 16.7439 226.529 16.723 226.448 16.7227C226.385 16.7227 226.321 16.7227 226.252 16.7227C226.149 16.6846 226.037 16.6846 225.934 16.7227C224.647 16.756 223.402 17.1892 222.371 17.9621C221.341 18.735 220.576 19.8094 220.183 21.0364C219.426 23.6501 220.761 26.2869 223.507 26.8478C226.252 27.4087 229.032 26.5125 229.72 23.7137C230.39 20.9786 229.402 18.0758 226.853 16.9482ZM228.749 23.4188C228.107 25.7896 225.472 26.4084 223.299 25.7318C221.125 25.0553 220.443 22.482 221.426 20.5276C221.873 19.6782 222.541 18.9661 223.361 18.4671C224.18 17.9681 225.119 17.701 226.079 17.6941C228.419 18.5095 229.367 21.1116 228.749 23.4188Z" fill="black" stroke="black" stroke-width="3" stroke-miterlimit="10"/>
<path d="M230.899 59.1605C230.856 59.0918 230.796 59.0351 230.725 58.9956C230.655 58.9562 230.575 58.9353 230.494 58.9349H230.28C230.178 58.8968 230.065 58.8968 229.962 58.9349C228.675 58.9683 227.43 59.4014 226.4 60.1743C225.369 60.9473 224.605 62.0217 224.212 63.2487C223.455 65.8624 224.79 68.4992 227.535 69.0312C230.28 69.5632 233.066 68.6958 233.765 65.8682C234.436 63.1909 233.448 60.2881 230.899 59.1605ZM232.794 65.6311C232.153 68.0019 229.517 68.6206 227.344 67.973C225.171 67.3254 224.489 64.7232 225.472 62.7687C225.918 61.9194 226.587 61.2073 227.406 60.7083C228.226 60.2093 229.165 59.9421 230.124 59.9353C232.465 60.7217 233.413 63.3239 232.794 65.6311Z" fill="black" stroke="black" stroke-width="3" stroke-miterlimit="10"/>
<path d="M381.615 209.066C380.417 205.743 379.176 202.434 377.893 199.138C376.679 196.015 375.423 192.912 374.125 189.828C372.969 187.069 371.975 184.045 370.391 181.478C367.634 177.054 362.415 178.459 358.132 179.304C351.988 180.515 345.911 182.045 339.926 183.889C327.722 187.651 315.941 192.672 304.775 198.872C309.88 186.604 311.857 173.258 310.525 160.036C308.566 139.844 300.342 120.761 290.724 103.119L290.695 103.067C291.95 102.043 293.169 100.991 294.337 99.9097L294.394 99.9791L294.458 100.037C294.822 99.5975 295.209 99.1638 295.614 98.7359C300.648 93.6762 304.283 87.1998 303.237 79.8097C302.191 72.4197 297.07 65.8218 290.875 61.7856C283.141 56.7259 273.761 55.0779 264.785 53.7248C254.185 52.1288 243.568 50.6023 232.963 49.041C211.693 45.9069 190.58 43.3741 168.988 43.9524C157.937 44.2704 146.88 44.733 135.83 45.1494C125.265 45.5483 114.67 45.8143 104.157 47.0229C94.6151 48.1216 84.992 50.1107 76.0277 53.6323C75.6303 53.6906 75.2533 53.8454 74.9296 54.0833C72.521 55.0637 70.1638 56.1657 67.8669 57.3851C66.1051 58.1138 64.4443 59.0661 62.9252 60.2186C62.1334 60.6927 61.3532 61.1843 60.6134 61.7047C60.1033 61.8178 59.648 62.1038 59.3245 62.5142L59.1222 62.7513C58.3246 63.3296 57.5386 63.9078 56.7757 64.5555C54.0288 66.79 51.583 69.3712 49.4991 72.2346C49.187 72.6163 48.8749 72.9921 48.5744 73.3911C48.3087 73.5869 48.088 73.8373 47.9271 74.1255C47.8519 74.2643 47.7826 74.4031 47.7074 74.5361L47.0948 75.3803C47.0209 75.4746 46.9713 75.5856 46.9501 75.7035C46.9289 75.8214 46.937 75.9428 46.9734 76.0569C46.627 76.83 46.3523 77.6333 46.1527 78.4566C45.1489 81.5013 45.1287 84.7848 46.0949 87.8416C46.362 91.9714 47.6339 95.9734 49.7997 99.4992C49.8401 99.6206 49.8806 99.742 49.9268 99.8577C50.5946 101.659 51.4797 103.371 52.5623 104.958C34.8882 126.758 28.2878 156.422 32.9635 183.999C33.555 187.46 34.3266 190.888 35.2754 194.269C27.9637 195.799 21.104 198.999 15.2313 203.618C9.35854 208.237 4.63134 214.15 1.41822 220.897C1.30862 221.097 1.27989 221.332 1.33796 221.552C1.39603 221.773 1.53647 221.963 1.73032 222.083C26.6522 236.639 50.9903 252.13 74.7446 268.557C68.7662 275.886 62.1937 282.709 55.0938 288.957C49.7765 293.722 44.2743 298.273 38.7432 302.777C33.2121 307.282 27.6058 311.897 23.0803 317.529C22.9391 317.478 22.7849 317.476 22.6424 317.523C22.4999 317.57 22.3773 317.664 22.2943 317.789C21.8033 318.411 21.5054 319.163 21.4376 319.952C21.3698 320.742 21.535 321.534 21.9129 322.23C21.9271 322.4 21.9888 322.563 22.091 322.7C22.1932 322.837 22.3317 322.943 22.4908 323.005C22.7046 323.236 22.943 323.444 23.2017 323.623C23.3699 323.741 23.5778 323.786 23.7797 323.751C44.7887 327.07 65.4869 332.124 85.6624 338.86C85.7675 338.947 85.8933 339.005 86.0276 339.028C86.1618 339.052 86.2998 339.04 86.428 338.994C86.5562 338.948 86.6702 338.869 86.7589 338.766C86.8476 338.662 86.9079 338.537 86.9339 338.404C87.0148 337.953 87.0842 337.501 87.1478 337.05C100.108 325.381 112.376 312.964 123.889 299.863C138.395 310.044 151.698 321.841 163.543 335.027C163.483 335.147 163.451 335.279 163.451 335.414C163.451 335.549 163.483 335.681 163.543 335.801C163.837 336.472 164.299 337.056 164.884 337.496C164.912 337.626 164.97 337.748 165.053 337.853C165.137 337.957 165.243 338.04 165.364 338.096C165.485 338.152 165.618 338.18 165.751 338.176C165.884 338.172 166.015 338.137 166.132 338.074C170.433 339.23 177.605 333.749 180.177 332.257L206.55 316.95C209.569 323.772 212.218 330.752 214.485 337.86C214.601 338.311 214.739 338.768 214.895 339.225C215.775 339.132 216.663 339.157 217.537 339.3C217.662 339.319 217.784 339.354 217.901 339.404L243.227 335.125C243.673 335.193 244.129 335.116 244.528 334.905L263.554 331.684C263.681 331.647 263.798 331.582 263.896 331.494C263.994 331.405 264.071 331.296 264.12 331.173C264.17 331.051 264.191 330.919 264.182 330.787C264.173 330.655 264.134 330.527 264.069 330.412C262.555 327.438 260.874 324.552 259.035 321.767C257.694 318.298 256.093 314.984 254.445 311.659C251.515 305.744 248.631 299.8 245.857 293.803C240.682 282.624 235.843 271.288 231.338 259.796C236.794 257.865 242.187 255.673 247.452 253.198C271.692 269.597 295.521 286.43 314.808 308.71C315.106 308.816 315.374 308.992 315.588 309.225C315.855 309.517 316.101 309.828 316.322 310.156L316.426 310.283C316.439 310.305 316.454 310.324 316.473 310.341C331.947 303.114 347.822 296.781 364.022 291.374C364.158 291.332 364.281 291.257 364.38 291.155C364.08 290.241 363.727 289.333 363.398 288.42C363.32 288.326 363.233 288.241 363.138 288.165C362.797 287.587 362.45 287.038 362.097 286.477C361.565 285.64 361.02 284.813 360.462 283.996C359.306 282.302 358.069 280.648 356.786 279.04C354.22 275.676 351.326 272.577 348.145 269.788C347.777 269.48 347.391 269.194 346.989 268.932C347.103 268.774 347.156 268.579 347.138 268.385C347.12 268.191 347.032 268.009 346.891 267.874C337.933 258.796 329.167 249.544 320.594 240.118C332.667 238.06 344.781 235.937 356.427 232.156C362.073 230.356 367.557 228.081 372.819 225.355C376.656 223.343 382.644 220.729 383.129 215.762C383.349 213.432 382.361 211.183 381.615 209.066ZM298.036 71.2805H297.926C297.51 70.6097 297.076 69.9505 296.625 69.3029C297.128 69.939 297.602 70.604 298.036 71.2805ZM65.6128 69.1005C68.5373 66.533 71.7934 64.3702 75.2937 62.6704C77.0058 61.8891 78.7735 61.2358 80.5821 60.7159C82.1209 60.2582 83.6286 59.7019 85.096 59.0505C88.5059 58.1556 91.9691 57.4776 95.4647 57.0208C95.7419 57.028 96.0187 56.9929 96.2854 56.9168C101.603 56.2286 107.007 55.9048 112.312 55.6041C128.588 54.6905 144.869 53.586 161.168 53.0309L168.566 52.95C168.822 52.9444 169.077 52.9035 169.323 52.8285C170.97 52.8285 172.611 52.8285 174.253 52.7938C175.894 52.7591 177.68 52.8574 179.397 52.7938C185.119 52.8517 190.839 53.0444 196.557 53.3721C201.423 54.1296 206.613 54.0718 211.445 54.4708H211.578C231.913 56.3459 252.067 59.8262 271.854 64.8793C272.635 65.1353 273.43 65.3458 274.235 65.5096C275.61 66.4128 276.906 67.4324 278.107 68.557C278.576 68.9791 279.021 69.3723 279.431 69.7713C280.828 71.9919 281.711 74.4972 282.014 77.1035C282.014 77.2885 282.014 77.4678 282.014 77.6818C282.024 77.814 282.044 77.9454 282.072 78.075C282.101 78.5087 282.118 78.9481 282.113 79.3876C282.093 80.8244 281.898 82.2535 281.535 83.6435C276.946 80.1335 270.519 78.7631 264.959 77.9362C258.601 76.9821 252.18 76.8606 245.782 76.4848C231.065 75.5949 216.492 73.0737 202.33 68.9675C202.145 68.8935 201.938 68.8935 201.752 68.9675C201.677 68.6206 201.596 68.2794 201.487 67.9382C200.209 63.8905 196.655 61.8261 192.713 60.9472C189.396 60.207 185.055 59.9584 182.888 63.1445C182.315 63.9847 181.954 64.9508 181.836 65.9606L181.697 65.9317C160.324 63.4621 138.682 64.8328 117.791 69.9795C117.661 70.0028 117.539 70.0599 117.438 70.1451C117.336 70.2304 117.259 70.3407 117.213 70.4652C116.986 69.9489 116.713 69.4535 116.399 68.9849C114.185 65.6773 110.249 64.3589 106.406 64.4861C103.516 64.5612 98.314 65.0643 96.9154 68.1175C96.4336 69.3172 96.3927 70.649 96.7998 71.8761C82.9505 76.0141 70.1669 83.1174 59.3361 92.6932C58.4334 91.3466 57.7705 89.8539 57.3768 88.2811C55.4926 80.8737 60.3071 73.7786 65.6128 69.1005ZM102.996 78.6474C100.609 75.7099 95.6554 69.5689 101.181 67.0824C104.308 65.6831 109.203 65.6773 112.203 67.3368C115.092 68.9444 117.046 72.3965 115.919 75.6579C115.399 77.1556 114.254 78.6243 115.67 79.9485C116.485 80.706 117.716 79.4859 116.896 78.7226C116.491 78.3352 118.011 74.7732 118.052 73.8827C118.061 73.0848 117.944 72.2904 117.705 71.5292C117.883 71.6211 118.088 71.6458 118.283 71.5986C139.027 66.5125 160.513 65.1788 181.726 67.6607C181.768 67.6636 181.811 67.6636 181.853 67.6607C182.148 70.2223 183.645 72.784 185.009 74.8599C185.616 75.7851 187.118 74.9177 186.506 73.981C184.882 71.5118 182.708 68.3025 183.83 65.1915C185.2 61.3809 190.043 61.9707 193.152 62.8265C196.146 63.6418 198.851 65.2956 199.845 68.395C200.31 69.8068 200.394 71.3162 200.09 72.771C199.785 74.2258 199.103 75.5746 198.111 76.6814C197.366 77.5083 198.585 78.7342 199.337 77.9073C201.135 75.9264 202.083 73.3182 201.978 70.6444C214.854 74.3604 228.068 76.7817 241.424 77.8726C247.828 78.3872 254.266 78.4508 260.659 79.0927C267.219 79.7519 275.611 80.8911 280.858 85.2626C280.893 85.2947 280.932 85.322 280.974 85.3436C279.24 90.0274 275.801 94.1157 271.86 97.0705C265.629 101.737 257.931 103.853 250.388 105.235C242.141 106.75 233.772 107.687 225.42 108.398C191.47 111.29 157.359 108.977 123.49 106.184C115.202 105.494 106.918 104.79 98.6377 104.073C90.2399 103.356 81.4086 103.292 73.2072 101.28C68.5142 100.124 63.613 97.8107 60.4342 94.0636C71.1135 84.561 83.7489 77.5216 97.4471 73.4432C98.5684 75.9181 100.516 78.3178 101.77 79.856C102.458 80.7234 103.695 79.4917 102.996 78.6474ZM52.8629 322.045C50.4778 321.521 48.1159 320.958 45.777 320.356C53.2501 317.691 62.1681 316.17 68.2656 321.698C66.5048 321.413 64.7362 321.176 62.9599 320.987C63.0432 320.876 63.0981 320.747 63.1197 320.61C63.1413 320.474 63.129 320.334 63.0839 320.203C63.0388 320.072 62.9623 319.954 62.861 319.86C62.7598 319.766 62.637 319.698 62.5033 319.662C59.2675 318.756 55.8121 319.065 52.7877 320.53C52.653 320.609 52.5426 320.724 52.4684 320.861C52.3942 320.999 52.359 321.154 52.3668 321.31C52.3745 321.466 52.4248 321.617 52.5123 321.747C52.5998 321.876 52.721 321.979 52.8629 322.045ZM70.4099 323.826C70.5927 323.868 70.7841 323.85 70.9562 323.776C71.1283 323.701 71.2721 323.573 71.3664 323.411C71.4607 323.249 71.5006 323.061 71.4804 322.874C71.4601 322.688 71.3807 322.513 71.2537 322.374C64.191 313.319 51.8572 315.985 42.6907 319.686C42.5115 319.74 42.3546 319.851 42.243 320.001C42.1315 320.151 42.0713 320.334 42.0713 320.521C42.0713 320.708 42.1315 320.891 42.243 321.041C42.3546 321.192 42.5115 321.302 42.6907 321.357C53.85 324.307 65.1992 326.484 76.6577 327.874C77.3397 327.955 77.6923 327.087 77.4033 326.567C73.4615 319.472 66.5086 313.782 58.2437 312.839C53.2212 312.261 48.3605 313.863 43.6097 315.274C38.564 316.777 33.5993 318.448 28.9583 320.964C28.7992 321.063 28.6764 321.211 28.6081 321.386C28.5397 321.56 28.5294 321.752 28.5787 321.933C28.628 322.115 28.7342 322.275 28.8817 322.391C29.0292 322.507 29.21 322.572 29.3975 322.577C39.2749 322.918 49.1639 325.202 58.6483 327.885C61.6306 328.729 64.2835 330.273 67.1213 331.389C53.0536 327.478 38.7738 324.376 24.3519 322.097C28.7733 318.489 33.9519 316.135 39.3385 314.285C45.0661 312.319 52.1751 309.271 58.2957 310.335C68.832 312.157 77.8656 321.484 82.0848 330.996C78.039 331.297 73.8603 331.505 69.8839 330.51C65.5261 329.418 61.7346 326.862 57.3305 325.734C49.239 323.67 41.0724 321.686 32.7324 321.033C36.0979 319.534 39.5623 318.269 43.1011 317.245C47.4589 315.933 51.9786 314.319 56.5792 314.452C64.2892 314.666 70.9763 319.599 75.022 325.931C67.7281 325.002 60.4978 323.741 53.331 322.149C59.0619 322.209 64.7766 322.77 70.4099 323.826ZM85.5006 336.206L84.8648 336.784C80.3297 335.285 75.7676 333.874 71.1786 332.552C75.2243 333.228 79.2701 332.956 83.3159 332.656C83.8129 332.621 84.3851 332.124 84.1539 331.557C79.8943 321.091 70.2827 310.798 58.7234 308.676C52.3312 307.519 45.2742 310.457 39.3096 312.475C38.356 312.793 37.4139 313.134 36.4834 313.487C38.1826 312.608 39.9222 311.792 41.685 311.07C47.8461 308.56 55.6429 305.779 62.2548 307.635C65.8093 308.641 69.121 310.74 72.2709 312.614C75.2012 314.348 78.0506 316.28 80.27 318.882C82.2741 321.26 83.7718 324.023 84.6712 327.001C85.5706 329.979 85.8528 333.11 85.5006 336.2V336.206ZM87.3501 334.535C87.5552 329.201 86.0172 323.945 82.9691 319.564C78.8077 313.643 71.2884 309.3 64.6707 306.675C57.3479 303.784 49.1408 306.311 42.1301 309.04C35.2238 311.751 28.8008 315.561 23.1092 320.322C23.1014 320.028 23.1566 319.736 23.2711 319.466C23.4009 319.491 23.5352 319.478 23.6574 319.427C23.7796 319.377 23.8844 319.292 23.9589 319.182C28.5421 313.359 34.2408 308.687 39.9569 304.032C45.673 299.377 51.5162 294.549 57.0473 289.541C67.7802 279.879 77.6634 269.216 85.1191 256.749C85.2251 256.551 85.2501 256.319 85.189 256.103C85.1279 255.887 84.9854 255.703 84.7915 255.59C84.5975 255.477 84.3673 255.443 84.1492 255.497C83.9311 255.55 83.7422 255.686 83.6222 255.876C81.2655 259.805 78.6674 263.584 75.8428 267.192C52.2541 250.889 28.072 235.496 3.29661 221.013C6.45142 214.652 11.0083 209.09 16.6238 204.747C22.2393 200.403 28.7669 197.392 35.7147 195.94C38.9032 206.772 44.0621 216.923 50.9325 225.882C62.0005 240.153 77.4033 250.654 93.8695 257.761C110.116 264.775 127.605 268.944 145.384 270.604C128.147 293.737 108.712 315.145 87.3501 334.529V334.535ZM164.266 333.246C152.516 320.26 139.357 308.623 125.033 298.55C132.847 289.599 140.301 280.347 147.395 270.794C157.813 271.642 168.281 271.665 178.703 270.864C178.689 271.09 178.761 271.314 178.905 271.488C186.572 281.039 193.366 291.259 199.204 302.026C189.841 300.424 179.98 303.182 173.103 309.844C166.82 315.933 163.763 324.612 164.266 333.24V333.246ZM199.036 303.755C199.205 303.789 199.381 303.771 199.54 303.706C199.699 303.64 199.836 303.528 199.932 303.385C200.521 304.487 201.099 305.601 201.666 306.727C200.279 306.213 198.81 305.959 197.331 305.975C188.864 305.975 178.807 308.363 172.773 314.649C169.71 317.938 167.513 321.939 166.381 326.289C169.138 311.683 183.373 300.91 199.036 303.743V303.755ZM185.136 327.382L174.906 333.315C173.213 334.298 169.126 337.103 166.624 336.368C166.866 329.556 168.479 322.49 172.883 317.112C177.865 311.041 185.639 308.965 193.112 308.063C194.819 307.795 196.546 307.683 198.273 307.727C199.758 307.82 201.978 308.462 203.128 309.659L203.874 311.197C203.897 311.664 203.797 312.128 203.585 312.544C202.695 314.406 200.053 315.233 198.238 316.205L192.459 319.287C185.304 323.103 178.2 327.139 170.687 330.216C172.23 325.243 174.108 318.957 178.258 316.025C180.379 314.522 182.992 313.822 185.448 313.07C188.236 312.148 191.095 311.456 193.996 311C195.41 310.777 196.843 310.698 198.273 310.763C198.979 310.745 199.682 310.857 200.348 311.093L198.493 312.163C196.007 313.585 193.503 314.963 190.979 316.297C186.459 318.674 181.865 320.894 177.218 322.993C178.819 318.095 183.529 315.869 188.442 314.649C186.469 315.667 184.485 316.665 182.489 317.644C181.489 318.136 182.367 319.634 183.367 319.142C187.082 317.319 190.761 315.43 194.406 313.475C195.343 312.972 194.643 311.74 193.742 311.885C186.182 313.041 176.53 315.32 175.12 324.283C175.081 324.448 175.09 324.62 175.146 324.78C175.203 324.94 175.305 325.08 175.439 325.183C175.574 325.287 175.735 325.349 175.904 325.362C176.073 325.376 176.242 325.34 176.391 325.26C183.593 322.068 190.632 318.554 197.51 314.718C198.747 314.025 202.712 312.735 202.423 310.705C202.105 308.566 197.897 308.971 196.643 309.028C193.037 309.144 189.511 310.04 186.072 311.07C183.136 311.949 179.957 312.77 177.403 314.539C172.294 318.043 170.3 325.925 168.491 331.499C168.451 331.647 168.45 331.802 168.49 331.949C168.529 332.097 168.606 332.231 168.714 332.339C168.822 332.447 168.957 332.525 169.104 332.564C169.252 332.603 169.407 332.603 169.554 332.563C179.836 328.579 189.43 322.895 199.14 317.72C201.082 316.684 203.914 315.736 205.22 314.036L205.844 315.389L185.136 327.382ZM215.681 333.656C215.606 323.45 225.709 315.152 234.592 311.151C241.1 308.213 246.371 310.491 251.087 315.152C250.804 314.944 250.51 314.742 250.226 314.574C245.406 311.393 240.077 311.521 234.789 313.464C225.565 316.852 217.56 323.959 215.681 333.656ZM237.817 334.269C238.461 333.975 239.171 333.856 239.875 333.922L237.817 334.269ZM243.221 333.355C242.482 333.176 241.355 332.436 240.846 332.315C239.755 332.062 238.615 332.122 237.556 332.487C236.497 332.852 235.562 333.508 234.858 334.379C234.758 334.5 234.692 334.646 234.668 334.801L229.911 335.605C234.095 329.244 242.43 329.389 248.851 332.401L243.221 333.355ZM251.163 332.008C251.147 331.884 251.1 331.766 251.026 331.665C250.952 331.563 250.854 331.483 250.741 331.43C243.071 327.347 232.385 327.116 227.796 335.79C227.759 335.855 227.731 335.925 227.715 335.998L223.923 336.64C224.218 334.049 227.327 331.661 229.125 330.083C231.437 328.024 234.159 326.156 237.251 325.485C243.389 324.15 248.423 328.377 253.162 331.696L251.163 332.008ZM254.781 331.395C254.83 331.22 254.821 331.033 254.757 330.862C254.693 330.692 254.575 330.546 254.422 330.447C248.475 326.399 242.534 321.548 234.974 324.335C231.87 325.491 229.235 327.527 226.882 329.793C224.848 331.725 222.155 333.911 222.189 336.917L220.49 337.201C221.814 329.741 229.431 322.259 236.39 319.928C238.405 319.186 240.592 319.04 242.688 319.508C244.785 319.977 246.702 321.04 248.209 322.571C251.064 325.289 253.7 328.267 256.411 331.129L254.781 331.395ZM259.867 329.626C259.998 329.72 260.151 329.778 260.312 329.793C260.473 329.807 260.635 329.779 260.78 329.709C260.926 329.64 261.051 329.533 261.141 329.4C261.232 329.266 261.285 329.11 261.294 328.949C261.526 329.36 261.757 329.77 261.976 330.181L258.127 330.834C258.136 330.717 258.118 330.599 258.076 330.489C258.034 330.379 257.969 330.28 257.884 330.198C254.417 326.544 250.989 321.825 246.666 319.142C243.146 316.962 238.754 317.101 235.003 318.564C227.489 321.536 219.906 329.285 218.681 337.484L216.664 337.825C216.545 337.839 216.432 337.883 216.334 337.953C216.334 337.906 216.334 337.866 216.294 337.825C216.492 337.795 216.673 337.697 216.805 337.546C216.937 337.396 217.012 337.204 217.016 337.004C217.473 326.422 225.755 318.622 235.251 315.152C240.239 313.313 245.221 313.18 249.7 316.309C254.18 319.437 256.711 324.404 258.902 329.25C258.935 329.342 258.988 329.426 259.056 329.497C259.124 329.567 259.207 329.623 259.297 329.66C259.388 329.697 259.486 329.714 259.584 329.711C259.682 329.709 259.778 329.685 259.867 329.643V329.626ZM243.424 292.675C246.121 298.535 248.893 304.35 251.741 310.121C252.717 312.099 253.7 314.071 254.63 316.054C249.273 310.052 242.493 305.993 234.592 309.283C225.565 313.053 215.468 321.212 214.057 331.204C211.658 324.41 208.907 317.746 205.816 311.237C205.743 310.892 205.637 310.555 205.498 310.231C205.274 309.707 204.977 309.218 204.613 308.78C197.972 295.254 189.882 282.49 180.483 270.714C190.349 269.875 200.142 268.329 209.786 266.087C216.512 264.519 223.154 262.609 229.685 260.363C233.986 271.257 238.565 282.028 243.424 292.675ZM247.88 250.966L247.51 251.14L246.932 251.354C246.597 251.504 246.256 251.66 245.92 251.828C245.918 251.855 245.918 251.882 245.92 251.909C241.667 253.881 237.349 255.662 233.009 257.275C230.703 258.896 227.991 259.839 225.177 259.999C224.599 260.195 223.969 260.403 223.368 260.577C199.821 267.937 175.113 270.862 150.498 269.204C150.398 269.21 150.298 269.21 150.198 269.204C148.939 269.234 147.681 269.122 146.447 268.869C133.473 267.727 120.661 265.177 108.238 261.265C91.0259 255.795 74.5481 247.242 61.3647 234.746C49.9677 223.88 41.6552 210.184 37.2752 195.055C28.7906 166.143 33.5762 132.922 51.8052 108.67C52.3832 107.895 52.9611 107.126 53.5969 106.357C55.946 109.237 58.8215 111.643 62.0699 113.447C62.0352 113.522 62.0005 113.591 61.9716 113.666C62.186 113.719 62.3909 113.804 62.5785 113.921C62.8964 114.083 63.2085 114.262 63.5148 114.447C63.5258 114.415 63.5393 114.384 63.5552 114.354C63.5552 114.354 63.5552 114.326 63.5552 114.308C64.5147 114.813 65.4991 115.282 66.5086 115.713C84.1192 123.358 103.683 127.452 122.652 129.817C138.181 131.704 153.834 132.371 169.467 131.812C172.913 131.859 176.358 131.7 179.784 131.338C188.742 130.759 197.701 129.909 206.602 128.764C213.769 128.426 220.883 127.348 227.83 125.549C232.793 124.686 237.74 123.759 242.672 122.768C252.301 120.831 262.08 118.917 271.137 115.002C277.62 112.179 283.721 108.55 289.297 104.2C305.139 133.443 316.97 167.368 302.81 199.23C302.472 200.137 302.036 201.004 301.509 201.815C301.342 202.145 301.168 202.468 300.995 202.792C301.031 202.795 301.068 202.795 301.105 202.792C290.274 224.239 270.779 239.725 249.209 250.33C248.77 250.573 248.325 250.787 247.88 250.966ZM316.305 307.785L316.178 307.652C316.329 307.648 316.475 307.605 316.605 307.528C316.735 307.451 316.843 307.343 316.919 307.213C316.995 307.083 317.037 306.935 317.041 306.785C317.045 306.634 317.01 306.485 316.941 306.351L316.669 305.808C319.478 308.08 324.293 303.934 326.593 302.685C331.841 299.844 337.243 297.3 342.776 295.064C345.242 294.069 347.733 293.136 350.249 292.265C351.809 291.721 353.717 291.265 354.798 289.9C357.075 287.009 352.879 284.557 350.925 283.048C343.891 277.635 335.32 276.005 327.899 281.862C324.758 284.438 322.401 287.844 321.096 291.692C320.374 293.716 318.524 298.793 321.339 300.181C322.778 300.887 324.35 299.84 325.633 299.256L334.528 295.208L341.845 291.883C343.504 291.132 346.694 290.449 347.59 288.668C349.226 285.424 342.787 283.343 340.655 283.007C338.54 282.672 336.375 282.89 334.37 283.64C332.365 284.39 330.588 285.646 329.211 287.286C327.835 288.917 324.558 294.156 328.252 295.15C329.905 295.596 331.87 294.387 333.32 293.763C336.303 292.485 339.204 291.051 342.053 289.501C342.183 289.423 342.29 289.314 342.364 289.182C342.438 289.051 342.477 288.903 342.477 288.752C342.477 288.601 342.438 288.453 342.364 288.322C342.29 288.191 342.183 288.081 342.053 288.003C340.108 287.111 337.9 286.976 335.86 287.624C333.821 288.272 332.095 289.656 331.02 291.507C330.958 291.609 330.918 291.723 330.904 291.842C330.891 291.961 330.903 292.081 330.94 292.194C330.978 292.308 331.039 292.412 331.121 292.499C331.203 292.586 331.302 292.654 331.413 292.699L331.234 292.774C329.5 293.468 327.934 293.236 328.922 291.039C329.729 289.189 331.033 287.599 332.69 286.448C334.03 285.539 335.557 284.944 337.158 284.708C338.759 284.471 340.393 284.6 341.938 285.083C342.516 285.257 344.475 285.887 344.909 286.517L345.03 287.506C345.458 288.408 345.151 288.9 344.105 288.969C342.73 290.125 339.979 290.842 338.326 291.583L328.385 296.099C327.067 296.677 322.339 299.655 321.582 296.908C321.241 295.671 322.31 293.335 322.738 292.161C325.09 285.598 330.766 280.018 338.031 279.717C341.25 279.59 344.209 280.671 346.92 282.342C348.413 283.296 349.844 284.345 351.203 285.482C352.861 286.824 354.67 288.46 351.827 289.819C348.804 291.259 345.4 292.132 342.285 293.375C339.169 294.618 336.256 295.914 333.303 297.313C330.097 298.836 326.943 300.465 323.842 302.199C322.72 302.914 321.563 303.57 320.374 304.165C318.23 305.091 317.571 304.35 316.762 302.379C316.382 301.274 316.158 300.122 316.097 298.955C315.519 292.149 318.438 285.164 322.877 280.104C328.367 273.848 336.944 270.818 344.735 274.634C351.191 277.803 357.653 284.233 361.34 290.42C346.087 295.591 331.121 301.575 316.507 308.346C316.509 308.141 316.438 307.942 316.305 307.785ZM335.956 289.437C337.019 289.014 338.173 288.869 339.308 289.015C338.337 289.524 337.355 290.027 336.366 290.513C336.453 290.319 336.462 290.099 336.391 289.899C336.32 289.698 336.174 289.533 335.985 289.437H335.956ZM351.312 275.374C353.367 277.578 355.296 279.894 357.092 282.313C355.838 281.024 354.52 279.786 353.185 278.589C349.781 275.525 345.926 272.674 341.395 271.604C332.482 269.499 324.015 274.871 319.201 282.07C316.608 285.865 314.966 290.229 314.415 294.792C314.264 296.135 314.212 297.488 314.259 298.84C312.086 286.818 318.617 274.316 330.795 270.049C334.167 268.831 337.769 268.382 341.337 268.736C345.735 269.233 348.469 272.298 351.341 275.374H351.312ZM344.14 267.579C338.898 265.845 332.477 267.227 327.668 269.447C313.722 275.877 308.283 292.728 314.953 306.288C296.03 284.782 272.848 268.314 249.261 252.331C267.617 243.432 284.245 231.103 295.966 214.6C311.348 232.869 327.415 250.529 344.169 267.579H344.14ZM377.442 220.649C375.256 222.08 372.982 223.372 370.634 224.517C365.607 227.011 360.389 229.097 355.029 230.756C343.435 234.422 331.413 236.493 319.449 238.528L319.241 238.592C311.678 230.242 304.262 221.761 296.995 213.149C297.481 212.437 297.955 211.726 298.423 211.003C300.37 207.97 302.108 204.808 303.625 201.537C312.851 196.258 322.52 191.794 332.523 188.197C337.759 186.324 343.073 184.693 348.463 183.305C353.497 182.004 359.352 180.026 364.582 180.113C368.438 180.183 369.524 183.409 370.825 186.405C372.196 189.581 373.527 192.775 374.818 195.986C376.939 201.266 379.141 206.597 380.852 212.027C382.049 215.97 380.719 218.457 377.471 220.649H377.442Z" fill="black" stroke="black" stroke-width="2" stroke-miterlimit="10"/>
</g>
<defs>
<clipPath id="clip0">
<rect width="383" height="340" fill="white" transform="translate(0.736328 0.00537109)"/>
</clipPath>
</defs>
</svg>
