<?xml version="1.0" encoding="UTF-8"?> <svg xmlns="http://www.w3.org/2000/svg" width="560" height="366" viewBox="0 0 560 366" fill="none"> <path fill-rule="evenodd" clip-rule="evenodd" d="M333.584 45.2242C333.584 45.2242 380.362 65.2125 408.823 59.2459C437.284 53.2792 400.768 1.07087 342.892 7.15687C285.015 13.2429 311.567 38.6012 333.584 45.2242Z" fill="#D8CA9A"></path> <path fill-rule="evenodd" clip-rule="evenodd" d="M274.872 338.784C398.919 271.003 445.28 313.545 523.085 261.039C600.95 208.592 543.61 70.8213 435.554 67.48C327.498 64.1387 281.912 22.1333 214.37 16.1666C-90.8254 -10.8027 21.4076 477.271 274.872 338.784Z" fill="#D8CA9A"></path> <path fill-rule="evenodd" clip-rule="evenodd" d="M510.973 95.8217C490.746 79.3537 465.089 68.4347 435.554 67.5397C434.182 67.48 432.809 67.4204 431.497 67.3607C420.578 74.6997 413.656 84.2464 410.613 89.0794L482.154 108.471L510.973 95.8217Z" fill="#ECD8A1"></path> <path fill-rule="evenodd" clip-rule="evenodd" d="M523.861 107.815C519.923 103.638 515.686 99.6999 511.211 96.0006C515.686 99.6999 519.923 103.638 523.861 107.815Z" fill="#AB5789"></path> <path fill-rule="evenodd" clip-rule="evenodd" d="M254.108 170.465C253.093 167.302 252.139 161.873 256.554 159.546C262.938 156.145 266.399 160.321 266.399 160.321C266.399 160.321 257.568 138.185 277.855 130.249C298.082 122.373 307.032 130.786 307.032 130.786C307.032 130.786 295.934 100.297 329.109 81.5613C362.283 62.8259 385.315 85.9766 385.315 85.9766C385.315 85.9766 387.403 79.5923 395.458 78.5779C401.604 77.8023 406.735 83.8883 408.406 88.5423L402.797 86.9909L263.177 169.45C263.058 169.391 259.597 169.808 254.108 170.465Z" fill="#F1E2BB"></path> <path fill-rule="evenodd" clip-rule="evenodd" d="M254.108 170.465C253.571 168.854 253.093 166.646 253.272 164.617C253.63 164.319 254.048 164.021 254.466 163.782C260.85 160.381 264.311 164.558 264.311 164.558C264.311 164.558 263.296 162.052 262.759 158.352C265.146 158.83 266.339 160.321 266.339 160.321C266.339 160.321 262.64 151.013 265.564 142.362C267.592 139.259 270.814 136.455 275.767 134.545C295.994 126.669 304.944 135.082 304.944 135.082C304.944 135.082 304.049 132.696 303.571 128.758C305.898 129.772 307.032 130.846 307.032 130.846C307.032 130.846 302.378 118.077 308.106 103.937C311.626 97.6118 317.533 91.2275 327.08 85.8575C360.255 67.1222 383.286 90.2728 383.286 90.2728C383.286 90.2728 385.374 83.8885 393.429 82.8742C397.129 82.3969 400.47 84.4255 402.857 87.1105H402.737L263.117 169.57C263.058 169.391 259.597 169.808 254.108 170.465Z" fill="#ECD8A1"></path> <path fill-rule="evenodd" clip-rule="evenodd" d="M208.642 176.372C208.701 174.94 208.582 171.419 205.897 169.868C202.436 167.899 200.646 169.331 200.646 169.331C200.646 169.331 196.171 149.402 171.231 153.46C146.35 157.517 143.486 177.147 143.486 177.147C143.486 177.147 142.412 170.823 132.925 171.061C123.438 171.3 121.707 176.61 121.707 176.61C121.707 176.61 101.719 124.163 35.9664 126.311C24.5104 171.539 30.7157 223.329 51.062 266.946C50.525 265.752 49.988 264.559 49.451 263.366C88.473 238.783 176.302 183.651 183.462 180.906C186.565 179.832 196.649 178.102 208.642 176.372Z" fill="#F1E2BB"></path> <path fill-rule="evenodd" clip-rule="evenodd" d="M150.407 163.842C144.5 170.286 143.486 177.148 143.486 177.148C143.486 177.148 143.247 175.656 141.875 174.105C140.025 177.864 139.607 180.668 139.607 180.668C139.607 180.668 138.533 174.344 129.046 174.582C125.944 174.642 123.617 175.298 122.006 176.134C121.827 176.432 121.767 176.611 121.767 176.611C121.767 176.611 121.707 176.492 121.648 176.313C118.605 177.983 117.889 180.191 117.889 180.191C117.889 180.191 98.5566 129.415 35.1906 129.832C25.1069 173.329 31.0736 222.375 49.8686 264.261C49.7493 263.963 49.6299 263.665 49.5106 263.426C88.5326 238.843 176.362 183.711 183.522 180.967C186.267 179.952 194.441 178.461 204.584 176.969C204.226 175.656 203.51 174.224 202.078 173.449C198.618 171.48 196.828 172.912 196.828 172.912C196.828 172.912 192.353 152.983 167.412 157.04C159.894 158.234 154.405 160.799 150.407 163.842Z" fill="#ECD8A1"></path> <path fill-rule="evenodd" clip-rule="evenodd" d="M274.872 338.785C398.919 271.003 445.28 313.546 523.085 261.039C579.709 222.912 564.792 139.677 510.973 95.822L482.154 108.471L402.678 86.9913L263.058 169.451C263.058 169.451 192.591 177.506 183.462 181.026C176.362 183.711 88.4731 238.903 49.451 263.485C84.9527 343.319 167.114 397.676 274.872 338.785Z" fill="#DCC791"></path> <path fill-rule="evenodd" clip-rule="evenodd" d="M274.872 338.785C398.919 271.003 445.28 313.546 523.085 261.039C561.689 235.025 567.059 188.067 549.458 146.897L509.66 135.859L349.395 175.895L261.029 249.106L192.054 233.593L63.771 290.216C104.523 354.477 179.703 390.814 274.872 338.785Z" fill="#DCC791"></path> <path fill-rule="evenodd" clip-rule="evenodd" d="M95.812 328.283C95.275 327.388 81.1937 301.672 62.6374 292.304C62.6374 292.304 54.821 299.225 50.2864 297.018C45.692 294.81 45.2147 295.108 45.2147 295.108L45.334 286.636L41.217 293.975C41.217 293.975 29.1644 288.963 17.41 291.23C5.65569 293.497 3.32869 295.108 1.65802 293.796C1.65802 293.796 7.50536 278.402 33.6394 276.194C59.7734 273.986 63.2937 286.099 63.2937 286.099L64.129 288.903L72.542 296.063L54.284 273.449C54.284 273.449 40.143 277.149 38.9497 266.409C37.7564 255.669 54.4034 243.974 59.7137 243.855C65.024 243.735 71.9454 256.683 71.9454 256.683C71.9454 256.683 63.771 260.442 62.339 260.024C60.907 259.607 60.012 259.428 60.012 259.428C60.012 259.428 54.3437 265.693 61.265 276.552C68.1267 287.411 74.69 293.378 78.8667 298.867C83.0434 304.357 97.7214 327.209 97.7214 327.209L95.812 328.283Z" fill="#C9B180"></path> <path fill-rule="evenodd" clip-rule="evenodd" d="M84.5351 304.775L42.7684 244.511L35.5487 240.215C35.5487 240.215 21.527 240.036 16.2763 232.996C11.0257 226.015 12.935 223.509 5.83467 218.556C-1.26567 213.604 0.106662 203.58 0.106662 203.58C0.106662 203.58 9.77267 213.365 21.706 213.604C33.5797 213.843 43.4247 242.244 43.4247 242.244L86.4444 304.238L84.5351 304.775Z" fill="#C9B180"></path> <path fill-rule="evenodd" clip-rule="evenodd" d="M11.3837 224.344C10.3693 222.494 8.99699 220.764 5.83466 218.556C-1.26567 213.604 0.106661 203.58 0.106661 203.58C0.106661 203.58 3.74633 207.22 9.29532 210.143C10.4887 214.618 11.0853 219.929 11.3837 224.344Z" fill="#D5BC84"></path> <path fill-rule="evenodd" clip-rule="evenodd" d="M125.466 260.621C125.944 257.458 126.898 250.597 127.555 245.167C128.45 237.828 131.791 233.771 131.791 233.771C131.791 233.771 132.746 237.53 136.147 237.47C139.548 237.411 144.56 230.728 142.531 224.702C140.502 218.675 131.731 222.733 131.731 222.733C131.731 222.733 123.139 221.181 120.454 224.761C117.769 228.341 120.633 237.888 120.633 237.888C120.633 237.888 118.187 239.559 118.306 240.991C118.426 242.422 123.975 249.045 123.975 249.045L122.901 260.561C123.796 260.502 124.691 260.561 125.466 260.621Z" fill="#C9B180"></path> <path fill-rule="evenodd" clip-rule="evenodd" d="M137.101 306.445L136.505 266.11C136.505 266.11 129.882 257.101 128.688 250C128.688 245.645 129.225 245.227 130.836 241.886C135.311 234.069 144.381 220.167 156.97 215.632C156.97 215.632 159.118 217.9 156.732 224.165C154.345 230.43 142.531 259.786 138.832 265.156L138.772 306.505L137.101 306.445Z" fill="#C9B180"></path> <path fill-rule="evenodd" clip-rule="evenodd" d="M131.851 233.771C131.851 233.771 128.629 224.642 120.454 224.701C123.139 221.121 131.731 222.673 131.731 222.673C131.731 222.673 140.502 218.675 142.531 224.642C144.56 230.668 139.548 237.291 136.147 237.41C132.805 237.53 131.851 233.771 131.851 233.771Z" fill="#D5BC84"></path> <path fill-rule="evenodd" clip-rule="evenodd" d="M138.056 324.941C138.056 324.941 138.951 277.685 140.204 270.346C141.457 263.007 168.128 237.649 180.718 235.501C180.718 235.501 183.104 237.052 179.823 240.931C176.481 244.809 164.787 263.306 164.787 263.306L160.133 260.203L161.803 264.678C161.803 264.678 154.345 277.089 143.068 277.984L140.323 326.851L138.056 324.941Z" fill="#C9B180"></path> <path fill-rule="evenodd" clip-rule="evenodd" d="M155.24 251.791C163.832 243.915 174.154 236.576 180.718 235.442C180.718 235.442 183.104 236.994 179.823 240.872C179.166 241.648 178.152 243.08 176.899 244.75C176.72 244.691 176.481 244.631 176.302 244.571C171.231 242.781 162.519 247.137 155.24 251.791Z" fill="#D5BC84"></path> <path fill-rule="evenodd" clip-rule="evenodd" d="M72.3631 144.152C73.8547 142.958 75.0481 141.944 75.8237 141.168C81.1341 135.739 90.3824 110.619 93.7237 104.772C97.0054 98.8647 114.607 85.7381 114.965 84.1867C115.323 82.6951 113.831 78.4587 113.831 78.4587L115.383 77.8621L117.113 82.9934L124.571 75.5947L125.884 76.3107C125.884 76.3107 102.375 101.669 101.779 104.056C101.122 106.442 89.4874 153.161 89.4874 153.161C89.4874 153.161 85.6091 156.562 80.2987 161.276L148.975 311.934L95.9911 328.343C102.196 333.772 108.76 338.725 115.741 343.08H115.681C102.495 334.846 90.6211 324.464 80.2391 312.471L30.3577 179.594C29.4627 148.806 35.3101 118.495 48.6754 92.4207L72.3631 144.152Z" fill="#DCC791"></path> <path fill-rule="evenodd" clip-rule="evenodd" d="M96.7667 123.686C93.3657 137.409 89.368 153.221 89.368 153.221C89.368 153.221 85.4897 156.622 80.1793 161.336V161.395L79.344 161.157L76.3607 156.861C76.3607 156.861 83.3417 151.073 84.1173 149.402C84.893 147.732 88.1747 133.71 88.1747 133.71L89.2487 134.128L88.7713 140.989L89.7857 141.467C89.7857 141.467 93.0673 123.924 93.664 123.387C94.0817 123.029 95.633 123.387 96.7667 123.686Z" fill="#D5BC84"></path> <path fill-rule="evenodd" clip-rule="evenodd" d="M134.595 316.409L128.39 318.319L89.6664 238.186L93.4254 237.649L134.595 316.409Z" fill="#D5BC84"></path> <path fill-rule="evenodd" clip-rule="evenodd" d="M34.4747 132.696C35.2504 128.997 36.2051 125.298 37.2194 121.718L67.4704 197.315L63.8307 199.642L34.4747 132.696Z" fill="#D5BC84"></path> <path fill-rule="evenodd" clip-rule="evenodd" d="M123.02 319.99L95.991 328.343C102.196 333.773 108.76 338.725 115.741 343.081H115.681C102.495 334.847 90.621 324.465 80.239 312.472L30.3577 179.594C29.94 165.453 30.9543 151.432 33.4603 137.828C46.4677 168.795 68.783 221.779 68.783 221.779C68.783 221.779 70.573 221.063 70.394 219.213C70.215 217.304 66.993 209.786 66.993 209.786L70.394 207.339L123.02 319.99Z" fill="#D5BC84"></path> <path fill-rule="evenodd" clip-rule="evenodd" d="M182.627 301.553C181.016 298.39 175.646 287.949 173.856 284.906L183.94 301.135L182.627 301.553ZM397.129 235.203C397.785 229.237 399.635 216.11 404.229 206.563C404.229 206.563 399.277 222.435 400.291 234.249L397.129 235.203ZM392.355 236.695C391.043 234.189 386.866 229.416 382.451 226.611C382.451 226.611 390.565 231.325 394.921 235.919L392.355 236.695ZM256.912 278.581C255.48 275.896 252.258 270.287 248.201 266.588C248.201 266.588 255.182 271.6 259.179 277.925L256.912 278.581ZM259.299 277.805L262.401 276.851C257.688 269.213 247.783 261.099 247.783 261.099C253.153 265.693 257.628 274.345 259.299 277.805ZM265.862 275.777L185.073 300.777L186.386 300.359L185.133 289.261L184.536 300.896L171.708 304.834L173.021 304.417C171.648 299.106 170.157 292.304 170.276 288.903C170.276 288.903 169.262 296.302 171.052 305.013L125.645 319.035L127.376 318.498L126.123 307.4L125.526 319.035L104.762 325.479L107.805 324.524C107.626 324.047 107.387 323.391 107.029 322.615C108.044 313.486 111.564 307.519 111.564 307.519C108.64 310.682 106.85 315.515 105.776 319.572C103.986 315.574 101.242 310.145 97.6617 305.431C97.6617 305.431 103.151 316.052 105.12 322.317C104.822 323.689 104.643 324.823 104.523 325.598L96.0507 328.224C107.507 337.77 126.242 351.076 152.197 358.892C200.825 373.57 244.143 359.847 274.156 349.823C322.486 333.773 313.774 323.808 356.376 309.071C429.826 283.593 474.576 306.744 520.4 271.481C537.465 258.354 545.699 244.094 547.966 239.977C560.138 217.721 560.496 195.943 559.78 184.785C553.336 186.814 546.892 188.842 540.448 190.871C539.971 188.484 538.957 184.546 536.809 179.833C537.883 175.775 539.255 174.403 539.255 174.403C538.002 175.656 537.047 177.148 536.331 178.759C535.615 177.267 534.78 175.656 533.825 174.045C533.825 174.045 534.959 176.312 536.033 179.475C535.436 180.966 534.959 182.577 534.72 184.188C534.124 187.888 534.124 191.169 534.72 192.721L497.429 204.236C496.355 200.477 492.775 187.53 493.013 182.398C493.013 182.398 491.462 193.616 495.579 204.833L495.042 205.012C490.507 196.778 484.421 191.587 484.421 191.587C486.868 194.153 490.507 200.656 493.013 205.609L443.848 220.824C442.535 217.96 441.998 213.723 441.998 213.723C440.805 218.079 441.581 220.346 442.177 221.361L281.316 271.123C279.526 266.946 277.676 259.786 277.676 259.786C278.034 263.366 279.168 268.617 279.884 271.6L267.771 275.359C267.771 266.29 260.85 260.442 260.85 260.442C260.85 260.442 264.43 264.201 265.325 269.154C265.623 271.779 265.802 274.166 265.862 275.777ZM123.617 319.811C122.006 316.648 116.636 306.207 114.846 303.164L124.929 319.393L123.617 319.811ZM435.137 223.449C434.6 219.511 432.273 207.399 422.845 197.971C422.845 197.971 435.495 209.189 437.762 222.614L435.137 223.449ZM536.51 181.026C537.584 184.487 538.42 188.604 537.763 191.766L536.868 192.064C536.152 190.811 535.496 188.544 535.973 184.427C536.093 183.114 536.272 182.04 536.51 181.026ZM169.262 305.67L167.352 306.266C163.235 295.049 164.787 283.832 164.787 283.832C164.608 288.963 168.188 301.911 169.262 305.67ZM164.787 307.042C162.221 302.09 158.641 295.586 156.195 293.02C156.195 293.02 162.281 298.211 166.815 306.445L164.787 307.042Z" fill="url(#paint0_linear)"></path> <path fill-rule="evenodd" clip-rule="evenodd" d="M203.749 298.211C206.673 297.137 209.477 297.555 210.133 299.226C210.79 300.896 208.94 303.164 206.076 304.238C203.212 305.312 200.348 304.894 199.692 303.223C199.035 301.553 200.825 299.285 203.749 298.211ZM188.534 299.703L95.991 328.343C109.595 340.336 125.108 349.823 142.292 355.909C142.591 355.79 142.889 355.67 143.247 355.551C158.462 349.763 171.41 341.887 180.419 333.713C183.999 334.429 188.952 333.832 193.964 331.923C202.675 328.582 208.463 322.436 206.852 318.2C205.539 314.799 199.99 313.665 193.427 314.978C194.262 311.756 194.202 308.653 193.128 305.789C192.233 303.462 190.682 301.433 188.534 299.703ZM148.02 357.759C154.464 351.553 163.713 345.706 174.691 341.529C199.035 332.281 222.484 334.548 227.079 346.72C228.451 350.3 228.033 354.358 226.124 358.475C197.484 365.814 171.29 364.859 148.02 357.759Z" fill="#CBDAED"></path> <path fill-rule="evenodd" clip-rule="evenodd" d="M40.0833 270.168C39.5463 269.213 39.1883 268.08 39.0093 266.707C37.816 255.967 54.463 244.273 59.7733 244.153C65.0836 244.034 72.0049 256.982 72.0049 256.982C72.0049 256.982 63.8306 260.741 62.3986 260.323C60.9666 259.905 60.0716 259.726 60.0716 259.726C60.0716 259.726 56.79 253.879 47.5416 256.683C40.9186 258.652 40.0236 266.17 40.0833 270.168Z" fill="#C9B180"></path> <path fill-rule="evenodd" clip-rule="evenodd" d="M48.6754 92.4207L72.6017 144.748L70.215 145.822C62.518 128.996 54.8807 112.23 47.1837 95.404C47.661 94.4494 48.198 93.435 48.6754 92.4207ZM115.383 78.041L115.144 77.4444L112.638 78.2797L114.786 84.664L116.158 84.1867C109.118 91.9434 99.6307 102.683 99.1534 104.414C98.497 106.86 88.1747 148.269 86.9814 153.042V153.102C85.967 153.997 82.5064 157.04 78.0911 160.918L77.375 161.574C100.406 211.993 123.438 262.351 146.469 312.77L149.035 311.994L80.6567 162.231L84.893 158.472C86.3847 157.159 87.8764 155.846 89.368 154.534L89.4874 154.116L89.5471 153.937C90.2631 151.013 101.242 107.158 101.779 105.01C102.316 102.982 125.228 78.22 125.586 77.8024C125.586 77.8024 126.003 77.3847 126.063 77.325L124.154 75.535L123.676 76.0124C123.557 76.1317 120.812 79.115 117.173 83.1127L115.383 78.041Z" fill="#F1E2BB"></path> <path fill-rule="evenodd" clip-rule="evenodd" d="M299.454 313.008C326.901 302.567 348.381 291.827 347.367 289.142C346.352 286.457 323.142 292.722 295.695 303.223C268.249 313.665 246.769 324.405 247.783 327.09C248.797 329.775 272.008 323.45 299.454 313.008Z" fill="#CBDAED"></path> <path fill-rule="evenodd" clip-rule="evenodd" d="M356.436 292.961C360.255 291.529 363 289.262 362.463 287.949C361.926 286.636 358.405 286.756 354.586 288.247C350.768 289.679 348.023 291.947 348.56 293.259C349.097 294.572 352.617 294.453 356.436 292.961Z" fill="#CBDAED"></path> <path fill-rule="evenodd" clip-rule="evenodd" d="M254.287 317.841C256.793 316.887 258.583 315.574 258.344 314.918C258.105 314.261 255.838 314.44 253.392 315.395C250.886 316.35 249.096 317.662 249.334 318.319C249.573 318.975 251.84 318.736 254.287 317.841Z" fill="#CBDAED"></path> <path d="M489.906 250.957C517.714 240.363 539.571 229.978 538.727 227.761C537.882 225.544 514.655 232.334 486.847 242.927C459.04 253.521 437.182 263.906 438.027 266.123C438.871 268.34 462.099 261.55 489.906 250.957Z" fill="#CBDAED"></path> <path fill-rule="evenodd" clip-rule="evenodd" d="M459.361 255.908C463.359 254.356 466.282 252.208 465.865 251.075C465.447 249.941 461.807 250.299 457.81 251.791C453.812 253.342 450.888 255.49 451.306 256.624C451.724 257.757 455.304 257.459 459.361 255.908Z" fill="#CBDAED"></path> <path fill-rule="evenodd" clip-rule="evenodd" d="M534.601 240.275C537.644 239.141 539.851 237.53 539.553 236.695C539.255 235.86 536.51 236.158 533.527 237.292C530.484 238.425 528.276 240.036 528.574 240.872C528.873 241.707 531.558 241.468 534.601 240.275Z" fill="#CBDAED"></path> <path fill-rule="evenodd" clip-rule="evenodd" d="M471.533 266.409C476.306 264.559 479.707 261.874 479.17 260.323C478.574 258.771 474.218 259.01 469.445 260.86C464.671 262.709 461.27 265.394 461.807 266.946C462.404 268.497 466.76 268.258 471.533 266.409Z" fill="#CBDAED"></path> <path d="M358.851 260.563C368.17 254.225 370.586 241.532 364.248 232.213C357.91 222.894 345.217 220.477 335.898 226.815C326.579 233.153 324.163 245.846 330.501 255.165C336.839 264.484 349.532 266.901 358.851 260.563Z" fill="#353747"></path> <path fill-rule="evenodd" clip-rule="evenodd" d="M337.522 215.394L354.944 208.771C356.197 208.294 356.854 206.862 356.376 205.549C355.899 204.296 354.467 203.64 353.154 204.117L335.732 210.74C334.479 211.217 333.822 212.649 334.3 213.962C334.777 215.215 336.209 215.871 337.522 215.394Z" fill="#353747"></path> <path fill-rule="evenodd" clip-rule="evenodd" d="M365.267 20.8208C365.267 20.8208 363.298 8.46981 353.572 3.15947C343.846 -2.15086 330.421 0.176137 324.276 3.27881C318.13 6.38148 312.402 19.6275 315.624 25.8328C318.846 32.0382 322.486 31.7398 322.486 31.7398C329.944 27.7422 333.345 19.2098 333.345 19.2098L341.639 20.3435C351.006 18.5535 365.267 20.8208 365.267 20.8208Z" fill="#4F4B6E"></path> <path fill-rule="evenodd" clip-rule="evenodd" d="M361.567 11.1545C359.777 8.1712 357.212 5.1282 353.512 3.15919C351.961 2.32386 350.35 1.66752 348.62 1.19019C348.5 1.36919 348.441 1.54819 348.381 1.72719C348.321 1.84653 348.321 1.90619 348.262 2.02553C346.591 1.48853 344.98 1.90619 344.443 3.03986C343.846 4.35253 344.861 6.0232 346.651 6.9182C347.426 7.2762 348.202 7.39554 348.918 7.39554C349.873 9.06621 351.543 10.4982 353.632 11.3932C356.555 12.4075 359.479 12.2882 361.567 11.1545ZM341.877 2.50285C342.653 2.44319 343.309 3.03986 343.369 3.81553C343.429 4.5912 342.832 5.24753 342.056 5.3072C341.281 5.36687 340.624 4.77019 340.565 3.99452C340.565 3.21885 341.161 2.56252 341.877 2.50285Z" fill="#4F4B6E"></path> <path fill-rule="evenodd" clip-rule="evenodd" d="M357.271 5.78473C356.197 4.7704 354.944 3.87541 353.572 3.15941C349.992 1.19042 345.875 0.295428 341.818 0.0567627C341.758 0.295428 341.698 0.593762 341.698 0.832427C341.698 0.95176 341.698 1.01143 341.698 1.13076C339.968 1.13076 338.536 1.96609 338.357 3.21908C338.178 4.59141 339.61 5.96373 341.639 6.26206C342.474 6.38139 343.25 6.26207 343.906 6.0234C345.338 7.33606 347.307 8.23105 349.574 8.46972C352.677 8.70838 355.601 7.63439 357.271 5.78473ZM334.598 1.42909C335.314 1.13076 336.149 1.48875 336.388 2.26442C336.686 2.98041 336.328 3.81574 335.553 4.05441C334.837 4.35274 334.001 3.99475 333.763 3.21908C333.524 2.50309 333.882 1.66776 334.598 1.42909Z" fill="#585079"></path> <path fill-rule="evenodd" clip-rule="evenodd" d="M297.724 106.383C304.586 105.13 321.173 103.161 340.087 107.875C340.565 108.292 340.982 108.71 341.4 109.008C345.278 111.872 353.154 114.14 360.493 115.691C360.493 115.691 362.462 124.462 357.45 131.622C353.274 137.648 339.729 160.978 334.896 170.584C332.808 167.303 328.93 161.217 324.097 154.236C326.066 148.508 330.362 137.231 335.016 131.145L313.476 139.319C308.166 132.219 302.617 125.297 297.545 120.226C297.664 120.226 296.113 113.782 297.724 106.383Z" fill="url(#paint1_linear)"></path> <path fill-rule="evenodd" clip-rule="evenodd" d="M347.784 76.4303C343.787 66.8837 336.865 57.874 336.865 57.874L335.493 59.843C340.744 73.8647 346.949 90.989 348.083 92.242C349.753 94.211 360.374 97.433 368.369 101.729C370.04 102.624 372.188 103.4 374.515 104.056C374.157 103.877 373.859 103.638 373.501 103.459C365.923 98.2684 360.911 96.4187 360.911 96.4187C360.911 96.4187 351.782 85.977 347.784 76.4303Z" fill="#D59798"></path> <path fill-rule="evenodd" clip-rule="evenodd" d="M382.749 106.741L389.253 104.235C389.253 104.235 389.611 99.5211 391.401 98.8051C393.191 98.0891 408.823 92.1821 408.823 92.1821L411.27 85.5591C411.27 85.5591 411.747 83.8288 413.597 84.6641C415.506 85.4995 417.773 86.5138 417.773 86.5138C417.773 86.5138 418.728 86.8121 418.251 87.8264C417.773 88.8408 414.73 95.6428 414.73 95.6428C414.73 95.6428 417.893 107.278 419.742 110.738C421.592 114.199 422.785 114.199 422.785 114.199C422.785 114.199 423.084 115.154 422.427 115.392C421.831 115.631 419.623 114.796 418.31 112.946C416.998 111.156 411.27 98.2084 411.27 98.2084L408.644 101.49C408.465 101.192 408.406 101.072 408.406 101.072C408.406 101.072 402.618 101.848 400.768 102.743C398.919 103.638 394.861 107.158 394.861 107.158C394.861 107.158 389.014 107.815 382.749 106.741Z" fill="url(#paint2_linear)"></path> <path fill-rule="evenodd" clip-rule="evenodd" d="M405.601 117.839L397.904 120.286L384.241 125.477L386.389 131.145L408.823 122.613C408.823 121.718 410.076 119.987 410.076 119.987L405.601 117.839Z" fill="url(#paint3_linear)"></path> <path fill-rule="evenodd" clip-rule="evenodd" d="M452.559 198.568C454.886 197.673 456.02 195.107 455.125 192.78C454.23 190.453 451.664 189.32 449.337 190.215C447.01 191.11 445.876 193.675 446.771 196.002C447.666 198.329 450.232 199.463 452.559 198.568ZM451.604 196.062C450.65 196.42 449.635 195.943 449.277 195.048C448.919 194.093 449.397 193.079 450.292 192.721C451.246 192.363 452.261 192.84 452.619 193.735C452.977 194.69 452.559 195.704 451.604 196.062Z" fill="#403E58"></path> <path d="M278.058 261.585C283.558 258.392 285.428 251.344 282.235 245.844C279.042 240.344 271.994 238.474 266.494 241.668C260.994 244.861 259.124 251.908 262.317 257.408C265.511 262.908 272.558 264.778 278.058 261.585Z" fill="#353747"></path> <path d="M276.065 192.422L328.81 256.265L264.967 309.01L212.222 245.167L276.065 192.422ZM276.483 182.338C275.23 182.338 273.977 182.756 272.962 183.591L204.107 240.453C201.78 242.422 201.422 245.883 203.391 248.21L260.253 317.065C261.327 318.378 262.938 319.094 264.49 319.094C265.743 319.094 266.996 318.676 268.01 317.841L336.865 260.979C339.192 259.01 339.55 255.549 337.581 253.222L280.719 184.367C279.645 183.054 278.094 182.338 276.483 182.338Z" fill="url(#paint4_linear)"></path> <path d="M275.349 200.059L321.173 255.549L265.683 301.373L219.859 245.883L275.349 200.059ZM275.767 189.976C274.514 189.976 273.261 190.393 272.246 191.229L211.804 241.17C209.477 243.139 209.119 246.599 211.088 248.926L261.029 309.369C262.103 310.681 263.714 311.397 265.265 311.397C266.518 311.397 267.771 310.98 268.786 310.144L329.228 260.203C331.555 258.234 331.913 254.774 329.944 252.447L280.003 192.004C278.929 190.692 277.378 189.976 275.767 189.976Z" fill="#353747"></path> <path d="M421.532 143.734L501.963 163.365L482.333 243.795L401.902 224.225L421.532 143.734ZM419.205 134.307C416.699 134.307 414.492 135.978 413.835 138.543L392.654 225.299C391.938 228.282 393.728 231.265 396.711 231.981L483.466 253.163C483.884 253.282 484.361 253.342 484.779 253.342C487.285 253.342 489.493 251.671 490.149 249.106L511.331 162.35C512.047 159.367 510.257 156.384 507.273 155.668L420.518 134.486C420.041 134.367 419.623 134.307 419.205 134.307Z" fill="url(#paint5_linear)"></path> <path d="M425.53 150.297L495.4 167.422L478.335 237.291L408.465 220.227L425.53 150.297ZM423.143 140.93C420.637 140.93 418.43 142.6 417.773 145.166L399.217 221.241C398.501 224.224 400.291 227.208 403.274 227.924L479.409 246.54C479.827 246.659 480.304 246.719 480.722 246.719C483.228 246.719 485.435 245.048 486.092 242.482L504.708 166.348C505.424 163.364 503.634 160.381 500.65 159.665L424.516 141.049C424.038 140.93 423.621 140.93 423.143 140.93Z" fill="#353747"></path> <path fill-rule="evenodd" clip-rule="evenodd" d="M446.533 194.093C446.652 192.423 447.726 190.871 449.397 190.215C449.755 190.096 450.113 189.976 450.471 189.976C432.69 169.033 414.909 148.03 397.129 127.087L386.389 131.204L384.241 125.536L397.904 120.345L396.353 120.822C396.353 120.822 388.835 119.51 382.152 118.615C381.973 121.001 381.317 125.715 378.214 126.849C376.603 127.445 366.639 131.264 354.825 135.739C345.636 139.259 335.374 143.138 327.14 146.3L320.397 148.866L325.051 155.548L325.529 154.952L348.56 146.181L378.274 134.844C378.274 134.844 383.942 132.457 385.613 136.873L351.901 223.807C355.481 224.643 358.823 226.373 361.508 228.939L396.651 150.536C396.651 150.536 397.725 148.329 399.456 149.761C414.73 162.291 431.795 180.251 446.533 194.093Z" fill="white"></path> <path fill-rule="evenodd" clip-rule="evenodd" d="M371.353 129.414L354.825 135.679C345.636 139.2 335.374 143.078 327.14 146.24L320.397 148.806L325.051 155.489L325.529 154.892L348.56 146.121L368.369 138.603L371.353 129.414Z" fill="url(#paint6_linear)"></path> <path fill-rule="evenodd" clip-rule="evenodd" d="M326.961 239.977L277.616 246.122L301.304 187.41C301.304 187.41 301.901 186.396 303.034 186.098L296.531 173.687L266.459 251.85L268.308 256.743L329.646 249.046C329.049 246.659 328.154 243.557 326.961 239.977Z" fill="white"></path> <path fill-rule="evenodd" clip-rule="evenodd" d="M315.147 187.529L309.538 176.491C304.586 172.493 297.903 167.78 290.803 162.827L316.877 212.47C314.61 202.506 314.729 193.138 315.147 187.529Z" fill="white"></path> <path fill-rule="evenodd" clip-rule="evenodd" d="M337.223 197.135C340.505 198.15 345.159 199.462 346.651 198.985C349.037 198.15 352.14 196.241 353.691 197.732C355.183 199.224 356.675 202.863 356.018 203.341C355.541 203.639 345.04 207.577 338.954 209.904C338.297 205.608 337.701 201.312 337.223 197.135Z" fill="#C9B180"></path> <path fill-rule="evenodd" clip-rule="evenodd" d="M337.223 197.135C338.655 197.613 340.386 198.09 341.997 198.508C341.877 198.627 341.758 198.806 341.639 198.926C341.758 199.045 341.877 199.224 341.997 199.403C342.235 200.059 341.937 200.835 341.221 201.074C340.565 201.312 339.789 201.014 339.55 200.298C339.55 200.238 339.491 200.119 339.491 200.059C338.834 200.179 338.178 200.119 337.522 199.94C337.462 199.045 337.343 198.09 337.223 197.135Z" fill="#D5BC84"></path> <path fill-rule="evenodd" clip-rule="evenodd" d="M355.422 200.358C356.078 201.73 356.376 203.043 356.018 203.281C355.541 203.58 345.04 207.518 338.954 209.845C338.775 208.83 338.655 207.816 338.476 206.802L355.422 200.358Z" fill="white"></path> <path fill-rule="evenodd" clip-rule="evenodd" d="M322.426 31.6801C329.467 27.9211 332.868 20.1645 333.285 19.2098L331.734 18.5535C331.734 18.5535 323.798 26.9664 318.011 29.2934C320.397 31.7994 322.426 31.6801 322.426 31.6801Z" fill="#353747"></path> <path fill-rule="evenodd" clip-rule="evenodd" d="M318.011 29.2936C323.858 26.9666 331.734 18.5536 331.734 18.5536L333.285 19.21C333.285 19.1503 333.345 19.0906 333.345 19.0906L341.639 20.2243C343.966 19.8066 346.531 19.6276 349.157 19.568C344.383 17.957 336.388 15.2123 335.374 14.8543C333.942 14.377 327.617 17.062 325.171 17.599C323.679 17.957 318.727 17.6586 315.147 17.42C314.49 20.5226 314.49 23.506 315.624 25.654C316.4 27.3246 317.175 28.4583 318.011 29.2936Z" fill="url(#paint7_linear)"></path> <path fill-rule="evenodd" clip-rule="evenodd" d="M325.409 29.711C327.438 31.68 335.911 39.7947 341.758 44.5083L344.085 50.654L347.307 49.4607L344.682 42.4797L345.756 19.7467C345.278 19.8064 344.801 19.8064 344.383 19.866L343.25 42.241L327.617 27.742C326.841 28.458 326.125 29.1144 325.409 29.711Z" fill="#D5BC84"></path> <path fill-rule="evenodd" clip-rule="evenodd" d="M322.545 82.0987C322.545 82.0987 332.987 101.252 340.087 107.934C340.565 108.352 340.982 108.77 341.4 109.068C345.278 111.932 353.154 114.199 360.493 115.751C366.579 117.004 372.367 117.779 375.291 117.899C377.081 118.018 379.527 118.257 382.093 118.615C388.716 119.51 396.293 120.822 396.293 120.822L397.845 120.345L405.542 117.899L410.017 120.047C410.017 120.047 408.764 121.777 408.764 122.672C408.764 122.791 408.764 122.851 408.823 122.911C409.122 123.686 410.434 124.283 410.434 124.283C410.434 124.283 413.955 118.316 414.611 115.87C415.208 113.662 409.957 103.758 408.764 101.55C408.585 101.252 408.525 101.132 408.525 101.132C408.525 101.132 402.737 101.908 400.888 102.803C399.038 103.698 394.981 107.218 394.981 107.218C394.981 107.218 388.954 107.815 382.689 106.801C379.825 106.323 376.902 105.488 374.455 104.116C372.128 103.459 369.98 102.684 368.31 101.789C360.255 97.433 349.694 94.2707 348.023 92.3017C346.949 91.0487 340.744 73.9243 335.433 59.9027C332.45 51.967 329.765 45.0456 328.452 42.5396C324.872 35.6183 316.877 36.0956 316.877 36.0956C301.543 40.9883 322.545 82.0987 322.545 82.0987Z" fill="url(#paint8_linear)"></path> <path fill-rule="evenodd" clip-rule="evenodd" d="M405.601 117.839L410.076 119.987C410.076 119.987 408.823 121.717 408.823 122.612C408.823 122.731 408.823 122.791 408.883 122.851C409.181 123.626 410.494 124.223 410.494 124.223C410.494 124.223 414.014 118.256 414.671 115.81C415.267 113.602 410.017 103.698 408.823 101.49C408.644 101.192 408.585 101.072 408.585 101.072C408.585 101.072 402.797 101.848 400.947 102.743C400.947 102.743 406.556 106.204 405.601 117.839Z" fill="#DFB0A0"></path> <path fill-rule="evenodd" clip-rule="evenodd" d="M316.937 36.0355C303.094 40.5105 318.667 74.1625 321.949 80.9048C322.724 79.8308 324.455 78.2198 328.273 76.7878C333.285 74.8785 339.133 75.7138 341.579 76.1911C339.61 71.0001 337.462 65.2125 335.493 59.8425C332.51 51.9068 329.825 44.9855 328.512 42.4795C324.992 35.5581 316.937 36.0355 316.937 36.0355Z" fill="#403E58"></path> <path fill-rule="evenodd" clip-rule="evenodd" d="M350.35 81.6215C349.395 79.8911 348.441 78.1011 347.725 76.3708C343.727 66.8241 336.806 57.8145 336.806 57.8145L335.433 59.7834C337.462 65.1534 339.61 70.9411 341.519 76.1321C342.414 78.5785 343.309 80.9055 344.085 82.9938C346.531 82.2778 348.62 81.8601 350.35 81.6215Z" fill="#353747"></path> <path fill-rule="evenodd" clip-rule="evenodd" d="M313.595 139.319C308.285 132.219 302.676 125.298 297.664 120.226C297.664 120.226 296.053 113.782 297.664 106.383C297.664 106.383 288.655 107.219 277.974 106.025C281.435 96.3594 291.22 75.655 315.147 64.736C312.82 57.934 310.91 50.4757 311.328 44.7477C300.946 49.0437 268.249 65.2134 257.926 100.655C255.659 99.5217 253.571 98.2091 251.721 96.6577C247.186 112.529 249.036 125.357 251.005 131.622C252.735 137.052 270.516 148.985 287.282 160.441C295.457 149.761 303.75 146.718 315.684 142.183C315.027 141.229 314.311 140.274 313.595 139.319Z" fill="url(#paint9_linear)"></path> <path fill-rule="evenodd" clip-rule="evenodd" d="M297.664 120.225C302.676 125.297 308.225 132.159 313.595 139.319L314.968 138.782L321.829 105.07C310.97 104.414 302.259 105.547 297.724 106.323C296.113 113.781 297.664 120.225 297.664 120.225Z" fill="url(#paint10_linear)"></path> <path fill-rule="evenodd" clip-rule="evenodd" d="M304.645 127.923C307.629 131.443 310.612 135.321 313.595 139.319L314.968 138.782L317.176 127.923H304.645Z" fill="#272934"></path> <path fill-rule="evenodd" clip-rule="evenodd" d="M357.033 278.521L374.455 271.898C375.708 271.421 376.365 269.989 375.887 268.676C375.41 267.423 373.978 266.767 372.665 267.244L355.243 273.867C353.99 274.344 353.333 275.776 353.811 277.089C354.288 278.402 355.78 279.058 357.033 278.521Z" fill="#353747"></path> <path fill-rule="evenodd" clip-rule="evenodd" d="M343.846 28.518L344.264 19.926C343.369 20.0454 342.474 20.1647 341.639 20.284L335.016 19.389C339.789 21.8354 342.772 28.339 342.772 28.339L343.846 28.518Z" fill="#C28449"></path> <path fill-rule="evenodd" clip-rule="evenodd" d="M325.409 29.7111C324.514 30.4271 323.5 31.0835 322.426 31.6801L318.965 34.4248C329.288 34.7231 337.104 47.5515 340.207 53.5778C341.221 52.5038 342.474 51.2508 343.906 50.1172L341.758 44.5085C335.911 39.7948 327.438 31.6801 325.409 29.7111ZM345.636 19.8065L344.562 42.5395L346.77 48.3272L355.899 49.3415C355.899 49.3415 362.403 36.5728 361.329 22.4318L360.971 20.2838C357.868 19.9855 353.512 19.6275 349.097 19.6871C347.963 19.6871 346.77 19.6871 345.636 19.8065C345.278 19.8065 344.861 19.8661 344.503 19.9258C344.92 19.8661 345.278 19.8065 345.636 19.8065ZM343.13 42.3008L327.498 27.8018C331.137 24.1025 332.987 19.8661 333.285 19.2098C333.285 19.1501 333.345 19.0905 333.345 19.0905L335.075 19.3291C339.849 21.7755 342.832 28.2791 342.832 28.2791L343.846 28.4581L343.13 42.3008Z" fill="url(#paint11_linear)"></path> <path fill-rule="evenodd" clip-rule="evenodd" d="M345.577 21.7759C349.813 21.6566 357.51 21.5969 361.389 22.9693C361.389 22.7903 361.389 22.5516 361.329 22.3726L360.971 20.2246H360.852H360.792H360.732H360.553H360.494H360.374H360.195H360.076H359.957H359.778H359.599H359.419H359.24H359.062H359.002H358.942H358.644H358.465H358.345C358.047 20.2246 357.749 20.165 357.45 20.165H357.271C357.092 20.165 356.913 20.165 356.734 20.1053H356.555C356.197 20.1053 355.78 20.0456 355.422 20.0456H355.243C355.064 20.0456 354.885 20.0456 354.646 19.986H354.467H354.288H354.109H353.93H353.87H353.691H353.512H353.453H353.274H353.095H352.916H352.737H352.558H352.379H352.2H352.021H351.842H351.782H351.543H351.424H351.305H351.126H351.006H350.947H350.708H350.648H350.529H350.35H350.29H350.231H349.932H349.873H349.813H349.455C348.262 19.986 347.128 20.0456 345.994 20.1053L345.577 21.7759Z" fill="#D59798"></path> <path fill-rule="evenodd" clip-rule="evenodd" d="M361.329 22.3719L365.267 20.7609C365.267 20.7609 363.596 20.5222 360.971 20.2239L361.329 22.3719Z" fill="#262934"></path> <path fill-rule="evenodd" clip-rule="evenodd" d="M334.24 39.4969C335.97 41.0483 337.701 42.5996 339.312 43.9123L338.059 49.6999C338.894 51.1319 339.67 52.4446 340.207 53.5186C340.982 52.6833 341.877 51.7883 342.892 50.8933L340.744 45.2846H340.684H340.624H340.565H340.505H340.445H340.386H340.326H340.266H340.207H340.147H340.087H340.028H339.968H339.908H339.849H339.789H339.729H339.67H339.61H339.55H339.491H339.431H339.371H339.312H339.252H339.192H339.133H339.073H339.013L338.954 45.2249H338.894H338.834H338.775H338.715H338.655H338.596H338.536H338.476H338.417H338.357H338.297H338.238H338.178L338.059 45.1056C336.567 43.7929 334.956 42.3609 333.345 40.9886C329.168 37.1699 325.171 33.4109 323.858 32.0983C323.56 32.3369 323.261 32.5756 322.963 32.7546C326.066 31.9193 330.063 35.7379 334.24 39.4969ZM355.899 49.2823L345.278 44.3896L346.77 48.268L355.899 49.2823ZM342.713 28.1603L342.056 41.2869L343.13 42.3013L343.846 28.5183L342.832 28.3393C342.772 28.3393 342.772 28.2796 342.713 28.1603Z" fill="#D59798"></path> <path fill-rule="evenodd" clip-rule="evenodd" d="M342.772 28.3387L343.787 28.5177L344.204 19.9257C343.846 19.9853 343.429 20.045 343.011 20.045L342.593 28.1597C342.772 28.279 342.772 28.3387 342.772 28.3387Z" fill="#AD7347"></path> <path fill-rule="evenodd" clip-rule="evenodd" d="M332.569 23.7445C334.717 21.7158 336.448 21.2385 337.641 21.2385C337.283 20.8805 336.925 20.5822 336.507 20.2838C335.791 20.1645 334.837 20.2838 333.882 21.1192C332.808 22.0738 332.331 22.9688 332.331 23.9235C332.45 23.8638 332.51 23.8041 332.569 23.7445Z" fill="#F1DCD5"></path> <path fill-rule="evenodd" clip-rule="evenodd" d="M336.925 22.2524C337.462 22.0734 337.999 22.0137 338.476 22.0734C338.775 22.3717 339.073 22.7297 339.312 23.0281C339.073 23.0281 338.775 23.0877 338.536 23.2071C336.985 23.8037 336.209 25.5341 336.806 27.0258C336.925 27.3241 337.104 27.6224 337.283 27.8611C336.328 27.6224 335.493 26.9661 335.135 26.0114C334.598 24.5197 335.374 22.7894 336.925 22.2524Z" fill="#D59798"></path> <path fill-rule="evenodd" clip-rule="evenodd" d="M315.743 142.183C313.476 143.018 310.373 144.271 306.137 145.942C296.411 149.761 290.027 156.98 287.402 160.441C299.574 168.794 311.268 176.969 315.743 182.16C315.743 182.16 311.925 204.594 320.875 224.404C329.825 244.153 331.137 256.325 331.137 256.325C331.137 256.325 327.08 263.187 327.736 265.812C328.333 268.378 330.958 274.345 330.958 274.345C330.958 274.345 342.713 278.521 360.434 273.509C378.155 268.557 379.05 263.784 379.05 263.784C379.05 263.784 378.513 259.547 377.021 259.488C375.529 259.428 369.682 261.218 369.682 261.218C369.682 261.218 351.543 254.774 346.83 249.046C346.83 249.046 333.822 196.122 336.686 173.09C336.686 173.09 336.09 172.136 335.075 170.525C332.987 167.243 329.109 161.157 324.276 154.176C321.591 150.357 318.727 146.3 315.743 142.183Z" fill="url(#paint12_linear)"></path> <path fill-rule="evenodd" clip-rule="evenodd" d="M346.77 249.046C346.77 249.046 341.281 257.996 336.985 259.487C332.689 260.979 331.018 256.564 331.018 256.564C330.362 257.757 327.199 263.485 327.736 265.812C328.333 268.378 330.958 274.344 330.958 274.344C330.958 274.344 342.713 278.521 360.434 273.509C378.155 268.557 379.05 263.783 379.05 263.783C379.05 263.783 378.513 259.547 377.021 259.487C375.529 259.428 369.682 261.218 369.682 261.218C369.682 261.218 351.484 254.774 346.77 249.046Z" fill="#C9B180"></path> <path fill-rule="evenodd" clip-rule="evenodd" d="M349.694 262.351C350.35 262.113 351.126 262.411 351.364 263.127C351.603 263.783 351.305 264.559 350.589 264.798C349.932 265.036 349.157 264.738 348.918 264.022C348.679 263.366 349.037 262.59 349.694 262.351ZM346.77 249.046C346.77 249.046 345.636 250.955 343.966 253.163C343.846 254.177 343.966 255.191 344.324 256.146C345.696 259.786 350.171 261.456 354.228 259.845C354.288 259.845 354.348 259.786 354.407 259.786C354.825 260.919 356.138 261.456 357.271 261.039C358.405 260.621 359.002 259.308 358.524 258.175C358.405 257.817 358.166 257.518 357.868 257.28C358.047 257.041 358.226 256.802 358.405 256.564C353.691 254.356 348.858 251.611 346.77 249.046ZM372.844 260.323C371.174 260.74 369.622 261.218 369.622 261.218C369.622 261.218 367.474 260.442 364.491 259.249C364.372 259.965 364.431 260.74 364.67 261.516C364.789 261.814 364.909 262.053 365.028 262.292C364.193 262.709 363.775 263.724 364.073 264.619C364.431 265.573 365.505 266.051 366.46 265.693C367.116 265.454 367.534 264.857 367.653 264.141C368.429 264.32 369.324 264.261 370.1 263.962C371.711 263.306 372.725 261.874 372.844 260.323Z" fill="#D5BC84"></path> <path fill-rule="evenodd" clip-rule="evenodd" d="M330.183 272.614C330.6 273.628 330.899 274.285 330.899 274.285C330.899 274.285 342.653 278.461 360.374 273.449C378.095 268.497 378.99 263.724 378.99 263.724C378.99 263.724 378.871 262.769 378.572 261.755C376.902 263.664 372.307 267.542 360.314 271.48C346.412 276.075 334.121 273.628 330.183 272.614Z" fill="white"></path> <path fill-rule="evenodd" clip-rule="evenodd" d="M346.233 246.957C340.147 250.299 333.405 250.716 330.004 250.657C330.839 254.356 331.078 256.325 331.078 256.325C331.078 256.325 331.018 256.385 330.958 256.564C330.958 256.564 332.629 260.979 336.925 259.487C341.221 257.996 346.71 249.046 346.71 249.046C346.71 249.046 346.591 248.33 346.233 246.957Z" fill="#403E58"></path> <path fill-rule="evenodd" clip-rule="evenodd" d="M311.388 44.7477C311.03 44.867 310.672 45.046 310.314 45.225C308.583 50.237 306.734 58.3517 307.271 69.032C309.717 67.4807 312.402 66.0487 315.206 64.736C312.879 57.934 310.97 50.416 311.388 44.7477Z" fill="#353747"></path> <path fill-rule="evenodd" clip-rule="evenodd" d="M290.683 83.6501C283.702 92.1228 279.943 100.715 278.034 106.025C288.714 107.219 297.724 106.383 297.724 106.383C298.679 101.908 300.886 97.0155 305.302 93.0178C300.111 90.3925 295.218 87.1705 290.683 83.6501Z" fill="#D5BC84"></path> <path fill-rule="evenodd" clip-rule="evenodd" d="M257.986 100.654C261.626 88.1244 268.129 77.9811 275.409 69.9261C273.38 67.8378 271.471 65.8091 269.8 63.8998C267.652 66.2268 265.683 68.7925 263.833 71.4774C257.807 80.3081 254.048 88.8404 251.84 96.6568C253.63 98.2081 255.719 99.5208 257.986 100.654Z" fill="#D5BC84"></path> <path fill-rule="evenodd" clip-rule="evenodd" d="M257.986 100.654C258.762 97.9098 259.716 95.3441 260.731 92.8381C262.998 82.8738 267.115 73.2078 271.113 65.3914C270.635 64.8544 270.218 64.3771 269.8 63.8998C267.652 66.2268 265.683 68.7925 263.833 71.4774C257.807 80.3081 254.048 88.8404 251.84 96.6568C253.63 98.2081 255.719 99.5208 257.986 100.654Z" fill="#C9B180"></path> <path fill-rule="evenodd" clip-rule="evenodd" d="M275.349 69.9265C288.655 55.2485 304.645 47.5515 311.388 44.7471C311.686 40.5108 313.297 37.2291 316.996 36.0358C316.996 36.0358 325.051 35.6181 328.572 42.4798C329.884 44.9858 332.569 51.9071 335.553 59.8428L336.925 57.8738C336.925 57.8738 338.059 55.9645 340.266 53.5778C339.729 52.5038 338.954 51.1315 338.118 49.7591C336.686 47.3128 334.777 44.6278 332.569 42.1218C328.93 38.0048 324.276 34.6038 319.025 34.4248L316.996 36.0358C316.996 36.0358 288.774 43.0168 269.8 63.9001C271.411 65.7498 273.32 67.8381 275.349 69.9265ZM290.683 83.6498C296.471 76.6091 304.407 69.6878 315.206 64.6758C317.712 71.8955 320.696 78.3395 321.949 80.8455C322.307 81.6212 322.545 82.0388 322.545 82.0388C318.011 85.8575 312.521 88.3038 312.521 88.3038C309.598 89.6165 307.211 91.2275 305.242 93.0175C300.111 90.3921 295.218 87.1701 290.683 83.6498Z" fill="white"></path> <path fill-rule="evenodd" clip-rule="evenodd" d="M274.454 59.1268C272.843 60.6185 271.232 62.2295 269.74 63.9002C270.158 64.3775 270.635 64.9145 271.053 65.3918C272.246 63.1245 273.38 61.0362 274.454 59.1268Z" fill="#DFE8F5"></path> <path fill-rule="evenodd" clip-rule="evenodd" d="M310.254 45.1651C310.612 44.9861 311.03 44.8668 311.328 44.6878C311.447 42.6591 311.925 40.8691 312.76 39.3774C312.76 39.4371 311.567 41.4061 310.254 45.1651ZM307.271 68.9721C307.569 74.9388 308.643 81.6215 310.91 89.0798C311.447 88.7815 311.984 88.5428 312.521 88.3042C312.521 88.3042 317.951 85.8578 322.545 82.0392C322.545 82.0392 322.307 81.6215 321.949 80.8458L321.889 80.7265L321.829 80.6071V80.5475L321.77 80.4282L321.71 80.3088L321.65 80.2492L321.591 80.1895L321.471 79.8912L321.412 79.7121L321.352 79.5331V79.4735L321.173 79.2348L321.113 79.1751L320.994 78.8768L320.934 78.7575L320.875 78.6978L320.696 78.3398L320.517 77.9221V77.8625L320.278 77.3851C320.099 77.0271 319.98 76.7288 319.801 76.3708C319.562 75.8338 319.323 75.2968 319.085 74.7001V74.6405C317.891 71.8361 316.519 68.3755 315.266 64.7955C312.342 65.9888 309.717 67.4805 307.271 68.9721Z" fill="#DFE8F5"></path> <path fill-rule="evenodd" clip-rule="evenodd" d="M340.386 72.7902C329.586 71.0002 323.082 75.5945 320.576 77.9215C321.173 79.1745 321.65 80.1889 321.949 80.9049C322.724 79.8309 324.455 78.2199 328.273 76.7879C328.989 76.4895 329.705 76.3105 330.421 76.1315C334.837 75.1172 339.431 75.7735 341.579 76.1912C341.221 75.0575 340.803 73.9835 340.386 72.7902Z" fill="white"></path> <path fill-rule="evenodd" clip-rule="evenodd" d="M324.276 85.1413C331.615 78.4587 339.013 77.325 341.997 77.2057C341.877 76.8477 341.758 76.4897 341.579 76.1914C339.073 75.7141 333.226 74.8787 328.273 76.788C324.455 78.22 322.724 79.831 321.949 80.905C322.307 81.6807 322.545 82.0983 322.545 82.0983C322.545 82.0983 323.202 83.2917 324.276 85.1413Z" fill="#D59798"></path> <path fill-rule="evenodd" clip-rule="evenodd" d="M292.593 183.95C294.8 187.768 298.321 189.081 300.409 189.558L301.304 187.41C301.304 187.41 301.901 186.396 303.034 186.098L296.531 173.687L292.593 183.95Z" fill="#CBDAED"></path> <path fill-rule="evenodd" clip-rule="evenodd" d="M323.142 240.454C323.739 242.124 324.395 244.272 324.634 246.54C324.753 247.614 324.753 248.688 324.634 249.762L327.796 249.344L329.168 249.165L329.646 249.105C329.467 248.389 329.288 247.614 329.049 246.778C328.93 246.301 328.81 245.824 328.631 245.287C328.214 243.855 327.736 242.363 327.199 240.692C327.14 240.454 327.02 240.155 326.961 239.917L323.142 240.454Z" fill="#CBDAED"></path> <path fill-rule="evenodd" clip-rule="evenodd" d="M361.508 228.997L364.014 223.448C361.985 221.599 358.703 219.391 354.049 218.317L351.901 223.806C355.481 224.642 358.823 226.432 361.508 228.997Z" fill="#CBDAED"></path> <path fill-rule="evenodd" clip-rule="evenodd" d="M447.726 191.348L414.551 159.725L409.718 155.131L404.647 150.298L397.785 143.794C397.785 143.794 395.279 142.66 393.31 145.464C391.878 147.612 370.995 197.374 361.03 221.241C362.164 221.957 363.178 222.733 363.954 223.449L396.592 150.596C396.592 150.596 397.666 148.388 399.396 149.82C400.47 150.715 401.544 151.55 402.618 152.505C404.348 153.997 406.138 155.548 407.928 157.099C409.539 158.531 411.21 160.083 412.881 161.574C424.337 172.195 436.031 184.188 446.533 194.093C446.592 193.078 447.01 192.064 447.726 191.348Z" fill="url(#paint13_linear)"></path> <path fill-rule="evenodd" clip-rule="evenodd" d="M290.266 204.654L276.423 240.872L274.096 246.898L277.616 246.123L279.168 242.364L293.786 206.146L296.292 199.941L298.917 193.437L300.469 189.559C299.454 189.32 298.082 188.902 296.71 188.067L295.278 191.886L292.772 198.449L290.266 204.654Z" fill="#CBDAED"></path> <path fill-rule="evenodd" clip-rule="evenodd" d="M321.113 247.554L283.822 252.328L267.473 254.416L268.368 256.743L283.344 254.834L305.958 251.97L322.605 249.881L324.693 249.643C324.813 248.807 324.813 247.912 324.753 247.017L322.426 247.316L321.113 247.554Z" fill="#CBDAED"></path> <path fill-rule="evenodd" clip-rule="evenodd" d="M309.538 176.491C305.063 172.851 299.096 168.555 292.712 164.14C292.115 163.722 291.459 163.305 290.862 162.827C297.903 167.78 304.645 172.493 309.538 176.491ZM296.531 173.687L301.125 182.458L315.087 188.484C315.087 188.126 315.147 187.828 315.147 187.529L309.538 176.491C305.063 172.851 299.096 168.555 292.712 164.14C292.115 163.722 291.459 163.305 290.862 162.827L296.531 173.687Z" fill="#DCE5F4"></path> <path fill-rule="evenodd" clip-rule="evenodd" d="M345.815 247.196C344.324 250.06 341.698 253.938 337.999 256.027C337.283 256.444 336.627 256.743 336.03 256.922C333.703 257.638 332.152 256.981 331.137 256.086C331.078 256.027 331.078 256.027 331.018 255.967C331.078 256.206 331.078 256.325 331.078 256.325C331.078 256.325 331.018 256.385 330.958 256.564C330.958 256.564 332.092 259.487 334.777 259.786C335.075 259.845 335.374 259.845 335.672 259.786C336.03 259.726 336.448 259.666 336.925 259.487C341.221 258.055 346.71 249.046 346.71 249.046C346.71 249.046 346.531 248.27 346.233 246.957C346.114 247.017 345.935 247.136 345.815 247.196Z" fill="#353747"></path> <path fill-rule="evenodd" clip-rule="evenodd" d="M336.269 250.239C333.763 250.597 331.555 250.657 330.063 250.657C330.063 250.776 330.123 250.896 330.123 251.015C330.72 253.521 330.958 255.191 331.078 255.907V255.967C331.137 256.027 331.137 256.027 331.197 256.086C332.152 256.981 333.763 257.697 336.09 256.922C336.686 256.743 337.343 256.444 338.059 256.027C338.775 255.609 339.491 255.132 340.147 254.535C339.252 251.492 336.507 250.18 336.507 250.18C336.388 250.239 336.328 250.239 336.269 250.239Z" fill="#353747"></path> <path fill-rule="evenodd" clip-rule="evenodd" d="M361.448 271.182C352.379 273.987 340.028 272.614 333.106 271.421C331.555 271.182 330.302 270.944 329.407 270.705C329.705 271.421 329.944 272.077 330.183 272.614C330.779 272.793 331.555 272.972 332.51 273.151C337.88 274.225 348.5 275.359 360.314 271.54C360.732 271.421 361.09 271.302 361.448 271.182Z" fill="#D5BC84"></path> <path fill-rule="evenodd" clip-rule="evenodd" d="M376.961 259.487C376.961 259.487 375.171 265.573 365.207 269.81C373.62 266.528 377.2 263.485 378.572 261.814C378.274 260.681 377.737 259.487 376.961 259.487Z" fill="#D5BC84"></path> <path fill-rule="evenodd" clip-rule="evenodd" d="M314.729 38.8996C315.863 38.482 316.996 38.4223 318.13 38.661C318.369 37.7063 318.727 36.8113 319.204 36.0953C317.891 35.9163 316.996 35.976 316.996 35.976C315.087 36.5726 313.715 37.766 312.82 39.377C312.581 39.8543 312.342 40.3316 312.163 40.809C312.76 40.0333 313.655 39.3173 314.729 38.8996Z" fill="#514B6F"></path> <path fill-rule="evenodd" clip-rule="evenodd" d="M326.125 74.3417C320.457 59.783 317.116 46.8354 315.326 38.7207C315.087 38.7804 314.908 38.84 314.669 38.8997C313.595 39.3174 312.7 39.9737 312.104 40.8687C311.686 42.0024 311.447 43.315 311.328 44.747C310.91 50.475 312.82 57.9334 315.147 64.7354C316.4 68.375 317.772 71.776 318.965 74.5804V74.64C319.204 75.2367 319.443 75.7737 319.681 76.3107C319.86 76.6687 319.98 77.0267 320.159 77.325L320.397 77.8024V77.862V77.9217C321.65 76.967 323.5 75.535 326.125 74.3417ZM315.863 36.4534C315.803 36.4534 315.743 36.513 315.684 36.513C315.743 36.513 315.803 36.513 315.863 36.4534ZM315.326 36.7517C315.266 36.8114 315.206 36.8114 315.206 36.871C315.206 36.8114 315.266 36.8114 315.326 36.7517ZM315.087 36.871C315.027 36.871 315.027 36.9307 314.968 36.9307L314.908 36.9904C314.968 36.9904 315.027 36.9307 315.087 36.871ZM314.252 37.5274C314.192 37.587 314.192 37.587 314.132 37.6467C314.192 37.587 314.252 37.5274 314.252 37.5274ZM313.715 38.124C313.655 38.1837 313.655 38.1837 313.595 38.2434C313.655 38.1837 313.655 38.124 313.715 38.124ZM313.536 38.303C313.476 38.3627 313.476 38.3627 313.416 38.4224C313.476 38.3627 313.476 38.3627 313.536 38.303Z" fill="#353747"></path> <path fill-rule="evenodd" clip-rule="evenodd" d="M326.125 74.342C323.5 75.4757 321.65 76.9077 320.576 77.922L320.755 78.28L320.934 78.638C320.934 78.6977 320.994 78.7574 320.994 78.817L321.113 79.1154L321.173 79.175L321.292 79.4734C321.292 79.4734 321.292 79.533 321.352 79.533L321.412 79.712L321.471 79.891L321.591 80.1297C321.591 80.1894 321.65 80.2491 321.65 80.2491L321.71 80.3684L321.77 80.4877V80.5474L321.829 80.6667L321.889 80.786C322.605 79.8314 324.097 78.459 327.199 77.0867C326.841 76.2514 326.483 75.2967 326.125 74.342Z" fill="#DFE8F5"></path> <path fill-rule="evenodd" clip-rule="evenodd" d="M348.56 78.2201L342.832 79.4134C343.309 80.6664 343.787 81.9194 344.204 83.0531C346.531 82.3371 348.62 81.9194 350.35 81.6808C349.753 80.4874 349.097 79.3538 348.56 78.2201Z" fill="#DFE8F5"></path> <path fill-rule="evenodd" clip-rule="evenodd" d="M388.059 58.7692C388 58.8288 387.94 58.8288 387.88 58.8288C387.164 59.0675 386.389 58.7691 386.15 58.0531L382.093 47.4324C381.854 46.7164 382.152 45.9407 382.868 45.7021C383.346 45.5231 383.823 45.5231 384.3 45.7617L390.923 48.7451C391.878 49.1627 392.296 50.2964 391.878 51.2511L388.895 57.8741C388.775 58.2918 388.477 58.5902 388.059 58.7692Z" fill="white"></path> <path fill-rule="evenodd" clip-rule="evenodd" d="M399.217 54.5325C399.157 54.5921 399.098 54.5921 399.038 54.5921C398.322 54.8308 397.546 54.5325 397.308 53.8165L393.25 43.1958C393.012 42.4798 393.31 41.7041 394.026 41.4655C394.503 41.2865 394.981 41.2865 395.458 41.5252L402.081 44.5085C403.036 44.9261 403.453 46.0598 403.036 47.0145L400.052 53.6375C399.933 54.0551 399.575 54.3535 399.217 54.5325Z" fill="white"></path> <path fill-rule="evenodd" clip-rule="evenodd" d="M235.492 178.878C235.432 178.938 235.372 178.938 235.313 178.938C234.597 179.176 233.821 178.878 233.582 178.162L229.525 167.541C229.286 166.825 229.585 166.049 230.301 165.811C230.778 165.632 231.255 165.632 231.733 165.87L238.356 168.854C239.31 169.272 239.728 170.405 239.31 171.36L236.327 177.983C236.208 178.401 235.85 178.699 235.492 178.878Z" fill="white"></path> <path fill-rule="evenodd" clip-rule="evenodd" d="M246.649 174.642C246.59 174.702 246.53 174.702 246.47 174.702C245.754 174.94 244.979 174.642 244.74 173.926L240.683 163.305C240.444 162.589 240.742 161.814 241.458 161.575C241.936 161.396 242.413 161.396 242.89 161.635L249.513 164.618C250.468 165.036 250.886 166.169 250.468 167.124L247.485 173.747C247.306 174.105 247.007 174.463 246.649 174.642Z" fill="white"></path> <path fill-rule="evenodd" clip-rule="evenodd" d="M124.094 76.9673C124.094 76.9673 118.187 75.7143 118.784 70.6426C118.784 70.6426 124.034 70.6426 124.094 76.9673ZM124.512 76.8479C124.512 76.8479 129.464 73.4469 126.958 68.9719C126.958 68.9719 122.185 70.9409 124.512 76.8479Z" fill="#D5BC84"></path> <path fill-rule="evenodd" clip-rule="evenodd" d="M215.503 360.802L202.257 339.62L195.515 339.083C194.68 325.539 197.544 311.935 197.544 311.935C193.964 321.303 192.77 331.864 192.412 338.845L189.011 338.606C189.369 327.806 190.503 296.004 192.233 289.858C192.233 289.858 185.909 310.205 186.028 335.503C183.522 330.551 180.181 323.63 179.107 320.05C179.107 320.05 180.718 330.491 184.178 338.188L173.2 337.353C171.648 331.088 169.441 321.422 167.77 311.696C173.259 287.054 180.777 260.443 180.777 260.443C175.169 273.927 170.515 290.873 166.935 306.028C165.92 298.987 165.324 292.245 165.622 287.054C165.622 287.054 164.488 295.646 165.92 310.443C163.772 319.93 162.102 328.403 160.908 334.608L150.288 326.374L138.295 333.296C136.863 327.389 135.789 320.408 134.953 313.367C136.922 304.238 139.011 297.257 139.011 297.257C137.161 301.016 135.61 304.835 134.416 308.474C132.567 290.515 132.328 273.45 132.328 273.45C130.896 285.383 131.672 300.777 132.865 313.785C130.419 322.854 129.643 330.969 129.404 336.697C126.958 332.639 123.318 325.837 122.125 320.169C122.125 320.169 122.423 331.625 127.972 339.143L118.306 344.692C145.634 360.922 178.391 367.903 215.503 360.802ZM170.634 337.234L163.653 336.697L163.176 336.339C164.011 330.67 165.264 324.047 166.756 317.007C167.531 322.973 168.784 329.775 170.634 337.234ZM135.311 334.966L131.791 336.995C131.91 331.864 132.626 326.195 133.521 320.766C134.178 326.553 134.834 331.506 135.311 334.966Z" fill="#403E58"></path> <path fill-rule="evenodd" clip-rule="evenodd" d="M84.177 132.338C84.0576 132.457 83.998 132.636 83.8786 132.696L84.177 132.338ZM80.8356 133.054C80.597 133.591 80.2986 134.068 80.06 134.545C78.5086 137.529 77.017 139.915 75.764 141.168C75.1077 141.825 74.0933 142.72 72.8403 143.674L72.9 143.853L72.3033 144.152L71.7067 144.45L72.4823 146.777C72.4823 146.777 72.184 147.433 75.048 145.345C76.8977 143.973 80.1196 138.961 82.208 135.619C83.3416 133.77 84.1173 132.338 84.1173 132.338L82.2676 130.13C81.7903 131.144 81.313 132.159 80.8356 133.054Z" fill="#D5BC84"></path> <path fill-rule="evenodd" clip-rule="evenodd" d="M227.854 173.746C226.124 167.123 214.966 165.751 214.131 175.596C218.666 174.939 223.32 174.343 227.854 173.746Z" fill="#ECD8A1"></path> <path fill-rule="evenodd" clip-rule="evenodd" d="M217.114 169.629C220.217 169.271 223.558 171.002 224.752 174.164C225.766 174.045 226.84 173.866 227.854 173.746C226.661 169.092 220.754 167.004 217.114 169.629Z" fill="#F1E2BB"></path> <path fill-rule="evenodd" clip-rule="evenodd" d="M413.776 84.7835C417.594 80.2488 424.754 72.9099 434.778 67.5399C433.704 67.4802 432.571 67.4802 431.497 67.4205C423.322 72.9099 417.356 79.6522 413.656 84.7239C413.716 84.7239 413.776 84.7238 413.776 84.7835Z" fill="#F1E2BB"></path> <defs> <linearGradient id="paint0_linear" x1="395.56" y1="261.382" x2="3.04305" y2="369.501" gradientUnits="userSpaceOnUse"> <stop stop-color="white"></stop> <stop offset="0.2823" stop-color="#F3F6FB"></stop> <stop offset="0.7411" stop-color="#DBE5F2"></stop> <stop offset="1" stop-color="#CBDAED"></stop> </linearGradient> <linearGradient id="paint1_linear" x1="327.004" y1="130.228" x2="349.321" y2="113.013" gradientUnits="userSpaceOnUse"> <stop stop-color="#D59798"></stop> <stop offset="1" stop-color="#E5C1B6"></stop> </linearGradient> <linearGradient id="paint2_linear" x1="407.193" y1="100.194" x2="413.304" y2="85.1992" gradientUnits="userSpaceOnUse"> <stop stop-color="#353747"></stop> <stop offset="1" stop-color="#544A6D"></stop> </linearGradient> <linearGradient id="paint3_linear" x1="387.963" y1="127.084" x2="405.456" y2="121.168" gradientUnits="userSpaceOnUse"> <stop stop-color="#353747"></stop> <stop offset="1" stop-color="#1A1C24"></stop> </linearGradient> <linearGradient id="paint4_linear" x1="202.491" y1="241.74" x2="338.527" y2="259.672" gradientUnits="userSpaceOnUse"> <stop stop-color="#403E58"></stop> <stop offset="1" stop-color="#524A6D"></stop> </linearGradient> <linearGradient id="paint5_linear" x1="392.074" y1="227.287" x2="511.832" y2="160.316" gradientUnits="userSpaceOnUse"> <stop stop-color="#403E58"></stop> <stop offset="1" stop-color="#524A6D"></stop> </linearGradient> <linearGradient id="paint6_linear" x1="339.492" y1="145.7" x2="384.763" y2="128.453" gradientUnits="userSpaceOnUse"> <stop stop-color="#CBDAED"></stop> <stop offset="1" stop-color="white"></stop> </linearGradient> <linearGradient id="paint7_linear" x1="323.422" y1="21.8632" x2="340.653" y2="15.2987" gradientUnits="userSpaceOnUse"> <stop stop-color="#403E58"></stop> <stop offset="1" stop-color="#353747"></stop> </linearGradient> <linearGradient id="paint8_linear" x1="355.858" y1="96.4085" x2="359.201" y2="88.4194" gradientUnits="userSpaceOnUse"> <stop stop-color="#E5C1B6"></stop> <stop offset="1" stop-color="#EED5BF"></stop> </linearGradient> <linearGradient id="paint9_linear" x1="285.52" y1="99.4178" x2="307.31" y2="156.615" gradientUnits="userSpaceOnUse"> <stop stop-color="#403E58"></stop> <stop offset="1" stop-color="#564C70"></stop> </linearGradient> <linearGradient id="paint10_linear" x1="302.247" y1="121.125" x2="314.039" y2="121.928" gradientUnits="userSpaceOnUse"> <stop stop-color="#353747"></stop> <stop offset="1" stop-color="#403E58"></stop> </linearGradient> <linearGradient id="paint11_linear" x1="345.912" y1="35.9086" x2="353.848" y2="35.5378" gradientUnits="userSpaceOnUse"> <stop stop-color="#E5C1B6"></stop> <stop offset="1" stop-color="#E8C9BF"></stop> </linearGradient> <linearGradient id="paint12_linear" x1="324.823" y1="216.69" x2="353.974" y2="197.452" gradientUnits="userSpaceOnUse"> <stop stop-color="#E5C1B6"></stop> <stop offset="1" stop-color="#EACDC4"></stop> </linearGradient> <linearGradient id="paint13_linear" x1="407.945" y1="196.406" x2="393.994" y2="227.527" gradientUnits="userSpaceOnUse"> <stop stop-color="#DCE5F4"></stop> <stop offset="1" stop-color="#CBDAED"></stop> </linearGradient> </defs> </svg> 