<?xml version="1.0" encoding="utf-8"?>
<!-- Generator: Adobe Illustrator 21.1.0, SVG Export Plug-In . SVG Version: 6.00 Build 0)  -->
<svg version="1.1" id="Слой_1" xmlns="http://www.w3.org/2000/svg" xmlns:xlink="http://www.w3.org/1999/xlink" x="0px" y="0px"
	 viewBox="0 0 862.8 1422.6" style="enable-background:new 0 0 862.8 1422.6;" xml:space="preserve">
<style type="text/css">
	.st0{fill:none;stroke:#C0C0C0;stroke-width:3;stroke-linejoin:round;stroke-miterlimit:10;}
	.st1{fill:#C0C0C0;stroke:#C0C0C0;stroke-width:0.75;stroke-linejoin:round;stroke-miterlimit:10;}
	.st2{fill:#F4F4F4;stroke:#333333;stroke-width:3;stroke-linejoin:round;stroke-miterlimit:10;}
	.st3{fill:#E2E2E2;stroke:#333333;stroke-width:3;stroke-linejoin:round;stroke-miterlimit:10;}
	.st4{fill:#FCEB00;stroke:#333333;stroke-width:3;stroke-linejoin:round;stroke-miterlimit:10;}
	.st5{fill:#FFFFFF;stroke:#333333;stroke-width:3;stroke-linejoin:round;stroke-miterlimit:10;}
	.st6{fill:#333333;stroke:#333333;stroke-width:3;stroke-linejoin:round;stroke-miterlimit:10;}
	.st7{fill:#FF9887;stroke:#333333;stroke-width:3;stroke-linejoin:round;stroke-miterlimit:10;}
	.st8{fill:#333333;}
	.st9{fill:none;stroke:#333333;stroke-width:3;stroke-linejoin:round;stroke-miterlimit:10;}
	.st10{fill:#E2E2E2;stroke:#333333;stroke-width:4;stroke-linejoin:round;stroke-miterlimit:10;}
	.st11{fill:#F4F4F4;stroke:#333333;stroke-width:4;stroke-linejoin:round;stroke-miterlimit:10;}
	.st12{fill:#FFFFFF;stroke:#333333;stroke-width:4;stroke-linejoin:round;stroke-miterlimit:10;}
	.st13{fill:#333333;stroke:#333333;stroke-width:4;stroke-linejoin:round;stroke-miterlimit:10;}
	.st14{fill:#F4F4F4;stroke:#333333;stroke-width:2.5;stroke-linejoin:round;stroke-miterlimit:10;}
	.st15{fill:#CBCBCB;stroke:#333333;stroke-width:2.5;stroke-linejoin:round;stroke-miterlimit:10;}
	.st16{fill:#FFFFFF;stroke:#333333;stroke-width:2.5;stroke-linejoin:round;stroke-miterlimit:10;}
	.st17{fill:none;stroke:#333333;stroke-width:2.5;stroke-linejoin:round;stroke-miterlimit:10;}
	.st18{fill:#1098FF;stroke:#333333;stroke-width:2.5;stroke-linejoin:round;stroke-miterlimit:10;}
	.st19{fill:#FF9887;stroke:#333333;stroke-width:2.5;stroke-linejoin:round;stroke-miterlimit:10;}
	.st20{fill:#FFD5CE;stroke:#333333;stroke-width:2;stroke-linejoin:round;stroke-miterlimit:10;}
	.st21{fill:#FF9887;stroke:#333333;stroke-width:2;stroke-linejoin:round;stroke-miterlimit:10;}
	.st22{fill:none;stroke:#333333;stroke-width:2;stroke-linejoin:round;stroke-miterlimit:10;}
	.st23{fill:#333333;stroke:#333333;stroke-width:2;stroke-linejoin:round;stroke-miterlimit:10;}
	.st24{fill:#EBF6FA;stroke:#333333;stroke-width:2;stroke-linejoin:round;stroke-miterlimit:10;}
	.st25{fill:none;stroke:#C0C0C0;stroke-width:4;stroke-linejoin:round;stroke-miterlimit:10;}
	.st26{fill:#FFD5CE;stroke:#333333;stroke-width:3;stroke-linejoin:round;stroke-miterlimit:10;}
	.st27{fill:#363636;stroke:#363636;stroke-width:3;stroke-linejoin:round;stroke-miterlimit:10;}
	.st28{fill:none;stroke:#363636;stroke-width:3;stroke-linejoin:round;stroke-miterlimit:10;}
	.st29{fill:#F3D4CD;stroke:#363636;stroke-width:3;stroke-linejoin:round;stroke-miterlimit:10;}
	.st30{fill:#4172B5;stroke:#363636;stroke-width:3;stroke-linejoin:round;stroke-miterlimit:10;}
	.st31{fill:#F2F2F2;stroke:#333333;stroke-width:3;stroke-linejoin:round;stroke-miterlimit:10;}
	.st32{fill:#FFFFFF;}
	.st33{fill:none;stroke:#333333;stroke-width:4;stroke-linejoin:round;stroke-miterlimit:10;}
	.st34{fill:#1098FF;stroke:#333333;stroke-width:4;stroke-linejoin:round;stroke-miterlimit:10;}
	.st35{fill:#1098FF;stroke:#333333;stroke-width:3;stroke-linejoin:round;stroke-miterlimit:10;}
	.st36{fill:#D6F1FF;stroke:#333333;stroke-width:3;stroke-linejoin:round;stroke-miterlimit:10;}
	.st37{fill:#D6F1FF;stroke:#333333;stroke-width:2.5;stroke-linejoin:round;stroke-miterlimit:10;}
	.st38{fill:none;stroke:#000000;stroke-width:2;stroke-miterlimit:10;}
	.st39{fill:#A0A0A0;}
	.st40{fill:none;stroke:#C0C0C0;stroke-width:1.2;stroke-linejoin:round;stroke-miterlimit:10;}
	.st41{fill:#C0C0C0;stroke:#C0C0C0;stroke-width:1.2;stroke-linejoin:round;stroke-miterlimit:10;}
	.st42{fill:#D6F1FF;stroke:#333333;stroke-width:1.2;stroke-linejoin:round;stroke-miterlimit:10;}
	.st43{fill:none;stroke:#333333;stroke-width:1.2;stroke-linejoin:round;stroke-miterlimit:10;}
	.st44{fill:#333333;stroke:#333333;stroke-width:1.2;stroke-linejoin:round;stroke-miterlimit:10;}
	.st45{fill:#FFFFFF;stroke:#333333;stroke-width:1.2;stroke-linejoin:round;stroke-miterlimit:10;}
	.st46{fill:#E2E2E2;stroke:#333333;stroke-width:1.2;stroke-linejoin:round;stroke-miterlimit:10;}
	.st47{fill:#F4F4F4;stroke:#333333;stroke-width:1.2;stroke-linejoin:round;stroke-miterlimit:10;}
	.st48{fill:#FF9887;stroke:#333333;stroke-width:1.2;stroke-linejoin:round;stroke-miterlimit:10;}
	.st49{fill:none;stroke:#C0C0C0;stroke-width:1.2;stroke-miterlimit:10;}
	.st50{fill:#F5F5F5;}
	.st51{fill:none;stroke:#A5A5A5;stroke-width:1.5;stroke-linejoin:round;stroke-miterlimit:10;}
	.st52{fill:#C0C0C0;stroke:#A5A5A5;stroke-width:1.5;stroke-linejoin:round;stroke-miterlimit:10;}
	.st53{fill:#D6F1FF;stroke:#333333;stroke-width:1.5;stroke-linejoin:round;stroke-miterlimit:10;}
	.st54{fill:none;stroke:#333333;stroke-width:1.5;stroke-linejoin:round;stroke-miterlimit:10;}
	.st55{fill:#333333;stroke:#333333;stroke-width:1.5;stroke-linejoin:round;stroke-miterlimit:10;}
	.st56{fill:#FFFFFF;stroke:#333333;stroke-width:1.5;stroke-linejoin:round;stroke-miterlimit:10;}
	.st57{fill:#E2E2E2;stroke:#333333;stroke-width:1.5;stroke-linejoin:round;stroke-miterlimit:10;}
	.st58{fill:#F4F4F4;stroke:#333333;stroke-width:1.5;stroke-linejoin:round;stroke-miterlimit:10;}
	.st59{fill:#FF9887;stroke:#333333;stroke-width:1.5;stroke-linejoin:round;stroke-miterlimit:10;}
	.st60{fill:none;stroke:#A5A5A5;stroke-width:1.5;stroke-miterlimit:10;}
	.st61{fill:none;stroke:#C0C0C0;stroke-width:3;stroke-linejoin:round;stroke-miterlimit:10;stroke-dasharray:25,20;}
	.st62{fill:none;stroke:#333333;stroke-width:3;stroke-miterlimit:10;}
	.st63{fill:#C0C0C0;stroke:#333333;stroke-width:3;stroke-miterlimit:10;}
	.st64{fill:none;stroke:#000000;stroke-width:3;stroke-miterlimit:10;}
	.st65{fill:#333333;stroke:#333333;stroke-width:3;stroke-miterlimit:10;}
</style>
<polyline class="st0" points="219.5,469.9 219.5,416 712.2,416 712.2,659.9 620.3,659.9 "/>
<polyline class="st61" points="582.3,136.2 712.2,136.2 712.2,398 "/>
<rect x="89.6" y="46.7" class="st18" width="492.7" height="269.8"/>
<line class="st62" x1="241" y1="155.2" x2="431" y2="155.2"/>
<line class="st62" x1="206.2" y1="195.5" x2="465.8" y2="195.5"/>
<line class="st62" x1="241" y1="211" x2="431" y2="211"/>
<polyline class="st62" points="336,713.9 89.6,713.9 89.6,469.9 336,469.9 "/>
<line class="st62" x1="131.2" y1="535" x2="255.2" y2="535"/>
<line class="st62" x1="131.2" y1="572.9" x2="294.6" y2="572.9"/>
<line class="st62" x1="131.2" y1="591.9" x2="285.4" y2="591.9"/>
<line class="st62" x1="131.2" y1="610.9" x2="274.9" y2="610.9"/>
<line class="st62" x1="131.2" y1="629.8" x2="294.6" y2="629.8"/>
<line class="st62" x1="131.2" y1="648.8" x2="242.2" y2="648.8"/>
<polyline class="st0" points="219.9,1404.6 219.9,964.4 712.6,964.4 712.6,1002.3 "/>
<rect x="341.3" y="1002.3" class="st62" width="492.7" height="274.1"/>
<line class="st62" x1="497.1" y1="1064.1" x2="687" y2="1064.1"/>
<circle class="st63" cx="448.5" cy="1138.6" r="14.2"/>
<line class="st62" x1="398.8" y1="1177" x2="498.1" y2="1177"/>
<line class="st62" x1="410.8" y1="1194.3" x2="486.1" y2="1194.3"/>
<circle class="st63" cx="588" cy="1138.6" r="14.2"/>
<line class="st62" x1="538" y1="1177" x2="637.4" y2="1177"/>
<line class="st62" x1="550" y1="1194.3" x2="625.4" y2="1194.3"/>
<circle class="st63" cx="727.6" cy="1138.6" r="14.2"/>
<line class="st62" x1="677.9" y1="1177" x2="777.3" y2="1177"/>
<line class="st62" x1="689.9" y1="1194.3" x2="765.3" y2="1194.3"/>
<path class="st15" d="M582.3,46.7V29.4c0-5.8-5.2-10.6-11.7-10.6H101.3c-6.4,0-11.7,4.8-11.7,10.6v17.3H582.3z"/>
<circle class="st23" cx="105.6" cy="32.9" r="4.8"/>
<circle class="st23" cx="124.7" cy="32.9" r="4.8"/>
<circle class="st23" cx="143.7" cy="32.9" r="4.8"/>
<polyline class="st62" points="582.3,509.1 620.3,509.1 620.3,753.1 127.6,753.1 127.6,713.9 "/>
<rect x="336" y="469.9" class="st63" width="246.3" height="244"/>
<g>
	<path class="st64" d="M359.5,660.1c0,0,31.8-50.1,44.2-49.2c12.4,1,34.3,32.1,44.3,33.2c10,1.1,44.9-74.1,59.2-74.1
		s32.3,20.8,75.2,73.3"/>
	<circle class="st64" cx="408.9" cy="537.1" r="17.7"/>
	<path class="st64" d="M336,630.8c0,0,33.1,33.1,60.6,83.1"/>
	<path class="st64" d="M509,587.3c0,0,24.1,36.6,17.6,43.4c-6.5,6.8-13.9-8.7-60.4,83.1"/>
	<path class="st64" d="M396.6,631.1c0,0-8.2,10.1-22.7,46.4"/>
</g>
<path class="st64" d="M527.7,591.2c0,0,34.7,40.3,54.6,79.2"/>
<path class="st64" d="M396.6,646.9c0,0-5.2,10.8-5.5,20.5"/>
<path class="st64" d="M482.2,615.1c0,0-12.4,16-11.3,28.1c2.1,24.3-13,43.7-13,43.7"/>
<path class="st63" d="M502.2,670.4c0,0-13.6,24.3-22.8,43.5"/>
<path class="st63" d="M549.8,634.9c0,0,9.7,13.5,15.1,25.2"/>
<path class="st63" d="M336,647.5c0,0,13.4,17.5,23.5,33.1"/>
<line class="st63" x1="89.6" y1="376.8" x2="143.7" y2="376.8"/>
<line class="st63" x1="116.7" y1="349.8" x2="116.7" y2="403.8"/>
<path class="st65" d="M95.5,689.6H38.1c-9.5,0-17.3-7.7-17.3-17.3v0c0-9.5,7.7-17.3,17.3-17.3h57.5c9.5,0,17.3,7.7,17.3,17.3v0
	C112.8,681.9,105.1,689.6,95.5,689.6z"/>
<circle class="st62" cx="364.5" cy="812.1" r="28.5"/>
<line class="st62" x1="426.6" y1="783.6" x2="622.5" y2="783.6"/>
<line class="st62" x1="426.6" y1="802.6" x2="587.7" y2="802.6"/>
<line class="st62" x1="426.6" y1="821.5" x2="609.7" y2="821.5"/>
<line class="st62" x1="426.6" y1="840.5" x2="513.2" y2="840.5"/>
<line class="st63" x1="426.6" y1="902.4" x2="480.7" y2="902.4"/>
<line class="st63" x1="453.6" y1="875.4" x2="453.6" y2="929.5"/>
<line class="st61" x1="219.5" y1="398" x2="219.5" y2="326.4"/>
<line class="st61" x1="712.2" y1="684.8" x2="712.2" y2="954.2"/>
<line class="st61" x1="219.9" y1="938.5" x2="219.9" y2="764.3"/>
</svg>
