<svg width="602" height="156" viewBox="0 0 602 156" xmlns="http://www.w3.org/2000/svg"><title>logo_title_uk</title><g fill="#2E2F2C" fill-rule="evenodd"><path d="M107.288 9.937c0-4.82 4.62-7.16 8.9-7.16 2.408 0 7.026.94 7.63 3.815.13.6.267 1.137.935 1.137.467 0 .936-.133.936-.935 0-1.072-.265-3.75-.336-5.49C122.744.303 119.87.04 117.124.04c-7.49 0-15.927 4.145-15.927 12.31 0 15.322 21.816 10.168 21.816 21.543 0 5.69-5.288 8.43-10.44 8.43-3.41 0-9.1-1.604-10.37-5.285-.198-.665-.335-1.335-1.138-1.335-1.003 0-1.003.735-1.003 1.137 0 .8.47 2.474 1.135 6.29 3.48 1.27 7.297 1.936 10.975 1.936 14.99 0 16.93-11.172 16.93-13.38 0-16.194-21.814-11.172-21.814-21.746M186.717 34.495c-.802 0-.866.6-.998 1.204-.807 4.547-8.766 6.62-12.515 6.62-10.704 0-16.527-9.433-16.527-19.4 0-11.044 6.76-20.14 17.93-20.14 4.083 0 8.967 2.006 9.438 3.945.333 1.34.4 1.674 1.003 1.674.865 0 1.004-.068 1.466-6.025-3.61-1.405-7.492-2.338-11.37-2.338-14.05 0-26.628 9.367-26.628 24.152 0 13.985 9.366 20.874 22.68 20.874 5.15 0 11.173-1.136 15.856-3.41.333-4.484.536-5.89.536-6.424 0-.335-.266-.735-.873-.735M213.604 41.587h-3.01v2.208h17.33v-2.208h-3.012c-2.138 0-2.54-.268-2.54-9.1V4.585c0-.668.132-1.07 1.005-1.07h3.008V1.307H209.06v2.208h3.007c2.14 0 2.543.266 2.543 9.1v27.9c0 .67-.13 1.072-1.006 1.072M284.7 37.44c0-.472-.27-.807-.738-.807-.603 0-.733.404-1.003.87-2.075 3.68-11.175 3.68-14.788 3.68h-2.342c-2.272 0-2.542-.2-2.542-14.45V21.85h6.226c7.092 0 7.356.734 7.356 1.873v2.41h2.012V14.357h-2.012v2.34c0 1.943-.264 2.744-7.356 2.744h-6.226V4.785c0-.668.2-.87.87-.87h4.818c7.63 0 11.174 1.61 11.24 2.743.066.938.202 1.472 1.073 1.472.665 0 .736-.467 1.468-6.824h-32.785v2.21h3.014c2.137 0 2.543.266 2.543 9.1v27.9c0 .668-.136 1.07-1.006 1.07h-3.01v2.208h31.445c1.404-4.75 1.74-5.752 1.74-6.355M317.675 4.853c0-.936.335-.936 3.48-.936 9.5 0 17.8 7.024 17.8 20.473 0 10.84-7.9 16.93-18.736 16.793-2.28 0-2.545-.2-2.545-14.45V4.853zm-8.765 36.734h-3.012v2.208h18.334c17.996 0 23.083-13.317 23.083-22.216 0-10.438-7.226-20.273-22.414-20.273h-20.538v2.21h3.01c2.14 0 2.54.264 2.54 9.098v27.9c0 .668-.13 1.072-1.002 1.072zM400.773 37.44c0-.472-.268-.807-.74-.807-.6 0-.732.404-1.002.87-2.07 3.68-11.17 3.68-14.786 3.68h-2.338c-2.276 0-2.546-.2-2.546-14.45V21.85h6.226c7.09 0 7.358.734 7.358 1.873v2.41h2.007V14.357h-2.006v2.34c0 1.943-.268 2.744-7.358 2.744h-6.226V4.785c0-.668.2-.87.87-.87h4.818c7.628 0 11.174 1.61 11.24 2.743.068.938.2 1.472 1.075 1.472.663 0 .73-.467 1.47-6.824H366.05v2.21h3.01c2.138 0 2.538.266 2.538 9.1v27.9c0 .668-.132 1.07-1 1.07h-3.013v2.208h31.446c1.408-4.75 1.743-5.752 1.743-6.355M443.815 2.778c4.08 0 8.96 2.008 9.435 3.948.332 1.338.397 1.675.998 1.675.87 0 1.005-.068 1.474-6.024-3.615-1.404-7.494-2.34-11.373-2.34-14.054 0-26.628 9.368-26.628 24.155 0 13.984 9.363 20.874 22.677 20.874 5.152 0 11.173-1.137 15.856-3.41.335-4.482.533-5.89.533-6.425 0-.334-.266-.736-.867-.736-.804 0-.87.6-1.003 1.206-.804 4.547-8.767 6.62-12.512 6.62-10.703 0-16.527-9.43-16.527-19.402 0-11.04 6.757-20.14 17.935-20.14M508.263 36.633c-.603 0-.737.402-1 .87-2.08 3.68-11.177 3.68-14.788 3.68h-2.345c-2.273 0-2.54-.2-2.54-14.45V21.85h6.224c7.086 0 7.356.735 7.356 1.874v2.407h2.01V14.353h-2.01v2.342c0 1.94-.27 2.745-7.356 2.745h-6.225V4.786c0-.667.2-.868.865-.868h4.82c7.625 0 11.17 1.607 11.243 2.742.062.937.2 1.47 1.067 1.47.67 0 .74-.466 1.474-6.824h-32.787v2.21h3.012c2.142 0 2.542.267 2.542 9.098v27.9c0 .67-.132 1.072-1.003 1.072h-3.01v2.21h31.448c1.4-4.753 1.74-5.754 1.74-6.357 0-.472-.27-.807-.74-.807"/><g><path d="M5.056 95.535v5.13c0 4.64.356 4.736 1.07 4.736h1.817v.878H.966v-.877h1.33c.36 0 .65-.062.65-.32V90.893c0-3.7-.096-4.347-.908-4.347H.124v-.878H7.1v.877H5.8c-.388 0-.744 0-.744.324v7.594h11.618v-3.57c0-3.7-.098-4.347-.908-4.347H13.85v-.878h6.977v.877H19.53c-.39 0-.746 0-.746.324v13.794c0 4.64.356 4.737 1.07 4.737h1.817v.878h-6.976v-.877h1.33c.36 0 .65-.062.65-.32v-9.545H5.056zM36.743 88.17c-1.687 3.893-2.66 6.232-3.795 9.152h6.78l-2.985-9.152zm-4.218 10.22c-1.136 2.823-1.946 5.325-1.946 6.202 0 .257.03.808.81.808H33.5v.877h-6.59v-.877c1.525 0 1.623 0 1.883-.647l8.21-19.472c.714-.225 1.46-.357 1.687-.357.13 0 .195.098.195.228 0 .39-.55.326-.55 1.006 0 1.3 4.575 14.346 5.777 17.2.452 1.073.875 2.044 1.59 2.044h1.2v.877h-6.686v-.877h1.623c.55 0 .616-.063.616-.322 0-.26-1.3-3.928-2.305-6.687h-7.625zM68.446 86.547c-.553 0-.877.358-1.168.973-.683 1.363-7.95 16.39-9.996 18.79-1.137.293-2.63.487-3.732.487-.228 0-.42-.16-.42-.39 0-.227.225-.422.614-.55.974-.326 2.89-1.038 5.648-5.258-2.014-4.09-4.74-9.38-6.59-13.05-.52-1.003-.71-1.003-1.687-1.003H50.5v-.878h6.49v.877H55.4c-.324 0-.65 0-.65.194 0 .165 2.857 5.91 5.842 11.88l.293-.49c3.7-6.618 5.256-10.61 5.256-11.163 0-.356-.29-.42-.746-.42h-1.88v-.878h5.97v.877h-1.038zM90.593 106.278c-.455 0-.584-.195-.974-.68-1.592-1.95-4.188-5.778-7.302-9.22l-2.435 2.08v2.206c0 4.64.358 4.737 1.072 4.737h1.817v.878h-6.977v-.877h1.33c.357 0 .648-.062.648-.322V90.894c0-3.7-.096-4.348-.91-4.348h-1.912v-.877h6.978v.876H80.63c-.39 0-.747 0-.747.325v10.256c8.47-7.886 10.126-9.703 10.126-10.352 0-.228-.228-.228-.422-.228h-2.435v-.877h6.653v.876H92.67c-.325 0-.357.065-.746.42l-8.212 8.148c5.064 5.874 6.914 8.503 8.407 9.866.42.387.55.42 2.01.42v.878h-3.537zM108.12 86.027c-3.212 0-7.918 2.11-7.918 9.638 0 7.304 4.315 10.255 8.568 10.255 3.21 0 7.917-2.11 7.917-9.637 0-7.302-4.316-10.256-8.568-10.256m.583-.973c6.655 0 10.094 4.446 10.094 10.61 0 6.007-4.186 11.232-10.613 11.232-6.65 0-10.092-4.446-10.092-10.613 0-6.004 4.187-11.23 10.61-11.23M131.704 95.535h-3.084v5.13c0 4.542.23 4.542 1.332 4.542h2.076c4.122 0 4.9-2.79 4.9-4.48 0-2.596-1.263-5.192-5.224-5.192m.584-8.794h-2.464c-.617 0-1.204 0-1.204.326v7.496h3.668c2.012 0 3.377-1.978 3.377-3.96 0-2.626-2.24-3.86-3.377-3.86m-.875 19.536h-6.88v-.877h1.33c.358 0 .65-.062.65-.32V90.893c0-3.7-.097-4.347-.91-4.347h-1.914v-.878h8.21c5.288 0 5.745 3.246 5.745 4.51 0 2.24-1.72 3.863-3.603 4.64v.066c2.887.553 4.997 2.34 4.997 5.42 0 3.02-2.272 5.972-7.627 5.972M148.69 103.682c.13 1.687.485 1.718.973 1.718h1.817v.877h-6.977v-.877h1.33c.36 0 .65-.062.65-.322V90.896c0-3.7-.098-4.35-.908-4.35h-1.916v-.875h6.98v.876h-1.3c-.39 0-.75 0-.75.326v13.793c0 .582 0 1.1.035 1.587l11.488-14.538c-.098-.94-.358-1.168-.812-1.168h-1.913v-.875h6.978v.876h-1.298c-.39 0-.748 0-.748.326v13.793c0 4.64.357 4.735 1.07 4.735h1.818v.877h-6.977v-.877h1.33c.358 0 .65-.062.65-.322V89.144l-11.52 14.538zM180.6 82.88c-1.04 0-2.273-.162-3.116-.813l.387-1.783c.1-.488.198-.91.49-.91.227 0 .26.13.26.294 0 1.296 1.98 1.72 3.017 1.72 2.433 0 3.538-1.104 3.538-3.02.356-.42.55-.584.682-.584.226 0 .226.163.226.584 0 2.273-2.727 4.51-5.484 4.51zm4.575 23.4v-.88h1.33c.357 0 .65-.06.65-.323V89.142l-11.522 14.54c.128 1.686.486 1.72.974 1.72h1.817v.877h-6.977v-.88h1.33c.36 0 .65-.06.65-.323V90.895c0-3.7-.098-4.348-.91-4.348h-1.914v-.877h6.98v.877h-1.303c-.387 0-.745 0-.745.324v13.794c0 .582 0 1.1.033 1.59l11.49-14.54c-.1-.94-.36-1.167-.814-1.167h-1.913v-.877h6.978v.877h-1.298c-.39 0-.747 0-.747.324v13.794c0 4.64.358 4.737 1.07 4.737h1.82v.88h-6.978zM225.472 104.882V90.894c0-3.7-.098-4.348-.91-4.348h-1.913v-.877h6.976v.876h-1.298c-.39 0-.748 0-.748.325v13.794c0 4.64.358 4.737 1.072 4.737h1.817l-.455 3.02c-.065.39-.13.615-.358.615-.257 0-.322-.26-.322-.452 0-.714-.327-1.428-1.235-1.786-1.04-.42-3.28-.52-6.393-.52h-11.943v-.876h1.33c.36 0 .65-.062.65-.322V90.894c0-3.7-.096-4.348-.908-4.348h-1.915v-.877h6.98v.876h-1.3c-.39 0-.748 0-.748.325v13.794c0 4.64.293 4.542 1.072 4.542h9.897c.36 0 .653-.065.653-.324M235.864 85.67h15.254l-.325 2.24c-.065.39-.065.552-.293.552-.26 0-.29-.197-.324-.39-.063-.52-.455-.713-.974-.876-1.362-.423-3.31-.455-4.802-.455H242c-.618 0-1.205 0-1.205.326v7.398h3.086c4.642 0 4.837-.356 4.837-1.07v-1.298h.81v5.388h-.81v-1.2c0-.748 0-.845-3.798-.845h-4.125v5.224c0 4.543.23 4.543 1.332 4.543h2.076c1.59 0 6.43 0 7.076-1.59.066-.162.13-.326.357-.326.13 0 .228.1.228.23 0 .194-.39 1.394-.812 2.76h-14.346v-.88h1.332c.357 0 .65-.06.65-.323V90.895c0-3.7-.1-4.348-.91-4.348h-1.916v-.877zM262.304 95.535v5.13c0 4.64.358 4.736 1.072 4.736h1.817v.878h-6.977v-.877h1.33c.36 0 .648-.062.648-.32V90.893c0-3.7-.096-4.347-.906-4.347h-1.916v-.878h6.977v.877h-1.3c-.388 0-.746 0-.746.324v7.594h11.62v-3.57c0-3.7-.098-4.347-.91-4.347h-1.916v-.878h6.98v.877h-1.3c-.388 0-.744 0-.744.324v13.794c0 4.64.356 4.737 1.068 4.737h1.817v.878h-6.978v-.877h1.33c.36 0 .652-.062.652-.32v-9.545h-11.62zM297.118 106.278h-8.503v-.877h2.338c.356 0 .647-.062.647-.322V86.676c-1.945 0-6.198-.03-6.91 1.59-.098.196-.197.424-.425.424-.16 0-.322-.067-.322-.26 0-.163.062-.488.875-2.76h15.675c.812 2.272.877 2.597.877 2.76 0 .193-.164.26-.325.26-.226 0-.324-.228-.423-.423-.713-1.622-4.963-1.59-6.912-1.59v13.987c0 4.64.358 4.737 1.072 4.737h2.336v.878zM311.716 95.6c.877.294 1.817.42 2.728.42 2.822 0 5.19-1.393 5.19-4.443 0-1.298-.616-4.835-5.322-4.835h-1.394c-.618 0-1.202 0-1.202.324V95.6zm0 5.064c0 4.64.358 4.738 1.072 4.738h1.817v.877h-6.977v-.878h1.33c.36 0 .65-.065.65-.325V90.895c0-3.7-.098-4.348-.908-4.348h-1.916v-.877h8.566c4.22 0 6.395 2.63 6.395 5.355 0 3.958-3.537 5.874-7.107 5.874-.973 0-1.98-.13-2.922-.422v4.186zM339.263 96.77c0-7.01 5.712-11.716 12.46-11.716 1.82 0 3.67.39 5.325 1.038l-.16 1.913c-.035.49-.066.685-.393.685-.226 0-.226-.132-.29-.685-.097-.68-2.11-1.88-4.9-1.88-6.068 0-9.834 4.317-9.834 10.254 0 5.776 4.12 9.444 9.12 9.444 2.564 0 6.037-1.202 6.297-3.115.03-.227.062-.554.355-.554s.293.16.293.39c0 .39 0 .81-.163 2.694-2.27 1.103-4.867 1.655-7.4 1.655-6.326 0-10.71-3.604-10.71-10.125M376.123 106.278h-8.503v-.877h2.338c.356 0 .647-.062.647-.322V86.676c-1.945 0-6.198-.03-6.91 1.59-.1.196-.195.424-.425.424-.16 0-.322-.067-.322-.26 0-.163.062-.488.875-2.76h15.674c.813 2.272.875 2.597.875 2.76 0 .193-.16.26-.322.26-.226 0-.324-.228-.423-.423-.714-1.622-4.965-1.59-6.912-1.59v13.987c0 4.64.358 4.737 1.072 4.737h2.336v.878zM395.26 86.027c-3.214 0-7.92 2.11-7.92 9.638 0 7.304 4.317 10.255 8.568 10.255 3.214 0 7.92-2.11 7.92-9.637 0-7.302-4.317-10.256-8.57-10.256m.585-.973c6.653 0 10.095 4.446 10.095 10.61 0 6.007-4.187 11.232-10.614 11.232-6.652 0-10.094-4.446-10.094-10.613 0-6.004 4.187-11.23 10.613-11.23M413.715 88.95c0-1.172-.293-2.402-1.428-2.402h-1.46v-.878h4.674l7.82 17.072 7.01-17.072h4.22v.878h-1.298c-.39 0-.745 0-.745.324v13.793c0 4.64.354 4.735 1.07 4.735h1.817v.877h-6.977v-.877h1.33c.357 0 .65-.063.65-.322V88.494l-.067-.064-7.398 17.62c-.03.1-.098.196-.163.196-.098 0-.162-.13-.227-.293l-7.69-17.103h-.066v11.815c0 4.64.358 4.735 1.07 4.735h1.82v.877h-5.94v-.877h1.33c.355 0 .648-.063.648-.322v-16.13zM450.48 88.17c-1.686 3.893-2.66 6.232-3.794 9.152h6.783l-2.99-9.152zm-4.22 10.22c-1.133 2.823-1.944 5.325-1.944 6.202 0 .257.032.808.81.808H447.237v.877h-6.587v-.877c1.523 0 1.62 0 1.88-.647l8.21-19.472c.715-.225 1.46-.357 1.69-.357.128 0 .193.098.193.228 0 .39-.55.326-.55 1.006 0 1.3 4.573 14.346 5.777 17.2.452 1.073.875 2.044 1.59 2.044h1.2v.877h-6.686v-.877h1.625c.547 0 .614-.063.614-.322 0-.26-1.3-3.928-2.305-6.687h-7.63zM476.69 106.278h-8.504v-.877h2.338c.356 0 .647-.062.647-.322V86.676c-1.944 0-6.198-.03-6.91 1.59-.098.196-.194.424-.424.424-.16 0-.323-.067-.323-.26 0-.163.063-.488.875-2.76h15.675c.812 2.272.875 2.597.875 2.76 0 .193-.16.26-.322.26-.226 0-.325-.228-.423-.423-.714-1.622-4.965-1.59-6.912-1.59v13.987c0 4.64.36 4.737 1.073 4.737h2.336v.878zM495.825 86.027c-3.213 0-7.92 2.11-7.92 9.638 0 7.304 4.318 10.255 8.57 10.255 3.212 0 7.918-2.11 7.918-9.637 0-7.302-4.316-10.256-8.568-10.256m.584-.973c6.652 0 10.093 4.446 10.093 10.61 0 6.007-4.186 11.232-10.613 11.232-6.652 0-10.094-4.446-10.094-10.613 0-6.004 4.187-11.23 10.613-11.23M523.766 106.278v-.877h1.395c.325 0 .652 0 .652-.194 0-.192-3.247-8.955-6.134-16.225-4.383 10.386-6.102 14.767-6.102 15.84 0 .58.39.58.973.58h1.588v.878h-6.13v-.877h1.393c.164 0 .26-.033.36-.355.386-1.137 4.477-9.638 8.014-18.694.358-.907.486-1.296.714-1.296.164 0 .228.13.325.454.552 2.175 4.48 12.755 7.042 18.888.42 1.005.65 1.005 1.624 1.005h.68v.878h-6.394zM544.052 86.027c-3.214 0-7.92 2.11-7.92 9.638 0 7.304 4.317 10.255 8.57 10.255 3.212 0 7.918-2.11 7.918-9.637 0-7.302-4.32-10.256-8.568-10.256m.584-.973c6.652 0 10.094 4.446 10.094 10.61 0 6.007-4.187 11.232-10.613 11.232-6.653 0-10.092-4.446-10.092-10.613 0-6.004 4.184-11.23 10.61-11.23M562.452 90.895c0-3.7-.096-4.348-.908-4.348h-1.916v-.877h15.35l-.322 2.24c-.065.39-.065.552-.293.552-.26 0-.29-.196-.324-.39-.066-.52-.456-.713-.975-.878-1.362-.42-3.31-.452-4.804-.452h-2.496c-.618 0-1.202 0-1.202.324v13.598c0 4.64.358 4.738 1.072 4.738h2.175v.877h-7.497v-.878h1.49c.358 0 .65-.065.65-.325V90.895zM585.67 100.664c0 4.64.357 4.738 1.07 4.738h1.818v.877h-6.977v-.878h1.332c.356 0 .647-.065.647-.325V90.895c0-3.7-.097-4.348-.907-4.348h-1.916v-.877h6.977v.877h-1.3c-.387 0-.745 0-.745.324v13.794zM598.834 81.972c0-.683.486-1.202 1.17-1.202.68 0 1.166.52 1.166 1.202 0 .68-.486 1.168-1.166 1.168-.684 0-1.17-.488-1.17-1.168zm-4.48 0c0-.683.49-1.202 1.17-1.202.68 0 1.17.52 1.17 1.202 0 .68-.49 1.168-1.17 1.168-.68 0-1.17-.488-1.17-1.168zm4.74 18.693c0 4.64.358 4.735 1.07 4.735h1.818v.877h-6.977v-.877h1.332c.358 0 .646-.063.646-.322V90.895c0-3.7-.096-4.347-.906-4.347h-1.915v-.878h6.977v.878h-1.3c-.388 0-.746 0-.746.324v13.793zM59.6 154.425H51.1v-.878h2.336c.358 0 .65-.062.65-.322v-18.402c-1.947 0-6.2-.032-6.913 1.59-.095.195-.194.423-.42.423-.163 0-.324-.067-.324-.26 0-.162.065-.487.877-2.76h15.673c.812 2.273.877 2.598.877 2.76 0 .193-.163.26-.327.26-.226 0-.322-.228-.42-.422-.714-1.623-4.966-1.59-6.913-1.59v13.986c0 4.64.356 4.737 1.072 4.737H59.6v.878zM76.592 136.316c-1.687 3.894-2.66 6.232-3.795 9.152h6.78l-2.985-9.152zm-4.218 10.222c-1.136 2.822-1.947 5.323-1.947 6.2 0 .258.032.81.81.81H73.348v.876H66.76v-.877c1.524 0 1.622 0 1.882-.647l8.21-19.472c.714-.226 1.46-.358 1.687-.358.13 0 .194.098.194.228 0 .39-.55.324-.55 1.005 0 1.3 4.575 14.345 5.777 17.2.453 1.072.876 2.044 1.59 2.044h1.2v.877h-6.685v-.877h1.623c.552 0 .617-.063.617-.323s-1.3-3.927-2.305-6.686h-7.626zM119.684 134.693c-.553 0-.878.358-1.17.974-.68 1.362-7.95 16.388-9.994 18.79-1.137.292-2.63.487-3.733.487-.228 0-.42-.16-.42-.39 0-.227.226-.422.615-.55.974-.326 2.887-1.038 5.648-5.258-2.014-4.09-4.74-9.38-6.59-13.048-.52-1.005-.712-1.005-1.685-1.005h-.618v-.877h6.49v.877h-1.59c-.326 0-.648 0-.648.195 0 .163 2.854 5.907 5.84 11.877l.292-.487c3.7-6.62 5.257-10.61 5.257-11.164 0-.356-.292-.42-.746-.42h-1.882v-.878h5.97v.877h-1.038zM134.44 154.425v-.878h1.393c.325 0 .65 0 .65-.194 0-.193-3.245-8.956-6.132-16.226-4.383 10.385-6.1 14.767-6.1 15.84 0 .58.388.58.972.58h1.59v.878h-6.132v-.878h1.394c.163 0 .26-.033.358-.355.387-1.137 4.477-9.638 8.015-18.694.358-.908.486-1.298.714-1.298.164 0 .23.13.325.455.553 2.174 4.48 12.754 7.042 18.888.42 1.004.65 1.004 1.625 1.004h.68v.878h-6.393zM153.778 143.26c-1.137 0-2.142.26-2.728.422v5.128c0 4.543.23 4.543 1.332 4.543h1.752c4.415 0 5.225-2.856 5.225-4.543 0-2.434-1.2-5.55-5.582-5.55m.065 11.165h-7.725v-.878h2.24c.488 0 .582-.096.582-.81v-13.305c0-4.64-.354-4.74-1.067-4.74h-1.817v-.876h6.977v.877H151.7c-.357 0-.65.065-.65.324v7.758c.586-.165 2.144-.423 3.312-.423 3.83 0 7.107 1.98 7.107 5.908 0 3.244-2.272 6.165-7.627 6.165M176.573 154.425h-8.503v-.878h2.34c.354 0 .645-.062.645-.322v-18.402c-1.944 0-6.198-.032-6.91 1.59-.098.195-.194.423-.425.423-.16 0-.322-.067-.322-.26 0-.162.063-.487.875-2.76h15.675c.812 2.273.875 2.598.875 2.76 0 .193-.16.26-.322.26-.225 0-.324-.228-.422-.422-.714-1.623-4.966-1.59-6.912-1.59v13.986c0 4.64.358 4.737 1.07 4.737h2.337v.878zM191.172 143.747c.877.293 1.817.42 2.727.42 2.82 0 5.19-1.393 5.19-4.443 0-1.298-.617-4.836-5.322-4.836h-1.395c-.617 0-1.2 0-1.2.325v8.534zm0 5.064c0 4.642.358 4.738 1.072 4.738h1.817v.877h-6.977v-.877h1.332c.358 0 .647-.065.647-.324V139.04c0-3.7-.097-4.346-.907-4.346h-1.915v-.877h8.566c4.22 0 6.395 2.63 6.395 5.354 0 3.96-3.537 5.875-7.106 5.875-.973 0-1.98-.128-2.922-.42v4.186zM212.765 136.316c-1.687 3.894-2.66 6.232-3.795 9.152h6.783l-2.988-9.152zm-4.22 10.222c-1.134 2.822-1.945 5.323-1.945 6.2 0 .258.032.81.81.81H209.52v.876h-6.587v-.877c1.524 0 1.622 0 1.882-.647l8.21-19.472c.714-.226 1.46-.358 1.69-.358.127 0 .192.098.192.228 0 .39-.55.324-.55 1.005 0 1.3 4.573 14.345 5.777 17.2.452 1.072.875 2.044 1.59 2.044h1.2v.877h-6.686v-.877h1.625c.548 0 .615-.063.615-.323s-1.3-3.927-2.305-6.686h-7.628zM233.746 155.042c-1.623 0-3.928-.293-5.55-1.235l.39-2.012c.064-.26.064-.584.39-.584.162 0 .29.164.29.326 0 .163-.063.293-.063.454 0 .78 2.077 2.11 4.672 2.11 3.375 0 6.328-2.63 6.328-6.427 0-1.783-.973-4.477-5.095-4.477h-1.233v-.875c2.627 0 4.9-1.69 4.9-4.22 0-2.434-1.395-4.054-3.99-4.054-2.758 0-4.61 1.752-4.772 2.822-.033.26-.063.454-.322.454-.26 0-.292-.195-.292-.39v-2.206c1.038-.488 3.244-1.526 6.198-1.526 2.596 0 5.16 1.33 5.16 4.218 0 2.307-1.72 3.83-3.538 4.87v.064c3.05.325 5.194 2.175 5.194 5.388 0 4.478-4.578 7.302-8.666 7.302M255.525 143.682h-3.085v5.13c0 4.54.228 4.54 1.33 4.54h2.078c4.12 0 4.9-2.79 4.9-4.48 0-2.594-1.264-5.19-5.223-5.19m.582-8.794h-2.464c-.617 0-1.203 0-1.203.324v7.497h3.667c2.014 0 3.377-1.98 3.377-3.96 0-2.627-2.24-3.862-3.377-3.862m-.875 19.537h-6.88v-.877h1.33c.36 0 .652-.063.652-.323V139.04c0-3.698-.1-4.347-.91-4.347h-1.916v-.877h8.212c5.288 0 5.744 3.247 5.744 4.51 0 2.24-1.72 3.863-3.605 4.642v.065c2.888.553 4.998 2.338 4.998 5.42 0 3.018-2.27 5.972-7.626 5.972M284.855 134.693c-.553 0-.878.358-1.17.974-.68 1.362-7.95 16.388-9.994 18.79-1.136.292-2.628.487-3.732.487-.228 0-.42-.16-.42-.39 0-.227.226-.422.617-.55.97-.326 2.885-1.038 5.646-5.258-2.01-4.09-4.738-9.38-6.59-13.048-.518-1.005-.71-1.005-1.684-1.005h-.618v-.877h6.49v.877h-1.59c-.326 0-.648 0-.648.195 0 .163 2.855 5.907 5.84 11.877.1-.163.195-.324.293-.487 3.7-6.62 5.257-10.61 5.257-11.164 0-.356-.29-.42-.745-.42h-1.882v-.878h5.97v.877h-1.038zM307.002 154.425c-.454 0-.584-.195-.973-.68-1.592-1.95-4.188-5.778-7.303-9.22l-2.434 2.08v2.205c0 4.64.358 4.737 1.07 4.737h1.818v.878h-6.976v-.878h1.33c.358 0 .65-.062.65-.322V139.04c0-3.698-.098-4.347-.91-4.347h-1.915v-.877h6.976v.877h-1.296c-.39 0-.747 0-.747.324v10.256c8.47-7.886 10.125-9.703 10.125-10.352 0-.227-.228-.227-.42-.227h-2.437v-.877h6.655v.877h-1.136c-.326 0-.36.065-.746.42l-8.21 8.148c5.06 5.875 6.912 8.504 8.404 9.867.423.387.55.42 2.012.42v.878h-3.538zM324.528 134.174c-3.214 0-7.92 2.11-7.92 9.638 0 7.303 4.317 10.255 8.57 10.255 3.212 0 7.918-2.11 7.918-9.638 0-7.302-4.317-10.256-8.568-10.256m.584-.973c6.652 0 10.094 4.447 10.094 10.612 0 6.006-4.187 11.23-10.614 11.23-6.652 0-10.094-4.446-10.094-10.613 0-6.004 4.187-11.23 10.614-11.23M348.114 143.682h-3.085v5.13c0 4.54.227 4.54 1.33 4.54h2.077c4.122 0 4.9-2.79 4.9-4.48 0-2.594-1.264-5.19-5.223-5.19m.582-8.794h-2.463c-.618 0-1.204 0-1.204.324v7.497h3.666c2.014 0 3.377-1.98 3.377-3.96 0-2.627-2.24-3.862-3.377-3.862m-.875 19.537h-6.88v-.877h1.332c.358 0 .65-.063.65-.323V139.04c0-3.698-.097-4.347-.91-4.347h-1.915v-.877h8.212c5.287 0 5.743 3.247 5.743 4.51 0 2.24-1.72 3.863-3.605 4.642v.065c2.89.553 5 2.338 5 5.42 0 3.018-2.272 5.972-7.627 5.972M371.618 134.174c-3.214 0-7.92 2.11-7.92 9.638 0 7.303 4.317 10.255 8.568 10.255 3.214 0 7.92-2.11 7.92-9.638 0-7.302-4.32-10.256-8.568-10.256m.584-.973c6.652 0 10.094 4.447 10.094 10.612 0 6.006-4.187 11.23-10.614 11.23-6.652 0-10.092-4.446-10.092-10.613 0-6.004 4.185-11.23 10.612-11.23M392.12 130.118c0-.682.485-1.2 1.17-1.2.68 0 1.166.518 1.166 1.2 0 .68-.486 1.168-1.166 1.168-.685 0-1.17-.487-1.17-1.168zm-4.478 0c0-.682.488-1.2 1.168-1.2.68 0 1.168.518 1.168 1.2 0 .68-.488 1.168-1.168 1.168-.68 0-1.168-.487-1.168-1.168zm4.737 18.694c0 4.64.357 4.735 1.07 4.735h1.818v.877h-6.977v-.877h1.332c.356 0 .647-.063.647-.323v-14.182c0-3.7-.097-4.348-.908-4.348h-1.915v-.877h6.977v.877h-1.3c-.387 0-.745 0-.745.325v13.792zM428.59 134.953c-.13.195-1.006 1.2-2.046 2.63l-4.153 5.614 5.39 7.852c1.232 1.818 1.816 2.498 2.304 2.498h1.2v.877h-6.88v-.877h1.688c.42 0 .682 0 .682-.26 0-.13-.358-.747-.877-1.492l-5.03-7.335-4.997 7.108c-.682.973-.716 1.3-.716 1.526 0 .454.486.454.844.454h1.492v.877h-6.23v-.877h.714c.714 0 1.623-.81 2.046-1.363l6.232-8.633-3.8-5.614c-.553-.844-1.72-2.564-2.303-2.952-.423-.293-.553-.293-1.914-.293v-.877h6.78v.877h-2.076c-.096 0-.195 0-.195.13 0 .29 1.005 1.623 1.947 2.985l3.117 4.576 3.568-4.9c.973-1.332 1.59-2.077 1.59-2.466 0-.325-.097-.325-.713-.325h-1.85v-.877h5.938v.877c-1.46 0-1.59 0-1.754.26M441.225 148.81c0 4.642.358 4.738 1.072 4.738h1.817v.877h-6.977v-.877h1.33c.357 0 .648-.065.648-.324V139.04c0-3.7-.097-4.346-.907-4.346h-1.915v-.877h6.977v.877h-1.3c-.387 0-.745 0-.745.324v13.793zM454.508 143.747c.878.293 1.818.42 2.728.42 2.822 0 5.192-1.393 5.192-4.443 0-1.298-.618-4.836-5.324-4.836h-1.394c-.617 0-1.202 0-1.202.325v8.534zm0 5.064c0 4.642.358 4.738 1.072 4.738h1.817v.877h-6.977v-.877h1.332c.358 0 .65-.065.65-.324V139.04c0-3.7-.1-4.346-.91-4.346h-1.915v-.877h8.566c4.22 0 6.395 2.63 6.395 5.354 0 3.96-3.538 5.875-7.107 5.875-.973 0-1.98-.128-2.922-.42v4.186zM486.84 134.693c-.552 0-.876.358-1.17.974-.68 1.362-7.948 16.388-9.993 18.79-1.137.292-2.63.487-3.733.487-.228 0-.42-.16-.42-.39 0-.227.226-.422.617-.55.973-.326 2.886-1.038 5.647-5.258-2.012-4.09-4.74-9.38-6.59-13.048-.52-1.005-.712-1.005-1.685-1.005h-.617v-.877h6.49v.877h-1.59c-.327 0-.65 0-.65.195 0 .163 2.856 5.907 5.84 11.877.1-.163.196-.324.295-.487 3.698-6.62 5.256-10.61 5.256-11.164 0-.356-.29-.42-.745-.42h-1.88v-.878h5.97v.877h-1.04zM498.15 143.747c.877.293 1.817.42 2.727.42 2.822 0 5.192-1.393 5.192-4.443 0-1.298-.62-4.836-5.325-4.836h-1.394c-.616 0-1.2 0-1.2.325v8.534zm0 5.064c0 4.642.358 4.738 1.07 4.738h1.818v.877h-6.977v-.877h1.333c.358 0 .65-.065.65-.324V139.04c0-3.7-.1-4.346-.91-4.346h-1.915v-.877h8.566c4.22 0 6.395 2.63 6.395 5.354 0 3.96-3.54 5.875-7.108 5.875-.973 0-1.98-.128-2.922-.42v4.186zM515.826 139.04c0-3.7-.096-4.346-.908-4.346h-1.915v-.877h15.35l-.322 2.24c-.064.39-.064.552-.293.552-.26 0-.29-.198-.324-.392-.065-.52-.454-.712-.973-.878-1.363-.42-3.312-.452-4.805-.452h-2.497c-.617 0-1.202 0-1.202.325v13.598c0 4.642.358 4.738 1.072 4.738h2.175v.877h-7.496v-.877h1.49c.358 0 .65-.065.65-.324V139.04zM539.04 148.81c0 4.642.36 4.738 1.073 4.738h1.817v.877h-6.977v-.877h1.33c.36 0 .648-.065.648-.324V139.04c0-3.7-.095-4.346-.905-4.346h-1.916v-.877h6.976v.877h-1.3c-.387 0-.745 0-.745.324v13.793zM552.208 130.118c0-.682.486-1.2 1.17-1.2.68 0 1.166.518 1.166 1.2 0 .68-.485 1.168-1.165 1.168-.686 0-1.172-.487-1.172-1.168zm-4.48 0c0-.682.49-1.2 1.17-1.2.68 0 1.17.518 1.17 1.2 0 .68-.49 1.168-1.17 1.168-.68 0-1.17-.487-1.17-1.168zm4.74 18.694c0 4.64.358 4.735 1.072 4.735h1.817v.877h-6.977v-.877h1.33c.36 0 .648-.063.648-.323v-14.182c0-3.7-.096-4.348-.907-4.348h-1.914v-.877h6.977v.877h-1.3c-.387 0-.745 0-.745.325v13.792z"/></g></g></svg>