<svg width="229" height="229" viewBox="0 0 229 229" xmlns="http://www.w3.org/2000/svg"><title>Group</title><path d="M1.906 205.08h21.49l-21.49 21.49v-21.49zm0-145.1L39.53 188.943l-15.5 15.502H1.906V59.98zm0-57.625l11.58 11.58c-5.346 5.417-9.374 12.13-11.58 19.62v-31.2zm31.646-.45c-7.488 2.207-14.2 6.236-19.617 11.58L2.355 1.905h31.197zm6.71 1.755l6.027 42.18-30.11-30.11C22.592 9.408 30.95 5.054 40.262 3.66zm6.477-.484c8.245 0 16.27 2.313 23.203 6.69 2.395 1.513 4.86 2.892 7.38 4.146 8.68 8.12 14.14 19.634 14.23 32.408h-44.54l-6.12-42.84c1.914-.26 3.863-.404 5.846-.404zm67.407-1.27v17.626C99.04 19.474 84.35 15.208 71.637 7.18c-3.645-2.3-7.572-4.068-11.67-5.274h54.18zm.635 203.174h19.34l2.894 8.252c2.38 6.274 7.272 11.16 13.252 13.688H78.656c5.984-2.53 10.878-7.425 13.268-13.727l2.88-8.213h19.343v21.834h.635V205.08zm0-28.82c5.447.132 10.356 3.585 12.268 8.657l2.097 5.978c-.597 7.467-6.785 13.38-14.365 13.54v-28.174zm19.117 28.184h-15.07c5.565-1.65 9.82-6.375 10.79-12.198l4.28 12.198zM114.78 115.23l50.133 50.134-2.383 16.698c-.957-.122-1.928-.192-2.918-.192-12.06 0-21.963 9.376-22.824 21.22l-6.756-19.26c-2.387-6.335-8.49-10.614-15.252-10.745V115.23zm0-68.174h21.936c.085 12.295 5.074 23.442 13.105 31.586l-35.04 35.043v-66.63zm0-24.347c12.172-.047 24.086-2.733 34.99-7.824-8.002 8.14-12.97 19.265-13.054 31.534h-21.936V22.71zm0-20.804h54.182c-4.102 1.208-8.034 2.977-11.686 5.28-12.713 8.025-27.4 12.288-42.496 12.346V1.906zm67.406 1.27c1.973 0 3.91.144 5.815.4L181.89 46.42h-44.536c.088-12.762 5.54-24.268 14.203-32.386 2.534-1.257 5.01-2.64 7.416-4.16 6.944-4.382 14.97-6.698 23.215-6.698zm30.55 12.545L182.61 45.85l6.022-42.194c9.32 1.388 17.683 5.74 24.103 12.065zM226.55 1.907l-11.57 11.57c-5.415-5.34-12.124-9.366-19.606-11.57h31.176zm.468 31.644c-2.207-7.492-6.238-14.207-11.588-19.626l11.588-11.59V33.55zm0 170.894h-22.125l-15.498-15.498 37.623-128.96v144.458zm0 22.127l-21.49-21.49h21.49v21.49zm-57.96.45c6.337-2.677 11.367-8.004 13.574-14.893l2.056-7.047h19.942l21.94 21.94h-57.51zm-9.446-1.27c-.895 0-1.775-.07-2.648-.185l2.923-20.485h21.492l-1.786 6.117c-2.79 8.704-10.82 14.553-19.982 14.553zm-.275-21.306h-21.974c.17-12.126 10.082-21.938 22.248-21.938.96 0 1.902.067 2.828.185l-3.103 21.754zm22.495-.922l-.268.922H159.98l3.093-21.67c10.236 1.606 18.182 10.21 18.762 20.748zm-16.358-37.596l21.155 21.155-4.315 14.79c-1.28-10.095-9.15-18.16-19.154-19.724l2.314-16.22zM150.272 79.09c6.697 6.607 15.426 11.157 25.155 12.61l-10.4 72.878-50.12-50.12 35.365-35.367zm-.002-.897c-7.916-8.03-12.832-19.018-12.916-31.137h44.05L150.27 78.193zm25.246 12.88c-9.59-1.435-18.193-5.92-24.797-12.43l30.994-30.998-6.198 43.427zm13.678 98.57l14.803 14.8h-19.12l4.317-14.8zm-2.36-3.257L165.59 165.14l10.467-73.36c2.004.273 4.045.425 6.12.425 16.03 0 30.134-8.343 38.234-20.906l-33.575 115.086zM182.94 46.42l30.25-30.25c7.692 7.8 12.47 18.475 12.555 30.25h-42.805zm42.807.636c-.027 3.918-.572 7.798-1.625 11.53l-3.024 10.364c-7.734 13.5-22.277 22.62-38.918 22.62-2.046 0-4.056-.15-6.03-.418l6.292-44.096h43.305zM140 212.243l-2.513-7.163h21.762l-2.913 20.406c-7.327-1.175-13.668-6.21-16.336-13.243zm-67.406 13.242L69.68 205.08h21.76l-2.5 7.124c-2.68 7.065-9.02 12.105-16.346 13.28zm-3.28.265c-9.16 0-17.19-5.847-19.97-14.51l-1.797-6.16h21.49l2.927 20.484c-.873.114-1.756.186-2.65.186zm-25.26-21.306H24.928l14.806-14.806 4.32 14.806zm2.674-112.24c2.078 0 4.12-.15 6.124-.423l10.48 73.36-21.24 21.242L8.534 71.358c8.105 12.53 22.193 20.847 38.194 20.847zM78.19 78.64c-6.603 6.51-15.206 10.997-24.797 12.432l-6.205-43.435L78.19 78.64zm.448-.45L47.505 47.055h44.047c-.084 12.117-5 23.105-12.914 31.133zM66.48 182.69c.93-.117 1.874-.184 2.834-.184 12.167 0 22.08 9.812 22.25 21.938H69.59l-3.11-21.753zm-.63.086l3.097 21.668H47.362l-.27-.922c.583-10.536 8.524-19.14 18.76-20.746zM53.484 91.7c9.73-1.455 18.458-6.006 25.156-12.612l35.37 35.37-50.117 50.12L53.483 91.7zm12.28 90.447c-10.003 1.565-17.873 9.63-19.152 19.723l-4.315-14.793 21.15-21.15 2.317 16.22zm33.108 1.743l-6.73 19.195c-.864-11.842-10.767-21.215-22.826-21.215-.99 0-1.965.07-2.923.193l-2.384-16.7 50.14-50.144v57.865c-6.79.13-12.9 4.423-15.275 10.805zm11.23 20.554H95.027l4.28-12.2c.97 5.823 5.224 10.548 10.79 12.2zM99.78 190.89l2.076-5.92c1.905-5.118 6.818-8.58 12.29-8.71v28.176c-7.584-.162-13.77-6.076-14.366-13.546zM79.117 14.868c10.912 5.104 22.84 7.795 35.03 7.84V46.42h-21.96c-.084-12.277-5.058-23.41-13.07-31.552zm35.03 32.188v66.64L79.087 78.64c8.03-8.145 13.016-19.29 13.1-31.584h21.96zM3.185 46.42c.085-11.77 4.86-22.442 12.546-30.24l30.24 30.24H3.186zm43.278.636l6.3 44.096c-1.976.268-3.988.418-6.035.418-16.61 0-31.13-9.088-38.874-22.545L4.81 58.595c-1.055-3.74-1.6-7.62-1.628-11.54h43.28zM2.355 227.02l21.938-21.94H44.24l2.068 7.092c2.2 6.857 7.226 12.175 13.558 14.848H2.356zm-1.084.635h60.276c2.45.826 5.066 1.27 7.768 1.27 2.65 0 5.234-.446 7.67-1.27h74.958c2.436.824 5.022 1.27 7.672 1.27 2.7 0 5.316-.444 7.768-1.27h60.273V57.587c.842-3.54 1.272-7.182 1.272-10.85 0-3.715-.448-7.325-1.272-10.792V1.27H192.98C189.51.448 185.902 0 182.187 0c-3.67 0-7.3.434-10.822 1.27h-113.8C54.043.434 50.412 0 46.74 0c-3.716 0-7.325.448-10.792 1.27H1.27v34.68C.45 39.416 0 43.024 0 46.737c0 3.664.43 7.3 1.27 10.842v170.075z" fill="#333" fill-rule="evenodd"/></svg>