<svg width="615" height="157" viewBox="0 0 615 157" xmlns="http://www.w3.org/2000/svg"><title>Group</title><g fill="#333" fill-rule="evenodd"><path d="M111.025 10.71c0-4.856 4.655-7.216 8.97-7.216 2.428 0 7.082.944 7.69 3.844.134.607.27 1.146.944 1.146.47 0 .942-.134.942-.943 0-1.078-.267-3.776-.337-5.53-2.63-1.01-5.53-1.28-8.295-1.28-7.554 0-16.054 4.18-16.054 12.41 0 15.443 21.99 10.25 21.99 21.714 0 5.732-5.33 8.496-10.524 8.496-3.436 0-9.172-1.62-10.453-5.327-.202-.674-.338-1.35-1.147-1.35-1.012 0-1.012.744-1.012 1.147 0 .81.474 2.495 1.146 6.34 3.508 1.282 7.354 1.956 11.063 1.956 15.107 0 17.063-11.262 17.063-13.49 0-16.32-21.988-11.26-21.988-21.916M191.083 35.46c-.805 0-.874.607-1.006 1.213-.81 4.586-8.835 6.677-12.613 6.677-10.79 0-16.657-9.51-16.657-19.558 0-11.127 6.812-20.3 18.073-20.3 4.114 0 9.037 2.025 9.51 3.98.338 1.35.403 1.688 1.012 1.688.876 0 1.01-.07 1.48-6.07-3.638-1.417-7.55-2.36-11.464-2.36-14.16 0-26.84 9.44-26.84 24.344 0 14.095 9.442 21.04 22.862 21.04 5.19 0 11.262-1.146 15.983-3.437.337-4.52.54-5.935.54-6.476 0-.335-.268-.74-.88-.74M218.185 42.608h-3.032v2.226h17.464v-2.226h-3.034c-2.158 0-2.56-.27-2.56-9.17V5.314c0-.674.133-1.08 1.01-1.08h3.035V2.012H213.6v2.226h3.035c2.157 0 2.564.27 2.564 9.172V41.53c0 .673-.136 1.078-1.015 1.078M289.844 38.427c0-.472-.27-.81-.742-.81-.61 0-.74.406-1.01.878-2.094 3.708-11.264 3.708-14.904 3.708h-2.363c-2.29 0-2.562-.202-2.562-14.566v-4.923h6.273c7.15 0 7.416.74 7.416 1.89v2.426h2.026V15.162h-2.026v2.36c0 1.956-.267 2.765-7.416 2.765h-6.273V5.517c0-.674.202-.876.876-.876h4.855c7.69 0 11.263 1.62 11.33 2.765.067.945.204 1.484 1.08 1.484.675 0 .743-.473 1.484-6.88H254.84v2.227h3.036c2.157 0 2.565.268 2.565 9.17V41.53c0 .673-.138 1.078-1.013 1.078h-3.038v2.226h31.7c1.413-4.788 1.752-5.8 1.752-6.407M323.082 5.585c0-.944.337-.944 3.507-.944 9.575 0 17.94 7.082 17.94 20.636 0 10.925-7.962 17.063-18.885 16.927-2.294 0-2.563-.202-2.563-14.566V5.585zm-8.835 37.023h-3.036l.002 2.226h18.478c18.14 0 23.267-13.42 23.267-22.39 0-10.52-7.284-20.433-22.592-20.433H309.66v2.226h3.036c2.156 0 2.56.27 2.56 9.172l.002 28.122c0 .673-.135 1.078-1.01 1.078zM406.84 38.427c0-.472-.27-.81-.745-.81-.605 0-.737.406-1.012.878-2.09 3.708-11.26 3.708-14.902 3.708h-2.358c-2.294 0-2.564-.202-2.564-14.566v-4.923h6.272c7.148 0 7.418.74 7.418 1.89v2.426h2.024V15.162h-2.024v2.36c0 1.956-.27 2.765-7.418 2.765h-6.272V5.517c0-.674.202-.876.877-.876h4.855c7.688 0 11.262 1.62 11.33 2.765.07.945.2 1.484 1.082 1.484.67 0 .738-.473 1.482-6.88h-33.046v2.227h3.035c2.158 0 2.56.268 2.56 9.17V41.53c0 .673-.132 1.078-1.008 1.078h-3.037v2.226h31.695c1.42-4.788 1.757-5.8 1.757-6.407M450.224 3.493c4.112 0 9.033 2.023 9.507 3.98.338 1.35.407 1.687 1.013 1.687.876 0 1.01-.07 1.484-6.07-3.646-1.417-7.554-2.36-11.465-2.36-14.163 0-26.84 9.44-26.84 24.344 0 14.095 9.44 21.04 22.86 21.04 5.193 0 11.262-1.146 15.982-3.437.338-4.52.538-5.935.538-6.476 0-.335-.27-.74-.875-.74-.808 0-.875.607-1.012 1.213-.807 4.586-8.835 6.676-12.61 6.676-10.79 0-16.66-9.51-16.66-19.558 0-11.127 6.813-20.3 18.08-20.3M515.186 37.617c-.61 0-.743.405-1.012.877-2.092 3.708-11.263 3.708-14.904 3.708h-2.362c-2.294 0-2.562-.202-2.562-14.565v-4.924h6.273c7.145 0 7.417.742 7.417 1.89v2.427h2.023V15.16h-2.023v2.36c0 1.957-.272 2.767-7.418 2.767h-6.274V5.517c0-.675.2-.877.875-.877h4.858c7.687 0 11.26 1.62 11.332 2.765.064.944.2 1.483 1.076 1.483.676 0 .744-.472 1.483-6.877h-33.046v2.226h3.036c2.158 0 2.563.27 2.563 9.172V41.53c0 .672-.135 1.078-1.012 1.078h-3.032v2.226h31.696c1.414-4.79 1.752-5.8 1.752-6.407 0-.473-.27-.81-.74-.81M12.022 88.09c0 .2-.032.397-.297.397-.264 0-.297-.198-.33-.462-.197-1.353-2.937-1.716-3.927-1.716-3.367 0-4.72 2.31-4.72 3.992 0 5.743 10.826 3.466 10.826 10.727 0 4.124-3.83 6.402-7.757 6.402-1.518 0-3.53-.33-4.95-.89-.264-1.618-.462-2.707-.462-2.94 0-.23.132-.362.33-.362.33 0 .363.33.43.595.362 1.848 3.663 2.508 5.18 2.508 2.806 0 5.545-1.452 5.545-4.29 0-6.47-10.726-3.664-10.726-11.09 0-3.367 3.597-5.743 7.294-5.743 1.09 0 2.508.132 3.564.627v2.244zM19.907 97.135c0-7.13 5.81-11.916 12.674-11.916 1.85 0 3.73.395 5.414 1.056l-.165 1.948c-.034.495-.067.692-.397.692-.23 0-.23-.132-.297-.692-.1-.694-2.145-1.916-4.984-1.916-6.172 0-10 4.39-10 10.43 0 5.876 4.192 9.605 9.275 9.605 2.606 0 6.138-1.222 6.402-3.17.032-.23.065-.56.362-.56s.297.165.297.397c0 .395 0 .825-.166 2.74-2.31 1.12-4.95 1.68-7.525 1.68-6.437 0-10.893-3.662-10.893-10.296M49.145 101.095c0 4.72.363 4.82 1.09 4.82h1.848v.89h-7.096v-.89h1.353c.363 0 .66-.067.66-.33V91.16c0-3.762-.1-4.422-.924-4.422h-1.948v-.89h7.097v.89h-1.32c-.397 0-.76 0-.76.33v14.027zM57.527 85.847H73.04l-.33 2.277c-.067.396-.067.56-.298.56-.264 0-.297-.197-.33-.395-.066-.53-.462-.727-.99-.892-1.386-.43-3.367-.462-4.884-.462h-2.443c-.627 0-1.22 0-1.22.33v7.525h3.134c4.72 0 4.917-.362 4.917-1.088v-1.32h.826v5.48h-.826v-1.223c0-.76 0-.858-3.862-.858h-4.19v5.313c0 4.62.23 4.62 1.352 4.62h2.112c1.617 0 6.535 0 7.195-1.617.065-.165.132-.33.362-.33.133 0 .23.1.23.232 0 .198-.395 1.42-.824 2.805H58.385v-.89h1.353c.363 0 .66-.067.66-.33V91.16c0-3.762-.1-4.422-.924-4.422h-1.947v-.89zM97.195 103.075h.066v-11.52c0-4.718-.362-4.817-1.088-4.817h-1.848v-.892h6.04v.892H99.01c-.363 0-.66.066-.66.33v19.506c0 .296 0 .495-.23.495-.1 0-.165-.067-.232-.134l-14.62-18.218H83.2v12.377c0 4.72.364 4.818 1.09 4.818h1.848v.89h-6.04v-.89h1.354c.363 0 .66-.066.66-.33V89.18c0-1.188-.297-2.442-1.452-2.442h-1.486v-.892h4.192l13.83 17.23zM119.37 106.805h-8.646v-.89h2.376c.363 0 .66-.067.66-.33V86.87c-1.98 0-6.304-.033-7.03 1.617-.1.198-.198.43-.43.43-.164 0-.33-.067-.33-.265 0-.165.067-.494.892-2.805h15.942c.824 2.31.89 2.64.89 2.805 0 .198-.165.264-.33.264-.23 0-.33-.23-.43-.43-.725-1.65-5.048-1.616-7.03-1.616v14.225c0 4.72.364 4.82 1.09 4.82h2.377v.89zM133.855 101.095c0 4.72.363 4.82 1.09 4.82h1.848v.89h-7.096v-.89h1.353c.363 0 .66-.067.66-.33V91.16c0-3.762-.1-4.422-.924-4.422h-1.948v-.89h7.097v.89h-1.32c-.397 0-.76 0-.76.33v14.027zM145.107 91.16c0-3.762-.1-4.422-.924-4.422h-1.947v-.89h15.513l-.33 2.276c-.068.396-.068.56-.3.56-.263 0-.296-.197-.328-.395-.067-.53-.463-.727-.99-.892-1.387-.43-3.368-.462-4.885-.462h-2.443c-.627 0-1.22 0-1.22.33v7.525h3.134c4.72 0 4.918-.362 4.918-1.088v-1.32h.825v5.48h-.824V96.64c0-.76 0-.858-3.862-.858h-4.19v5.313c0 4.72.362 4.82 1.088 4.82h1.848v.89h-7.096v-.89h1.353c.363 0 .66-.067.66-.33V91.16zM168.57 101.095c0 4.72.364 4.82 1.09 4.82h1.85v.89h-7.097v-.89h1.353c.363 0 .66-.067.66-.33V91.16c0-3.762-.1-4.422-.924-4.422h-1.948v-.89h7.097v.89h-1.32c-.396 0-.76 0-.76.33v14.027zM177.71 97.135c0-7.13 5.81-11.916 12.674-11.916 1.848 0 3.73.395 5.413 1.056l-.165 1.948c-.033.495-.066.692-.396.692-.23 0-.23-.132-.297-.692-.1-.694-2.146-1.916-4.985-1.916-6.172 0-10 4.39-10 10.43 0 5.876 4.192 9.605 9.275 9.605 2.607 0 6.138-1.222 6.402-3.17.033-.23.066-.56.363-.56s.297.165.297.397c0 .395 0 .825-.165 2.74-2.31 1.12-4.95 1.68-7.525 1.68-6.436 0-10.892-3.662-10.892-10.296M214.24 97.135c0-7.13 5.81-11.916 12.675-11.916 1.848 0 3.73.395 5.413 1.056l-.165 1.948c-.033.495-.066.692-.396.692-.23 0-.23-.132-.297-.692-.1-.694-2.145-1.916-4.984-1.916-6.172 0-10 4.39-10 10.43 0 5.876 4.192 9.605 9.275 9.605 2.607 0 6.14-1.222 6.403-3.17.033-.23.066-.56.363-.56s.297.165.297.397c0 .395 0 .825-.165 2.74-2.31 1.12-4.95 1.68-7.525 1.68-6.436 0-10.892-3.662-10.892-10.296M238.166 85.847h15.513l-.332 2.277c-.067.396-.067.56-.298.56-.264 0-.297-.197-.33-.395-.065-.53-.462-.727-.99-.892-1.385-.43-3.367-.462-4.883-.462h-2.444c-.626 0-1.22 0-1.22.33v7.525h3.135c4.72 0 4.917-.362 4.917-1.088v-1.32h.826v5.48h-.825v-1.223c0-.76 0-.858-3.862-.858h-4.19v5.313c0 4.62.23 4.62 1.353 4.62h2.112c1.618 0 6.536 0 7.196-1.617.065-.165.132-.33.362-.33.133 0 .23.1.23.232 0 .198-.395 1.42-.825 2.805h-14.587v-.89h1.353c.363 0 .66-.067.66-.33V91.16c0-3.762-.1-4.422-.923-4.422h-1.947v-.89zM277.834 103.075h.067v-11.52c0-4.718-.362-4.817-1.087-4.817h-1.85v-.892h6.04v.892h-1.353c-.363 0-.66.066-.66.33v19.506c0 .296 0 .495-.23.495-.1 0-.166-.067-.233-.134l-14.62-18.218h-.066v12.377c0 4.72.364 4.818 1.09 4.818h1.847v.89h-6.04v-.89h1.354c.365 0 .662-.066.662-.33V89.18c0-1.188-.298-2.442-1.452-2.442h-1.487v-.892h4.192l13.83 17.23zM300.01 106.805h-8.648v-.89h2.376c.363 0 .66-.067.66-.33V86.87c-1.98 0-6.304-.033-7.03 1.617-.1.198-.198.43-.43.43-.164 0-.33-.067-.33-.265 0-.165.067-.494.892-2.805h15.942c.824 2.31.89 2.64.89 2.805 0 .198-.165.264-.33.264-.23 0-.33-.23-.43-.43-.725-1.65-5.048-1.616-7.03-1.616v14.225c0 4.72.364 4.82 1.09 4.82h2.377v.89zM309.18 85.847h15.514l-.33 2.277c-.067.396-.067.56-.298.56-.264 0-.297-.197-.33-.395-.066-.53-.462-.727-.99-.892-1.386-.43-3.367-.462-4.884-.462h-2.443c-.628 0-1.222 0-1.222.33v7.525h3.135c4.72 0 4.918-.362 4.918-1.088v-1.32h.827v5.48h-.826v-1.223c0-.76 0-.858-3.86-.858h-4.192v5.313c0 4.62.23 4.62 1.353 4.62h2.113c1.618 0 6.536 0 7.196-1.617.064-.165.13-.33.36-.33.134 0 .232.1.232.232 0 .198-.396 1.42-.825 2.805H310.04v-.89h1.352c.363 0 .66-.067.66-.33V91.16c0-3.762-.1-4.422-.924-4.422h-1.947v-.89zM335.845 96.442h1.85c2.936 0 6.204-.99 6.204-4.588 0-1.32-.628-4.917-5.414-4.917h-1.42c-.626 0-1.22 0-1.22.33v9.175zm-2.146-5.28c0-3.763-.1-4.424-.924-4.424h-1.948v-.89h8.713c4.292 0 6.503 2.673 6.503 5.445 0 3.234-2.343 5.083-5.346 5.644 3.267 4.687 5.676 7.756 6.733 8.614.462.364.825.364 1.88.364v.89h-3.4c-.69 0-.89-.263-7.358-9.47h-2.707v3.76c0 4.72.363 4.82 1.09 4.82h1.848v.89h-7.096v-.89h1.353c.363 0 .66-.066.66-.33V91.16zM375.875 86.21c-3.267 0-8.053 2.145-8.053 9.802 0 7.426 4.39 10.43 8.714 10.43 3.267 0 8.053-2.146 8.053-9.803 0-7.427-4.39-10.43-8.714-10.43m.594-.99c6.764 0 10.263 4.52 10.263 10.792 0 6.106-4.257 11.42-10.793 11.42-6.764 0-10.264-4.522-10.264-10.793 0-6.107 4.26-11.42 10.793-11.42M395.54 91.16c0-3.762-.098-4.422-.923-4.422h-1.947v-.89h15.513l-.33 2.276c-.067.396-.067.56-.296.56-.266 0-.298-.197-.33-.395-.067-.53-.463-.727-.99-.892-1.388-.43-3.37-.462-4.886-.462h-2.442c-.627 0-1.22 0-1.22.33v7.525h3.135c4.72 0 4.918-.362 4.918-1.088v-1.32h.825v5.48h-.825V96.64c0-.76 0-.858-3.862-.858h-4.19v5.313c0 4.72.363 4.82 1.09 4.82h1.846v.89h-7.096v-.89h1.354c.363 0 .66-.067.66-.33V91.16zM430.554 101.095c0 4.62.23 4.62 1.354 4.62h2.706c2.838 0 8.812-.56 8.812-8.976 0-8.45-6.93-9.804-8.548-9.804h-3.102c-.627 0-1.222 0-1.222.33v13.83zm-2.146-9.934c0-3.762-.098-4.422-.923-4.422h-1.948v-.89h9.968c6.766 0 10.165 4.85 10.165 10.13 0 4.26-2.475 10.827-10.858 10.827h-8.416v-.89h1.353c.362 0 .658-.067.658-.33V91.16zM451.442 85.847h15.513l-.33 2.277c-.067.396-.067.56-.297.56-.265 0-.298-.197-.33-.395-.067-.53-.463-.727-.99-.892-1.387-.43-3.368-.462-4.885-.462h-2.443c-.627 0-1.22 0-1.22.33v7.525h3.134c4.72 0 4.918-.362 4.918-1.088v-1.32h.826v5.48h-.826v-1.223c0-.76 0-.858-3.862-.858h-4.19v5.313c0 4.62.23 4.62 1.352 4.62h2.112c1.618 0 6.536 0 7.196-1.617.065-.165.132-.33.362-.33.133 0 .23.1.23.232 0 .198-.395 1.42-.824 2.805H452.3v-.89h1.354c.362 0 .66-.067.66-.33V91.16c0-3.762-.1-4.422-.925-4.422h-1.948v-.89zM491.11 103.075h.067v-11.52c0-4.718-.363-4.817-1.09-4.817h-1.847v-.892h6.04v.892h-1.354c-.363 0-.66.066-.66.33v19.506c0 .296 0 .495-.23.495-.1 0-.165-.067-.232-.134l-14.62-18.218h-.067v12.377c0 4.72.363 4.818 1.09 4.818h1.847v.89h-6.04v-.89h1.354c.363 0 .66-.066.66-.33V89.18c0-1.188-.297-2.442-1.452-2.442h-1.486v-.892h4.192l13.83 17.23zM513.286 106.805h-8.647v-.89h2.375c.363 0 .66-.067.66-.33V86.87c-1.98 0-6.304-.033-7.03 1.617-.1.198-.198.43-.43.43-.164 0-.33-.067-.33-.265 0-.165.067-.494.892-2.805h15.942c.823 2.31.89 2.64.89 2.805 0 .198-.166.264-.33.264-.23 0-.33-.23-.43-.43-.726-1.65-5.05-1.616-7.03-1.616v14.225c0 4.72.363 4.82 1.09 4.82h2.376v.89zM527.77 101.095c0 4.72.364 4.82 1.09 4.82h1.85v.89h-7.097v-.89h1.353c.363 0 .66-.067.66-.33V91.16c0-3.762-.1-4.422-.924-4.422h-1.948v-.89h7.097v.89h-1.32c-.396 0-.76 0-.76.33v14.027zM548.2 88.09c0 .2-.034.397-.298.397-.265 0-.297-.198-.33-.462-.198-1.353-2.937-1.716-3.928-1.716-3.366 0-4.72 2.31-4.72 3.992 0 5.743 10.826 3.466 10.826 10.727 0 4.124-3.828 6.402-7.756 6.402-1.518 0-3.53-.33-4.95-.89-.265-1.618-.463-2.707-.463-2.94 0-.23.134-.362.33-.362.33 0 .364.33.43.595.364 1.848 3.664 2.508 5.182 2.508 2.806 0 5.545-1.452 5.545-4.29 0-6.47-10.726-3.664-10.726-11.09 0-3.367 3.598-5.743 7.295-5.743 1.088 0 2.507.132 3.564.627v2.244zM568.395 106.805h-8.647v-.89h2.376c.363 0 .66-.067.66-.33V86.87c-1.98 0-6.304-.033-7.03 1.617-.1.198-.198.43-.43.43-.164 0-.33-.067-.33-.265 0-.165.067-.494.892-2.805h15.942c.824 2.31.89 2.64.89 2.805 0 .198-.165.264-.33.264-.23 0-.33-.23-.43-.43-.725-1.65-5.048-1.616-7.03-1.616v14.225c0 4.72.364 4.82 1.09 4.82h2.377v.89zM582.582 96.442h1.85c2.937 0 6.204-.99 6.204-4.588 0-1.32-.626-4.917-5.413-4.917h-1.418c-.627 0-1.222 0-1.222.33v9.175zm-2.145-5.28c0-3.763-.1-4.424-.923-4.424h-1.948v-.89h8.712c4.29 0 6.502 2.673 6.502 5.445 0 3.234-2.342 5.083-5.346 5.644 3.268 4.687 5.677 7.756 6.734 8.614.462.364.824.364 1.88.364v.89h-3.4c-.692 0-.89-.263-7.36-9.47h-2.706v3.76c0 4.72.364 4.82 1.09 4.82h1.848v.89h-7.096v-.89h1.353c.363 0 .66-.066.66-.33V91.16zM607.135 97.663v3.432c0 4.72.363 4.82 1.09 4.82h1.848v.89h-7.097v-.89h1.353c.363 0 .66-.067.66-.33v-7.89c-2.608-4.356-4.522-7.657-5.876-9.77-.758-1.187-.89-1.187-1.617-1.187h-1.122v-.89h6.766v.89h-1.517c-.495 0-.56 0-.56.132 0 .297 3.596 6.27 5.577 9.704 2.508-4.72 4.653-8.68 4.653-9.374 0-.462-.198-.462-.495-.462h-2.112v-.89h5.908v.89h-1.122c-.462 0-.627.363-.957.99l-5.38 9.935zM71.107 137.05c-1.716 3.962-2.706 6.338-3.86 9.308h6.896l-3.036-9.306zm-4.29 10.397c-1.155 2.873-1.98 5.413-1.98 6.304 0 .266.032.827.825.827h2.144v.892h-6.7v-.893c1.552 0 1.65 0 1.915-.66l8.35-19.804c.727-.23 1.486-.363 1.717-.363.132 0 .2.1.2.232 0 .397-.563.33-.563 1.024 0 1.32 4.654 14.588 5.875 17.492.46 1.09.89 2.08 1.616 2.08h1.22v.89H74.64v-.89h1.65c.562 0 .628-.067.628-.332 0-.264-1.32-3.993-2.343-6.8h-7.757zM103.81 151.738h.067V140.22c0-4.72-.363-4.819-1.088-4.819h-1.85v-.89h6.04v.892h-1.354c-.363 0-.66.066-.66.33v19.506c0 .296 0 .494-.23.494-.1 0-.165-.065-.232-.132l-14.62-18.22h-.067v12.38c0 4.718.363 4.817 1.09 4.817h1.847v.89h-6.04v-.89h1.354c.363 0 .66-.066.66-.33v-16.404c0-1.188-.297-2.44-1.452-2.44H85.79v-.893h4.192l13.83 17.228zM117.932 149.758c0 4.62.23 4.62 1.354 4.62h2.706c2.838 0 8.812-.56 8.812-8.976 0-8.45-6.93-9.803-8.548-9.803h-3.102c-.627 0-1.222 0-1.222.33v13.828zm-2.146-9.934c0-3.763-.098-4.423-.923-4.423h-1.948v-.89h9.968c6.766 0 10.165 4.852 10.165 10.132 0 4.258-2.475 10.826-10.858 10.826h-8.416v-.89h1.352c.364 0 .66-.067.66-.33v-14.424zM165.09 134.51h6.04v.89h-1.353c-.363 0-.66.067-.66.33v12.015c0 6.304-4.49 8.35-8.582 8.35-3.003 0-7.657-1.287-7.657-7.228v-9.043c0-3.763-.1-4.423-.924-4.423h-1.947v-.89h7.096v.89h-1.32c-.396 0-.76 0-.76.33v12.642c0 5.71 4.028 6.47 6.074 6.47 2.18 0 6.93-.66 6.93-7.295v-7.327c0-4.72-.362-4.82-1.088-4.82h-1.85v-.89zM176.573 134.51h7.096v.89h-1.32c-.397 0-.76 0-.76.33v14.028c0 4.62.23 4.62 1.353 4.62h2.112c1.618 0 6.536 0 7.196-1.617.066-.164.133-.33.363-.33.133 0 .23.1.23.233 0 .198-.395 1.42-.824 2.805h-14.59v-.89h1.355c.362 0 .66-.067.66-.33v-14.424c0-3.763-.1-4.423-.925-4.423h-1.947v-.89zM207.76 155.468h-8.647v-.89h2.376c.362 0 .66-.067.66-.33v-18.715c-1.982 0-6.305-.033-7.032 1.617-.098.198-.197.43-.428.43-.165 0-.33-.067-.33-.265 0-.165.066-.494.89-2.805h15.943c.824 2.31.89 2.64.89 2.805 0 .198-.165.264-.33.264-.23 0-.33-.232-.43-.43-.725-1.65-5.048-1.617-7.03-1.617v14.225c0 4.72.364 4.82 1.09 4.82h2.377v.89zM221.948 145.105h1.85c2.936 0 6.204-.99 6.204-4.588 0-1.32-.627-4.917-5.413-4.917h-1.42c-.627 0-1.222 0-1.222.33v9.175zm-2.146-5.28c0-3.763-.098-4.424-.923-4.424h-1.95v-.89h8.714c4.29 0 6.502 2.674 6.502 5.446 0 3.234-2.343 5.083-5.346 5.644 3.267 4.687 5.676 7.756 6.733 8.614.462.363.825.363 1.88.363v.89h-3.4c-.69 0-.89-.263-7.358-9.47h-2.707v3.76c0 4.72.363 4.82 1.09 4.82h1.848v.89h-7.096v-.89h1.352c.364 0 .66-.066.66-.33v-14.423zM247.952 137.05c-1.716 3.962-2.706 6.338-3.86 9.308h6.896l-3.036-9.306zm-4.29 10.397c-1.155 2.873-1.98 5.413-1.98 6.304 0 .266.032.827.825.827h2.144v.892h-6.698v-.893c1.55 0 1.65 0 1.914-.66l8.35-19.804c.726-.23 1.485-.363 1.716-.363.132 0 .2.1.2.232 0 .397-.563.33-.563 1.024 0 1.32 4.653 14.588 5.874 17.492.462 1.09.89 2.08 1.617 2.08h1.223v.89h-6.8v-.89h1.65c.562 0 .628-.067.628-.332 0-.264-1.32-3.993-2.342-6.8h-7.757zM274.682 136.754c0 .198-.033.396-.297.396-.265 0-.297-.198-.33-.462-.198-1.353-2.937-1.716-3.928-1.716-3.366 0-4.72 2.31-4.72 3.993 0 5.743 10.826 3.466 10.826 10.727 0 4.125-3.828 6.403-7.756 6.403-1.52 0-3.53-.33-4.95-.89-.265-1.618-.463-2.707-.463-2.94 0-.23.133-.362.33-.362.33 0 .363.33.43.595.363 1.848 3.663 2.508 5.18 2.508 2.807 0 5.546-1.452 5.546-4.29 0-6.47-10.726-3.664-10.726-11.09 0-3.367 3.597-5.743 7.294-5.743 1.088 0 2.507.132 3.564.627v2.244zM292.766 134.873c-3.268 0-8.054 2.145-8.054 9.802 0 7.426 4.39 10.43 8.714 10.43 3.267 0 8.053-2.146 8.053-9.803 0-7.426-4.39-10.43-8.714-10.43m.594-.99c6.765 0 10.264 4.522 10.264 10.793 0 6.106-4.257 11.42-10.793 11.42-6.764 0-10.263-4.522-10.263-10.793 0-6.106 4.258-11.42 10.793-11.42M323.984 134.51h6.04v.89h-1.353c-.362 0-.66.067-.66.33v12.015c0 6.304-4.488 8.35-8.58 8.35-3.004 0-7.657-1.287-7.657-7.228v-9.043c0-3.763-.1-4.423-.925-4.423H308.9v-.89H316v.89h-1.32c-.397 0-.76 0-.76.33v12.642c0 5.71 4.027 6.47 6.073 6.47 2.18 0 6.932-.66 6.932-7.295v-7.327c0-4.72-.364-4.82-1.09-4.82h-1.848v-.89zM353.487 151.738h.066V140.22c0-4.72-.363-4.819-1.088-4.819h-1.85v-.89h6.04v.892h-1.353c-.363 0-.66.066-.66.33v19.506c0 .296 0 .494-.23.494-.1 0-.165-.065-.232-.132l-14.62-18.22h-.067v12.38c0 4.718.363 4.817 1.09 4.817h1.847v.89h-6.04v-.89h1.354c.363 0 .66-.066.66-.33v-16.404c0-1.188-.297-2.44-1.452-2.44h-1.486v-.893h4.192l13.83 17.228zM367.608 149.758c0 4.62.23 4.62 1.354 4.62h2.706c2.838 0 8.812-.56 8.812-8.976 0-8.45-6.93-9.803-8.548-9.803h-3.102c-.627 0-1.222 0-1.222.33v13.828zm-2.146-9.934c0-3.763-.098-4.423-.923-4.423h-1.95v-.89h9.97c6.765 0 10.164 4.852 10.164 10.132 0 4.258-2.475 10.826-10.858 10.826h-8.416v-.89h1.352c.364 0 .66-.067.66-.33v-14.424zM412.39 136.754c0 .198-.033.396-.297.396-.265 0-.297-.198-.33-.462-.198-1.353-2.937-1.716-3.928-1.716-3.366 0-4.72 2.31-4.72 3.993 0 5.743 10.826 3.466 10.826 10.727 0 4.125-3.827 6.403-7.755 6.403-1.518 0-3.53-.33-4.95-.89-.265-1.618-.463-2.707-.463-2.94 0-.23.133-.362.33-.362.33 0 .363.33.43.595.363 1.848 3.663 2.508 5.18 2.508 2.807 0 5.546-1.452 5.546-4.29 0-6.47-10.726-3.664-10.726-11.09 0-3.367 3.597-5.743 7.294-5.743 1.088 0 2.507.132 3.564.627v2.244zM433.938 134.51h6.04v.89h-1.353c-.363 0-.66.067-.66.33v12.015c0 6.304-4.49 8.35-8.582 8.35-3.003 0-7.657-1.287-7.657-7.228v-9.043c0-3.763-.1-4.423-.924-4.423h-1.947v-.89h7.096v.89h-1.32c-.395 0-.758 0-.758.33v12.642c0 5.71 4.027 6.47 6.073 6.47 2.18 0 6.93-.66 6.93-7.295v-7.327c0-4.72-.362-4.82-1.088-4.82h-1.85v-.89zM450.437 145.105h1.85c2.936 0 6.204-.99 6.204-4.588 0-1.32-.626-4.917-5.412-4.917h-1.42c-.626 0-1.22 0-1.22.33v9.175zm-2.146-5.28c0-3.763-.097-4.424-.922-4.424h-1.948v-.89h8.713c4.29 0 6.502 2.674 6.502 5.446 0 3.234-2.343 5.083-5.346 5.644 3.266 4.687 5.675 7.756 6.732 8.614.462.363.825.363 1.88.363v.89h-3.4c-.69 0-.89-.263-7.358-9.47h-2.707v3.76c0 4.72.363 4.82 1.09 4.82h1.848v.89h-7.096v-.89h1.352c.363 0 .66-.066.66-.33v-14.423zM481.03 145.83h7.69v.892h-1.32c-.495 0-.76 0-.76.33v5.875c0 .76.397.627.397.99 0 .264-.33.363-.528.462-2.312.99-5.546 1.715-8.054 1.715-6.37 0-10.034-4.455-10.034-10.627 0-7.36 6.04-11.585 12.97-11.585 1.915 0 3.994.297 5.645 1.254l-.397 2.047c-.065.264-.065.594-.395.594-.165 0-.297-.165-.297-.33s.065-.298.065-.462c0-.694-2.177-2.113-5.38-2.113-3.167 0-9.966 1.618-9.966 10.298 0 6.9 4.455 9.836 8.944 9.836 1.684 0 3.4-.363 4.886-1.023v-2.343c0-4.918-.133-4.918-1.288-4.918h-2.178v-.89zM493.567 134.51h15.513l-.33 2.277c-.067.396-.067.56-.297.56-.265 0-.298-.197-.33-.395-.067-.528-.463-.726-.99-.89-1.387-.43-3.368-.463-4.885-.463h-2.443c-.627 0-1.22 0-1.22.33v7.524h3.134c4.72 0 4.917-.363 4.917-1.09v-1.32h.826v5.48h-.826v-1.222c0-.76 0-.857-3.862-.857h-4.19v5.313c0 4.62.23 4.62 1.352 4.62h2.112c1.617 0 6.535 0 7.195-1.617.065-.164.132-.33.362-.33.133 0 .23.1.23.233 0 .198-.395 1.42-.824 2.805h-14.588v-.89h1.354c.36 0 .658-.067.658-.33v-14.424c0-3.763-.1-4.423-.924-4.423h-1.947v-.89zM520.232 145.105h1.85c2.936 0 6.204-.99 6.204-4.588 0-1.32-.627-4.917-5.413-4.917h-1.42c-.626 0-1.22 0-1.22.33v9.175zm-2.146-5.28c0-3.763-.098-4.424-.923-4.424h-1.948v-.89h8.713c4.29 0 6.502 2.674 6.502 5.446 0 3.234-2.343 5.083-5.346 5.644 3.267 4.687 5.676 7.756 6.733 8.614.462.363.825.363 1.88.363v.89h-3.4c-.69 0-.89-.263-7.358-9.47h-2.708v3.76c0 4.72.363 4.82 1.09 4.82h1.848v.89h-7.096v-.89h1.353c.363 0 .66-.066.66-.33v-14.423zM544.785 146.326v3.432c0 4.72.363 4.82 1.09 4.82h1.848v.89h-7.097v-.89h1.353c.363 0 .66-.067.66-.33v-7.89c-2.608-4.356-4.522-7.657-5.876-9.77-.758-1.187-.89-1.187-1.617-1.187h-1.122v-.89h6.766v.89h-1.517c-.495 0-.56 0-.56.133 0 .297 3.596 6.27 5.577 9.704 2.508-4.72 4.653-8.68 4.653-9.374 0-.462-.198-.462-.495-.462h-2.112v-.89h5.908v.89h-1.122c-.462 0-.627.364-.957.99l-5.38 9.936z"/></g></svg>