<svg width="620" height="157" viewBox="0 0 620 157" xmlns="http://www.w3.org/2000/svg"><title>Group 2</title><g fill="#333" fill-rule="evenodd"><path d="M114.025 10.71c0-4.856 4.655-7.216 8.97-7.216 2.428 0 7.082.944 7.69 3.844.134.607.27 1.146.944 1.146.47 0 .942-.134.942-.943 0-1.078-.267-3.776-.337-5.53-2.63-1.01-5.53-1.28-8.295-1.28-7.554 0-16.054 4.18-16.054 12.41 0 15.443 21.99 10.25 21.99 21.714 0 5.732-5.33 8.496-10.524 8.496-3.436 0-9.172-1.62-10.453-5.327-.202-.674-.338-1.35-1.147-1.35-1.012 0-1.012.744-1.012 1.147 0 .81.474 2.495 1.146 6.34 3.508 1.282 7.354 1.956 11.063 1.956 15.107 0 17.063-11.262 17.063-13.49 0-16.32-21.988-11.26-21.988-21.916M194.083 35.46c-.805 0-.874.607-1.006 1.213-.81 4.586-8.835 6.677-12.613 6.677-10.79 0-16.657-9.51-16.657-19.558 0-11.127 6.812-20.3 18.073-20.3 4.114 0 9.037 2.025 9.51 3.98.338 1.35.403 1.688 1.012 1.688.876 0 1.01-.07 1.48-6.07-3.638-1.417-7.55-2.36-11.464-2.36-14.16 0-26.84 9.44-26.84 24.344 0 14.095 9.442 21.04 22.862 21.04 5.19 0 11.262-1.146 15.983-3.437.337-4.52.54-5.935.54-6.476 0-.335-.268-.74-.88-.74M221.185 42.608h-3.032v2.226h17.464v-2.226h-3.034c-2.158 0-2.56-.27-2.56-9.17V5.314c0-.674.133-1.08 1.01-1.08h3.035V2.012H216.6v2.226h3.035c2.157 0 2.564.27 2.564 9.172V41.53c0 .673-.136 1.078-1.015 1.078M292.844 38.427c0-.472-.27-.81-.742-.81-.61 0-.74.406-1.01.878-2.094 3.708-11.264 3.708-14.904 3.708h-2.363c-2.29 0-2.562-.202-2.562-14.566v-4.923h6.273c7.15 0 7.416.74 7.416 1.89v2.426h2.026V15.162h-2.026v2.36c0 1.956-.267 2.765-7.416 2.765h-6.273V5.517c0-.674.202-.876.876-.876h4.855c7.69 0 11.263 1.62 11.33 2.765.067.945.204 1.484 1.08 1.484.675 0 .743-.473 1.484-6.88H257.84v2.227h3.036c2.157 0 2.565.268 2.565 9.17V41.53c0 .673-.138 1.078-1.013 1.078h-3.038v2.226h31.7c1.413-4.788 1.752-5.8 1.752-6.407M326.082 5.585c0-.944.337-.944 3.507-.944 9.575 0 17.94 7.082 17.94 20.636 0 10.925-7.962 17.063-18.885 16.927-2.294 0-2.563-.202-2.563-14.566V5.585zm-8.835 37.023h-3.036l.002 2.226h18.478c18.14 0 23.267-13.42 23.267-22.39 0-10.52-7.284-20.433-22.592-20.433H312.66v2.226h3.036c2.156 0 2.56.27 2.56 9.172l.002 28.122c0 .673-.135 1.078-1.01 1.078zM409.84 38.427c0-.472-.27-.81-.745-.81-.605 0-.737.406-1.012.878-2.09 3.708-11.26 3.708-14.902 3.708h-2.358c-2.294 0-2.564-.202-2.564-14.566v-4.923h6.272c7.148 0 7.418.74 7.418 1.89v2.426h2.024V15.162h-2.024v2.36c0 1.956-.27 2.765-7.418 2.765h-6.272V5.517c0-.674.202-.876.877-.876h4.855c7.688 0 11.262 1.62 11.33 2.765.07.945.2 1.484 1.082 1.484.67 0 .738-.473 1.482-6.88h-33.046v2.227h3.035c2.158 0 2.56.268 2.56 9.17V41.53c0 .673-.132 1.078-1.008 1.078h-3.037v2.226h31.695c1.42-4.788 1.757-5.8 1.757-6.407M453.224 3.493c4.112 0 9.033 2.023 9.507 3.98.338 1.35.407 1.687 1.013 1.687.876 0 1.01-.07 1.484-6.07-3.646-1.417-7.554-2.36-11.465-2.36-14.163 0-26.84 9.44-26.84 24.344 0 14.095 9.44 21.04 22.86 21.04 5.193 0 11.262-1.146 15.982-3.437.338-4.52.538-5.935.538-6.476 0-.335-.27-.74-.875-.74-.808 0-.875.607-1.012 1.213-.807 4.586-8.835 6.676-12.61 6.676-10.79 0-16.66-9.51-16.66-19.558 0-11.127 6.813-20.3 18.08-20.3M518.186 37.617c-.61 0-.743.405-1.012.877-2.092 3.708-11.263 3.708-14.904 3.708h-2.362c-2.294 0-2.562-.202-2.562-14.565v-4.924h6.273c7.145 0 7.417.742 7.417 1.89v2.427h2.023V15.16h-2.023v2.36c0 1.957-.272 2.767-7.418 2.767h-6.274V5.517c0-.675.2-.877.875-.877h4.858c7.687 0 11.26 1.62 11.332 2.765.064.944.2 1.483 1.076 1.483.676 0 .744-.472 1.483-6.877h-33.046v2.226h3.036c2.158 0 2.563.27 2.563 9.172V41.53c0 .672-.135 1.078-1.012 1.078h-3.032v2.226h31.696c1.414-4.79 1.752-5.8 1.752-6.407 0-.473-.27-.81-.74-.81M5.615 95.88v5.215c0 4.72.363 4.82 1.09 4.82h1.848v.89H1.457v-.89H2.81c.363 0 .66-.067.66-.33V91.16c0-3.762-.1-4.422-.924-4.422H.598v-.89h7.097v.89h-1.32c-.397 0-.76 0-.76.33v7.723H17.43v-3.63c0-3.762-.098-4.422-.923-4.422H14.56v-.89h7.096v.89h-1.32c-.396 0-.76 0-.76.33v14.027c0 4.72.364 4.82 1.09 4.82h1.848v.89h-7.097v-.89h1.354c.364 0 .66-.067.66-.33V95.88H5.616zM36.503 88.388c-1.716 3.96-2.706 6.337-3.86 9.307h6.896l-3.037-9.307zm-4.29 10.396c-1.155 2.872-1.98 5.413-1.98 6.304 0 .264.032.825.825.825h2.144v.892h-6.7v-.892c1.552 0 1.65 0 1.915-.66l8.35-19.803c.726-.23 1.485-.363 1.716-.363.132 0 .2.1.2.23 0 .398-.563.33-.563 1.025 0 1.32 4.654 14.588 5.875 17.492.462 1.09.89 2.08 1.617 2.08h1.22v.89h-6.798v-.89h1.65c.562 0 .628-.067.628-.33 0-.265-1.32-3.994-2.343-6.8H32.21zM67.328 86.738c-.562 0-.892.363-1.188.99-.694 1.386-8.086 16.668-10.166 19.11-1.155.297-2.673.495-3.795.495-.233 0-.43-.165-.43-.396 0-.23.23-.43.627-.56.99-.33 2.937-1.057 5.742-5.348-2.047-4.16-4.82-9.54-6.7-13.27-.53-1.022-.727-1.022-1.717-1.022h-.627v-.89h6.6v.89H54.06c-.33 0-.66 0-.66.198 0 .165 2.905 6.007 5.94 12.08.1-.165.2-.33.298-.495 3.762-6.732 5.346-10.792 5.346-11.353 0-.363-.297-.43-.76-.43h-1.913v-.89h6.074v.89h-1.056zM74.816 90.764c0-2.904-.1-4.026-.925-4.026h-1.946v-.89h7.097v.89h-1.32c-.396 0-.76 0-.76.33v3.2c0 5.71 2.278 6.47 5.414 6.47 1.75 0 4.06-.76 5.38-1.683V91.16c0-3.762-.1-4.422-.924-4.422h-1.948v-.89h7.096v.89h-1.32c-.397 0-.76 0-.76.33v14.027c0 4.72.363 4.818 1.09 4.818h1.85v.892H85.74v-.892h1.353c.364 0 .66-.066.66-.33V95.98c-.923.758-3.564 2.177-5.94 2.177-3.895 0-6.997-1.42-6.997-7.393M102.93 95.88v5.215c0 4.72.364 4.82 1.09 4.82h1.85v.89h-7.097v-.89h1.353c.363 0 .66-.067.66-.33V91.16c0-3.762-.1-4.422-.924-4.422h-1.948v-.89h7.096v.89h-1.32c-.396 0-.76 0-.76.33v7.723h11.817v-3.63c0-3.762-.1-4.422-.924-4.422h-1.948v-.89h7.097v.89h-1.32c-.397 0-.76 0-.76.33v14.027c0 4.72.363 4.82 1.09 4.82h1.847v.89h-7.096v-.89h1.353c.363 0 .66-.067.66-.33V95.88H102.93zM142.5 106.805v-.89h1.353c.363 0 .66-.067.66-.33V91.16c0-3.762-.1-4.422-.924-4.422h-1.947v-.89h7.095v.89h-1.32c-.397 0-.76 0-.76.33v14.027c0 4.72.364 4.82 1.09 4.82h1.85l-.002.89H142.5zm-9.67-11.354c-1.156 0-2.18.265-2.773.43v5.215c0 4.62.232 4.62 1.354 4.62h1.782c4.49 0 5.314-2.904 5.314-4.62 0-2.475-1.22-5.644-5.677-5.644zm.066 11.355h-7.855v-.89h2.277c.496 0 .595-.1.595-.826V91.556c0-4.72-.363-4.82-1.09-4.82h-1.847v-.89h7.096v.89h-1.352c-.363 0-.66.067-.66.33v7.89c.594-.166 2.178-.43 3.367-.43 3.893 0 7.226 2.013 7.226 6.007 0 3.3-2.31 6.27-7.754 6.27zM164.906 83.008c-1.057 0-2.31-.164-3.17-.825l.398-1.816c.098-.493.197-.922.495-.922.23 0 .262.13.262.296 0 1.322 2.014 1.75 3.07 1.75 2.475 0 3.597-1.122 3.597-3.07.363-.428.56-.594.693-.594.23 0 .23.166.23.595 0 2.31-2.772 4.588-5.577 4.588zm4.653 23.797v-.892h1.353c.362 0 .66-.066.66-.33V89.382l-11.717 14.785c.132 1.715.495 1.748.99 1.748h1.848v.892h-7.096v-.892h1.353c.364 0 .66-.066.66-.33V91.162c0-3.76-.098-4.422-.923-4.422h-1.947v-.89h7.096v.89h-1.32c-.396 0-.76 0-.76.33v14.026c0 .596 0 1.123.034 1.62l11.683-14.788c-.098-.957-.363-1.19-.825-1.19H168.7v-.89h7.098v.89h-1.32c-.397 0-.76 0-.76.332v14.026c0 4.72.363 4.82 1.09 4.82h1.847v.89h-7.096zM210.545 105.385V91.16c0-3.76-.1-4.42-.925-4.42h-1.947v-.893h7.097v.892h-1.32c-.397 0-.76 0-.76.33v14.025c0 4.72.363 4.819 1.09 4.819h1.847l-.462 3.07c-.066.395-.132.627-.363.627-.264 0-.33-.263-.33-.462 0-.725-.33-1.45-1.254-1.814-1.056-.43-3.333-.53-6.502-.53H194.57v-.89h1.353c.363 0 .66-.067.66-.33V91.16c0-3.76-.1-4.42-.924-4.42h-1.948v-.893h7.096v.892h-1.32c-.396 0-.76 0-.76.33v14.025c0 4.72.297 4.62 1.09 4.62h10.067c.362 0 .66-.066.66-.33M220.837 85.847h15.513l-.33 2.277c-.067.396-.067.56-.298.56-.264 0-.297-.197-.33-.395-.066-.53-.462-.727-.99-.892-1.386-.43-3.367-.462-4.884-.462h-2.443c-.627 0-1.22 0-1.22.33v7.525h3.134c4.72 0 4.917-.362 4.917-1.088v-1.32h.826v5.48h-.826v-1.223c0-.76 0-.858-3.862-.858h-4.19v5.313c0 4.62.23 4.62 1.352 4.62h2.112c1.617 0 6.535 0 7.195-1.617.065-.165.132-.33.362-.33.133 0 .23.1.23.232 0 .198-.395 1.42-.824 2.805h-14.588v-.89h1.353c.363 0 .66-.067.66-.33V91.16c0-3.762-.1-4.422-.924-4.422h-1.947v-.89zM247.502 95.88v5.215c0 4.72.363 4.82 1.09 4.82h1.848v.89h-7.096v-.89h1.352c.364 0 .66-.067.66-.33V91.16c0-3.762-.098-4.422-.923-4.422h-1.948v-.89h7.096v.89h-1.318c-.397 0-.76 0-.76.33v7.723h11.816v-3.63c0-3.762-.1-4.422-.924-4.422h-1.948v-.89h7.097v.89h-1.32c-.397 0-.76 0-.76.33v14.027c0 4.72.363 4.82 1.09 4.82h1.847v.89h-7.095v-.89h1.353c.363 0 .66-.067.66-.33V95.88h-11.816zM282.68 106.805h-8.646v-.89h2.376c.363 0 .66-.067.66-.33V86.87c-1.98 0-6.304-.033-7.03 1.617-.1.198-.198.43-.43.43-.164 0-.33-.067-.33-.265 0-.165.067-.494.892-2.805h15.942c.824 2.31.89 2.64.89 2.805 0 .198-.165.264-.33.264-.23 0-.33-.23-.43-.43-.725-1.65-5.048-1.616-7.03-1.616v14.225c0 4.72.364 4.82 1.09 4.82h2.377v.89zM296.87 95.947c.892.296 1.85.428 2.772.428 2.872 0 5.282-1.418 5.282-4.522 0-1.32-.627-4.916-5.413-4.916h-1.418c-.627 0-1.222 0-1.222.33v8.68zm0 5.147c0 4.72.363 4.82 1.09 4.82h1.848v.89h-7.096v-.89h1.352c.364 0 .66-.067.66-.33V91.16c0-3.76-.098-4.42-.923-4.42h-1.947v-.893h8.713c4.29 0 6.502 2.674 6.502 5.446 0 4.026-3.596 5.973-7.227 5.973-.99 0-2.013-.132-2.97-.428v4.257zM324.885 97.135c0-7.13 5.81-11.916 12.674-11.916 1.847 0 3.728.395 5.412 1.056l-.165 1.948c-.033.495-.066.692-.396.692-.23 0-.23-.132-.296-.692-.1-.694-2.145-1.916-4.984-1.916-6.172 0-10 4.39-10 10.43 0 5.876 4.192 9.605 9.275 9.605 2.606 0 6.138-1.222 6.402-3.17.033-.23.066-.56.363-.56s.297.165.297.397c0 .395 0 .825-.165 2.74-2.31 1.12-4.95 1.68-7.525 1.68-6.436 0-10.892-3.662-10.892-10.296M361.88 106.805h-8.647v-.89h2.376c.362 0 .66-.067.66-.33V86.87c-1.982 0-6.305-.033-7.032 1.617-.098.198-.197.43-.428.43-.165 0-.33-.067-.33-.265 0-.165.066-.494.89-2.805h15.943c.824 2.31.89 2.64.89 2.805 0 .198-.165.264-.33.264-.23 0-.33-.23-.43-.43-.725-1.65-5.048-1.616-7.03-1.616v14.225c0 4.72.364 4.82 1.09 4.82h2.377v.89zM382.01 86.21c-3.268 0-8.054 2.145-8.054 9.802 0 7.426 4.39 10.43 8.714 10.43 3.267 0 8.053-2.146 8.053-9.803 0-7.427-4.39-10.43-8.713-10.43m.594-.99c6.765 0 10.264 4.52 10.264 10.792 0 6.106-4.257 11.42-10.793 11.42-6.765 0-10.264-4.522-10.264-10.793 0-6.107 4.26-11.42 10.794-11.42M401.742 89.18c0-1.188-.297-2.442-1.452-2.442h-1.486v-.89h4.753l7.955 17.36 7.128-17.36h4.29v.89h-1.32c-.395 0-.76 0-.76.33v14.027c0 4.72.365 4.818 1.09 4.818h1.85v.892h-7.097v-.892h1.354c.362 0 .66-.066.66-.33V88.718l-.067-.066-7.525 17.922c-.032.1-.1.197-.165.197-.1 0-.165-.13-.23-.296l-7.823-17.393h-.066v12.015c0 4.72.364 4.818 1.09 4.818h1.848v.892h-6.04v-.892h1.354c.363 0 .66-.066.66-.33V89.18zM437.78 88.388c-1.717 3.96-2.707 6.337-3.862 9.307h6.897l-3.036-9.307zm-4.292 10.396c-1.154 2.872-1.98 5.413-1.98 6.304 0 .264.033.825.826.825h2.144v.892h-6.7v-.892c1.552 0 1.65 0 1.915-.66l8.35-19.803c.726-.23 1.485-.363 1.716-.363.13 0 .198.1.198.23 0 .398-.562.33-.562 1.025 0 1.32 4.654 14.588 5.875 17.492.463 1.09.892 2.08 1.618 2.08h1.22v.89h-6.798v-.89h1.65c.562 0 .628-.067.628-.33 0-.265-1.32-3.994-2.343-6.8h-7.757zM463.057 106.805h-8.647v-.89h2.376c.363 0 .66-.067.66-.33V86.87c-1.98 0-6.304-.033-7.03 1.617-.1.198-.198.43-.43.43-.164 0-.33-.067-.33-.265 0-.165.067-.494.892-2.805h15.942c.824 2.31.89 2.64.89 2.805 0 .198-.165.264-.33.264-.23 0-.33-.23-.43-.43-.725-1.65-5.048-1.616-7.03-1.616v14.225c0 4.72.364 4.82 1.09 4.82h2.377v.89zM483.187 86.21c-3.268 0-8.054 2.145-8.054 9.802 0 7.426 4.39 10.43 8.714 10.43 3.268 0 8.053-2.146 8.053-9.803 0-7.427-4.39-10.43-8.713-10.43m.594-.99c6.766 0 10.265 4.52 10.265 10.792 0 6.106-4.257 11.42-10.793 11.42-6.765 0-10.264-4.522-10.264-10.793 0-6.107 4.258-11.42 10.793-11.42M511.83 106.805v-.89h1.42c.33 0 .66 0 .66-.2 0-.197-3.3-9.108-6.237-16.5-4.456 10.56-6.205 15.016-6.205 16.105 0 .594.395.594.99.594h1.617v.89h-6.238v-.89h1.42c.164 0 .263-.033.362-.363.396-1.154 4.554-9.802 8.15-19.01.365-.924.497-1.32.728-1.32.165 0 .23.132.33.462.56 2.21 4.555 12.97 7.162 19.21.43 1.022.66 1.022 1.65 1.022h.693v.89h-6.502zM532.752 86.21c-3.268 0-8.054 2.145-8.054 9.802 0 7.426 4.39 10.43 8.714 10.43 3.267 0 8.053-2.146 8.053-9.803 0-7.427-4.39-10.43-8.713-10.43m.594-.99c6.765 0 10.264 4.52 10.264 10.792 0 6.106-4.257 11.42-10.793 11.42-6.765 0-10.264-4.522-10.264-10.793 0-6.107 4.258-11.42 10.793-11.42M552.42 91.16c0-3.762-.1-4.422-.925-4.422h-1.947v-.89h15.61l-.33 2.276c-.065.396-.065.56-.296.56-.264 0-.298-.197-.33-.395-.067-.53-.462-.727-.99-.892-1.386-.43-3.366-.462-4.885-.462h-2.542c-.626 0-1.22 0-1.22.33v13.83c0 4.72.362 4.818 1.088 4.818h2.212v.89h-7.625v-.89h1.52c.36 0 .66-.066.66-.33V91.16zM575.09 104.164c.133 1.716.496 1.75.99 1.75h1.85v.89h-7.097v-.89h1.354c.362 0 .66-.066.66-.33V91.16c0-3.762-.1-4.422-.925-4.422h-1.947v-.89h7.095v.89h-1.32c-.395 0-.76 0-.76.33v14.027c0 .594 0 1.122.035 1.617l11.683-14.786c-.098-.957-.363-1.188-.825-1.188h-1.947v-.89h7.096v.89h-1.32c-.396 0-.76 0-.76.33v14.027c0 4.72.364 4.82 1.09 4.82h1.848v.89h-7.096v-.89h1.354c.362 0 .66-.067.66-.332V89.38l-11.717 14.786zM602.216 104.164c.132 1.716.495 1.75.99 1.75h1.848v.89h-7.096v-.89h1.354c.362 0 .66-.066.66-.33V91.16c0-3.762-.1-4.422-.925-4.422H597.1v-.89h7.095v.89h-1.32c-.395 0-.76 0-.76.33v14.027c0 .594 0 1.122.035 1.617l11.683-14.786c-.098-.957-.363-1.188-.825-1.188h-1.947v-.89h7.097v.89h-1.32c-.396 0-.76 0-.76.33v14.027c0 4.72.364 4.82 1.09 4.82h1.848v.89h-7.096v-.89h1.353c.362 0 .66-.067.66-.332V89.38l-11.717 14.786zM40.298 152.827c.132 1.716.495 1.75.99 1.75h1.848v.89H36.04v-.89h1.354c.362 0 .66-.066.66-.33v-14.423c0-3.763-.1-4.423-.925-4.423H35.18v-.89h7.095v.89h-1.32c-.395 0-.76 0-.76.33v14.028c0 .594 0 1.122.035 1.617l11.683-14.786c-.098-.958-.363-1.19-.825-1.19h-1.947v-.89h7.096v.89h-1.32c-.397 0-.76 0-.76.33v14.028c0 4.72.363 4.82 1.09 4.82h1.847v.89H50v-.89h1.355c.362 0 .66-.067.66-.332V138.04l-11.717 14.787zM91.45 135.4c-.563 0-.893.364-1.19.99-.693 1.387-8.085 16.67-10.165 19.11-1.155.298-2.673.496-3.795.496-.232 0-.43-.165-.43-.396 0-.23.23-.43.628-.56.99-.33 2.937-1.057 5.742-5.348-2.046-4.16-4.818-9.54-6.7-13.268-.528-1.023-.726-1.023-1.716-1.023h-.627v-.89h6.6v.89H78.18c-.33 0-.66 0-.66.2 0 .164 2.906 6.006 5.942 12.08.098-.166.198-.33.297-.496 3.76-6.733 5.345-10.793 5.345-11.354 0-.363-.297-.43-.76-.43h-1.913v-.89h6.073v.89H91.45zM106.76 155.468v-.89h1.42c.33 0 .66 0 .66-.2 0-.197-3.3-9.108-6.238-16.5-4.456 10.56-6.205 15.016-6.205 16.105 0 .594.395.594.99.594h1.617v.89h-6.238v-.89h1.42c.164 0 .263-.033.362-.363.397-1.155 4.555-9.803 8.152-19.01.364-.925.496-1.32.727-1.32.165 0 .23.13.33.46.56 2.212 4.555 12.972 7.162 19.21.428 1.023.658 1.023 1.65 1.023h.692v.89h-6.502zM125.173 144.114c-1.155 0-2.178.264-2.772.43v5.214c0 4.62.232 4.62 1.354 4.62h1.782c4.49 0 5.314-2.903 5.314-4.62 0-2.476-1.22-5.644-5.677-5.644m.066 11.355h-7.856v-.893h2.277c.496 0 .595-.1.595-.826v-13.53c0-4.72-.362-4.819-1.09-4.819h-1.846v-.89h7.094v.892h-1.353c-.363 0-.66.066-.66.33v7.887c.595-.166 2.18-.43 3.368-.43 3.894 0 7.227 2.013 7.227 6.007 0 3.3-2.31 6.272-7.756 6.272M148.242 155.468h-8.647v-.89h2.376c.364 0 .66-.067.66-.33v-18.715c-1.98 0-6.303-.033-7.03 1.617-.098.198-.197.43-.428.43-.165 0-.33-.067-.33-.265 0-.165.066-.494.89-2.805h15.943c.824 2.31.89 2.64.89 2.805 0 .198-.165.264-.33.264-.23 0-.33-.232-.43-.43-.725-1.65-5.048-1.617-7.03-1.617v14.225c0 4.72.364 4.82 1.09 4.82h2.377v.89zM162.43 144.61c.892.297 1.85.43 2.772.43 2.872 0 5.282-1.42 5.282-4.523 0-1.32-.627-4.917-5.413-4.917h-1.418c-.627 0-1.222 0-1.222.33v8.68zm0 5.148c0 4.72.363 4.82 1.09 4.82h1.848v.89h-7.096v-.89h1.352c.364 0 .66-.067.66-.33v-14.424c0-3.762-.098-4.422-.923-4.422h-1.947v-.892h8.713c4.29 0 6.502 2.674 6.502 5.446 0 4.027-3.596 5.974-7.227 5.974-.99 0-2.013-.132-2.97-.43v4.258zM184.31 137.05c-1.716 3.962-2.706 6.338-3.86 9.308h6.896l-3.036-9.306zm-4.29 10.397c-1.155 2.873-1.98 5.413-1.98 6.304 0 .266.032.827.825.827h2.144v.892h-6.7v-.893c1.55 0 1.65 0 1.914-.66l8.35-19.804c.726-.23 1.485-.363 1.716-.363.132 0 .2.1.2.232 0 .397-.563.33-.563 1.024 0 1.32 4.654 14.588 5.875 17.492.462 1.09.89 2.08 1.617 2.08h1.22v.89h-6.8v-.89h1.652c.56 0 .627-.067.627-.332 0-.264-1.322-3.993-2.344-6.8h-7.757zM204.374 156.095c-1.65 0-3.993-.297-5.644-1.254l.395-2.045c.066-.264.066-.595.397-.595.165 0 .297.166.297.33 0 .166-.067.297-.067.462 0 .793 2.112 2.146 4.753 2.146 3.43 0 6.435-2.673 6.435-6.535 0-1.815-.988-4.554-5.18-4.554h-1.254v-.893c2.673 0 4.983-1.716 4.983-4.29 0-2.476-1.42-4.126-4.06-4.126-2.805 0-4.688 1.783-4.853 2.873-.03.264-.065.46-.33.46-.264 0-.297-.196-.297-.395v-2.244c1.058-.495 3.302-1.55 6.305-1.55 2.64 0 5.248 1.352 5.248 4.29 0 2.343-1.75 3.894-3.598 4.95v.066c3.102.33 5.28 2.212 5.28 5.48 0 4.554-4.654 7.425-8.81 7.425M227.573 144.543h-3.136v5.215c0 4.62.232 4.62 1.354 4.62h2.113c4.19 0 4.983-2.838 4.983-4.554 0-2.64-1.287-5.28-5.313-5.28m.594-8.945h-2.508c-.628 0-1.223 0-1.223.33v7.623h3.73c2.047 0 3.432-2.013 3.432-4.027 0-2.673-2.278-3.927-3.433-3.927m-.89 19.868h-6.998v-.89h1.353c.362 0 .66-.067.66-.33v-14.424c0-3.763-.1-4.423-.925-4.423h-1.947v-.89h8.35c5.38 0 5.843 3.3 5.843 4.588 0 2.277-1.75 3.927-3.664 4.72v.065c2.936.56 5.082 2.376 5.082 5.512 0 3.07-2.31 6.073-7.756 6.073M257.24 135.4c-.56 0-.89.364-1.187.99-.694 1.387-8.086 16.67-10.166 19.11-1.155.298-2.673.496-3.795.496-.232 0-.43-.165-.43-.396 0-.23.23-.43.628-.56.99-.33 2.937-1.057 5.742-5.348-2.046-4.16-4.818-9.54-6.7-13.268-.528-1.023-.726-1.023-1.716-1.023h-.627v-.89h6.6v.89h-1.618c-.33 0-.66 0-.66.2 0 .164 2.906 6.006 5.942 12.08.098-.166.198-.33.297-.496 3.763-6.733 5.347-10.793 5.347-11.354 0-.363-.297-.43-.76-.43h-1.913v-.89h6.073v.89h-1.056zM278.69 155.468c-.462 0-.594-.198-.99-.693-1.616-1.98-4.257-5.875-7.426-9.373l-2.475 2.112v2.244c0 4.72.362 4.82 1.088 4.82h1.85v.89h-7.098v-.89h1.354c.363 0 .66-.067.66-.33v-14.424c0-3.763-.1-4.423-.924-4.423h-1.948v-.89h7.096v.89h-1.32c-.396 0-.76 0-.76.33v10.43c8.616-8.02 10.298-9.868 10.298-10.528 0-.23-.23-.23-.428-.23h-2.476v-.892h6.766v.89h-1.155c-.33 0-.363.067-.76.43l-8.35 8.284c5.15 5.974 7.03 8.647 8.55 10.034.427.396.56.43 2.045.43v.89h-3.597zM296.74 134.873c-3.267 0-8.053 2.145-8.053 9.802 0 7.426 4.39 10.43 8.714 10.43 3.268 0 8.054-2.146 8.054-9.803 0-7.426-4.39-10.43-8.713-10.43m.595-.99c6.765 0 10.264 4.522 10.264 10.793 0 6.106-4.258 11.42-10.794 11.42-6.765 0-10.264-4.522-10.264-10.793 0-6.106 4.258-11.42 10.793-11.42M321.688 144.543h-3.136v5.215c0 4.62.232 4.62 1.354 4.62h2.112c4.19 0 4.983-2.838 4.983-4.554 0-2.64-1.286-5.28-5.312-5.28m.594-8.945h-2.508c-.627 0-1.222 0-1.222.33v7.623h3.73c2.047 0 3.432-2.013 3.432-4.027 0-2.673-2.277-3.927-3.432-3.927m-.89 19.868h-6.998v-.89h1.354c.362 0 .66-.067.66-.33v-14.424c0-3.763-.1-4.423-.925-4.423h-1.947v-.89h8.35c5.38 0 5.842 3.3 5.842 4.588 0 2.277-1.75 3.927-3.664 4.72v.065c2.937.56 5.083 2.376 5.083 5.512 0 3.07-2.31 6.073-7.756 6.073M345.514 134.873c-3.268 0-8.054 2.145-8.054 9.802 0 7.426 4.39 10.43 8.714 10.43 3.267 0 8.053-2.146 8.053-9.803 0-7.426-4.39-10.43-8.713-10.43m.594-.99c6.765 0 10.264 4.522 10.264 10.793 0 6.106-4.257 11.42-10.793 11.42-6.766 0-10.265-4.522-10.265-10.793 0-6.106 4.258-11.42 10.793-11.42M372.475 131.672c-1.057 0-2.31-.165-3.17-.825l.398-1.816c.098-.493.197-.922.495-.922.23 0 .263.13.263.296 0 1.32 2.015 1.75 3.07 1.75 2.476 0 3.598-1.123 3.598-3.07.364-.43.56-.594.694-.594.23 0 .23.165.23.594 0 2.31-2.772 4.588-5.577 4.588zm4.653 23.796v-.89h1.354c.362 0 .66-.067.66-.33V138.04l-11.717 14.786c.132 1.716.495 1.75.99 1.75h1.848v.89h-7.096v-.89h1.354c.363 0 .66-.067.66-.33v-14.424c0-3.762-.1-4.423-.924-4.423h-1.947v-.89h7.095v.89h-1.32c-.396 0-.76 0-.76.332v14.026c0 .595 0 1.122.034 1.618l11.682-14.787c-.098-.958-.363-1.19-.825-1.19h-1.947v-.89h7.097v.89h-1.32c-.397 0-.76 0-.76.332v14.026c0 4.72.363 4.82 1.09 4.82h1.847v.89h-7.096zM417.882 135.665c-.132.198-1.023 1.22-2.08 2.673l-4.224 5.71 5.48 7.987c1.253 1.85 1.847 2.542 2.343 2.542h1.22v.89h-6.996v-.89h1.717c.43 0 .693 0 .693-.265 0-.13-.362-.758-.89-1.518l-5.116-7.46-5.083 7.23c-.693.99-.726 1.32-.726 1.55 0 .463.495.463.858.463h1.518v.89h-6.337v-.89h.727c.725 0 1.65-.826 2.08-1.387l6.336-8.78-3.862-5.71c-.56-.857-1.75-2.606-2.344-3.002-.428-.297-.56-.297-1.947-.297v-.89h6.9v.89h-2.114c-.1 0-.198 0-.198.133 0 .297 1.024 1.65 1.98 3.036l3.17 4.653 3.63-4.984c.99-1.354 1.617-2.113 1.617-2.51 0-.33-.1-.33-.726-.33h-1.882v-.89h6.04v.89c-1.485 0-1.617 0-1.782.265M429.86 152.827c.132 1.716.495 1.75.99 1.75h1.848v.89h-7.096v-.89h1.353c.363 0 .66-.066.66-.33v-14.423c0-3.763-.1-4.423-.924-4.423h-1.946v-.89h7.095v.89h-1.32c-.396 0-.76 0-.76.33v14.028c0 .594 0 1.122.034 1.617l11.683-14.786c-.098-.958-.363-1.19-.825-1.19h-1.947v-.89h7.096v.89h-1.32c-.395 0-.76 0-.76.33v14.028c0 4.72.365 4.82 1.09 4.82h1.85v.89h-7.097v-.89h1.354c.362 0 .66-.067.66-.332V138.04l-11.717 14.787zM456.886 144.61c.892.297 1.85.43 2.772.43 2.873 0 5.282-1.42 5.282-4.523 0-1.32-.627-4.917-5.413-4.917h-1.42c-.626 0-1.22 0-1.22.33v8.68zm0 5.148c0 4.72.363 4.82 1.09 4.82h1.848v.89h-7.096v-.89h1.353c.364 0 .66-.067.66-.33v-14.424c0-3.762-.098-4.422-.923-4.422h-1.948v-.892h8.712c4.29 0 6.502 2.674 6.502 5.446 0 4.027-3.596 5.974-7.227 5.974-.99 0-2.014-.132-2.97-.43v4.258zM489.26 135.4c-.56 0-.89.364-1.187.99-.694 1.387-8.086 16.67-10.166 19.11-1.155.298-2.673.496-3.795.496-.232 0-.43-.165-.43-.396 0-.23.23-.43.628-.56.99-.33 2.937-1.057 5.742-5.348-2.046-4.16-4.818-9.54-6.7-13.268-.528-1.023-.726-1.023-1.716-1.023h-.627v-.89h6.6v.89h-1.618c-.33 0-.66 0-.66.2 0 .164 2.906 6.006 5.942 12.08.098-.166.198-.33.297-.496 3.763-6.733 5.347-10.793 5.347-11.354 0-.363-.297-.43-.76-.43h-1.913v-.89h6.073v.89h-1.056zM499.555 144.61c.892.297 1.85.43 2.772.43 2.872 0 5.282-1.42 5.282-4.523 0-1.32-.628-4.917-5.414-4.917h-1.42c-.626 0-1.22 0-1.22.33v8.68zm0 5.148c0 4.72.363 4.82 1.09 4.82h1.848v.89h-7.096v-.89h1.352c.363 0 .66-.067.66-.33v-14.424c0-3.762-.1-4.422-.924-4.422h-1.948v-.892h8.713c4.292 0 6.503 2.674 6.503 5.446 0 4.027-3.596 5.974-7.227 5.974-.99 0-2.014-.132-2.97-.43v4.258zM517.836 139.824c0-3.763-.1-4.423-.924-4.423h-1.947v-.89h15.61l-.33 2.277c-.065.396-.065.56-.296.56-.264 0-.298-.197-.33-.395-.067-.528-.463-.726-.99-.89-1.387-.43-3.367-.463-4.886-.463h-2.54c-.628 0-1.222 0-1.222.33v13.828c0 4.72.363 4.82 1.09 4.82h2.21v.89h-7.624v-.89h1.52c.36 0 .658-.067.658-.33v-14.424zM540.508 152.827c.132 1.716.495 1.75.99 1.75h1.848v.89h-7.096v-.89h1.353c.363 0 .66-.066.66-.33v-14.423c0-3.763-.1-4.423-.924-4.423h-1.948v-.89h7.095v.89h-1.32c-.395 0-.76 0-.76.33v14.028c0 .594 0 1.122.035 1.617l11.683-14.786c-.098-.958-.363-1.19-.825-1.19h-1.947v-.89h7.096v.89h-1.32c-.397 0-.76 0-.76.33v14.028c0 4.72.363 4.82 1.09 4.82h1.847v.89h-7.096v-.89h1.355c.362 0 .66-.067.66-.332V138.04l-11.717 14.787zM567.634 152.827c.132 1.716.495 1.75.99 1.75h1.848v.89h-7.096v-.89h1.354c.362 0 .66-.066.66-.33v-14.423c0-3.763-.1-4.423-.925-4.423h-1.947v-.89h7.095v.89h-1.32c-.395 0-.76 0-.76.33v14.028c0 .594 0 1.122.035 1.617l11.683-14.786c-.097-.958-.362-1.19-.824-1.19h-1.947v-.89h7.095v.89h-1.32c-.396 0-.76 0-.76.33v14.028c0 4.72.364 4.82 1.09 4.82h1.848v.89h-7.096v-.89h1.354c.363 0 .66-.067.66-.332V138.04l-11.716 14.787z"/></g></svg>