<svg width="297" height="147" viewBox="0 0 297 147" fill="none" xmlns="http://www.w3.org/2000/svg">
<path d="M127.415 77.9682C127.432 77.7703 127.395 77.5716 127.308 77.393C127.221 77.2143 127.088 77.0623 126.922 76.9528C126.756 76.8434 126.564 76.7805 126.365 76.7708C126.167 76.7612 125.969 76.8051 125.793 76.8979C114.326 83.3053 102.62 89.3174 90.6743 94.9342C90.4958 95.0309 90.3497 95.178 90.2543 95.3571C90.1588 95.5362 90.1182 95.7394 90.1375 95.9413C90.1568 96.1433 90.2351 96.3351 90.3627 96.493C90.4904 96.6508 90.6617 96.7676 90.8553 96.8289C90.8569 96.9985 90.8984 97.1654 90.9764 97.3161C91.0543 97.4669 91.1666 97.5972 91.3041 97.6967C93.9828 99.7578 97.0958 98.0945 99.702 96.7638C104.495 94.3412 109.258 91.8606 114.036 89.4018L119.394 86.6537L120.328 86.2415C120.456 86.1893 120.57 86.1076 120.661 86.0028L120.885 85.8871C122.384 85.1205 124.44 84.4407 125.786 83.3198C127.676 82.0831 128.986 80.2101 127.415 77.9682Z" fill="#1F1E1C"/>
<path d="M123.681 87.8112C115.514 92.2226 107.273 96.4918 98.9575 100.619C97.7051 101.241 98.8055 103.114 100.051 102.492C108.371 98.36 116.615 94.0908 124.781 89.6842C126.012 89.0189 124.911 87.1458 123.681 87.8112Z" fill="#1F1E1C"/>
<path d="M124.794 92.1865C117.555 96.2797 110.151 100.062 102.583 103.533C101.316 104.112 102.417 105.985 103.676 105.406C111.239 101.935 118.645 98.1528 125.894 94.0595C126.018 93.9874 126.125 93.8917 126.211 93.7779C126.297 93.6642 126.36 93.5346 126.396 93.3966C126.432 93.2586 126.441 93.1149 126.421 92.9736C126.401 92.8324 126.354 92.6964 126.282 92.5734C126.21 92.4504 126.114 92.3428 126 92.2568C125.886 92.1708 125.756 92.1081 125.618 92.0721C125.48 92.0362 125.336 92.0278 125.195 92.0474C125.053 92.0671 124.917 92.1143 124.794 92.1865Z" fill="#1F1E1C"/>
<path d="M128.929 94.7393L109.129 106.498C108.88 106.644 108.7 106.883 108.627 107.161C108.554 107.44 108.595 107.736 108.741 107.984C108.887 108.233 109.126 108.413 109.405 108.486C109.684 108.558 109.98 108.517 110.229 108.371L130.022 96.6124C130.26 96.4622 130.43 96.2258 130.496 95.9529C130.563 95.68 130.521 95.3919 130.38 95.1493C130.238 94.9066 130.008 94.7283 129.737 94.6518C129.467 94.5753 129.177 94.6067 128.929 94.7393Z" fill="#1F1E1C"/>
<path d="M124.917 108.154C124.685 108.048 124.425 108.023 124.177 108.082C123.929 108.141 123.708 108.281 123.549 108.479C122.895 108.403 122.232 108.487 121.618 108.724C121.003 108.961 120.456 109.343 120.023 109.839C119.665 110.306 119.406 110.841 119.264 111.412C119.121 111.983 119.098 112.577 119.196 113.158C119.294 113.738 119.511 114.292 119.832 114.784C120.154 115.277 120.574 115.699 121.066 116.022C122.082 116.608 123.289 116.766 124.422 116.464C125.555 116.162 126.522 115.423 127.111 114.41C127.392 113.858 127.559 113.254 127.6 112.636C127.642 112.018 127.557 111.398 127.352 110.814C127.147 110.229 126.826 109.692 126.407 109.235C125.989 108.778 125.482 108.41 124.917 108.154ZM125.315 113.18C125.065 113.699 124.627 114.104 124.09 114.313C123.552 114.523 122.956 114.521 122.42 114.308C122.169 114.179 121.947 114.001 121.766 113.785C121.585 113.568 121.449 113.318 121.366 113.049C121.283 112.779 121.255 112.496 121.283 112.216C121.311 111.935 121.395 111.663 121.529 111.416C121.693 111.199 121.9 111.017 122.136 110.882C122.372 110.747 122.633 110.66 122.903 110.628C123.173 110.596 123.447 110.618 123.709 110.694C123.97 110.769 124.214 110.897 124.425 111.068C124.633 111.26 124.909 111.362 125.192 111.351C125.352 111.626 125.446 111.934 125.467 112.251C125.488 112.568 125.437 112.886 125.315 113.18Z" fill="#1F1E1C"/>
<path d="M138.521 101.421C135.966 100.04 133.794 102.043 132.331 103.989C132.007 104.23 131.735 104.534 131.532 104.883C131.329 105.232 131.198 105.618 131.148 106.019C131.098 106.419 131.13 106.826 131.241 107.214C131.352 107.602 131.541 107.964 131.796 108.277C133.533 110.353 136.617 109.593 138.239 107.821C139.861 106.05 141.222 102.882 138.521 101.421ZM137.24 105.587C136.668 106.476 135.792 107.402 134.663 107.395C134.396 107.416 134.13 107.359 133.895 107.23C133.661 107.102 133.47 106.907 133.345 106.672C133.278 106.431 133.299 106.175 133.403 105.948C133.578 105.87 133.73 105.748 133.845 105.594C134.004 105.579 134.158 105.53 134.298 105.452C134.438 105.374 134.559 105.267 134.655 105.139C134.751 105.011 134.82 104.865 134.856 104.709C134.892 104.553 134.895 104.392 134.865 104.234C135.284 103.681 135.897 103.306 136.581 103.186C138.326 103.005 137.884 104.567 137.24 105.587Z" fill="#1F1E1C"/>
<path d="M149.062 96.0192C147.686 95.3611 144.928 95.4912 143.588 96.6411C143.131 96.818 142.721 97.1 142.393 97.4643C142.065 97.8285 141.827 98.2648 141.699 98.7379C141.57 99.211 141.555 99.7077 141.655 100.188C141.754 100.668 141.965 101.118 142.271 101.501C144.001 103.67 147.15 103.251 149.112 101.638C150.9 100.163 151.509 97.1907 149.062 96.0192ZM148.164 99.5122C147.831 99.9394 147.403 100.284 146.915 100.519C146.426 100.753 145.89 100.872 145.348 100.865C144.851 100.836 144.385 100.619 144.045 100.257C143.886 100.089 143.787 99.874 143.761 99.6447C143.734 99.4153 143.783 99.1836 143.9 98.9842C144.07 99.0153 144.245 98.9964 144.405 98.9296C144.564 98.8628 144.701 98.7511 144.797 98.6082C144.973 98.5922 145.141 98.5285 145.282 98.4239C145.424 98.3194 145.534 98.178 145.601 98.0152C146.147 97.8761 146.71 97.8128 147.273 97.8271C148.345 97.8633 148.917 98.4997 148.164 99.5122Z" fill="#1F1E1C"/>
<path d="M214.239 52.1294H214.174C208.287 49.4055 202.687 46.101 197.458 42.2652C197.291 42.1707 197.103 42.1211 196.911 42.1211C196.72 42.1211 196.531 42.1707 196.365 42.2652C178.662 50.5963 161.255 59.4987 144.146 68.9724C143.964 69.0653 143.815 69.2117 143.719 69.3919C143.579 69.4121 143.447 69.4672 143.334 69.5518C143.222 69.6365 143.132 69.7481 143.074 69.8764C142.133 69.6378 141.149 70.8599 142.017 71.6771C148.243 77.5157 154.255 83.5639 160.051 89.8219C160.163 89.9522 160.309 90.0499 160.472 90.1047C160.635 90.1594 160.81 90.1691 160.978 90.1328C161.429 89.8026 161.915 89.5214 162.426 89.2939C162.508 89.2089 162.603 89.138 162.708 89.0842C164.931 87.956 167.052 86.7122 169.289 85.5406C185.274 75.498 201.442 65.7567 217.794 56.3167C217.931 56.2394 218.048 56.1323 218.138 56.0033C218.227 55.8742 218.287 55.7266 218.311 55.5715C218.335 55.4164 218.324 55.2578 218.279 55.1076C218.233 54.9574 218.154 54.8194 218.047 54.704C216.701 53.9647 215.427 53.1029 214.239 52.1294ZM197.834 45.2881C198.269 45.5268 198.754 45.8811 199.427 46.3367C203.182 48.8828 207.116 51.1547 211.199 53.1347C201.739 56.2299 192.183 59.0093 182.53 61.473C184.678 59.1877 186.905 56.9772 189.212 54.8414C192.448 51.8112 195.568 49.0342 197.834 45.2881ZM181.712 51.7317C184.839 50.1841 187.977 48.6557 191.123 47.1467C192.352 46.4826 193.613 45.8816 194.902 45.346L195.25 45.2303C192.781 48.81 189.458 51.5364 186.266 54.5666C183.63 57.0736 181.094 59.6819 178.657 62.3914C169.086 64.7201 159.433 66.7209 149.699 68.3939C160.283 62.6325 170.954 57.0784 181.712 51.7317ZM160.717 87.3486C155.601 81.8668 150.319 76.5635 144.87 71.4385C155.401 69.7607 165.857 67.6972 176.239 65.248C170.392 72.1196 165.196 79.5182 160.717 87.3486ZM163.946 86.3361L163.794 86.3723C168.349 78.6804 173.621 71.4357 179.54 64.7346C179.656 64.5972 179.779 64.4742 179.895 64.344C191.42 61.5236 202.823 58.2307 214.102 54.4653C214.594 54.6895 215.079 54.9065 215.55 55.1162C198.122 65.1685 180.913 75.5751 163.924 86.3361H163.946Z" fill="#1F1E1C"/>
<path d="M222.978 60.6768C209.15 69.76 195.547 79.8195 180.771 87.3117C179.519 87.9409 180.619 89.8139 181.864 89.1848C196.647 81.6926 210.243 71.633 224.071 62.5498C225.251 61.7905 224.165 59.9102 222.978 60.6768Z" fill="#1F1E1C"/>
<path d="M226.279 66.4698C213.605 74.1355 200.854 81.6759 188.025 89.091C187.776 89.2368 187.596 89.4752 187.523 89.7539C187.451 90.0326 187.492 90.3288 187.638 90.5772C187.784 90.8255 188.022 91.0058 188.301 91.0784C188.58 91.1509 188.877 91.1098 189.126 90.9641C201.944 83.5538 214.693 76.0134 227.372 68.3428C228.567 67.6196 227.474 65.7393 226.279 66.4698Z" fill="#1F1E1C"/>
<path d="M233.721 70.4327L196.249 92.1644C196.011 92.3146 195.841 92.551 195.774 92.8239C195.707 93.0968 195.749 93.3849 195.891 93.6275C196.033 93.8702 196.263 94.0485 196.534 94.125C196.804 94.2015 197.094 94.1701 197.342 94.0375L234.814 72.3419C235.067 72.1971 235.253 71.9577 235.329 71.6762C235.406 71.3948 235.368 71.0945 235.223 70.8413C235.078 70.5881 234.838 70.4029 234.556 70.3262C234.275 70.2496 233.974 70.2879 233.721 70.4327Z" fill="#1F1E1C"/>
<path d="M239.216 73.7668C227.247 81.6851 214.869 88.9704 202.135 95.5925C200.897 96.2434 201.99 98.1164 203.228 97.4656C215.963 90.845 228.341 83.5597 240.309 75.6398C241.468 74.8588 240.353 72.9857 239.216 73.7668Z" fill="#1F1E1C"/>
<path d="M296.409 84.5129V84.4478C295.854 84.2416 295.324 83.9723 294.831 83.6451C276.804 80.7523 263.701 65.5654 248.266 56.9595C231.217 47.4858 212.328 41.7726 195.75 31.3587C197.705 28.8131 197.162 24.5608 196.387 21.1401C199.08 18.4643 203.141 17.9147 206.711 17.0252C210.712 16.0272 214.713 15.0292 218.714 14.0312C223.318 12.8741 228.69 9.88013 226.46 4.1742C224.426 -1.05443 218.41 -0.721764 214.29 1.64305C210.794 3.65351 207.84 6.15573 203.988 7.55148C200.277 8.87988 196.345 9.4886 192.405 9.34498C191.329 6.90829 190.012 4.58499 188.474 2.40963C185.709 -1.40156 180.641 0.312391 176.674 1.02111C163.324 3.40039 150.22 7.7612 137.247 11.6302C124.158 15.5306 111.126 19.6142 98.1532 23.881C83.6306 28.6685 69.2818 34.0779 54.6144 38.4098C51.1032 39.4512 47.5703 40.413 44.0084 41.2519C40.8085 41.9751 37.1525 42.2355 34.1119 43.4866C33.4352 43.7711 32.8112 44.1671 32.2658 44.6581C30.9048 44.311 29.1094 45.9743 28.4288 47.4496C27.1474 50.2556 26.8868 53.6835 26.9809 57.0391C23.5783 57.972 20.4074 57.7622 16.6863 57.3066C14.0254 56.9111 11.3069 57.3218 8.882 58.4854C4.76268 60.4525 -1.27512 65.2038 0.23795 70.5482C1.49764 74.9885 6.87664 76.7965 11.0249 76.5289C17.6057 76.1095 22.9051 71.5968 28.9573 69.3477C29.8061 71.7798 31.2348 73.969 33.1201 75.7262C34.4087 76.8905 36.0159 77.8957 37.4638 77.9536C77.2163 97.9786 114.811 121.251 151.661 146.164C151.794 146.265 151.952 146.327 152.118 146.344C152.284 146.361 152.452 146.331 152.602 146.258C152.702 146.408 152.839 146.529 153.001 146.609C153.162 146.689 153.342 146.725 153.521 146.714C153.643 146.854 153.809 146.949 153.991 146.985C154.173 147.02 154.362 146.994 154.528 146.909C178.66 136.915 202.792 126.918 226.923 116.919C238.21 112.233 248.874 106.498 259.871 101.211C269.287 96.6793 278.904 92.6101 288.72 89.0039H289.162C291.566 87.5575 294.186 86.4655 296.72 85.2433C296.703 84.9713 296.594 84.7134 296.409 84.5129ZM41.0185 60.1488C40.584 57.0879 39.8169 54.0834 38.7308 51.1885C38.072 49.4384 37.4059 47.1314 35.8349 45.9671C35.6367 45.8189 35.426 45.6882 35.2051 45.5766C36.9595 44.9795 38.7613 44.532 40.5913 44.2387C43.2845 43.6746 45.9559 43.0382 48.6055 42.3512C54.3972 40.8469 60.0585 39.0679 65.7054 37.1876C76.2969 33.6657 86.816 29.9196 97.422 26.4194C118.844 19.3466 140.425 12.6789 162.173 6.70535C167.367 5.20226 172.635 3.96402 177.955 2.99541C181.444 2.39516 184.529 1.18021 187.185 4.44178C188.522 6.29422 189.604 8.31803 190.4 10.4587C190.419 10.7039 190.515 10.9368 190.675 11.124C190.849 11.5362 191.022 11.934 191.189 12.31C192.352 14.8929 193.266 17.5809 193.918 20.3374C194.534 23.0421 195.902 28.8854 192.97 30.8959C192.113 31.4441 191.182 31.8656 190.204 32.147C190.866 30.3922 191.144 28.5159 191.02 26.6447C190.895 24.7735 190.37 22.9508 189.48 21.2992C188.836 20.0626 186.961 21.1546 187.605 22.3912C188.473 24.0175 188.913 25.8367 188.887 27.6792C188.86 29.5217 188.367 31.3274 187.453 32.9281C186.968 33.0655 186.49 33.2029 186.049 33.3475L177.361 36.3053C178.697 32.7901 178.697 28.9077 177.361 25.3925C176.876 24.098 174.777 24.6693 175.269 25.971C175.982 27.7898 176.287 29.7428 176.162 31.6922C176.037 33.6416 175.485 35.5398 174.545 37.2527C171.369 38.323 168.191 39.3885 165.011 40.4492C166.009 38.2458 166.192 35.7595 165.525 33.4343C165.438 33.1702 165.252 32.9496 165.007 32.8181C164.762 32.6865 164.475 32.654 164.207 32.7274C163.938 32.8007 163.708 32.9742 163.564 33.212C163.42 33.4499 163.373 33.734 163.432 34.0056C163.814 35.2981 163.861 36.6663 163.569 37.9819C163.276 39.2974 162.654 40.5172 161.76 41.5267C157.73 42.8574 153.69 44.1688 149.641 45.4609C149.577 45.5149 149.506 45.561 149.431 45.5983C148.807 45.8854 148.164 46.1271 147.505 46.3215C145.974 47.0798 144.319 47.5574 142.619 47.7317C132.565 50.8992 122.466 53.9245 112.321 56.8076C104.466 59.0206 96.5822 61.1468 88.6911 63.2512C88.4852 63.2456 88.2819 63.2983 88.1046 63.4031L78.867 65.8475C80.0108 63.5405 79.5909 60.7128 78.9466 58.0226C78.6136 56.6702 76.5141 57.2416 76.8544 58.6011C77.5132 61.2335 78.3023 64.5746 75.6526 66.4043C75.5093 66.5042 75.3905 66.6353 75.3051 66.7876L66.328 69.1307C67.0644 67.9933 67.5447 66.7098 67.736 65.3688C67.9272 64.0278 67.8248 62.6613 67.4357 61.3637C67.0375 60.0258 64.938 60.5971 65.3434 61.935C65.816 63.4607 65.7697 65.0997 65.2118 66.5963C64.6539 68.0929 63.6158 69.3629 62.2594 70.2083L56.5401 71.7125L51.4 73.0432C53.2615 70.3281 54.2237 67.0981 54.1511 63.8081C54.1511 62.4123 51.9792 62.4123 51.9792 63.8081C52.0301 65.6903 51.6882 67.5626 50.9752 69.3057C50.2623 71.0488 49.1939 72.6245 47.8381 73.9327C47.8126 73.9558 47.7906 73.9826 47.773 74.0122L47.049 74.2075C45.4853 74.6125 42.7632 75.6539 40.3669 75.8419V75.784C42.2492 71.2641 41.6917 64.835 41.0185 60.1488ZM206.587 103.265C185.202 114.641 164.055 126.262 142.155 136.589C141.997 136.662 141.86 136.774 141.757 136.915C109.454 115.472 76.4707 95.3896 41.851 77.7583C47.23 76.7892 52.5873 75.1476 57.9012 73.6362L58.0387 73.7519L70.7514 82.4301L77.6869 87.167C79.2651 88.2445 80.9013 89.6981 82.7546 90.1609C86.3744 91.036 89.8494 87.9914 92.7307 86.263L106.681 78.0331C106.843 77.9361 106.977 77.7989 107.07 77.6348C107.163 77.4706 107.212 77.2852 107.212 77.0966C107.212 76.908 107.163 76.7226 107.07 76.5585C106.977 76.3943 106.843 76.2571 106.681 76.1601C101.086 72.8832 95.7988 69.1072 90.8846 64.8784C94.3452 63.9527 97.8081 63.0198 101.273 62.0797C109.213 59.9197 117.126 57.661 125.012 55.3034C121.921 57.35 118.808 59.3749 115.673 61.3492C114.493 62.0724 115.579 63.9672 116.766 63.2223C121.592 60.1946 126.354 57.08 131.05 53.8787C131.239 53.7509 131.385 53.5695 131.47 53.358C133.994 52.5915 136.518 51.8152 139.042 51.0294C133.14 55.5806 127.078 59.9053 120.856 64.0033C119.691 64.7699 120.777 66.6502 121.95 65.8764C129.85 60.6405 137.52 55.0744 144.957 49.178C148.446 48.0788 151.936 46.9627 155.425 45.8297C147.244 54.1355 137.891 61.2011 127.662 66.8021C126.438 67.4746 127.531 69.3477 128.755 68.6751C140.316 62.3432 150.77 54.1783 159.711 44.499C159.738 44.4695 159.762 44.4381 159.784 44.405L162.361 43.5661C162.592 43.5796 162.82 43.5046 162.998 43.3564C168.664 41.4906 174.323 39.6006 179.975 37.6866L189.299 34.5118C190.907 34.082 192.472 33.5083 193.976 32.7979C211.054 43.6457 230.674 49.4311 248.23 59.4111C255.73 63.6996 262.651 69.4272 269.89 74.4895C249.685 86.1328 227.104 92.3522 206.587 103.265Z" fill="#1F1E1C"/>
</svg>
