<svg width="18" height="17" viewBox="0 0 18 17" fill="none" xmlns="http://www.w3.org/2000/svg">
<g clip-path="url(#clip0)">
<path d="M12.73 0.819999C12.608 0.755312 12.474 0.716585 12.3363 0.706258C12.1986 0.695932 12.0603 0.71423 11.93 0.759999C7.77 -0.900001 2.62 0.0499997 0.719998 4.65C0.572422 5.0261 0.445565 5.41001 0.339998 5.8C0.186213 5.95408 0.0806657 6.14964 0.0362657 6.36276C-0.00813425 6.57588 0.0105378 6.79732 0.0899982 7C-0.370002 10.65 1.2 14.62 4.73 16C9.25 17.79 14.45 16.71 16.79 12.16C19 8 16.83 2.92 12.73 0.819999ZM13.07 3.44C13.8893 4.0651 14.5379 4.88668 14.9556 5.82878C15.3733 6.77088 15.5468 7.8031 15.46 8.83C14.0508 8.52888 12.6101 8.40127 11.17 8.45C11.0029 7.82525 10.7992 7.21086 10.56 6.61C11.7009 5.83463 12.5769 4.72832 13.07 3.44ZM11.23 2.62C10.9167 3.4553 10.3891 4.19338 9.7 4.76C9.15127 3.77491 8.50107 2.84989 7.76 2C8.94758 1.95769 10.1305 2.16906 11.23 2.62ZM5.47 2.49C6.43969 3.45387 7.27095 4.54764 7.94 5.74C6.13953 6.31418 4.21546 6.37993 2.38 5.93C2.60432 5.16169 2.99849 4.45363 3.53334 3.85819C4.0682 3.26275 4.73007 2.79516 5.47 2.49ZM2 7.9C4.24358 8.41144 6.58564 8.28325 8.76 7.53C8.91 7.93 9.04 8.34 9.16 8.76L8.79 8.86C6.825 9.65799 5.09686 10.9455 3.77 12.6C3.77 12.6 3.71 12.7 3.67 12.75C3.07622 12.0978 2.62183 11.3312 2.33467 10.4973C2.04751 9.66332 1.93363 8.77951 2 7.9ZM9.55 14.84C8.05821 15.0027 6.55213 14.7098 5.23 14C6.28394 12.6805 7.62906 11.6229 9.16 10.91L9.61 10.77C9.79766 12.0967 9.79766 13.4433 9.61 14.77C9.59866 14.7927 9.58864 14.8161 9.58 14.84H9.55ZM11.55 14.3C11.6804 13.012 11.6603 11.7133 11.49 10.43C12.6454 10.4222 13.7985 10.5362 14.93 10.77C14.3177 12.326 13.1335 13.589 11.62 14.3H11.55Z" fill="#FFFDFD"/>
</g>
<defs>
<clipPath id="clip0">
<rect width="18" height="17" fill="white"/>
</clipPath>
</defs>
</svg>
