<svg width="9" height="14" viewBox="0 0 9 14" fill="none" xmlns="http://www.w3.org/2000/svg">
<g clip-path="url(#clip0)">
<path d="M8.94369 2.82796C8.08045 0.0388703 4.95523 -1.12974 2.89307 1.38667C1.93392 2.56308 1.85399 4.09786 1.89395 5.53915V6.31822C1.52429 6.38712 1.15874 6.47555 0.798927 6.58311C-0.663773 7.04277 -0.000362677 9.2943 1.43836 8.83464C1.60621 8.78011 1.76607 8.74894 1.93392 8.70999C1.93392 10.089 1.93392 11.4757 1.846 12.878C1.75807 14.2804 4.13996 14.3739 4.24387 12.878C4.34777 11.3822 4.37974 9.87081 4.36376 8.3672C4.89787 8.35388 5.43225 8.37993 5.96234 8.4451C6.28031 8.4451 6.58527 8.32198 6.81011 8.10282C7.03496 7.88367 7.16127 7.58642 7.16127 7.27649C7.16127 6.96655 7.03496 6.66931 6.81011 6.45015C6.58527 6.231 6.28031 6.10787 5.96234 6.10787C5.4108 6.04307 4.85519 6.01704 4.29982 6.02997C4.29982 5.74171 4.29982 5.46124 4.29982 5.18077C4.26926 4.69088 4.29877 4.19919 4.38774 3.71611C4.87797 2.06447 5.63196 1.97358 6.64973 3.44343C7.07335 4.88472 9.39129 4.26925 8.94369 2.82796Z" fill="white"/>
</g>
<defs>
<clipPath id="clip0">
<rect width="9" height="14" fill="white"/>
</clipPath>
</defs>
</svg>
