<svg width="16" height="15" viewBox="0 0 16 15" fill="none" xmlns="http://www.w3.org/2000/svg">
<g clip-path="url(#clip0)">
<path d="M15.779 3.34029C15.6501 2.54285 15.2612 1.80762 14.6702 1.24446C14.0792 0.681302 13.3179 0.320454 12.5 0.215835C9.92368 -0.288532 6.43727 0.196184 3.85426 0.582647C3.68027 0.608848 3.50628 0.6547 3.34568 0.6547H2.10771C1.9252 0.657275 1.74652 0.706349 1.58928 0.797088C1.43205 0.887826 1.30167 1.0171 1.21101 1.17217C1.00578 1.22269 0.822662 1.33665 0.688851 1.49713C0.555041 1.65761 0.477669 1.85606 0.468224 2.063C0.267472 5.23985 -0.361554 9.00623 0.280855 12.1176C0.628827 13.8075 1.79319 14.2071 3.39252 14.4102C6.43058 14.777 10.0843 15.2027 13.1491 14.9014C14.8354 14.7377 15.4444 13.7289 15.5849 12.1831C15.8325 9.50404 16.2608 5.98658 15.779 3.34029ZM6.18968 7.51278C6.34359 6.54335 7.03284 5.48221 8.19721 5.84247C8.56812 5.9666 8.8938 6.19431 9.13405 6.49749C9.30931 6.58943 9.45555 6.7265 9.55698 6.8939C9.65841 7.0613 9.71117 7.25265 9.70955 7.44728C9.70955 7.48658 9.70955 7.52588 9.70955 7.56518C9.78954 7.8258 9.78954 8.10369 9.70955 8.36431C9.64062 8.598 9.4967 8.80379 9.29907 8.95123C9.10143 9.09868 8.86057 9.17997 8.6121 9.18308C8.52398 9.20252 8.43255 9.20252 8.34443 9.18308H8.31097C8.22225 9.19629 8.13201 9.19629 8.0433 9.18308C7.97866 9.18665 7.91387 9.18665 7.84924 9.18308C7.57766 9.20247 7.30607 9.14567 7.0663 9.01933C6.95401 8.95661 6.85426 8.87449 6.77186 8.77697C6.5486 8.6558 6.37131 8.46727 6.2664 8.23946C6.16149 8.01166 6.13458 7.75677 6.18968 7.51278ZM12.5335 12.9298C11.3223 13.3163 9.23443 12.7726 7.963 12.7006C6.69156 12.6285 4.61712 12.9167 3.39252 12.4385C1.92703 11.8556 2.05417 9.81845 2.18132 8.2857C2.85049 8.2857 3.55313 8.33811 4.22899 8.41016C4.28437 8.9272 4.43874 9.4294 4.68403 9.89051C5.42013 11.1612 7.13322 11.5412 8.5251 11.456C9.43486 11.3895 10.2881 10.9988 10.9233 10.3578C11.5584 9.71674 11.9313 8.86997 11.9714 7.97784C12.5453 7.94623 13.1171 7.88501 13.6845 7.79444V8.194C13.651 9.5499 14.2064 12.4058 12.5335 12.9298ZM13.6711 5.82282C12.9276 5.961 12.1727 6.03118 11.4159 6.03243C11.1106 5.60667 10.7178 5.24807 10.2626 4.97961C9.80739 4.71115 9.29992 4.53875 8.7727 4.47348C8.73033 3.70907 8.74823 2.94261 8.82623 2.1809C9.1742 2.1809 9.52887 2.1285 9.87684 2.1154C11.3758 2.0499 12.1855 1.83374 13.1157 3.19618C13.6067 3.98221 13.8402 4.89652 13.7848 5.81627C13.7468 5.81398 13.7086 5.81618 13.6711 5.82282Z" fill="white"/>
</g>
<defs>
<clipPath id="clip0">
<rect width="16" height="15" fill="white"/>
</clipPath>
</defs>
</svg>
