<svg width="11" height="18" viewBox="0 0 11 18" fill="none" xmlns="http://www.w3.org/2000/svg">
<path d="M9.35 0H1.65C0.739062 0 0 0.755859 0 1.6875V16.3125C0 17.2441 0.739062 18 1.65 18H9.35C10.2609 18 11 17.2441 11 16.3125V1.6875C11 0.755859 10.2609 0 9.35 0ZM5.5 16.875C4.89156 16.875 4.4 16.3723 4.4 15.75C4.4 15.1277 4.89156 14.625 5.5 14.625C6.10844 14.625 6.6 15.1277 6.6 15.75C6.6 16.3723 6.10844 16.875 5.5 16.875ZM9.35 13.0781C9.35 13.3102 9.16438 13.5 8.9375 13.5H2.0625C1.83563 13.5 1.65 13.3102 1.65 13.0781V2.10938C1.65 1.87734 1.83563 1.6875 2.0625 1.6875H8.9375C9.16438 1.6875 9.35 1.87734 9.35 2.10938V13.0781Z" fill="white"/>
</svg>
