<svg width="34" height="34" viewBox="0 0 34 34" xmlns="http://www.w3.org/2000/svg">
<path d="M23.4167 15.8333H18.4583C18.2833 15.8333 18.1667 15.7167 18.1667 15.5417V10.5833C18.1667 10.2333 17.9333 10 17.5833 10H16.4167C16.0667 10 15.8333 10.2333 15.8333 10.5833V15.5417C15.8333 15.7167 15.7167 15.8333 15.5417 15.8333H10.5833C10.2333 15.8333 10 16.0667 10 16.4167V17.5833C10 17.9333 10.2333 18.1667 10.5833 18.1667H15.5417C15.7167 18.1667 15.8333 18.2833 15.8333 18.4583V23.4167C15.8333 23.7667 16.0667 24 16.4167 24H17.5833C17.9333 24 18.1667 23.7667 18.1667 23.4167V18.4583C18.1667 18.2833 18.2833 18.1667 18.4583 18.1667H23.4167C23.7667 18.1667 24 17.9333 24 17.5833V16.4167C24 16.0667 23.7667 15.8333 23.4167 15.8333Z" />
</svg>
