<svg width="85" height="79" viewBox="0 0 85 79" fill="none" xmlns="http://www.w3.org/2000/svg">
<g clip-path="url(#clip0)">
<path d="M83.8704 13.3901C82.3904 11.3401 80.8704 9.29005 79.5104 7.17005C78.4304 5.50005 77.5904 3.58005 76.3804 2.00005C74.0604 -0.999949 70.9204 0.880051 68.3804 2.64005C67.7774 2.05189 67.2223 1.41654 66.7204 0.740051C66.6015 0.546295 66.4407 0.381666 66.2498 0.258285C66.0589 0.134905 65.8427 0.055914 65.6172 0.0271291C65.3917 -0.00165579 65.1627 0.0204982 64.9469 0.0919598C64.7311 0.163422 64.5341 0.282371 64.3704 0.440051C61.5604 3.52005 58.2404 5.18005 55.1404 7.75005C54.9904 7.87005 54.8504 8.01005 54.7104 8.14005C54.4831 8.05836 54.2392 8.03431 54.0004 8.07005C43.6937 9.53005 33.4137 11.1967 23.1604 13.0701C18.0404 14.0234 12.9337 15.0234 7.84036 16.0701C5.68036 16.5201 1.01036 16.4801 0.140357 19.0701C-0.279643 20.2701 0.520357 22.1401 0.760357 23.2601C1.29036 25.7901 1.83036 28.3301 2.37036 30.8601C3.45702 35.9401 4.56702 41.0067 5.70036 46.0601C8.10036 56.4601 10.7804 66.8001 13.9204 77.0001C14.0425 77.3716 14.3023 77.6823 14.6463 77.8683C14.9904 78.0543 15.3926 78.1014 15.7704 78.0001C37.7304 72.0001 59.3637 64.9534 80.6704 56.8601C81.0038 56.752 81.2918 56.5362 81.4891 56.2465C81.6864 55.9569 81.7819 55.6099 81.7604 55.26C81.9852 55.1459 82.1654 54.9599 82.2723 54.7316C82.3792 54.5033 82.4067 54.2458 82.3504 54L82.2904 53.6C80.957 43.2534 79.4637 32.9201 77.8104 22.6001C78.9904 21.6001 80.1704 20.6001 81.3704 19.6001C81.604 19.3668 81.7541 19.063 81.7975 18.7358C81.8409 18.4085 81.7751 18.0761 81.6104 17.7901L80.8004 16.4401L83.3304 15.3601C83.6544 15.1623 83.8907 14.8483 83.9911 14.4821C84.0914 14.116 84.0482 13.7254 83.8704 13.3901ZM61.3404 53.7001C60.1204 54.0601 58.8704 54.3601 57.6404 54.7001C54.8737 55.4534 52.1104 56.2201 49.3504 57C43.8304 58.6 38.337 60.2667 32.8704 62C30.1104 63 27.3604 64.0001 24.5804 64.8001C24.039 64.6841 23.5099 64.5167 23.0004 64.3001C22.5904 63.6601 22.3404 62.92 21.9104 62.3C20.4104 56.3 18.9037 50.3 17.3904 44.3C17.3676 44.2033 17.3341 44.1094 17.2904 44.0201C16.4804 39.09 15.1104 34.2601 14.3704 29.3101C14.1004 27.4501 13.3704 25.6001 14.5004 24.0201C15.6304 22.4401 17.2504 22.7901 19.0404 22.5801L27.6504 21.5801L42.6504 19.8801C38.6504 23.4401 34.6504 27.0601 30.8704 30.8801C30.6617 30.6761 30.3988 30.5365 30.113 30.478C29.8272 30.4194 29.5306 30.4443 29.2585 30.5498C28.9865 30.6552 28.7506 30.8367 28.5789 31.0726C28.4072 31.3085 28.3071 31.5888 28.2904 31.8801C28.6704 39.3334 28.7004 46.7834 28.3804 54.23C28.3855 54.4595 28.4423 54.6849 28.5464 54.8895C28.6505 55.0941 28.7993 55.2726 28.9818 55.4118C29.1642 55.5511 29.3757 55.6475 29.6005 55.6939C29.8253 55.7404 30.0576 55.7356 30.2804 55.68L49.2804 51.34C49.4546 51.3014 49.6192 51.2281 49.7645 51.1245C49.9097 51.021 50.0327 50.8892 50.126 50.7371C50.2193 50.585 50.2811 50.4157 50.3076 50.2393C50.3341 50.0628 50.3248 49.8828 50.2804 49.71C50.7837 49.5684 51.2578 49.3381 51.6804 49.03C53.9304 47.46 55.8804 44.14 57.6804 42.1C58.9104 40.72 60.1504 39.37 61.4204 38.0201C61.5204 39.78 61.6804 41.52 61.9204 43.26C62.2504 45.67 63.4004 48.54 63.4204 50.94C63.4404 53.34 64.0004 52.89 61.3404 53.7001ZM31.4604 36.5801C34.4604 39.5201 38.5904 41.6701 41.6604 44.3601C43.1104 45.62 44.7604 47.71 46.6004 48.93L36.1604 51.3101C36.0975 51.1657 36.0094 51.0336 35.9004 50.92L32.7004 47.44C32.56 47.2774 32.3814 47.1521 32.1808 47.0753C31.9801 46.9985 31.7635 46.9726 31.5504 47C31.5904 43.53 31.5704 40.0501 31.4604 36.5801ZM76.3704 45.4001C74.2704 46.2001 72.1104 46.8301 70.0604 47.75C68.3304 48.53 66.8204 45.97 68.5604 45.19C70.8504 44.19 73.2404 43.43 75.5604 42.5401C77.3704 41.8601 78.1404 44.7301 76.3704 45.4001ZM66.8304 36.3101C66.8312 36.0698 66.8943 35.834 67.0135 35.6254C67.1327 35.4169 67.3039 35.2427 67.5104 35.12C67.6796 34.1698 68.2032 33.3192 68.9753 32.74C69.7475 32.1609 70.7107 31.8964 71.6704 32.0001C72.9384 32.2002 74.0777 32.889 74.844 33.9189C75.6104 34.9488 75.9429 36.2379 75.7704 37.51C75.7352 38.0961 75.5829 38.6691 75.3224 39.1952C75.0619 39.7213 74.6985 40.1898 74.2538 40.573C73.8091 40.9562 73.292 41.2463 72.7332 41.4261C72.1743 41.606 71.5851 41.6719 71.0004 41.62C68.3004 41.38 66.7204 38.91 66.8304 36.3101ZM55.6004 40C54.3504 41.41 52.0804 45.34 50.4404 46C47.8004 47.12 44.7704 43 43.1304 41.59C40.0004 39 35.4004 36.67 32.6004 33.41C38.5204 27.41 44.6704 22.0001 51.0504 16.5201C53.8904 14.0801 55.6804 10.9601 58.8404 8.85005C61.1785 7.37251 63.3598 5.66032 65.3504 3.74005C66.2525 4.69101 67.218 5.57972 68.2404 6.40005C63.3204 10.8667 58.217 15.1234 52.9304 19.1701C51.4204 20.3301 52.9304 22.9301 54.4504 21.7601C60.0237 17.5201 65.3937 13.0467 70.5604 8.34005C70.7104 8.47005 70.8604 8.58005 71.0104 8.72005C71.6604 9.30005 72.2704 9.91005 72.8604 10.5501C68.8192 14.3066 64.5222 17.7783 60.0004 20.9401C58.4204 22.0301 59.9204 24.6401 61.5104 23.5301C66.1693 20.281 70.5997 16.7159 74.7704 12.8601C75.2504 13.4901 75.6904 14.1501 76.1304 14.8601C70.496 19.8302 64.6117 24.5096 58.5004 28.8801C56.9404 30.0001 58.4404 32.6001 60.0004 31.4701C66.1604 27.0567 72.0804 22.3501 77.7604 17.3501C77.9604 17.6701 78.1604 17.9801 78.3504 18.3001C70.2066 24.9221 62.5995 32.1781 55.6004 40Z" fill="black"/>
<path d="M71.4705 35.0001C70.4705 34.7901 70.2505 35.8101 70.2905 36.8401C70.3165 37.1664 70.2202 37.4908 70.0205 37.7501C70.1154 38.0146 70.2814 38.2478 70.5001 38.4242C70.7188 38.6006 70.9819 38.7134 71.2605 38.7501C71.6286 38.7896 71.9975 38.6828 72.2875 38.4527C72.5775 38.2225 72.7654 37.8876 72.8105 37.5201C72.9457 37.0085 72.8829 36.4647 72.6344 35.9975C72.386 35.5303 71.9703 35.1741 71.4705 35.0001Z" fill="black"/>
</g>
<defs>
<clipPath id="clip0">
<rect width="84.08" height="78.11" fill="white"/>
</clipPath>
</defs>
</svg>
