<svg width="67" height="80" viewBox="0 0 67 80" fill="none" xmlns="http://www.w3.org/2000/svg">
<g clip-path="url(#clip0)">
<path d="M17.6398 55.6982C17.5993 55.6818 17.5578 55.6677 17.5157 55.6558C17.4437 55.5903 17.3531 55.549 17.2564 55.5376C17.1598 55.5262 17.062 55.5453 16.9768 55.5923C16.9064 55.6288 16.8412 55.6746 16.783 55.7284C16.6828 55.7865 16.5978 55.8674 16.5347 55.9644C16.4204 56.1384 16.3751 56.3487 16.4075 56.5543C16.3517 56.6853 16.3255 56.8269 16.3307 56.9691C16.336 57.1114 16.3725 57.2507 16.4378 57.3772C16.5301 57.5425 16.6824 57.6661 16.8633 57.7224C17.0442 57.7787 17.2398 57.7634 17.4097 57.6797C17.4967 57.6384 17.5756 57.5821 17.6429 57.5133C17.712 57.4842 17.7755 57.4433 17.8306 57.3923C17.9133 57.3119 17.9775 57.2146 18.0188 57.107C18.0601 56.9994 18.0775 56.8841 18.0698 56.7691C18.1506 56.5697 18.151 56.3467 18.0708 56.1471C17.9907 55.9474 17.8362 55.7865 17.6398 55.6982Z" fill="#1F1E1C"/>
<path d="M51.3642 55.2503C51.3866 55.0942 51.3579 54.935 51.2824 54.7965C51.2357 54.7099 51.1742 54.6321 51.1008 54.5666C51.0553 54.491 51.0099 54.4214 50.9615 54.3518C50.9258 54.2924 50.8772 54.2419 50.8193 54.2039C50.7613 54.166 50.6955 54.1416 50.6268 54.1326C50.5581 54.1236 50.4883 54.1302 50.4225 54.1519C50.3567 54.1736 50.2967 54.2099 50.2469 54.258L50.147 54.3851C49.4415 54.6694 49.387 55.8644 50.0319 56.2637C50.1393 56.3233 50.2579 56.3598 50.3802 56.3709C50.5025 56.382 50.6257 56.3674 50.742 56.3281C50.8584 56.2888 50.9652 56.2256 51.0556 56.1426C51.1461 56.0597 51.2182 55.9587 51.2673 55.8463C51.3606 55.6624 51.3944 55.4542 51.3642 55.2503Z" fill="#1F1E1C"/>
<path d="M23.8205 62.018C23.6342 61.4799 23.2484 61.0338 22.7426 60.7716C22.7777 60.701 22.7952 60.623 22.7936 60.5443C22.7921 60.4655 22.7716 60.3883 22.7339 60.3191C22.6962 60.25 22.6423 60.1909 22.5769 60.147C22.5115 60.103 22.4364 60.0755 22.3581 60.0667C20.6988 59.9154 18.8397 60.0667 18.1373 61.8183C17.4923 63.4398 17.783 65.9811 19.0789 67.2154C19.5657 67.7149 20.2299 68.0027 20.9276 68.0163C21.6253 68.0299 22.3003 67.7682 22.8062 67.288C24.0749 66.096 24.3928 63.6062 23.8205 62.018ZM22.1613 66.6466C20.063 68.489 18.7398 65.1703 18.7731 63.5306C18.8004 62.1632 19.3787 61.4553 20.2477 61.1406C19.2666 62.0149 18.982 63.6516 19.4423 64.8375C19.9025 66.0234 21.592 66.7707 22.4156 65.4426C23.112 64.3293 22.6397 62.744 21.4437 62.2751C21.1954 62.1783 20.9713 62.3871 20.8835 62.5776C20.8532 62.6563 20.8199 62.735 20.7866 62.8136C20.614 63.2311 21.0894 63.464 21.4346 63.3007C21.6859 63.5427 21.9311 63.9662 21.804 64.2083L20.3991 64.7437C20.3173 64.411 20.2325 64.0782 20.1508 63.7454C20.066 62.5353 21.0319 60.9743 22.3157 61.7094C23.7115 62.5292 23.2664 65.6664 22.1613 66.6406V66.6466Z" fill="#1F1E1C"/>
<path d="M49.8993 60.1663C49.9514 60.1186 49.9919 60.0596 50.0176 59.9939C50.0433 59.9281 50.0537 59.8573 50.0478 59.787C50.042 59.7166 50.0201 59.6485 49.9839 59.5879C49.9476 59.5273 49.898 59.4757 49.8388 59.4372C48.5943 58.6446 47.3711 58.3905 46.4294 59.7035C45.5076 61.031 45.1444 62.6671 45.4181 64.2595C45.6452 65.4696 46.4809 66.7614 47.8646 66.7614C49.3059 66.7614 50.2415 65.1701 50.6139 63.9691C50.9863 62.7681 50.8682 61.1102 49.8993 60.1663ZM49.2181 64.8131C47.3559 67.3725 46.1206 64.4955 46.2508 62.8467C46.3386 61.7637 46.7867 60.2964 47.7435 59.9183C47.5347 60.0886 47.3566 60.2932 47.2167 60.5233C46.7473 61.2675 46.0812 63.364 47.0229 64.0175C48.2158 64.8404 48.5368 62.9163 48.7306 62.278C48.9032 61.7183 48.0281 61.4793 47.8555 62.039C47.7496 62.3748 47.2681 63.6635 47.583 62.0692C47.7072 61.446 48.1008 60.1694 49.1333 60.7048C50.4716 61.3946 49.86 63.9298 49.2181 64.8131Z" fill="#1F1E1C"/>
<path d="M37.2424 61.1497C37.2424 61.9393 36.5006 62.9649 35.6013 62.6624C35.026 62.4809 34.7112 61.7124 34.2055 61.3645C33.6999 61.0166 33.2669 61.8183 33.7453 62.1481C34.2237 62.4778 34.4205 63.0133 34.8777 63.334C35.1062 63.4831 35.3661 63.5774 35.6372 63.6094C35.9082 63.6414 36.183 63.6103 36.44 63.5185C36.9391 63.352 37.3729 63.0326 37.68 62.6058C37.9871 62.179 38.1518 61.6663 38.1508 61.1407C38.1508 60.5659 37.2424 60.5659 37.2424 61.1497Z" fill="#1F1E1C"/>
<path d="M36.231 57.2714C35.9616 57.5043 35.6043 58.0126 35.1895 57.7464C35.0623 57.6617 35.0048 56.2761 34.9775 56.025C34.9279 55.3342 34.8092 54.6501 34.6233 53.9829C34.2629 52.8424 33.5938 51.8653 32.4795 51.3843C31.9497 51.1483 31.4864 51.9288 32.0223 52.1678C34.4446 53.2418 33.7785 56.1339 34.3659 58.2183C34.8261 59.8489 36.0857 58.5965 36.8729 57.9158C37.315 57.5316 36.6701 56.8932 36.231 57.2714Z" fill="#1F1E1C"/>
<path d="M65.4007 54.7236C65.3735 51.3172 65.2917 47.9138 65.0979 44.5134C64.9374 41.7271 64.7073 38.9439 64.3622 36.1727C64.0745 33.8766 63.6415 31.7619 62.1821 29.9558C62.1367 29.8681 62.0913 29.7804 62.0428 29.6957C60.9982 27.8805 59.563 26.3679 58.5124 24.5527L58.0703 23.7964C57.4579 22.7055 56.6944 21.7063 55.8025 20.8286C56.8672 20.5973 57.8628 20.1197 58.7092 19.434C61.0255 17.5432 61.737 14.409 61.8157 11.5501C61.8914 8.54303 61.2102 5.37256 59.1089 3.11269C58.0496 1.97879 56.6812 1.17952 55.1727 0.813488C54.9183 0.707604 54.6579 0.610795 54.3945 0.526088C53.0159 0.101817 51.5695 -0.0583061 50.1313 0.0541473C49.7922 0.0208694 49.4561 -0.000307447 49.1261 -0.000307447C45.1899 -0.0245095 42.162 2.3836 40.0426 5.42701C38.7925 7.01464 37.8592 8.82732 37.2933 10.7666C37.1661 11.0116 37.048 11.2627 36.9421 11.5199C36.6698 12.1742 36.5101 12.8697 36.4697 13.5771C36.0163 13.3952 35.5441 13.2643 35.0618 13.1868C33.5024 12.8781 31.9101 12.7693 30.3232 12.8631C30.1022 12.8631 29.8418 12.8631 29.5511 12.8813C27.875 12.7887 26.1942 12.8312 24.5249 13.0083C23.8282 11.7984 22.9255 10.7194 21.8574 9.81969C20.404 8.12252 18.666 6.7309 16.5314 5.95038C15.38 5.33175 14.0933 5.00748 12.786 5.0065C11.8348 5.00961 10.8906 5.16905 9.99127 5.47844C7.60181 5.93285 5.40911 7.10798 3.7085 8.84556C2.7212 9.86371 1.91439 11.0422 1.32257 12.3307C0.102349 14.3183 -0.218602 16.917 0.302186 19.2162C0.717289 22.287 2.18671 25.1185 4.45941 27.227C5.24334 28.1181 6.21967 28.8194 7.31466 29.2782C2.20367 34.9082 1.58902 42.8071 1.42854 50.0768C1.34103 54.5851 0.998337 59.0848 0.402105 63.5544C0.120516 65.6479 -0.388161 68.3706 0.495968 70.4187C0.495968 70.4762 0.495968 70.5337 0.495968 70.5911C0.617081 72.9962 4.5351 73.8524 4.95597 71.1962C5.13764 70.0617 5.37381 68.9424 5.6554 67.8382C6.86654 68.7034 8.68324 68.1618 9.4947 66.8489C10.2032 65.7084 10.2244 64.3137 10.2729 63.0159C10.3112 61.9752 10.399 60.9436 10.5363 59.921C11.6657 67.0365 15.2809 73.5135 22.1329 77.3465C24.9709 78.9634 28.1577 79.8715 31.4223 79.9937C35.0557 80.0935 38.4802 78.9046 41.7503 77.3889C45.2474 75.7643 48.6568 74.0067 51.2849 71.1175C52.9361 69.277 54.2869 67.1882 55.2877 64.9278C55.5905 67.3753 55.5633 71.538 58.1339 72.6876C58.769 72.9722 59.4844 73.0229 60.1534 72.8308C60.8224 72.6386 61.4016 72.216 61.7885 71.6379C62.2124 70.9905 62.3184 70.219 62.3941 69.4415C62.5314 69.558 62.6526 69.6923 62.7544 69.8409C63.9352 71.6137 67.069 71.0722 66.9933 68.6943C66.8298 64.0324 66.1486 59.3553 65.4007 54.7236ZM44.3875 75.0897C41.1477 76.7687 37.7263 78.4719 34.0656 78.9499C30.8355 79.3361 27.5609 78.8503 24.5824 77.5432C18.1907 74.8205 13.767 69.1178 11.9654 62.4925C11.4918 60.736 11.1826 58.9394 11.0419 57.1257C11.0873 56.926 11.1328 56.7264 11.1812 56.5206C11.201 56.4484 11.201 56.3721 11.1812 56.2998C12.2364 50.6378 13.6523 45.0488 15.4202 39.5671C18.1853 40.3568 21.0019 40.9542 23.8497 41.355C28.4126 41.9601 32.8636 41.5547 37.3811 40.7681C40.6875 40.1933 44.0605 39.6457 47.2428 38.5476C47.9634 38.4387 48.678 38.3086 49.3804 38.1452C50.1401 37.9739 50.8892 37.7587 51.624 37.5008C52.9189 40.4303 53.7445 43.5451 54.0705 46.7309C54.2038 48.056 54.4066 49.3538 54.6398 50.6426C54.466 54.782 54.6097 58.9286 55.0697 63.0461C53.0713 68.2072 49.5379 72.4244 44.3875 75.0897Z" fill="#1F1E1C"/>
</g>
<defs>
<clipPath id="clip0">
<rect width="67" height="80" fill="white"/>
</clipPath>
</defs>
</svg>
