<?xml version="1.0" encoding="UTF-8"?> <!-- Generator: Adobe Illustrator 24.0.0, SVG Export Plug-In . SVG Version: 6.00 Build 0) --> <svg xmlns="http://www.w3.org/2000/svg" xmlns:xlink="http://www.w3.org/1999/xlink" id="Layer_1" x="0px" y="0px" viewBox="0 0 384 332.8" style="enable-background:new 0 0 384 332.8;" xml:space="preserve"> <style type="text/css"> .st0{fill:#36D2AE;} .st1{fill:#EF5253;} .st2{fill:#6A66E5;} .st3{fill:#FFC42D;} </style> <g> <g> <g> <path class="st3" d="M364.8,205.7l0-30.2c1.4-0.1,2.8-0.3,4.2-0.7c6.3-1.8,11.4-6.5,13.6-12.7c1.1-3.2,1.6-6.5,1.4-9.9 c-1-13.9-12.7-24.5-26.7-24.2h-0.5C337.6,52.7,269.7,0,192,0C114.3,0,46.4,52.7,27.2,128h-0.5C12.8,127.7,1.1,138.4,0,152.2 c-0.2,3.4,0.3,6.7,1.4,9.9c2.2,6.2,7.2,11,13.6,12.7c1.4,0.4,2.8,0.6,4.2,0.7v30.2C7.9,208.6,0,218.7,0,230.4 c0,11.7,7.9,21.8,19.2,24.7v39.3c0,21.2,17.2,38.4,38.4,38.4h268.8c21.2,0,38.4-17.2,38.4-38.4v-39.3c11.3-2.9,19.2-13,19.2-24.7 C384,218.7,376.1,208.6,364.8,205.7L364.8,205.7z M192,12.8C262.6,13,324.6,60,343.7,128H40.3C59.4,60,121.4,13,192,12.8 L192,12.8z M18.6,162.6c-2.4-0.6-4.3-2.4-5.1-4.7c-0.6-1.6-0.8-3.3-0.7-4.9c0.8-7,6.8-12.3,13.9-12.1h330.6 c7.1-0.2,13.1,5.1,13.9,12.1c0.1,1.7-0.1,3.4-0.7,5c-0.8,2.3-2.7,4.1-5.1,4.7c-2.3,0.6-4.7,0.4-6.8-0.5c-0.2-0.1-0.4-0.1-0.5-0.2 c-0.6-0.3-1.3-0.7-1.8-1.1c-0.1-0.1-0.2-0.1-0.3-0.2c-0.1,0-0.1-0.1-0.2-0.1c-1.2-0.9-2.4-1.7-3.6-2.4c-0.3-0.2-0.7-0.4-1-0.6 c-1.3-0.7-2.7-1.3-4-1.8l0,0c-5.7-2.1-11.8-2.6-17.8-1.4c-9,1.8-16.8,7.4-21.3,15.4c-3.2,5.8-9.3,9.4-15.9,9.5h0 c-1.1,0-2.2-0.1-3.2-0.3c-6-0.8-11.4-4.2-14.6-9.4c-0.8-1.2-1.6-2.4-2.5-3.5c-0.8-1-1.7-1.9-2.6-2.8c-0.1-0.1-0.2-0.2-0.2-0.3 c-6-5.8-14-9.1-22.4-9.2c-0.1,0-0.2,0-0.3,0l-0.1,0c-0.3,0-0.5,0-0.8,0c-11.2,0.2-21.5,6.3-26.9,16.1c-3.3,6-16,9.5-26.4,9.5 c-1.7,0-3.4-0.1-5.2-0.3c-0.2,0-0.4-0.1-0.6-0.1c-5.8-0.5-11.3-2.3-16.4-5.1c-1.7-1-3.2-2.4-4.2-4c-5.5-9.8-15.7-15.9-26.9-16.1 c-0.3,0-0.6,0-0.8,0c-0.8,0-1.5,0.1-2.3,0.1c-0.5,0-1,0-1.5,0.1c-1,0.1-2,0.3-2.9,0.5c-0.4,0.1-0.8,0.1-1.2,0.2 c-1,0.2-1.9,0.6-2.8,0.9c-0.4,0.1-0.8,0.3-1.2,0.4c-0.8,0.3-1.7,0.7-2.5,1.1c-0.5,0.2-0.9,0.4-1.4,0.7c-0.7,0.4-1.4,0.9-2.1,1.3 c-0.5,0.3-1,0.6-1.5,1c-0.6,0.4-1.1,0.9-1.7,1.4c-0.5,0.4-1.1,0.8-1.6,1.3c-0.5,0.5-1,1-1.4,1.5c-0.5,0.5-1,1-1.5,1.6 c-0.6,0.8-1.2,1.6-1.7,2.4c-0.3,0.4-0.6,0.8-0.8,1.2l0,0c-0.8,1.3-1.8,2.5-2.9,3.6c-0.2,0.3-0.5,0.5-0.7,0.8 c-1,0.9-2.1,1.7-3.2,2.4h0c-0.4,0.3-0.8,0.5-1.2,0.7c-1.1,0.6-2.2,1-3.4,1.4l-0.2,0.1c-0.3,0.1-0.7,0.2-1.1,0.3 c-1.3,0.3-2.7,0.5-4,0.5l-0.1,0c-0.5,0-1.1,0-1.6-0.1c-0.2,0-0.4-0.1-0.6-0.1c-0.1,0-0.1,0-0.2-0.1c-5.7-0.8-10.7-4.2-13.5-9.3 c-4.5-8-12.3-13.7-21.3-15.4c-2.4-0.5-4.9-0.7-7.4-0.6c-7.4,0-14.5,2.4-20.3,6.9C25.4,162.7,21.9,163.4,18.6,162.6L18.6,162.6z M266.9,206.7c-1.2-1.2-2.8-1.9-4.5-1.9h-89.6V189c0.4,0.1,0.9,0.2,1.3,0.4c1.2,0.4,2.5,0.7,3.7,1c0.1,0,0.2,0,0.3,0.1 c4.6,1,9.2,1.5,13.9,1.6c0.1,0,0.3,0,0.4,0c0.2,0,0.6,0,0.7,0c10.6,0,30.5-3.4,37.6-16.1c3.2-5.6,9-9.2,15.5-9.4 c1.1,0,2.2,0.2,3.3,0.4c0.5,0.1,1,0.1,1.5,0.2c3.3,0.8,6.3,2.5,8.8,4.8c0,0,0.1,0.1,0.2,0.1c1.3,1.3,2.5,2.7,3.5,4.2 c6.1,10.1,17.1,16.1,28.9,15.8c0.1,0,0.2,0,0.3,0c11.5,0.1,22-6.1,27.7-16c3.3-5.9,9.6-9.5,16.3-9.4h0c1.1,0,2.2,0.2,3.3,0.4 c0.5,0.1,1,0.3,1.5,0.4c0.8,0.2,1.5,0.5,2.3,0.8c0.4,0.2,0.8,0.3,1.2,0.5c1.1,0.6,2.2,1.2,3.2,2c1.2,1,2.6,1.8,4,2.5l0,31.6 h-51.2c-1.7,0-3.3,0.7-4.5,1.9c-1.2,1.2-1.9,2.8-1.9,4.5V256c0,7.1-5.7,12.8-12.8,12.8c-7.1,0-12.8-5.7-12.8-12.8v-44.8 C268.8,209.5,268.1,207.9,266.9,206.7L266.9,206.7z M256,217.6v25.6h-83.2v-25.6H256z M128,204.8c-3.5,0-6.4,2.9-6.4,6.4 c0,7.1-5.7,12.8-12.8,12.8c-7.1,0-12.8-5.7-12.8-12.8v-19.4c2-0.2,3.9-0.6,5.9-1.2l0.1,0c0,0,0.7-0.2,0.7-0.2l0.1,0 c1-0.3,2-0.7,3-1.1l0.1,0c0.4-0.2,0.8-0.3,1.1-0.5c0.1-0.1,0.2-0.1,0.3-0.2c0.7-0.4,1.4-0.8,2.1-1.2c0.2-0.1,0.4-0.2,0.6-0.3 l1-0.6c0.1-0.1,0.2-0.2,0.3-0.2c0.6-0.4,1.2-0.9,1.7-1.3c0.2-0.2,0.4-0.3,0.6-0.4c0.3-0.3,0.7-0.5,1-0.8c0.1-0.1,0.2-0.2,0.3-0.3 c0.2-0.2,0.5-0.5,0.7-0.7c0.5-0.5,0.9-1,1.5-1.6c0.3-0.3,0.5-0.5,0.8-0.9l0.1-0.1c1-1.2,1.9-2.5,2.8-3.8 c3.8-6.1,10.5-9.9,17.7-9.8c6.7,0.1,12.8,3.7,16.1,9.5c0.8,1.4,1.8,2.7,2.8,3.8c0.5,0.5,1,1,1.6,1.5c0.4,0.4,0.7,0.8,1.1,1.1 v92.8c0,7.1-5.7,12.8-12.8,12.8s-12.8-5.7-12.8-12.8v-64C134.4,207.7,131.5,204.8,128,204.8L128,204.8z M83.2,190.6v14.2H32 v-31.2c1.8-0.8,3.5-1.8,5-3c3.3-2.6,7.3-4,11.5-4.2c1.2,0,2.5,0.1,3.7,0.3c5.4,1,10,4.4,12.6,9.1C68.8,183,75.4,188.3,83.2,190.6 L83.2,190.6z M25.6,243.2c-7.1,0-12.8-5.7-12.8-12.8c0-7.1,5.7-12.8,12.8-12.8l0,0l58.4,0c0.3,0.9,0.5,1.7,0.9,2.5 c0.2,0.4,0.3,0.8,0.4,1.2c0.6,1.4,1.3,2.7,2.2,4c0.2,0.3,0.4,0.5,0.6,0.8c0.7,1,1.4,1.9,2.3,2.7c0.4,0.4,0.8,0.7,1.2,1.1 c0.7,0.7,1.5,1.3,2.3,1.9c0.5,0.3,1,0.7,1.5,1c0.8,0.5,1.7,1,2.6,1.4c0.5,0.3,1,0.5,1.6,0.7c1,0.4,2,0.7,3,0.9 c0.5,0.1,1,0.3,1.5,0.4c6,1.2,12.3,0.2,17.6-3v9.8L25.6,243.2L25.6,243.2z M352,294.4c0,14.1-11.5,25.6-25.6,25.6H57.6 C43.5,320,32,308.5,32,294.4V256l89.6,0v19.2c0,14.1,11.5,25.6,25.6,25.6c14.1,0,25.6-11.5,25.6-25.6V256H256 c0,14.1,11.5,25.6,25.6,25.6c14.1,0,25.6-11.5,25.6-25.6H352V294.4z M358.4,243.2h-51.2v-25.6h51.2c7.1,0,12.8,5.7,12.8,12.8 C371.2,237.5,365.5,243.2,358.4,243.2L358.4,243.2z M358.4,243.2"></path> </g> <path class="st3" d="M155.5,33.9l-12.8,12.8c-1.6,1.6-2.3,4-1.7,6.2c0.6,2.2,2.3,4,4.5,4.5c2.2,0.6,4.6-0.1,6.2-1.7l12.8-12.8 c2.5-2.5,2.5-6.5,0-9C162,31.4,158,31.4,155.5,33.9L155.5,33.9z M155.5,33.9"></path> <path class="st3" d="M313.6,307.2c1.7,0,3.3-0.7,4.5-1.9l12.8-12.8c2.5-2.5,2.5-6.5,0-9c-2.5-2.5-6.5-2.5-9,0l-12.8,12.8 c-1.2,1.2-1.9,2.8-1.9,4.5c0,1.7,0.7,3.3,1.9,4.5C310.3,306.5,311.9,307.2,313.6,307.2L313.6,307.2z M313.6,307.2"></path> <path class="st3" d="M78.7,277.1l-12.8,12.8c-1.6,1.6-2.3,4-1.7,6.2c0.6,2.2,2.3,4,4.5,4.5c2.2,0.6,4.6-0.1,6.2-1.7l12.8-12.8 c2.5-2.5,2.5-6.5,0-9C85.2,274.6,81.2,274.6,78.7,277.1L78.7,277.1z M78.7,277.1"></path> <path class="st3" d="M187.5,85.1l-12.8,12.8c-1.6,1.6-2.3,4-1.7,6.2c0.6,2.2,2.3,4,4.5,4.5c2.2,0.6,4.6-0.1,6.2-1.7l12.8-12.8 c2.5-2.5,2.5-6.5,0-9C194,82.6,190,82.6,187.5,85.1L187.5,85.1z M187.5,85.1"></path> <path class="st3" d="M222.1,46.7c-2.5-2.5-6.5-2.5-9,0c-2.5,2.5-2.5,6.5,0,9l12.8,12.8c2.5,2.5,6.5,2.5,9,0c2.5-2.5,2.5-6.5,0-9 L222.1,46.7z M222.1,46.7"></path> <path class="st3" d="M106.9,72.3c-2.5-2.5-6.5-2.5-9,0c-2.5,2.5-2.5,6.5,0,9l12.8,12.8c2.5,2.5,6.5,2.5,9,0c2.5-2.5,2.5-6.5,0-9 L106.9,72.3z M106.9,72.3"></path> <path class="st3" d="M215.7,277.1c-2.5-2.5-6.5-2.5-9,0c-2.5,2.5-2.5,6.5,0,9l12.8,12.8c2.5,2.5,6.5,2.5,9,0c2.5-2.5,2.5-6.5,0-9 L215.7,277.1z M215.7,277.1"></path> <path class="st3" d="M273.3,78.7c-2.5-2.5-6.5-2.5-9,0c-2.5,2.5-2.5,6.5,0,9l12.8,12.8c2.5,2.5,6.5,2.5,9,0c2.5-2.5,2.5-6.5,0-9 L273.3,78.7z M273.3,78.7"></path> </g> </g> </svg> 