<?xml version="1.0" encoding="UTF-8"?> <!-- Generator: Adobe Illustrator 24.0.0, SVG Export Plug-In . SVG Version: 6.00 Build 0) --> <svg xmlns="http://www.w3.org/2000/svg" xmlns:xlink="http://www.w3.org/1999/xlink" id="Layer_1" x="0px" y="0px" viewBox="0 0 380.3 384" style="enable-background:new 0 0 380.3 384;" xml:space="preserve"> <style type="text/css"> .st0{fill:#36D2AE;} .st1{fill:#EF5253;} .st2{fill:#6A66E5;} .st3{fill:#FFC42D;} </style> <g> <g> <path class="st2" d="M321.3,266c-14.2,0-27.3,5.1-37.5,13.5L268.4,264c15.6-17.4,25.6-40,26.9-64.8h15.2 c2.7,16.3,16.9,28.8,34,28.8c19,0,34.4-15.5,34.4-34.5c0-19-15.4-34.4-34.4-34.4c-17.1,0-31.3,12.5-34,28.8h-15.2 c-0.4-6.6-1.3-13.2-2.9-19.6c-0.7-3-3.8-4.9-6.8-4.1c-3,0.7-4.9,3.8-4.1,6.8c1.8,7.3,2.7,14.9,2.7,22.5 c0,26.9-11.3,51.2-29.5,68.4c-2.4-22.1-21.4-27.2-35.5-30.9c-0.9-0.3-1.9-0.5-2.8-0.8c-1.1-0.3-2-1.8-2.7-3.3 c14-9.6,24.4-26,24.4-40.3v-13c0-16.1-5.1-29.8-14.9-39.6c-8.7-8.7-20.4-13.7-33-13.9c-0.1,0-0.1,0-0.2,0 c-6.9,0.1-13.7,1.7-19.8,4.6c-2.8,1.3-4,4.7-2.7,7.5c1.3,2.8,4.7,4,7.5,2.7c4.6-2.2,9.9-3.4,15.1-3.5 c16.2,0.3,33.5,11.5,36.4,35.1c-2.2-1.1-3.7-2.6-5.3-4.2c-3.2-3.2-7.5-7.7-16.5-5.4c-2.2,0.6-4.1,1.1-5.7,1.5 c-4.7,1.2-7,1.9-8.9,1.9c-1.9,0-4.2-0.6-8.9-1.9c-1.6-0.4-3.5-0.9-5.7-1.5c-9-2.3-13.3,2.1-16.5,5.4c-1.6,1.6-3.1,3.1-5.3,4.2 c0.8-6.8,2.8-12.8,6.1-18c1.6-2.6,0.8-6.1-1.8-7.8c-2.6-1.6-6.1-0.8-7.8,1.8c-5.4,8.7-8.2,19.1-8.2,31.1v13 c0,14.3,10.4,30.7,24.4,40.3c-0.7,1.5-1.6,3-2.7,3.3c-0.9,0.3-1.9,0.5-2.8,0.8c-14.1,3.8-33.1,8.9-35.5,30.9 C107.4,244.7,96,220.4,96,193.5c0-51.9,42.2-94.1,94.1-94.1c33.2,0,64.3,17.8,81.2,46.5c0,0,0,0,0,0.1c0.3,0.5,0.6,1,0.9,1.5 l0.3,0.5c1.5,2.7,4.9,3.7,7.7,2.2c2.7-1.5,3.7-4.9,2.2-7.7l-0.2-0.4c-0.3-0.6-0.7-1.2-1.1-1.8c-3.6-6.1-7.8-11.9-12.6-17.1 l15.7-15.8c9.6,6.8,21.3,10.7,33.9,10.7c14.3,0,27.4-5.1,37.6-13.6c0.3-0.2,0.6-0.5,0.9-0.8C369,92.8,376.9,76.8,376.9,59 c0-32.5-26.4-59-59-59c-32.5,0-59,26.5-59,59c0,15.9,6.3,30.3,16.5,40.9l-15.1,15.2c-5.3-4.8-11.1-9-17.2-12.6 c-14.4-8.5-30.8-13.3-47.5-14.2V73c16.3-2.7,28.8-16.9,28.8-34c0-19-15.4-34.4-34.4-34.4c-19,0-34.4,15.4-34.4,34.4 c0,17.1,12.5,31.3,28.8,34v15.2c-24.8,1.3-47.4,11.3-64.7,26.9L104.6,100c10.3-10.6,16.6-25.1,16.6-41c0-32.5-26.4-59-59-59 c-32.5,0-59,26.5-59,59c0,17.8,7.9,33.8,20.5,44.6c0.3,0.3,0.6,0.6,0.9,0.8C34.9,112.9,48,118,62.3,118c12.5,0,24.2-3.9,33.7-10.7 l15.8,15.8c-15.6,17.4-25.6,39.9-26.9,64.8H69.7c-2.7-16.3-16.9-28.8-34-28.8c-19,0-34.4,15.4-34.4,34.4c0,19,15.4,34.5,34.4,34.5 c17.1,0,31.3-12.5,34-28.8h15.2c1.3,24.8,11.3,47.4,26.9,64.8l-15.4,15.4c-10.2-8.4-23.3-13.5-37.5-13.5c-32.5,0-59,26.5-59,59 c0,32.5,26.4,59,59,59s59-26.5,59-59c0-14.2-5.1-27.3-13.5-37.5l15.4-15.4c1.4,1.2,2.7,2.4,4.1,3.5c1.3,1.1,2.7,2.4,4.2,3.3 c16,11.7,35.4,19,56.4,20.1V314c-16.3,2.7-28.8,16.9-28.8,34c0,19,15.5,34.5,34.4,34.5c19,0,34.4-15.5,34.4-34.5 c0-17.1-12.5-31.3-28.8-34v-15.2c21-1.1,40.4-8.4,56.4-20.1c0.4-0.2,0.7-0.5,1.1-0.8c2.5-1.9,5-3.9,7.3-6l15.4,15.6 c-8.4,10.2-13.5,23.3-13.5,37.5c0,17.8,7.9,33.7,20.4,44.5c0.3,0.4,0.7,0.7,1.1,0.9c10.2,8.4,23.3,13.5,37.5,13.5 c14.2,0,27.3-5.1,37.5-13.5c0.4-0.3,0.8-0.6,1.1-0.9c12.5-10.8,20.4-26.8,20.4-44.5C380.3,292.5,353.8,266,321.3,266L321.3,266z M344.5,170.3c12.8,0,23.2,10.4,23.2,23.2c0,12.8-10.4,23.2-23.2,23.2c-12.8,0-23.2-10.4-23.2-23.2 C321.3,180.7,331.7,170.3,344.5,170.3L344.5,170.3z M318,106.7c-10.7,0-20.7-3.6-28.6-9.6c0.9-9.2,6.1-17.5,14.1-22.2 c4.2,2.6,9.2,4,14.5,4c5.3,0,10.3-1.5,14.5-4c8,4.7,13.3,13,14.1,22.2C338.6,103.1,328.7,106.7,318,106.7L318,106.7z M301.1,50.8 c0-9.3,7.6-16.9,16.9-16.9c9.3,0,16.9,7.6,16.9,16.9c0,9.3-7.6,16.9-16.9,16.9C308.7,67.7,301.1,60.2,301.1,50.8L301.1,50.8z M270.3,59c0-26.3,21.4-47.7,47.7-47.7c26.3,0,47.7,21.4,47.7,47.7c0,10.7-3.6,20.7-9.6,28.7c-2.6-8.3-8-15.5-15.1-20.6 c3.2-4.6,5.1-10.2,5.1-16.2c0-15.5-12.6-28.1-28.1-28.1s-28.1,12.6-28.1,28.1c0,6,1.9,11.6,5.1,16.2c-7.2,5.1-12.5,12.3-15.1,20.6 C273.9,79.7,270.3,69.7,270.3,59L270.3,59z M166.9,39.1c0-12.8,10.4-23.2,23.2-23.2c12.8,0,23.2,10.4,23.2,23.2 c0,12.8-10.4,23.2-23.2,23.2C177.3,62.3,166.9,51.9,166.9,39.1L166.9,39.1z M62.3,106.7c-10.7,0-20.7-3.6-28.6-9.6 c0.9-9.2,6.1-17.5,14.1-22.2c4.2,2.6,9.2,4,14.5,4c5.3,0,10.3-1.5,14.5-4c8,4.7,13.3,13,14.1,22.2C82.9,103.1,73,106.7,62.3,106.7 L62.3,106.7z M45.4,50.8c0-9.3,7.6-16.9,16.9-16.9c9.3,0,16.9,7.6,16.9,16.9c0,9.3-7.6,16.9-16.9,16.9 C52.9,67.7,45.4,60.2,45.4,50.8L45.4,50.8z M85.2,67c3.2-4.6,5.1-10.2,5.1-16.2c0-15.5-12.6-28.1-28.1-28.1S34.1,35.3,34.1,50.8 c0,6,1.9,11.6,5.1,16.2c-7.2,5.1-12.5,12.3-15.1,20.6c-6-8-9.6-17.9-9.6-28.7c0-26.3,21.4-47.7,47.7-47.7 C88.6,11.3,110,32.7,110,59c0,10.7-3.6,20.7-9.6,28.7C97.7,79.4,92.4,72.1,85.2,67L85.2,67z M35.7,216.7 c-12.8,0-23.2-10.4-23.2-23.2c0-12.8,10.4-23.2,23.2-23.2c12.8,0,23.2,10.4,23.2,23.2C58.9,206.3,48.5,216.7,35.7,216.7 L35.7,216.7z M59,372.5c-10.7,0-20.7-3.6-28.6-9.6c0.9-9.2,6.1-17.5,14.1-22.2c4.2,2.6,9.2,4,14.5,4c5.3,0,10.3-1.5,14.5-4 c8,4.7,13.3,13,14.1,22.2C79.6,368.9,69.7,372.5,59,372.5L59,372.5z M42.1,316.6c0-9.3,7.6-16.9,16.9-16.9 c9.3,0,16.9,7.6,16.9,16.9c0,9.3-7.6,16.9-16.9,16.9C49.6,333.5,42.1,325.9,42.1,316.6L42.1,316.6z M97.1,353.4 c-2.6-8.3-7.9-15.5-15.1-20.6c3.2-4.6,5.1-10.2,5.1-16.2c0-15.5-12.6-28.1-28.1-28.1s-28.1,12.6-28.1,28.1c0,6,1.9,11.6,5.1,16.2 c-7.2,5.1-12.5,12.3-15.1,20.6c-6-8-9.6-17.9-9.6-28.7c0-26.3,21.4-47.7,47.7-47.7c26.3,0,47.7,21.4,47.7,47.7 C106.7,335.5,103.1,345.4,97.1,353.4L97.1,353.4z M153.4,186.6v-8.1c7.3-1.7,11.1-5.6,13.8-8.3c2.6-2.7,3-3,5.6-2.4 c2.2,0.6,4,1,5.6,1.5c5.4,1.5,8.4,2.3,11.8,2.3c3.3,0,6.3-0.8,11.8-2.3c1.6-0.4,3.4-0.9,5.6-1.5c2.7-0.7,3-0.3,5.7,2.4 c2.7,2.7,6.5,6.6,13.8,8.3v8.1c0,13.1-13.4,30.1-28.1,35.5c-6.4,2.4-10.9,2.4-17.3,0C166.7,216.7,153.4,199.7,153.4,186.6 L153.4,186.6z M209,238.9l-16,9.4c-0.1,0-0.1,0.1-0.2,0.1c-2.6,1.7-2.8,1.7-5.4,0c-0.1,0-0.1-0.1-0.2-0.1l-16-9.4 c2.5-1.9,4.1-4.4,5.2-6.6c0.4,0.1,0.7,0.3,1.1,0.4c4.5,1.7,8.5,2.5,12.6,2.5c4.1,0,8.1-0.8,12.6-2.5c0.4-0.1,0.7-0.3,1.1-0.4 C204.9,234.5,206.5,237,209,238.9L209,238.9z M213.3,348c0,12.8-10.4,23.2-23.2,23.2c-12.8,0-23.2-10.4-23.2-23.2 c0-12.8,10.4-23.2,23.2-23.2C202.9,324.8,213.3,335.2,213.3,348L213.3,348z M243.7,270.9c-15.2,10.6-33.7,16.8-53.6,16.8 c-19.9,0-38.4-6.2-53.6-16.8v-4.1c0-14.1,7.7-19,20.8-23l24.1,14.1c3.1,2,5.9,3,8.7,3c2.8,0,5.6-1,8.7-3l24.1-14.1 c13.1,4,20.8,8.9,20.8,23V270.9z M321.3,372.8c-10.7,0-20.7-3.6-28.6-9.6c0.9-9.2,6.1-17.5,14.1-22.2c4.2,2.6,9.2,4,14.5,4 c5.3,0,10.3-1.5,14.5-4c8,4.7,13.3,13,14.1,22.2C341.9,369.2,332,372.8,321.3,372.8L321.3,372.8z M304.4,316.9 c0-9.3,7.6-16.9,16.9-16.9c9.3,0,16.9,7.6,16.9,16.9c0,9.3-7.6,16.9-16.9,16.9C312,333.8,304.4,326.2,304.4,316.9L304.4,316.9z M359.4,353.7c-2.6-8.3-7.9-15.6-15.1-20.6c3.2-4.6,5.1-10.2,5.1-16.2c0-15.5-12.6-28.1-28.1-28.1c-15.5,0-28.1,12.6-28.1,28.1 c0,6,1.9,11.6,5.1,16.2c-7.2,5.1-12.5,12.3-15.1,20.6c-6-8-9.6-17.9-9.6-28.7c0-26.3,21.4-47.7,47.7-47.7S369,298.7,369,325 C369,335.8,365.4,345.7,359.4,353.7L359.4,353.7z M359.4,353.7"></path> </g> </g> </svg> 