<?xml version="1.0" encoding="UTF-8"?> <!-- Generator: Adobe Illustrator 24.0.0, SVG Export Plug-In . SVG Version: 6.00 Build 0) --> <svg xmlns="http://www.w3.org/2000/svg" xmlns:xlink="http://www.w3.org/1999/xlink" id="Layer_1" x="0px" y="0px" viewBox="0 0 512 469.3" style="enable-background:new 0 0 512 469.3;" xml:space="preserve"> <style type="text/css"> .st0{fill:#36D2AE;} .st1{fill:#EF5253;} .st2{fill:#6A66E5;} .st3{fill:#FFC42D;} </style> <g> <path class="st0" d="M509.9,68.3c-2.1-2.1-4.3-4.3-8.5-4.3H96L85.3,8.5c0-4.3-6.4-8.5-10.7-8.5h-64C4.3,0,0,4.3,0,10.7 s4.3,10.7,10.7,10.7h55.5l51.2,260.3c6.4,34.1,38.4,59.7,72.5,59.7h245.3c6.4,0,10.7-4.3,10.7-10.7c0-6.4-4.3-10.7-10.7-10.7H192 c-17.1,0-34.1-8.5-42.7-23.5l311.5-42.7c4.3,0,8.5-4.3,8.5-8.5L512,74.7C512,74.7,512,70.4,509.9,68.3z M450.1,234.7l-311.5,40.5 l-38.4-192h386.1L450.1,234.7z"></path> <path class="st0" d="M181.3,362.7c-29.9,0-53.3,23.5-53.3,53.3c0,29.9,23.5,53.3,53.3,53.3s53.3-23.5,53.3-53.3 C234.7,386.1,211.2,362.7,181.3,362.7z M181.3,448c-17.1,0-32-14.9-32-32s14.9-32,32-32s32,14.9,32,32S198.4,448,181.3,448z"></path> <path class="st0" d="M394.7,362.7c-29.9,0-53.3,23.5-53.3,53.3c0,29.9,23.5,53.3,53.3,53.3c29.9,0,53.3-23.5,53.3-53.3 C448,386.1,424.5,362.7,394.7,362.7z M394.7,448c-17.1,0-32-14.9-32-32s14.9-32,32-32c17.1,0,32,14.9,32,32S411.7,448,394.7,448z"></path> </g> </svg> 