<?xml version="1.0" encoding="UTF-8"?> <!-- Generator: Adobe Illustrator 24.0.0, SVG Export Plug-In . SVG Version: 6.00 Build 0) --> <svg xmlns="http://www.w3.org/2000/svg" xmlns:xlink="http://www.w3.org/1999/xlink" id="Layer_1" x="0px" y="0px" viewBox="0 0 360 348" style="enable-background:new 0 0 360 348;" xml:space="preserve"> <style type="text/css"> .st0{fill:#36D2AE;} .st1{fill:#EF5253;} .st2{fill:#6A66E5;} .st3{fill:#FFC42D;} </style> <g> <g> <path class="st1" d="M342,0H18C8.1,0,0,8.1,0,18v312c0,9.9,8.1,18,18,18h324c9.9,0,18-8.1,18-18V18C360,8.1,351.9,0,342,0L342,0z M18,12h324c3.3,0,6,2.7,6,6v30H12V18C12,14.7,14.7,12,18,12L18,12z M342,336H18c-3.3,0-6-2.7-6-6V60h336v270 C348,333.3,345.3,336,342,336L342,336z M342,336"></path> <path class="st1" d="M84,30c0,3.3-2.7,6-6,6s-6-2.7-6-6c0-3.3,2.7-6,6-6S84,26.7,84,30L84,30z M84,30"></path> <path class="st1" d="M60,30c0,3.3-2.7,6-6,6c-3.3,0-6-2.7-6-6c0-3.3,2.7-6,6-6C57.3,24,60,26.7,60,30L60,30z M60,30"></path> <path class="st1" d="M36,30c0,3.3-2.7,6-6,6s-6-2.7-6-6c0-3.3,2.7-6,6-6S36,26.7,36,30L36,30z M36,30"></path> <path class="st1" d="M318,84H42c-3.3,0-6,2.7-6,6v96c0,3.3,2.7,6,6,6h276c3.3,0,6-2.7,6-6V90C324,86.7,321.3,84,318,84L318,84z M219.6,172.8l14.4-14.4l21.5,21.5H225L219.6,172.8z M210,180h-48l24-32L210,180z M147,180h-45.5l30.5-43.5l23,32.9L147,180z M312,180h-39.5l-34.2-34.2c-1.1-1.1-2.7-1.8-4.2-1.8s-3.1,0.6-4.2,1.8l-17.4,17.4l-21.6-28.8c-1.1-1.5-2.9-2.4-4.8-2.4 c-1.9,0-3.7,0.9-4.8,2.4l-18.6,24.8l-25.7-36.7c-1.1-1.6-3-2.6-4.9-2.6c-2,0-3.8,1-4.9,2.6L86.9,180H48V96h264V180z M312,180"></path> <path class="st1" d="M222,126c0,3.3-2.7,6-6,6s-6-2.7-6-6s2.7-6,6-6S222,122.7,222,126L222,126z M222,126"></path> <path class="st1" d="M210,210c0,3.3-2.7,6-6,6s-6-2.7-6-6s2.7-6,6-6S210,206.7,210,210L210,210z M210,210"></path> <path class="st1" d="M186,210c0,3.3-2.7,6-6,6c-3.3,0-6-2.7-6-6s2.7-6,6-6C183.3,204,186,206.7,186,210L186,210z M186,210"></path> <path class="st1" d="M162,210c0,3.3-2.7,6-6,6s-6-2.7-6-6s2.7-6,6-6S162,206.7,162,210L162,210z M162,210"></path> <path class="st1" d="M114,228H42c-3.3,0-6,2.7-6,6v48c0,3.3,2.7,6,6,6h72c3.3,0,6-2.7,6-6v-48C120,230.7,117.3,228,114,228 L114,228z M108,240v34.3l-26.3-21c-2.2-1.8-5.3-1.8-7.5,0l-26.3,21V240H108z M90.9,276H65.1L78,265.7L90.9,276z M90.9,276"></path> <path class="st1" d="M216,228h-72c-3.3,0-6,2.7-6,6v48c0,3.3,2.7,6,6,6h72c3.3,0,6-2.7,6-6v-48C222,230.7,219.3,228,216,228 L216,228z M210,240v34.3l-26.3-21c-2.2-1.8-5.3-1.8-7.5,0l-26.3,21V240H210z M192.9,276h-25.8l12.9-10.3L192.9,276z M192.9,276"></path> <path class="st1" d="M318,228h-72c-3.3,0-6,2.7-6,6v48c0,3.3,2.7,6,6,6h72c3.3,0,6-2.7,6-6v-48C324,230.7,321.3,228,318,228 L318,228z M312,240v34.3l-26.3-21c-2.2-1.8-5.3-1.8-7.5,0l-26.3,21V240H312z M294.9,276h-25.8l12.9-10.3L294.9,276z M294.9,276"></path> <path class="st1" d="M102,300H54c-3.3,0-6,2.7-6,6s2.7,6,6,6h48c3.3,0,6-2.7,6-6S105.3,300,102,300L102,300z M102,300"></path> <path class="st1" d="M204,300h-48c-3.3,0-6,2.7-6,6s2.7,6,6,6h48c3.3,0,6-2.7,6-6S207.3,300,204,300L204,300z M204,300"></path> <path class="st1" d="M306,300h-48c-3.3,0-6,2.7-6,6s2.7,6,6,6h48c3.3,0,6-2.7,6-6S309.3,300,306,300L306,300z M306,300"></path> </g> </g> </svg> 