<?xml version="1.0" encoding="UTF-8"?> <!-- Generator: Adobe Illustrator 24.0.0, SVG Export Plug-In . SVG Version: 6.00 Build 0) --> <svg xmlns="http://www.w3.org/2000/svg" xmlns:xlink="http://www.w3.org/1999/xlink" id="Layer_1" x="0px" y="0px" viewBox="0 0 50 50" style="enable-background:new 0 0 50 50;" xml:space="preserve"> <style type="text/css"> .st0{fill:#36D2AE;} .st1{fill:#EF5253;} .st2{fill:#6A66E5;} .st3{fill:#FFC42D;} .st4{fill:#FDEDED;} .st5{fill:#E6FAF5;} .st6{fill:#E5FBFF;} .st7{fill:none;stroke:#52B9C6;stroke-width:1.5;stroke-miterlimit:10;} .st8{fill:#FFF9EA;} .st9{fill:none;stroke:#FCBA11;stroke-width:1.5;stroke-miterlimit:10;} .st10{fill:#F0EFFC;} .st11{fill:none;stroke:#6A66E5;stroke-width:1.5;stroke-miterlimit:10;} .st12{fill:none;stroke:#36D2AE;stroke-width:1.5;stroke-miterlimit:10;} .st13{fill:none;stroke:#EF5253;stroke-width:1.5;stroke-miterlimit:10;} .st14{fill:none;stroke:#52B9C6;stroke-width:5;stroke-linecap:round;stroke-linejoin:round;stroke-miterlimit:10;} .st15{fill:none;stroke:#FCBA11;stroke-width:5;stroke-linecap:round;stroke-linejoin:round;stroke-miterlimit:10;} .st16{fill:none;stroke:#6A66E5;stroke-width:5;stroke-linecap:round;stroke-linejoin:round;stroke-miterlimit:10;} .st17{fill:none;stroke:#36D2AE;stroke-width:5;stroke-linecap:round;stroke-linejoin:round;stroke-miterlimit:10;} .st18{fill:none;stroke:#EF5253;stroke-width:5;stroke-linecap:round;stroke-linejoin:round;stroke-miterlimit:10;} </style> <path class="st8" d="M40,50H10C4.5,50,0,45.5,0,40l0-30C0,4.5,4.5,0,10,0l30,0c5.5,0,10,4.5,10,10v30C50,45.5,45.5,50,40,50z"></path> <g> <path class="st9" d="M35.7,38.7H14.3l6.8-7.1c2.4-2.5,4.2-4.7,5.5-6.8c0.7-1.1,1.4-2.4,1.4-4.2c0-0.3,0-1.7-0.8-2.6 c-0.4-0.4-1.1-0.8-2-0.8c-1.1,0-1.9,0.5-2.3,1.1c-0.6,0.8-0.9,2.4-1,3.3h-7.2c0-3.5,1.6-6,3-7.4c1.8-1.8,4.2-2.9,7.6-2.9 c4,0,6.3,1.6,7.5,2.8c1.1,1.1,2.6,3.1,2.6,6.6c0,3.4-1.6,5.7-4,7.9L27,32.8h8.7V38.7z"></path> </g> </svg> 