<?xml version="1.0" encoding="UTF-8"?> <!-- Generator: Adobe Illustrator 24.0.0, SVG Export Plug-In . SVG Version: 6.00 Build 0) --> <svg xmlns="http://www.w3.org/2000/svg" xmlns:xlink="http://www.w3.org/1999/xlink" id="Layer_1" x="0px" y="0px" viewBox="0 0 50 50" style="enable-background:new 0 0 50 50;" xml:space="preserve"> <style type="text/css"> .st0{fill:#36D2AE;} .st1{fill:#EF5253;} .st2{fill:#6A66E5;} .st3{fill:#FFC42D;} .st4{fill:#FDEDED;} .st5{fill:#E6FAF5;} .st6{fill:#E5FBFF;} .st7{fill:none;stroke:#52B9C6;stroke-width:1.5;stroke-miterlimit:10;} .st8{fill:#FFF9EA;} .st9{fill:none;stroke:#FCBA11;stroke-width:1.5;stroke-miterlimit:10;} .st10{fill:#F0EFFC;} .st11{fill:none;stroke:#6A66E5;stroke-width:1.5;stroke-miterlimit:10;} .st12{fill:none;stroke:#36D2AE;stroke-width:1.5;stroke-miterlimit:10;} .st13{fill:none;stroke:#EF5253;stroke-width:1.5;stroke-miterlimit:10;} .st14{fill:none;stroke:#52B9C6;stroke-width:5;stroke-linecap:round;stroke-linejoin:round;stroke-miterlimit:10;} .st15{fill:none;stroke:#FCBA11;stroke-width:5;stroke-linecap:round;stroke-linejoin:round;stroke-miterlimit:10;} .st16{fill:none;stroke:#6A66E5;stroke-width:5;stroke-linecap:round;stroke-linejoin:round;stroke-miterlimit:10;} .st17{fill:none;stroke:#36D2AE;stroke-width:5;stroke-linecap:round;stroke-linejoin:round;stroke-miterlimit:10;} .st18{fill:none;stroke:#EF5253;stroke-width:5;stroke-linecap:round;stroke-linejoin:round;stroke-miterlimit:10;} </style> <path class="st4" d="M40,50H10C4.5,50,0,45.5,0,40l0-30C0,4.5,4.5,0,10,0l30,0c5.5,0,10,4.5,10,10v30C50,45.5,45.5,50,40,50z"></path> <g> <path class="st13" d="M33,17.2h-9.3l-0.5,3c1-0.2,1.8-0.2,2.2-0.2c3.6,0,5.8,1.4,7.1,2.6c1.2,1.2,2.4,3.2,2.4,6.3 c0,3.2-1.3,5.4-2.6,6.7c-2.5,2.6-5.8,3-8.3,3c-4,0-6.9-1-9-2.4l1-6.5c1.4,1.3,2.8,2,3.2,2.2c1.2,0.6,2.7,0.9,4,0.9 c1.4,0,2.7-0.5,3.5-1.3c0.6-0.6,1-1.6,1-2.7c0-1.4-0.7-2.4-1.3-2.9c-1.4-1.3-3.9-1.3-4.8-1.3c-1.9,0-3.5,0.4-4.9,1.1l2.3-14.4H33 V17.2z"></path> </g> </svg> 