<?xml version="1.0" encoding="UTF-8"?> <!-- Generator: Adobe Illustrator 24.0.0, SVG Export Plug-In . SVG Version: 6.00 Build 0) --> <svg xmlns="http://www.w3.org/2000/svg" xmlns:xlink="http://www.w3.org/1999/xlink" id="Layer_1" x="0px" y="0px" viewBox="0 0 50 50" style="enable-background:new 0 0 50 50;" xml:space="preserve"> <style type="text/css"> .st0{fill:#36D2AE;} .st1{fill:#EF5253;} .st2{fill:#6A66E5;} .st3{fill:#FFC42D;} .st4{fill:#FDEDED;} .st5{fill:#E6FAF5;} .st6{fill:#E5FBFF;} .st7{fill:none;stroke:#52B9C6;stroke-width:1.5;stroke-miterlimit:10;} .st8{fill:#FFF9EA;} .st9{fill:none;stroke:#FCBA11;stroke-width:1.5;stroke-miterlimit:10;} .st10{fill:#F0EFFC;} .st11{fill:none;stroke:#6A66E5;stroke-width:1.5;stroke-miterlimit:10;} .st12{fill:none;stroke:#36D2AE;stroke-width:1.5;stroke-miterlimit:10;} .st13{fill:none;stroke:#EF5253;stroke-width:1.5;stroke-miterlimit:10;} .st14{fill:none;stroke:#52B9C6;stroke-width:5;stroke-linecap:round;stroke-linejoin:round;stroke-miterlimit:10;} .st15{fill:none;stroke:#FCBA11;stroke-width:5;stroke-linecap:round;stroke-linejoin:round;stroke-miterlimit:10;} .st16{fill:none;stroke:#6A66E5;stroke-width:5;stroke-linecap:round;stroke-linejoin:round;stroke-miterlimit:10;} .st17{fill:none;stroke:#36D2AE;stroke-width:5;stroke-linecap:round;stroke-linejoin:round;stroke-miterlimit:10;} .st18{fill:none;stroke:#EF5253;stroke-width:5;stroke-linecap:round;stroke-linejoin:round;stroke-miterlimit:10;} </style> <path class="st10" d="M40,50H10C4.5,50,0,45.5,0,40l0-30C0,4.5,4.5,0,10,0l30,0c5.5,0,10,4.5,10,10v30C50,45.5,45.5,50,40,50z"></path> <g> <path class="st11" d="M21.4,29.2c0,1,0.4,2,1.1,2.7c0.6,0.6,1.6,1,2.7,1c1.4,0,2.2-0.6,2.7-1.2c0.6-0.7,0.8-1.4,0.8-2.2 c0-1.2-0.6-2-1-2.4c-0.7-0.6-1.7-0.8-2.6-0.8c-0.4,0-0.8,0-1.2,0.2v-4.7c1.4,0.2,2.3-0.2,2.8-0.7c0.6-0.6,0.9-1.3,0.9-1.9 c0-0.7-0.3-1.5-0.7-1.9c-0.4-0.4-1.2-0.7-2-0.7c-0.8,0-1.5,0.3-1.9,0.7c-0.6,0.6-0.9,1.5-0.9,2.4h-6.5c0.2-2.8,1.4-4.9,2.6-6.1 c2-2,4.5-2.6,7.1-2.6c2,0,4.6,0.4,6.7,2.4c1.3,1.3,2.2,3.1,2.2,5.2c0,1.2-0.2,2.2-0.8,3.3c-0.5,0.9-1.1,1.6-2,2 c1.6,0.6,2.6,1.6,3.2,2.4c0.8,1.1,1.1,2.4,1.1,3.9c0,2.8-1.2,4.7-2.4,5.9c-1.4,1.4-4,2.8-8,2.8c-2.6,0-5.3-0.6-7.7-2.8 c-1.4-1.2-3-3.5-3.3-7H21.4z"></path> </g> </svg> 