<svg xmlns="http://www.w3.org/2000/svg" width="60" height="60" viewBox="0 0 60 60" fill="none"><g clip-path="url(#clip0)"><path opacity="0.2" d="M51 54.72V57C50.9967 58.1032 50.1032 58.9967 49 59H9C7.8968 58.9967 7.0033 58.1032 7 57V54.72C7.00256 53.8255 7.59874 53.0415 8.46 52.8C11.16 52 12.65 48.88 12.95 43.9C13.0031 42.8385 13.8772 42.004 14.94 42H43.06C44.1228 42.004 44.9969 42.8385 45.05 43.9C45.35 48.88 46.84 52 49.54 52.8C50.4013 53.0415 50.9974 53.8255 51 54.72Z" fill="#00A0DC"></path><path d="M11 57V54.72C11.0026 53.8255 11.5987 53.0415 12.46 52.8C15.16 52 16.65 48.88 16.95 43.9C17.0031 42.8385 17.8772 42.004 18.94 42H15.94C14.8772 42.004 14.0031 42.8385 13.95 43.9C13.65 48.88 12.16 52 9.46 52.8C8.59874 53.0415 8.00256 53.8255 8 54.72V57C8.0033 58.1032 8.8968 58.9967 10 59H13C11.8968 58.9967 11.0033 58.1032 11 57Z" fill="white"></path><path d="M8.112 25.672C8.65236 25.5772 9.01714 25.067 8.932 24.525C8.34366 21.0468 8.03202 17.5275 8 14C8 4.156 15.94 2 19 2C20.8416 2.10064 22.6401 2.59545 24.274 3.451C26.0499 4.37095 28.0025 4.89917 30 5C31.9975 4.89917 33.9501 4.37095 35.726 3.451C37.3599 2.59545 39.1584 2.10064 41 2C50.024 2 52 10.662 52 14C51.8727 20.1665 51.0137 26.2961 49.441 32.26C49.3234 32.6967 48.9273 33.0002 48.475 33H11.525C11.0727 33.0002 10.6766 32.6967 10.559 32.26C10.4116 31.7366 9.8729 31.4269 9.3464 31.5629C8.81989 31.6989 8.49854 32.2307 8.623 32.76C8.96857 34.0796 10.1609 34.9999 11.525 35H48.475C49.8372 34.9995 51.0281 34.0813 51.375 32.764C52.9899 26.6354 53.8711 20.3365 54 14C54 3.729 46.226 0 41 0C38.8821 0.0932543 36.8097 0.645307 34.926 1.618C33.3996 2.42041 31.721 2.89136 30 3C28.279 2.89136 26.6004 2.42041 25.074 1.618C23.1903 0.645307 21.1179 0.0932543 19 0C13.774 0 6 3.729 6 14C6.03217 17.6353 6.3525 21.2623 6.958 24.847C7.00086 25.1098 7.14677 25.3447 7.36339 25.4995C7.58001 25.6544 7.84946 25.7165 8.112 25.672Z" fill="#00A0DC"></path><path d="M8.7 29.6189C9.25228 29.6189 9.7 29.1712 9.7 28.6189C9.7 28.0666 9.25228 27.6189 8.7 27.6189H8.688C8.13571 27.6219 7.69046 28.0721 7.6935 28.6244C7.69653 29.1767 8.14671 29.6219 8.699 29.6189H8.7Z" fill="#00A0DC"></path><path d="M15 7.146C15.1724 7.14612 15.3419 7.10168 15.492 7.017C16.5702 6.41893 17.7691 6.07133 19 6C19.5523 6 20 5.55228 20 5C20 4.44771 19.5523 4 19 4C17.4238 4.07209 15.8858 4.50888 14.507 5.276C14.1119 5.49989 13.9173 5.96184 14.0331 6.40092C14.1489 6.84001 14.5459 7.14597 15 7.146Z" fill="#00A0DC"></path><path d="M12.635 8.12695C12.4034 7.99757 12.1298 7.96555 11.8745 8.03795C11.6193 8.11034 11.4032 8.28122 11.274 8.51295C10.3867 10.2027 9.94801 12.092 10 13.9999C10 14.6806 10.014 15.3609 10.042 16.0409C10.064 16.5772 10.5053 17.0004 11.042 16.9999H11.083C11.3481 16.9893 11.5981 16.8737 11.778 16.6786C11.9579 16.4836 12.0528 16.2251 12.042 15.9599C12.014 15.3079 12 14.6529 12 13.9999C11.9496 12.4331 12.3011 10.8795 13.021 9.48695C13.2898 9.00478 13.117 8.39604 12.635 8.12695Z" fill="#00A0DC"></path><path d="M53 57V54.717C52.9989 53.378 52.1086 52.2027 50.82 51.839C48.046 51.021 47.24 47.039 47.052 43.845C46.9632 42.255 45.6525 41.0086 44.06 41H15.94C14.3475 41.0086 13.0368 42.255 12.948 43.845C12.76 47.045 11.954 51.021 9.18 51.839C7.89138 52.2027 7.0011 53.378 7 54.717V57C7 58.6568 8.34315 60 10 60H50C51.6569 60 53 58.6568 53 57ZM9 57V54.717C9.00586 54.2664 9.31002 53.8745 9.745 53.757C11.892 53.125 14.536 50.912 14.945 43.962C14.9709 43.4271 15.4095 43.0052 15.945 43H44.06C44.5955 43.0052 45.0341 43.4271 45.06 43.962C45.468 50.912 48.112 53.125 50.26 53.757C50.695 53.8745 50.9992 54.2664 51.005 54.717V57C51.005 57.5523 50.5573 58 50.005 58H10C9.44772 58 9 57.5523 9 57Z" fill="#00A0DC"></path><path d="M44 52H16C15.4477 52 15 52.4477 15 53C15 53.5523 15.4477 54 16 54H44C44.5523 54 45 53.5523 45 53C45 52.4477 44.5523 52 44 52Z" fill="#00A0DC"></path></g><defs><clipPath id="clip0"><rect width="60" height="60" fill="white"></rect></clipPath></defs></svg>