<?xml version="1.0" encoding="UTF-8"?>
<svg xmlns="http://www.w3.org/2000/svg" width="164" height="38" viewBox="0 0 164 38" fill="none">
  <path d="M52.608 8.152V11.44H48.144V25H44.04V11.44H39.576V8.152H52.608ZM66.8117 18.088C66.8117 18.472 66.7877 18.872 66.7397 19.288H57.4517C57.5157 20.12 57.7797 20.76 58.2437 21.208C58.7237 21.64 59.3077 21.856 59.9957 21.856C61.0197 21.856 61.7317 21.424 62.1317 20.56H66.4997C66.2757 21.44 65.8677 22.232 65.2757 22.936C64.6997 23.64 63.9717 24.192 63.0917 24.592C62.2117 24.992 61.2277 25.192 60.1397 25.192C58.8277 25.192 57.6597 24.912 56.6357 24.352C55.6117 23.792 54.8117 22.992 54.2357 21.952C53.6597 20.912 53.3717 19.696 53.3717 18.304C53.3717 16.912 53.6517 15.696 54.2117 14.656C54.7877 13.616 55.5877 12.816 56.6117 12.256C57.6357 11.696 58.8117 11.416 60.1397 11.416C61.4357 11.416 62.5877 11.688 63.5957 12.232C64.6037 12.776 65.3877 13.552 65.9477 14.56C66.5237 15.568 66.8117 16.744 66.8117 18.088ZM62.6117 17.008C62.6117 16.304 62.3717 15.744 61.8917 15.328C61.4117 14.912 60.8117 14.704 60.0917 14.704C59.4037 14.704 58.8197 14.904 58.3397 15.304C57.8757 15.704 57.5877 16.272 57.4757 17.008H62.6117ZM81.1208 18.088C81.1208 18.472 81.0968 18.872 81.0488 19.288H71.7608C71.8248 20.12 72.0888 20.76 72.5528 21.208C73.0328 21.64 73.6168 21.856 74.3048 21.856C75.3288 21.856 76.0408 21.424 76.4408 20.56H80.8088C80.5848 21.44 80.1768 22.232 79.5848 22.936C79.0088 23.64 78.2808 24.192 77.4008 24.592C76.5208 24.992 75.5368 25.192 74.4488 25.192C73.1368 25.192 71.9688 24.912 70.9448 24.352C69.9208 23.792 69.1208 22.992 68.5448 21.952C67.9688 20.912 67.6808 19.696 67.6808 18.304C67.6808 16.912 67.9608 15.696 68.5208 14.656C69.0968 13.616 69.8968 12.816 70.9208 12.256C71.9448 11.696 73.1208 11.416 74.4488 11.416C75.7448 11.416 76.8968 11.688 77.9048 12.232C78.9128 12.776 79.6968 13.552 80.2568 14.56C80.8328 15.568 81.1208 16.744 81.1208 18.088ZM76.9208 17.008C76.9208 16.304 76.6808 15.744 76.2008 15.328C75.7208 14.912 75.1208 14.704 74.4008 14.704C73.7128 14.704 73.1288 14.904 72.6488 15.304C72.1848 15.704 71.8968 16.272 71.7848 17.008H76.9208ZM90.2698 21.52V25H88.1818C86.6938 25 85.5338 24.64 84.7018 23.92C83.8698 23.184 83.4538 21.992 83.4538 20.344V15.016H81.8218V11.608H83.4538V8.344H87.5578V11.608H90.2458V15.016H87.5578V20.392C87.5578 20.792 87.6538 21.08 87.8458 21.256C88.0378 21.432 88.3578 21.52 88.8058 21.52H90.2698ZM100.308 11.464C101.844 11.464 103.076 11.976 104.004 13C104.932 14.008 105.396 15.4 105.396 17.176V25H101.316V17.728C101.316 16.832 101.084 16.136 100.62 15.64C100.156 15.144 99.5318 14.896 98.7478 14.896C97.9638 14.896 97.3398 15.144 96.8758 15.64C96.4118 16.136 96.1798 16.832 96.1798 17.728V25H92.0758V7.24H96.1798V13.408C96.5958 12.816 97.1638 12.344 97.8838 11.992C98.6038 11.64 99.4118 11.464 100.308 11.464Z" fill="#092F57"></path>
  <path d="M107.072 16.552C107.072 14.888 107.432 13.408 108.152 12.112C108.872 10.8 109.872 9.784 111.152 9.064C112.448 8.328 113.912 7.96 115.544 7.96C117.544 7.96 119.256 8.488 120.68 9.544C122.104 10.6 123.056 12.04 123.536 13.864H119.024C118.688 13.16 118.208 12.624 117.584 12.256C116.976 11.888 116.28 11.704 115.496 11.704C114.232 11.704 113.208 12.144 112.424 13.024C111.64 13.904 111.248 15.08 111.248 16.552C111.248 18.024 111.64 19.2 112.424 20.08C113.208 20.96 114.232 21.4 115.496 21.4C116.28 21.4 116.976 21.216 117.584 20.848C118.208 20.48 118.688 19.944 119.024 19.24H123.536C123.056 21.064 122.104 22.504 120.68 23.56C119.256 24.6 117.544 25.12 115.544 25.12C113.912 25.12 112.448 24.76 111.152 24.04C109.872 23.304 108.872 22.288 108.152 20.992C107.432 19.696 107.072 18.216 107.072 16.552ZM124.753 18.28C124.753 16.904 125.009 15.696 125.521 14.656C126.049 13.616 126.761 12.816 127.657 12.256C128.553 11.696 129.553 11.416 130.657 11.416C131.601 11.416 132.425 11.608 133.129 11.992C133.849 12.376 134.401 12.88 134.785 13.504V11.608H138.889V25H134.785V23.104C134.385 23.728 133.825 24.232 133.105 24.616C132.401 25 131.577 25.192 130.633 25.192C129.545 25.192 128.553 24.912 127.657 24.352C126.761 23.776 126.049 22.968 125.521 21.928C125.009 20.872 124.753 19.656 124.753 18.28ZM134.785 18.304C134.785 17.28 134.497 16.472 133.921 15.88C133.361 15.288 132.673 14.992 131.857 14.992C131.041 14.992 130.345 15.288 129.769 15.88C129.209 16.456 128.929 17.256 128.929 18.28C128.929 19.304 129.209 20.12 129.769 20.728C130.345 21.32 131.041 21.616 131.857 21.616C132.673 21.616 133.361 21.32 133.921 20.728C134.497 20.136 134.785 19.328 134.785 18.304ZM145.482 13.84C145.962 13.104 146.562 12.528 147.282 12.112C148.002 11.68 148.802 11.464 149.682 11.464V15.808H148.554C147.53 15.808 146.762 16.032 146.25 16.48C145.738 16.912 145.482 17.68 145.482 18.784V25H141.378V11.608H145.482V13.84ZM163.788 18.088C163.788 18.472 163.764 18.872 163.716 19.288H154.428C154.492 20.12 154.756 20.76 155.22 21.208C155.7 21.64 156.284 21.856 156.972 21.856C157.996 21.856 158.708 21.424 159.108 20.56H163.476C163.252 21.44 162.844 22.232 162.252 22.936C161.676 23.64 160.948 24.192 160.068 24.592C159.188 24.992 158.204 25.192 157.116 25.192C155.804 25.192 154.636 24.912 153.612 24.352C152.588 23.792 151.788 22.992 151.212 21.952C150.636 20.912 150.348 19.696 150.348 18.304C150.348 16.912 150.628 15.696 151.188 14.656C151.764 13.616 152.564 12.816 153.588 12.256C154.612 11.696 155.788 11.416 157.116 11.416C158.412 11.416 159.564 11.688 160.572 12.232C161.58 12.776 162.364 13.552 162.924 14.56C163.5 15.568 163.788 16.744 163.788 18.088ZM159.588 17.008C159.588 16.304 159.348 15.744 158.868 15.328C158.388 14.912 157.788 14.704 157.068 14.704C156.38 14.704 155.796 14.904 155.316 15.304C154.852 15.704 154.564 16.272 154.452 17.008H159.588Z" fill="#00A0DC"></path>
  <mask id="path-2-inside-1" fill="white">
    <path d="M0 14C0 7.37258 5.37258 2 12 2H27C28.6569 2 30 3.34315 30 5V32H3C1.34315 32 0 30.6569 0 29V14Z"></path>
  </mask>
  <path d="M0 14C0 7.37258 5.37258 2 12 2H27C28.6569 2 30 3.34315 30 5V32H3C1.34315 32 0 30.6569 0 29V14Z" fill="white" stroke="#00A0DC" stroke-width="16" mask="url(#path-2-inside-1)"></path>
  <rect x="22" y="23" width="15" height="15" fill="#5DD1FD"></rect>
</svg>
