<svg xmlns="http://www.w3.org/2000/svg" width="60" height="60" viewBox="0 0 60 60" fill="none"><path opacity="0.2" d="M25.31 59H3C1.8968 58.9967 1.0033 58.1032 1 57V34.93C0.998095 33.8706 1.82256 32.9936 2.88 32.93C5.85 32.76 11.7 32.15 16 30C16 31.24 16.04 32.45 16.12 33.62C16.63 42.6984 19.7096 51.4448 25 58.84C25.0718 58.9399 25.187 58.9994 25.31 59Z" fill="#00A0DC"></path><path opacity="0.2" d="M55.9999 34.9299V56.9999C55.9966 58.1031 55.1031 58.9966 53.9999 58.9999H34.6899C34.8129 58.9993 34.9282 58.9398 34.9999 58.8399C36.6615 56.5894 38.092 54.1773 39.2699 51.6399L39.2999 51.5799C41.954 45.864 43.511 39.7006 43.8899 33.4099C43.9399 32.6799 43.9699 31.9399 43.9799 31.1899C47.2777 32.1753 50.6823 32.7596 54.1199 32.9299C55.1774 32.9935 56.0018 33.8706 55.9999 34.9299Z" fill="#00A0DC"></path><path opacity="0.2" d="M34.43 58.89C34.4983 58.9602 34.592 58.9999 34.69 59H25.31C25.408 58.9999 25.5017 58.9602 25.57 58.89C25.6106 58.8592 25.6418 58.8176 25.66 58.77C25.6927 58.6873 25.6996 58.5967 25.68 58.51C24.15 52.83 19.1 34 30 34C40.9 34 35.85 52.83 34.32 58.51C34.3004 58.5967 34.3073 58.6873 34.34 58.77C34.3582 58.8176 34.3894 58.8592 34.43 58.89Z" fill="#00A0DC"></path><path d="M16 30C11.7 32.15 5.85 32.76 2.88 32.93C1.82256 32.9936 0.998095 33.8706 1 34.93V57C1.0033 58.1032 1.8968 58.9967 3 59H6C4.8968 58.9967 4.0033 58.1032 4 57V34.93C3.99809 33.8706 4.82256 32.9936 5.88 32.93C9.74992 32.7361 13.537 31.7382 17 30" fill="white"></path><path d="M22.2901 20H25.2901C24.4875 19.9993 23.7631 19.519 23.4501 18.78C21.1871 13.386 18.876 3.10496 24.3961 1.24496C23.3767 0.906048 22.2725 0.92297 21.2641 1.29296C19.8859 1.83677 18.8513 3.00741 18.481 4.44196C17.146 8.56696 18.76 14.751 20.4501 18.78C20.763 19.519 21.4875 19.9993 22.2901 20Z" fill="white"></path><path d="M0 49H2V57H0V49Z" fill="white"></path><path d="M1.01991 54C1.57219 54 2.01991 53.5523 2.01991 53C2.01991 52.4477 1.57219 52 1.01991 52H1.00991C0.457621 52.0028 0.0121439 52.4527 0.0149053 53.005C0.0176668 53.5573 0.467621 54.0028 1.01991 54Z" fill="#00A0DC"></path><path d="M57.177 31.932C54.312 31.768 49.019 31.21 44.953 29.342C44.7754 27.7097 43.5365 26.3933 41.918 26.117C41.6692 26.0487 41.4551 25.8896 41.318 25.671L40.428 24.336C39.8713 23.5008 38.9337 22.9994 37.93 23H22.07C21.0656 22.9987 20.1271 23.5002 19.57 24.336L18.68 25.671C18.5429 25.8896 18.3288 26.0487 18.08 26.117C16.4615 26.3933 15.2226 27.7097 15.045 29.342C10.981 31.209 5.687 31.768 2.821 31.932C1.23521 32.0268 -0.00176932 33.3414 1.89976e-06 34.93V49C1.89976e-06 49.5523 0.447717 50 1 50C1.55229 50 2 49.5523 2 49V34.93C1.99895 34.4014 2.40946 33.9633 2.937 33.93C7.06957 33.7509 11.1503 32.9394 15.037 31.524C15.1892 40.9417 18.0112 50.1227 23.175 58H3C2.44772 58 2 57.5523 2 57C2 56.4477 1.55229 56 1 56C0.447717 56 1.89976e-06 56.4477 1.89976e-06 57C1.89976e-06 58.6569 1.34315 60 3 60H57C58.6569 60 60 58.6569 60 57V34.93C60.0017 33.3407 58.7636 32.0258 57.177 31.932ZM33.421 58H26.579C25.412 53.667 22.23 41.54 25.829 36.841C26.8304 35.5767 28.3911 34.8878 30 35C31.6089 34.8878 33.1696 35.5767 34.171 36.841C37.771 41.54 34.587 53.668 33.421 58ZM35.759 35.625C34.3829 33.8625 32.2331 32.8826 30 33C27.767 32.8826 25.6171 33.8625 24.241 35.625C20.968 39.897 22.155 48.285 23.841 55.346C19.2731 47.6873 16.9059 38.917 17 30C16.9115 29.0521 17.5825 28.2016 18.525 28.067C19.2756 27.8884 19.9284 27.4275 20.348 26.78L21.238 25.445C21.4235 25.1669 21.7357 25 22.07 25H37.93C38.2643 25 38.5765 25.1669 38.762 25.445L39.651 26.78C40.0708 27.4277 40.7241 27.8886 41.475 28.067C42.4175 28.2016 43.0885 29.0521 43 30C43.0939 38.9167 40.7268 47.6866 36.159 55.345C37.845 48.285 39.032 39.9 35.759 35.625ZM58 57C58 57.5523 57.5523 58 57 58H36.825C41.9881 50.1226 44.8094 40.9415 44.961 31.524C48.8479 32.9389 52.9285 33.7499 57.061 33.929C57.5885 33.9623 57.9991 34.4004 57.998 34.929L58 57Z" fill="#00A0DC"></path><path d="M22.293 21H37.707C38.9122 21.0029 40.0013 20.2818 40.469 19.171C42.0089 15.64 42.8676 11.8499 43 8C43 0.779 38.8 0 37 0C35.4768 0.0706574 34.0263 0.672076 32.9 1.7C32.1122 2.45483 31.0877 2.9141 30 3C28.9123 2.9141 27.8878 2.45483 27.1 1.7C25.9737 0.672076 24.5232 0.0706574 23 0C21.2 0 17 0.779 17 8C17.1327 11.8497 17.9911 15.6398 19.53 19.171C19.9983 20.2817 21.0876 21.0028 22.293 21ZM23 2C24.0877 2.0859 25.1122 2.54517 25.9 3.3C27.0263 4.32792 28.4768 4.92934 30 5C31.5232 4.92934 32.9737 4.32792 34.1 3.3C34.8878 2.54517 35.9123 2.0859 37 2C39.654 2 41 4.019 41 8C40.8689 11.585 40.0635 15.1132 38.626 18.4C38.4694 18.7683 38.1072 19.0067 37.707 19.005H22.293C21.8928 19.0067 21.5306 18.7683 21.374 18.4C19.9365 15.1132 19.1311 11.585 19 8C19 4.019 20.346 2 23 2Z" fill="#00A0DC"></path><path d="M22.275 12C22.332 12.0004 22.3889 11.9954 22.445 11.985C22.9888 11.8914 23.354 11.3749 23.261 10.831C23.0945 9.89636 23.0072 8.94933 23 8C22.9548 7.31399 23.0379 6.62557 23.245 5.97C23.7351 5.84717 24.0566 5.37801 23.9943 4.87659C23.9319 4.37516 23.5053 3.99904 23 4C21 4 21 7.011 21 8C21.0072 9.06267 21.1045 10.1228 21.291 11.169C21.3732 11.6485 21.7885 11.9992 22.275 12Z" fill="#00A0DC"></path><path d="M48.2919 27.706C48.3851 27.7993 48.4959 27.8731 48.6179 27.923C48.8622 28.0257 49.1376 28.0257 49.3819 27.923C49.504 27.8731 49.6148 27.7993 49.7079 27.706L52.7079 24.706C53.0869 24.3136 53.0815 23.6899 52.6958 23.3042C52.31 22.9184 51.6863 22.913 51.2939 23.292L49.9999 24.586V18C49.9999 17.4477 49.5522 17 48.9999 17C48.4476 17 47.9999 17.4477 47.9999 18V24.586L46.7069 23.293C46.3145 22.914 45.6908 22.9194 45.3051 23.3052C44.9194 23.6909 44.9139 24.3146 45.2929 24.707L48.2919 27.706Z" fill="#00A0DC"></path><path d="M10.2931 16.707C10.3862 16.7996 10.4966 16.873 10.6181 16.923C10.8624 17.0257 11.1378 17.0257 11.3821 16.923C11.5036 16.873 11.614 16.7996 11.7071 16.707L14.7071 13.707C15.0861 13.3146 15.0807 12.6909 14.6949 12.3052C14.3092 11.9194 13.6855 11.914 13.2931 12.293L12.0001 13.586V7C12.0001 6.44771 11.5524 6 11.0001 6C10.4478 6 10.0001 6.44771 10.0001 7V13.586L8.70711 12.293C8.45603 12.033 8.08423 11.9288 7.7346 12.0203C7.38497 12.1118 7.11192 12.3849 7.02041 12.7345C6.92889 13.0841 7.03315 13.4559 7.29311 13.707L10.2931 16.707Z" fill="#00A0DC"></path></svg>