<svg xmlns="http://www.w3.org/2000/svg" width="60" height="60" viewBox="0 0 60 60" fill="none"><g clip-path="url(#clip0)"><path opacity="0.2" d="M56.0001 20.8653V32.3653L1.00024 31.4154V20.8653C1.00665 18.2973 2.9549 16.1508 5.51013 15.8954C7.83008 15.6454 10.1532 15.4353 12.48 15.2655C13.3901 15.1854 14.3001 15.1254 15.2101 15.0755C19.6299 14.7853 24.0702 14.6255 28.4999 14.6155C32.9302 14.6255 37.37 14.7853 41.7902 15.0755C42.7002 15.1254 43.6098 15.1854 44.5198 15.2655H44.5299C46.8499 15.4353 49.1703 15.6454 51.4902 15.8954C54.0454 16.1508 55.9932 18.2973 56.0001 20.8653Z" fill="#00A0DC"></path><path d="M30.0001 31.6855V42.1056C29.9978 42.9864 29.6458 43.83 29.0214 44.4507C28.3966 45.0715 27.5506 45.4185 26.6703 45.4153H18.3299C17.4496 45.4185 16.6037 45.0715 15.9788 44.4507C15.3544 43.83 15.0024 42.9864 15.0001 42.1056V30.1855C14.8454 27.0008 17.0436 24.1819 20.1701 23.5557C20.6645 23.4604 21.1666 23.4137 21.6702 23.4156C23.8766 23.4092 25.9951 24.2798 27.5602 25.8353C29.1249 27.3798 30.0038 29.4874 30.0001 31.6855Z" fill="white"></path><path d="M15.0001 31.3953V40.0456C14.9974 40.947 14.6366 41.8108 13.9972 42.4466C13.3577 43.0824 12.492 43.4381 11.5902 43.4354H4.41021C3.50841 43.4381 2.64232 43.0824 2.00283 42.4466C1.36333 41.8108 1.00261 40.947 1.00032 40.0456V29.8956C0.904195 27.0122 2.94765 24.4991 5.78991 24.0056C6.26094 23.914 6.74022 23.8701 7.21996 23.8756H7.42C9.42272 23.8673 11.3462 24.6552 12.7676 26.0655C14.189 27.4759 14.9923 29.393 15.0001 31.3953Z" fill="white"></path><path d="M45 30.1854V42.1056C44.9977 42.9863 44.6457 43.83 44.0213 44.4507C43.3965 45.0714 42.5505 45.4184 41.6702 45.4152H33.3298C32.4495 45.4184 31.6035 45.0714 30.9787 44.4507C30.3543 43.83 30.0023 42.9863 30 42.1056V31.6855C30.0082 27.6791 32.8853 24.2546 36.8298 23.5556C37.3247 23.4631 37.8268 23.4164 38.3299 23.4155C43.3301 23.4155 45 27.3853 45 30.1854Z" fill="white"></path><path d="M58.9998 30.0325V40.1825C58.9975 41.0839 58.6368 41.9477 57.9973 42.5835C57.3578 43.2193 56.4917 43.575 55.5899 43.5723H48.4099C47.5081 43.575 46.6425 43.2193 46.003 42.5835C45.3635 41.9477 45.0027 41.0839 45 40.1825V31.5321C45.0092 27.8911 47.6248 24.7788 51.21 24.1425C51.6609 24.0532 52.1201 24.0097 52.5801 24.0125H52.7801C54.4253 23.9049 56.039 24.4977 57.2237 25.6444C58.4083 26.7911 59.0533 28.3846 58.9998 30.0325Z" fill="white"></path><path d="M4.41013 43.4354H7.40985C6.50851 43.4382 5.64243 43.0825 5.00293 42.4466C4.36343 41.8108 4.00272 40.947 3.99997 40.0457V20.8654C4.00684 18.2973 5.95462 16.1508 8.50986 15.8954C10.8298 15.6455 13.1534 15.4354 15.4802 15.2655C16.3903 15.1854 17.2998 15.1255 18.2099 15.0756C22.63 14.7853 27.0699 14.6256 31.5001 14.6155H31.5221C31.3481 14.6155 31.1742 14.6054 31.0002 14.6054C30.3301 14.5853 29.67 14.5853 28.9998 14.6054C28.83 14.6054 28.6702 14.6054 28.4999 14.6155C24.0702 14.6256 19.6299 14.7853 15.2101 15.0756C14.3001 15.1255 13.3901 15.1854 12.48 15.2655C10.1468 15.4354 7.82321 15.6455 5.51013 15.8954C2.9549 16.1508 1.00665 18.2973 1.00024 20.8654V40.0457C1.00253 40.947 1.36325 41.8108 2.00275 42.4466C2.64224 43.0825 3.50833 43.4382 4.41013 43.4354Z" fill="white"></path><path d="M5.3999 14.8965C9.72806 14.4378 14.0663 14.1 18.415 13.8834C30.4849 13.2806 42.5831 13.6189 54.6003 14.8965L54.3879 16.8855C42.4751 15.6202 30.4821 15.2856 18.5171 15.8852C14.2086 16.0995 9.90842 16.4327 5.61734 16.8855L5.3999 14.8965Z" fill="white"></path><path d="M14.1348 14.4264C13.9297 14.2584 13.6688 14.1738 13.4037 14.1893C13.1858 14.2127 12.9803 14.3047 12.8178 14.4525C12.3481 14.5331 12.0039 14.9387 11.9998 15.4152C11.9998 15.9677 12.4474 16.4154 13 16.4154C13.4339 16.4154 13.9997 18.3554 13.9997 20.4154C13.9997 20.6809 14.1055 20.9349 14.2927 21.1226C14.4804 21.3103 14.7349 21.4156 14.9999 21.4156C15.552 21.4156 16.0002 20.9679 16.0002 20.4154C16.0002 19.6157 15.8999 16.3156 14.436 14.9794C14.3948 14.7684 14.2895 14.5757 14.1348 14.4264Z" fill="#00A0DC"></path><path d="M54.6002 14.8965C42.5835 13.6193 30.4852 13.2806 18.4158 13.8835L17.4161 13.9334C17.0586 13.9531 16.739 14.1613 16.577 14.4804C16.4154 14.7999 16.436 15.1808 16.6319 15.4806C16.8274 15.7804 17.1675 15.953 17.525 15.9333L18.5188 15.8844C22.0111 15.7095 25.507 15.6243 29.003 15.6083V21.4155C29.003 21.9676 29.4507 22.4153 30.0032 22.4153C30.5553 22.4153 31.003 21.9676 31.003 21.4155V15.6033C35.603 15.6221 40.1985 15.7782 44.789 16.0725C44.2479 17.4554 43.9801 18.9303 43.9998 20.4153C43.9998 20.9678 44.4479 21.4155 45 21.4155C45.5521 21.4155 46.0002 20.9678 46.0002 20.4153C46.0002 18.3554 46.566 16.4154 47 16.4154C47.1744 16.4112 47.3442 16.3604 47.4921 16.2675C49.7919 16.4424 52.0921 16.6415 54.386 16.8855C56.434 17.0906 57.995 18.8113 58 20.8694V24.8693C56.6034 23.5212 54.7165 22.8025 52.7769 22.8804H52.5769C49.6394 22.8799 46.9052 24.3814 45.3291 26.8602C44.1756 24.0435 41.3686 22.2633 38.329 22.4203C34.812 22.4212 31.593 24.3965 30 27.5322C28.4079 24.3933 25.1866 22.4153 21.6669 22.4153C18.6273 22.2583 15.8203 24.0385 14.6672 26.8556C13.0907 24.3763 10.3569 22.8749 7.41898 22.8753H7.21893C5.28076 22.7984 3.39523 23.5171 1.99997 24.8643V20.8644C2.00775 18.8086 3.56735 17.0906 5.6131 16.8855C6.9342 16.7582 8.25211 16.6095 9.57504 16.5023C9.94949 16.4968 10.2896 16.2822 10.4562 15.9466C10.6224 15.6106 10.5872 15.2101 10.3647 14.9089C10.1422 14.6072 9.77005 14.4552 9.40018 14.5152C8.06488 14.6232 6.73416 14.7743 5.39978 14.9015C2.33688 15.2137 0.00549316 17.7905 0 20.8694V40.0465C0.00823975 42.4754 1.98303 44.4378 4.41193 44.4314H11.5878C12.5546 44.4282 13.4926 44.1059 14.257 43.5145C14.8613 45.249 16.496 46.4126 18.333 46.4154H26.667C27.9597 46.4117 29.1829 45.8285 30 44.8265C30.8171 45.8285 32.0403 46.4117 33.333 46.4154H41.667C43.5036 46.4126 45.1382 45.2499 45.743 43.5154C46.5074 44.1069 47.4458 44.4291 48.4122 44.4323H55.5881C58.0174 44.4392 59.9922 42.4758 60 40.0465V20.8694C59.9963 17.7887 57.6645 15.2096 54.6002 14.8965ZM52.5819 24.8753H52.782C54.1594 24.7746 55.5148 25.2635 56.51 26.2207C57.5056 27.1778 58.0472 28.5131 58 29.8933V32.6033C57.5482 32.6902 56.8872 32.8033 56.0001 32.9402V31.4154C56.0001 30.3108 55.1047 29.4154 54.0001 29.4154H50.9999C49.8953 29.4154 48.9999 30.3108 48.9999 31.4154V33.7262C48.0725 33.8035 47.0728 33.8772 46.0002 33.9473V31.3975C46.0208 27.7807 48.9651 24.8634 52.5819 24.8753ZM54.0001 37.4153H50.9999V35.5654C52.1219 35.4574 53.1221 35.3489 54.0001 35.2404V37.4153ZM50.9999 33.5453V31.4154H54.0001V33.2153C53.129 33.3224 52.1329 33.4355 50.9999 33.5453ZM38.3331 24.4152C42.8069 24.4152 43.9998 28.0412 43.9998 30.1844V34.0654C43.0513 34.1175 42.0515 34.1642 41.0001 34.2063V32.4156C41.0001 31.311 40.1047 30.4151 39.0001 30.4151H35.9999C34.8953 30.4151 33.9999 31.311 33.9999 32.4156V34.3895C33.0331 34.4014 32.0311 34.4096 31.0002 34.4123V31.6822C31.0231 27.6525 34.3034 24.402 38.3331 24.4152ZM39.0001 38.4155H35.9999V36.3574C37.0381 36.3372 38.0411 36.3125 39.0001 36.2823V38.4155ZM35.9999 34.3556V32.4156H39.0001V34.2782C38.0411 34.3093 37.039 34.3345 35.9999 34.3556ZM16.0002 30.1844C16.0002 28.0412 17.1931 24.4152 21.6669 24.4152C25.6966 24.402 28.9769 27.6525 28.9998 31.6822V34.4155C27.9689 34.4155 26.9669 34.4046 26.0001 34.3922V32.4156C26.0001 31.311 25.1047 30.4151 24.0001 30.4151H20.9999C19.8953 30.4151 18.9999 31.311 18.9999 32.4156V34.2063C17.9494 34.1642 16.9492 34.1175 16.0002 34.0654V30.1844ZM24.0001 38.4155H20.9999V36.2823C21.9598 36.3125 22.9628 36.3372 24.0001 36.3574V38.4155ZM20.9999 34.2782V32.4156H24.0001V34.3556C22.9619 34.3345 21.9598 34.3093 20.9999 34.2782ZM7.22214 24.8753H7.42218C11.0371 24.8652 13.9792 27.7821 13.9998 31.3975V33.9473C12.9259 33.8772 11.9261 33.8035 11.0001 33.7262V31.4154C11.0001 30.3108 10.1047 29.4154 9.00009 29.4154H5.99991C4.89532 29.4154 3.99994 30.3108 3.99994 31.4154V32.9402C3.11279 32.8065 2.45178 32.6902 1.99997 32.6033V29.8933C1.95282 28.5122 2.49481 27.1765 3.49136 26.2193C4.48746 25.2616 5.84381 24.7732 7.22214 24.8753ZM9.00009 37.4153H5.99991V35.2404C6.87744 35.3471 7.8772 35.4556 9.00009 35.5654V37.4153ZM5.99991 33.2153V31.4154H9.00009V33.5453C7.86713 33.4355 6.87103 33.3224 5.99991 33.2153ZM11.5878 42.4333H4.41193C3.0867 42.4401 2.00729 41.3713 1.99997 40.0465V34.6463C2.49985 34.7406 3.16406 34.8523 3.99994 34.9754V37.4153C3.99994 38.5199 4.89532 39.4152 5.99991 39.4152H9.00009C10.1047 39.4152 11.0001 38.5199 11.0001 37.4153V35.7421C11.9312 35.8172 12.9259 35.8914 13.9998 35.9596V40.0465C13.9915 41.3708 12.9121 42.4379 11.5878 42.4314V42.4333ZM26.667 44.4154H18.333C17.0522 44.4209 16.0089 43.3891 16.0002 42.1083V36.0745C16.9501 36.1244 17.9498 36.1702 18.9999 36.2123V38.4155C18.9999 39.5201 19.8953 40.4155 20.9999 40.4155H24.0001C25.1047 40.4155 26.0001 39.5201 26.0001 38.4155V36.3903C26.9659 36.4022 27.9698 36.4096 28.9998 36.4123V42.1124C28.9888 43.3914 27.946 44.4209 26.667 44.4154ZM43.9998 42.1083C43.9911 43.3891 42.9478 44.4209 41.667 44.4154H33.333C32.0522 44.4209 31.0089 43.3891 31.0002 42.1083V36.4155C32.0302 36.4155 33.0341 36.4054 33.9999 36.3935V38.4155C33.9999 39.5201 34.8953 40.4155 35.9999 40.4155H39.0001C40.1047 40.4155 41.0001 39.5201 41.0001 38.4155V36.2155C42.0515 36.1747 43.0513 36.1285 43.9998 36.0772V42.1115V42.1083ZM58 40.0465C57.9918 41.3708 56.9124 42.4379 55.5881 42.4314H48.4122C47.0879 42.4379 46.0085 41.3708 46.0002 40.0465V35.9596C47.0741 35.8914 48.0688 35.8172 48.9999 35.7421V37.4153C48.9999 38.5199 49.8953 39.4152 50.9999 39.4152H54.0001C55.1047 39.4152 56.0001 38.5199 56.0001 37.4153V34.9713C56.8359 34.8486 57.5002 34.7364 58 34.6426V40.0465Z" fill="#00A0DC"></path></g><defs><clipPath id="clip0"><rect width="60" height="60" fill="white"></rect></clipPath></defs></svg>