<svg xmlns="http://www.w3.org/2000/svg" width="60" height="60" viewBox="0 0 60 60" fill="none"><path opacity="0.2" d="M58.9998 14.4475V21.4472C58.9998 21.9997 58.5521 22.4474 58.0001 22.4474V21.7772C58.0568 21.2627 57.8975 20.7477 57.5597 20.3554C57.2223 19.9631 56.7371 19.7283 56.2198 19.7072C55.6096 19.7145 55.0342 19.9929 54.6501 20.4671C54.2244 20.9816 53.9942 21.6298 54.0001 22.2972V21.4472C54.0399 20.6108 53.725 19.7965 53.1331 19.2046C52.5408 18.6122 51.7264 18.2973 50.8901 18.3371C48.7422 18.3385 47.0009 20.0794 47 22.2272V21.4472C47.0462 20.4895 46.686 19.5571 46.008 18.8791C45.3301 18.2012 44.3976 17.8409 43.44 17.8871C42.2608 17.8871 41.1296 18.3559 40.2965 19.1909C39.4638 20.0258 38.9969 21.1579 39.0001 22.3371V21.4472C39.0518 20.3714 38.6472 19.3236 37.8855 18.5619C37.1237 17.8002 36.0759 17.3951 35.0002 17.4472C33.6727 17.4431 32.3987 17.9686 31.4603 18.9075C30.5214 19.8459 29.9959 21.1199 30 22.4474C30.0042 21.1199 29.4786 19.8459 28.5398 18.9075C27.6013 17.9686 26.3274 17.4431 24.9999 17.4472C23.9241 17.3951 22.8763 17.8002 22.1146 18.5619C21.3529 19.3236 20.9482 20.3714 20.9999 21.4472V22.3371C21.0031 21.1579 20.5362 20.0258 19.7036 19.1909C18.8704 18.3559 17.7393 17.8871 16.5601 17.8871C15.6024 17.8409 14.67 18.2012 13.992 18.8791C13.3141 19.5571 12.9538 20.4895 13.0001 21.4472V22.2272C12.9991 20.0794 11.2578 18.3385 9.10999 18.3371C8.27365 18.2973 7.45929 18.6122 6.86694 19.2046C6.27505 19.7965 5.96011 20.6108 5.99994 21.4472V22.2972C6.00589 21.6298 5.77563 20.9816 5.34991 20.4671C4.96585 19.9929 4.39044 19.7145 3.78024 19.7072C3.26297 19.7283 2.77774 19.9631 2.44037 20.3554C2.10254 20.7477 1.94324 21.2627 2 21.7772V22.4474C1.44794 22.4474 1.00024 21.9997 1.00024 21.4472V14.4475C1.00024 11.1374 13.9801 8.44714 30 8.44714C46.0199 8.44714 58.9998 11.1374 58.9998 14.4475Z" fill="#00A0DC"></path><path opacity="0.2" d="M58.0001 38.9273V46.6571C58.0001 49.8473 45.4702 52.4474 30 52.4474C14.5299 52.4474 2 49.8473 2 46.6571V38.9273C2.00046 38.671 2.10345 38.4256 2.28519 38.2457C2.46738 38.0653 2.71365 37.9651 2.97 37.9674H3.3298C3.62277 38.4883 4.18307 38.8014 4.78 38.7772C5.3902 38.7698 5.96561 38.4915 6.35013 38.0173C6.77722 37.5037 7.00748 36.855 7.00015 36.1871V39.5471C6.97498 40.3697 7.29816 41.1649 7.8905 41.7361C8.48285 42.3074 9.28897 42.6022 10.1102 42.5473H10.2498C11.2967 42.5519 12.2965 42.1124 13.0001 41.3374V41.5173C12.9708 42.4585 13.3411 43.3685 14.019 44.0218C14.6974 44.6754 15.6203 45.0114 16.5601 44.9474H16.7102C17.8478 44.9474 18.9391 44.4955 19.7438 43.6913C20.5486 42.8865 21.0004 41.7952 20.9999 40.6572V43.4775C20.9999 45.0774 22.0002 46.3774 24.9999 46.3774H25.1702C26.4514 46.3779 27.6801 45.8693 28.5865 44.9634C29.4924 44.0575 30.0009 42.8284 30 41.5471C29.9991 42.8284 30.5077 44.0575 31.4136 44.9634C32.32 45.8693 33.5486 46.3779 34.8299 46.3774H35.0002C37.9999 46.3774 39.0001 45.0774 39.0001 43.4775V40.6572C38.9997 41.7952 39.4515 42.8865 40.2562 43.6913C41.061 44.4955 42.1523 44.9474 43.2898 44.9474H43.44C44.3798 45.0114 45.3026 44.6754 45.981 44.0218C46.659 43.3685 47.0293 42.4585 47 41.5173V41.3374C47.7036 42.1124 48.7033 42.5519 49.7502 42.5473H49.8899C50.7111 42.6022 51.5172 42.3074 52.1096 41.7361C52.7019 41.1649 53.0251 40.3697 52.9999 39.5471V36.1871C52.9926 36.855 53.2228 37.5037 53.6499 38.0173C54.0345 38.4915 54.6099 38.7698 55.2201 38.7772C55.817 38.8014 56.3773 38.4883 56.6703 37.9674H57.0301C57.2864 37.9651 57.5327 38.0653 57.7149 38.2457C57.8966 38.4256 57.9996 38.671 58.0001 38.9273Z" fill="#00A0DC"></path><path d="M1.00024 11.4473V21.4471C1.00024 21.9996 1.44794 22.4473 2 22.4473V24.4473C2.0032 25.5505 2.89676 26.4441 3.99997 26.4473H5.56003C5.74268 26.4395 5.90152 26.3205 5.96011 26.1474C5.36639 25.7858 5.00293 25.1422 5.00018 24.4473V22.4473C4.44766 22.4473 3.99997 21.9996 3.99997 21.4471V11.4473" fill="white"></path><path d="M7.00021 26.4473C6.64774 26.445 6.30258 26.3489 6 26.1681V26.4473" fill="white"></path><path d="M5.00018 48.657V38.9273C5.00064 38.6709 5.10318 38.4256 5.28537 38.2457C5.46756 38.0653 5.71384 37.9651 5.97018 37.9673H6.32999C6.10843 37.5847 5.99445 37.1493 5.99994 36.7071V34.9672C6.00177 34.4915 6.17984 34.0338 6.49982 33.6822C6.13681 33.2734 5.61679 33.0386 5.07022 33.0372H4.93015C3.86447 33.0377 3.00067 33.9015 3.00021 34.9672V36.7071C2.99426 37.1493 3.10825 37.5847 3.3298 37.9673H2.97C2.71365 37.9651 2.46738 38.0653 2.28519 38.2457C2.10345 38.4256 2.00046 38.6709 2 38.9273V48.657" fill="white"></path><path d="M0 13.4474C0.0531006 12.6152 0.45639 11.8443 1.11008 11.3266C1.58661 10.9191 2.11349 10.574 2.677 10.2993C3.70514 9.79625 4.77585 9.38655 5.87723 9.07436C8.00446 8.46736 10.1688 7.99953 12.3569 7.67452C18.1989 6.82353 24.0967 6.41338 30 6.44725V8.44722C24.2006 8.41289 18.4067 8.81435 12.6668 9.64748C10.5675 9.95921 8.4906 10.4069 6.44897 10.9883C5.46432 11.2661 4.50623 11.631 3.58612 12.0782C3.17368 12.276 2.78778 12.5245 2.43713 12.8184C2.22244 12.9708 2.06818 13.1933 1.99997 13.4474H0Z" fill="white"></path><path d="M7.109 10.5011C7.22207 10.5643 7.34612 10.6055 7.47475 10.6224C7.86568 10.6746 8.25112 10.4947 8.46215 10.1615C8.52623 10.047 8.56926 9.92207 8.58895 9.79252C8.66173 9.39381 8.4832 8.99143 8.13896 8.77812C7.65465 8.49156 7.02935 8.64903 6.73913 9.13151L6.65993 9.30638C6.6375 9.37092 6.62377 9.43821 6.62011 9.50642C6.60729 9.56913 6.60409 9.63368 6.61095 9.69731C6.61782 9.7646 6.62926 9.83143 6.64483 9.89735C6.72173 10.1482 6.88652 10.3624 7.109 10.5011Z" fill="#00A0DC"></path><path d="M30 6.44725C24.0967 6.41338 18.1989 6.82353 12.3569 7.67452L11.3571 7.83748C10.8124 7.93041 10.4466 8.44722 10.5396 8.99196C10.6325 9.53624 11.1493 9.90245 11.694 9.80953L12.6668 9.65022C18.4062 8.81618 24.2006 8.41426 30 8.44722C48.1169 8.44722 58 11.7472 58 13.4474V19.3745C57.5143 18.9337 56.879 18.6947 56.223 18.7062C55.5794 18.708 54.9536 18.9186 54.44 19.3063C53.7195 18.0351 52.3489 17.2734 50.8891 17.3324C49.5213 17.3352 48.2185 17.9142 47.2998 18.9273C46.4822 17.5943 45.0023 16.8138 43.4399 16.8916C41.8529 16.8911 40.345 17.5851 39.3132 18.7913C38.4302 17.2619 36.7639 16.356 35.0002 16.4476C32.9878 16.4489 31.1101 17.4588 30 19.1374C28.8899 17.4588 27.0122 16.4489 24.9998 16.4476C23.2338 16.3555 21.5657 17.2628 20.6831 18.7954C19.6513 17.5892 18.1435 16.8952 16.5559 16.8952C14.9959 16.8174 13.5178 17.5965 12.7002 18.9273C11.7815 17.9165 10.48 17.3388 9.11407 17.3365C7.65289 17.2761 6.28098 18.0383 5.56 19.3104C5.04639 18.9227 4.42108 18.7121 3.77792 18.7103C3.12241 18.6975 2.48657 18.935 1.99997 19.3745V13.4474C2.02423 13.3297 2.07321 13.2189 2.14417 13.1224C2.29568 12.9397 2.47055 12.7772 2.66418 12.6394C3.14621 12.2998 3.66394 12.0141 4.20822 11.7875C4.69162 11.5618 4.92233 11.0038 4.73923 10.5026C4.64355 10.2471 4.44626 10.043 4.19449 9.93907C3.94272 9.8347 3.65891 9.8402 3.4108 9.95326C2.72415 10.2412 2.07184 10.6047 1.46622 11.0372C1.11832 11.2899 0.807037 11.5889 0.541077 11.9262C0.209656 12.3661 0.0210572 12.8971 0 13.4474V21.4473C0.00228881 22.1586 0.383148 22.8151 1.00021 23.1694V24.4474C1.00021 26.1041 2.34329 27.4472 3.99994 27.4472H5.18417C5.60623 28.6419 6.73325 29.4421 7.99988 29.4476H11.0001C11.5169 29.4444 12.0241 29.3066 12.4709 29.0475C13.0179 29.9173 13.9728 30.4455 15 30.4473H18.9999C19.5168 30.4446 20.024 30.3064 20.4712 30.0473C21.0178 30.917 21.9727 31.4457 22.9999 31.4476H28C28.7402 31.4448 29.4534 31.1669 30 30.6675C30.5466 31.1669 31.2598 31.4448 32 31.4476H37.0001C38.0273 31.4457 38.9822 30.917 39.5288 30.0473C39.976 30.3064 40.4832 30.4446 41.0001 30.4473H45C46.0272 30.4455 46.9821 29.9173 47.5291 29.0475C47.9759 29.3066 48.4831 29.4444 48.9999 29.4476H52.0001C53.2668 29.4421 54.3938 28.6419 54.8158 27.4472H56.0001C57.6567 27.4472 58.9998 26.1041 58.9998 24.4474V23.1694C59.6169 22.8151 59.9977 22.1586 60 21.4473V13.4474C60 7.91026 40.3761 6.44725 30 6.44725ZM3.00018 24.4474V21.7805C3.00018 21.6015 3.03818 20.7066 3.77792 20.7066C4.54193 20.8316 5.07706 21.5292 5.00015 22.2992V25.4472H3.99994C3.44788 25.4472 3.00018 24.9995 3.00018 24.4474ZM11.0001 27.4472H7.99988C7.44781 27.4472 7.00012 26.9995 7.00012 26.4474V21.4473C6.96304 20.8769 7.17361 20.3184 7.57782 19.9142C7.98203 19.51 8.5405 19.2994 9.11087 19.3365C10.7057 19.3379 11.9984 20.6306 11.9998 22.2255V26.4474C11.9998 26.9995 11.5521 27.4472 11.0001 27.4472ZM18.9999 28.4474H15C14.4479 28.4474 13.9998 27.9997 13.9998 27.4472V21.4473C13.9668 20.7597 14.2255 20.09 14.7121 19.6034C15.1987 19.1168 15.8684 18.8581 16.5559 18.8916C18.4575 18.8934 19.9983 20.4347 20.0002 22.3362V27.4472C20.0002 27.9997 19.5525 28.4474 18.9999 28.4474ZM28 29.4476H22.9999C22.4478 29.4476 22.0001 28.9994 22.0001 28.4474V21.4473C21.9612 20.6402 22.2647 19.8542 22.836 19.2829C23.4073 18.7117 24.1928 18.4082 24.9998 18.4475C27.209 18.4475 28.9998 20.2383 28.9998 22.4475V28.4474C28.9998 28.9994 28.5521 29.4476 28 29.4476ZM37.9999 28.4474C37.9999 28.9994 37.5522 29.4476 37.0001 29.4476H32C31.4479 29.4476 31.0002 28.9994 31.0002 28.4474V22.4475C31.0002 20.2383 32.791 18.4475 35.0002 18.4475C35.8072 18.4082 36.5927 18.7117 37.164 19.2829C37.7353 19.8542 38.0388 20.6402 37.9999 21.4473V28.4474ZM46.0002 27.4472C46.0002 27.9997 45.5521 28.4474 45 28.4474H41.0001C40.4475 28.4474 39.9998 27.9997 39.9998 27.4472V22.3362C40.0017 20.4347 41.5425 18.8934 43.4441 18.8916C44.1316 18.8581 44.8013 19.1168 45.2879 19.6034C45.7745 20.09 46.0332 20.7597 46.0002 21.4473V27.4472ZM52.9999 26.4474C52.9999 26.9995 52.5522 27.4472 52.0001 27.4472H48.9999C48.4479 27.4472 48.0002 26.9995 48.0002 26.4474V22.2255C48.0016 20.6306 49.2943 19.3379 50.8891 19.3365C51.4595 19.2994 52.018 19.51 52.4222 19.9142C52.8264 20.3184 53.037 20.8769 52.9999 21.4473V26.4474ZM56.9998 24.4474C56.9998 24.9995 56.5521 25.4472 56.0001 25.4472H54.9998V22.2992C54.9229 21.5287 55.4585 20.8311 56.223 20.7066C56.9632 20.7066 56.9998 21.6015 56.9998 21.7805V24.4474Z" fill="#00A0DC"></path><path d="M1.00024 38.93V46.6543C1.00024 52.0271 19.97 53.4471 30 53.4471C40.0301 53.4471 58.9998 52.0271 58.9998 46.6543V38.93C58.9975 38.2086 58.5984 37.5462 57.9612 37.2075C57.9854 37.0417 57.9982 36.8747 58.0001 36.7071V34.9681C57.9982 33.3503 56.6867 32.0393 55.069 32.0384H54.9312C54.1434 32.0384 53.389 32.357 52.8392 32.9214C52.1109 32.1977 51.1263 31.7921 50.1 31.7921H48.9002C47.726 31.7944 46.6159 32.3268 45.8789 33.24C45.3319 32.9503 44.7231 32.7964 44.1042 32.7923H41.9001C40.5332 32.796 39.2693 33.5174 38.5712 34.692C37.88 34.1139 37.0089 33.7957 36.108 33.7921H32.9C31.7894 33.7944 30.7334 34.2732 30 35.1072C29.2667 34.2732 28.2106 33.7944 27.1001 33.7921H23.8999C22.999 33.7957 22.1279 34.1139 21.4371 34.692C20.739 33.5174 19.4747 32.796 18.1082 32.7923H15.9C15.2811 32.7964 14.6718 32.9503 14.1252 33.24C13.3869 32.3254 12.2754 31.7935 11.0999 31.7921H9.90009C8.87378 31.7917 7.88913 32.1977 7.16083 32.9214C6.61105 32.357 5.85666 32.0388 5.06885 32.0384H4.93106C3.31332 32.0398 2.00229 33.3503 2 34.9681V36.7044C2.00183 36.8715 2.01465 37.0385 2.03891 37.2043C1.40079 37.5439 1.00162 38.2072 1.00024 38.93ZM54.0001 34.9681C54.001 34.4545 54.4176 34.0388 54.9312 34.0384H55.069C55.5826 34.0388 55.9987 34.4545 56.0001 34.9681V36.7044C56.0001 36.8843 55.963 37.7792 55.2228 37.7792C54.4583 37.6547 53.9228 36.9571 54.0001 36.1862V34.9681ZM48.9002 33.7921H50.1C51.1492 33.7921 52.0002 34.6431 52.0002 35.6923V39.5471C52.0258 40.1046 51.8079 40.6462 51.4028 41.0298C50.9977 41.4138 50.4456 41.6029 49.8899 41.5471H49.7502C49.1085 41.5493 48.4873 41.3209 48.0002 40.9034V36.6884C47.9984 35.9422 47.7805 35.213 47.3731 34.5881C47.7237 34.0919 48.2923 33.7957 48.9002 33.7921ZM39.9999 36.692C39.9999 35.6428 40.8509 34.7923 41.9001 34.7923H44.1001C45.1493 34.7923 46.0002 35.6428 46.0002 36.692V41.5201C46.0199 42.1925 45.7526 42.8416 45.2646 43.3049C44.7766 43.7681 44.1147 44.002 43.4441 43.9471H43.2912C41.4762 43.9421 40.0063 42.4731 39.9999 40.6581V36.6884V36.692ZM32.9 35.7921H36.1002C37.1494 35.7921 37.9999 36.643 37.9999 37.6922V43.4861C37.9999 44.0043 37.9999 45.3863 35.0002 45.3863H34.8281C33.8114 45.3849 32.8363 44.9798 32.1186 44.2598C31.4003 43.5402 30.998 42.5642 31.0002 41.5471V37.6881C31.0021 36.6403 31.8521 35.7921 32.9 35.7921ZM23.8999 35.7921H27.1001C28.1493 35.7921 28.9998 36.643 28.9998 37.6922V41.5471C28.9971 43.6601 27.285 45.3721 25.172 45.3744H24.9999C22.0002 45.3744 22.0002 43.9961 22.0002 43.4742V37.6881C22.0024 36.6403 22.8521 35.7921 23.8999 35.7921ZM18.1082 34.7923C19.1574 34.7923 20.008 35.6428 20.008 36.692V40.6622C19.9997 42.4786 18.5253 43.9467 16.7089 43.9471H16.556C15.8849 44.002 15.222 43.7677 14.7341 43.304C14.2461 42.8398 13.9792 42.1893 13.9998 41.5164V36.6884C13.9998 35.6387 14.8508 34.7882 15.9 34.7882L18.1082 34.7923ZM9.90787 33.7921H11.1081C11.7151 33.7948 12.2832 34.0896 12.6352 34.584C12.2278 35.2089 12.0099 35.9385 12.0081 36.6842V40.8984C11.5219 41.3182 10.9008 41.5489 10.2581 41.5484H10.118C9.56134 41.6061 9.00653 41.4184 8.59958 41.0339C8.19263 40.6494 7.97382 40.1065 7.99991 39.5471V35.6872C8.00266 34.6399 8.85272 33.7921 9.90009 33.7921H9.90787ZM3.99997 34.9681C4.00043 34.4545 4.41745 34.0384 4.93106 34.0384H5.06885C5.58292 34.0384 5.99948 34.4545 5.99994 34.9681V36.1862C6.0773 36.9566 5.54218 37.6542 4.77817 37.7792C4.03796 37.7792 3.99997 36.8792 3.99997 36.7044V34.9681ZM4.77817 39.7792C5.20023 39.7778 5.61725 39.6853 5.99994 39.5073V39.5471C5.97797 40.6343 6.40735 41.6816 7.18646 42.4397C7.96558 43.1978 9.02393 43.5992 10.1102 43.547H10.2498C10.9484 43.5438 11.6368 43.3859 12.2672 43.0851C12.8902 44.8956 14.6453 46.0666 16.556 45.9471H16.7089C17.9819 45.942 19.2092 45.4747 20.1631 44.6324C20.5262 45.8835 21.6632 47.3762 24.9999 47.3762H25.172C27.1074 47.3762 28.9165 46.4149 30 44.8114C31.0831 46.4158 32.8922 47.3781 34.8281 47.3781H35.0002C38.3409 47.3781 39.4739 45.8853 39.8369 44.6342C40.7909 45.476 42.0186 45.943 43.2912 45.9471H43.4441C45.3543 46.0679 47.1094 44.8979 47.7329 43.0883C48.3628 43.3896 49.0517 43.547 49.7502 43.5502H49.8899C50.9761 43.602 52.0345 43.201 52.8136 42.4429C53.5927 41.6844 54.0221 40.637 54.0001 39.5503V39.5041C54.3833 39.683 54.8003 39.776 55.2228 39.7773C55.8783 39.7892 56.5142 39.5512 56.9998 39.1113V46.6543C56.9998 48.2812 47.4701 51.4471 30 51.4471C12.5299 51.4471 3.00021 48.2812 3.00021 46.6543L2.96588 39.0761C3.45477 39.5388 4.10526 39.7915 4.77817 39.7792Z" fill="#00A0DC"></path></svg>