<svg xmlns="http://www.w3.org/2000/svg" width="60" height="60" viewBox="0 0 60 60" fill="none"><path d="M1.54004 48.29C1.38426 48.2414 1.23356 48.1777 1.09004 48.1C1.07004 47.63 1.05004 47.15 1.04004 46.64C1.10475 47.2159 1.2742 47.7751 1.54004 48.29Z" fill="#FF5364"></path><path opacity="0.2" d="M58.91 48.1C58.71 53.61 58.15 56.49 56.93 57.87C56.1821 58.6817 55.0992 59.0993 54 59C48 59 46.37 49.86 45 43C43 33 39 23 30 23C21 23 17 33 15 43C13.63 49.86 12 59 5.99996 59C4.90074 59.0993 3.81787 58.6817 3.06996 57.87C1.84996 56.49 1.28996 53.61 1.08996 48.1C1.01715 47.4025 0.987098 46.7012 0.999963 46C1.54996 47.03 1.99996 50 3.99996 50C5.65996 50 6.99996 48.21 6.99996 46C7.08505 44.5106 6.35829 43.0915 5.09996 42.29C4.7645 42.1 4.38552 42.0001 3.99996 42C2.43996 42 1.14996 43.6 1.00996 45.63C0.989963 44.51 0.999963 43.3 0.999963 42C0.999963 41.36 1.01996 40.74 1.04996 40.12C1.12087 38.787 1.26106 37.4585 1.46996 36.14C1.8804 37.1988 2.86692 37.9241 3.99996 38C5.65996 38 6.99996 36.21 6.99996 34C7.06413 32.6073 6.44446 31.2709 5.33996 30.42C4.94551 30.1488 4.47864 30.0025 3.99996 30C3.58827 29.9995 3.18405 30.11 2.82996 30.32C3.12996 29.35 3.44996 28.43 3.78996 27.56C4.22996 26.41 4.68996 25.35 5.15996 24.39C5.63996 26.47 7.17996 28 8.99996 28C11.21 28 13 25.76 13 23C13.0227 21.7276 12.6099 20.4857 11.83 19.48C11.8302 19.2963 11.8202 19.1127 11.8 18.93C15.64 19.46 16.43 15.58 16.21 13.41C16.1477 12.6806 16.6211 12.0128 17.33 11.83C19.77 11.15 20.1 8.57004 20.08 7.08004C20.0726 6.49635 20.5016 5.99877 21.08 5.92004C22.4196 5.81617 23.5508 4.88479 23.91 3.59004C24.0075 3.23456 24.3313 2.98864 24.7 2.99004C26.2802 3.00751 27.8113 2.44136 29 1.40004C29.5614 0.870234 30.4386 0.870234 31 1.40004C32.1887 2.44136 33.7198 3.00751 35.3 2.99004C35.6686 2.98864 35.9924 3.23456 36.09 3.59004C36.4491 4.88479 37.5804 5.81617 38.92 5.92004C39.4984 5.99877 39.9273 6.49635 39.92 7.08004C39.9 8.57004 40.23 11.15 42.67 11.83C43.3788 12.0128 43.8522 12.6806 43.79 13.41C43.57 15.58 44.36 19.46 48.2 18.93C48.1797 19.1127 48.1697 19.2963 48.17 19.48C47.39 20.4857 46.9772 21.7276 47 23C47 25.76 48.79 28 51 28C52.82 28 54.36 26.47 54.84 24.39C55.31 25.35 55.77 26.41 56.21 27.56C56.55 28.43 56.87 29.35 57.17 30.32C56.8159 30.11 56.4117 29.9995 56 30C55.5213 30.0025 55.0544 30.1488 54.66 30.42C53.5555 31.2709 52.9358 32.6073 53 34C53 36.21 54.34 38 56 38C57.133 37.9241 58.1195 37.1988 58.53 36.14C58.7389 37.4585 58.8791 38.787 58.95 40.12C58.98 40.74 59 41.36 59 42C59 43.3 59.01 44.51 58.99 45.63C58.85 43.6 57.56 42 56 42C55.6144 42.0001 55.2354 42.1 54.9 42.29C53.6416 43.0915 52.9149 44.5106 53 46C53 48.21 54.34 50 56 50C57.01 50 58.45 47.03 59 46C59.15 45.95 58.77 48.18 58.91 48.1Z" fill="#00A0DC"></path><path d="M7.00004 46C7.00004 48.21 5.66004 50 4.00004 50C2.92631 49.9305 1.97931 49.2723 1.54004 48.29C1.75831 48.35 1.98367 48.3803 2.21004 48.38C3.98004 48.38 5.41004 46.46 5.41004 44.1C5.41304 43.4832 5.30812 42.8707 5.10004 42.29C6.35837 43.0915 7.08513 44.5106 7.00004 46Z" fill="#FB7B76"></path><path d="M4.00098 50C5.65783 50 7.00098 48.2091 7.00098 46C7.00098 43.7909 5.65783 42 4.00098 42C2.34412 42 1.00098 43.7909 1.00098 46C1.00098 48.2091 2.34412 50 4.00098 50Z" fill="white"></path><path d="M9.00098 27.9999C11.2101 27.9999 13.001 25.7613 13.001 22.9999C13.001 20.2385 11.2101 17.9999 9.00098 17.9999C6.79184 17.9999 5.00098 20.2385 5.00098 22.9999C5.00098 25.7613 6.79184 27.9999 9.00098 27.9999Z" fill="white"></path><path d="M4.00073 38C5.65759 38 7.00073 36.2091 7.00073 34C7.00073 31.7909 5.65759 30 4.00073 30C2.34388 30 1.00073 31.7909 1.00073 34C1.00073 36.2091 2.34388 38 4.00073 38Z" fill="white"></path><path d="M4.00073 49.9999C5.65759 49.9999 7.00073 48.209 7.00073 45.9999C7.00073 43.7907 5.65759 41.9999 4.00073 41.9999C2.34388 41.9999 1.00073 43.7907 1.00073 45.9999C1.00073 48.209 2.34388 49.9999 4.00073 49.9999Z" fill="white"></path><path d="M13.9749 18.6659C14.0629 18.7279 14.1529 18.7829 14.2359 18.8529C14.1299 18.7629 14.2549 18.8729 14.7999 18.9299C18.6399 19.4599 19.4298 15.5799 19.2098 13.4099C19.1476 12.6805 19.621 12.0127 20.3298 11.8299C22.7698 11.1499 23.0998 8.56992 23.0798 7.07992C23.0725 6.49624 23.5014 5.99865 24.0798 5.91992C25.4195 5.81606 26.5507 4.88467 26.9098 3.58992C27.0074 3.23444 27.3312 2.98852 27.6998 2.98992C29.0568 2.9855 30.3809 2.57257 31.4998 1.80492C31.3251 1.68206 31.1581 1.54847 30.9998 1.40492C30.4384 0.875117 29.5612 0.875117 28.9998 1.40492C28.8462 1.55381 28.6788 1.68775 28.4998 1.80492C27.3812 2.57319 26.0569 2.98618 24.6998 2.98992C24.3312 2.98852 24.0074 3.23444 23.9098 3.58992C23.5507 4.88467 22.4195 5.81606 21.0798 5.91992C20.5014 5.99865 20.0725 6.49624 20.0798 7.07992C20.0998 8.56992 19.7698 11.1499 17.3299 11.8299C16.621 12.0127 16.1476 12.6805 16.2099 13.4099C16.3799 15.0829 15.9419 17.7649 13.9749 18.6659Z" fill="white"></path><path d="M1.05092 45.3429C1.01964 45.5605 1.00261 45.78 0.999921 45.9999C0.987056 46.7011 1.01711 47.4024 1.08992 48.0999C1.28992 53.6099 1.84992 56.4899 3.06992 57.8699C4.23797 58.9848 5.93887 59.3375 7.45392 58.7789C6.91591 58.6129 6.43601 58.2977 6.06992 57.8699C4.84992 56.4899 4.28992 53.6099 4.08992 48.0999C4.01711 47.4024 3.98706 46.7011 3.99992 45.9999C4.00219 45.7794 4.01889 45.5592 4.04992 45.3409C4.03792 45.4409 4.01592 45.5289 4.00892 45.6279C3.98992 44.5099 3.99992 43.2999 3.99992 41.9999C3.80167 42.0008 3.60437 42.0274 3.41292 42.0789C3.60427 42.0269 3.80163 42.0003 3.99992 41.9999C4.0037 40.0373 4.16084 38.078 4.46992 36.1399C4.46992 36.1509 4.48092 36.1599 4.48592 36.1699C3.54338 34.2804 3.94962 31.9965 5.48592 30.5479C5.41092 30.4919 5.33692 30.4309 5.25692 30.3819C5.28192 30.3979 5.31092 30.4039 5.33492 30.4199C5.60992 30.6029 5.35092 30.5839 5.82592 30.3199C6.45591 28.2881 7.23606 26.306 8.15992 24.3899C8.18492 24.4969 8.22392 24.5969 8.25392 24.7009C7.44303 22.3279 8.36991 19.7087 10.4929 18.3739C7.31292 16.7679 4.05892 20.5929 5.25392 24.7009C5.22392 24.6009 5.18492 24.5009 5.15992 24.3899C4.23779 26.3048 3.45931 28.2856 2.83092 30.3159C1.6181 31.139 0.923697 32.5361 0.999921 33.9999C0.991905 34.7396 1.15229 35.4714 1.46892 36.1399C1.15989 38.078 1.00308 40.0373 0.999921 41.9999C0.999921 45.4809 0.955921 46.0909 1.05092 45.3429ZM3.99992 37.9999C3.81903 37.9973 3.63909 37.9731 3.46392 37.9279C3.63922 37.9724 3.81908 37.9966 3.99992 37.9999ZM3.99992 29.9999C3.74132 30.0022 3.48525 30.0509 3.24392 30.1439C3.48583 30.053 3.74154 30.0043 3.99992 29.9999Z" fill="white"></path><path d="M16.117 34.9449L18 35.6079C17.1517 38.0887 16.477 40.6255 15.981 43.1999L14.02 42.7999C14.536 40.1361 15.2367 37.5115 16.117 34.9449Z" fill="white"></path><path d="M15.917 38.1001H15.907C15.3529 38.1029 14.9056 38.5535 14.907 39.1076C14.9084 39.6617 15.3579 40.1101 15.912 40.1101C16.4661 40.1101 16.9156 39.6617 16.917 39.1076C16.9184 38.5535 16.471 38.1029 15.917 38.1001Z" fill="#00A0DC"></path><path d="M0.0249854 45.7C0.0199854 45.8 -1.45959e-05 45.9 -1.45959e-05 46C0.00609202 46.2034 0.0224461 46.4063 0.0489854 46.608C0.0489854 46.628 0.0389854 46.645 0.0389854 46.666C0.259985 55.886 1.17299 60 5.99999 60C12.635 60 14.419 51.038 15.852 43.837L15.98 43.196C16.0772 42.6602 15.7278 42.1452 15.1941 42.0373C14.6603 41.9295 14.1384 42.2685 14.02 42.8L13.892 43.443C12.6 49.931 11 58 5.99999 58C4.01899 58 2.69999 57.424 2.20799 50.446C2.74007 50.7982 3.36197 50.9905 3.99999 51C6.20599 51 7.99999 48.757 7.99999 46C7.99999 43.243 6.20599 41 3.99999 41C3.27862 41.0117 2.5799 41.2538 2.00599 41.691C2.01499 40.609 2.07699 39.527 2.18599 38.431C2.72274 38.7925 3.35296 38.9901 3.99999 39C6.20599 39 7.99999 36.757 7.99999 34C7.99999 31.386 6.38099 29.259 4.33399 29.042C4.59699 28.301 4.87199 27.571 5.17199 26.853C6.01632 28.1557 7.44818 28.9588 8.99999 29C11.757 29 14 26.309 14 23C14.004 21.9282 13.7571 20.8703 13.279 19.911C14.0624 19.7931 14.7964 19.4558 15.396 18.938C17.007 17.525 17.378 15.023 17.208 13.31C17.1943 13.0655 17.3599 12.847 17.599 12.794C19.851 12.165 21.12 10.076 21.081 7.06302C21.0864 6.97717 21.1551 6.9089 21.241 6.90402C22.916 6.73628 24.33 5.5866 24.836 3.98102C26.6208 3.96903 28.3411 3.31236 29.68 2.13201C29.857 1.95608 30.1429 1.95608 30.32 2.13201C31.6588 3.31236 33.3792 3.96903 35.164 3.98102C35.6708 5.58534 37.0848 6.73342 38.759 6.90002C38.8448 6.90582 38.9132 6.97417 38.919 7.06002C38.88 10.073 40.149 12.16 42.401 12.791C42.6401 12.844 42.8056 13.0625 42.792 13.307C42.622 15.02 42.992 17.522 44.604 18.935C45.206 19.4497 45.9406 19.7848 46.724 19.902C46.2434 20.8637 45.9954 21.9249 46 23C46 26.309 48.243 29 51 29C52.5514 28.9584 53.9829 28.1554 54.827 26.853C55.127 27.571 55.402 28.301 55.665 29.042C53.618 29.259 52 31.386 52 34C52 36.757 53.794 39 56 39C56.647 38.9901 57.2772 38.7925 57.814 38.431C57.923 39.531 57.985 40.609 57.994 41.691C57.4201 41.2538 56.7214 41.0117 56 41C53.794 41 52 43.243 52 46C52 48.757 53.794 51 56 51C56.638 50.9905 57.2599 50.7982 57.792 50.446C57.3 57.424 55.98 58 54 58C49.006 58 47.4 49.931 46.109 43.447L45.98 42.8C43.219 29 37.843 22 30 22C28.2529 22.0237 26.5296 22.4081 24.938 23.129C23.3957 23.9103 22.0159 24.9776 20.872 26.274C18.747 28.8337 17.1329 31.7772 16.117 34.945C16.0243 35.1973 16.0387 35.4764 16.1567 35.7178C16.2746 35.9593 16.4861 36.1421 16.742 36.224C17.2585 36.3873 17.8122 36.1162 18 35.608C18.9312 32.6885 20.4106 29.9733 22.359 27.608C23.3273 26.508 24.4944 25.6005 25.799 24.933C27.1218 24.341 28.551 24.0236 30 24C36.85 24 41.436 30.279 44.019 43.2L44.147 43.841C45.58 51.038 47.364 60 54 60C58.828 60 59.741 55.886 59.961 46.666C59.961 46.645 59.952 46.628 59.951 46.608C59.9775 46.4063 59.9939 46.2034 60 46C60 45.9 59.981 45.8 59.976 45.7C59.976 45.681 59.987 45.666 59.987 45.647C60 44.752 60 43.8 60 42.782V42C59.997 40.0719 59.8486 38.1468 59.556 36.241C59.8475 35.5298 59.9983 34.7687 60 34C60.0476 32.338 59.3141 30.7496 58.018 29.708C57.4261 27.8523 56.7132 26.0375 55.884 24.275C55.9605 23.8543 55.9993 23.4276 56 23C56.0865 20.7 54.871 18.5471 52.857 17.433C54.3047 15.607 55.0634 13.3295 55 11C55 7.55102 52.661 6.00002 51 6.00002C50.4477 6.00002 50 6.44773 50 7.00002C50 7.5523 50.4477 8.00002 51 8.00002C51.422 8.00002 53 8.50902 53 11C53.0712 13.2639 52.1833 15.4526 50.555 17.027C49.7799 17.1156 49.042 17.4074 48.416 17.873C47.5634 18.1418 46.6334 17.978 45.924 17.434C44.9955 16.3514 44.58 14.9205 44.784 13.509C44.8935 12.2979 44.1156 11.1837 42.941 10.869C41.241 10.392 40.901 8.55002 40.92 7.08802C40.9304 6.01234 40.1483 5.09267 39.085 4.93002C38.1382 4.88107 37.3255 4.23958 37.058 3.33002C36.8458 2.55191 36.1483 2.00518 35.342 1.98501C34.004 2.00511 32.7042 1.53811 31.685 0.671015C30.741 -0.226764 29.2589 -0.226764 28.315 0.671015C27.296 1.53966 25.9958 2.00779 24.657 1.98801C23.8511 2.00862 23.1541 2.55526 22.942 3.33302C22.6738 4.24256 21.861 4.88389 20.914 4.93302C19.8514 5.09571 19.0701 6.01506 19.081 7.09002C19.1 8.55202 18.764 10.39 17.061 10.871C15.8863 11.1852 15.1081 12.299 15.217 13.51C15.4212 14.9219 15.0056 16.3531 14.077 17.436C13.3676 17.98 12.4375 18.1438 11.585 17.875C10.959 17.4094 10.2211 17.1176 9.44599 17.029C7.81675 15.4543 6.92842 13.2647 6.99999 11C6.99999 8.50902 8.57799 8.00002 8.99999 8.00002C9.55227 8.00002 9.99999 7.5523 9.99999 7.00002C9.99999 6.44773 9.55227 6.00002 8.99999 6.00002C7.33999 6.00002 4.99999 7.55102 4.99999 11C4.93655 13.3295 5.69523 15.607 7.14299 17.433C5.12895 18.5471 3.91349 20.7 3.99999 23C4.00066 23.4276 4.03948 23.8543 4.11599 24.275C3.28673 26.0375 2.57387 27.8523 1.98199 29.708C0.685891 30.7496 -0.0476252 32.338 -1.45959e-05 34C0.00171428 34.7687 0.152498 35.5298 0.443985 36.241C0.151391 38.1468 0.00296982 40.0719 -1.45959e-05 42V42.782C-1.45959e-05 43.797 -1.45377e-05 44.752 0.0139855 45.65C0.0139855 45.669 0.0239854 45.684 0.0249854 45.7ZM56 49C54.916 49 54 47.626 54 46C54 44.374 54.916 43 56 43C57.084 43 58 44.374 58 46C58 47.626 57.083 49 56 49ZM56 31C57.084 31 58 32.374 58 34C58 35.626 57.084 37 56 37C54.916 37 54 35.626 54 34C54 32.374 54.915 31 56 31ZM51 19C52.653 19 54 20.794 54 23C54 25.206 52.654 27 51 27C49.346 27 48 25.206 48 23C48 20.794 49.345 19 51 19ZM8.99999 19C10.655 19 12 20.794 12 23C12 25.206 10.655 27 8.99999 27C7.34499 27 5.99999 25.206 5.99999 23C5.99999 20.794 7.34699 19 8.99999 19ZM3.99999 31C5.08399 31 5.99999 32.374 5.99999 34C5.99999 35.626 5.08399 37 3.99999 37C2.91599 37 1.99999 35.626 1.99999 34C1.99999 32.374 2.91699 31 3.99999 31ZM3.99999 43C5.08399 43 5.99999 44.374 5.99999 46C5.99999 47.626 5.08399 49 3.99999 49C2.91599 49 1.99999 47.626 1.99999 46C1.99999 44.374 2.91699 43 3.99999 43Z" fill="#00A0DC"></path></svg>