<?xml version="1.0" encoding="UTF-8" standalone="no"?>
<svg width="26px" height="728px" viewBox="0 0 26 728" version="1.1" xmlns="http://www.w3.org/2000/svg" xmlns:xlink="http://www.w3.org/1999/xlink" xmlns:sketch="http://www.bohemiancoding.com/sketch/ns">
    <!-- Generator: Sketch 3.0.2 (7799) - http://www.bohemiancoding.com/sketch -->
    <title>logolrg</title>
    <description>Created with Sketch.</description>
    <defs></defs>
    <g id="Page-1" stroke="none" stroke-width="1" fill="none" fill-rule="evenodd" sketch:type="MSPage">
        <g id="logo" sketch:type="MSLayerGroup" transform="translate(-1.000000, -1.000000)" fill="#1A1918">
            <path d="M21.5442857,12.4988883 C21.4242857,7.42439665 20.1,4.34141899 14.22,4.34141899 C9.53571429,4.34141899 6.59571429,5.88494413 6.59571429,10.7313687 C6.59571429,16.8362346 9.83571429,17.0072849 14.76,20.3712737 C20.1,24.024419 25.5642857,25.1077374 25.5642857,33.0941564 C25.5642857,40.4533911 21.6042857,44.0495196 14.04,44.0495196 C5.57571429,44.0495196 1.79142857,39.7121732 2.15142857,31.6687374 L6.11571429,31.6687374 C6.11571429,36.2341508 6.47142857,40.9706145 14.22,40.9706145 C19.26,40.9706145 21.7242857,38.4007877 21.7242857,33.6683966 C21.7242857,28.0766816 17.82,26.4761397 11.5757143,22.827067 C3.17142857,17.9195531 2.81142857,15.4678324 2.75142857,11.3626257 C2.69142857,4.2314581 7.43571429,1.26251397 14.52,1.26251397 C23.5242857,1.26251397 25.4442857,6.56914525 25.4442857,12.4988883 L21.5442857,12.4988883" id="Fill-1" sketch:type="MSShapeGroup"></path>
            <path d="M1.47857143,157.284804 L1.47857143,116.098341 L5.32285714,116.098341 L5.32285714,134.579916 L22.3714286,134.579916 L22.3714286,116.098341 L26.2114286,116.098341 L26.2114286,157.284804 L22.3714286,157.284804 L22.3714286,137.662894 L5.32285714,137.662894 L5.32285714,157.284804 L1.47857143,157.284804" id="Fill-2" sketch:type="MSShapeGroup"></path>
            <path d="M6.53571429,230.13186 L10.38,230.13186 L10.38,271.318324 L6.53571429,271.318324 L6.53571429,230.13186 Z" id="Fill-3" sketch:type="MSShapeGroup"></path>
            <path d="M17.3142857,230.13186 L21.1542857,230.13186 L21.1542857,271.318324 L17.3142857,271.318324 L17.3142857,230.13186 Z" id="Fill-4" sketch:type="MSShapeGroup"></path>
            <path d="M25.5557143,344.16538 L25.5557143,348.21357 L5.92285714,382.268866 L25.7357143,382.268866 L25.7357143,385.351844 L1.95857143,385.351844 L1.95857143,381.303654 L21.7714286,347.244285 L3.15857143,347.244285 L3.15857143,344.16538 L25.5557143,344.16538" id="Fill-5" sketch:type="MSShapeGroup"></path>
            <path d="M5.02285714,484.096726 C5.02285714,489.460374 5.02285714,497.104693 13.8471429,497.104693 C22.6714286,497.104693 22.6714286,489.460374 22.6714286,484.096726 L22.6714286,458.198899 L26.5157143,458.198899 L26.5157143,486.776514 C26.5157143,497.389777 20.6314286,500.183598 13.8471429,500.183598 C7.06285714,500.183598 1.17857143,497.389777 1.17857143,486.776514 L1.17857143,458.198899 L5.02285714,458.198899 L5.02285714,484.096726" id="Fill-6" sketch:type="MSShapeGroup"></path>
            <path d="M1.63285714,613.418883 L1.63285714,572.232419 L5.47285714,572.232419 L5.47285714,591.117184 L5.59285714,591.117184 L20.9614286,572.232419 L25.5857143,572.232419 L9.37285714,591.459285 L26.0614286,613.418883 L21.2614286,613.418883 L5.59285714,592.310464 L5.47285714,592.310464 L5.47285714,613.418883 L1.63285714,613.418883" id="Fill-7" sketch:type="MSShapeGroup"></path>
            <path d="M5.02285714,712.163765 C5.02285714,717.527413 5.02285714,725.171732 13.8471429,725.171732 C22.6714286,725.171732 22.6714286,717.527413 22.6714286,712.163765 L22.6714286,686.265939 L26.5157143,686.265939 L26.5157143,714.843553 C26.5157143,725.456816 20.6314286,728.250637 13.8471429,728.250637 C7.06285714,728.250637 1.17857143,725.456816 1.17857143,714.843553 L1.17857143,686.265939 L5.02285714,686.265939 L5.02285714,712.163765" id="Fill-8" sketch:type="MSShapeGroup"></path>
        </g>
    </g>
</svg>