<svg width="102" height="115" viewBox="0 0 102 115" fill="none" xmlns="http://www.w3.org/2000/svg">
<g clip-path="url(#clip0)">
<path d="M86.7439 25.4274C84.6981 18.0738 80.8061 10.9824 74.2355 6.84657C66.6507 2.0724 57.1502 2.2123 48.6033 3.34901C40.5244 4.42451 32.1335 6.58426 25.6409 11.7869C18.7583 17.3043 15.7504 25.8559 13.7914 34.2238C12.6385 39.1553 12.0577 44.3143 12.9245 49.342C13.852 54.5884 16.6172 59.2751 19.3478 63.7695C25.2369 73.4326 32.2183 82.3733 40.1517 90.4122C40.144 90.7312 40.2519 91.042 40.4551 91.2866C40.6854 91.577 40.9439 91.8435 41.2266 92.0823C42.1107 95.3642 42.992 98.6431 43.8704 101.919C43.7245 101.983 43.5827 102.056 43.4457 102.138C42.7355 102.59 42.1816 103.254 41.8603 104.036C41.539 104.819 41.466 105.683 41.6513 106.51C41.616 106.683 41.616 106.861 41.6513 107.034C42.5181 112.412 49.1754 116.137 54.2637 114.668C55.6778 114.273 56.9502 113.478 57.9304 112.377L58.1211 112.255C60.3055 110.445 60.843 104.901 59.482 102.496C58.9446 101.543 57.8177 101.106 56.4568 100.966C56.7376 100.22 57.0767 99.498 57.471 98.8064C58.8787 96.7391 60.1499 94.5805 61.2764 92.3446C62.2882 92.1416 63.2847 91.8669 64.2583 91.5227C71.4443 88.8995 77.148 81.9044 80.8928 75.4513C89.2837 60.9539 91.2254 41.5424 86.7439 25.4274ZM56.5175 103.79V103.878C58.1904 106.894 57.1069 110.873 53.995 112.001C52.7045 112.292 51.3663 112.291 50.0761 112C48.7858 111.708 47.5754 111.132 46.5316 110.313C44.7979 108.783 43.0642 106.221 45.4047 104.411C46.4818 103.677 47.8023 103.401 49.0801 103.642C49.5915 103.642 50.1029 103.694 50.6143 103.694H50.727C52.5998 102.986 54.6689 103.021 56.5175 103.79ZM46.7396 100.739C46.58 100.537 46.3708 100.38 46.1328 100.284C45.5174 97.9757 44.8933 95.6673 44.2778 93.3589C45.1927 93.4643 46.1149 93.4907 47.0343 93.4376C46.7457 95.8597 46.6472 98.301 46.7396 100.739ZM50.6664 97.7308C50.5017 98.7976 49.9122 100.406 50.3196 101.534L49.4528 101.727C49.2779 98.9184 49.3591 96.0998 49.6955 93.3064L51.4292 93.2365L50.6664 97.7308ZM45.7514 8.61285C42.1505 35.3595 43.8745 62.562 50.8224 88.6284C36.407 64.1455 27.0539 33.1395 45.7514 8.61285ZM43.2376 90.2373C43.2154 89.9346 43.0826 89.6511 42.8649 89.4416C36.7337 83.341 31.1605 76.6949 26.2131 69.5842C21.4108 62.6503 15.6637 54.7195 15.135 45.9756C14.6322 37.7563 17.3107 27.7183 21.4281 20.6182C24.3407 15.5905 28.8309 12.1804 33.9278 9.88946C25.1382 19.604 21.2895 33.2882 23.1791 46.3866C24.41 54.8944 28.3368 62.5366 32.4196 69.9951C36.5023 77.4537 40.6111 84.7286 46.2889 90.9805C45.2245 91.01 44.1714 90.7535 43.2376 90.2373ZM56.3441 95.8334C55.4773 97.18 54.6104 99.4097 53.5876 100.52C53.4403 100.672 53.284 100.815 53.1195 100.949C53.0888 100.708 52.9928 100.481 52.8421 100.293C52.9288 99.7682 53.1368 98.8413 53.1455 98.8064C53.2582 98.0456 53.3795 97.2762 53.5009 96.5067C53.6743 95.3875 53.8563 94.2595 54.0297 93.1315C55.4079 93.0703 56.8035 92.9916 58.1731 92.843C57.5923 93.8573 56.9682 94.8279 56.3441 95.8334ZM56.4394 89.3105C56.5781 86.7835 56.6735 84.239 56.7255 81.6945C57.367 68.9109 58.0604 56.1273 58.4592 43.3349C58.8579 30.5426 58.2511 17.7677 53.2582 5.92846C64.9257 16.3075 65.8792 32.9559 65.7579 47.6369C65.6712 62.0819 63.5475 76.6318 56.4134 89.3105H56.4394ZM83.6319 62.4666C81.3414 70.6557 76.9454 78.0885 70.8895 84.0116C69.1224 85.7232 67.0942 87.1373 64.8824 88.2C83.9527 64.81 83.6059 24.2994 58.9879 5.39508C68.159 5.95469 76.6366 9.53096 81.3955 18.7208C88.0441 31.5656 87.628 48.8873 83.6059 62.4666H83.6319Z" fill="black"/>
<path d="M89.2835 9.61833C88.3473 8.23679 86.0849 9.54838 87.0384 10.9474C90.4939 15.9464 92.3621 21.8864 92.3954 27.9806C92.3954 28.3284 92.5324 28.662 92.7762 28.908C93.0201 29.154 93.3508 29.2921 93.6957 29.2921C94.0405 29.2921 94.3712 29.154 94.6151 28.908C94.8589 28.662 94.9959 28.3284 94.9959 27.9806C94.9672 21.4194 92.9762 15.0197 89.2835 9.61833Z" fill="black"/>
<path d="M92.2829 0.638351C92.1029 0.35133 91.8195 0.145932 91.4924 0.0653806C91.1653 -0.015171 90.82 0.0354046 90.5291 0.206465C90.2383 0.377525 90.0245 0.655731 89.9329 0.982539C89.8412 1.30935 89.8788 1.65927 90.0378 1.95868C96.0688 12.4444 99.2948 24.3312 99.3996 36.4534C99.3996 36.8013 99.5365 37.1349 99.7804 37.3809C100.024 37.6268 100.355 37.765 100.7 37.765C101.045 37.765 101.375 37.6268 101.619 37.3809C101.863 37.1349 102 36.8013 102 36.4534C101.884 23.8685 98.5364 11.5288 92.2829 0.638351Z" fill="black"/>
<path d="M11.8494 53.574C10.0996 49.8484 9.09769 45.8104 8.90132 41.6926C8.70494 37.5748 9.31798 33.4585 10.7051 29.5807C11.2686 27.9805 8.74611 27.2985 8.2 28.8549C6.72521 33.0707 6.09008 37.5387 6.33106 42.0027C6.57204 46.4667 7.68438 50.8387 9.60427 54.8681C10.3151 56.4245 12.5602 55.0867 11.8494 53.574Z" fill="black"/>
<path d="M13.3489 69.8552C5.63989 59.5164 1.86574 46.73 2.71288 33.8215C2.8169 32.1427 0.216411 32.1427 0.112392 33.8215C-0.751846 47.1974 3.14244 60.4455 11.0951 71.1843C12.1353 72.5221 14.3458 71.2105 13.3489 69.8552Z" fill="black"/>
</g>
<defs>
<clipPath id="clip0">
<rect width="102" height="115" fill="white"/>
</clipPath>
</defs>
</svg>
