<svg width="18" height="13" viewBox="0 0 18 13" fill="none" xmlns="http://www.w3.org/2000/svg">
<g clip-path="url(#clip0)">
<path d="M7.19042 5.69196V5.63624C7.65253 5.11742 7.93903 4.46683 8.00929 3.77669C8.07956 3.08655 7.93003 2.39189 7.5819 1.79117C6.62318 0.222887 2.74834 -0.692606 1.15048 0.64481C0.915941 0.717133 0.71128 0.863313 0.567222 1.0614C0.423163 1.25949 0.347482 1.4988 0.35154 1.7434L0.10387 11.1451C0.00818487 11.3444 -0.0254486 11.5677 0.00730002 11.7861C0.0400487 12.0046 0.13768 12.2084 0.287625 12.3711C0.45389 12.5739 0.679178 12.7203 0.932445 12.7901C1.18571 12.86 1.45449 12.8499 1.70174 12.7612C4.68976 13.1194 8.84422 12.8806 8.89215 9.09123C8.93139 8.42585 8.79491 7.76185 8.49633 7.16542C8.19774 6.56898 7.74748 6.06095 7.19042 5.69196ZM5.26499 2.76239C6.19175 3.98039 5.08922 4.57745 3.99468 4.85608C3.53993 4.86378 3.0873 4.91982 2.64448 5.02326L2.69242 2.81015C2.74517 2.70444 2.78282 2.5919 2.80427 2.4758C2.80427 2.38823 5.04129 2.4758 5.26499 2.76239ZM2.51665 10.4923C2.51665 9.48927 2.5566 8.48621 2.58057 7.48315C3.12384 7.42742 3.66712 7.34781 4.17844 7.24432C5.37684 7.24432 6.57524 7.70605 6.50334 9.10715C6.43942 10.6834 4.09854 10.6754 2.51665 10.4923Z" fill="white"/>
<path d="M16.2903 10.4844C15.4195 10.6277 14.2211 10.8426 13.4141 10.3729C13.3354 10.3235 13.263 10.2647 13.1984 10.1978L15.739 9.9749C16.8096 9.87937 18.032 9.56094 18 8.21556C17.9281 5.76363 14.1012 5.23026 12.4075 6.10595C11.9749 6.34349 11.594 6.66424 11.2868 7.04961C10.9796 7.43498 10.7522 7.87729 10.6179 8.3509C10.4263 8.56637 10.3096 8.83769 10.2851 9.12454C10.2606 9.41139 10.3297 9.69845 10.4821 9.94306C10.5545 10.4574 10.746 10.948 11.0413 11.376C12.3516 13.2866 14.9002 13.1035 16.9135 12.7691C18.4474 12.5303 17.8003 10.2296 16.2903 10.4844ZM14.293 7.01348C14.9481 7.01348 15.6991 7.52297 15.3795 8.24741C15.3157 8.39594 15.2183 8.5278 15.095 8.63273C14.9716 8.73766 14.8257 8.81284 14.6685 8.85243C14.5939 8.92277 14.4987 8.96742 14.3968 8.9798C13.7577 9.09921 12.9827 8.86835 13.0067 8.08819C13.0429 7.77928 13.1963 7.49587 13.4354 7.29604C13.6746 7.09622 13.9814 6.99512 14.293 7.01348Z" fill="white"/>
<path d="M16.0265 2.30844L12.2315 2.56319C10.7056 2.66668 10.6896 5.05492 12.2315 4.95143L16.0265 4.69669C17.5764 4.5932 17.5764 2.20495 16.0265 2.30844Z" fill="white"/>
</g>
<defs>
<clipPath id="clip0">
<rect width="18" height="13" fill="white"/>
</clipPath>
</defs>
</svg>
