<svg width="25" height="23" viewBox="0 0 25 23" fill="none" xmlns="http://www.w3.org/2000/svg">
<g clip-path="url(#clip0)">
<path d="M19.0614 2.05096C18.6558 2.02654 18.2502 2.01433 17.8445 2.01433C17.881 1.62978 17.9176 1.24522 17.9358 0.878981C17.9966 -0.292994 16.1714 -0.292994 16.1105 0.878981C16.1105 1.26964 16.0558 1.67251 16.0314 2.09979C14.9363 2.16083 13.8411 2.24018 12.7521 2.24018C11.5352 2.24018 10.3184 2.1181 9.10154 2.02654C9.10154 1.72134 9.10154 1.41614 9.10154 1.11093C9.10154 0.868101 9.00539 0.635213 8.83424 0.463504C8.66308 0.291794 8.43095 0.195329 8.18891 0.195329C7.94686 0.195329 7.71473 0.291794 7.54358 0.463504C7.37243 0.635213 7.27628 0.868101 7.27628 1.11093C7.27628 1.37951 7.27628 1.64199 7.27628 1.91056C6.81996 1.91056 6.36973 1.91056 5.91341 1.91056C3.47973 1.9716 1.20424 3.1741 0.918281 5.57298C0.864818 5.66721 0.829716 5.77079 0.81485 5.87818C0.206429 9.95568 -0.37157 14.4238 0.242935 18.5685C0.693166 21.5411 2.28114 22.7925 5.21373 22.9573C9.58827 23.2075 14.2427 22.823 18.599 22.5361C21.2699 22.3652 23.8314 21.9257 24.1417 18.8737C24.7379 13.2946 27.3116 2.63084 19.0614 2.05096ZM2.50017 7.04405V6.93418C2.55773 6.5549 2.64728 6.18121 2.76788 5.81714C3.04167 4.17516 5.1468 3.75398 7.30061 3.72956C7.30061 3.85775 7.30061 3.97983 7.30061 4.10191C7.30135 4.26546 7.34545 4.42586 7.42839 4.56666C7.51133 4.70746 7.63011 4.82359 7.77256 4.90312C7.915 4.98265 8.07598 5.02273 8.23896 5.01923C8.40194 5.01573 8.56105 4.96879 8.69998 4.88323L8.80341 4.82219C8.9805 4.72386 9.11657 4.56507 9.1869 4.37467C9.25723 4.18426 9.25717 3.97486 9.18672 3.7845C10.4887 3.86996 11.6204 4.01645 12.1741 4.02256C13.4457 4.02256 14.7294 3.94321 16.0132 3.88217C16.0279 4.18353 16.0645 4.48342 16.1227 4.77946C16.3539 5.93312 18.1122 5.4448 17.881 4.29114C17.881 4.14464 17.8324 3.99204 17.8202 3.83944C18.0818 3.83944 18.3434 3.83944 18.599 3.83944C21.7019 4.01645 22.6632 5.79273 22.9066 8.00239C19.177 7.89252 15.4656 8.21603 11.7421 8.21603C8.60872 8.21603 5.52402 7.73991 2.39674 7.862C2.43325 7.61783 2.43325 7.32484 2.50017 7.04405ZM22.9127 11.5366C22.8275 13.0748 22.9553 19.1789 21.6958 20.0823C19.9618 21.3031 16.2505 20.7659 14.1818 20.8392C11.9307 20.9185 9.67954 21.0284 7.4223 21.0772C7.01466 21.0772 6.60093 21.0772 6.20546 21.0772H5.378C4.74921 21.1222 4.12305 20.9593 3.59533 20.6133C3.2079 20.4944 2.8629 20.2659 2.60173 19.9551C2.34056 19.6444 2.17432 19.2647 2.12295 18.8615C1.72748 17.9337 1.94651 16.2306 1.94043 15.2296C1.94043 13.3984 2.02561 11.5671 2.19596 9.73593C5.39017 9.57723 8.54179 10.0778 11.7421 10.0778C15.49 10.0778 19.2257 9.74814 22.9735 9.86412C22.9674 10.4257 22.9431 10.9873 22.9127 11.5366Z" fill="black"/>
<path d="M6.95356 12.5377C6.84161 12.3753 6.69206 12.2425 6.51774 12.1508C6.34342 12.0591 6.14953 12.0112 5.9527 12.0112C5.75588 12.0112 5.56199 12.0591 5.38767 12.1508C5.21335 12.2425 5.0638 12.3753 4.95185 12.5377C4.91077 12.6068 4.87809 12.6805 4.8545 12.7574C4.75966 12.9459 4.72161 13.158 4.74499 13.3678C4.74235 13.3799 4.74235 13.3924 4.74499 13.4045C4.76517 13.7111 4.89987 13.9988 5.12221 14.2102C5.26225 14.3532 5.43635 14.458 5.62803 14.5146C5.8197 14.5712 6.02261 14.5779 6.21755 14.5339C6.41249 14.4899 6.59302 14.3967 6.74204 14.2631C6.89106 14.1296 7.00365 13.9601 7.06915 13.7707C7.06915 13.7707 7.06915 13.7219 7.06915 13.6913C7.13328 13.502 7.15615 13.3009 7.13621 13.1019C7.11626 12.9029 7.05398 12.7105 6.95356 12.5377Z" fill="black"/>
<path d="M10.1605 11.8905C9.80515 11.9911 9.50355 12.2279 9.32084 12.5497L9.22958 12.6779C9.09794 12.9312 9.05575 13.2218 9.10989 13.5023C9.16404 13.7828 9.31131 14.0365 9.5277 14.2222C9.59303 14.2824 9.6644 14.3356 9.74065 14.3809C10.0171 14.5648 10.3475 14.6492 10.6779 14.6204C11.0083 14.5916 11.3192 14.4512 11.5598 14.2222C11.7683 13.9971 11.8981 13.7101 11.9297 13.4045C11.9613 13.0988 11.8929 12.7912 11.7349 12.528C11.5769 12.2647 11.3379 12.0602 11.0539 11.9452C10.7699 11.8302 10.4563 11.811 10.1605 11.8905Z" fill="black"/>
<path d="M16.3293 12.8856C16.2219 12.6303 16.0427 12.4118 15.8137 12.2568C15.5847 12.1018 15.3157 12.017 15.0394 12.0128H14.9177C14.8007 11.9744 14.6766 11.9627 14.5545 11.9785C14.4325 11.9944 14.3154 12.0373 14.212 12.1043C13.9614 12.2715 13.7815 12.526 13.707 12.8185C13.623 13.011 13.5795 13.2188 13.5792 13.4289C13.5763 13.64 13.628 13.8483 13.7293 14.0334C13.8306 14.2185 13.9781 14.3741 14.1572 14.4849C14.3391 14.5985 14.5519 14.6518 14.7656 14.6375C15.0293 14.6618 15.2949 14.6199 15.5383 14.5154C15.8547 14.3992 16.1139 14.1645 16.2614 13.8606C16.4089 13.5566 16.4333 13.2072 16.3293 12.8856Z" fill="black"/>
<path d="M19.9192 12.208C19.8528 12.1464 19.7793 12.0931 19.7001 12.0493C19.5419 12.0493 19.3777 12.0005 19.2073 11.9883C18.7877 11.9929 18.3839 12.1489 18.0696 12.4278C18.03 12.4914 17.9729 12.5423 17.9053 12.5743C17.843 12.7686 17.8201 12.9735 17.8379 13.1768C17.8556 13.3802 17.9137 13.5779 18.0087 13.7585C18.071 13.94 18.175 14.1043 18.3125 14.2379C18.4499 14.3716 18.6168 14.4708 18.7997 14.5276C19.1271 14.6192 19.4773 14.5794 19.776 14.4164C20.0747 14.2535 20.2985 13.9803 20.3998 13.6547C20.4703 13.3928 20.4623 13.116 20.3768 12.8587C20.2913 12.6014 20.1322 12.3751 19.9192 12.208Z" fill="black"/>
<path d="M7.17276 17.1524C6.96059 16.8192 6.6295 16.5798 6.24722 16.4833C5.86494 16.3869 5.46037 16.4406 5.1163 16.6336C4.85664 16.801 4.66616 17.057 4.58004 17.3543C4.49393 17.6517 4.518 17.9703 4.64781 18.2512C4.72761 18.5814 4.93199 18.8678 5.21795 19.0499C5.50391 19.2321 5.84916 19.2959 6.18103 19.2278C6.39591 19.1784 6.59691 19.081 6.76907 18.9428C6.94124 18.8047 7.08014 18.6294 7.17544 18.4299C7.27074 18.2305 7.32 18.012 7.31953 17.7909C7.31907 17.5697 7.2689 17.3515 7.17276 17.1524Z" fill="black"/>
<path d="M11.9246 17.4941C11.9552 17.1739 11.8587 16.8545 11.6559 16.6053C11.4531 16.3561 11.1604 16.1973 10.8416 16.1634C10.5265 16.1258 10.2082 16.1992 9.94114 16.371C9.68739 16.4601 9.47231 16.6347 9.33252 16.8651C9.19274 17.0955 9.1369 17.3674 9.17453 17.6345C9.19151 17.787 9.23911 17.9344 9.31446 18.0679C9.38929 18.336 9.55029 18.5718 9.77245 18.7387C9.99461 18.9055 10.2655 18.9941 10.543 18.9906C10.8205 18.9872 11.0891 18.8918 11.307 18.7194C11.5249 18.547 11.68 18.3073 11.7481 18.0374C11.8455 17.8712 11.9057 17.6859 11.9246 17.4941Z" fill="black"/>
<path d="M14.9851 16.1271C14.8183 16.117 14.6514 16.1434 14.4959 16.2045C14.3404 16.2657 14.2001 16.3601 14.0846 16.4811C13.9377 16.5184 13.8036 16.5948 13.6965 16.7022C13.5894 16.8097 13.5133 16.9442 13.4762 17.0916C13.4015 17.4173 13.4446 17.7591 13.5979 18.056C13.672 18.2832 13.8083 18.4849 13.9912 18.6381C14.174 18.7914 14.3961 18.89 14.6322 18.9228C15.0036 18.965 15.3769 18.8615 15.674 18.634C15.971 18.4065 16.1689 18.0725 16.2262 17.702C16.2582 17.5153 16.2507 17.324 16.2041 17.1405C16.1575 16.957 16.0729 16.7853 15.9558 16.6368C15.8387 16.4882 15.6918 16.3661 15.5245 16.2783C15.3573 16.1904 15.1735 16.1389 14.9851 16.1271Z" fill="black"/>
<path d="M20.0348 16.786C19.8673 16.6179 19.6567 16.4996 19.4264 16.4441C19.2286 16.3076 18.9903 16.243 18.751 16.261C18.5861 16.2003 18.4077 16.187 18.2357 16.2226C18.0637 16.2582 17.905 16.3413 17.7775 16.4625C17.5995 16.6602 17.4784 16.9027 17.4271 17.1641C17.3757 17.4256 17.3961 17.6961 17.4861 17.9467C17.576 18.1974 17.7322 18.4189 17.9378 18.5875C18.1435 18.7561 18.3909 18.8655 18.6537 18.9041C18.8588 18.9651 19.0752 18.9782 19.2861 18.9422C19.4971 18.9062 19.697 18.8222 19.8705 18.6965C20.0122 18.5861 20.1297 18.4474 20.2155 18.2892C20.3012 18.131 20.3535 17.9567 20.3689 17.7773C20.3843 17.5979 20.3626 17.4172 20.3051 17.2466C20.2476 17.076 20.1556 16.9192 20.0348 16.786Z" fill="black"/>
</g>
<defs>
<clipPath id="clip0">
<rect width="25" height="23" fill="white"/>
</clipPath>
</defs>
</svg>
