<svg width="24" height="24" viewBox="0 0 24 24" fill="none" xmlns="http://www.w3.org/2000/svg">
<g clip-path="url(#clip0)">
<path d="M23.942 9.70269C23.8767 8.83412 23.6773 7.98043 23.3506 7.17104C23.3506 7.17104 23.2991 7.12041 23.2798 7.08243C22.9295 6.37365 22.5142 5.69784 22.039 5.06345L21.859 4.78497C21.8554 4.7704 21.8554 4.75522 21.859 4.74066C21.4647 4.22907 21.0351 3.7448 20.5732 3.2913C19.7547 2.63041 18.8959 2.01956 18.0015 1.46218L17.8215 1.36092C17.7962 1.33197 17.7746 1.30009 17.7572 1.26598H17.7251C11.7652 -1.11377 6.3519 -0.404907 2.45584 5.43686C-1.33093 11.1331 -1.00947 18.2723 5.35538 22.0255C10.7301 25.19 18.683 24.7786 22.0712 19.0824C23.6977 16.3546 24.1864 12.8103 23.942 9.70269ZM20.5732 17.2533C18.0015 22.5634 11.1352 22.9495 6.42905 20.2027C1.28573 17.209 1.05428 11.5191 4.01812 6.91155C5.47111 4.65838 7.41271 2.41788 10.2351 1.9875C12.4274 1.67104 14.6905 2.2913 16.7157 3.16471C16.7959 3.18899 16.8688 3.23249 16.9278 3.2913C17.0867 3.37196 17.2374 3.46732 17.3779 3.57611C18.635 4.20362 19.662 5.20141 20.316 6.43054C20.316 6.46851 20.316 6.50016 20.316 6.53813C21.2997 7.77257 21.842 9.29207 21.859 10.8609C21.9457 13.0615 21.5052 15.2513 20.5732 17.2533Z" fill="black"/>
<path d="M13.6301 11.3294C13.5663 11.2612 13.4976 11.1978 13.4244 11.1395C13.4613 9.96014 13.3534 8.78071 13.1029 7.62684C12.7943 6.4433 10.9299 6.9433 11.2385 8.12684C11.4419 9.03234 11.5283 9.95951 11.4956 10.8863C11.2322 11.0086 11.0093 11.2016 10.8527 11.4433C8.84682 11.7977 6.67377 11.4433 4.6743 11.2851C3.43348 11.2028 3.43991 13.1015 4.6743 13.1838C6.71234 13.323 8.83396 13.6395 10.8784 13.361C11.0345 13.5759 11.2619 13.7304 11.5213 13.7977H11.6885C11.6885 13.7977 11.6885 13.7977 11.7335 13.8294C11.9709 13.9415 12.2376 13.9792 12.4974 13.9373C12.7573 13.8954 12.9978 13.776 13.1865 13.5952C13.3372 13.5214 13.4742 13.4229 13.5915 13.3041C13.8385 13.0347 13.9784 12.6866 13.9854 12.3238C13.9925 11.961 13.8664 11.6079 13.6301 11.3294Z" fill="black"/>
<path d="M6.04347 8.05078C5.78874 8.05406 5.54538 8.15513 5.36524 8.33247C5.1851 8.5098 5.08243 8.74938 5.0791 9.00015C5.0791 9.25194 5.1807 9.49341 5.36156 9.67145C5.54241 9.84949 5.78771 9.94952 6.04347 9.94952C6.29924 9.94952 6.54453 9.84949 6.72539 9.67145C6.90624 9.49341 7.00784 9.25194 7.00784 9.00015C7.00616 8.74887 6.90401 8.50836 6.72352 8.33068C6.54303 8.15299 6.29872 8.05244 6.04347 8.05078Z" fill="black"/>
<path d="M8.26125 5.56348C8.00548 5.56348 7.76019 5.6635 7.57933 5.84154C7.39848 6.01958 7.29688 6.26106 7.29688 6.51284C7.29688 6.76463 7.39848 7.00611 7.57933 7.18415C7.76019 7.36219 8.00548 7.46221 8.26125 7.46221C8.51701 7.46221 8.76231 7.36219 8.94316 7.18415C9.12402 7.00611 9.22562 6.76463 9.22562 6.51284C9.22562 6.26106 9.12402 6.01958 8.94316 5.84154C8.76231 5.6635 8.51701 5.56348 8.26125 5.56348Z" fill="black"/>
<path d="M12.6267 4.36734C12.445 4.19109 12.2002 4.09229 11.9452 4.09229C11.6901 4.09229 11.4453 4.19109 11.2637 4.36734H11.2316C11.0525 4.54616 10.9521 4.78715 10.9521 5.03823C10.9521 5.28931 11.0525 5.5303 11.2316 5.70912C11.4148 5.8824 11.659 5.97917 11.913 5.97917C12.1671 5.97917 12.4113 5.8824 12.5945 5.70912L12.6267 5.69646C12.7989 5.51674 12.8949 5.27899 12.8949 5.0319C12.8949 4.78481 12.7989 4.54706 12.6267 4.36734Z" fill="black"/>
<path d="M11.8745 18.4243C11.6203 18.4292 11.3779 18.5308 11.1981 18.7078C11.0183 18.8848 10.9151 19.1234 10.9102 19.3737V19.4117C10.9102 19.6634 11.0118 19.9049 11.1926 20.083C11.3735 20.261 11.6188 20.361 11.8745 20.361C12.1303 20.361 12.3756 20.261 12.5564 20.083C12.7373 19.9049 12.8389 19.6634 12.8389 19.4117V19.3737C12.8356 19.1229 12.7329 18.8833 12.5528 18.706C12.3726 18.5287 12.1293 18.4276 11.8745 18.4243Z" fill="black"/>
<path d="M9.95908 17.8357C9.87631 17.6971 9.75777 17.5825 9.6155 17.5036C9.47323 17.4247 9.31229 17.3842 9.149 17.3863C8.89478 17.3912 8.65235 17.4928 8.47255 17.6698C8.29276 17.8467 8.18957 18.0854 8.18463 18.3357C8.18309 18.4737 8.21024 18.6106 8.26442 18.738C8.31859 18.8653 8.39865 18.9804 8.49966 19.0762C8.67017 19.2667 8.91058 19.3827 9.168 19.3988C9.42541 19.4148 9.67875 19.3295 9.87228 19.1616C10.0658 18.9938 10.1837 18.7571 10.2 18.5037C10.2162 18.2503 10.1296 18.0009 9.95908 17.8104V17.8357Z" fill="black"/>
<path d="M7.07179 15.5381C6.81603 15.5381 6.57073 15.6381 6.38988 15.8161C6.20902 15.9942 6.10742 16.2357 6.10742 16.4875C6.10742 16.7392 6.20902 16.9807 6.38988 17.1588C6.57073 17.3368 6.81603 17.4368 7.07179 17.4368C7.32756 17.4368 7.57285 17.3368 7.75371 17.1588C7.93456 16.9807 8.03617 16.7392 8.03617 16.4875C8.03617 16.2357 7.93456 15.9942 7.75371 15.8161C7.57285 15.6381 7.32756 15.5381 7.07179 15.5381Z" fill="black"/>
<path d="M17.1661 17.0885C16.9845 16.9123 16.7397 16.8135 16.4846 16.8135C16.2296 16.8135 15.9848 16.9123 15.8031 17.0885H15.7646C15.5885 17.2689 15.4902 17.5093 15.4902 17.7594C15.4902 18.0095 15.5885 18.2499 15.7646 18.4303C15.9462 18.6066 16.191 18.7054 16.446 18.7054C16.7011 18.7054 16.9459 18.6066 17.1275 18.4303L17.1661 18.3987C17.3328 18.22 17.4253 17.9862 17.4253 17.7436C17.4253 17.501 17.3328 17.2672 17.1661 17.0885Z" fill="black"/>
<path d="M18.0855 14.8989C17.8312 14.9038 17.5888 15.0054 17.409 15.1824C17.2292 15.3594 17.126 15.598 17.1211 15.8483V15.8863C17.1211 16.1381 17.2227 16.3795 17.4036 16.5576C17.5844 16.7356 17.8297 16.8356 18.0855 16.8356C18.3412 16.8356 18.5865 16.7356 18.7674 16.5576C18.9482 16.3795 19.0498 16.1381 19.0498 15.8863V15.823C19.04 15.5766 18.9344 15.3434 18.755 15.1715C18.5755 14.9995 18.3359 14.902 18.0855 14.8989Z" fill="black"/>
<path d="M19.3843 12.0762C19.1296 12.0795 18.8862 12.1805 18.7061 12.3579C18.5259 12.5352 18.4233 12.7748 18.4199 13.0255V13.0952C18.4216 13.3464 18.5238 13.5869 18.7042 13.7646C18.8847 13.9423 19.129 14.0429 19.3843 14.0445C19.6385 14.0397 19.8809 13.9381 20.0607 13.7611C20.2405 13.5841 20.3437 13.3454 20.3487 13.0952V13.0255C20.3453 12.7748 20.2427 12.5352 20.0625 12.3579C19.8824 12.1805 19.639 12.0795 19.3843 12.0762Z" fill="black"/>
<path d="M18.7349 8.18359C18.4791 8.18359 18.2338 8.28362 18.053 8.46166C17.8721 8.6397 17.7705 8.88117 17.7705 9.13296C17.7705 9.38475 17.8721 9.62622 18.053 9.80426C18.2338 9.98231 18.4791 10.0823 18.7349 10.0823C18.9906 10.0823 19.2359 9.98231 19.4168 9.80426C19.5976 9.62622 19.6993 9.38475 19.6993 9.13296C19.6993 8.88117 19.5976 8.6397 19.4168 8.46166C19.2359 8.28362 18.9906 8.18359 18.7349 8.18359Z" fill="black"/>
<path d="M17.5383 6.14559C17.4593 6.07163 17.3679 6.01167 17.2682 5.96837C17.1646 5.98526 17.0582 5.96743 16.9661 5.91774L16.8889 5.87976C16.7577 5.87281 16.6265 5.89286 16.5036 5.93863C16.3808 5.9844 16.2689 6.05488 16.1753 6.14559C15.9978 6.32519 15.8984 6.56589 15.8984 6.81647C15.8984 7.06706 15.9978 7.30776 16.1753 7.48736L16.2074 7.51901C16.3906 7.69229 16.6348 7.78906 16.8889 7.78906C17.143 7.78906 17.3872 7.69229 17.5704 7.51901C17.7494 7.34019 17.8498 7.0992 17.8498 6.84812C17.8498 6.59704 17.7494 6.35605 17.5704 6.17723L17.5383 6.14559Z" fill="black"/>
</g>
<defs>
<clipPath id="clip0">
<rect width="24" height="24" fill="white"/>
</clipPath>
</defs>
</svg>
