<svg width="139" height="122" viewBox="0 0 139 122" fill="none" xmlns="http://www.w3.org/2000/svg">
<g clip-path="url(#clip0)">
<path d="M47.8431 21.1134C36.3029 17.4817 25.7455 24.1043 18.993 33.1873C17.8444 34.7367 20.4472 36.2247 21.5888 34.6876C27.5555 26.6532 36.8471 20.7936 47.0516 24.0371C48.8943 24.5795 49.6742 21.6898 47.8431 21.1134Z" fill="black"/>
<path d="M97.5086 8.33754C95.5876 4.63827 89.3349 6.61075 86.5348 7.59771C79.97 9.91247 74.9117 14.7641 70.1757 19.7366C68.8497 21.1264 70.9706 23.2505 72.3132 21.8459C75.285 18.5045 78.6281 15.5127 82.2776 12.9287C83.7321 11.9807 92.2194 7.52656 94.5494 9.38775L94.5856 9.523C94.6973 9.90162 94.9502 10.2229 95.292 10.4204C95.6338 10.6179 96.0384 10.6767 96.4222 10.5845L96.5961 10.538C96.8164 10.4753 97.0198 10.3636 97.1908 10.2113C97.3619 10.0589 97.4964 9.86989 97.5841 9.65828C97.6719 9.44667 97.7106 9.21797 97.6976 8.98926C97.6845 8.76055 97.6199 8.53776 97.5086 8.33754Z" fill="black"/>
<path d="M43.8842 72.3042C39.584 73.3715 35.0122 74.8944 30.5314 75.7512C31.1269 78.8121 32.8608 81.5333 35.3837 83.3661C37.1476 84.65 39.1601 85.5516 41.2924 86.0134C43.4247 86.4751 45.6299 86.4868 47.767 86.0477C50.0947 85.5768 52.2823 84.5746 54.159 83.1192C56.0358 81.6638 57.551 79.7946 58.5865 77.6574C59.8783 74.8906 60.0848 71.7398 59.1649 68.8281C54.1358 70.2663 48.9238 71.0599 43.8842 72.3042Z" fill="black"/>
<path d="M98.3803 57.0358L97.7826 57.1232C93.6962 58.2161 89.6512 59.4636 85.6597 60.8727L84.9584 61.1534C87.504 68.0396 97.01 72.619 103.908 70.8154C111.07 68.9518 113.33 60.4492 112.27 53.6213C109.338 54.2708 106.469 54.9242 103.585 55.6336C101.898 56.2641 100.155 56.7336 98.3803 57.0358Z" fill="black"/>
<path d="M88.3781 21.2654C75.8899 23.1458 66.0051 33.3668 65.609 45.7806C58.8531 38.7887 49.5856 34.4043 39.9765 35.8252C36.6216 37.4471 32.7794 37.7501 29.2478 38.9431C26.3418 40.4226 23.6474 42.2852 21.2366 44.481C19.2509 46.7476 17.4793 49.1932 15.9444 51.7864C15.7529 52.1083 15.4464 52.3456 15.0869 52.4505C13.058 56.4973 12.0117 60.9655 12.0328 65.4924C11.9638 74.175 12.7368 83.0258 17.5998 90.4101C22.0247 97.1266 27.5777 103.027 34.0135 107.852C40.4482 112.559 47.7175 115.2 55.5965 113C62.4637 111.08 69.7988 107.659 74.1497 101.827C76.1526 99.0512 77.5033 95.8592 78.1012 92.4889C82.6564 100.929 94.1946 101.031 103.523 98.9087C116.508 95.9431 126.633 87.552 128.967 74.061C133.052 49.7398 116.826 17.0936 88.3781 21.2654ZM75.5199 89.6494C74.3164 99.857 67.2529 105.649 58.1 109.008C53.3912 110.753 48.931 111.532 44.0993 109.916C45.6487 108.094 47.0742 106.17 48.3664 104.158L48.519 103.993C49.8042 102.334 51.9706 98.2043 54.1623 97.6906C56.354 97.1769 59.5573 97.8522 61.8531 97.9214C63.7824 97.9747 63.7989 94.9788 61.867 94.9158C59.6246 94.853 56.5045 94.2176 53.9848 94.5499L53.6378 90.3882C53.4876 88.472 50.4768 88.4387 50.6392 90.3621C50.7809 92.0529 50.9155 93.7559 51.052 95.4274C51.0664 95.5199 51.0907 95.6106 51.1243 95.6979C49.7207 97.039 48.5098 98.5682 47.5262 100.242C46.2953 98.9424 45.0653 97.6462 43.8362 96.3532C42.5082 94.9486 40.3988 97.0862 41.7242 98.4811L45.7301 102.699C44.3989 104.783 42.9108 106.763 41.2788 108.62C41.2788 108.62 41.2788 108.62 41.217 108.699C37.9207 107.046 34.8705 104.942 32.1543 102.448C28.7954 99.5245 25.7013 96.3096 22.9082 92.8411L26.5873 91.619C27.109 91.4795 28.2465 91.3202 28.5824 90.9509L28.6597 90.9302C28.6933 91.0558 28.7295 91.191 28.7631 91.3166C29.7789 93.8101 31.3453 96.0417 33.3452 97.8444C33.5584 98.0425 33.8239 98.1754 34.1103 98.2271C34.3967 98.2787 34.692 98.2471 34.9609 98.1359C35.2299 98.0248 35.4613 97.8387 35.6276 97.5999C35.7939 97.361 35.8882 97.0795 35.8992 96.7887C35.8992 96.7887 35.8992 96.7887 35.8811 96.721L35.6573 96.3875C34.9767 95.6606 34.3668 94.8705 33.8359 94.028C33.146 93.2012 32.5564 92.2956 32.0792 91.3303C31.9113 90.986 31.7708 90.629 31.6591 90.2626C32.5837 89.1902 33.2011 87.8877 33.4458 86.493C33.5255 86.1196 33.4646 85.7299 33.2748 85.3986C33.0849 85.0673 32.7795 84.8178 32.417 84.6978C32.032 84.596 31.6224 84.6494 31.2763 84.8465C30.9303 85.0436 30.6754 85.3686 30.5665 85.7517C30.4416 86.5056 30.1618 87.2254 29.7448 87.8658C28.6654 87.7772 27.5828 87.9914 26.6185 88.4845L21.0602 90.3438C18.686 87.0118 17.0013 83.2392 16.1049 79.2473C15.9045 78.2658 15.7331 77.2765 15.5713 76.2846C16.4118 76.0598 17.2426 75.8376 18.0734 75.6154C18.4027 75.5596 18.7262 75.4731 19.0394 75.357C21.4835 74.7033 23.8697 74.0652 26.3448 73.5274C26.5482 73.4308 26.7675 73.3721 26.992 73.3543C29.7186 72.3249 32.1918 70.9285 35.0551 70.1006C38.63 69.0306 42.2993 68.3908 45.9285 67.5237C53.3073 65.7366 61.1606 64.485 68.3192 61.9908C68.6179 61.8775 68.947 61.8739 69.2481 61.9804C69.5034 61.8971 69.7684 61.8471 70.0364 61.8317L71.6986 61.2733C72.1032 62.283 72.4595 63.3057 72.765 64.3316C75.1367 72.1544 76.4955 81.3765 75.5199 89.6494ZM124.403 79.1738L120.855 74.036C120.682 73.7506 120.422 73.529 120.112 73.4046C119.802 73.2801 119.461 73.2596 119.139 73.3461C118.971 73.4009 118.8 73.4466 118.627 73.483C119.893 71.1351 120.871 68.6422 121.537 66.0589C121.626 65.6807 121.564 65.2829 121.366 64.9492C121.167 64.6154 120.847 64.3718 120.472 64.2695C120.097 64.1672 119.697 64.2142 119.357 64.4007C119.016 64.5872 118.761 64.8986 118.645 65.2694C118.312 66.5262 117.899 67.7605 117.408 68.9645C116.686 68.4514 116.022 67.8621 115.426 67.2068C115.289 67.0597 115.123 66.9419 114.938 66.8604C114.754 66.779 114.555 66.7355 114.353 66.7326C114.152 66.7297 113.952 66.7675 113.765 66.8436C113.579 66.9198 113.409 67.0328 113.267 67.1758C113.125 67.3189 113.014 67.4891 112.939 67.6763C112.864 67.8634 112.828 68.0638 112.832 68.2653C112.837 68.4668 112.882 68.6653 112.964 68.8491C113.047 69.0328 113.166 69.198 113.314 69.3347C114.163 70.2808 115.136 71.1071 116.207 71.7907C115.746 72.6593 115.253 73.5261 114.711 74.3645C114.598 74.5636 114.531 74.7859 114.516 75.0147C114.501 75.2435 114.538 75.4727 114.624 75.685C114.711 75.8972 114.845 76.0869 115.016 76.2397C115.187 76.3926 115.39 76.5044 115.611 76.5669C116.713 76.7551 117.839 76.7481 118.939 76.5464L122.966 82.3943C121.262 85.6075 118.837 88.3821 115.88 90.5004C109.47 94.7081 102.021 97.0621 94.3568 97.3024C94.3434 97.2302 94.3244 97.1591 94.2999 97.0899C93.7608 92.7519 92.4018 87.6705 92.6614 83.2224C94.7175 82.249 97.0284 81.9497 99.2646 82.3672C99.6391 82.4481 100.03 82.3865 100.362 82.1945C100.693 82.0025 100.941 81.6939 101.057 81.3288C101.341 80.1774 102.011 79.158 102.955 78.4403C104.422 77.189 102.284 75.0796 100.827 76.3284C99.8617 77.1219 99.1033 78.1382 98.6176 79.2899C98.1003 79.2523 97.5611 79.2102 96.9401 79.2106L96.9917 75.6877C96.9835 75.2977 96.8237 74.9262 96.5462 74.652C96.2686 74.3778 95.8952 74.2225 95.5051 74.2191C95.115 74.2157 94.7389 74.3645 94.4566 74.6338C94.1743 74.903 94.008 75.2717 93.9931 75.6616L93.9649 79.4267C93.4434 79.5252 92.93 79.6625 92.4289 79.8375C91.7468 79.0676 91.0525 78.2906 90.3678 77.511L89.7747 76.8415C89.6669 76.7739 89.5685 76.6924 89.4821 76.5989C88.8069 75.7797 88.0779 75.0064 87.2999 74.2841C87.1088 74.271 86.9168 74.2807 86.7279 74.3129C86.4131 74.4001 86.135 74.587 85.9354 74.8457C85.7358 75.1044 85.6255 75.4209 85.621 75.7476C85.5292 76.9522 86.7306 77.8834 87.4501 78.7158C88.1695 79.5482 89.1308 80.6264 89.976 81.5804C89.9212 81.6517 89.8722 81.7271 89.8293 81.806C89.0671 83.4073 90.0698 86.5758 90.2598 88.2537C90.6184 91.1942 90.9737 94.1356 91.3259 97.0779C91.3259 97.0779 91.344 97.1455 91.3517 97.1745C87.0117 96.6997 83.2505 94.9832 81.0577 91.4291C80.2105 90.6473 79.5635 89.6735 79.1709 88.5896C78.7783 87.5057 78.6518 86.3434 78.8018 85.2004C78.7754 85.1691 78.7438 85.1426 78.7084 85.1219C78.7162 83.5257 78.6513 81.9282 78.5406 80.3533C78.1699 74.098 77.0167 67.9137 75.108 61.9452C76.4512 61.3168 77.8274 60.7728 79.228 60.2429C81.0226 58.4379 83.6713 58.2782 86.0978 57.4429C88.867 56.4952 91.1515 55.1286 94.0453 54.5306C95.126 54.314 96.2203 54.187 97.3172 54.0696C100.013 53.3487 102.708 52.6279 105.446 52.03C107.454 51.1928 109.575 50.6571 111.739 50.4401L122.928 47.1062C123.461 48.4515 123.925 49.8236 124.317 51.2168C126.837 59.9832 127.696 70.5088 124.403 79.1738Z" fill="black"/>
</g>
<defs>
<clipPath id="clip0">
<rect width="117.7" height="94.15" fill="white" transform="translate(0 30.4102) rotate(-14.9734)"/>
</clipPath>
</defs>
</svg>
