<svg width="99" height="80" viewBox="0 0 99 80" fill="none" xmlns="http://www.w3.org/2000/svg">
<g clip-path="url(#clip0)">
<path d="M93.4504 26.0001C90.7404 24.0001 87.2204 23.8501 83.9804 23.7301C78.0504 23.5101 72.1204 23.3501 66.2004 23.0101C61.8604 22.7601 57.5304 22.4301 53.2004 22.0101C53.1504 21.9201 53.1204 21.8201 53.0604 21.7301C52.9637 21.5657 52.8344 21.4227 52.6804 21.3101C52.6411 21.1986 52.6077 21.0851 52.5804 20.9701C52.4916 20.6441 52.2895 20.3604 52.0104 20.1701C50.8404 15.8101 60.0904 13.8901 62.7304 11.1701C64.0471 9.85881 65.0121 8.23694 65.5364 6.45421C66.0608 4.67149 66.1275 2.78539 65.7304 0.970082C65.3704 -0.919918 62.4804 -0.119918 62.8404 1.77008C63.6404 5.95008 61.2304 9.25008 57.7504 11.1601C55.7504 12.2501 53.2904 12.5901 51.4304 13.9601C50.2568 14.8086 49.412 16.036 49.0385 17.4352C48.665 18.8344 48.7858 20.3196 49.3804 21.6401C42.5404 21.0001 35.7204 20.2701 28.8804 19.5601C23.0793 18.8837 17.2402 18.5864 11.4004 18.6701C8.40039 18.7701 3.17039 18.0601 1.14039 20.8501C0.961827 20.8704 0.789354 20.9272 0.6337 21.0171C0.478046 21.1069 0.342541 21.2278 0.235614 21.3723C0.128686 21.5167 0.0526233 21.6816 0.0121567 21.8567C-0.0283099 22.0318 -0.0323148 22.2134 0.000391101 22.3901L1.71039 55.1801C2.00039 59.8001 1.66039 65.0501 4.76039 67.8401C4.75559 67.9267 4.75559 68.0135 4.76039 68.1001C5.39039 71.8601 8.19039 73.6101 11.4304 74.1701C11.5525 74.3699 11.7205 74.5377 11.9205 74.6595C12.1206 74.7812 12.3468 74.8534 12.5804 74.8701C23.8797 75.9635 35.2286 76.4642 46.5804 76.3701L47.1604 76.4501C57.5704 77.8301 68.0604 78.9001 78.5304 79.6701C84.2304 80.0901 91.3304 79.5801 93.1204 73.3701C93.2504 73.2301 93.3904 73.1101 93.5204 72.9701C96.0504 69.9701 96.2204 65.1501 96.8604 61.4601C97.7429 56.7415 98.3274 51.9721 98.6104 47.1801C99.0004 40.7501 99.2904 30.4301 93.4504 26.0001ZM93.0004 66.1701C92.7184 67.6853 92.1185 69.1235 91.2404 70.3901C91.0912 70.4546 90.9577 70.5505 90.849 70.6713C90.7403 70.7921 90.6589 70.935 90.6104 71.0901C89.5494 72.0896 88.2171 72.754 86.7804 73.0001C84.9485 73.2984 83.0842 73.3421 81.2404 73.1301C77.1804 72.8601 73.1304 72.3001 69.1004 71.7701C53.1004 69.6801 37.1504 66.7701 20.9804 66.6101C16.6504 66.6101 9.87039 68.1701 6.78039 64.8501C3.69039 61.5301 4.69039 54.7401 4.46039 50.3601C4.00706 41.7734 3.56039 33.1834 3.12039 24.5901C2.98516 24.2541 2.94368 23.8878 3.00039 23.5301C3.07732 23.1503 3.27812 22.8068 3.5713 22.5534C3.86448 22.3001 4.23347 22.1512 4.62039 22.1301C4.62039 22.0801 4.62039 22.0301 4.62039 21.9801C7.17039 21.1601 13.7204 21.7401 15.2904 21.7601C19.5104 21.8201 23.7204 22.1601 27.9204 22.5801C36.4004 23.4201 44.8604 24.4701 53.3604 25.1601C61.5737 25.8267 69.7971 26.3067 78.0304 26.6001C81.4204 26.7101 86.5004 25.9701 89.6204 27.4301C95.0404 29.9601 95.4304 36.4301 95.6204 41.6301C95.8143 49.8891 94.9336 58.1382 93.0004 66.1701Z" fill="black"/>
<path d="M18.7902 32.61C18.8502 31.13 19.4102 28.7 18.7402 27.31C17.4702 24.71 12.3502 26.48 10.5102 27.31C10.2451 27.4284 10.0245 27.628 9.88017 27.88C9.71152 27.896 9.54783 27.9458 9.39889 28.0266C9.24994 28.1073 9.1188 28.2172 9.01332 28.3498C8.90783 28.4823 8.83015 28.6348 8.78494 28.7981C8.73973 28.9613 8.7279 29.132 8.75017 29.3C8.90017 31.39 8.54017 33.37 8.49017 35.44C8.40456 36.0624 8.52926 36.6956 8.84448 37.2391C9.15971 37.7826 9.6474 38.2052 10.2302 38.44C11.6402 39.02 13.3602 38.63 14.8102 38.51C16.0602 38.4 17.8102 38.51 18.4102 37.22C19.0102 35.93 18.7402 34 18.7902 32.61ZM13.7902 35.61C13.3402 35.61 12.8902 35.71 12.4402 35.72H11.9702C11.4402 35.86 11.2902 35.72 11.5102 35.24C11.5242 34.3495 11.6213 33.4624 11.8002 32.59C11.8452 31.7272 11.8452 30.8627 11.8002 30L12.0402 29.91C13.2752 29.3134 14.6286 29.0023 16.0002 29C15.9978 30.2124 15.9344 31.4239 15.8102 32.63C15.8102 33.33 15.8102 34.04 15.7302 34.74C15.7302 34.86 15.6802 35.18 15.6402 35.47C15.0002 35.52 14.3802 35.53 13.7902 35.59V35.61Z" fill="black"/>
<path d="M33.2404 34.9002C33.25 33.061 33.1028 31.2243 32.8004 29.4102C31.9304 26.0802 27.1404 27.7102 24.8004 28.2602C24.5555 28.3137 24.3312 28.4364 24.1539 28.6136C23.9766 28.7909 23.854 29.0153 23.8004 29.2602C23.4474 29.2987 23.1202 29.4637 22.8794 29.7247C22.6386 29.9858 22.5004 30.3252 22.4904 30.6802C22.3904 32.7602 22.2804 34.8302 22.1804 36.9002C22.1204 38.1202 21.8304 39.6402 23.0104 40.4502C24.1904 41.2602 26.0904 40.5202 27.3304 40.2902C28.9004 40.0102 31.4504 40.0602 32.6704 38.8902C33.8904 37.7202 33.3304 36.2402 33.2404 34.9002ZM25.0004 37.7402C25.0004 36.8802 25.2504 35.4802 25.2804 34.9202L25.4604 31.1702H25.6304C27.039 30.7197 28.5026 30.464 29.9804 30.4102C30.159 31.5342 30.2327 32.6725 30.2004 33.8102C30.3543 34.7591 30.4312 35.7189 30.4304 36.6802C29.5357 36.9195 28.6225 37.0834 27.7004 37.1702C27.0004 37.2602 25.8604 37.6602 25.0004 37.7402Z" fill="black"/>
<path d="M47.49 32.69C47.23 31.03 47.28 28.62 45.49 27.69C44.09 26.97 42.26 27.51 40.82 27.81C39.38 28.11 37.04 28.29 36.22 29.69C36.1321 29.8516 36.0745 30.0278 36.05 30.21C35.9094 30.3464 35.8006 30.5121 35.7315 30.6953C35.6623 30.8785 35.6345 31.0748 35.65 31.27C35.6045 33.6089 35.7248 35.9481 36.01 38.27C36.1038 38.9381 36.4037 39.5602 36.868 40.0496C37.3323 40.539 37.9378 40.8712 38.6 41C40.95 41.64 47.95 42.4 48.36 38.83C48.58 36.93 47.79 34.62 47.49 32.69ZM44.2 38.35C43.6554 38.4102 43.1079 38.4402 42.56 38.44C41.56 38.44 39.56 38.67 38.98 37.63C38.62 37.02 38.87 35.2 38.84 34.47C38.79 33.55 38.75 32.62 38.71 31.7C38.8299 31.5968 38.9404 31.483 39.04 31.36L39.13 31.22C39.73 31.13 41.13 30.86 41.28 30.82C42.35 30.58 43.44 30.02 44.2 30.97C44.65 31.54 44.61 33.6 44.72 34.34C44.83 35.08 45.49 36.97 45.25 37.72C45.68 38.38 45.33 38.59 44.2 38.35Z" fill="black"/>
<path d="M58.7402 28.87C57.5468 28.4959 56.3217 28.2315 55.0802 28.08C54.2491 27.7917 53.3664 27.6826 52.4902 27.76C52.3726 27.7911 52.2586 27.8347 52.1502 27.89C51.8113 27.8502 51.4695 27.9347 51.1881 28.1278C50.9068 28.3209 50.705 28.6095 50.6202 28.94C49.9164 31.2647 49.523 33.6722 49.4502 36.1C49.4502 37.67 49.6402 39.1 51.2302 39.82C54.2302 41.08 58.8902 40.69 60.6702 37.73C62.1002 35.36 61.6402 30 58.7402 28.87ZM56.3302 37.31C55.5842 37.42 54.8262 37.42 54.0802 37.31C53.5991 37.311 53.1205 37.2402 52.6602 37.1C52.3102 36.85 52.5202 36.94 52.4502 36.42C52.3088 34.617 52.5333 32.804 53.1102 31.09H53.2502C53.4428 31.0459 53.6236 30.9606 53.7802 30.84L54.2602 30.99C54.8602 31.14 55.4802 31.23 56.0902 31.35C57.3302 31.6 57.8402 31.83 58.1902 33.14C58.6902 34.93 58.4402 36.86 56.3302 37.31Z" fill="black"/>
<path d="M76.5207 38.3801C76.2685 36.3826 75.8265 34.4137 75.2007 32.5001C74.9497 31.923 74.5403 31.4288 74.02 31.0748C73.4996 30.7208 72.8896 30.5216 72.2607 30.5001C70.0626 30.3701 67.8588 30.3701 65.6607 30.5001C65.3178 30.4963 64.9851 30.6168 64.7241 30.8392C64.4631 31.0616 64.2914 31.3709 64.2407 31.7101C64.1511 31.8981 64.1001 32.1021 64.0907 32.3101C63.9607 34.5449 63.9607 36.7853 64.0907 39.0201C64.1907 40.4501 64.3007 42.0201 65.6207 42.8101C66.9407 43.6001 68.8807 43.3001 70.3807 43.1101C71.8807 42.9201 74.3307 42.7901 75.7107 41.8201C77.0907 40.8501 76.7807 39.6701 76.5207 38.3801ZM67.4107 40.0001C66.7807 39.3701 67.0407 37.2401 67.0307 36.3601C67.0207 35.4801 67.0307 34.3601 67.0307 33.4401H69.2107C70.0307 33.4401 71.8207 33.0701 72.4407 33.7301C72.9107 34.2301 73.0007 36.3301 73.1507 37.0301L73.5207 38.8101L73.6407 39.4001C72.6407 39.5401 71.5407 39.9101 70.4907 40.0701C69.6507 40.2001 68.0007 40.6601 67.4107 40.0001Z" fill="black"/>
<path d="M88.5908 46.1002C88.5908 42.8702 88.5908 39.6302 88.5108 36.4002C88.3208 30.9302 84.8008 32.2202 80.1308 32.5402C79.8846 32.5531 79.6455 32.6264 79.4344 32.7538C79.2234 32.8811 79.047 33.0585 78.9208 33.2702C78.635 33.3519 78.3888 33.5353 78.2286 33.7857C78.0685 34.0361 78.0052 34.3364 78.0508 34.6302C78.4122 38.2387 78.4791 41.8708 78.2508 45.4902C78.1108 47.4902 76.8508 50.7902 77.9308 52.6002C79.4208 55.1002 86.0008 54.6002 87.6708 52.7302C89.1508 51.0702 88.5908 48.1402 88.5908 46.1002ZM85.3108 49.8902C85.3108 51.1802 84.5808 51.5502 83.0808 51.0102C82.8647 51.0998 82.6326 51.1447 82.3987 51.1421C82.1647 51.1396 81.9338 51.0895 81.7197 50.9951C81.5056 50.9007 81.3129 50.7639 81.1533 50.5928C80.9936 50.4218 80.8703 50.2202 80.7908 50.0002C80.4508 49.0002 81.1808 46.6202 81.2508 45.5402C81.4592 42.1848 81.4124 38.8185 81.1108 35.4702C82.6408 35.2602 85.3108 34.8902 85.5908 35.2202C85.5908 35.2202 85.5908 38.5002 85.5908 39.2202C85.5908 41.0735 85.5908 42.9235 85.5908 44.7702C85.6008 46.2002 86.0008 48.5402 85.3108 49.8902Z" fill="black"/>
<path d="M20.0004 48.1501C19.9358 46.3818 19.6674 44.6268 19.2004 42.9201C18.6204 41.2201 16.9504 41.3701 15.4704 41.3701C13.9904 41.3701 11.7404 40.9101 10.6804 42.0001C10.5081 41.9511 10.3276 41.9385 10.1502 41.9632C9.9728 41.9878 9.8025 42.0491 9.65011 42.1432C9.49772 42.2373 9.36659 42.362 9.26506 42.5096C9.16353 42.6571 9.09383 42.8241 9.06039 43.0001C8.59055 44.8439 8.59055 46.7762 9.06039 48.6201C9.61039 50.3301 11.1204 50.5401 12.7004 50.7901C15.3404 51.2701 20.3604 52.2301 20.0004 48.1501ZM16.0004 48.2001C15.0954 48.1579 14.1937 48.061 13.3004 47.9101C12.1604 47.7201 11.9704 47.9601 11.8404 46.9101C11.7654 46.2722 11.7654 45.6279 11.8404 44.9901C12.0995 45.0502 12.3713 45.0218 12.6123 44.9095C12.8534 44.7971 13.0499 44.6072 13.1704 44.3701H16.5404C16.5447 44.4433 16.5447 44.5168 16.5404 44.5901C16.5516 45.0644 16.6085 45.5366 16.7104 46.0001C16.7704 46.3701 16.7804 47.5601 16.9304 48.1801C16.6404 48.1501 16.2104 48.2101 16.0004 48.2001Z" fill="black"/>
<path d="M33.8101 43.8502C31.4901 41.4002 28.5101 41.9502 25.6001 42.6202C25.3757 42.4823 25.1188 42.4063 24.8555 42.4001C24.5922 42.3938 24.3319 42.4574 24.1012 42.5844C23.8705 42.7115 23.6776 42.8974 23.5422 43.1232C23.4067 43.3491 23.3335 43.6068 23.3301 43.8702C23.3301 45.8702 23.3301 47.8702 23.3801 49.8702C23.3801 51.1502 23.7201 52.4802 25.1401 52.8702C26.5601 53.2602 28.4501 52.4402 29.8101 52.1302C31.1701 51.8202 33.4601 51.7502 34.6201 50.8002C36.6801 49.0002 35.3101 45.4402 33.8101 43.8502ZM31.0001 48.7402L28.3101 49.3402C27.7448 49.4254 27.1866 49.5524 26.6401 49.7202L26.3501 49.8202C26.3501 48.3802 26.3501 46.9402 26.3501 45.5002C28.0101 45.0502 29.8801 44.5002 31.2801 45.6002C31.9751 46.119 32.4442 46.8852 32.5901 47.7402C32.5901 47.7402 32.5901 48.5202 32.7201 48.3602C32.5901 48.5802 31.2501 48.6902 31.0001 48.7402Z" fill="black"/>
<path d="M48.1704 48.8501C48.1809 47.4537 47.8369 46.0773 47.1704 44.8501C46.4004 43.7901 45.2304 43.7401 44.0404 43.7201C42.8504 43.7001 41.7804 43.7201 40.6504 43.7201C40.4768 43.5787 40.2711 43.4819 40.0515 43.4383C39.8318 43.3947 39.6048 43.4057 39.3904 43.4701H39.3004C39.0154 43.3908 38.7135 43.3959 38.4313 43.4846C38.1491 43.5734 37.8987 43.742 37.7104 43.9701C37.5278 44.1011 37.3755 44.2698 37.2637 44.4647C37.1519 44.6596 37.0833 44.8763 37.0624 45.1C37.0416 45.3237 37.069 45.5493 37.1428 45.7615C37.2166 45.9737 37.3352 46.1677 37.4904 46.3301C37.4904 47.6101 37.5604 48.9101 37.6604 50.1901C37.6411 50.7601 37.7527 51.3269 37.9868 51.847C38.2208 52.3671 38.571 52.8266 39.0104 53.1901C39.556 53.4794 40.1549 53.6544 40.7705 53.7042C41.386 53.7541 42.0053 53.6778 42.5904 53.4801C44.0304 53.2001 46.0904 53.1601 47.2904 52.2501C48.4904 51.3401 48.2904 50.0601 48.1704 48.8501ZM42.7404 50.3901C42.1604 50.5001 41.0504 51.0001 40.6704 50.3901C40.2904 49.7801 40.5804 48.3901 40.5604 47.7301V46.7301C41.6204 46.7301 42.6804 46.7301 43.7304 46.7301C44.7804 46.7301 44.8504 46.7901 45.0404 47.8101C45.1304 48.2601 45.1904 48.7101 45.2404 49.1601C45.2404 49.4401 45.1604 50.0701 45.3104 49.9001C44.9404 50.2401 43.2404 50.2901 42.7404 50.3901Z" fill="black"/>
<path d="M61.5608 45.41C61.2533 44.8638 60.7776 44.4316 60.2046 44.1775C59.6317 43.9235 58.992 43.8612 58.3808 44L57.7808 44.08C57.6374 44.1789 57.4786 44.2532 57.3108 44.3C55.9508 44.66 51.5508 44.46 51.4608 46.41C51.4556 46.6923 51.3713 46.9676 51.2175 47.2045C51.0637 47.4413 50.8466 47.6303 50.5908 47.75C50.3824 48.9343 50.2422 50.1296 50.1708 51.33C50.1048 51.9241 50.238 52.5233 50.5492 53.0337C50.8605 53.544 51.3323 53.9366 51.8908 54.15C53.2467 54.7462 54.748 54.9304 56.2078 54.6797C57.6677 54.429 59.0215 53.7544 60.1008 52.74C61.9008 51 62.8608 47.76 61.5608 45.41ZM54.5108 51.8C54.1008 51.8 53.4208 51.73 53.1708 51.37C52.9208 51.01 53.3608 49.94 53.4008 49.66C53.4908 49 53.5808 48.34 53.6608 47.66C54.6608 47.55 55.7408 47.37 56.7808 47.23C57.4091 47.0759 58.0538 46.9987 58.7008 47C59.1508 47.17 59.1408 47.37 59.1308 48C59.1002 48.5615 58.9534 49.1107 58.6995 49.6125C58.4456 50.1143 58.0902 50.558 57.6558 50.9152C57.2215 51.2725 56.7176 51.5356 56.1762 51.6879C55.6348 51.8402 55.0677 51.8784 54.5108 51.8Z" fill="black"/>
<path d="M76.0704 46.66C75.1904 45.47 73.5404 45.66 72.2204 45.57L66.5604 45.27C66.3228 45.2575 66.0859 45.3058 65.8722 45.4103C65.6584 45.5148 65.4748 45.672 65.3387 45.8672C65.2026 46.0624 65.1185 46.289 65.0943 46.5257C65.0701 46.7624 65.1066 47.0013 65.2004 47.22C65.105 47.4161 65.057 47.6319 65.0604 47.85C65.0604 50.07 64.0604 54.48 66.9004 55.22C68.5113 55.5045 70.1595 55.5045 71.7704 55.22C73.0004 55.06 74.6204 55 75.5804 54C77.0004 52.61 77.2604 48.27 76.0704 46.66ZM73.6504 48.84C73.6504 49.14 73.6504 49.43 73.6504 49.73C73.6504 51.29 73.8404 51.87 72.3104 52.12C70.8879 52.4436 69.4233 52.5415 67.9704 52.41C67.9704 51.81 67.9704 51.14 67.9704 50.62C67.9704 49.87 67.9704 49.11 67.9704 48.35L71.1304 48.52C71.7988 48.5115 72.467 48.5482 73.1304 48.63C73.9404 48.52 74.0804 48.59 73.6504 48.84Z" fill="black"/>
<path d="M84.1808 58C83.7156 57.4836 83.1388 57.08 82.4941 56.8201C81.8495 56.5602 81.1541 56.4507 80.4608 56.5C78.7108 56.55 76.7008 57.7601 75.0208 57.3301C74.7356 57.2642 74.4376 57.2815 74.1619 57.3799C73.8863 57.4783 73.6447 57.6537 73.4658 57.8853C73.2868 58.1169 73.1781 58.3949 73.1524 58.6864C73.1267 58.978 73.1851 59.2707 73.3208 59.53C73.2108 61.53 73.1108 63.45 73.0008 65.42C72.9308 66.88 72.6608 68.74 74.2208 69.57C75.5908 70.3 77.3308 69.57 78.6708 69.14C80.3308 68.57 82.3908 67.93 83.6708 66.67C85.6108 64.74 86.0008 60.1 84.1808 58ZM81.4908 64.45C80.5325 65.2668 79.395 65.8458 78.1708 66.14C77.6757 66.3468 77.1638 66.5107 76.6408 66.63C75.8908 66.76 76.1808 67.03 75.9508 66.52C75.5908 65.74 76.1008 63.71 76.1408 62.84L76.2808 60.3301C77.3408 60.2001 78.3608 59.83 79.4908 59.62C80.6208 59.41 82.0608 59.4501 82.2408 60.9901C82.4406 62.1905 82.1722 63.4218 81.4908 64.43V64.45Z" fill="black"/>
<path d="M19.4304 54.63C18.4304 53.79 17.0804 53.9 15.8904 53.94C14.3236 54 12.7631 54.1705 11.2204 54.45C11.0316 55.3978 10.9013 56.3563 10.8304 57.32C10.8257 57.5915 10.7499 57.8571 10.6104 58.09C10.3404 60.2 10.2104 62.5 12.3604 63.37C13.5563 63.85 14.875 63.9322 16.1213 63.6044C17.3676 63.2767 18.4753 62.5563 19.2804 61.55C20.6404 59.81 21.3404 56.3 19.4304 54.63ZM17.5604 58C17.5159 58.7055 17.2339 59.3752 16.7604 59.9C16.3461 60.3114 15.8235 60.5965 15.2534 60.7222C14.6833 60.8479 14.0892 60.809 13.5404 60.61C13.5191 60.4809 13.5191 60.3492 13.5404 60.22C13.5955 59.7352 13.6256 59.2479 13.6304 58.76C13.6304 58.2 13.7004 57.64 13.7404 57.08C14.6269 56.9786 15.5181 56.9218 16.4104 56.91C17.3104 56.92 17.6204 57.08 17.5604 58Z" fill="black"/>
<path d="M66.7906 58.33C64.9106 56.6 60.5606 57.1 58.2506 57C49.2506 56.42 39.1106 58.35 30.3906 56C30.1097 55.8576 29.7939 55.7986 29.4806 55.83C29.2653 55.8377 29.0555 55.8996 28.8706 56.01H28.8206C28.6013 56.1318 28.4171 56.308 28.2857 56.5217C28.1543 56.7354 28.0802 56.9793 28.0706 57.23C27.9006 59.58 26.8806 62.79 29.0706 64.39C30.9606 65.78 34.5206 65.39 36.7006 65.46C46.4506 65.93 56.2206 65.21 65.9006 66.75C66.1226 66.8073 66.3547 66.8137 66.5796 66.7687C66.8045 66.7236 67.0162 66.6282 67.199 66.4897C67.3818 66.3512 67.5308 66.1731 67.635 65.9688C67.7392 65.7645 67.7958 65.5392 67.8006 65.31C67.8406 63.58 68.2706 59.68 66.7906 58.33ZM36.7006 62.43C35.2806 62.37 31.6506 62.69 30.7006 61.57C30.4974 60.7659 30.4974 59.924 30.7006 59.12C36.2806 60.35 42.0106 59.72 47.7006 59.68C50.8806 59.68 54.0506 59.68 57.2206 59.9C58.7706 59.98 61.4606 59.84 62.9206 60.35L64.4706 60.42C64.6502 61.4609 64.7505 62.5139 64.7706 63.57C58.8221 62.8462 52.8326 62.5121 46.8406 62.57C43.5106 62.59 40.1006 62.59 36.7006 62.43Z" fill="black"/>
</g>
<defs>
<clipPath id="clip0">
<rect width="98.78" height="79.78" fill="white"/>
</clipPath>
</defs>
</svg>
