<svg width="103" height="109" viewBox="0 0 103 109" fill="none" xmlns="http://www.w3.org/2000/svg">
<g clip-path="url(#clip0)">
<path d="M92.2697 53C89.9597 43.54 76.9097 44.6 67.4797 46.55C71.5397 42 73.8597 35.48 75.8497 30C77.8397 24.52 81.6697 10.89 72.1597 10C68.6897 9.66003 65.8397 11.79 63.4297 14C59.0497 18 54.9197 22.38 50.6897 26.56L36.8797 40.12C34.0597 42.9 31.0797 46.67 27.7897 49.61C28.1697 48.43 28.5697 47.25 29.0097 46.08C29.1158 45.7009 29.0696 45.2952 28.8809 44.9497C28.6922 44.6041 28.376 44.3459 27.9997 44.23C20.7884 42.5628 13.4002 41.7837 5.99971 41.91C5.80033 41.9111 5.60315 41.9519 5.41971 42.03C5.10276 42.0045 4.78824 42.1027 4.54213 42.3041C4.29603 42.5055 4.13747 42.7943 4.09971 43.11C1.48938 56.9777 0.18036 71.0589 0.189714 85.17C0.189714 89.71 -0.810286 96.45 1.76971 100.53C4.17971 104.33 9.47971 104.99 13.5597 105.27C17.0197 105.51 23.1697 105.87 25.7697 102.97C26.142 102.554 26.4336 102.073 26.6297 101.55C31.8699 103.967 37.4355 105.604 43.1497 106.41C50.6197 107.6 58.5897 108.95 66.1497 108.17C71.3697 107.63 77.2397 105.8 80.2097 101.17C81.6797 98.86 81.7897 96.53 81.5497 93.88C81.3097 91.23 80.6897 88.88 82.8397 86.58C83.9297 85.42 85.2697 84.65 86.2697 83.35C89.7997 78.75 89.2697 74.28 88.1097 69.08C87.5997 66.71 87.7097 65.93 89.1097 63.98C90.1125 62.7318 90.934 61.3481 91.5497 59.87C92.4862 57.7074 92.7374 55.3098 92.2697 53ZM19.5097 53.6C19.2407 54.3358 18.7563 54.9735 18.1197 55.43C17.6705 56.1792 16.9884 56.7606 16.1776 57.0857C15.3669 57.4107 14.472 57.4614 13.6297 57.23C11.6297 56.77 9.69971 54.96 9.87971 52.75C9.94611 52.0396 10.221 51.3647 10.6697 50.81L10.7297 50.42C10.8396 50.0278 11.0995 49.6945 11.4532 49.4924C11.8069 49.2903 12.226 49.2356 12.6197 49.34C12.6797 49.34 12.7097 49.4 12.7697 49.42C13.1682 49.298 13.583 49.2373 13.9997 49.24C16.3297 49.21 20.5597 50.51 19.5097 53.63V53.6ZM86.2197 62.76C83.8097 66.12 84.5797 67.37 85.7097 71.05C86.187 72.583 86.3445 74.1975 86.1725 75.7938C86.0005 77.39 85.5026 78.934 84.7097 80.33C83.2997 82.71 80.7097 83.73 79.2797 85.98C76.7097 89.92 79.9897 94.56 78.1197 98.59C75.1197 105.02 66.0597 105.54 59.9497 105.27C49.0997 104.79 36.9497 103.48 27.0897 98.38C26.9497 95.08 25.4897 91.26 25.0897 88.74C23.3081 77.2941 23.7666 65.6111 26.4397 54.34C28.2138 52.9169 29.8847 51.3697 31.4397 49.71L41.1097 40.17L59.6597 21.86C59.6772 21.8971 59.7009 21.9309 59.7297 21.96C60.0406 21.5099 60.3744 21.076 60.7297 20.66C61.2962 19.8674 61.9178 19.1155 62.5897 18.41C62.9097 18.06 63.2497 17.7 63.5897 17.35C63.9297 17 63.9997 16.78 64.1897 16.48C64.2996 16.2899 64.4511 16.1272 64.633 16.0042C64.8149 15.8812 65.0224 15.8012 65.2397 15.77C66.2532 14.8364 67.4159 14.0792 68.6797 13.53C69.4443 13.2047 70.269 13.0445 71.0997 13.06C71.0997 13.06 71.0997 13.06 71.0997 13.01C71.6229 13.0175 72.1388 13.1343 72.6141 13.353C73.0894 13.5717 73.5137 13.8875 73.8597 14.28C77.0797 17.65 74.5897 24.4 73.2197 28.33C70.7697 35.39 67.4997 44.94 60.2797 48.38C58.7197 49.12 59.8297 51.55 61.4397 51.12C67.206 49.5498 73.1445 48.7 79.1197 48.59C82.0097 48.59 85.6297 48.73 87.7797 50.95C91.4397 54.7 88.6097 59.46 86.2197 62.79V62.76Z" fill="black"/>
<path d="M92.7901 39.44C91.3501 38.16 89.2201 40.28 90.6701 41.56C92.1263 42.8205 93.2653 44.4062 93.9949 46.1886C94.7246 47.971 95.0244 49.9002 94.8701 51.82C94.7401 53.75 97.7401 53.74 97.8701 51.82C98.0301 49.505 97.6552 47.1842 96.7742 45.0374C95.8933 42.8906 94.5301 40.9754 92.7901 39.44Z" fill="black"/>
<path d="M96.4194 35.6001C94.8894 34.4201 93.4194 37.0301 94.9094 38.1901C96.6885 39.5782 98.037 41.4428 98.7982 43.567C99.5594 45.6913 99.702 47.988 99.2094 50.1901C98.8094 52.0701 101.699 52.8801 102.109 50.9901C102.745 48.1493 102.547 45.1853 101.537 42.4548C100.528 39.7243 98.7504 37.3439 96.4194 35.6001Z" fill="black"/>
<path d="M65.4501 5.12008C60.1138 6.13657 55.1955 8.70355 51.3101 12.5001C49.9201 13.8401 52.0401 15.9601 53.4301 14.6201C56.9488 11.1914 61.4079 8.88699 66.2401 8.00008C68.1401 7.65008 67.3401 4.76008 65.4501 5.12008Z" fill="black"/>
<path d="M64.1002 3.36245e-05C57.0523 1.14053 50.6268 4.71418 45.9402 10.1C44.6702 11.55 46.7802 13.68 48.0602 12.22C52.399 7.22849 58.3646 3.93391 64.9002 2.92003C66.8002 2.61003 66.0002 -0.279966 64.1002 3.36245e-05Z" fill="black"/>
</g>
<defs>
<clipPath id="clip0">
<rect width="102.46" height="108.4" fill="white"/>
</clipPath>
</defs>
</svg>
