<svg width="112" height="117" viewBox="0 0 112 117" fill="none" xmlns="http://www.w3.org/2000/svg">
<g clip-path="url(#clip0)">
<path d="M98.3703 70.5799C96.6784 61.2669 92.3145 52.6468 85.8103 45.7699C81.7772 41.8833 77.268 38.5232 72.3903 35.7699C72.2709 35.5815 72.1074 35.4248 71.9141 35.3133C71.7208 35.2018 71.5033 35.1389 71.2803 35.1299C67.7203 33.0599 64.0703 31.1299 60.5803 29.1299C60.8303 27.2999 61.0203 25.4599 60.3803 24.0399C63.6164 21.9116 66.9943 20.0071 70.4903 18.3399C72.7203 17.2699 74.6903 16.3399 74.7903 13.6399C74.7472 12.4837 74.4572 11.3501 73.9398 10.3152C73.4223 9.28035 72.6895 8.36817 71.7903 7.63995C70.888 7.08631 69.849 6.7954 68.7903 6.79995C68.2003 6.72995 67.5603 7.17995 66.9903 7.08995C65.2303 6.80995 64.1503 5.46995 62.9903 4.47995C61.0803 2.99995 60.1803 2.25995 57.6503 2.88995C54.6503 3.62995 53.7703 3.59995 51.2103 1.72995C50.2563 0.913136 49.1162 0.343112 47.8903 0.0699468C46.8286 -0.0776593 45.7468 0.0467697 44.7463 0.431568C43.7459 0.816365 42.8595 1.44893 42.1703 2.26995C40.9503 3.76995 41.1703 5.02995 39.5703 6.33995C37.6303 7.93995 37.1803 7.33995 34.8503 6.82995C33.887 6.62348 32.9118 6.47654 31.9303 6.38995C31.6681 6.39276 31.4112 6.46381 31.1847 6.59611C30.9583 6.7284 30.7703 6.91738 30.6391 7.14444C30.5079 7.3715 30.4381 7.62881 30.4366 7.89104C30.435 8.15326 30.5018 8.41137 30.6303 8.63995C33.4232 12.8592 36.7098 16.7299 40.4203 20.1699C40.4888 20.3893 40.6049 20.5907 40.7603 20.7599L43.0503 23.3199C42.981 23.5396 42.9639 23.7725 43.0003 23.9999C39.3691 23.9737 35.8389 25.1951 33.0003 27.4599C28.2103 31.3299 26.5203 39.0599 18.8203 37.4599C17.0003 36.9999 16.1403 39.8499 18.0003 40.2499C19.9276 40.7591 21.9569 40.7349 23.8715 40.1801C25.7861 39.6253 27.5139 38.5606 28.8703 37.0999C30.6303 35.2399 31.7603 32.8899 33.5003 31.0299C34.6656 29.7855 36.0688 28.7876 37.6268 28.0954C39.1847 27.4032 40.8658 27.0306 42.5703 26.9999C42.5703 27.1599 42.5703 27.3299 42.4903 27.4999C42.2454 27.5618 42.019 27.6819 41.8303 27.8499C29.0703 39.2599 15.5003 52.1299 12.4503 69.8499C10.0903 83.5099 15.5003 101 32.0003 100.09C32.9526 100.033 33.9082 100.107 34.8403 100.31C35.015 100.404 35.212 100.449 35.4103 100.44C38.2503 101.19 40.5603 102.89 43.6203 103.9C47.3425 104.994 51.2649 105.227 55.0903 104.58C58.9903 104.01 62.5103 102.58 66.2403 101.45C69.0303 100.57 70.1403 100.45 72.7003 101.56C74.0129 102.102 75.4113 102.407 76.8303 102.46C90.8503 103 100.31 82.5099 98.3703 70.5799ZM85.5903 95.91C85.7803 95.82 85.9803 95.7399 86.1703 95.6399C85.3651 96.3829 84.495 97.0523 83.5703 97.6399C84.2777 97.1043 84.9523 96.5266 85.5903 95.91ZM35.3603 10.1199C36.8387 10.5995 38.4146 10.6958 39.9403 10.3999C41.9403 9.87995 42.2103 8.74995 43.3803 7.39995C45.1103 5.39995 39.8203 0.739947 49.5603 4.22995C49.9103 4.35995 51.3403 5.75995 51.7103 5.95995C53.4603 6.95995 54.4903 6.77995 56.3803 6.57995L57.7603 5.99995C58.5546 5.84072 59.3792 5.95096 60.1037 6.31322C60.8282 6.67547 61.4112 7.26904 61.7603 7.99995C62.2303 8.36995 62.5003 8.99995 63.0203 9.33995C64.7803 10.5299 65.9203 9.70995 67.8003 9.99995L71.0003 11.4199C71.9403 13.6299 71.5203 14.9699 69.7303 15.4199C68.8203 16.2899 66.9103 16.7399 65.8003 17.3199C63.1075 18.7381 60.5027 20.3176 58.0003 22.0499H57.9103C53.8848 20.9417 49.6508 20.825 45.5703 21.7099L44.1903 20.1599C44.1865 19.9676 44.1406 19.7785 44.056 19.6057C43.9713 19.433 43.8499 19.2809 43.7003 19.1599C40.6194 16.4388 37.8249 13.4097 35.3603 10.1199ZM48.4303 29.5599C48.4359 29.593 48.4359 29.6268 48.4303 29.6599C46.5203 29.4799 45.2203 28.7799 45.8403 25.9599C46.1434 25.9736 46.4439 25.8985 46.705 25.744C46.9661 25.5895 47.1765 25.3622 47.3103 25.0899C47.5369 25.1459 47.7737 25.1459 48.0003 25.0899C48.0892 25.0694 48.1815 25.0694 48.2703 25.0899C48.2703 25.0899 48.2703 25.1499 48.2703 25.1899C48.4403 25.8099 48.5703 26.4299 48.6803 27.0499C48.5464 27.8808 48.4629 28.719 48.4303 29.5599ZM63.4303 92.1299C60.7503 93.8299 59.1003 94.7999 55.9603 94.5199C53.3656 94.255 50.7534 94.2048 48.1503 94.3699C43.9546 94.7092 39.8292 95.6488 35.9003 97.16C35.0916 96.9674 34.2614 96.88 33.4303 96.8999C27.4303 97.0399 22.9403 96.7999 19.0503 91.3899C16.1903 87.3899 15.0503 82.2699 14.8903 77.3899C14.3303 57.7899 29.3703 43.0499 42.8903 30.8899C43.0716 31.2326 43.3158 31.5379 43.6103 31.7899C44.9103 32.9099 47.6803 32.5799 49.2003 32.6399C52.4274 32.745 55.6579 32.6347 58.8703 32.3099L59.0003 32.2999C59.0158 32.523 59.0802 32.74 59.1891 32.9353C59.298 33.1306 59.4487 33.2995 59.6303 33.4299C73.4403 43.5599 85.5603 63.4299 82.4003 81.2499C81.2903 87.5499 77.2103 89.4499 71.2603 89.8799C68.4813 89.9224 65.7628 90.6986 63.3803 92.1299H63.4303Z" fill="black"/>
<path d="M67.2301 69.4999C65.6601 64.8599 61.3901 63.1999 56.9901 62.3199C56.6567 57.2799 56.2234 52.2532 55.6901 47.2399C57.4901 47.4899 59.2201 47.8499 60.7501 48.1799C62.6301 48.5899 63.4401 45.6999 61.5501 45.2899C59.6601 44.8799 57.4901 44.4499 55.3401 44.1999L55.0001 41.1499C54.7601 39.2599 51.7601 39.2399 52.0001 41.1499C52.1201 42.1499 52.2201 43.0499 52.3301 43.9999C51.1399 43.9659 49.949 44.0328 48.7701 44.1999C48.5701 42.9399 48.3801 41.6699 48.1601 40.4099C47.8301 38.5199 44.9401 39.3199 45.2701 41.2099C45.4901 42.4399 45.6701 43.6799 45.8701 44.9199C44.8523 45.2713 43.8868 45.7591 43.0001 46.3699C38.8401 49.2299 37.0001 54.6299 40.0001 58.9999C42.0001 61.8199 44.8001 63.0799 47.8901 63.8099C48.1567 68.2699 48.2834 72.7366 48.2701 77.2099C46.2819 76.623 44.4708 75.5508 43.0001 74.0899C41.6301 72.7399 39.5001 74.8599 40.8801 76.2099C42.9292 78.2176 45.4938 79.6193 48.2901 80.2599C48.2501 82.5132 48.1767 84.7632 48.0701 87.0099C48.0754 87.3372 48.1869 87.654 48.3879 87.9124C48.5889 88.1708 48.8684 88.3569 49.1843 88.4426C49.5003 88.5284 49.8355 88.5092 50.1395 88.3878C50.4436 88.2665 50.7 88.0496 50.8701 87.7699L51.8701 85.8999C52.0567 85.5431 52.0941 85.1269 51.9741 84.7425C51.8541 84.3582 51.5865 84.0372 51.2301 83.8499C51.2301 82.8499 51.3101 81.7499 51.3301 80.7099C52.472 80.7898 53.6181 80.7898 54.7601 80.7099C54.7601 82.2499 54.7601 83.7899 54.7601 85.3299C54.7601 86.9599 57.4201 87.4399 57.7601 85.7199C57.8401 85.2299 57.9201 84.7199 58.0101 84.2399C58.0754 83.8663 58.0007 83.4818 57.8001 83.1599C57.8001 82.2199 57.8001 81.2799 57.8001 80.3399C58.4301 80.2299 59.0501 80.0999 59.6701 79.9599C64.6801 78.6999 69.1801 75.2899 67.2301 69.4999ZM43.6301 49.6799C44.4031 48.9326 45.3085 48.3357 46.3001 47.9199C46.8801 52.0466 47.3334 56.1932 47.6601 60.3599C42.8201 58.5299 38.3201 54.8899 43.6301 49.6799ZM50.7201 61.2699C50.3667 56.5499 49.8601 51.8332 49.2001 47.1199C50.3477 46.9789 51.5054 46.9387 52.6601 46.9999C53.2001 51.9399 53.6601 56.8799 53.9501 61.8299L52.2901 61.5999C51.8101 61.4999 51.2801 61.3999 50.7201 61.2699ZM51.2901 77.7499C51.2901 73.2699 51.1734 68.8032 50.9401 64.3499L54.1401 64.8199C54.3934 69.1199 54.5601 73.4266 54.6401 77.7399C53.5255 77.8332 52.4052 77.8366 51.2901 77.7499ZM62.5601 75.7499C61.5905 76.2671 60.554 76.6474 59.4801 76.8799C58.8701 77.0499 58.2501 77.1999 57.6301 77.3299C57.5501 73.3299 57.3967 69.3299 57.1701 65.3299C58.7936 65.596 60.3435 66.1989 61.7201 67.0999C64.9534 69.1999 65.2334 72.0732 62.5601 75.7199V75.7499Z" fill="black"/>
<path d="M16.5308 102.41C14.7467 101.386 13.2428 99.9377 12.1525 98.1933C11.0622 96.4489 10.4194 94.4624 10.2808 92.4099C10.1608 90.4899 7.16085 90.4799 7.28085 92.4099C7.42759 94.9829 8.20948 97.4794 9.55663 99.6764C10.9038 101.873 12.7742 103.702 15.0008 105C15.3443 105.203 15.7543 105.261 16.1406 105.162C16.5269 105.062 16.858 104.813 17.0608 104.47C17.2637 104.126 17.3219 103.716 17.2225 103.33C17.1231 102.944 16.8743 102.613 16.5308 102.41Z" fill="black"/>
<path d="M19.1004 113.33C9.76041 112.71 5.62041 100.56 3.00041 93.1199C2.36041 91.3099 -0.539586 92.1199 0.100414 93.9199C3.29041 102.92 7.99041 115.59 19.1004 116.33C21.0004 116.46 21.0004 113.46 19.1004 113.33Z" fill="black"/>
<path d="M105.42 72.84C104.84 68.62 104.15 64.4167 103.35 60.23C102.99 58.33 100.09 59.13 100.46 61.02C101.254 65.2067 101.94 69.4133 102.52 73.64C102.78 75.54 105.68 74.73 105.42 72.84Z" fill="black"/>
<path d="M109.05 60.46C108.27 57.59 107.45 51.29 103.27 52.02C101.37 52.35 102.18 55.24 104.07 54.91C104.97 54.76 107.29 66.21 107.51 67.57C108.211 72.3096 108.379 77.1129 108.01 81.89C107.88 83.82 110.88 83.81 111.01 81.89C111.546 74.6874 110.884 67.4457 109.05 60.46Z" fill="black"/>
</g>
<defs>
<clipPath id="clip0">
<rect width="111.18" height="116.33" fill="white"/>
</clipPath>
</defs>
</svg>
