<svg width="87" height="86" viewBox="0 0 87 86" fill="none" xmlns="http://www.w3.org/2000/svg">
<g clip-path="url(#clip0)">
<path d="M80.2 9.40004C76.73 4.63004 71.8 0.92004 65.83 0.14004C63.1205 -0.251783 60.3554 0.0993973 57.8299 1.15611C55.3044 2.21282 53.1131 3.9354 51.49 6.14004C49.8299 8.44661 48.5535 11.0063 47.71 13.72C46.8 16.4 45.43 27.36 41.07 28.65C40.7007 27.4603 40.0991 26.3557 39.3 25.4C36 18.07 25.77 14.38 19 19.63C18.4446 20.0409 17.926 20.4993 17.45 21C12.64 24.69 12.68 33.58 14.17 38.85C14.3727 39.2328 14.5272 39.6393 14.63 40.06C7.68 41.61 1.83 46.45 0.330002 53.64C-1.23 61.09 3 70.26 8.23 75.47C13.67 80.91 21.62 86.78 29.78 84.58C36 82.9 41.5 77.26 42.28 70.82L42.57 71.01C45.3485 71.6622 48.2682 71.3079 50.81 70.01C52.766 69.0708 54.4385 67.6304 55.6574 65.8354C56.8764 64.0403 57.5984 61.9545 57.75 59.79C61.47 54.94 60.68 47.66 55.85 43.13C56.8078 41.9542 58.0604 41.0535 59.48 40.52C61.95 39.52 63.57 39.74 66.16 40C69.55 40.34 72.75 40.55 76.05 39.57C81.33 37.99 85.82 33.72 86.71 28.15C87.71 22 83.77 14.29 80.2 9.40004ZM39.37 69.52C39.23 76.05 32.52 82.1 26 82C19.48 81.9 12.8 76.58 8.9 71.72C5.37 67.31 2.3 60.65 3.17 55C4.17 48.38 9.49 44.22 15.77 43L15.9 43.26C16.12 43.64 16.33 44.02 16.54 44.41C17.38 45.33 18.19 46.29 18.96 47.27C12.96 50.61 12.79 60.42 16.69 65.53C21.44 71.75 29.22 70.37 32.58 64.17C33.2473 65.2249 34.1426 66.1168 35.2 66.78C36.57 67.64 38.03 68.35 39.45 69.13C39.4075 69.2563 39.3806 69.3873 39.37 69.52ZM20.71 49.68C20.93 50.04 21.17 50.39 21.38 50.75C21.4141 50.8148 21.4442 50.8816 21.47 50.95C23.76 53.76 26.06 56.58 28.38 59.37C29.129 59.7439 29.7362 60.351 30.11 61.1C30.31 61.26 30.49 61.43 30.68 61.6C30.4803 61.7615 30.3253 61.9715 30.23 62.21C27.73 68.16 20.71 67.58 18.1 61.94C16.46 58.38 16.44 51.55 20.71 49.68ZM44.33 68.3C38.21 67.88 34.25 61.76 30.68 57.44C27.88 54 24.8 50.68 22.1 47.12C21.9912 46.7904 21.7813 46.5035 21.5 46.3C20.92 45.51 20.35 44.71 19.82 43.9C17.8083 40.9277 16.6118 37.4796 16.35 33.9C18.47 38.66 22.35 43.26 24.94 46.47C31.24 54.19 40.55 68.47 52.58 63.66C52.96 63.51 53.31 63.32 53.67 63.14C52.8046 64.8329 51.4531 66.2286 49.7889 67.148C48.1247 68.0674 46.2238 68.4686 44.33 68.3ZM80.05 34.12C74.75 38.82 68.5 36.64 62.31 36.72C57.95 36.78 55.88 38.72 53.03 41.72C49.53 45.44 46.38 43.64 43.65 40.01C41.87 37.66 40.08 34.83 39.98 31.87C47.84 32.8 48.8 19.74 50.61 14.52C53.06 7.43004 58.34 1.61004 66.5 3.28004C72.68 4.55004 77.1 9.39004 80 14.71C83.36 20.87 86.19 28.68 80.05 34.12Z" fill="black"/>
<path d="M76.2196 18.62C75.3096 16.92 72.7196 18.43 73.6296 20.14C74.4462 21.6905 74.6932 23.4782 74.3278 25.1921C73.9624 26.9059 73.0076 28.4374 71.6296 29.52C70.1296 30.74 72.2696 32.85 73.7496 31.64C75.5967 30.0854 76.851 27.9413 77.301 25.5694C77.7509 23.1975 77.369 20.743 76.2196 18.62Z" fill="black"/>
</g>
<defs>
<clipPath id="clip0">
<rect width="86.87" height="85.05" fill="white"/>
</clipPath>
</defs>
</svg>
