<svg class="phone-icon_svg" width="15" height="23" viewBox="0 0 15 23"      xmlns="http://www.w3.org/2000/svg">
<path d="M13.6001 0.207737C12.0203 -0.261869 9.59359 0.207737 7.96492 0.207737C5.97252 0.266438 3.64353 0.0262985 1.67285 0.36783C0.597927 0.533259 -0.286981 1.17897 0.217905 2.13419C0.217905 6.46737 0.217905 10.8005 0.217905 15.1337C0.212476 17.0762 -0.753865 21.3453 1.45569 22.5407C2.60661 23.1544 4.42529 22.9729 5.65222 22.9889C7.63794 23.0175 9.6231 22.9016 11.5914 22.6421C14.6804 22.2418 14.6859 21.1799 14.7076 18.3036C14.7329 14.1518 14.7619 9.99652 14.7945 5.83767C14.8053 4.14602 15.7445 0.853445 13.6001 0.207737ZM8.3178 21.4627C8.27943 21.5142 8.22673 21.5537 8.16604 21.5765C8.10536 21.5992 8.03928 21.6042 7.97578 21.5908C7.82183 21.6667 7.65348 21.7101 7.48148 21.7184C7.30947 21.7267 7.13761 21.6996 6.97686 21.6388C6.91159 21.6277 6.85033 21.6003 6.79898 21.5592C6.74763 21.5181 6.70793 21.4646 6.6837 21.404C6.57258 21.2614 6.5062 21.09 6.4927 20.9109C6.4792 20.7317 6.51917 20.5526 6.6077 20.3954C6.73227 20.1987 6.90051 20.0321 7.09982 19.9083C7.29913 19.7845 7.52435 19.7065 7.75862 19.6804C7.84435 19.6692 7.9315 19.6841 8.00835 19.723C8.1596 19.7821 8.29744 19.8701 8.41391 19.9818C8.53039 20.0936 8.62319 20.2269 8.68696 20.3741C8.72031 20.5714 8.70412 20.7737 8.63978 20.9634C8.57544 21.1532 8.4649 21.3246 8.3178 21.4627ZM11.5751 10.0268C11.4231 12.7057 11.3344 15.3863 11.3091 18.0688C11.1028 18.1061 10.9074 18.1328 10.7174 18.1595C8.15582 18.1857 5.59523 18.0485 3.05178 17.7486C3.14226 13.1237 3.23636 8.48454 3.33408 3.83117C3.38202 3.80403 3.43621 3.78934 3.49152 3.78848C3.53141 3.7481 3.57973 3.71669 3.63315 3.69643C3.68657 3.67616 3.74382 3.66751 3.80097 3.67108C6.29282 3.67108 8.77925 3.4843 11.2711 3.56435C11.3815 3.56573 11.4871 3.60947 11.5651 3.68623C11.6432 3.76299 11.6877 3.86671 11.6891 3.97525C11.7659 5.932 11.7387 7.89136 11.6077 9.84533C11.5914 9.89335 11.5968 9.95739 11.5968 10.0268H11.5751Z"/>
</svg>
