<svg width="63" height="101" viewBox="0 0 63 101" fill="none" xmlns="http://www.w3.org/2000/svg">
<g clip-path="url(#clip0)">
<path d="M47.4295 86.558C47.3815 86.5094 47.3233 86.4719 47.259 86.448C47.1947 86.4242 47.1258 86.4146 47.0574 86.42C45.921 85.6215 44.3992 85.6544 42.9172 85.8877C39.7357 86.4155 36.4721 86.1708 33.4074 85.1746C30.4999 84.2545 27.7786 82.8744 25.0107 81.6224C23.8577 81.0999 21.2859 79.3221 20.2359 80.8041C20.1754 80.9157 20.1603 81.0458 20.1936 81.168C20.227 81.2901 20.3063 81.3951 20.4153 81.4614C22.8675 83.0562 25.2555 84.7354 27.5792 86.4989C23.0669 86.8735 18.7473 85.2337 14.9161 82.7889C14.4429 82.4504 13.9881 82.0873 13.5537 81.7012C12.6965 80.9389 11.992 79.7296 10.7958 79.5062C10.7112 79.4848 10.6224 79.4856 10.5381 79.5084C10.4539 79.5312 10.377 79.5751 10.3151 79.6361C10.2531 79.697 10.2082 79.7727 10.1848 79.8559C10.1613 79.9392 10.16 80.027 10.1811 80.1108C10.1451 80.2373 10.1557 80.3724 10.211 80.492C12.0385 84.6981 15.77 87.1166 19.8836 88.7071C15.4212 88.0614 11.1977 86.3054 7.60928 83.6039C7.21719 83.3114 6.82178 83.7944 6.87494 84.1625C7.34013 87.2349 10.53 88.8155 13.0952 89.9821C16.0932 91.3275 19.2713 92.2394 22.5319 92.6898L22.2262 92.7391C20.3844 92.6871 18.5533 92.4425 16.7635 92.0096C14.3047 91.4082 12.0319 90.0379 9.53649 89.6502C9.44733 89.639 9.35679 89.6468 9.27086 89.6728C9.18494 89.6989 9.10559 89.7427 9.03807 89.8013C8.55627 89.545 7.77874 90.107 8.14092 90.7083C8.17807 90.7669 8.22654 90.8177 8.28356 90.8577C8.34058 90.8977 8.40502 90.9262 8.4732 90.9416C8.50854 91.0602 8.58655 91.1619 8.6925 91.2275C12.4473 93.7873 17.1723 94.323 21.123 96.4195C18.2894 96.1387 15.4898 95.5885 12.7629 94.7764L12.6666 94.7173C12.5913 94.6761 12.5067 94.6546 12.4207 94.6546C12.3347 94.6546 12.2501 94.6761 12.1748 94.7173C12.1279 94.6829 12.0791 94.6511 12.0286 94.622C11.9626 94.5841 11.8887 94.5617 11.8126 94.5564C11.7364 94.5512 11.6601 94.5634 11.5895 94.592C11.5189 94.6206 11.4558 94.6648 11.4052 94.7213C11.3546 94.7777 11.3178 94.845 11.2976 94.9177C11.0118 96.0284 11.6298 96.7152 12.5868 97.218C13.614 97.7576 14.6829 98.2158 15.7833 98.5882C18.7844 100.003 22.0443 100.803 25.3662 100.938C30.9219 101.125 36.5341 100.747 42.0898 100.609C44.6218 100.547 47.3564 100.77 49.8618 100.396C51.6761 100.123 51.9518 98.7525 51.9884 97.1095C52.0074 95.1346 51.612 93.1773 50.8274 91.3612C50.0427 89.545 48.8857 87.9096 47.4295 86.558ZM8.53301 85.6774C8.45362 85.5618 8.38042 85.4423 8.31371 85.3192L8.64599 85.5229C8.59819 85.5663 8.55977 85.6189 8.53301 85.6774ZM46.5623 87.2875L46.3961 87.2448C46.1483 87.0821 45.8884 86.9382 45.6186 86.8143C45.9625 86.9068 46.2836 87.0678 46.5623 87.2875Z" fill="#1F1E1C"/>
<path d="M62.3885 8.63919C59.5678 9.54611 56.8059 10.6227 54.1181 11.8628C55.2245 10.9821 56.464 10.2461 57.4907 9.26354C58.966 7.85382 60.1489 6.16808 61.3219 4.5152C61.694 3.996 60.8301 3.5031 60.4613 4.019C59.2318 5.75075 57.9858 7.5055 56.3875 8.94808C55.4106 9.82217 54.2842 10.4859 53.2741 11.2976L58.4344 5.51744C58.7866 5.12312 58.3214 4.40676 57.8296 4.74522L57.4741 4.98839C57.4122 5.02902 57.3604 5.08291 57.3224 5.14605C57.2844 5.20919 57.2613 5.27997 57.2548 5.35314L52.1443 11.0676C53.8522 7.54713 55.6986 4.10335 57.6834 0.736243C57.7499 0.622946 57.7682 0.488151 57.7343 0.361511C57.7003 0.23487 57.6169 0.126759 57.5023 0.0609597C57.3878 -0.00483957 57.2515 -0.0229369 57.1234 0.0106489C56.9953 0.0442347 56.886 0.126753 56.8195 0.240049C55.3619 2.71116 53.9796 5.23046 52.6727 7.79796C53.0514 6.60184 53.4524 5.41119 53.8755 4.22603C53.9802 4.20262 54.0741 4.14529 54.1421 4.06314C54.2101 3.98098 54.2484 3.87871 54.251 3.77255L54.2875 3.00033C54.3174 2.41213 53.4934 2.37598 53.3073 2.86889C52.2684 5.67517 51.3546 8.52308 50.566 11.4126C50.4444 11.4494 50.3323 11.5115 50.2371 11.5948C50.1419 11.6782 50.066 11.7808 50.0144 11.8957C49.928 12.0501 49.8516 12.2243 49.7785 12.382C49.1139 12.7369 48.6189 13.4072 48.0972 13.9133C47.4183 14.5112 46.8317 15.2042 46.356 15.9704C43.4984 13.1706 40.0095 10.8146 36.1451 11.1563C32.7127 11.4586 29.2636 13.0031 26.1469 14.3996C26.004 14.4621 25.8611 14.5311 25.7182 14.5968C25.4059 14.3799 24.8842 14.4949 24.9407 14.955C22.0803 16.3025 19.3297 17.8669 16.7135 19.6343L15.7166 20.2915C14.8461 19.1775 13.9655 18.0669 13.0584 17.0055C12.6597 16.5356 12.3141 16.23 11.8722 16.276C11.5964 13.5321 11.3904 10.6897 10.6394 8.08385C10.6117 7.99168 10.5575 7.90946 10.4834 7.84719C10.4093 7.78493 10.3185 7.74529 10.2221 7.73311C10.1256 7.72092 10.0277 7.73672 9.94013 7.77857C9.85259 7.82042 9.77923 7.88652 9.72898 7.96884C9.63926 8.12328 9.54955 8.27772 9.45651 8.43217C9.41438 8.50694 9.39268 8.59128 9.39352 8.67687C9.39436 8.76246 9.41773 8.84636 9.46132 8.9203C9.50491 8.99425 9.56722 9.0557 9.64212 9.0986C9.71702 9.1415 9.80192 9.16437 9.88847 9.16496C10.4002 11.2943 10.6062 13.5485 10.8255 15.7601C9.35461 12.2549 8.0255 8.68848 6.83815 5.06068C6.64211 4.45934 5.6785 4.71565 5.87455 5.32357C7.05303 8.97108 8.38879 12.5638 9.88182 16.1018L4.80793 10.0686C4.39591 9.58228 3.6948 10.2822 4.1035 10.7653L8.42312 15.8915C5.31632 14.2583 2.13641 12.0731 0.996697 9.06966C0.770747 8.48146 -0.19286 8.74106 0.0330891 9.32926C1.15619 12.2867 3.95398 14.4785 6.88799 16.1642L6.71189 16.1018C5.40936 15.6845 3.59844 15.4117 2.99037 14.0217C2.74116 13.4401 1.88388 13.9429 2.12977 14.5212C2.60825 15.6352 3.62834 16.1149 4.73151 16.4928C6.41948 17.0876 8.13736 17.6167 9.84527 18.1589C9.84787 18.2478 9.86126 18.336 9.88515 18.4218C9.88515 19.4799 10.8554 20.584 11.6828 21.4778C11.9619 21.8885 12.2377 22.2894 12.4869 22.687C11.382 23.5877 10.4257 24.6531 9.65255 25.8449C8.32344 27.9973 7.80508 30.7181 7.37977 33.3536C7.15747 33.0397 6.85741 32.7876 6.50832 32.6213C6.15924 32.455 5.77282 32.3801 5.3861 32.4039C3.90413 32.5189 2.72787 33.9023 2.59828 35.3153C2.4554 36.8203 3.54527 38.0658 5.11695 37.9442C5.77906 37.9003 6.39987 37.6103 6.85477 37.1325C6.8705 37.1619 6.88944 37.1894 6.91125 37.2147C7.46948 42.9061 7.00429 48.6731 7.90809 54.3415C8.90493 60.6836 12.2045 65.7014 16.6138 70.2789C18.7437 72.4871 20.9334 74.7873 23.5916 76.3745C26.1003 77.8762 28.9579 78.6517 31.8488 79.0033C37.4975 79.7066 44.2992 79.9892 48.2168 75.2244C51.9549 70.6864 53.5632 64.7583 54.2443 59.0505C54.6829 55.3865 54.7461 51.693 54.8225 48.0061C54.8624 46.0344 55.0152 44.0628 55.1116 42.0682C57.5937 42.7484 61.4083 42.0912 60.428 38.7295C59.7635 36.4687 57.1617 34.6877 54.9787 35.7721C54.6032 33.1433 53.7393 30.5341 53.2973 27.925C52.7956 24.9676 51.9084 22.4077 50.0045 20.0385C49.4429 19.3418 48.8315 18.6025 48.1769 17.8631C48.2335 17.876 48.2921 17.8774 48.3492 17.8673C48.4063 17.8571 48.4608 17.8356 48.5092 17.804C50.267 16.7327 51.2106 14.8005 52.8986 13.6734C53.03 13.6825 53.1603 13.6443 53.2653 13.5658C53.3704 13.4872 53.4431 13.3737 53.4701 13.2462C56.4424 11.8145 59.5125 10.5902 62.6576 9.58228C63.2624 9.39498 63.0032 8.44531 62.3885 8.63919ZM6.5823 34.668C6.62882 34.967 6.67534 35.2693 6.71521 35.5716C6.61814 35.871 6.45383 36.1447 6.23459 36.3724C6.01534 36.6 5.74685 36.7756 5.44923 36.8861C5.23418 36.9718 5.00057 37.0018 4.77053 36.9732C4.54048 36.9447 4.3216 36.8585 4.13461 36.723C3.94763 36.5874 3.79872 36.4069 3.70199 36.1985C3.60525 35.9902 3.56389 35.7608 3.58182 35.5322C3.60374 35.1158 3.73875 34.7129 3.97264 34.3659C4.20654 34.019 4.53067 33.7408 4.91094 33.5606C5.60872 33.232 6.54907 33.5606 6.7285 34.2178C6.66867 34.2752 6.62404 34.3463 6.59855 34.4248C6.57305 34.5033 6.56747 34.5868 6.5823 34.668ZM51.9583 26.2195C52.6062 29.0225 53.0747 31.8518 53.7426 34.6581C54.4902 37.8029 54.0383 41.0133 53.9253 44.1877C53.8124 47.362 53.809 50.5593 53.6628 53.7435C53.3871 59.803 52.563 66.0563 49.5625 71.4487C48.0706 74.1367 46.0769 76.8247 42.9768 77.7316C40.282 78.5203 37.1154 78.3889 34.3375 78.2377C31.347 78.08 28.2801 77.5805 25.5421 76.2891C22.8041 74.9977 20.6011 72.911 18.4912 70.7948C13.6266 65.9183 9.85192 60.7296 8.81189 53.8059C7.97455 48.1408 8.43641 42.3902 7.84496 36.6988C8.38325 33.9089 8.74543 30.9646 9.63594 28.2602C10.6627 25.2074 13.291 23.272 15.8064 21.4482C16.9826 20.6201 18.1821 19.8238 19.4049 19.0592C19.797 20.3211 20.1492 21.8491 21.1361 22.7429C21.9701 23.4987 23.462 23.6564 24.1731 22.6542C24.4645 22.1842 24.5618 21.6214 24.4449 21.0824C24.328 20.5434 24.0058 20.0696 23.5451 19.7592C23.3567 19.6317 23.1337 19.5636 22.9055 19.5636C22.6772 19.5636 22.4543 19.6317 22.2658 19.7592C22.1766 19.8278 22.1043 19.9156 22.0544 20.0159C22.0046 20.1163 21.9785 20.2266 21.9782 20.3384C21.9779 20.4502 22.0033 20.5606 22.0526 20.6612C22.1018 20.7618 22.1736 20.8501 22.2625 20.9192C22.3576 21.0084 22.4837 21.0581 22.6147 21.0581C22.7458 21.0581 22.8719 21.0084 22.967 20.9192C23.0339 20.858 23.0862 20.7828 23.1198 20.699H23.1962C23.2936 20.811 23.3661 20.942 23.4089 21.0835C23.4811 21.2257 23.5187 21.3827 23.5187 21.5419C23.5187 21.701 23.4811 21.858 23.4089 22.0003C23.0168 22.6575 22.1196 22.3289 21.701 21.8721C20.9234 21.0342 20.6543 19.5916 20.3054 18.5203C21.8771 17.5838 23.4953 16.7229 25.1434 15.9276C25.6484 18.3955 27.054 22.4669 29.9348 20.8567C30.4554 20.5504 30.8367 20.0575 30.9994 19.4804C31.1621 18.9034 31.0938 18.2865 30.8087 17.758C30.287 16.8346 28.8782 16.4896 28.3864 17.6298C28.1405 18.2049 28.9978 18.7076 29.2503 18.126C29.762 18.0011 30.0212 18.1457 30.0212 18.5532C30.101 18.7162 30.1141 18.9034 30.0578 19.0757C30.0247 19.3196 29.9207 19.5488 29.7585 19.7354C29.5963 19.9221 29.3829 20.0582 29.144 20.1272C28.2435 20.3967 27.6222 19.7165 27.2467 19.0592C26.642 17.9569 26.234 16.7596 26.0405 15.5202C27.8415 14.6855 29.6834 13.9407 31.5663 13.2857C32.0282 13.1279 32.4934 12.9768 32.9552 12.8388C33.0217 15.4676 34.3375 21.6914 37.8829 19.8315C38.1769 19.6645 38.4304 19.436 38.6257 19.1619C38.8209 18.8879 38.9533 18.5749 39.0134 18.245C39.0736 17.915 39.06 17.5761 38.9738 17.2519C38.8876 16.9276 38.7308 16.626 38.5143 16.368C37.7035 15.484 36.3312 15.7108 36.2382 16.9858C36.1916 17.62 37.1918 17.6167 37.235 16.9858C38.3758 17.597 38.3548 18.287 37.1719 19.056C36.8536 19.1487 36.5124 19.1273 36.2085 18.9957C35.9046 18.8641 35.6574 18.6305 35.5105 18.3363C35.0763 17.7452 34.7399 17.0897 34.5136 16.3943C34.0733 15.1672 33.8814 13.8664 33.9488 12.566C36.3212 11.9844 38.6704 11.9088 41.0097 13.1674C41.2976 13.3251 41.5801 13.4927 41.857 13.6701C41.8316 13.7156 41.8126 13.7642 41.8005 13.8147C41.3752 15.8126 40.5744 18.0636 40.8037 20.1305C40.9333 21.2642 41.6078 22.9532 43.0133 22.9434C45.6317 22.9204 45.6051 17.9256 42.907 19.0001C42.3222 19.2334 42.5747 20.1896 43.1728 19.9498C44.5507 20.9356 44.2095 21.3617 42.1494 21.228C41.8925 20.738 41.7624 20.1928 41.7706 19.6409C41.7682 19.0159 41.8328 18.3925 41.9633 17.781C42.1793 16.6013 42.4584 15.4315 42.7109 14.2583C44.3723 15.484 45.8344 17.0186 47.2565 18.4842C49.4728 20.7549 51.2339 23.1011 51.9583 26.2195Z" fill="#1F1E1C"/>
<path d="M35.9585 36.5278C35.5731 34.324 35.1533 32.1245 34.6992 29.9294C34.2439 27.7245 33.4133 25.3881 33.7023 23.124C33.7854 22.4964 32.7886 22.503 32.7055 23.124C32.3732 25.7529 33.4066 28.5723 33.925 31.1321C34.2218 32.5933 34.502 34.0589 34.7656 35.5289C34.8886 36.2091 35.1843 37.047 35.1511 37.7338C35.4435 38.4283 35.1754 38.9507 34.347 39.3013C33.6843 39.336 33.0246 39.1905 32.4397 38.8806C31.8615 38.6178 31.3531 39.4656 31.9379 39.7317C32.9647 40.1951 35.0979 40.7997 36.0449 39.804C36.7859 39.0318 36.1114 37.4118 35.9585 36.5278Z" fill="#1F1E1C"/>
<path d="M35.3275 44.4504L35.2976 44.4011C35.2539 44.327 35.1913 44.2655 35.1161 44.2229C35.0409 44.1802 34.9556 44.1578 34.8689 44.158H34.8025C34.6949 44.1601 34.591 44.197 34.5067 44.2631H34.4303C34.2577 44.2516 34.0845 44.2516 33.912 44.2631C33.5637 44.2658 33.2162 44.2933 32.8719 44.3453C32.1847 44.4495 31.5144 44.6429 30.8783 44.9203C30.2901 45.1668 30.7952 46.0179 31.38 45.7714C32.1371 45.4503 32.9489 45.2742 33.7724 45.2522C34.2874 45.2522 34.8191 45.4231 35.2378 45.0715C35.3228 44.994 35.3781 44.8899 35.3945 44.7768C35.4108 44.6636 35.3871 44.5483 35.3275 44.4504Z" fill="#1F1E1C"/>
<path d="M25.3432 32.992L23.1668 31.2176C23.6861 30.5984 24.1073 29.9048 24.4161 29.1605C24.662 28.5756 23.6984 28.3193 23.4525 28.8976C22.6983 30.6819 21.2462 32.118 19.1595 32.0095C17.3419 31.9208 15.521 31.1321 13.956 30.2975C13.3911 29.9985 12.8861 30.8495 13.4543 31.1486C14.3595 31.6412 15.3002 32.0674 16.2687 32.4236C15.8633 33.4787 15.4019 34.512 14.8864 35.519C14.5973 36.0809 15.4546 36.5804 15.747 36.0152C16.2936 34.9452 16.7849 33.8484 17.219 32.7292C17.6321 32.8408 18.0531 32.9221 18.4783 32.9723C18.5348 33.9581 18.5813 34.9637 18.6544 35.9561C18.691 36.4752 18.8239 37.1686 19.5051 37.1095C20.1862 37.0503 20.143 36.0678 19.5051 36.1236C19.7875 36.0974 19.525 33.5671 19.4785 33.0216C19.7738 33.0134 20.0681 32.9837 20.359 32.9329C20.482 32.9099 20.6049 32.8803 20.7245 32.8507C20.72 32.8911 20.72 32.9319 20.7245 32.9723C20.9601 33.977 21.43 34.9133 22.0968 35.7063C22.5022 36.1992 23.2033 35.4993 22.8013 35.0097C22.2533 34.3392 21.871 33.5516 21.6848 32.7094C21.6684 32.6363 21.6355 32.5678 21.5884 32.509C21.9018 32.3479 22.196 32.1528 22.4657 31.9274L24.6421 33.6953C25.1305 34.0896 25.8383 33.3929 25.3432 32.992Z" fill="#1F1E1C"/>
<path d="M48.1233 25.9336L47.9937 25.858C47.9048 25.8102 47.8034 25.7899 47.7027 25.7998C47.602 25.8096 47.5067 25.8492 47.429 25.9133C47.3512 25.9774 47.2948 26.0631 47.2669 26.1593C47.2391 26.2555 47.2411 26.3577 47.2726 26.4528C46.648 27.2447 43.8302 27.1396 43.1956 27.0508C41.7489 26.8567 40.3993 26.2215 39.3345 25.2337C38.8627 24.8065 38.1549 25.5031 38.6301 25.9336C39.2525 26.4971 39.9557 26.9665 40.7168 27.3269C40.3733 28.0537 39.9257 28.7277 39.3877 29.3281C38.959 29.798 39.6601 30.4979 40.0921 30.0247C40.7246 29.3302 41.2467 28.5446 41.6405 27.6949C41.7601 27.7343 41.8798 27.7672 42.0027 27.8034C41.99 27.8396 41.9811 27.877 41.9761 27.9151C41.8668 28.7871 41.8158 29.6653 41.8233 30.5439C41.8233 30.6746 41.8758 30.8 41.9693 30.8925C42.0627 30.9849 42.1895 31.0368 42.3217 31.0368C42.4539 31.0368 42.5807 30.9849 42.6741 30.8925C42.7676 30.8 42.8201 30.6746 42.8201 30.5439C42.813 29.6994 42.8607 28.8554 42.963 28.0169C43.3269 28.0748 43.6944 28.1077 44.0628 28.1155C44.499 28.1222 44.9352 28.1013 45.3687 28.0531C45.6431 29.1091 46.0215 30.1359 46.4984 31.119C46.7776 31.6907 47.6382 31.1913 47.359 30.6228C46.9402 29.7458 46.6064 28.8314 46.3622 27.8921C47.3225 27.6719 48.1997 27.2579 48.3559 26.4922C48.3835 26.3868 48.3758 26.2753 48.3339 26.1745C48.2919 26.0738 48.218 25.9892 48.1233 25.9336Z" fill="#1F1E1C"/>
<path d="M22.1663 45.1701C21.9967 44.935 21.8066 44.7151 21.5981 44.5129C21.2641 43.9919 20.763 43.5968 20.1751 43.3906C19.5871 43.1845 18.9463 43.1793 18.355 43.376C18.1955 43.3866 18.0401 43.4315 17.8998 43.5074C17.8573 43.4473 17.8025 43.3966 17.739 43.3587C17.6754 43.3208 17.6046 43.2965 17.531 43.2872C15.7035 43.0474 16.172 46.501 16.1653 47.4704C16.1653 49.7509 16.4577 52.1103 17.634 54.1181C18.3717 55.3766 19.8868 57.2628 21.5981 56.7633C23.3093 56.2638 23.5386 53.3491 23.6615 51.9821C23.8576 49.764 23.5452 47.0366 22.1663 45.1701Z" fill="#1F1E1C"/>
<path d="M48.4 43.6388C48.2724 42.73 48.0116 41.8444 47.6258 41.0099C47.5419 40.7401 47.4386 40.4765 47.3167 40.2213C47.021 38.9759 46.4229 37.8586 45.2201 37.4183C45.0051 37.3289 44.7693 37.3005 44.5389 37.3361C44.2233 37.2247 43.8768 37.2352 43.5688 37.3655C43.2607 37.4959 43.0138 37.7366 42.8775 38.0394C42.502 38.782 42.6516 39.9223 42.6283 40.7043C42.6084 41.4306 42.5785 42.1699 42.5751 42.906C42.1498 45.5053 41.9471 48.259 44.2365 49.8527C48.0179 52.5045 48.7389 45.847 48.4 43.6388Z" fill="#1F1E1C"/>
</g>
<defs>
<clipPath id="clip0">
<rect width="63" height="101" fill="white"/>
</clipPath>
</defs>
</svg>
