<svg width="57" height="91" viewBox="0 0 57 91" fill="none" xmlns="http://www.w3.org/2000/svg">
<g opacity="0.268" clip-path="url(#clip0)">
<path d="M20.5747 42.7507C20.5741 42.7374 20.5741 42.724 20.5747 42.7107C20.5183 42.5524 20.4091 42.4187 20.2659 42.3326C20.1226 42.2464 19.9542 42.2132 19.7894 42.2385C19.6245 42.2638 19.4735 42.3461 19.3621 42.4713C19.2507 42.5965 19.1858 42.7569 19.1786 42.925C19.1748 42.9855 19.1748 43.0462 19.1786 43.1066C19.1605 43.1928 19.1605 43.2819 19.1786 43.3681C19.1998 43.4632 19.2389 43.5532 19.2937 43.6333C19.3042 43.663 19.3162 43.6921 19.3297 43.7205C19.4582 43.9511 19.6654 44.1267 19.9126 44.2144C19.9935 44.2468 20.0801 44.2625 20.1671 44.2604C20.2541 44.2583 20.3398 44.2385 20.419 44.2022C20.4983 44.1659 20.5695 44.1139 20.6284 44.0492C20.6873 43.9846 20.7327 43.9086 20.7618 43.8258C20.8271 43.6458 20.8441 43.4516 20.8113 43.2629C20.7784 43.0741 20.6968 42.8974 20.5747 42.7507Z" fill="#828282"/>
<path d="M27.0551 43.041L27.0263 43.0083C27.0173 42.8601 26.9614 42.7187 26.8668 42.6049C26.7722 42.4911 26.644 42.411 26.5009 42.3763C26.3188 42.3382 26.1292 42.3621 25.9619 42.4443C25.7946 42.5264 25.659 42.6622 25.5762 42.8303C25.4554 42.8819 25.357 42.9755 25.2988 43.0942C25.2407 43.2129 25.2268 43.3487 25.2595 43.4768C25.3064 43.6606 25.3962 43.8304 25.5214 43.972C25.6466 44.1135 25.8036 44.2227 25.9792 44.2905C26.1443 44.3465 26.3215 44.3558 26.4915 44.3174C26.6615 44.279 26.8179 44.1943 26.9435 44.0725C27.0776 43.9402 27.162 43.765 27.1823 43.5769C27.2026 43.3888 27.1577 43.1994 27.0551 43.041Z" fill="#828282"/>
<path d="M43.8482 22.218C42.909 21.0957 40.8832 20.8523 39.5554 20.6635C37.9116 20.4448 36.245 20.468 34.6078 20.7325C32.8087 20.5509 28.9874 21.6115 29.9805 23.9179C30.4626 25.0438 31.7148 25.24 32.7943 25.2836C34.9857 25.3707 37.195 25.2836 39.3899 25.309C40.6637 25.309 42.6751 25.694 43.769 24.786C44.5858 24.1068 44.485 22.9808 43.8482 22.218ZM42.2002 24.2085C41.718 24.4954 40.2823 24.2085 39.7246 24.2085L34.3955 24.1903C33.899 24.1903 30.4375 24.5027 31.7292 22.5086C31.9775 22.1454 33.1685 21.8948 33.9745 21.8258C34.0798 21.8763 34.1983 21.8916 34.3128 21.8693C34.4135 21.8475 34.5179 21.8367 34.6222 21.8185C34.7603 21.8501 34.9052 21.8253 35.0252 21.7495C36.8637 21.4792 38.735 21.5407 40.5522 21.9311C41.2142 22.0909 44.5966 22.7883 42.2002 24.2085Z" fill="#828282"/>
<path d="M16.3244 23.1587C16.3558 23.0895 16.3719 23.0142 16.3717 22.938C16.3715 22.8619 16.3549 22.7867 16.3231 22.7176C16.2913 22.6486 16.245 22.5873 16.1875 22.5381C16.1299 22.4888 16.0625 22.4527 15.9898 22.4323C14.349 21.9529 12.6254 21.8003 10.9523 21.4298C9.66048 21.1429 8.32552 20.8669 6.99417 21.132C5.4901 21.4298 3.03608 23.1805 5.31738 24.4009C6.55158 25.0765 8.31113 25.0075 9.65688 25.0874C11.3445 25.1928 13.2551 25.5669 14.9427 25.3744C16.1122 25.2581 17.0801 23.838 16.3244 23.1587ZM13.6797 24.2484L12.3448 24.1685L10.3369 24.0486C9.57052 24.0014 8.80049 23.9724 8.03406 23.8997C7.55001 23.8635 7.06906 23.7932 6.59476 23.689C5.67361 22.9118 5.73957 22.4456 6.79266 22.2907C8.3687 21.7894 10.0311 22.3524 11.5676 22.6539C12.6902 22.8827 13.8273 23.0171 14.9427 23.2604C14.9188 23.3243 14.9095 23.3927 14.9155 23.4607C14.9214 23.5287 14.9424 23.5944 14.977 23.653C15.0116 23.7117 15.0588 23.7617 15.1152 23.7994C15.1715 23.837 15.2356 23.8614 15.3025 23.8706C15.0782 24.0565 14.8145 24.1878 14.5319 24.2545C14.2493 24.3213 13.9553 24.3217 13.6725 24.2557L13.6797 24.2484Z" fill="#828282"/>
<path d="M13.9574 27.8986V27.8442C13.9423 27.7677 13.9095 27.6959 13.8616 27.6346C13.8138 27.5734 13.7522 27.5245 13.682 27.4919C13.6118 27.4593 13.535 27.4439 13.4577 27.4471C13.3805 27.4502 13.3052 27.4718 13.2378 27.51C12.9823 27.4591 12.2735 26.8635 12.0971 26.7836C11.6584 26.5995 11.1802 26.532 10.7082 26.5874C9.54544 26.7459 8.40142 27.0221 7.29347 27.4119C6.63139 27.619 6.91206 28.6687 7.58133 28.4616C8.0563 28.3163 8.66081 28.0984 9.3049 27.9168C9.22805 28.1158 9.2072 28.3324 9.24467 28.5427C9.28213 28.7529 9.37645 28.9486 9.51719 29.1081C10.0641 29.6857 10.9565 29.3769 11.3559 28.7885C11.5513 28.4847 11.6199 28.1152 11.5466 27.7606L11.6725 27.8006C12.2267 28.0294 12.9319 28.8321 13.594 28.5633C13.7263 28.519 13.8372 28.4259 13.9046 28.3027C13.9719 28.1796 13.9908 28.0353 13.9574 27.8986Z" fill="#828282"/>
<path d="M39.8899 28.4254C38.8104 27.906 37.7309 27.3829 36.5147 27.2776C35.1834 27.1577 34.2766 27.7861 33.0856 28.2401C32.4451 28.4871 32.7258 29.5404 33.3735 29.2898C34.0931 29.0174 34.7624 28.5961 35.5036 28.4254C35.435 28.5879 35.3997 28.7627 35.3997 28.9393C35.3997 29.116 35.435 29.2908 35.5036 29.4533C35.6181 29.6883 35.8069 29.878 36.0402 29.9925C36.2736 30.107 36.538 30.1396 36.7918 30.0853C37.0318 30.0394 37.2492 29.9128 37.4087 29.7261C37.5682 29.5394 37.6602 29.3037 37.6698 29.0574C37.6747 28.9114 37.6514 28.7658 37.6014 28.6288C38.1991 28.8413 38.7821 29.0937 39.3466 29.3843C39.9691 29.6712 40.516 28.7305 39.8899 28.4254Z" fill="#828282"/>
<path d="M25.5795 55.147C24.1618 53.7813 15.7922 53.4907 15.7958 56.0587C15.436 56.3056 15.4072 56.9304 15.9254 57.0212C16.0405 57.043 16.1557 57.072 16.2852 57.1011C16.3398 57.1251 16.3984 57.1386 16.4579 57.141C17.6058 57.457 18.6169 58.0709 19.8583 58.2307C21.1577 58.3335 22.4648 58.2688 23.748 58.0382C25.1261 57.8384 27.2563 56.7633 25.5795 55.147ZM18.1167 56.6289C17.7209 56.4691 17.3287 56.2947 16.9221 56.1604C16.9221 55.8516 17.4762 55.6519 18.1779 55.5247C18.1773 55.8936 18.1569 56.2622 18.1167 56.6289ZM19.3761 57.043L19.1494 56.9885C19.2231 56.459 19.2592 55.925 19.2574 55.3903C20.1389 55.3104 20.9737 55.3032 21.168 55.3032C21.2012 55.9527 21.1565 56.604 21.0349 57.2427C20.4782 57.2138 19.924 57.1471 19.3761 57.043ZM24.0718 56.9013C23.4586 57.1657 22.7951 57.2897 22.1288 57.2645C22.2373 56.6169 22.2759 55.9592 22.2439 55.3032C22.7692 55.2771 23.2945 55.3536 23.7912 55.5284C24.2445 55.4957 24.4496 55.7281 24.4101 56.2185C24.7663 56.7342 24.6511 56.9631 24.0718 56.9013Z" fill="#828282"/>
<path d="M56.5643 29.965C56.0498 27.9565 55.215 26.0532 54.6213 24.0664C54.0276 22.0796 53.844 20.0057 52.9121 18.1388C51.9298 16.1774 50.4689 14.4485 49.1807 12.6905C47.655 10.6057 46.1438 8.50628 44.6037 6.42869C42.2828 3.30504 39.5805 1.22381 35.7484 0.44653C32.089 -0.2799 28.2244 -0.0147533 24.5614 0.555495C20.4738 1.19112 16.5733 2.56044 13.2557 5.10295C10.2332 7.42027 7.78994 10.4567 5.75693 13.6821C3.53321 17.2416 2.55808 20.9464 2.38896 25.1379C2.21984 29.3294 2.06871 34.182 2.9215 38.6132C2.83394 38.6339 2.75384 38.6788 2.69025 38.743C2.62667 38.8072 2.58213 38.888 2.56168 38.9764C2.39975 39.6266 2.24143 40.2767 2.0903 40.9342C2.03934 41.0566 2.00894 41.1867 2.00035 41.3192C0.995065 45.5926 0.334423 49.9412 0.024904 54.3223C-0.119026 56.6142 0.337952 58.0343 1.38145 59.9993C2.07591 61.3069 1.64052 62.6762 1.4858 64.0601C1.33896 65.3806 1.26568 66.7085 1.2663 68.0373C1.27705 70.415 1.51808 72.786 1.98595 75.1164C2.34578 77.0123 2.73799 79.3696 3.87504 80.9895C4.74942 82.239 6.15633 82.7766 7.63162 82.8637C9.16448 82.9545 10.2116 82.1664 11.1795 83.9207C11.856 85.152 11.9891 87.0843 12.0863 88.4173C12.1115 88.7333 12.4209 89.0856 12.7699 88.944C14.5403 88.2175 15.5334 86.7392 16.9331 85.5188C19.8117 83.0163 22.0966 86.1908 24.3779 87.8979C26.4397 89.4379 28.8218 90.6111 31.3909 90.8981C32.7583 91.0506 34.892 91.2613 35.3742 89.6813C35.6764 88.6824 33.2152 88.1776 36.6732 87.4802C37.1805 87.3785 37.8066 87.5928 38.3212 87.611C39.3304 87.6581 40.3312 87.4056 41.1998 86.8845C43.0637 85.7658 44.2151 83.7318 45.1938 81.8504C47.9969 76.4711 50.5013 70.8231 51.7427 64.8483C53.0416 58.5937 52.5811 52.1357 53.4734 45.8376C53.8692 43.0372 54.5025 39.8627 54.5961 36.7572C57.6366 36.394 57.1472 32.2351 56.5643 29.965ZM28.5483 58.0053C27.5048 61.5793 22.5644 60.4751 19.8513 59.9921C17.6132 59.5998 10.5786 57.7111 14.274 54.3513C16.5769 52.2556 19.9629 52.4699 22.8451 52.6696C23.6834 52.9057 24.6262 52.9965 25.2271 53.1309C26.2927 53.3972 27.2666 53.9509 28.0445 54.7327C28.3847 55.1963 28.6082 55.7363 28.696 56.3063C28.7837 56.8764 28.733 57.4594 28.5483 58.0053ZM49.9507 38.0502C49.2994 37.6434 49.9004 36.5974 50.5552 37.0114C51.4656 37.578 51.5807 35.86 51.6095 35.2716C51.6464 34.7147 51.6015 34.1554 51.4764 33.6117C51.4273 33.417 51.3573 33.2282 51.2677 33.0487C51.2669 33.0403 51.2669 33.0318 51.2677 33.0233C50.548 33.2994 50.2422 32.1334 50.951 31.861C53.5778 30.8513 53.7109 40.393 49.9507 38.0502ZM54.5853 35.6566C54.5529 33.4773 54.2003 31.338 53.2395 29.4348C52.5487 28.0654 51.1957 27.3717 49.8572 28.3742C48.1048 29.6854 47.4715 32.5766 46.6367 34.4943C45.4658 37.2583 44.1543 39.9594 42.7074 42.5868C42.0526 43.7491 41.3545 44.8896 40.6025 45.9901C39.7497 47.2396 38.6918 49.0048 37.4612 49.9383C35.9499 51.0897 35.0431 50.5557 33.8089 49.575L31.7579 47.9297C30.8512 47.2033 29.8796 46.1899 28.7606 45.8121C28.3097 45.6552 27.8263 45.6185 27.3572 45.7057C26.8882 45.7928 26.4494 46.0009 26.0835 46.3097C25.6229 46.6475 25.2055 47.2178 24.691 47.4648C23.6115 47.9842 22.7767 47.3304 21.9167 46.7565C20.1679 45.5906 18.6171 45.5325 16.728 46.455C14.6842 47.4466 12.4929 49.7603 10.0748 48.8886L9.99208 48.8668C3.7563 44.3774 3.38568 36.0743 3.41806 29.057C3.43965 25.1306 3.41806 21.0663 4.9941 17.4051C6.37804 14.3734 8.23563 11.5859 10.4958 9.14917C15.6917 3.40674 22.6687 1.31825 30.2251 1.12211C33.5535 1.03494 37.0906 1.39452 39.9692 3.22513C43.24 5.30272 45.3665 9.29809 47.6263 12.3782C48.8856 14.0998 50.2422 15.7851 51.3684 17.5976C52.4479 19.3555 52.7862 21.1861 53.2611 23.1584C53.6929 24.9745 58.09 34.8685 54.5853 35.6566Z" fill="#828282"/>
</g>
<defs>
<clipPath id="clip0">
<rect width="57" height="91" fill="white"/>
</clipPath>
</defs>
</svg>
