<svg width="58" height="79" viewBox="0 0 58 79" fill="none" xmlns="http://www.w3.org/2000/svg">
<g clip-path="url(#clip0)">
<path d="M24.3789 26.5641C24.4497 26.3188 24.4669 26.0609 24.4294 25.8082C24.4294 25.8082 24.4294 25.7859 24.4294 25.7763C24.4341 25.685 24.4073 25.5948 24.3536 25.5212C24.2129 25.1395 23.9473 24.8176 23.6008 24.6088C23.2544 24.4001 22.8477 24.3169 22.448 24.373C22.0484 24.4292 21.6797 24.6213 21.4028 24.9176C21.126 25.214 20.9576 25.5968 20.9255 26.0028C20.8995 26.3714 20.9843 26.7393 21.1688 27.0585C21.2213 27.263 21.3209 27.452 21.4597 27.6102C21.5984 27.7684 21.7722 27.8912 21.9669 27.9687C22.1616 28.0461 22.3717 28.076 22.58 28.0558C22.7884 28.0356 22.989 27.966 23.1656 27.8526C23.7912 27.69 24.3441 27.2403 24.3789 26.5641Z" fill="#1F1E1C"/>
<path d="M44.2087 25.2183H44.1834C44.1497 25.2166 44.116 25.2166 44.0823 25.2183C43.77 25.27 43.4826 25.4221 43.2629 25.652C43.0431 25.8819 42.9028 26.1772 42.8627 26.4941C42.8499 26.5603 42.8435 26.6276 42.8438 26.695C42.8444 26.7963 42.8582 26.8971 42.8848 26.9948C42.8848 27.0139 42.8848 27.0299 42.8848 27.049L42.9133 27.1383C42.9933 27.3808 43.1456 27.5925 43.3493 27.7443L43.384 27.7698L43.4283 27.8017C43.5119 27.8586 43.6035 27.9027 43.7 27.9325C43.926 27.9986 44.1632 28.0171 44.3966 27.9868C44.6301 27.9565 44.8548 27.878 45.0569 27.7563C45.2591 27.6345 45.4342 27.4721 45.5715 27.2791C45.7087 27.0861 45.8052 26.8667 45.8548 26.6344C45.8778 26.4204 45.8487 26.204 45.7699 26.004C45.6911 25.804 45.5651 25.6264 45.4028 25.4868C45.2405 25.3472 45.0469 25.2498 44.8388 25.203C44.6306 25.1562 44.4143 25.1615 44.2087 25.2183Z" fill="#1F1E1C"/>
<path d="M57.7946 29.6613C57.0964 27.7891 54.7362 26.7909 53.3017 28.2867C53.2575 28.0953 53.2133 27.9072 53.1659 27.7158C52.3795 24.2055 51.3361 20.759 50.0442 17.4046C47.5387 11.195 43.5166 5.78906 37.5071 2.70178C26.0284 -3.21126 11.6556 0.896614 5.109 12.1709C3.02686 15.7526 1.94945 19.8509 1.15956 23.8981C0.393192 27.8024 0.00484423 31.7727 0 35.7529C0 43.216 1.56082 50.6567 5.01106 57.2619C4.56485 58.0382 4.41645 58.953 4.594 59.8325C4.86256 61.1784 5.81359 62.2372 7.01106 63.0952C8.32 64.6142 9.73034 66.041 11.2322 67.3657C12.2591 68.2778 13.7378 70.032 15.2796 69.4643C15.5233 69.3716 15.7474 69.233 15.94 69.056C18.1232 71.33 20.316 73.6519 22.7962 75.5527C27.564 79.2045 33.9747 79.97 39.5419 77.7853C45.861 75.304 49.0679 69.4196 51.1564 63.2355C53.684 55.7756 55.6019 47.8437 55.1943 39.9055C55.0508 37.4207 54.7341 34.9492 54.2464 32.5094C54.8784 33.093 56.3539 32.908 56.9826 32.5508C58.0442 31.9417 58.2022 30.7393 57.7946 29.6613ZM52.0821 56.8951C50.3602 63.3025 48.316 70.9505 42.6825 75.0169C37.3365 78.876 29.6588 79.1631 24.1864 75.4092C21.387 73.4956 18.9889 70.9027 16.6035 68.4086C17.9726 65.9273 19.3892 63.4821 20.8531 61.0731C21.5735 59.8909 22.3107 58.7215 23.0648 57.5648L23.545 56.8153C24.3876 56.9876 24.6372 57.3788 24.2938 57.989C24.2752 58.2979 24.2036 58.6011 24.0821 58.8852C23.9799 58.9672 23.8981 59.0722 23.8432 59.1919C23.7884 59.3115 23.762 59.4424 23.7662 59.5741C23.5987 59.8931 23.4218 60.212 23.2859 60.4767C23.2457 60.5496 23.2247 60.6318 23.2251 60.7153C23.2255 60.7987 23.2473 60.8807 23.2883 60.9532C23.3293 61.0257 23.3881 61.0863 23.4591 61.1291C23.5301 61.1719 23.6108 61.1954 23.6935 61.1975C25.94 61.4622 27.4313 59.3254 27.8673 57.3288C28.2069 55.7321 28.1296 54.0736 27.643 52.5161C27.9905 53.154 28.4044 53.7918 28.8404 54.0534C28.9289 54.13 29.04 54.1748 29.1564 54.181C29.3108 54.2018 29.4679 54.1771 29.6086 54.1098C29.7494 54.0424 29.8678 53.9353 29.9494 53.8014C30.6919 52.8638 30.3254 51.4317 29.6998 50.2708C29.6016 49.9652 29.4802 49.6677 29.3365 49.381C29.5333 49.6005 29.7574 49.7935 30.0032 49.9551C31.3807 50.829 32.2433 49.448 32.1011 48.185C31.8799 46.2267 30.3507 43.5796 28.376 42.4665C29.9637 41.2433 31.4379 39.8769 32.7804 38.3841C33.3724 37.7749 33.9254 37.1283 34.436 36.4482C35.3839 37.0861 36.3823 37.9887 37.466 38.381C37.5469 38.4043 37.6325 38.4051 37.7137 38.3832C37.795 38.3613 37.8688 38.3175 37.9273 38.2566C38.7425 37.3604 38.0095 35.7657 37.8167 34.7068C37.425 32.5615 37.0321 30.414 36.6382 28.2644C35.8715 24.0736 35.1048 19.8806 34.3381 15.6856C34.2275 15.0828 33.3144 15.338 33.4218 15.9407L35.6114 27.9072C35.9695 29.8505 36.3254 31.7928 36.6793 33.7341C36.7457 34.0913 37.4629 36.5279 37.2385 36.8022C36.831 37.3125 35.3997 35.9571 34.91 35.619C35.0825 35.2871 35.1745 34.9185 35.1784 34.5437C35.1822 34.1688 35.0978 33.7984 34.9321 33.463C34.8676 33.3539 34.7632 33.2748 34.6415 33.2426C34.5198 33.2104 34.3904 33.2277 34.2812 33.2908L25.7188 39.0316C23.2196 40.7092 20.5561 42.3166 18.5656 44.6225C16.575 46.9284 15.1438 49.7541 13.0806 52.0473C13.0363 52.0983 12.9889 52.143 12.9447 52.1908C12.1137 52.9722 11.2638 53.7313 10.3918 54.4552C9.37125 55.3004 8.58136 55.7565 7.26382 55.9415C6.69806 55.9854 6.15349 56.1778 5.68404 56.4996C-0.183254 45.002 -0.290679 30.8828 3.39968 18.6676C5.31754 12.3208 9.22591 7.01696 15.0269 3.77659C17.4873 2.41002 20.1735 1.50655 22.9542 1.1103C22.9641 1.15794 22.9846 1.20267 23.0142 1.24106C23.397 3.36135 23.6083 5.50954 23.6461 7.6644C23.684 8.64671 23.9621 9.53016 25.0205 9.70239C25.5134 9.78212 25.8894 9.10917 25.3839 8.82851L24.8025 8.23529C24.7725 8.17341 24.7294 8.11896 24.6761 8.07582C24.3602 7.00101 24.5087 5.02681 24.455 4.43997C24.3403 3.28118 24.1653 2.12929 23.9305 0.989104C24.5087 0.928507 25.0932 0.899803 25.6746 0.887045C25.7152 0.956874 25.7728 1.01506 25.842 1.05608C28.2085 2.4881 26.1769 6.63105 27.1058 8.76472C27.5513 9.7885 28.7235 10.0819 29.4218 9.15382C29.7915 8.66266 28.9668 8.19702 28.6035 8.66904C27.8799 9.62584 27.8799 6.75543 27.8799 6.90852C27.8799 6.51304 27.8799 6.11757 27.8799 5.72209C27.9097 4.77098 27.8844 3.81894 27.8041 2.87082C27.7502 2.15544 27.4972 1.46999 27.0742 0.893424C27.8231 0.922128 28.575 0.985915 29.3207 1.08478C29.2876 1.18123 29.2908 1.28662 29.3299 1.38078C29.369 1.47494 29.4411 1.55124 29.5324 1.59508C30.9921 2.37966 31.2986 4.02217 31.3333 5.55305C31.3554 6.73311 30.8468 8.21934 31.1374 9.35156C31.4534 10.5508 33.0679 10.892 33.3491 9.5174C33.4724 8.91781 32.5592 8.65947 32.436 9.26226C32.2866 9.19599 32.1668 9.07621 32.0997 8.92602C32.0326 8.77584 32.023 8.6059 32.0727 8.44898C32.1043 8.18745 32.1359 7.92592 32.1706 7.6644C32.2243 7.13816 32.2622 6.61191 32.2749 6.06973C32.2977 5.33977 32.2426 4.60946 32.1106 3.89141C31.9563 2.90591 31.4882 1.99795 30.7773 1.30485C31.5591 1.46737 32.3322 1.6707 33.0932 1.91401C33.3396 1.99056 33.5829 2.07986 33.8262 2.16278V3.0239C33.8259 3.09281 33.8407 3.16094 33.8696 3.22337C33.8985 3.28579 33.9408 3.34096 33.9934 3.3849C34.046 3.42884 34.1076 3.46044 34.1738 3.47743C34.2399 3.49443 34.309 3.49639 34.376 3.48317C34.7075 4.7764 34.8825 6.10541 34.8973 7.44114C34.9415 8.39795 35.0521 9.41854 35.8452 10.0436C36.5719 10.6113 38.5782 10.4615 37.861 9.17296C37.564 8.63715 36.7457 9.11874 37.0427 9.65455C36.2001 9.2293 35.8009 8.57336 35.8452 7.68672C35.8452 7.34227 35.8231 6.99782 35.8136 6.65338C35.7851 6.08886 35.7472 5.52754 35.6714 4.96621C35.566 4.17242 35.3709 3.39341 35.09 2.64437C40.4834 4.87691 44.7615 8.97841 47.5261 14.2185C50.7014 20.24 52.3349 27.2948 53.5292 33.9573C54.9005 41.7042 54.1137 49.3236 52.0821 56.8791V56.8951Z" fill="#1F1E1C"/>
<path d="M38.0444 42.3322C36.5628 41.723 34.959 41.4781 33.3651 41.6177C32.7617 41.6688 32.7553 42.6256 33.3651 42.5745C34.8722 42.4414 36.3889 42.6744 37.7885 43.2539C38.3572 43.4835 38.6037 42.5586 38.0444 42.3322Z" fill="#1F1E1C"/>
<path d="M10.338 36.0397C8.73293 36.8498 6.1958 36.9327 5.59865 34.8022C4.94778 32.4995 7.45647 32.1168 9.03625 32.7706C9.59865 33.0066 9.84509 32.0817 9.28585 31.8489C7.07416 30.9304 4.03467 31.9191 4.6255 34.8118C5.22898 37.7588 8.58443 38.0012 10.8214 36.8657C11.3743 36.5723 10.8814 35.7495 10.338 36.0397Z" fill="#1F1E1C"/>
</g>
<defs>
<clipPath id="clip0">
<rect width="58" height="79" fill="white"/>
</clipPath>
</defs>
</svg>
