<svg width="67" height="73" viewBox="0 0 67 73" fill="none" xmlns="http://www.w3.org/2000/svg">
<g clip-path="url(#clip0)">
<path d="M44.4609 45.6843C44.3325 45.6868 44.21 45.739 44.1191 45.8298C44.0283 45.9207 43.9761 46.0432 43.9736 46.1716V46.9286C43.9736 47.0579 44.025 47.1818 44.1164 47.2732C44.2077 47.3646 44.3317 47.4159 44.4609 47.4159C44.5902 47.4159 44.7141 47.3646 44.8055 47.2732C44.8969 47.1818 44.9482 47.0579 44.9482 46.9286V46.1716C44.9465 46.0429 44.8947 45.9199 44.8036 45.8289C44.7126 45.7379 44.5896 45.686 44.4609 45.6843Z" fill="#1F1E1C"/>
<path d="M48.9088 45.8077C48.7839 45.7755 48.6514 45.7931 48.5393 45.8568C48.4271 45.9204 48.3441 46.0252 48.3077 46.1489C48.272 46.4023 48.2363 46.6524 48.1973 46.9058C48.166 47.0285 48.182 47.1585 48.2422 47.2699C48.3024 47.3813 48.4024 47.4659 48.5222 47.5069C48.6445 47.5405 48.7751 47.5255 48.8865 47.4649C48.998 47.4043 49.0816 47.3029 49.1199 47.182C49.1589 46.9286 49.1946 46.6752 49.2336 46.425C49.2696 46.3001 49.2559 46.1661 49.1954 46.051C49.1348 45.936 49.0321 45.8488 48.9088 45.8077Z" fill="#1F1E1C"/>
<path d="M53.1836 46.1587C53.1836 46.1587 53.1836 46.1587 53.1836 46.1944C53.1836 46.1944 53.1868 46.1717 53.1836 46.1587Z" fill="#1F1E1C"/>
<path d="M54.1292 45.9343C54.0916 45.8176 54.0114 45.7194 53.9046 45.6592C53.7978 45.599 53.6722 45.5813 53.5529 45.6096C53.4337 45.6379 53.3294 45.7101 53.261 45.8118C53.1926 45.9136 53.165 46.0374 53.1838 46.1585V46.1845C53.1076 46.2807 53.0707 46.4022 53.0807 46.5245C53.0907 46.6469 53.1467 46.7608 53.2375 46.8434C53.3284 46.926 53.4471 46.9709 53.5698 46.9692C53.6926 46.9675 53.8101 46.9193 53.8985 46.8343C54.0071 46.7142 54.0849 46.5696 54.125 46.4128C54.1652 46.256 54.1666 46.0918 54.1292 45.9343Z" fill="#1F1E1C"/>
<path d="M46.7315 52.8737L46.5495 52.107C46.5151 51.9821 46.4324 51.8759 46.3197 51.812C46.207 51.748 46.0735 51.7314 45.9485 51.7659C45.8236 51.8004 45.7175 51.883 45.6535 51.9957C45.5896 52.1085 45.573 52.242 45.6074 52.3669L45.7926 53.1336C45.8309 53.2545 45.9146 53.3559 46.026 53.4165C46.1375 53.4771 46.2681 53.4921 46.3904 53.4585C46.5106 53.4221 46.6126 53.3416 46.6759 53.2332C46.7391 53.1247 46.759 52.9963 46.7315 52.8737Z" fill="#1F1E1C"/>
<path d="M51.0525 51.3308C50.924 51.3333 50.8015 51.3855 50.7107 51.4763C50.6198 51.5672 50.5677 51.6897 50.5652 51.8181L50.458 52.9C50.458 53.0292 50.5093 53.1532 50.6007 53.2446C50.6921 53.3359 50.8161 53.3873 50.9453 53.3873C51.0735 53.384 51.1955 53.3316 51.2862 53.2409C51.3769 53.1502 51.4293 53.0282 51.4326 52.9L51.5398 51.8181C51.5381 51.6894 51.4862 51.5664 51.3952 51.4754C51.3042 51.3844 51.1812 51.3325 51.0525 51.3308Z" fill="#1F1E1C"/>
<path d="M13.5634 46.6946C13.5203 46.5693 13.5114 46.4347 13.5374 46.3048C13.5567 46.2425 13.5632 46.1769 13.5567 46.1121C13.5501 46.0472 13.5307 45.9843 13.4994 45.927C13.4681 45.8698 13.4256 45.8195 13.3745 45.779C13.3234 45.7385 13.2647 45.7086 13.2018 45.6912C13.139 45.6739 13.0733 45.6692 13.0086 45.6777C12.944 45.6862 12.8817 45.7075 12.8254 45.7405C12.7692 45.7735 12.7201 45.8174 12.6811 45.8697C12.6422 45.922 12.6141 45.9815 12.5986 46.0449C12.5085 46.429 12.552 46.8324 12.722 47.1884C12.7875 47.3 12.8946 47.381 13.0198 47.4136C13.145 47.4462 13.278 47.4277 13.3896 47.3623C13.5012 47.2968 13.5822 47.1896 13.6148 47.0644C13.6474 46.9392 13.6289 46.8062 13.5634 46.6946Z" fill="#1F1E1C"/>
<path d="M18.42 46.9026C18.3453 46.685 18.2673 46.4706 18.1926 46.2529C18.1516 46.1331 18.067 46.0331 17.9556 45.9729C17.8442 45.9127 17.7142 45.8967 17.5916 45.928C17.4704 45.967 17.369 46.0513 17.3084 46.1633C17.2479 46.2753 17.2329 46.4063 17.2667 46.529L17.4941 47.1788C17.5305 47.3025 17.6135 47.4072 17.7256 47.4709C17.8378 47.5345 17.9703 47.5521 18.0951 47.5199C18.1572 47.501 18.2149 47.47 18.2649 47.4287C18.3149 47.3873 18.3562 47.3365 18.3864 47.2791C18.4166 47.2217 18.4351 47.1588 18.4409 47.0942C18.4466 47.0296 18.4395 46.9645 18.42 46.9026Z" fill="#1F1E1C"/>
<path d="M24.04 45.6292V46.7143C24.04 46.8435 24.0914 46.9675 24.1828 47.0588C24.2742 47.1502 24.3981 47.2016 24.5273 47.2016C24.6566 47.2016 24.7805 47.1502 24.8719 47.0588C24.9633 46.9675 25.0146 46.8435 25.0146 46.7143V45.6292C25.0146 45.4999 24.9633 45.376 24.8719 45.2846C24.7805 45.1932 24.6566 45.1418 24.5273 45.1418C24.3981 45.1418 24.2742 45.1932 24.1828 45.2846C24.0914 45.376 24.04 45.4999 24.04 45.6292Z" fill="#1F1E1C"/>
<path d="M16.7731 51.9806L16.7179 51.9286L16.6984 51.8961V51.8539V51.8051C16.6984 51.777 16.6984 51.7705 16.6984 51.7856V51.8019C16.7592 51.6893 16.7749 51.5579 16.7423 51.4342C16.7098 51.3105 16.6313 51.2038 16.523 51.1359C16.4127 51.0767 16.2841 51.062 16.1633 51.0946C16.0425 51.1272 15.9388 51.2047 15.8733 51.3113C15.7651 51.5322 15.7299 51.7818 15.7725 52.024C15.8151 52.2663 15.9334 52.4888 16.1104 52.6596C16.203 52.7485 16.3264 52.7982 16.4548 52.7982C16.5831 52.7982 16.7065 52.7485 16.7991 52.6596C16.8833 52.5649 16.9275 52.4414 16.9227 52.3148C16.9179 52.1883 16.8643 52.0685 16.7731 51.9806Z" fill="#1F1E1C"/>
<path d="M21.1787 50.356C21.0502 50.3585 20.9277 50.4106 20.8369 50.5015C20.746 50.5923 20.6939 50.7148 20.6914 50.8433V51.6035C20.6914 51.7327 20.7427 51.8567 20.8341 51.9481C20.9255 52.0395 21.0495 52.0908 21.1787 52.0908C21.3079 52.0908 21.4319 52.0395 21.5233 51.9481C21.6147 51.8567 21.666 51.7327 21.666 51.6035V50.8433C21.6643 50.7146 21.6124 50.5916 21.5214 50.5005C21.4304 50.4095 21.3074 50.3576 21.1787 50.356Z" fill="#1F1E1C"/>
<path d="M25.0994 36.7112C24.0079 34.9406 22.1301 34.0797 20.0802 34.0927C18.8782 34.0927 15.4802 34.3721 15.5159 36.1946C15.5451 37.793 18.8977 38.8099 20.103 39.1575C22.1074 39.7423 23.5563 39.2355 24.4692 37.3934C24.846 37.5526 25.3723 37.1433 25.0994 36.7112ZM17.189 36.1719C17.2637 35.3727 17.7185 35.4312 18.4104 35.2785C18.9439 35.1567 19.4879 35.0871 20.0348 35.0706C19.7124 35.2801 19.469 35.591 19.3428 35.9542C19.1038 36.5694 19.1143 37.2536 19.372 37.8613C19.0049 37.7151 18.6378 37.5364 18.2837 37.3739C17.608 37.0361 17.1142 36.9776 17.189 36.1621V36.1719ZM23.7155 36.7307C23.3354 37.5559 22.9943 38.3226 21.8118 38.459C21.6187 38.4758 21.4243 38.4671 21.2335 38.433C21.8248 38.0854 21.8573 37.1823 21.6818 36.6007V36.5585C21.7407 36.1057 21.6895 35.6454 21.5324 35.2168C22.4126 35.4344 23.2058 35.9149 23.8064 36.5942C23.7678 36.6336 23.7369 36.6799 23.7155 36.7307Z" fill="#1F1E1C"/>
<path d="M50.3544 35.6132C50.062 34.2812 48.0186 34.4014 46.9596 34.5801C46.3512 34.6655 45.7702 34.888 45.2604 35.2307C44.7505 35.5735 44.3251 36.0275 44.0163 36.5586C43.9109 36.6545 43.8459 36.7869 43.8344 36.9289C43.7889 37.0361 43.7369 37.1401 43.6979 37.2538C43.5225 37.7931 44.2795 38.053 44.5653 37.6502C45.7966 38.3584 47.1643 38.9497 48.5937 38.4721C49.8054 38.066 50.65 36.9127 50.3544 35.6132ZM46.6412 35.6489C46.7549 35.6164 46.9141 35.5807 47.0928 35.5482C47.071 35.5729 47.0525 35.6001 47.0376 35.6294C46.7082 36.1918 46.5777 36.8487 46.6672 37.4942C46.0938 37.311 45.54 37.0716 45.0136 36.7795C45.4177 36.2287 45.9957 35.8304 46.6542 35.6489H46.6412ZM49.3831 36.5001C49.3365 36.7137 49.2445 36.9148 49.1133 37.0897C48.9822 37.2646 48.8149 37.4092 48.6229 37.5137C48.6486 37.3548 48.6552 37.1934 48.6424 37.0329C48.6122 36.7213 48.5139 36.4201 48.3545 36.1506C48.195 35.8811 47.9784 35.65 47.7198 35.4735C48.6326 35.4118 49.6527 35.5677 49.3961 36.5001H49.3831Z" fill="#1F1E1C"/>
<path d="M63.5111 34.8529L63.6801 34.8041C64.2811 34.6287 64.0244 33.6866 63.4202 33.8652L61.0746 34.5507C61.1071 33.745 61.1006 33.0076 61.1396 32.5592C61.2646 30.5705 61.579 28.5982 62.0785 26.6692C62.5658 24.9538 63.222 23.2872 63.5956 21.5394C64.307 18.2224 63.5144 15.0646 62.5625 11.884C61.7504 9.1648 60.5159 6.92964 58.0599 5.38647C55.3895 3.7101 52.1896 3.28776 49.0904 3.4372C47.3296 3.51842 45.5721 3.96351 43.8146 4.00249C41.7615 4.04473 40.2833 2.9239 38.5388 1.9915C35.9038 0.576882 32.9376 -0.105224 29.9494 0.0162429C26.639 0.159189 23.5821 1.50418 20.4666 2.48531C17.218 3.51193 14.2779 4.61976 12.1371 7.41695C11.0753 8.82593 10.1104 10.3054 9.24905 11.845C7.2024 13.5247 6.03614 15.8215 6.06538 18.3686C5.91269 18.8851 5.773 19.4017 5.65605 19.9247C5.36692 20.6362 5.0518 21.338 4.6977 22.0267C4.11294 23.154 3.28779 24.2001 2.79724 25.3697C1.84539 27.6438 3.50869 29.2455 4.11944 31.3247C4.28473 31.9044 4.3614 32.5057 4.34684 33.1083C3.69711 32.8744 3.01815 32.7022 2.55034 32.8029C2.46216 32.7919 2.37278 32.8097 2.29552 32.8536C2.21825 32.8975 2.15723 32.9652 2.12152 33.0466C2.04434 33.1563 1.99016 33.2805 1.96225 33.4117C1.93433 33.5429 1.93326 33.6784 1.95909 33.81C2.01432 34.3136 2.79724 34.5247 2.93368 33.94L2.95967 33.81C3.40716 33.9236 3.84848 34.0602 4.28187 34.2194C4.17142 35.1583 3.95701 36.1004 3.86929 37.0425C2.44314 36.6462 1.22165 37.5688 0.594661 38.8749C-0.279224 40.7039 -0.0875538 42.8189 0.701866 44.6317C2.09553 47.8447 4.86988 50.8044 8.45638 49.4464C8.77381 51.8598 9.39602 54.2231 10.3081 56.48C12.3912 61.4704 15.9316 65.716 20.4665 68.6617C25.0013 71.6073 30.3194 73.116 35.7255 72.9902C39.5686 72.8928 42.827 71.6907 46.0594 69.6505C49.0482 67.776 51.7673 65.4986 53.4761 62.3603C55.3343 58.9523 56.6695 54.9141 57.5596 51.1487C57.9015 49.5655 58.1188 47.9578 58.2093 46.3405C59.7459 47.3509 61.6789 48.0624 63.4591 47.2145C65.0835 46.4413 66.4252 44.2418 66.88 42.572C67.481 40.2848 65.9476 36.1166 63.5111 34.8529ZM16.4058 27.5301C16.4758 27.5625 16.5531 27.5759 16.63 27.5691L22.3086 27.215L24.8328 27.0591C25.1934 27.0363 27.4609 26.627 27.6883 27.0201C27.7558 27.1267 27.862 27.203 27.9846 27.233C28.1072 27.2629 28.2366 27.2441 28.3456 27.1805C28.4546 27.117 28.5347 27.0136 28.5691 26.8922C28.6034 26.7708 28.5893 26.6408 28.5297 26.5295C27.8118 25.295 25.3461 26.0519 24.2025 26.1234L18.0983 26.5035C20.4958 25.0481 22.8966 23.5796 25.398 22.3288C30.885 19.5609 36.6059 17.0138 40.9623 12.563C43.4378 14.7289 45.9912 16.7864 48.6226 18.7357C51.1923 20.6427 53.8204 22.6342 56.9489 23.4432C56.9737 24.8477 57.0735 26.2499 57.2477 27.6438C57.5336 29.8563 58.1509 32.0264 58.3523 34.2518C58.3848 34.6125 58.3978 34.9731 58.4075 35.3337L57.4102 35.6261C55.9743 36.0484 54.4864 36.3928 53.1869 37.088C53.1137 35.9426 52.7503 34.8347 52.1308 33.8685C51.5114 32.9023 50.6562 32.1096 49.6459 31.5651C47.1997 29.7328 43.454 31.1655 41.9206 33.6281C41.5871 34.169 41.3312 34.7541 41.1605 35.3662L34.4358 35.4961H33.6301C33.5937 33.8916 33.4744 32.2899 33.2728 30.6977C33.1948 30.0837 32.2169 30.0739 32.2982 30.6977C32.5021 32.2963 32.6235 33.9045 32.662 35.5156L31.2521 35.5416C30.6024 35.5416 29.8617 35.4474 29.2282 35.6261C29.1873 35.597 29.1425 35.574 29.095 35.5579C28.2763 28.0857 13.8751 29.0928 13.1767 36.0419C12.2681 35.7347 11.3388 35.4926 10.3958 35.3174C9.59164 35.1129 8.79893 34.8656 8.02106 34.5767L7.81639 32.2084C7.81007 32.1525 7.79585 32.0978 7.77416 32.0459C10.7824 30.8114 13.6055 29.2032 16.3961 27.5301H16.4058ZM52.0402 38.6182C51.2118 41.5259 48.1808 42.8416 45.3642 42.0294C42.3949 41.1685 41.1962 38.1569 42.174 35.3142C43.1096 32.595 47.0697 30.1811 49.477 32.7152C49.5237 32.7693 49.5834 32.8108 49.6504 32.8357C49.7174 32.8607 49.7896 32.8684 49.8603 32.8581C51.6276 34.1869 52.6704 36.3863 52.0304 38.6182H52.0402ZM14.1058 36.5975C14.161 30.2071 28.5655 28.9726 28.1237 36.6364C28.1127 36.7378 28.1399 36.8395 28.2 36.9218C28.2601 37.0042 28.3487 37.0611 28.4485 37.0815C27.8183 43.2964 15.9607 44.1184 14.2909 37.871C14.2177 37.5996 14.1677 37.3224 14.1415 37.0425C14.1737 36.9714 14.1873 36.8932 14.1811 36.8154C14.1748 36.7375 14.1489 36.6626 14.1058 36.5975ZM2.05655 45.2132C1.38083 43.9982 0.896785 42.6857 0.974752 41.2595C1.05272 39.8332 1.88762 37.3609 3.78483 38.0334C3.77333 38.5503 3.82681 39.0666 3.94401 39.5701C4.37283 41.3667 5.86396 42.8514 7.75792 42.7247C7.85863 43.8552 7.95609 44.9988 8.05679 46.1164C8.12826 46.8961 8.21056 47.6715 8.30369 48.4425C5.48387 49.7063 3.37875 47.5848 2.05655 45.2132ZM57.2835 45.7135C57.0073 49.716 55.984 53.2962 54.6488 57.0583C53.3494 60.6806 51.816 63.9132 48.837 66.4505C46.1341 68.7538 42.7003 70.898 39.2015 71.6485C35.4591 72.4445 31.3626 72.0286 27.7208 70.9533C24.3425 69.9495 21.2041 68.268 18.4969 66.0115C15.7897 63.7549 13.5705 60.9706 11.9747 57.8282C10.0969 54.1376 9.40173 50.2293 9.03139 46.1326C8.71735 42.6348 8.41414 39.138 8.12177 35.6423C9.74609 36.1816 11.6563 36.3213 13.1637 37.1075C13.1637 37.218 13.1864 37.3252 13.2026 37.4324C14.4176 45.5771 29.3906 44.6382 29.4459 36.7112C29.5084 36.6695 29.5573 36.6103 29.5862 36.5409C29.6151 36.4715 29.6228 36.3951 29.6083 36.3213C29.6343 36.5292 30.9272 36.5942 32.6523 36.591C32.6523 36.9158 32.6523 37.2115 32.6523 37.5201C32.6154 38.7655 32.5256 40.0054 32.3826 41.24C32.2559 42.3283 31.9018 43.5141 32.022 44.6187C32.1357 45.6648 32.792 46.6817 33.9517 46.6557C35.4656 46.6167 37.0639 44.7064 38.1457 43.8455C38.633 43.4524 37.9411 42.7669 37.457 43.1567C36.8073 43.683 36.1576 44.2126 35.4883 44.7389C34.9945 45.5099 34.4477 45.5392 33.8478 44.8266C32.9057 44.6382 32.649 44.1021 33.0843 43.2022C33.2468 41.9222 33.4417 40.6584 33.5326 39.3654C33.6009 38.433 33.6301 37.5006 33.6334 36.5682C36.3395 36.5325 39.6433 36.3733 40.9525 36.3213C40.6277 38.8099 41.6023 41.4186 44.042 42.559C47.2452 44.0599 51.2637 42.9716 52.7159 39.6351C52.9055 39.1928 53.0408 38.7292 53.1187 38.2543C54.6618 37.2797 56.5493 36.8931 58.2906 36.383L58.4237 36.3441C58.3003 39.4824 57.5011 42.6045 57.277 45.7135H57.2835ZM65.4051 43.5401C64.7878 44.6707 63.9334 46.1001 62.6275 46.4867C61.1396 46.9318 59.7037 46.1976 58.5147 45.3822C58.4475 45.3329 58.3673 45.3047 58.2841 45.3009C58.3036 45.0378 58.3263 44.7779 58.349 44.518C58.5212 42.5362 58.9273 40.5837 59.1807 38.615C60.3989 38.5435 60.8375 37.1725 61.0064 35.6911C61.0559 35.6841 61.1041 35.6699 61.1494 35.6488C63.3032 34.5865 64.8756 37.4194 65.4928 38.9723C66.11 40.5252 66.227 42.0164 65.3953 43.5336L65.4051 43.5401Z" fill="#1F1E1C"/>
<path d="M40.3287 55.788C36.8949 58.4942 30.8752 56.9185 27.1945 55.5573C26.6065 55.3396 26.3531 56.2818 26.9346 56.4962C31.0344 58.0134 37.236 59.4558 41.0175 56.4767C41.5113 56.0901 40.816 55.4046 40.3287 55.788Z" fill="#1F1E1C"/>
<path d="M55.4452 28.95C54.1458 27.1306 52.9405 26.299 50.647 26.4322C47.6452 26.6043 44.7669 26.7051 41.7684 26.2925C41.1544 26.208 40.8913 27.1501 41.5118 27.2346C43.549 27.5285 45.6068 27.6556 47.6647 27.6147C48.6653 27.5887 49.6529 27.4783 50.647 27.4165C52.4954 27.2996 53.5448 27.9753 54.6038 29.4535C54.9644 29.9473 55.8091 29.4633 55.4452 28.95Z" fill="#1F1E1C"/>
</g>
<defs>
<clipPath id="clip0">
<rect width="67" height="73" fill="white"/>
</clipPath>
</defs>
</svg>
