<svg width="76" height="99" viewBox="0 0 76 99" fill="none" xmlns="http://www.w3.org/2000/svg">
<g opacity="1">
<path d="M75.9813 45.4188C75.587 41.0991 70.1505 38.6016 64.9621 38.0915C64.519 33.4975 63.8013 28.9176 62.8575 24.3728C62.8772 24.2349 62.8772 24.0957 62.8575 23.9577C62.6655 23.0056 62.4336 22.0676 62.1619 21.1436C61.6342 18.7599 60.8939 16.4089 59.9465 14.1084C60.1592 12.624 59.4016 11.2591 58.1743 10.0596C57.7932 9.68674 57.4122 9.3209 57.0311 8.95859L56.8628 8.72642C56.6191 8.4028 56.3577 8.0827 56.0874 7.76963C54.7139 5.37413 52.9859 3.21783 49.6496 2.29621C49.3781 2.22091 49.0877 2.19918 48.8033 2.23289L48.4754 2.10977C46.4816 0.674583 44.2352 -0.394774 41.3553 0.157493C41.1994 0.189574 41.0502 0.239333 40.9122 0.305233H40.2166C39.4261 0.165103 38.6141 0.117698 37.8063 0.164528C35.5909 0.29468 33.606 1.058 31.5412 1.67711C30.212 2.0746 28.9759 2.34194 28.1872 3.12637C27.4783 3.43592 26.7782 3.76657 26.0959 4.1113C22.1526 5.74348 19.0068 8.2023 16.211 10.9988C14.7356 12.4762 12.9899 14.031 12.1923 15.832C11.9318 16.441 11.7564 17.071 11.6695 17.7104C11.5897 17.8652 11.5056 18.0165 11.4302 18.1677C10.9119 18.9602 10.5374 19.807 10.3181 20.6828C10.0036 21.4567 9.74657 22.2658 9.4763 23.0783C9.36575 23.1957 9.27351 23.3233 9.20159 23.4582C8.25342 25.3261 8.01416 27.4367 7.92998 29.4945C7.6346 31.0493 7.39239 32.6064 7.20334 34.1659C6.97232 35.015 6.82419 35.8771 6.76027 36.7443C6.22881 36.7224 5.69598 36.7532 5.17408 36.8358C2.30741 37.286 0.40663 39.3192 0.0566037 41.5775C-0.444067 44.9474 2.50679 47.3675 6.01591 47.8389C5.97469 50.1705 6.10636 52.502 6.41024 54.8214C6.42797 55.8813 6.44717 56.9425 6.46784 58.0048C6.31996 58.2366 6.24832 58.4944 6.2596 58.7541C6.33492 60.8365 6.45012 62.9189 6.58747 64.9978C6.6111 66.8739 6.6111 68.7418 6.58747 70.6014C6.48606 70.7896 6.43044 70.9913 6.42354 71.1959C6.26698 74.4649 6.15622 77.734 6.09123 81.003C5.86527 83.4654 5.54183 85.9066 5.09875 88.3443C5.08897 88.3568 5.08009 88.3697 5.07217 88.383C4.8876 88.837 4.80511 89.3133 4.82848 89.7901C4.38541 91.9569 3.97778 94.1871 4.25692 96.3188L4.30123 97.3987C4.29927 97.4815 4.32386 97.5634 4.37269 97.6366C4.42151 97.7098 4.49297 97.772 4.58036 97.8173C4.70767 98.2167 4.86751 98.6092 5.05888 98.9922C6.35844 97.5731 7.09997 95.8803 7.19005 94.1273C7.34319 94.4875 7.61377 94.8092 7.97429 95.0594C8.17267 95.1896 8.39943 95.2897 8.64332 95.3549C9.29464 96.3434 9.97254 97.3178 10.677 98.2781C10.7745 97.958 10.8631 97.6344 10.9384 97.3107C11.0849 97.2636 11.2049 97.1761 11.2766 97.0643C11.3482 96.9525 11.3666 96.8239 11.3283 96.7022C11.284 96.5087 11.2264 96.3188 11.1688 96.1253C11.2574 95.5414 11.315 94.9504 11.3372 94.3665C11.4238 94.2089 11.4685 94.0389 11.4685 93.867C11.4685 93.6951 11.4238 93.525 11.3372 93.3675C11.3372 92.9172 11.2885 92.467 11.2353 92.0202C11.3789 92.1437 11.5464 92.2482 11.7315 92.3298C11.86 92.5408 11.9929 92.7519 12.1303 92.9594C12.0967 93.0784 12.1171 93.203 12.1879 93.3112C13.2709 95.0251 14.5777 96.6439 16.0869 98.1409C16.4547 98.5102 17.23 98.1937 17.2212 97.768C17.2212 97.4339 17.1946 97.0997 17.1724 96.769C17.2246 96.6702 17.2414 96.5619 17.2212 96.4559C17.1724 96.2097 17.1193 95.9635 17.0661 95.7208C16.9327 94.6192 16.7047 93.5262 16.3838 92.4494C16.4567 92.2487 16.4682 92.037 16.4174 91.832C16.3665 91.6271 16.2547 91.4347 16.0913 91.271L16.0559 91.2288C15.9496 90.8102 15.8388 90.3951 15.728 89.9765C15.6173 89.5579 15.5907 89.1463 15.5242 88.7313C15.5013 88.6122 15.4672 88.4946 15.4223 88.3795C15.2539 87.1026 15.0634 85.8292 14.9216 84.5558C14.4254 80.194 14.4254 75.804 14.4298 71.4245C14.4298 69.4125 14.4298 67.4004 14.4298 65.3883C14.7253 65.2074 14.9478 64.9618 15.0698 64.6818C15.1918 64.4018 15.2081 64.0996 15.1166 63.8124C14.9615 63.2637 14.8375 62.7114 14.7311 62.1591C14.9837 62.9189 15.2407 63.6787 15.4932 64.4385C16.3793 67.0627 17.2256 69.6833 19.3125 71.8924C22.5956 75.3713 27.5802 79.5714 33.1983 80.4297C38.626 81.2563 44.1067 79.0437 47.6513 75.8568C49.6619 73.9827 51.2344 71.8384 52.2947 69.525C52.4276 72.8597 52.5871 76.2261 52.1529 79.5292C52.0599 80.0533 51.9713 80.5844 51.8959 81.1086C51.7497 81.8613 51.5725 82.6106 51.3465 83.3528C50.1635 87.2222 47.8285 91.3624 49.9243 94.9821C50.4294 94.4368 50.9389 93.8951 51.4484 93.3499C51.7876 93.0327 52.1055 92.7016 52.401 92.3579C52.518 92.3989 52.6486 92.4088 52.7732 92.3861L54.2752 95.1017C55.0817 93.6829 55.6593 92.189 55.9943 90.6554C56.6074 91.9005 57.4724 93.0578 58.5553 94.0816C58.604 94.173 58.6439 94.2645 58.6971 94.3559C58.7328 94.4276 58.7934 94.4897 58.8718 94.5352C58.9503 94.5806 59.0433 94.6075 59.1401 94.6127C59.5369 94.9511 59.9586 95.2706 60.4029 95.5695C61.5372 90.9368 61.5549 86.2021 61.7321 81.4779C61.8098 81.3125 61.8604 81.1399 61.8828 80.9643C62.0185 79.8582 62.0348 78.745 61.9315 77.6367L61.9847 76.9331C62.0644 75.9869 62.1752 75.0407 62.2948 74.0979C62.542 73.851 62.6957 73.5533 62.7379 73.2396C63.1632 70.109 63.5871 66.9771 64.0095 63.8441C64.0582 63.4923 64.1158 63.1405 64.169 62.7888C64.395 61.4239 64.6121 60.0591 64.7804 58.6908C64.9311 57.5194 65.0463 56.3445 65.1482 55.1731C65.3137 53.93 65.3906 52.6804 65.3786 51.4304C65.3993 50.9403 65.417 50.4513 65.4318 49.9635C67.1979 50.5137 69.1297 50.6361 70.9834 50.3153C73.8412 49.7454 76.2073 47.8846 75.9813 45.4188ZM30.5709 27.4085C30.952 27.4296 31.3374 27.4472 31.7185 27.4718C32.228 27.5176 32.7375 27.5563 33.2471 27.595C30.2933 27.6888 27.3395 27.7884 24.3856 27.894L30.5709 27.4085ZM35.3384 27.2995C36.5435 27.3604 37.7487 27.3991 38.9538 27.4156L35.0105 27.5387C35.1471 27.4808 35.2653 27.399 35.3561 27.2995H35.3384ZM49.0736 26.8598C50.8902 26.9442 52.7112 26.997 54.5366 27.0181C54.6018 27.0377 54.6684 27.0541 54.736 27.0673C51.5991 27.106 48.4577 27.1693 45.3163 27.2432C46.5658 27.1553 47.8152 27.0321 49.0691 26.8598H49.0736ZM1.32822 42.383C1.29277 40.7579 2.30741 38.9639 4.19489 38.2041C4.98558 37.8957 5.86292 37.754 6.74255 37.7925C6.74255 38.0915 6.74255 38.387 6.74255 38.6825C6.63326 40.106 6.55055 41.533 6.49443 42.9635C6.26478 44.2465 6.1169 45.5379 6.05136 46.8328C4.73583 46.6418 3.54504 46.0933 2.68325 45.2813C1.82147 44.4694 1.34239 43.4447 1.32822 42.383ZM47.5361 74.316C44.0624 77.9392 38.0145 80.5985 32.2236 79.1457C29.4056 78.4422 27.0839 76.8804 25.0104 75.2763C22.9368 73.6723 20.5797 71.8924 19.184 69.8064C17.744 67.6642 17.1237 65.2019 16.3439 62.8732L14.4431 57.1782V32.8749C14.5406 31.4679 14.6484 30.0608 14.7666 28.6538L23.1849 27.9924L54.9088 27.0849C54.9957 27.092 55.0833 27.092 55.1702 27.0849C55.1304 27.2889 55.0949 27.4929 55.0595 27.7005C54.8083 27.953 54.671 28.2651 54.6696 28.5869C54.6696 28.9774 54.6696 29.3714 54.6696 29.7618C54.5256 29.9856 54.4584 30.2355 54.4746 30.4864C54.4746 30.6588 54.5056 30.8382 54.5233 30.9895C54.4081 31.7258 54.2974 32.4622 54.191 33.1985C54.1197 33.3263 54.0705 33.4612 54.0448 33.5995C53.8543 34.799 53.6948 35.988 53.6549 37.1699C53.2503 40.4015 52.9253 43.6412 52.6802 46.8891C52.6332 46.9806 52.6005 47.0763 52.5827 47.174C52.0509 50.1457 51.9246 53.1543 52.2061 56.1475C52.1884 56.8862 52.1721 57.6249 52.1573 58.3636C51.8473 58.6388 51.6727 58.9935 51.6655 59.3626C51.5674 61.8414 51.7052 64.3225 52.0776 66.7848C51.0585 69.4723 49.685 72.0683 47.5317 74.316H47.5361ZM69.8093 49.3972C68.3168 49.5101 66.8124 49.3263 65.4318 48.8625C65.4731 45.6169 65.3505 42.3678 65.064 39.1152C69.0517 39.5338 73.0127 41.2996 74.3242 44.3564C75.4629 47.0158 73.0792 49.0841 69.8049 49.3972H69.8093Z" fill="#1F1E1C"/>
<path d="M23.0795 43.0909C23.1211 43.1999 23.2059 43.2955 23.3212 43.3634C23.4364 43.4312 23.5762 43.4679 23.7197 43.4679C23.8633 43.4679 24.003 43.4312 24.1183 43.3634C24.2336 43.2955 24.3183 43.1999 24.36 43.0909C24.453 42.8834 24.5416 42.6723 24.6302 42.4612C24.6585 42.3957 24.6705 42.3264 24.6657 42.2572C24.9 41.7332 24.9906 41.1756 24.9315 40.6215C24.9315 40.5582 24.9315 40.4949 24.9049 40.4316C24.8783 40.3682 24.9049 40.3823 24.9049 40.3577V40.2909C24.8498 39.9368 24.6632 39.6037 24.3688 39.3341C24.2821 39.2385 24.1596 39.1671 24.0188 39.13C23.798 39.0278 23.5417 38.9847 23.2877 39.0069C23.1424 39.0096 23.0018 39.0489 22.8864 39.1191C22.7709 39.1892 22.6865 39.2867 22.6453 39.3974C22.5763 39.6774 22.5289 39.9605 22.5035 40.2451C22.3851 40.5677 22.3079 40.8988 22.2731 41.2336C22.2232 41.557 22.2662 41.8851 22.399 42.1934C22.5317 42.5017 22.7508 42.7821 23.0396 43.0135C23.0396 43.0381 23.0662 43.0663 23.0795 43.0909Z" fill="#1F1E1C"/>
<path d="M44.2483 42.9713C44.3086 43.0492 44.393 43.1134 44.4934 43.158C44.5939 43.2026 44.707 43.226 44.8221 43.226C44.9372 43.226 45.0504 43.2026 45.1508 43.158C45.2513 43.1134 45.3356 43.0492 45.3959 42.9713C45.9348 42.232 46.2133 41.3912 46.2023 40.5371C46.2023 39.9321 45.994 39.0456 45.0636 38.9225C44.1331 38.7994 43.8318 39.5874 43.7078 40.1502C43.6169 40.5633 43.6169 40.9858 43.7078 41.3989C43.7584 41.9459 43.9419 42.4798 44.2483 42.9713Z" fill="#1F1E1C"/>
<path d="M47.4834 49.2468C47.4415 49.1745 47.3794 49.1108 47.3018 49.0604C45.8086 48.0965 44.0452 47.8538 43.4205 49.581C42.4812 52.1594 43.4604 55.5046 43.7218 58.1323C43.8325 59.258 43.642 62.2866 45.4365 62.7299C47.0625 63.1273 48.3031 61.1891 48.7373 60.2288C49.6899 58.1182 49.5393 55.5574 49.3665 53.373C49.269 52.1559 49.2424 49.7955 47.4834 49.2468ZM46.1276 51.0689C46.4829 51.0007 46.8535 51.0007 47.2087 51.0689C47.2041 51.1017 47.2041 51.1347 47.2087 51.1674C47.1201 52.6061 47.0714 54.0519 46.9385 55.4871C46.9119 55.8951 46.8587 56.2961 46.7923 56.7006C46.7435 56.3207 46.6771 55.9408 46.6327 55.568L46.3403 52.986C46.296 52.7644 45.8928 51.2272 46.1276 51.0619V51.0689ZM47.5455 59.7188C47.3727 60.1409 46.6593 61.9102 45.6358 61.3896C45.1928 61.1575 45.1928 59.2966 45.1396 58.9906C44.9579 57.4816 44.8472 55.969 44.6965 54.4599C44.6256 53.7071 44.5326 52.9579 44.5016 52.2051C44.5016 51.6458 44.2535 49.2714 45.5428 49.4579C44.5858 50.2212 44.887 52.0926 44.989 52.9755C45.1618 54.481 45.3213 55.9901 45.5073 57.4956C45.5871 58.171 45.5561 58.6811 46.3137 59.0645C46.4155 59.1128 46.5319 59.1384 46.6505 59.1384C46.7691 59.1384 46.8854 59.1128 46.9872 59.0645C47.7537 58.6846 47.9442 57.8615 48.0506 57.1333C48.035 58.0073 47.8649 58.8752 47.5455 59.7117V59.7188Z" fill="#1F1E1C"/>
<path d="M24.2624 50.1191C22.9332 49.1588 19.9691 49.4683 19.0874 50.703C18.4405 51.6035 18.4626 52.9754 18.3386 53.9779C18.1316 55.4964 18.0502 57.024 18.0949 58.5508C18.1614 60.0705 18.5911 63.0217 21.1477 63.2152C23.3852 63.3876 24.4618 60.6685 24.8119 59.3458C24.9623 58.7764 25.0747 58.201 25.1486 57.6222C25.2658 57.586 25.3673 57.5235 25.4404 57.4423C25.5136 57.3611 25.5554 57.2647 25.5606 57.1649C25.716 55.6394 25.6461 54.1046 25.3524 52.592C25.1973 51.8322 25.0688 50.6995 24.2624 50.1191ZM22.7206 54.1714C23.4324 53.7938 23.7588 53.9017 23.6997 54.495C23.601 54.4398 23.4861 54.4057 23.366 54.396C23.2459 54.3862 23.1246 54.4011 23.0139 54.4392C22.9031 54.4774 22.8066 54.5375 22.7335 54.6138C22.6604 54.6901 22.6132 54.78 22.5965 54.8749C22.5255 55.85 22.2732 56.8113 21.8477 57.7277C21.7386 57.2013 21.7044 56.6668 21.7458 56.1342C21.7635 55.2935 21.4002 54.3719 22.7206 54.1714ZM20.873 53.3975C20.1109 55.0227 19.7786 58.0338 21.4357 59.3493C21.5074 59.4061 21.5945 59.449 21.6904 59.475C21.7863 59.5009 21.8883 59.5091 21.9888 59.4989C22.0892 59.4887 22.1854 59.4604 22.27 59.4162C22.3546 59.372 22.4254 59.313 22.4769 59.2438C23.0969 58.2441 23.5283 57.1774 23.7573 56.078C23.7573 56.4051 23.7839 56.7287 23.7795 57.0559C23.7997 58.2611 23.5149 59.4572 22.9421 60.5735C22.7951 60.8878 22.6002 61.1867 22.3617 61.4634L20.2216 61.4881C19.7077 61.2067 19.495 59.476 19.4551 59.0961C19.3783 58.0567 19.3857 57.0145 19.4773 55.9759C19.5437 54.9207 19.3488 52.3845 20.0843 51.5859C20.9704 50.6292 21.9186 50.4955 22.9864 51.1533C23.2684 51.2984 23.5051 51.4927 23.6786 51.7212C23.8521 51.9497 23.9578 52.2066 23.9877 52.4724C22.9687 51.7548 21.4312 52.1839 20.873 53.3835V53.3975Z" fill="#1F1E1C"/>
<path d="M37.3684 55.9514C37.2045 56.6549 36.8766 58.2237 35.5962 57.7102C34.6391 57.3338 33.9834 56.3031 33.5359 55.5679C32.7782 54.3473 30.4876 55.4167 31.2408 56.6232C32.1269 58.0654 33.753 59.9228 36.0127 59.9439C38.4451 59.9685 39.5572 58.1358 39.956 56.5036C40.2528 55.188 37.6919 54.6182 37.3684 55.9514Z" fill="#1F1E1C"/>
<path d="M32.5563 50.478C32.5563 51.2695 32.3657 52.2931 33.243 52.863C34.2621 53.5208 36.4021 53.2605 37.6073 53.3027C38.4624 53.3344 38.4624 52.2791 37.6073 52.2474C36.7521 52.2158 35.4318 52.3881 34.7052 52.1454C33.4424 51.7303 33.8943 50.3373 33.9076 49.4861C33.9386 47.6077 33.9076 45.7293 33.7526 43.8579C33.562 41.4694 32.9107 38.9051 29.6852 38.089C28.8655 37.8814 28.5155 38.9016 29.3307 39.1056C32.348 39.8689 32.3702 42.7674 32.4854 44.8534C32.5917 46.7247 32.605 48.5996 32.5563 50.478Z" fill="#1F1E1C"/>
</g>
</svg>
