<svg width="76" height="66" viewBox="0 0 76 66" fill="none" xmlns="http://www.w3.org/2000/svg">
<g clip-path="url(#clip0)">
<path d="M21.6514 38.188C21.5351 38.188 21.4236 38.2344 21.3413 38.3169C21.2591 38.3995 21.2129 38.5115 21.2129 38.6283C21.2129 38.7451 21.2591 38.857 21.3413 38.9396C21.4236 39.0222 21.5351 39.0686 21.6514 39.0686C21.7677 39.0686 21.8793 39.0222 21.9615 38.9396C22.0437 38.857 22.0899 38.7451 22.0899 38.6283C22.0899 38.5115 22.0437 38.3995 21.9615 38.3169C21.8793 38.2344 21.7677 38.188 21.6514 38.188Z" fill="#1F1E1C"/>
<path d="M71.0417 35.7498C70.5388 33.8154 69.8372 31.8987 68.6444 30.2784C68.2468 29.7383 67.7995 29.2628 67.437 28.7286C67.5393 28.7286 67.6416 28.7286 67.7439 28.7286C69.3665 28.708 71.1089 27.7188 71.6439 26.122C71.9596 25.171 71.451 24.129 72.521 23.6799C73.591 23.2308 74.4505 23.2073 75.2398 22.2651C76.2748 21.0293 76.2865 19.0509 75.0235 17.9619C73.6816 16.8084 70.7669 16.7878 69.1472 17.187C68.0246 17.46 67.2966 18.1938 66.3377 18.7779C65.8436 19.0715 64.8759 19.6585 64.6362 18.3288C64.5397 17.7829 65.2209 17.1547 65.5571 16.9551C66.1418 16.5941 66.8815 16.4884 67.5276 16.2917C69.2817 15.7487 70.6148 14.5746 70.2699 12.5698C69.7115 9.30576 63.8381 6.58181 61.4993 9.42023C61.0841 9.9251 60.6368 10.7705 60.0814 11.3399C59.0903 11.3634 57.915 10.6765 57.3683 9.87227C57.5177 9.3707 57.84 8.93889 58.2775 8.65412C58.6839 8.38995 59.1546 8.23438 59.5259 7.89975C61.3356 6.25599 58.9763 4.37741 57.6198 3.51149C56.5763 2.82899 55.4122 2.35369 54.1905 2.11136C52.8486 1.63878 51.3693 1.66813 50.194 2.53991C50.0203 2.66924 49.8674 2.82468 49.7408 3.00075C49.2307 3.35388 48.8004 3.81095 48.4779 4.34218C48.1935 4.87549 47.9577 5.43351 47.7733 6.00943C47.6573 6.37672 47.5035 6.73088 47.3143 7.06613C46.9693 7.60329 45.9666 8.46039 45.2679 7.86453C46.8758 6.3235 48.6474 4.17781 47.5657 1.84425C46.5717 -0.301447 43.7652 -0.163488 41.821 0.253323C39.3356 0.797536 37.0931 2.1365 35.4302 4.0692C34.5297 5.12297 33.5357 6.74618 33.8573 8.14338L33.5065 8.30189L32.1588 8.06413C32.3501 7.63413 32.4396 7.16549 32.4203 6.69493C32.4011 6.22438 32.2735 5.7647 32.0477 5.35192C31.2408 3.85786 29.4165 3.34418 27.8173 3.52617C25.8936 3.75219 23.6425 4.94685 22.2217 6.25599C22.0084 6.45112 21.826 6.67779 21.6808 6.92817C21.432 7.13142 21.2125 7.36853 21.0289 7.63264C20.7668 8.12559 20.5824 8.65632 20.4822 9.20596C20.1898 9.49949 20.1314 9.45546 19.5876 9.37327C18.9298 9.27347 18.2837 9.1267 17.6259 9.04452C14.3662 8.63651 9.14768 10.1042 10.1271 14.466C10.2779 15.1978 10.6667 15.8586 11.2322 16.3446C11.4861 16.5449 11.7665 16.7089 12.0654 16.8318C12.9687 17.2369 13.2348 17.0109 13.5067 17.8298C13.4542 18.2034 13.3661 18.571 13.2435 18.9276C13.1861 19.0305 13.1206 19.1287 13.0477 19.2212C12.8869 19.2212 12.7232 19.2212 12.5624 19.2212C11.849 19.2212 11.1415 19.1889 10.4282 19.2212C9.14433 19.2689 7.86548 19.4082 6.60129 19.638C6.41126 19.6703 6.20954 19.7084 6.01658 19.7495H5.97273C5.73764 19.7396 5.50455 19.7966 5.30032 19.9139C3.99643 20.2544 2.78024 20.8708 3.08721 22.4559C3.44973 24.3638 5.26231 24.7571 6.91995 24.763L6.75331 25.8667C6.7255 26.0524 6.73344 26.2417 6.7767 26.4244L6.68607 26.7179C6.39372 27.7335 6.22708 28.1386 5.12198 28.2824C3.89995 28.438 2.63114 28.3352 1.50266 28.9223C-0.438563 29.9408 -0.418098 32.0748 1.09921 33.4896C3.23631 35.4827 6.36156 35.6324 8.91965 34.5287C9.47002 34.3902 10.0102 34.2136 10.5364 34.0004C10.3624 37.4128 10.3624 40.832 10.5364 44.2445C10.1957 44.0852 9.82561 43.9995 9.44992 43.9929C9.07422 43.9864 8.70134 44.0591 8.35541 44.2064C7.23277 44.6848 6.55159 46.1084 6.39372 47.2649C6.04582 49.7746 8.75593 51.7354 10.8784 50.6699C10.9965 52.8911 11.3813 55.0899 12.0244 57.2185C14.5211 64.8503 24.2185 66.5498 31.2145 65.86C35.474 65.4402 39.719 64.6859 43.9552 64.0636C48.4925 63.4061 53.0941 62.9159 57.5817 61.9619C64.4053 60.4943 71.524 56.7019 72.5794 49.0819C72.9624 46.3051 72.6788 43.3727 72.1438 40.5196C72.5647 40.6572 72.9972 40.7554 73.436 40.8132C74.7107 40.9834 76.0117 40.4433 75.959 38.9727C75.8655 36.6069 73.1115 34.4201 71.0417 35.7498ZM7.33509 47.0008C7.72977 45.5096 9.21492 44.1242 10.5831 45.3071C10.5831 45.3834 10.5831 45.4597 10.5831 45.536C10.6562 46.8922 10.7059 48.2864 10.7907 49.6865C9.0629 51.0749 6.80886 48.9703 7.33509 47.0008ZM67.8258 56.2763C65.063 58.83 61.4788 60.1861 57.8653 60.9992C54.1378 61.8386 50.308 62.2613 46.5308 62.8073C42.4145 63.3943 38.2972 63.9902 34.1789 64.5949C30.0392 65.1819 26.0223 65.3404 21.941 64.2514C18.1405 63.2358 14.5884 61.4864 13.0915 57.6118C12.1735 55.243 11.8607 52.6218 11.697 50.0036C11.7292 49.9154 11.7292 49.8187 11.697 49.7306C11.6122 48.3099 11.5684 46.898 11.4953 45.536V45.401C11.541 45.3291 11.5633 45.2447 11.5592 45.1595C11.555 45.0743 11.5245 44.9925 11.4719 44.9255C11.2599 41.1606 11.2599 37.3866 11.4719 33.6217H11.4953C11.887 33.4456 12.2642 33.2489 12.6325 33.0346C17.1114 31.523 20.6693 27.6337 24.1278 24.6045C25.3499 23.5302 26.5544 22.4001 27.7881 21.3082L28.0804 21.0675C29.3609 20.0636 30.6298 19.048 31.922 18.0647C33.6761 17.0461 35.4916 16.6968 37.4386 16.6293C37.8743 16.6293 38.3157 16.6293 38.7484 16.6293C39.0583 16.6293 39.3711 16.6293 39.6868 16.6587C42.9154 16.7902 46.1353 17.0841 49.3345 17.5392C50.3168 17.6801 51.3108 17.8328 52.2902 18.0588C52.8047 18.2496 53.3192 18.4404 53.8279 18.6458C53.9887 18.709 54.1632 18.7282 54.3337 18.7016C55.0266 18.9951 55.7429 19.2358 56.462 19.547C56.94 19.7737 57.3936 20.0492 57.8156 20.3689C59.7276 21.8189 60.9146 23.8912 62.4933 25.7287C63.4931 26.9028 64.8087 28.0564 66.3231 28.529C66.3359 28.5649 66.3506 28.6002 66.3669 28.6346C66.6688 29.1771 67.0339 29.6817 67.4545 30.1375C68.6477 31.6371 69.5268 33.3634 70.0389 35.2126C70.1646 35.6441 70.2845 36.0932 70.4014 36.5218C70.3977 36.6104 70.4201 36.6982 70.4657 36.7742C71.3029 39.8699 71.7816 43.0523 71.8924 46.2581C71.9187 50.1268 70.6879 53.6257 67.8258 56.2763Z" fill="#1F1E1C"/>
<path d="M24.9145 34.4249C24.8208 34.1277 24.6251 33.8735 24.3623 33.7074C24.0995 33.5413 23.7865 33.4742 23.4791 33.5179C23.2946 33.5476 23.1206 33.6233 22.9729 33.7382C22.8253 33.8531 22.7088 34.0035 22.6342 34.1754C22.4645 34.3186 22.3323 34.5013 22.249 34.7075C22.1657 34.9138 22.1339 35.1373 22.1564 35.3587C22.1789 35.5801 22.255 35.7927 22.378 35.9778C22.501 36.1629 22.6672 36.315 22.8622 36.4209C23.0334 36.5053 23.2207 36.5514 23.4113 36.5559C23.602 36.5604 23.7913 36.5233 23.9662 36.4471C24.1411 36.3709 24.2974 36.2574 24.4243 36.1145C24.5512 35.9716 24.6457 35.8027 24.7011 35.6196C24.8273 35.4511 24.9123 35.2552 24.9494 35.0477C24.9865 34.8402 24.9745 34.6269 24.9145 34.4249Z" fill="#1F1E1C"/>
<path d="M43.9462 34.6657C43.7045 33.2548 43.4628 31.842 43.2211 30.4272C43.1276 29.8695 42.2827 30.1072 42.3762 30.662L42.9609 34.1521C43.0428 34.6393 43.1714 35.1559 43.2153 35.6491C43.2952 35.8845 43.3196 36.1353 43.2866 36.3818C43.2536 36.6283 43.1642 36.8638 43.0252 37.0697C42.7678 37.1306 42.4982 37.1124 42.2511 37.0177C42.0041 36.923 41.791 36.7561 41.6395 36.5385C41.2624 36.1158 40.6426 36.738 41.0197 37.1607C41.7126 37.9415 43.5953 38.5198 44.1859 37.2576C44.5279 36.5502 44.066 35.3673 43.9462 34.6657Z" fill="#1F1E1C"/>
<path d="M47.1712 42.7171C47.1712 42.6004 47.125 42.4884 47.0427 42.4058C46.9605 42.3232 46.8489 42.2769 46.7326 42.2769C44.6862 42.5234 42.5988 42.8991 40.5289 42.9637C40.459 42.8967 40.3698 42.8537 40.274 42.8409C40.1782 42.8281 40.0808 42.8462 39.9959 42.8926C39.911 42.939 39.843 43.0112 39.8017 43.0989C39.7603 43.1866 39.7478 43.2852 39.7659 43.3805C40.2278 45.67 42.3473 46.9792 44.5985 46.9029C45.382 46.8794 46.2766 46.7091 46.7911 46.0604C47.4957 45.1857 47.1975 43.7592 47.1712 42.7171ZM46.335 44.3844C46.1889 45.6965 45.1656 46.1162 43.9962 46.0047C42.5666 45.8667 41.365 45.1241 40.8242 43.8326C42.6572 43.7504 44.502 43.4422 46.3204 43.2103C46.3603 43.6004 46.3651 43.9934 46.335 44.3844Z" fill="#1F1E1C"/>
<path d="M59.4173 33.2126C59.397 32.9957 59.3056 32.7916 59.1575 32.6323C59.0094 32.473 58.8129 32.3674 58.5988 32.3321C58.3819 32.2046 58.1259 32.1618 57.8796 32.2117C57.6042 32.284 57.3641 32.4534 57.203 32.689C57.0419 32.9246 56.9708 33.2105 57.0025 33.4944C57.0121 33.6644 57.0633 33.8294 57.1515 33.9748C57.2397 34.1202 57.3623 34.2415 57.5083 34.3281C57.5083 34.3281 57.5258 34.3633 57.5375 34.378C57.9848 35.012 59.049 34.9122 59.1952 34.0844C59.1952 34.0521 59.1952 34.0228 59.1952 33.9905C59.3649 33.7689 59.4443 33.4909 59.4173 33.2126Z" fill="#1F1E1C"/>
<path d="M66.4312 40.4043C65.9448 39.6426 65.245 39.0421 64.4198 38.6784C64.0867 38.5216 63.7318 38.4167 63.3673 38.3672C63.329 38.3162 63.2772 38.277 63.2177 38.2542C63.1583 38.2313 63.0936 38.2258 63.0311 38.2381C60.0111 38.6343 58.7014 42.7526 59.7948 45.3532C60.8326 47.8159 63.8877 49.3305 65.7383 46.9177C67.0627 45.2035 67.7643 42.1919 66.4312 40.4043Z" fill="#1F1E1C"/>
<path d="M25.0373 42.9785C24.7908 42.6818 24.4797 42.4459 24.1281 42.2887C23.8808 42.0171 23.5828 41.7967 23.2511 41.64C22.8593 41.0031 21.8419 41.0354 21.2368 41.3817C20.0147 42.0862 19.7399 43.9325 19.6083 45.1976C19.4359 46.8531 19.5119 48.7728 20.6374 50.1025C21.3595 50.9567 22.6254 51.6318 23.7481 51.1974C25.1455 50.6543 25.7741 48.6378 25.967 47.2993C26.1921 45.861 26.0196 44.135 25.0373 42.9785Z" fill="#1F1E1C"/>
</g>
<defs>
<clipPath id="clip0">
<rect width="76" height="66" fill="white"/>
</clipPath>
</defs>
</svg>
