<svg width="71" height="83" viewBox="0 0 71 83" fill="none" xmlns="http://www.w3.org/2000/svg">
<g clip-path="url(#clip0)">
<path d="M40.2147 49.3938C38.9792 47.6254 37.3924 46.1384 36.1569 44.359C34.7628 42.3435 33.5733 40.1916 32.6064 37.9359C32.5715 37.8343 32.4999 37.7496 32.4059 37.6988C32.3119 37.648 32.2024 37.6348 32.0991 37.6619C32.065 37.5794 32.0131 37.5055 31.9472 37.4457C31.8813 37.3859 31.803 37.3416 31.7181 37.3161C31.6331 37.2906 31.5436 37.2844 31.456 37.2981C31.3684 37.3118 31.2848 37.3449 31.2115 37.3952C30.6427 37.7021 30.7659 38.4913 30.9434 39.1087C31.1644 41.8234 30.8057 44.359 30.3058 47.0372C29.9688 48.8384 29.7369 50.6908 30.2442 52.4848C31.2188 55.9301 34.8309 57.4099 38.1242 56.3174C41.3197 55.2615 42.0515 52.0207 40.2147 49.3938Z" fill="#1F1E1C"/>
<path d="M48.4068 36.3392C48.4048 36.2438 48.3784 36.1506 48.3302 36.0684C48.282 35.9863 48.2137 35.9181 48.1318 35.8704C48.0499 35.8227 47.9571 35.797 47.8625 35.7959C47.7679 35.7949 47.6746 35.8184 47.5917 35.8642C45.6645 36.9878 43.3824 37.3201 41.2188 36.7922C41.133 36.769 41.0427 36.769 40.9568 36.7921C40.871 36.8152 40.7927 36.8606 40.7297 36.9238C40.6526 36.9665 40.5857 37.0258 40.5337 37.0975C40.4818 37.1692 40.4461 37.2515 40.4292 37.3386C40.4123 37.4257 40.4145 37.5155 40.4358 37.6017C40.457 37.6878 40.4967 37.7682 40.5522 37.8372C41.7369 39.2183 43.4977 39.664 45.2621 39.3315C46.8562 39.0319 48.5699 38.2427 48.4068 36.3392Z" fill="#1F1E1C"/>
<path d="M46.175 56.5292C45.5699 58.4364 44.9033 60.3801 43.1643 61.542C41.7658 62.481 40.0231 62.7952 38.3747 62.9012C35.114 63.1167 31.8025 62.5833 29.1686 60.5445C28.6143 60.1134 28.0817 61.067 28.6179 61.4908C31.6902 63.8694 35.8349 64.3882 39.592 63.8803C41.2441 63.6538 42.9251 63.1496 44.2475 62.101C45.9033 60.7711 46.5989 58.7871 47.2257 56.8178C47.4394 56.1455 46.3742 55.8569 46.175 56.5292Z" fill="#1F1E1C"/>
<path d="M43.0594 69.01C41.8715 68.3047 40.4621 68.0809 39.1167 68.3842C37.7714 68.6874 36.5905 69.4949 35.8134 70.6432C35.4004 71.2132 36.3424 71.7612 36.7518 71.1949C37.3826 70.2981 38.3245 69.673 39.3908 69.4436C40.4571 69.2142 41.5699 69.3972 42.5087 69.9563C43.1138 70.2998 43.6717 69.3535 43.0594 69.01Z" fill="#1F1E1C"/>
<path d="M24.3172 40.1902C24.1433 39.5617 23.3064 39.7481 23.2303 40.3363C23.2107 40.5526 23.1581 40.7646 23.0745 40.9647C22.9897 40.9849 22.913 41.0307 22.8548 41.096C22.7965 41.1613 22.7594 41.2429 22.7484 41.3301C22.7484 41.3995 22.7231 41.4653 22.7122 41.5274C21.6253 42.7221 19.1653 42.6564 17.861 41.8343C17.6919 41.6407 17.5346 41.4369 17.39 41.2241C16.9987 40.6469 16.064 41.1839 16.4516 41.7758C16.5241 41.8854 16.6002 41.9951 16.6799 42.1047C16.6849 42.1703 16.704 42.234 16.7359 42.2915C16.7678 42.3489 16.8118 42.3986 16.8647 42.4371C16.9299 42.492 17.0023 42.5431 17.0712 42.5943C17.8574 43.4967 18.9262 44.2859 20.0819 44.4576C20.7082 44.6225 21.3603 44.6635 22.0021 44.5782C24.4186 44.2457 24.8788 42.2727 24.3172 40.1902Z" fill="#1F1E1C"/>
<path d="M23.4443 34.4795C22.3574 35.1298 20.4444 34.4795 19.2018 34.6585C17.9372 34.8631 16.7348 35.3527 15.6838 36.0907C15.1078 36.4817 15.6512 37.4316 16.2345 37.037C17.685 36.0124 19.4493 35.5411 21.2125 35.7071C22.2197 35.7984 23.082 35.9701 23.9914 35.4258C24.1103 35.3499 24.1954 35.2304 24.2288 35.0926C24.2621 34.9547 24.2412 34.8092 24.1703 34.6866C24.0994 34.564 23.9842 34.4739 23.8487 34.4352C23.7133 34.3966 23.5683 34.4125 23.4443 34.4795Z" fill="#1F1E1C"/>
<path d="M46.5083 30.424C44.878 31.3959 43.5266 31.0744 41.8238 30.5628C40.8094 30.2523 39.8855 30.0952 38.8783 30.519C38.2443 30.7857 38.516 31.8489 39.1681 31.5749C40.7188 30.9209 42.1607 32.0572 43.7041 32.2033C44.8801 32.2914 46.0535 32.0011 47.0554 31.374C47.1803 31.3008 47.2713 31.1806 47.3083 31.0398C47.3454 30.899 47.3254 30.7491 47.2529 30.6231C47.1803 30.4972 47.0611 30.4054 46.9215 30.3681C46.7819 30.3307 46.6332 30.3508 46.5083 30.424Z" fill="#1F1E1C"/>
<path d="M70.4379 44.8491C69.7133 41.791 68.1699 39.0617 66.8149 36.263C65.1483 32.8542 64.1266 29.2517 63.1376 25.5944C62.3115 22.5326 61.5616 19.2955 60.029 16.4931C58.6378 13.9356 56.3807 12.3974 54.0185 10.8409C51.3121 9.05063 48.584 7.28957 45.7544 5.7258C43.3945 4.38539 40.937 3.22751 38.4033 2.26214C38.2331 2.10774 38.0336 1.98963 37.817 1.91492C37.6003 1.8402 37.3709 1.81042 37.1425 1.82736C36.7259 1.68486 36.302 1.55333 35.8817 1.42911C33.4652 0.449928 30.7371 -0.364836 28.3423 0.183212C26.9472 0.136403 25.5509 0.223262 24.1722 0.442621C23.4899 0.488631 22.8195 0.645314 22.1868 0.906635C21.5838 1.08885 20.9942 1.31349 20.4224 1.57891C17.7522 2.82115 15.6871 4.98776 13.7669 7.169C9.81422 11.6228 6.15861 16.5077 4.01379 22.1161C2.17331 26.9426 2.12621 31.9079 2.04288 36.9316C1.98691 37.104 1.95639 37.2838 1.95231 37.4651C1.92695 38.3785 1.95231 39.2919 1.95231 40.198C1.95231 40.6657 1.91245 41.137 1.88709 41.6047C1.64797 45.7808 1.03206 49.8875 0.401662 54.0271C-0.0983128 57.3629 -0.341054 60.7498 0.937866 63.965C2.95588 69.0436 7.41217 72.2552 12.3866 73.8957L12.5967 74.0601C12.7619 74.1947 12.9563 74.288 13.1641 74.3325C13.3719 74.3769 13.5871 74.3712 13.7923 74.3158C14.3913 74.4766 14.9951 74.6142 15.6038 74.7287C15.7066 74.7524 15.8142 74.7435 15.9117 74.7031C17.6945 76.835 19.8526 78.6162 22.2774 79.9571C27.2314 82.6138 32.9089 83.5706 38.4504 82.6827C49.0731 81.002 57.4748 72.4525 60.6884 62.3647C66.1229 64.5277 69.6445 58.4699 70.5756 53.9613C71.1927 50.9505 71.1457 47.8396 70.4379 44.8491ZM42.8741 80.3809C31.9037 84.4803 19.5384 80.0557 13.8031 69.7853C12.5774 67.5769 11.5713 65.2516 10.7997 62.8434C10.4953 60.4685 10.2949 58.0826 10.1983 55.6858C10.2961 54.1805 10.4011 52.7008 10.3939 51.3015C10.3939 50.0227 10.3432 48.7439 10.278 47.4651C10.6884 40.6614 11.937 33.9357 13.9952 27.4431C14.9371 27.2872 15.8779 27.1216 16.8175 26.9462C18.4791 26.7935 20.1171 26.444 21.6977 25.9049C23.7628 25.4117 25.8134 24.849 27.8568 24.2316C29.9001 23.8274 31.9115 23.273 33.8746 22.5728L34.447 22.4705C37.3454 21.8969 40.2438 21.2794 43.1422 20.6948C46.1312 20.092 49.1057 19.5987 51.9751 20.9469C52.1454 21.0273 52.3374 21.115 52.4932 21.2027C53.5014 22.2483 54.3943 23.401 55.1561 24.6408C56.4568 27.9656 57.8951 31.2173 59.1414 34.5897L59.1849 34.7175C60.6993 40.7314 61.5145 47.14 61.1775 53.3256C60.5326 64.9223 54.0293 76.2267 42.8741 80.3809Z" fill="#1F1E1C"/>
</g>
<defs>
<clipPath id="clip0">
<rect width="71" height="83" fill="white"/>
</clipPath>
</defs>
</svg>
