<?xml version="1.0" standalone="no"?>
<!DOCTYPE svg PUBLIC "-//W3C//DTD SVG 20010904//EN"
 "http://www.w3.org/TR/2001/REC-SVG-20010904/DTD/svg10.dtd">
<svg version="1.0" xmlns="http://www.w3.org/2000/svg"
 width="521.000000pt" height="196.000000pt" viewBox="0 0 521.000000 196.000000"
 preserveAspectRatio="xMidYMid meet">

<g transform="translate(0.000000,196.000000) scale(0.100000,-0.100000)"
fill="#8360af" stroke="none">
<path d="M3070 1797 c0 -31 27 -50 72 -51 47 -1 88 22 88 51 0 19 -23 16 -43
-7 -9 -11 -28 -20 -42 -20 -14 0 -29 8 -35 20 -12 22 -40 27 -40 7z"/>
<path d="M553 1351 l-403 -406 409 -409 408 -409 189 192 189 191 5 202 5 203
109 35 109 36 22 77 c12 42 19 74 14 72 -4 -3 -10 -19 -14 -35 -4 -17 -18 -38
-31 -47 -27 -17 -131 -42 -181 -43 l-33 0 0 188 0 187 -188 188 c-103 103
-192 186 -197 185 -6 0 -191 -184 -412 -407z m594 177 l173 -173 0 -174 0
-174 -45 5 c-24 3 -66 1 -92 -4 -50 -9 -192 -12 -200 -4 -3 3 2 44 10 92 17
105 -3 95 -23 -11 -12 -64 -13 -65 -46 -65 -35 0 -64 28 -64 63 0 10 -4 15
-10 12 -5 -3 -10 -14 -10 -24 0 -10 -11 -28 -25 -41 l-24 -23 39 -46 c35 -43
45 -48 117 -65 43 -10 108 -28 145 -40 l67 -22 6 35 c6 32 67 111 86 111 3 0
6 -17 5 -37 -1 -36 1 -38 29 -38 l30 -1 3 -179 2 -179 -92 -93 c-51 -51 -97
-91 -103 -89 -5 2 -25 -3 -44 -10 -49 -20 -53 -18 -30 20 l20 34 -37 7 c-50 9
-144 51 -171 77 -22 20 -51 139 -41 169 3 8 23 -17 46 -56 73 -121 69 -118
145 -110 l66 7 -54 37 c-68 45 -205 161 -205 173 0 11 2 10 100 -55 l75 -49
-45 41 c-25 22 -41 40 -36 41 5 0 43 -19 85 -42 l76 -41 -57 65 c-32 37 -58
71 -58 76 0 13 75 26 90 17 7 -4 20 -21 31 -39 10 -17 19 -25 19 -18 0 6 4 12
8 12 5 0 14 -30 22 -67 l14 -68 8 40 c4 22 10 50 13 62 4 18 2 21 -11 16 -14
-5 -15 0 -9 44 l6 50 -53 21 c-29 12 -98 32 -153 46 -96 24 -101 27 -146 78
l-47 53 19 -60 c34 -102 35 -135 5 -178 -14 -21 -26 -46 -26 -56 0 -26 23 -78
75 -173 25 -45 43 -83 40 -86 -10 -11 -76 63 -100 112 -34 68 -31 49 10 -74
19 -58 34 -108 33 -112 -2 -5 -48 37 -102 91 l-100 100 17 38 c9 21 28 83 42
138 14 55 32 106 40 114 12 13 13 3 8 -75 l-6 -89 20 25 c36 48 53 79 53 102
0 26 -34 156 -44 165 -8 8 -82 -26 -101 -47 -9 -9 -25 -63 -35 -120 -26 -132
-41 -190 -49 -190 -3 0 -80 74 -171 165 l-165 165 375 375 c206 206 377 375
380 375 3 0 82 -78 177 -172z"/>
<path d="M843 1458 c-24 -17 -43 -38 -43 -45 0 -8 16 2 35 22 20 19 47 38 60
41 40 10 90 -4 119 -33 14 -14 26 -21 26 -15 0 6 -14 22 -31 36 -45 38 -110
36 -166 -6z"/>
<path d="M861 1434 c-17 -14 -31 -32 -31 -39 0 -8 -6 -20 -13 -27 -8 -7 -17
-27 -21 -43 -6 -24 -5 -28 5 -17 21 20 29 14 29 -22 0 -19 4 -37 9 -41 5 -3
10 -29 10 -58 0 -37 7 -65 26 -99 37 -66 75 -76 75 -20 0 15 4 42 9 60 9 30 8
32 -17 32 -28 0 -72 24 -72 40 0 5 15 14 34 20 28 9 40 8 66 -5 17 -9 35 -13
40 -10 5 3 12 26 16 52 6 43 5 48 -22 70 -34 27 -49 29 -40 7 5 -12 2 -15 -10
-10 -8 3 -23 6 -31 6 -14 0 -13 3 3 22 l19 22 -25 -15 c-26 -17 -80 -33 -80
-24 0 8 82 45 100 45 9 0 20 -4 26 -9 14 -13 74 -24 74 -13 0 5 -9 17 -20 27
-11 10 -17 21 -15 26 3 4 -7 17 -21 28 -37 29 -85 27 -123 -5z m132 -13 c5 -5
-14 -6 -41 -3 -28 2 -59 -1 -71 -8 -13 -6 -25 -9 -28 -6 -3 3 9 12 28 21 33
15 95 12 112 -4z m-29 -20 c3 -5 -9 -11 -27 -13 -17 -3 -41 -9 -52 -13 -20 -8
-20 -8 -1 13 19 22 70 30 80 13z m-21 -118 c-7 -2 -19 -2 -25 0 -7 3 -2 5 12
5 14 0 19 -2 13 -5z"/>
<path d="M1040 1274 c0 -12 10 -34 22 -49 19 -24 22 -25 31 -10 7 13 2 24 -22
48 -28 29 -31 30 -31 11z"/>
<path d="M766 1200 l-28 -51 27 -35 c38 -49 60 -43 56 17 -1 25 -8 63 -15 83
l-13 36 -27 -50z"/>
<path d="M1020 1144 c0 -48 62 -111 118 -119 l42 -7 0 34 c0 33 -16 55 -72 97
-15 11 -16 9 -11 -24 l6 -37 -27 17 c-15 10 -33 30 -41 44 l-14 26 -1 -31z"/>
<path d="M2130 1555 c0 -158 1 -165 20 -165 19 0 20 7 20 110 0 61 3 110 8
110 4 0 31 -41 60 -90 29 -50 58 -90 65 -90 7 0 38 44 69 98 l58 97 0 -117 0
-118 25 0 25 0 0 165 c0 165 0 165 -22 165 -18 -1 -36 -23 -86 -110 -35 -61
-67 -108 -72 -105 -4 3 -36 52 -70 110 -44 74 -68 105 -81 105 -18 0 -19 -10
-19 -165z"/>
<path d="M2650 1699 c-54 -32 -74 -65 -78 -134 -3 -50 0 -66 20 -95 13 -19 39
-45 58 -58 48 -32 149 -29 199 7 37 27 70 90 71 136 0 45 -40 116 -79 142 -46
31 -140 32 -191 2z m164 -40 c56 -44 70 -110 36 -166 -50 -83 -174 -83 -216
-1 -33 65 -13 141 45 173 39 21 104 19 135 -6z"/>
<path d="M3010 1555 c0 -165 0 -165 23 -165 16 1 45 31 112 120 50 66 93 120
98 120 4 0 7 -54 7 -120 0 -113 1 -120 20 -120 19 0 20 7 20 165 0 165 0 165
-22 165 -17 -1 -45 -30 -113 -120 -49 -66 -93 -120 -97 -120 -5 0 -8 54 -8
120 0 113 -1 120 -20 120 -19 0 -20 -7 -20 -165z"/>
<path d="M1744 1455 c-19 -29 -15 -39 10 -29 9 3 16 17 16 30 0 31 -5 30 -26
-1z"/>
<path d="M1789 1444 c-10 -12 -9 -18 5 -32 15 -15 18 -15 26 -2 5 8 10 20 10
26 0 19 -28 24 -41 8z"/>
<path d="M1751 1358 c1 -29 3 -44 6 -33 3 11 9 24 14 29 5 6 4 15 -3 24 -9 10
-8 16 3 23 11 7 11 9 -3 9 -15 0 -18 -9 -17 -52z"/>
<path d="M1685 1301 c-22 -46 -42 -88 -44 -93 -2 -5 16 0 38 12 50 25 53 31
49 106 l-3 59 -40 -84z"/>
<path d="M3660 1220 c0 -5 9 -19 20 -30 36 -36 140 -17 140 26 0 18 -24 18
-40 -1 -7 -8 -26 -15 -42 -15 -16 0 -31 6 -34 15 -7 17 -44 21 -44 5z"/>
<path d="M4946 1218 c21 -37 39 -48 80 -48 35 0 47 5 64 28 20 25 20 27 4 31
-9 1 -21 -4 -26 -13 -12 -21 -76 -22 -84 -1 -4 8 -15 15 -26 15 -12 0 -17 -4
-12 -12z"/>
<path d="M1871 1063 l-1 -153 54 0 55 0 -48 138 c-26 75 -50 144 -54 152 -3 8
-6 -54 -6 -137z"/>
<path d="M1812 1043 c-23 -75 -40 -138 -39 -140 2 -1 19 0 39 3 l35 6 7 130
c4 72 5 132 3 134 -2 2 -22 -58 -45 -133z"/>
<path d="M1658 1157 c-33 -13 -33 -13 -12 -63 l16 -39 19 50 c27 72 27 72 -23
52z"/>
<path d="M2190 1128 c-102 -52 -119 -192 -34 -272 56 -51 163 -58 219 -14 24
19 25 22 11 36 -13 13 -17 13 -40 -1 -32 -21 -98 -22 -136 -2 -85 44 -75 183
15 221 46 19 63 18 110 -6 29 -15 42 -17 52 -9 21 18 16 26 -30 48 -56 27
-112 27 -167 -1z"/>
<path d="M2480 985 l0 -165 120 0 c113 0 120 1 120 20 0 19 -7 20 -95 20 l-95
0 0 50 0 50 80 0 c73 0 80 2 80 20 0 18 -7 20 -80 20 l-80 0 0 55 0 55 90 0
c83 0 90 1 90 20 0 19 -7 20 -115 20 l-115 0 0 -165z"/>
<path d="M2810 985 c0 -157 1 -165 20 -165 18 0 20 8 22 113 l3 112 55 -92
c31 -52 62 -93 70 -93 9 0 39 39 70 92 l55 93 3 -113 c3 -112 3 -112 27 -112
l25 0 0 166 c0 165 0 165 -22 162 -16 -2 -40 -33 -89 -117 l-67 -114 -68 117
c-98 165 -104 162 -104 -49z"/>
<path d="M3270 985 l0 -165 120 0 c113 0 120 1 120 20 0 19 -7 20 -95 20 l-95
0 0 50 0 50 85 0 c78 0 85 2 85 20 0 17 -8 19 -82 22 l-83 3 0 50 0 50 93 3
c84 2 92 4 92 22 0 19 -7 20 -120 20 l-120 0 0 -165z"/>
<path d="M3600 985 l0 -165 24 0 c19 0 44 26 117 122 l94 122 3 -122 3 -122
24 0 25 0 0 165 0 165 -24 0 c-18 0 -44 -28 -120 -126 l-96 -127 0 127 0 126
-25 0 -25 0 0 -165z"/>
<path d="M4000 985 l0 -165 25 0 c24 0 25 2 25 70 l0 70 95 0 95 0 0 -70 c0
-68 1 -70 25 -70 l25 0 0 165 0 165 -25 0 c-23 0 -24 -3 -27 -72 l-3 -73 -92
-3 -93 -3 0 76 c0 73 -1 75 -25 75 l-25 0 0 -165z"/>
<path d="M4400 985 l0 -165 95 0 c64 0 105 5 124 14 67 35 68 146 2 181 -19 9
-56 15 -101 15 l-70 0 0 60 c0 57 -1 60 -25 60 l-25 0 0 -165z m200 -15 c25
-25 26 -61 2 -90 -14 -17 -32 -23 -85 -27 l-67 -6 0 72 0 71 65 0 c52 0 69 -4
85 -20z"/>
<path d="M4720 985 l0 -165 25 0 25 0 0 165 0 165 -25 0 -25 0 0 -165z"/>
<path d="M4880 984 l0 -165 27 3 c22 2 47 28 118 120 l90 118 3 -120 3 -120
24 0 25 0 0 165 c0 165 0 165 -22 165 -17 -1 -45 -30 -113 -120 -49 -65 -93
-119 -97 -120 -5 0 -8 54 -8 120 l0 120 -25 0 -25 0 0 -166z"/>
<path d="M1614 1046 c-10 -57 -8 -61 20 -50 19 7 20 38 3 78 -12 28 -12 28
-23 -28z"/>
<path d="M1657 986 c-4 -9 -17 -18 -30 -21 -20 -5 -26 -16 -35 -69 -18 -96
-22 -91 68 -93 44 -1 80 -1 80 1 0 6 -71 190 -74 194 -2 1 -6 -4 -9 -12z"/>
<path d="M1551 846 c-14 -56 -14 -56 2 -51 10 5 24 95 13 95 -2 0 -9 -20 -15
-44z"/>
<path d="M1795 881 c-16 -7 -8 -11 37 -21 47 -11 66 -11 100 0 37 11 40 14 23
21 -26 10 -134 10 -160 0z"/>
<path d="M1580 782 c0 -18 43 -42 76 -42 38 0 94 19 94 31 0 5 -11 9 -24 9
-12 0 -51 3 -85 6 -41 5 -61 3 -61 -4z"/>
<path d="M2350 569 c-44 -13 -98 -65 -108 -104 -7 -25 -13 -30 -38 -30 -29 0
-29 0 -32 68 -3 59 -5 67 -22 67 -19 0 -20 -8 -20 -165 0 -157 1 -165 20 -165
17 0 19 8 22 73 3 72 3 72 31 72 24 0 31 -6 42 -38 23 -68 79 -107 153 -107
110 0 184 86 168 195 -7 45 -48 105 -85 124 -28 15 -95 20 -131 10z m110 -54
c58 -30 77 -112 40 -172 -21 -35 -66 -63 -102 -63 -56 0 -118 69 -118 131 0
34 31 89 59 104 34 19 85 19 121 0z"/>
<path d="M3515 573 c-51 -12 -87 -38 -112 -80 -21 -37 -25 -53 -21 -99 7 -88
61 -143 147 -152 61 -5 89 1 125 29 25 20 26 22 10 34 -15 10 -23 9 -48 -6
-79 -48 -186 11 -186 103 0 102 99 160 192 112 27 -14 32 -14 45 -1 14 13 12
17 -10 31 -44 30 -96 40 -142 29z"/>
<path d="M2660 405 l0 -165 25 0 c23 0 25 3 25 50 l0 50 48 0 c111 0 162 38
162 119 -1 85 -40 111 -169 111 l-91 0 0 -165z m195 100 c28 -27 30 -42 14
-79 -14 -29 -55 -46 -115 -46 l-44 0 0 75 0 75 60 0 c51 0 65 -4 85 -25z"/>
<path d="M3000 405 l0 -165 24 0 c18 0 44 27 117 123 l94 122 3 -122 3 -123
24 0 25 0 0 165 0 165 -24 0 c-18 0 -44 -27 -117 -122 l-94 -123 -3 123 -3
122 -24 0 -25 0 0 -165z"/>
<path d="M3710 550 c0 -18 7 -20 55 -20 l55 0 0 -145 0 -145 25 0 25 0 0 145
0 145 55 0 c48 0 55 2 55 20 0 19 -7 20 -135 20 -128 0 -135 -1 -135 -20z"/>
</g>
</svg>
