<svg width="125" height="47" viewBox="0 0 125 47" fill="none" xmlns="http://www.w3.org/2000/svg">
<path d="M38.4565 5.78729C34.0405 1.89229 28.3059 -0.173197 22.4205 0.0113734C16.535 0.195944 10.9412 2.61669 6.77786 6.78075C2.61454 10.9448 0.194777 16.5391 0.0112457 22.4246C-0.172286 28.31 1.89421 34.0442 5.78999 38.4596L7.33614 37.0954C3.78742 33.0734 1.90501 27.85 2.07219 22.4888C2.23937 17.1277 4.44357 12.0317 8.23601 8.23864C12.0284 4.44554 17.124 2.24044 22.4851 2.07231C27.8463 1.90418 33.0699 3.78566 37.0926 7.33368L38.4565 5.78729Z" fill="#8360af"/>
<path d="M7.78018 40.4558C12.1785 44.3601 17.8981 46.4437 23.7771 46.2834C29.6561 46.123 35.2536 43.7307 39.4326 39.5924C43.6115 35.4541 46.0583 29.8802 46.2761 24.0031C46.4939 18.1259 44.4662 12.3862 40.605 7.94999L39.0497 9.30372C42.5669 13.3447 44.414 18.5731 44.2156 23.9267C44.0172 29.2803 41.7883 34.3577 37.9817 38.1273C34.175 41.8969 29.0762 44.0761 23.7209 44.2222C18.3656 44.3683 13.1555 42.4703 9.14903 38.9137L7.78018 40.4558Z" fill="#8360af"/>
<path d="M9.03501 11.0564C6.93332 13.5095 5.50745 16.4682 4.89807 19.6405C4.28869 22.8128 4.51685 26.0892 5.56005 29.1464C6.60324 32.2036 8.42543 34.9361 10.8468 37.0742C13.2683 39.2123 16.2053 40.6823 19.3681 41.339L19.7815 39.3483C16.9647 38.7634 14.3491 37.4543 12.1926 35.5502C10.0361 33.646 8.41331 31.2125 7.48427 28.4898C6.55522 25.7671 6.35202 22.8492 6.89472 20.024C7.43742 17.1988 8.70727 14.5639 10.579 12.3792L9.03501 11.0564Z" fill="#8360af"/>
<path d="M35.191 8.99741C31.8404 6.14484 27.5862 4.57397 23.1858 4.5645C18.7853 4.55502 14.5244 6.10755 11.1615 8.94567L12.4728 10.4994C15.4677 7.97186 19.2625 6.58921 23.1814 6.59765C27.1003 6.60608 30.8891 8.00507 33.8731 10.5455L35.191 8.99741Z" fill="#8360af"/>
<path d="M26.6562 41.3924C29.8344 40.781 32.7979 39.3499 35.2531 37.241C37.7082 35.1321 39.57 32.4185 40.654 29.3689C41.7379 26.3192 42.0065 23.0393 41.4331 19.854C40.8598 16.6686 39.4643 13.6882 37.3849 11.208L35.8269 12.5142C37.6787 14.7231 38.9215 17.3773 39.4321 20.2141C39.9428 23.051 39.7036 25.972 38.7382 28.6879C37.7729 31.4039 36.1148 33.8206 33.9283 35.6987C31.7418 37.5769 29.1026 38.8513 26.2721 39.3959L26.6562 41.3924Z" fill="#8360af"/>
<path d="M14.5642 34.1969C16.5331 35.7259 18.8747 36.7011 21.3468 37.0217C23.819 37.3423 26.3319 36.9965 28.6256 36.0203C30.9193 35.044 32.9106 33.4727 34.3934 31.4688C35.8762 29.465 36.7968 27.1013 37.0598 24.6224L34.9813 24.4019C34.7575 26.5105 33.9745 28.521 32.7132 30.2255C31.4519 31.9301 29.7581 33.2667 27.807 34.0971C25.856 34.9275 23.7185 35.2216 21.6156 34.9489C19.5128 34.6762 17.521 33.8467 15.8462 32.5461L14.5642 34.1969Z" fill="#8360af"/>
<path d="M15.4158 17.8374C14.0895 19.7688 13.5342 22.1266 13.8592 24.4468C14.1842 26.7671 15.366 28.8816 17.1719 30.3742C18.9778 31.8668 21.277 32.6293 23.6169 32.5117C25.9568 32.394 28.1679 31.4048 29.815 29.7386C31.4621 28.0724 32.4258 25.85 32.5165 23.5088C32.6071 21.1677 31.8181 18.8775 30.3048 17.0889C28.7915 15.3003 26.6635 14.143 24.3397 13.8448C22.0158 13.5466 19.6645 14.1291 17.7486 15.4776L18.9145 17.134C20.4165 16.0768 22.26 15.6201 24.0818 15.8539C25.9037 16.0877 27.5721 16.995 28.7585 18.3972C29.945 19.7995 30.5635 21.595 30.4925 23.4305C30.4214 25.2659 29.6658 27.0083 28.3745 28.3146C27.0832 29.6209 25.3497 30.3965 23.5152 30.4887C21.6807 30.5809 19.8781 29.9831 18.4623 28.8129C17.0465 27.6427 16.12 25.9849 15.8652 24.1659C15.6104 22.3468 16.0457 20.4983 17.0856 18.9841L15.4158 17.8374Z" fill="#8360af"/>
<path d="M25.0799 18.7931C24.0671 18.3431 22.9292 18.2604 21.862 18.5591C20.7948 18.8579 19.8652 19.5194 19.2332 20.4297C18.6012 21.3401 18.3065 22.4423 18.3997 23.5466C18.4929 24.6509 18.9683 25.6881 19.7439 26.4797C20.5195 27.2712 21.5469 27.7675 22.649 27.8831C23.7512 27.9988 24.8592 27.7265 25.7822 27.1131C26.7052 26.4997 27.3854 25.5838 27.7058 24.5228C28.0261 23.4619 27.9665 22.3225 27.5372 21.3009L25.6762 22.0828C25.9236 22.6715 25.9579 23.328 25.7733 23.9393C25.5887 24.5506 25.1968 25.0784 24.665 25.4318C24.1331 25.7852 23.4947 25.9421 22.8596 25.8755C22.2246 25.8089 21.6326 25.5229 21.1857 25.0668C20.7388 24.6108 20.4649 24.0131 20.4112 23.3768C20.3575 22.7405 20.5273 22.1054 20.8914 21.5809C21.2556 21.0563 21.7912 20.6752 22.4061 20.5031C23.0211 20.3309 23.6767 20.3786 24.2603 20.6379L25.0799 18.7931Z" fill="#8360af"/>
<path d="M37.0381 21.4779C36.7804 19.3317 36.0289 17.2744 34.8425 15.4673C33.6562 13.6603 32.0673 12.1527 30.2005 11.0628C28.3337 9.97295 26.2398 9.33044 24.083 9.1857C21.9262 9.04096 19.7651 9.39792 17.7695 10.2286C15.7738 11.0592 13.9977 12.341 12.5805 13.9733C11.1634 15.6057 10.1437 17.5441 9.60156 19.6367C9.05937 21.7292 9.00941 23.919 9.45559 26.0341C9.90177 28.1492 10.832 30.1322 12.1732 31.8274L13.8124 30.5306C12.6715 29.0885 11.8803 27.4018 11.5008 25.6027C11.1212 23.8035 11.1637 21.9409 11.6249 20.1609C12.0861 18.381 12.9534 16.7321 14.1589 15.3436C15.3643 13.9551 16.8751 12.8648 18.5726 12.1583C20.2702 11.4517 22.1084 11.1481 23.943 11.2712C25.7776 11.3943 27.5588 11.9408 29.1467 12.8679C30.7346 13.795 32.0861 15.0773 33.0952 16.6144C34.1044 18.1515 34.7436 19.9015 34.9628 21.7271L37.0381 21.4779Z" fill="#8360af"/>
<rect x="22.1284" y="1.41406" width="2.03427" height="8.16188" fill="#8360af"/>
<rect x="22.1284" y="27.0161" width="2.03427" height="4.41585" fill="#8360af"/>
<rect x="22.1284" y="36.6914" width="2.03427" height="4.8624" fill="#8360af"/>
<rect x="5.9541" y="24.1631" width="2.03427" height="4.8624" transform="rotate(-90 5.9541 24.1631)" fill="#8360af"/>
<rect x="40.7847" y="24.1631" width="2.03427" height="4.8624" transform="rotate(-90 40.7847 24.1631)" fill="#8360af"/>
<rect x="31.5063" y="32.8701" width="2.03427" height="4.8624" transform="rotate(-45 31.5063 32.8701)" fill="#8360af"/>
<rect x="29.4717" y="18.2979" width="2.03427" height="4.8624" transform="rotate(-135 29.4717 18.2979)" fill="#8360af"/>
<path d="M11.6956 34.1089C14.2352 36.7615 17.6168 38.4501 21.2631 38.8863L21.3894 37.8304C17.9878 37.4235 14.8329 35.8482 12.4637 33.3736L11.6956 34.1089Z" fill="#8360af"/>
<path d="M38.9186 23.5662C38.9762 21.4011 38.5875 19.2474 37.7767 17.2391C36.9658 15.2308 35.7502 13.4109 34.2055 11.8929L33.4636 12.6477C34.9047 14.064 36.0388 15.7618 36.7952 17.6354C37.5517 19.5089 37.9143 21.5182 37.8605 23.538L38.9186 23.5662Z" fill="#8360af"/>
<path d="M8.53175 37.4391C11.9003 40.8834 16.3771 43.0273 21.1722 43.4925L21.2804 42.3775C16.748 41.9378 12.5166 39.9114 9.33264 36.6559L8.53175 37.4391Z" fill="#8360af"/>
<path d="M15.1295 30.9865C16.6651 32.5566 18.6279 33.6412 20.7744 34.1057C22.9208 34.5703 25.1565 34.3943 27.2038 33.5996C29.2511 32.8049 31.02 31.4265 32.291 29.6354C33.5619 27.8444 34.2789 25.7196 34.3531 23.5247L33.2975 23.489C33.2303 25.4772 32.5808 27.4018 31.4296 29.0242C30.2784 30.6465 28.6761 31.8951 26.8216 32.6149C24.9671 33.3348 22.9421 33.4942 20.9978 33.0734C19.0535 32.6526 17.2756 31.6702 15.8846 30.248L15.1295 30.9865Z" fill="#8360af"/>
<path d="M38.8249 22.5011L38.8993 23.5679H33.2927V22.5011H38.8249Z" fill="#8360af"/>
<path d="M15.6215 29.9962L16.3788 30.7227L12.3647 34.7616L11.5856 34.0073L15.6215 29.9962Z" fill="#8360af"/>
<path d="M39.2027 6.41504L39.9676 7.18358L34.0035 13.1725L33.2183 12.4242L39.2027 6.41504Z" fill="#8360af"/>
<path d="M9.0855 36.3977L9.83783 37.154L7.12618 39.8905L6.35107 39.1322L9.0855 36.3977Z" fill="#8360af"/>
<path d="M20.4814 37.7561L21.5507 37.8445L21.217 43.4908L20.1521 43.3529L20.4814 37.7561Z" fill="#8360af"/>
<mask id="path-18-outside-1" maskUnits="userSpaceOnUse" x="49.4019" y="2.64209" width="75" height="39" fill="black">
<rect fill="white" x="49.4019" y="2.64209" width="75" height="39"/>
<path d="M58.3719 13.6442L58.3606 7.88676L55.5045 12.6846H54.9852L52.1291 7.92063V13.6442H51.0453V5.74185H51.971L55.2674 11.2961L58.5187 5.74185H59.4444L59.4557 13.6442H58.3719Z"/>
<path d="M65.8101 13.7345C65.0124 13.7345 64.2937 13.5614 63.6539 13.2152C63.0142 12.8615 62.51 12.376 62.1412 11.7589C61.78 11.1418 61.5993 10.4531 61.5993 9.69301C61.5993 8.93288 61.78 8.24425 62.1412 7.62712C62.51 7.00998 63.0142 6.52832 63.6539 6.18212C64.2937 5.8284 65.0124 5.65154 65.8101 5.65154C66.6004 5.65154 67.3153 5.8284 67.9551 6.18212C68.5948 6.52832 69.0953 7.00998 69.4565 7.62712C69.8178 8.23672 69.9984 8.92536 69.9984 9.69301C69.9984 10.4607 69.8178 11.1531 69.4565 11.7702C69.0953 12.3798 68.5948 12.8615 67.9551 13.2152C67.3153 13.5614 66.6004 13.7345 65.8101 13.7345ZM65.8101 12.7298C66.3896 12.7298 66.9089 12.5981 67.368 12.3346C67.8346 12.0712 68.1997 11.71 68.4631 11.2509C68.734 10.7843 68.8695 10.265 68.8695 9.69301C68.8695 9.12103 68.734 8.6055 68.4631 8.14641C68.1997 7.6798 67.8346 7.31479 67.368 7.05138C66.9089 6.78797 66.3896 6.65626 65.8101 6.65626C65.2306 6.65626 64.7038 6.78797 64.2297 7.05138C63.7631 7.31479 63.3943 7.6798 63.1234 8.14641C62.8599 8.6055 62.7282 9.12103 62.7282 9.69301C62.7282 10.265 62.8599 10.7843 63.1234 11.2509C63.3943 11.71 63.7631 12.0712 64.2297 12.3346C64.7038 12.5981 65.2306 12.7298 65.8101 12.7298Z"/>
<path d="M72.162 5.74185H73.2796V11.8379L77.9533 5.74185H78.9918V13.6442H77.8855V7.55938L73.2006 13.6442H72.162V5.74185ZM75.56 5.18869C74.9429 5.18869 74.465 5.05698 74.1263 4.79357C73.7951 4.52263 73.6258 4.13881 73.6183 3.64209H74.4198C74.4273 3.9356 74.5289 4.16515 74.7246 4.33072C74.9278 4.48877 75.2063 4.56779 75.56 4.56779C75.8987 4.56779 76.1696 4.48877 76.3728 4.33072C76.5835 4.16515 76.6927 3.9356 76.7002 3.64209H77.4904C77.4829 4.13128 77.3098 4.51135 76.9711 4.78228C76.64 5.05322 76.1696 5.18869 75.56 5.18869Z"/>
<path d="M54.5788 27.503C53.7886 27.503 53.0736 27.3299 52.4339 26.9837C51.8017 26.63 51.305 26.1483 50.9437 25.5387C50.5825 24.9216 50.4019 24.2292 50.4019 23.4615C50.4019 22.6939 50.5825 22.0052 50.9437 21.3956C51.305 20.7785 51.8055 20.2968 52.4452 19.9506C53.0849 19.5969 53.7999 19.4201 54.5901 19.4201C55.2072 19.4201 55.7717 19.5254 56.2834 19.7361C56.7952 19.9394 57.2317 20.2442 57.593 20.6506L56.8592 21.3618C56.2646 20.7371 55.5233 20.4248 54.6352 20.4248C54.0482 20.4248 53.5176 20.5565 53.0435 20.8199C52.5693 21.0833 52.1968 21.4483 51.9259 21.9149C51.6625 22.374 51.5308 22.8895 51.5308 23.4615C51.5308 24.0335 51.6625 24.5528 51.9259 25.0194C52.1968 25.4785 52.5693 25.8397 53.0435 26.1032C53.5176 26.3666 54.0482 26.4983 54.6352 26.4983C55.5158 26.4983 56.2571 26.1822 56.8592 25.55L57.593 26.2612C57.2317 26.6676 56.7914 26.9762 56.2722 27.1869C55.7604 27.3976 55.1959 27.503 54.5788 27.503Z"/>
<path d="M65.2218 26.4305V27.4127H59.487V19.5104H65.0637V20.4925H60.6159V22.9197H64.5783V23.8792H60.6159V26.4305H65.2218Z"/>
<path d="M74.6599 27.4127L74.6486 21.6553L71.7924 26.4531H71.2732L68.417 21.6891V27.4127H67.3333V19.5104H68.259L71.5554 25.0646L74.8066 19.5104H75.7323L75.7436 27.4127H74.6599Z"/>
<path d="M84.2769 26.4305V27.4127H78.5421V19.5104H84.1188V20.4925H79.671V22.9197H83.6334V23.8792H79.671V26.4305H84.2769Z"/>
<path d="M86.3884 19.5104H87.506V25.6064L92.1796 19.5104H93.2182V27.4127H92.1119V21.3279L87.427 27.4127H86.3884V19.5104ZM89.7864 18.9572C89.1692 18.9572 88.6913 18.8255 88.3527 18.5621C88.0215 18.2912 87.8522 17.9073 87.8447 17.4106H88.6462C88.6537 17.7041 88.7553 17.9337 88.951 18.0992C89.1542 18.2573 89.4326 18.3363 89.7864 18.3363C90.125 18.3363 90.396 18.2573 90.5992 18.0992C90.8099 17.9337 90.919 17.7041 90.9266 17.4106H91.7168C91.7093 17.8998 91.5362 18.2799 91.1975 18.5508C90.8663 18.8217 90.396 18.9572 89.7864 18.9572Z"/>
<path d="M102.817 19.5104V27.4127H101.688V23.8905H97.1495V27.4127H96.0206V19.5104H97.1495V22.9084H101.688V19.5104H102.817Z"/>
<path d="M109.086 22.2649C110.026 22.2649 110.745 22.4756 111.242 22.8971C111.746 23.3185 111.998 23.9394 111.998 24.7598C111.998 25.6253 111.727 26.2838 111.185 26.7353C110.651 27.1869 109.883 27.4127 108.882 27.4127H105.62V19.5104H106.737V22.2649H109.086ZM108.837 26.5209C109.492 26.5209 109.992 26.3741 110.339 26.0806C110.692 25.7795 110.869 25.3468 110.869 24.7823C110.869 23.6986 110.192 23.1567 108.837 23.1567H106.737V26.5209H108.837ZM113.251 19.5104H114.369V27.4127H113.251V19.5104Z"/>
<path d="M117.17 19.5104H118.288V25.6064L122.962 19.5104H124V27.4127H122.894V21.3279L118.209 27.4127H117.17V19.5104ZM120.568 18.9572C119.951 18.9572 119.473 18.8255 119.135 18.5621C118.804 18.2912 118.634 17.9073 118.627 17.4106H119.428C119.436 17.7041 119.537 17.9337 119.733 18.0992C119.936 18.2573 120.215 18.3363 120.568 18.3363C120.907 18.3363 121.178 18.2573 121.381 18.0992C121.592 17.9337 121.701 17.7041 121.709 17.4106H122.499C122.491 17.8998 122.318 18.2799 121.979 18.5508C121.648 18.8217 121.178 18.9572 120.568 18.9572Z"/>
<path d="M57.593 33.1886C58.3531 33.1886 59.038 33.3654 59.6476 33.7192C60.2572 34.0654 60.7351 34.547 61.0813 35.1642C61.435 35.7738 61.6119 36.4624 61.6119 37.23C61.6119 37.9977 61.435 38.6901 61.0813 39.3072C60.7351 39.9168 60.2572 40.3985 59.6476 40.7522C59.038 41.0984 58.3531 41.2715 57.593 41.2715C56.8855 41.2715 56.242 41.1172 55.6625 40.8087C55.083 40.5001 54.6127 40.0749 54.2514 39.533C53.8902 38.9911 53.6757 38.374 53.6079 37.6816H52.1629V41.1812H51.0453V33.2789H52.1629V36.6656H53.6192C53.702 35.9958 53.924 35.3975 54.2853 34.8706C54.6541 34.3438 55.1244 33.9336 55.6964 33.6401C56.2684 33.3391 56.9006 33.1886 57.593 33.1886ZM57.593 40.2555C58.1348 40.2555 58.624 40.1276 59.0605 39.8717C59.5046 39.6083 59.8508 39.247 60.0991 38.7879C60.355 38.3288 60.483 37.8096 60.483 37.23C60.483 36.6505 60.355 36.1312 60.0991 35.6722C59.8508 35.2131 59.5046 34.8556 59.0605 34.5997C58.624 34.3363 58.1348 34.2046 57.593 34.2046C57.0586 34.2046 56.5732 34.3363 56.1367 34.5997C55.7002 34.8556 55.354 35.2131 55.0981 35.6722C54.8497 36.1312 54.7256 36.6505 54.7256 37.23C54.7256 37.8096 54.8497 38.3288 55.0981 38.7879C55.354 39.247 55.7002 39.6083 56.1367 39.8717C56.5732 40.1276 57.0586 40.2555 57.593 40.2555Z"/>
<path d="M66.8684 33.2789C67.8919 33.2789 68.6972 33.5235 69.2843 34.0127C69.8713 34.5019 70.1648 35.1754 70.1648 36.0334C70.1648 36.8914 69.8713 37.565 69.2843 38.0541C68.6972 38.5433 67.8919 38.7879 66.8684 38.7879H64.9154V41.1812H63.7865V33.2789H66.8684ZM66.8345 37.8058C67.5495 37.8058 68.0951 37.6553 68.4714 37.3542C68.8477 37.0457 69.0359 36.6054 69.0359 36.0334C69.0359 35.4614 68.8477 35.0249 68.4714 34.7239C68.0951 34.4153 67.5495 34.261 66.8345 34.261H64.9154V37.8058H66.8345Z"/>
<path d="M72.0738 33.2789H73.1914V39.375L77.8651 33.2789H78.9037V41.1812H77.7973V35.0964L73.1124 41.1812H72.0738V33.2789Z"/>
<path d="M85.2395 41.2715C84.4493 41.2715 83.7343 41.0984 83.0946 40.7522C82.4624 40.3985 81.9657 39.9168 81.6045 39.3072C81.2432 38.6901 81.0626 37.9977 81.0626 37.23C81.0626 36.4624 81.2432 35.7738 81.6045 35.1642C81.9657 34.547 82.4662 34.0654 83.1059 33.7192C83.7456 33.3654 84.4606 33.1886 85.2508 33.1886C85.868 33.1886 86.4324 33.2939 86.9442 33.5047C87.4559 33.7079 87.8925 34.0127 88.2537 34.4191L87.5199 35.1303C86.9254 34.5056 86.1841 34.1933 85.296 34.1933C84.709 34.1933 84.1784 34.325 83.7042 34.5884C83.2301 34.8518 82.8576 35.2168 82.5866 35.6834C82.3232 36.1425 82.1915 36.6581 82.1915 37.23C82.1915 37.802 82.3232 38.3213 82.5866 38.7879C82.8576 39.247 83.2301 39.6083 83.7042 39.8717C84.1784 40.1351 84.709 40.2668 85.296 40.2668C86.1765 40.2668 86.9178 39.9507 87.5199 39.3185L88.2537 40.0297C87.8925 40.4361 87.4522 40.7447 86.9329 40.9554C86.4211 41.1662 85.8567 41.2715 85.2395 41.2715Z"/>
<path d="M95.4895 34.261H92.7802V41.1812H91.6738V34.261H88.9758V33.2789H95.4895V34.261Z"/>
</mask>
<path d="M58.3719 13.6442L58.3606 7.88676L55.5045 12.6846H54.9852L52.1291 7.92063V13.6442H51.0453V5.74185H51.971L55.2674 11.2961L58.5187 5.74185H59.4444L59.4557 13.6442H58.3719Z" fill="#8360af"/>
<path d="M65.8101 13.7345C65.0124 13.7345 64.2937 13.5614 63.6539 13.2152C63.0142 12.8615 62.51 12.376 62.1412 11.7589C61.78 11.1418 61.5993 10.4531 61.5993 9.69301C61.5993 8.93288 61.78 8.24425 62.1412 7.62712C62.51 7.00998 63.0142 6.52832 63.6539 6.18212C64.2937 5.8284 65.0124 5.65154 65.8101 5.65154C66.6004 5.65154 67.3153 5.8284 67.9551 6.18212C68.5948 6.52832 69.0953 7.00998 69.4565 7.62712C69.8178 8.23672 69.9984 8.92536 69.9984 9.69301C69.9984 10.4607 69.8178 11.1531 69.4565 11.7702C69.0953 12.3798 68.5948 12.8615 67.9551 13.2152C67.3153 13.5614 66.6004 13.7345 65.8101 13.7345ZM65.8101 12.7298C66.3896 12.7298 66.9089 12.5981 67.368 12.3346C67.8346 12.0712 68.1997 11.71 68.4631 11.2509C68.734 10.7843 68.8695 10.265 68.8695 9.69301C68.8695 9.12103 68.734 8.6055 68.4631 8.14641C68.1997 7.6798 67.8346 7.31479 67.368 7.05138C66.9089 6.78797 66.3896 6.65626 65.8101 6.65626C65.2306 6.65626 64.7038 6.78797 64.2297 7.05138C63.7631 7.31479 63.3943 7.6798 63.1234 8.14641C62.8599 8.6055 62.7282 9.12103 62.7282 9.69301C62.7282 10.265 62.8599 10.7843 63.1234 11.2509C63.3943 11.71 63.7631 12.0712 64.2297 12.3346C64.7038 12.5981 65.2306 12.7298 65.8101 12.7298Z" fill="#8360af"/>
<path d="M72.162 5.74185H73.2796V11.8379L77.9533 5.74185H78.9918V13.6442H77.8855V7.55938L73.2006 13.6442H72.162V5.74185ZM75.56 5.18869C74.9429 5.18869 74.465 5.05698 74.1263 4.79357C73.7951 4.52263 73.6258 4.13881 73.6183 3.64209H74.4198C74.4273 3.9356 74.5289 4.16515 74.7246 4.33072C74.9278 4.48877 75.2063 4.56779 75.56 4.56779C75.8987 4.56779 76.1696 4.48877 76.3728 4.33072C76.5835 4.16515 76.6927 3.9356 76.7002 3.64209H77.4904C77.4829 4.13128 77.3098 4.51135 76.9711 4.78228C76.64 5.05322 76.1696 5.18869 75.56 5.18869Z" fill="#8360af"/>
<path d="M54.5788 27.503C53.7886 27.503 53.0736 27.3299 52.4339 26.9837C51.8017 26.63 51.305 26.1483 50.9437 25.5387C50.5825 24.9216 50.4019 24.2292 50.4019 23.4615C50.4019 22.6939 50.5825 22.0052 50.9437 21.3956C51.305 20.7785 51.8055 20.2968 52.4452 19.9506C53.0849 19.5969 53.7999 19.4201 54.5901 19.4201C55.2072 19.4201 55.7717 19.5254 56.2834 19.7361C56.7952 19.9394 57.2317 20.2442 57.593 20.6506L56.8592 21.3618C56.2646 20.7371 55.5233 20.4248 54.6352 20.4248C54.0482 20.4248 53.5176 20.5565 53.0435 20.8199C52.5693 21.0833 52.1968 21.4483 51.9259 21.9149C51.6625 22.374 51.5308 22.8895 51.5308 23.4615C51.5308 24.0335 51.6625 24.5528 51.9259 25.0194C52.1968 25.4785 52.5693 25.8397 53.0435 26.1032C53.5176 26.3666 54.0482 26.4983 54.6352 26.4983C55.5158 26.4983 56.2571 26.1822 56.8592 25.55L57.593 26.2612C57.2317 26.6676 56.7914 26.9762 56.2722 27.1869C55.7604 27.3976 55.1959 27.503 54.5788 27.503Z" fill="#8360af"/>
<path d="M65.2218 26.4305V27.4127H59.487V19.5104H65.0637V20.4925H60.6159V22.9197H64.5783V23.8792H60.6159V26.4305H65.2218Z" fill="#8360af"/>
<path d="M74.6599 27.4127L74.6486 21.6553L71.7924 26.4531H71.2732L68.417 21.6891V27.4127H67.3333V19.5104H68.259L71.5554 25.0646L74.8066 19.5104H75.7323L75.7436 27.4127H74.6599Z" fill="#8360af"/>
<path d="M84.2769 26.4305V27.4127H78.5421V19.5104H84.1188V20.4925H79.671V22.9197H83.6334V23.8792H79.671V26.4305H84.2769Z" fill="#8360af"/>
<path d="M86.3884 19.5104H87.506V25.6064L92.1796 19.5104H93.2182V27.4127H92.1119V21.3279L87.427 27.4127H86.3884V19.5104ZM89.7864 18.9572C89.1692 18.9572 88.6913 18.8255 88.3527 18.5621C88.0215 18.2912 87.8522 17.9073 87.8447 17.4106H88.6462C88.6537 17.7041 88.7553 17.9337 88.951 18.0992C89.1542 18.2573 89.4326 18.3363 89.7864 18.3363C90.125 18.3363 90.396 18.2573 90.5992 18.0992C90.8099 17.9337 90.919 17.7041 90.9266 17.4106H91.7168C91.7093 17.8998 91.5362 18.2799 91.1975 18.5508C90.8663 18.8217 90.396 18.9572 89.7864 18.9572Z" fill="#8360af"/>
<path d="M102.817 19.5104V27.4127H101.688V23.8905H97.1495V27.4127H96.0206V19.5104H97.1495V22.9084H101.688V19.5104H102.817Z" fill="#8360af"/>
<path d="M109.086 22.2649C110.026 22.2649 110.745 22.4756 111.242 22.8971C111.746 23.3185 111.998 23.9394 111.998 24.7598C111.998 25.6253 111.727 26.2838 111.185 26.7353C110.651 27.1869 109.883 27.4127 108.882 27.4127H105.62V19.5104H106.737V22.2649H109.086ZM108.837 26.5209C109.492 26.5209 109.992 26.3741 110.339 26.0806C110.692 25.7795 110.869 25.3468 110.869 24.7823C110.869 23.6986 110.192 23.1567 108.837 23.1567H106.737V26.5209H108.837ZM113.251 19.5104H114.369V27.4127H113.251V19.5104Z" fill="#8360af"/>
<path d="M117.17 19.5104H118.288V25.6064L122.962 19.5104H124V27.4127H122.894V21.3279L118.209 27.4127H117.17V19.5104ZM120.568 18.9572C119.951 18.9572 119.473 18.8255 119.135 18.5621C118.804 18.2912 118.634 17.9073 118.627 17.4106H119.428C119.436 17.7041 119.537 17.9337 119.733 18.0992C119.936 18.2573 120.215 18.3363 120.568 18.3363C120.907 18.3363 121.178 18.2573 121.381 18.0992C121.592 17.9337 121.701 17.7041 121.709 17.4106H122.499C122.491 17.8998 122.318 18.2799 121.979 18.5508C121.648 18.8217 121.178 18.9572 120.568 18.9572Z" fill="#8360af"/>
<path d="M57.593 33.1886C58.3531 33.1886 59.038 33.3654 59.6476 33.7192C60.2572 34.0654 60.7351 34.547 61.0813 35.1642C61.435 35.7738 61.6119 36.4624 61.6119 37.23C61.6119 37.9977 61.435 38.6901 61.0813 39.3072C60.7351 39.9168 60.2572 40.3985 59.6476 40.7522C59.038 41.0984 58.3531 41.2715 57.593 41.2715C56.8855 41.2715 56.242 41.1172 55.6625 40.8087C55.083 40.5001 54.6127 40.0749 54.2514 39.533C53.8902 38.9911 53.6757 38.374 53.6079 37.6816H52.1629V41.1812H51.0453V33.2789H52.1629V36.6656H53.6192C53.702 35.9958 53.924 35.3975 54.2853 34.8706C54.6541 34.3438 55.1244 33.9336 55.6964 33.6401C56.2684 33.3391 56.9006 33.1886 57.593 33.1886ZM57.593 40.2555C58.1348 40.2555 58.624 40.1276 59.0605 39.8717C59.5046 39.6083 59.8508 39.247 60.0991 38.7879C60.355 38.3288 60.483 37.8096 60.483 37.23C60.483 36.6505 60.355 36.1312 60.0991 35.6722C59.8508 35.2131 59.5046 34.8556 59.0605 34.5997C58.624 34.3363 58.1348 34.2046 57.593 34.2046C57.0586 34.2046 56.5732 34.3363 56.1367 34.5997C55.7002 34.8556 55.354 35.2131 55.0981 35.6722C54.8497 36.1312 54.7256 36.6505 54.7256 37.23C54.7256 37.8096 54.8497 38.3288 55.0981 38.7879C55.354 39.247 55.7002 39.6083 56.1367 39.8717C56.5732 40.1276 57.0586 40.2555 57.593 40.2555Z" fill="#8360af"/>
<path d="M66.8684 33.2789C67.8919 33.2789 68.6972 33.5235 69.2843 34.0127C69.8713 34.5019 70.1648 35.1754 70.1648 36.0334C70.1648 36.8914 69.8713 37.565 69.2843 38.0541C68.6972 38.5433 67.8919 38.7879 66.8684 38.7879H64.9154V41.1812H63.7865V33.2789H66.8684ZM66.8345 37.8058C67.5495 37.8058 68.0951 37.6553 68.4714 37.3542C68.8477 37.0457 69.0359 36.6054 69.0359 36.0334C69.0359 35.4614 68.8477 35.0249 68.4714 34.7239C68.0951 34.4153 67.5495 34.261 66.8345 34.261H64.9154V37.8058H66.8345Z" fill="#8360af"/>
<path d="M72.0738 33.2789H73.1914V39.375L77.8651 33.2789H78.9037V41.1812H77.7973V35.0964L73.1124 41.1812H72.0738V33.2789Z" fill="#8360af"/>
<path d="M85.2395 41.2715C84.4493 41.2715 83.7343 41.0984 83.0946 40.7522C82.4624 40.3985 81.9657 39.9168 81.6045 39.3072C81.2432 38.6901 81.0626 37.9977 81.0626 37.23C81.0626 36.4624 81.2432 35.7738 81.6045 35.1642C81.9657 34.547 82.4662 34.0654 83.1059 33.7192C83.7456 33.3654 84.4606 33.1886 85.2508 33.1886C85.868 33.1886 86.4324 33.2939 86.9442 33.5047C87.4559 33.7079 87.8925 34.0127 88.2537 34.4191L87.5199 35.1303C86.9254 34.5056 86.1841 34.1933 85.296 34.1933C84.709 34.1933 84.1784 34.325 83.7042 34.5884C83.2301 34.8518 82.8576 35.2168 82.5866 35.6834C82.3232 36.1425 82.1915 36.6581 82.1915 37.23C82.1915 37.802 82.3232 38.3213 82.5866 38.7879C82.8576 39.247 83.2301 39.6083 83.7042 39.8717C84.1784 40.1351 84.709 40.2668 85.296 40.2668C86.1765 40.2668 86.9178 39.9507 87.5199 39.3185L88.2537 40.0297C87.8925 40.4361 87.4522 40.7447 86.9329 40.9554C86.4211 41.1662 85.8567 41.2715 85.2395 41.2715Z" fill="#8360af"/>
<path d="M95.4895 34.261H92.7802V41.1812H91.6738V34.261H88.9758V33.2789H95.4895V34.261Z" fill="#8360af"/>
<path d="M58.3719 13.6442L58.3606 7.88676L55.5045 12.6846H54.9852L52.1291 7.92063V13.6442H51.0453V5.74185H51.971L55.2674 11.2961L58.5187 5.74185H59.4444L59.4557 13.6442H58.3719Z" stroke="#8360af" stroke-width="0.2" mask="url(#path-18-outside-1)"/>
<path d="M65.8101 13.7345C65.0124 13.7345 64.2937 13.5614 63.6539 13.2152C63.0142 12.8615 62.51 12.376 62.1412 11.7589C61.78 11.1418 61.5993 10.4531 61.5993 9.69301C61.5993 8.93288 61.78 8.24425 62.1412 7.62712C62.51 7.00998 63.0142 6.52832 63.6539 6.18212C64.2937 5.8284 65.0124 5.65154 65.8101 5.65154C66.6004 5.65154 67.3153 5.8284 67.9551 6.18212C68.5948 6.52832 69.0953 7.00998 69.4565 7.62712C69.8178 8.23672 69.9984 8.92536 69.9984 9.69301C69.9984 10.4607 69.8178 11.1531 69.4565 11.7702C69.0953 12.3798 68.5948 12.8615 67.9551 13.2152C67.3153 13.5614 66.6004 13.7345 65.8101 13.7345ZM65.8101 12.7298C66.3896 12.7298 66.9089 12.5981 67.368 12.3346C67.8346 12.0712 68.1997 11.71 68.4631 11.2509C68.734 10.7843 68.8695 10.265 68.8695 9.69301C68.8695 9.12103 68.734 8.6055 68.4631 8.14641C68.1997 7.6798 67.8346 7.31479 67.368 7.05138C66.9089 6.78797 66.3896 6.65626 65.8101 6.65626C65.2306 6.65626 64.7038 6.78797 64.2297 7.05138C63.7631 7.31479 63.3943 7.6798 63.1234 8.14641C62.8599 8.6055 62.7282 9.12103 62.7282 9.69301C62.7282 10.265 62.8599 10.7843 63.1234 11.2509C63.3943 11.71 63.7631 12.0712 64.2297 12.3346C64.7038 12.5981 65.2306 12.7298 65.8101 12.7298Z" stroke="#8360af" stroke-width="0.2" mask="url(#path-18-outside-1)"/>
<path d="M72.162 5.74185H73.2796V11.8379L77.9533 5.74185H78.9918V13.6442H77.8855V7.55938L73.2006 13.6442H72.162V5.74185ZM75.56 5.18869C74.9429 5.18869 74.465 5.05698 74.1263 4.79357C73.7951 4.52263 73.6258 4.13881 73.6183 3.64209H74.4198C74.4273 3.9356 74.5289 4.16515 74.7246 4.33072C74.9278 4.48877 75.2063 4.56779 75.56 4.56779C75.8987 4.56779 76.1696 4.48877 76.3728 4.33072C76.5835 4.16515 76.6927 3.9356 76.7002 3.64209H77.4904C77.4829 4.13128 77.3098 4.51135 76.9711 4.78228C76.64 5.05322 76.1696 5.18869 75.56 5.18869Z" stroke="#8360af" stroke-width="0.2" mask="url(#path-18-outside-1)"/>
<path d="M54.5788 27.503C53.7886 27.503 53.0736 27.3299 52.4339 26.9837C51.8017 26.63 51.305 26.1483 50.9437 25.5387C50.5825 24.9216 50.4019 24.2292 50.4019 23.4615C50.4019 22.6939 50.5825 22.0052 50.9437 21.3956C51.305 20.7785 51.8055 20.2968 52.4452 19.9506C53.0849 19.5969 53.7999 19.4201 54.5901 19.4201C55.2072 19.4201 55.7717 19.5254 56.2834 19.7361C56.7952 19.9394 57.2317 20.2442 57.593 20.6506L56.8592 21.3618C56.2646 20.7371 55.5233 20.4248 54.6352 20.4248C54.0482 20.4248 53.5176 20.5565 53.0435 20.8199C52.5693 21.0833 52.1968 21.4483 51.9259 21.9149C51.6625 22.374 51.5308 22.8895 51.5308 23.4615C51.5308 24.0335 51.6625 24.5528 51.9259 25.0194C52.1968 25.4785 52.5693 25.8397 53.0435 26.1032C53.5176 26.3666 54.0482 26.4983 54.6352 26.4983C55.5158 26.4983 56.2571 26.1822 56.8592 25.55L57.593 26.2612C57.2317 26.6676 56.7914 26.9762 56.2722 27.1869C55.7604 27.3976 55.1959 27.503 54.5788 27.503Z" stroke="#8360af" stroke-width="0.2" mask="url(#path-18-outside-1)"/>
<path d="M65.2218 26.4305V27.4127H59.487V19.5104H65.0637V20.4925H60.6159V22.9197H64.5783V23.8792H60.6159V26.4305H65.2218Z" stroke="#8360af" stroke-width="0.2" mask="url(#path-18-outside-1)"/>
<path d="M74.6599 27.4127L74.6486 21.6553L71.7924 26.4531H71.2732L68.417 21.6891V27.4127H67.3333V19.5104H68.259L71.5554 25.0646L74.8066 19.5104H75.7323L75.7436 27.4127H74.6599Z" stroke="#8360af" stroke-width="0.2" mask="url(#path-18-outside-1)"/>
<path d="M84.2769 26.4305V27.4127H78.5421V19.5104H84.1188V20.4925H79.671V22.9197H83.6334V23.8792H79.671V26.4305H84.2769Z" stroke="#8360af" stroke-width="0.2" mask="url(#path-18-outside-1)"/>
<path d="M86.3884 19.5104H87.506V25.6064L92.1796 19.5104H93.2182V27.4127H92.1119V21.3279L87.427 27.4127H86.3884V19.5104ZM89.7864 18.9572C89.1692 18.9572 88.6913 18.8255 88.3527 18.5621C88.0215 18.2912 87.8522 17.9073 87.8447 17.4106H88.6462C88.6537 17.7041 88.7553 17.9337 88.951 18.0992C89.1542 18.2573 89.4326 18.3363 89.7864 18.3363C90.125 18.3363 90.396 18.2573 90.5992 18.0992C90.8099 17.9337 90.919 17.7041 90.9266 17.4106H91.7168C91.7093 17.8998 91.5362 18.2799 91.1975 18.5508C90.8663 18.8217 90.396 18.9572 89.7864 18.9572Z" stroke="#8360af" stroke-width="0.2" mask="url(#path-18-outside-1)"/>
<path d="M102.817 19.5104V27.4127H101.688V23.8905H97.1495V27.4127H96.0206V19.5104H97.1495V22.9084H101.688V19.5104H102.817Z" stroke="#8360af" stroke-width="0.2" mask="url(#path-18-outside-1)"/>
<path d="M109.086 22.2649C110.026 22.2649 110.745 22.4756 111.242 22.8971C111.746 23.3185 111.998 23.9394 111.998 24.7598C111.998 25.6253 111.727 26.2838 111.185 26.7353C110.651 27.1869 109.883 27.4127 108.882 27.4127H105.62V19.5104H106.737V22.2649H109.086ZM108.837 26.5209C109.492 26.5209 109.992 26.3741 110.339 26.0806C110.692 25.7795 110.869 25.3468 110.869 24.7823C110.869 23.6986 110.192 23.1567 108.837 23.1567H106.737V26.5209H108.837ZM113.251 19.5104H114.369V27.4127H113.251V19.5104Z" stroke="#8360af" stroke-width="0.2" mask="url(#path-18-outside-1)"/>
<path d="M117.17 19.5104H118.288V25.6064L122.962 19.5104H124V27.4127H122.894V21.3279L118.209 27.4127H117.17V19.5104ZM120.568 18.9572C119.951 18.9572 119.473 18.8255 119.135 18.5621C118.804 18.2912 118.634 17.9073 118.627 17.4106H119.428C119.436 17.7041 119.537 17.9337 119.733 18.0992C119.936 18.2573 120.215 18.3363 120.568 18.3363C120.907 18.3363 121.178 18.2573 121.381 18.0992C121.592 17.9337 121.701 17.7041 121.709 17.4106H122.499C122.491 17.8998 122.318 18.2799 121.979 18.5508C121.648 18.8217 121.178 18.9572 120.568 18.9572Z" stroke="#8360af" stroke-width="0.2" mask="url(#path-18-outside-1)"/>
<path d="M57.593 33.1886C58.3531 33.1886 59.038 33.3654 59.6476 33.7192C60.2572 34.0654 60.7351 34.547 61.0813 35.1642C61.435 35.7738 61.6119 36.4624 61.6119 37.23C61.6119 37.9977 61.435 38.6901 61.0813 39.3072C60.7351 39.9168 60.2572 40.3985 59.6476 40.7522C59.038 41.0984 58.3531 41.2715 57.593 41.2715C56.8855 41.2715 56.242 41.1172 55.6625 40.8087C55.083 40.5001 54.6127 40.0749 54.2514 39.533C53.8902 38.9911 53.6757 38.374 53.6079 37.6816H52.1629V41.1812H51.0453V33.2789H52.1629V36.6656H53.6192C53.702 35.9958 53.924 35.3975 54.2853 34.8706C54.6541 34.3438 55.1244 33.9336 55.6964 33.6401C56.2684 33.3391 56.9006 33.1886 57.593 33.1886ZM57.593 40.2555C58.1348 40.2555 58.624 40.1276 59.0605 39.8717C59.5046 39.6083 59.8508 39.247 60.0991 38.7879C60.355 38.3288 60.483 37.8096 60.483 37.23C60.483 36.6505 60.355 36.1312 60.0991 35.6722C59.8508 35.2131 59.5046 34.8556 59.0605 34.5997C58.624 34.3363 58.1348 34.2046 57.593 34.2046C57.0586 34.2046 56.5732 34.3363 56.1367 34.5997C55.7002 34.8556 55.354 35.2131 55.0981 35.6722C54.8497 36.1312 54.7256 36.6505 54.7256 37.23C54.7256 37.8096 54.8497 38.3288 55.0981 38.7879C55.354 39.247 55.7002 39.6083 56.1367 39.8717C56.5732 40.1276 57.0586 40.2555 57.593 40.2555Z" stroke="#8360af" stroke-width="0.2" mask="url(#path-18-outside-1)"/>
<path d="M66.8684 33.2789C67.8919 33.2789 68.6972 33.5235 69.2843 34.0127C69.8713 34.5019 70.1648 35.1754 70.1648 36.0334C70.1648 36.8914 69.8713 37.565 69.2843 38.0541C68.6972 38.5433 67.8919 38.7879 66.8684 38.7879H64.9154V41.1812H63.7865V33.2789H66.8684ZM66.8345 37.8058C67.5495 37.8058 68.0951 37.6553 68.4714 37.3542C68.8477 37.0457 69.0359 36.6054 69.0359 36.0334C69.0359 35.4614 68.8477 35.0249 68.4714 34.7239C68.0951 34.4153 67.5495 34.261 66.8345 34.261H64.9154V37.8058H66.8345Z" stroke="#8360af" stroke-width="0.2" mask="url(#path-18-outside-1)"/>
<path d="M72.0738 33.2789H73.1914V39.375L77.8651 33.2789H78.9037V41.1812H77.7973V35.0964L73.1124 41.1812H72.0738V33.2789Z" stroke="#8360af" stroke-width="0.2" mask="url(#path-18-outside-1)"/>
<path d="M85.2395 41.2715C84.4493 41.2715 83.7343 41.0984 83.0946 40.7522C82.4624 40.3985 81.9657 39.9168 81.6045 39.3072C81.2432 38.6901 81.0626 37.9977 81.0626 37.23C81.0626 36.4624 81.2432 35.7738 81.6045 35.1642C81.9657 34.547 82.4662 34.0654 83.1059 33.7192C83.7456 33.3654 84.4606 33.1886 85.2508 33.1886C85.868 33.1886 86.4324 33.2939 86.9442 33.5047C87.4559 33.7079 87.8925 34.0127 88.2537 34.4191L87.5199 35.1303C86.9254 34.5056 86.1841 34.1933 85.296 34.1933C84.709 34.1933 84.1784 34.325 83.7042 34.5884C83.2301 34.8518 82.8576 35.2168 82.5866 35.6834C82.3232 36.1425 82.1915 36.6581 82.1915 37.23C82.1915 37.802 82.3232 38.3213 82.5866 38.7879C82.8576 39.247 83.2301 39.6083 83.7042 39.8717C84.1784 40.1351 84.709 40.2668 85.296 40.2668C86.1765 40.2668 86.9178 39.9507 87.5199 39.3185L88.2537 40.0297C87.8925 40.4361 87.4522 40.7447 86.9329 40.9554C86.4211 41.1662 85.8567 41.2715 85.2395 41.2715Z" stroke="#8360af" stroke-width="0.2" mask="url(#path-18-outside-1)"/>
<path d="M95.4895 34.261H92.7802V41.1812H91.6738V34.261H88.9758V33.2789H95.4895V34.261Z" stroke="#8360af" stroke-width="0.2" mask="url(#path-18-outside-1)"/>
</svg>
