<svg width="1867" height="1867" viewBox="0 0 1867 1867" fill="none" xmlns="http://www.w3.org/2000/svg">
<path fill-rule="evenodd" clip-rule="evenodd" d="M1551.03 234.158C1373.02 77.1532 1141.87 -6.10498 904.631 1.3351C667.392 8.77524 441.908 106.354 274.087 274.205C106.266 442.055 8.72745 667.557 1.32961 904.797C-6.06824 1142.04 77.2312 1373.18 234.268 1551.16L296.592 1496.17C153.545 1334.04 77.6662 1123.49 84.405 907.388C91.1438 691.282 179.993 485.869 332.864 332.971C482.344 183.464 682.048 95.161 892.876 84.9818L892.876 185.999C730.755 194.883 575.467 256.266 450.799 361.481L503.657 424.112C613.533 331.381 750.118 276.88 892.876 268.092L892.876 371.369C832.604 375.762 773.255 389.827 717.147 413.18C636.703 446.664 565.11 498.331 507.986 564.129C450.862 629.927 409.76 708.066 387.905 792.416C379.348 825.441 373.833 859.067 371.368 892.877L268.092 892.877C269.841 864.488 273.408 836.152 278.808 808.043C300.684 694.161 351.87 587.95 427.318 499.886L365.081 446.565C280.363 545.448 222.888 664.709 198.324 792.583C173.761 920.456 182.958 1052.52 225.008 1175.76C267.059 1298.99 340.51 1409.14 438.116 1495.32C535.722 1581.51 654.11 1640.76 781.603 1667.23L798.264 1586.99C684.722 1563.42 579.288 1510.65 492.362 1433.89C405.436 1357.13 340.022 1259.04 302.572 1149.29C283.267 1092.71 271.736 1034.05 268.093 974.877L371.369 974.877C373.211 1000.16 376.761 1025.35 382.021 1050.29C400.007 1135.55 437.502 1215.48 491.566 1283.82L557.641 1231.54C511.653 1173.41 479.759 1105.42 464.461 1032.9C449.162 960.378 450.875 885.297 469.465 813.548C488.056 741.799 523.017 675.333 571.608 619.364C620.198 563.396 681.096 519.447 749.524 490.965C817.951 462.484 892.047 450.244 965.999 455.207C1039.95 460.17 1111.75 482.2 1175.76 519.569C1199.84 533.629 1222.57 549.716 1243.73 567.615L1171.47 639.878C1117.38 596.167 1051.88 567.92 981.99 558.951C888.318 546.93 793.54 570.409 716.311 624.766L763.305 691.534C823.852 648.919 898.159 630.511 971.597 639.936C1045.04 649.36 1112.29 685.933 1160.11 742.456C1207.94 798.979 1232.87 871.357 1230.01 945.342C1227.14 1019.33 1196.69 1089.56 1144.63 1142.22C1098.76 1188.63 1039.03 1218.42 974.877 1227.38L974.876 1121.45C997.989 1116.4 1020.14 1107.08 1040.14 1093.79C1077.35 1069.07 1104.77 1032.14 1117.68 989.377C1130.59 946.613 1128.19 900.684 1110.89 859.501L1035.87 891.022C1045.84 914.751 1047.22 941.215 1039.78 965.856C1032.34 990.497 1016.54 1011.77 995.105 1026.02C973.668 1040.26 947.933 1046.59 922.334 1043.9C896.735 1041.22 872.874 1029.69 854.859 1011.31C836.844 992.921 825.804 968.83 823.639 943.182C821.474 917.534 828.32 891.933 842.998 870.789C857.676 849.645 879.267 834.281 904.054 827.342C928.841 820.404 955.271 822.325 978.794 832.776L1011.83 758.414C971.007 740.277 925.137 736.942 882.119 748.984C839.102 761.026 801.629 787.691 776.155 824.387C750.681 861.083 738.799 905.513 742.557 950.026C746.314 994.539 765.475 1036.35 796.74 1068.26C823.026 1095.08 856.484 1113.49 892.876 1121.45L892.877 1227.38C838.894 1219.84 787.649 1197.49 745.078 1162.3C688.007 1115.14 650.661 1048.31 640.39 974.986C630.119 901.66 647.668 827.147 689.583 766.112L622.277 719.891C568.815 797.741 546.43 892.785 559.531 986.312C572.631 1079.84 620.267 1165.07 693.062 1225.24C765.856 1285.4 858.536 1316.14 952.856 1311.4C1047.18 1306.66 1136.31 1266.78 1202.7 1199.62C1269.09 1132.45 1307.94 1042.87 1311.59 948.501C1315.11 857.722 1285.81 768.841 1229.28 698.033L1301.58 625.733C1313.52 639.989 1324.66 654.962 1334.92 670.589C1375.6 732.548 1401.36 803.09 1410.2 876.68L1493.85 866.634C1483.46 780.121 1453.17 697.191 1405.35 624.35C1357.53 551.51 1293.48 490.74 1218.24 446.808C1143.92 403.421 1060.67 377.622 974.876 371.369L974.876 268.092C1118.64 276.942 1256.08 332.142 1366.29 425.969L1419.41 363.566C1294.38 257.115 1138.12 194.945 974.876 185.999L974.876 84.9803C1166.9 94.2485 1350.88 168.446 1496.05 296.492L1551.03 234.158ZM314.491 1631.62C491.783 1789 722.337 1872.99 959.316 1866.53C1196.3 1860.07 1421.93 1763.63 1590.38 1596.82C1758.83 1430.01 1857.46 1205.33 1866.24 968.424C1875.01 731.518 1793.28 500.155 1637.64 321.335L1574.94 375.903C1700.8 520.496 1773.6 702.802 1782.77 892.876L1681.75 892.876C1680.07 862.215 1676.5 831.594 1671.03 801.186C1647.92 672.786 1591.67 552.65 1507.85 452.673L1445.04 505.326C1519.69 594.363 1569.79 701.354 1590.37 815.705C1610.95 930.056 1601.31 1047.8 1562.4 1157.28C1533.98 1237.23 1490.67 1310.74 1435.05 1374.07L1362.01 1301.03C1370.78 1290.8 1379.2 1280.24 1387.25 1269.36C1447.02 1188.59 1484.13 1093.31 1494.73 993.385L1410.94 984.495C1401.93 1069.49 1370.36 1150.54 1319.52 1219.24C1268.68 1287.95 1200.4 1341.83 1121.76 1375.3C1043.11 1408.78 956.949 1420.63 872.184 1409.64C787.42 1398.65 707.132 1365.21 639.624 1312.79L587.947 1379.33C667.311 1440.96 761.7 1480.27 861.35 1493.19C871.845 1494.55 882.358 1495.62 892.877 1496.38L892.877 1675.88L974.877 1675.88L974.877 1496.38C1036.57 1491.89 1097.36 1477.25 1154.75 1452.83C1209.42 1429.56 1259.82 1397.91 1304.25 1359.23L1377.26 1432.24C1374.37 1434.81 1371.45 1437.36 1368.51 1439.88C1280.38 1515.59 1173.99 1566.96 1059.9 1588.91L1075.38 1669.39C1203.49 1644.74 1322.95 1587.06 1421.91 1502.05C1520.88 1417.04 1595.93 1307.66 1639.62 1184.73C1663.74 1116.87 1677.84 1046.19 1681.75 974.876L1782.77 974.876C1772.52 1187.17 1683.08 1388.05 1531.89 1537.76C1378.45 1689.71 1172.92 1777.56 957.05 1783.44C741.181 1789.33 531.166 1712.83 369.668 1569.46L314.491 1631.62ZM824.075 1563.37C691.441 1540.24 569.209 1475.73 475.128 1378.7L467.877 1371.68L630.562 1210L641.155 1220.16L641.169 1220.15L641.593 1220.58L659.565 1237.82C712.547 1285.64 777.233 1318.88 847.276 1334.04C925.649 1351 1007.28 1344.57 1082.03 1315.56C1156.78 1286.54 1221.37 1236.21 1267.78 1170.82C1313.57 1106.29 1339.67 1029.89 1342.95 950.876L1342.88 950.876L1342.88 907.876L1526.64 907.876C1523.69 840.655 1509.33 774.319 1484.06 711.739C1455.04 639.867 1412.24 574.414 1358.1 519.051L1339.88 501.683L1581.1 259.456L1611.93 290.435L1400.99 502.254C1453.19 558.741 1494.76 624.293 1523.62 695.766C1556.31 776.719 1571.98 863.535 1569.65 950.806L1568.87 950.786L1568.88 950.876L1385.56 950.876C1382.25 1038.73 1353.39 1123.73 1302.5 1195.45C1251.27 1267.65 1179.96 1323.21 1097.44 1355.25C1014.91 1387.28 924.793 1394.37 838.27 1375.65C760.965 1358.92 689.569 1322.24 631.087 1269.47L529.392 1371.79C621.39 1456.77 738.095 1510.84 863.062 1525.79L863.059 1525.82L869.565 1526.36L856.113 1753.96L854.338 1753.73L854.309 1754.03C670.757 1736.22 498.779 1657.39 365.639 1530.6L288.121 1608.83L256.877 1578.26L367.1 1468.04L397.291 1498.39C512.636 1608.03 658.744 1679.64 815.818 1703.72L824.075 1563.37Z" fill="#F5F5F5"/>
</svg>
