<svg width="102" height="30" viewBox="0 0 102 30" fill="none" xmlns="http://www.w3.org/2000/svg">
<path d="M98.0845 29.6215H3.83646C1.92647 29.6215 0.378723 28.0737 0.378723 26.1638V3.83664C0.378723 1.92666 1.92647 0.378906 3.83646 0.378906H98.0845C99.9945 0.378906 101.542 1.92666 101.542 3.83664V26.1638C101.542 28.0737 99.9945 29.6215 98.0845 29.6215Z" fill="black"/>
<path d="M3.83461 0.757409C2.13685 0.757409 0.75558 2.13868 0.75558 3.83644V26.1636C0.75558 27.8613 2.13685 29.2426 3.83461 29.2426H98.0845C99.7823 29.2426 101.164 27.8613 101.164 26.1636V3.83644C101.164 2.13868 99.7823 0.757409 98.0845 0.757409H3.83461ZM98.0845 30H3.83461C1.71972 30 0 28.2784 0 26.1636V3.83644C0 1.72155 1.71972 0 3.83461 0H98.0845C100.199 0 101.919 1.72155 101.919 3.83644V26.1636C101.919 28.2784 100.199 30 98.0845 30Z" fill="#A7A9AB"/>
<path d="M22.7461 14.7075C22.7223 12.2688 24.742 11.0814 24.8353 11.0266C23.6919 9.35806 21.9191 9.1312 21.2953 9.1129C19.8079 8.9574 18.3644 10.0057 17.607 10.0057C16.8331 10.0057 15.6641 9.12937 14.4072 9.15498C12.7863 9.18059 11.2715 10.1191 10.4409 11.5736C8.72849 14.5428 10.0055 18.9043 11.6484 21.3046C12.4716 22.4792 13.4303 23.7927 14.6871 23.7452C15.9166 23.694 16.3758 22.9622 17.8595 22.9622C19.3304 22.9622 19.7622 23.7452 21.0446 23.7159C22.3637 23.694 23.1943 22.5359 23.9865 21.3485C24.9378 20.002 25.3183 18.6757 25.333 18.608C25.3019 18.597 22.7717 17.631 22.7461 14.7075Z" fill="white"/>
<path d="M20.3238 7.53593C20.9842 6.709 21.4398 5.58203 21.3117 4.44043C20.3549 4.48434 19.1584 5.10271 18.4687 5.91134C17.8595 6.62484 17.3124 7.79389 17.4551 8.89158C18.5309 8.97208 19.6341 8.35005 20.3238 7.53593Z" fill="white"/>
<path d="M37.5832 15.148L36.7343 12.5263C36.6447 12.2592 36.4764 11.628 36.2276 10.6364H36.1983C36.0995 11.0627 35.9385 11.6939 35.7208 12.5263L34.8865 15.148H37.5832ZM40.5177 19.3357H38.8035L37.865 16.3865H34.6048L33.7102 19.3357H32.0417L35.2762 9.29541H37.2704" fill="white"/>
<path d="M47.1917 15.6858C47.1917 14.9796 47.0326 14.3996 46.7142 13.9423C46.3666 13.4666 45.9001 13.2269 45.3147 13.2269C44.9177 13.2269 44.5554 13.3605 44.2353 13.6221C43.9133 13.8874 43.7011 14.2313 43.6004 14.6594C43.551 14.857 43.5273 15.0198 43.5273 15.1479V16.3554C43.5273 16.8823 43.6883 17.3268 44.0102 17.6891C44.3341 18.0531 44.753 18.2324 45.2689 18.2324C45.8763 18.2324 46.3483 18.0001 46.6831 17.5317C47.0234 17.0652 47.1917 16.4505 47.1917 15.6858ZM48.831 15.6254C48.831 16.8566 48.498 17.8318 47.8321 18.5453C47.2356 19.1819 46.4947 19.4984 45.6129 19.4984C44.6579 19.4984 43.9737 19.1545 43.5565 18.4703H43.5273V22.2847H41.9173V14.4783C41.9173 13.7044 41.899 12.9104 41.8588 12.0945H43.273L43.3626 13.2434H43.3937C43.9297 12.378 44.7439 11.9463 45.8361 11.9463C46.6886 11.9463 47.404 12.2847 47.9729 12.9598C48.5437 13.6367 48.831 14.524 48.831 15.6254Z" fill="white"/>
<path d="M55.5177 15.6858C55.5177 14.9796 55.3586 14.3996 55.0402 13.9423C54.6926 13.4666 54.2261 13.2269 53.6407 13.2269C53.2437 13.2269 52.8833 13.3605 52.5613 13.6221C52.2374 13.8874 52.0289 14.2313 51.9301 14.6594C51.8789 14.857 51.8551 15.0198 51.8551 15.1479V16.3554C51.8551 16.8823 52.0142 17.3268 52.3362 17.6891C52.6601 18.0531 53.079 18.2324 53.5968 18.2324C54.2023 18.2324 54.6743 18.0001 55.011 17.5317C55.3476 17.0652 55.5177 16.4505 55.5177 15.6858ZM57.1551 15.6254C57.1551 16.8566 56.824 17.8318 56.158 18.5453C55.5616 19.1819 54.8225 19.4984 53.9389 19.4984C52.9857 19.4984 52.3015 19.1545 51.8825 18.4703H51.8551V22.2847H50.2451V14.4783C50.2451 13.7044 50.225 12.9104 50.1866 12.0945H51.6008L51.6904 13.2434H51.7215C52.2557 12.378 53.0699 11.9463 54.1621 11.9463C55.0164 11.9463 55.7281 12.2847 56.3007 12.9598C56.8715 13.6367 57.1551 14.524 57.1551 15.6254Z" fill="white"/>
<path d="M66.4672 16.5202C66.4672 17.3727 66.1708 18.0679 65.5744 18.6058C64.9195 19.1912 64.0102 19.484 62.8412 19.484C61.7599 19.484 60.8927 19.2754 60.236 18.8583L60.6092 17.5191C61.3172 17.9454 62.0911 18.1576 62.9363 18.1576C63.5419 18.1576 64.0139 18.0222 64.3523 17.7496C64.6889 17.4752 64.8573 17.1093 64.8573 16.6519C64.8573 16.2458 64.72 15.9 64.442 15.6219C64.1639 15.3438 63.701 15.0859 63.0552 14.8462C61.2971 14.1894 60.4189 13.2289 60.4189 11.9666C60.4189 11.1415 60.7263 10.4646 61.3428 9.93768C61.9575 9.41078 62.7771 9.14551 63.7998 9.14551C64.7146 9.14551 65.4738 9.3065 66.0794 9.62301L65.6769 10.9348C65.1116 10.6274 64.4712 10.4719 63.7559 10.4719C63.1888 10.4719 62.7479 10.6109 62.4314 10.889C62.1642 11.1378 62.0289 11.4415 62.0289 11.7983C62.0289 12.1953 62.1807 12.5227 62.4899 12.7807C62.757 13.0185 63.2436 13.2765 63.9498 13.5564C64.8133 13.904 65.4482 14.3102 65.8562 14.7767C66.2623 15.2432 66.4672 15.825 66.4672 16.5202Z" fill="white"/>
<path d="M71.7838 13.3025H70.011V16.8169C70.011 17.7116 70.3238 18.158 70.9514 18.158C71.2368 18.158 71.4764 18.1342 71.6649 18.0848L71.7088 19.305C71.3941 19.4258 70.9751 19.4843 70.4592 19.4843C69.8244 19.4843 69.3268 19.2904 68.9682 18.9044C68.6114 18.5165 68.4321 17.8652 68.4321 16.9523V13.3025H67.3747V12.095H68.4321V10.7705L70.011 10.293V12.095H71.7838" fill="white"/>
<path d="M78.1156 15.7077C78.1156 15.04 77.9711 14.4692 77.682 13.9898C77.3472 13.4117 76.8642 13.1227 76.2385 13.1227C75.5927 13.1227 75.1006 13.4117 74.764 13.9898C74.4749 14.4692 74.334 15.0509 74.334 15.7388C74.334 16.4066 74.4749 16.9774 74.764 17.4549C75.1116 18.033 75.5982 18.3221 76.2257 18.3221C76.8386 18.3221 77.3216 18.0293 77.6692 17.4403C77.9674 16.9536 78.1156 16.3755 78.1156 15.7077ZM79.7841 15.6565C79.7841 16.7688 79.4676 17.6817 78.8309 18.3971C78.165 19.1325 77.2814 19.4984 76.18 19.4984C75.1152 19.4984 74.27 19.1453 73.6388 18.441C73.0095 17.7366 72.6948 16.8475 72.6948 15.7754C72.6948 14.6521 73.0186 13.7337 73.6699 13.0202C74.3194 12.303 75.1957 11.9463 76.2971 11.9463C77.36 11.9463 78.2162 12.2994 78.8602 13.0037C79.4767 13.6916 79.7841 14.5734 79.7841 15.6565Z" fill="white"/>
<path d="M85.0128 13.5105C84.8536 13.4812 84.6853 13.4666 84.506 13.4666C83.9407 13.4666 83.5016 13.6806 83.1943 14.1069C82.9272 14.4856 82.7936 14.9613 82.7936 15.5358V19.3356H81.1855L81.1983 14.3759C81.1983 13.5398 81.1782 12.7805 81.1398 12.0945H82.5412L82.5997 13.4812H82.6418C82.8119 13.0056 83.0809 12.6214 83.4468 12.3341C83.8053 12.0762 84.1932 11.9463 84.6103 11.9463C84.7585 11.9463 84.8939 11.9573 85.0128 11.9756" fill="white"/>
<path d="M90.6714 14.9558C90.6824 14.4801 90.5781 14.0667 90.3604 13.7191C90.0823 13.2727 89.6524 13.0476 89.0779 13.0476C88.5529 13.0476 88.1248 13.2672 87.7973 13.7044C87.5302 14.052 87.3692 14.4691 87.3234 14.9558H90.6714ZM92.2045 15.3729C92.2045 15.662 92.1862 15.9035 92.1478 16.1029H87.3234C87.3399 16.8182 87.5741 17.3652 88.0223 17.7421C88.4285 18.0806 88.9553 18.247 89.6012 18.247C90.3147 18.247 90.966 18.1336 91.5532 17.9049L91.8057 19.0227C91.1196 19.3191 90.311 19.471 89.3761 19.471C88.2547 19.471 87.3728 19.1398 86.7325 18.4776C86.094 17.8189 85.772 16.9316 85.772 15.8193C85.772 14.7271 86.0684 13.8178 86.6667 13.0934C87.2905 12.3177 88.1357 11.9316 89.1968 11.9316C90.2397 11.9316 91.0318 12.3177 91.5679 13.0934C91.9941 13.7081 92.2045 14.4691 92.2045 15.3729Z" fill="white"/>
</svg>
