<svg width="68" height="68" viewBox="0 0 68 68" fill="none" xmlns="http://www.w3.org/2000/svg">
<circle cx="34" cy="34" r="34" fill="#FF9358"/>
<g filter="url(#filter0_d)">
<path d="M38.0433 26.7849C37.3712 26.7849 36.8259 26.2396 36.8259 25.5675V14.6108H20.9997C20.3276 14.6108 19.7822 15.1562 19.7822 15.8283V50.7272C19.7822 51.3993 20.3276 51.9446 20.9997 51.9446H47.7825C48.4546 51.9446 48.9999 51.3993 48.9999 50.7272V26.7849H38.0433ZM25.8692 44.6401C25.1969 44.6401 24.6518 44.095 24.6518 43.4227C24.6518 42.7503 25.1969 42.2052 25.8692 42.2052C26.5416 42.2052 27.0867 42.7503 27.0867 43.4227C27.0867 44.095 26.5416 44.6401 25.8692 44.6401ZM25.8692 39.7705C25.1969 39.7705 24.6518 39.2254 24.6518 38.553C24.6518 37.8807 25.1969 37.3356 25.8692 37.3356C26.5416 37.3356 27.0867 37.8807 27.0867 38.553C27.0867 39.2254 26.5416 39.7705 25.8692 39.7705ZM25.8692 34.9009C25.1969 34.9009 24.6518 34.3558 24.6518 33.6835C24.6518 33.0112 25.1969 32.466 25.8692 32.466C26.5416 32.466 27.0867 33.0111 27.0867 33.6835C27.0867 34.3558 26.5416 34.9009 25.8692 34.9009ZM42.9129 44.6401H30.7389C30.0668 44.6401 29.5214 44.0948 29.5214 43.4227C29.5214 42.7506 30.0668 42.2052 30.7389 42.2052H42.9129C43.585 42.2052 44.1304 42.7506 44.1304 43.4227C44.1304 44.0948 43.585 44.6401 42.9129 44.6401ZM42.9129 39.7705H30.7389C30.0668 39.7705 29.5214 39.2251 29.5214 38.553C29.5214 37.881 30.0668 37.3356 30.7389 37.3356H42.9129C43.585 37.3356 44.1304 37.881 44.1304 38.553C44.1304 39.2251 43.585 39.7705 42.9129 39.7705ZM42.9129 34.9009H30.7389C30.0668 34.9009 29.5214 34.3555 29.5214 33.6835C29.5214 33.0114 30.0668 32.466 30.7389 32.466H42.9129C43.585 32.466 44.1304 33.0114 44.1304 33.6835C44.1303 34.3555 43.585 34.9009 42.9129 34.9009Z" fill="#FDFFFC"/>
<path d="M39.2603 15.3242V24.3501H48.2861L39.2603 15.3242Z" fill="#FDFFFC"/>
</g>
<defs>
<filter id="filter0_d" x="15.7822" y="14.6108" width="37.2177" height="45.3338" filterUnits="userSpaceOnUse" color-interpolation-filters="sRGB">
<feFlood flood-opacity="0" result="BackgroundImageFix"/>
<feColorMatrix in="SourceAlpha" type="matrix" values="0 0 0 0 0 0 0 0 0 0 0 0 0 0 0 0 0 0 127 0"/>
<feOffset dy="4"/>
<feGaussianBlur stdDeviation="2"/>
<feColorMatrix type="matrix" values="0 0 0 0 0 0 0 0 0 0 0 0 0 0 0 0 0 0 0.1 0"/>
<feBlend mode="normal" in2="BackgroundImageFix" result="effect1_dropShadow"/>
<feBlend mode="normal" in="SourceGraphic" in2="effect1_dropShadow" result="shape"/>
</filter>
</defs>
</svg>
